<svg version="1.1" id="Layer_1" xmlns="http://www.w3.org/2000/svg" xmlns:xlink="http://www.w3.org/1999/xlink" x="0px" y="0px" width="470px" height="75px" viewBox="0 0 470 75" enable-background="new 0 0 470 75" xml:space="preserve"><path fill="#3A3A3A" d="M363.877,56.993C363.752,56.998,363.626,57,363.5,57c-5.79,0-10.5-4.71-10.5-10.5S357.71,36,363.5,36c1.664,0,3.257,0.379,4.734,1.125l0.446,0.226l-0.45,0.893l-0.446-0.227C366.447,37.343,365.006,37,363.5,37c-5.238,0-9.5,4.262-9.5,9.5s4.262,9.5,9.5,9.5c0.641,0,1.271-0.063,1.885-0.187L363.877,56.993z"/><path fill="#3A3A3A" d="M116.5,57c-5.79,0-10.5-4.71-10.5-10.5S110.71,36,116.5,36S127,40.71,127,46.5S122.289,57,116.5,57 M116.5,37c-5.238,0-9.5,4.262-9.5,9.5s4.262,9.5,9.5,9.5s9.5-4.262,9.5-9.5S121.738,37,116.5,37"/><polyline fill="#3A3A3A" points="126,20 127,20 127,73 126,73 126,20 "/><rect x="130" y="20" fill="#3A3A3A" width="1" height="53"/><rect x="134" y="20" fill="#3A3A3A" width="1" height="53"/><rect x="138" y="20" fill="#3A3A3A" width="1" height="53"/><rect x="142" y="20" fill="#3A3A3A" width="1" height="53"/><path fill="#3A3A3A" d="M363.5,61c-7.995,0-14.5-6.505-14.5-14.5S355.505,32,363.5,32c2.93,0,5.751,0.87,8.162,2.516l0.413,0.282l-0.564,0.826l-0.413-0.282C368.854,33.81,366.227,33,363.5,33c-7.443,0-13.5,6.057-13.5,13.5S356.057,60,363.5,60c4.182,0,8.061-1.893,10.641-5.188l0.309-0.396l0.788,0.616l-0.31,0.394C372.156,58.969,367.991,61,363.5,61"/><path fill="#3A3A3A" d="M363.5,65c-10.201,0-18.5-8.299-18.5-18.5S353.299,28,363.5,28c4.212,0,8.182,1.379,11.479,3.989l0.393,0.31l-0.62,0.784l-0.393-0.311C371.238,30.305,367.484,29,363.5,29c-9.648,0-17.5,7.851-17.5,17.5c0,9.648,7.852,17.5,17.5,17.5c5.42,0,10.445-2.451,13.791-6.727l0.309-0.396l0.787,0.616l-0.309,0.396C374.543,62.408,369.229,65,363.5,65"/><path fill="#3A3A3A" d="M363.5,69C351.094,69,341,58.906,341,46.5S351.094,24,363.5,24c5.407,0,10.634,1.946,14.718,5.48l0.378,0.327l-0.653,0.756l-0.377-0.327C373.661,26.859,368.667,25,363.5,25c-11.855,0-21.5,9.645-21.5,21.5c0,11.855,9.645,21.5,21.5,21.5c6.658,0,12.834-3.012,16.943-8.264l0.308-0.396l0.788,0.616l-0.309,0.396C376.932,65.85,370.468,69,363.5,69"/><path fill="#3A3A3A" d="M380.506,27.502C375.82,23.305,369.805,21,363.5,21C349.439,21,338,32.439,338,46.5c0,14.061,11.439,25.5,25.5,25.5c7.898,0,15.223-3.572,20.096-9.801l0.31-0.395l0.787,0.614l-0.31,0.396C379.318,69.288,371.708,73,363.5,73C348.889,73,337,61.111,337,46.5c0-14.612,11.889-26.5,26.5-26.5c6.755,0,13.189,2.546,18.121,7.167l0.396,0.399l-28.073,21.958l-0.615-0.787L380.506,27.502"/><rect fill="#3A3A3A" width="1" height="73"/><rect x="4" fill="#3A3A3A" width="1" height="73"/><rect x="8" fill="#3A3A3A" width="1" height="73"/><rect x="12" fill="#3A3A3A" width="1" height="73"/><rect x="16" fill="#3A3A3A" width="1" height="73"/><polyline fill="#3A3A3A" points="70,20 71,20 71,73 70,73 70,20 "/><rect x="66" y="20" fill="#3A3A3A" width="1" height="53"/><rect x="62" y="20" fill="#3A3A3A" width="1" height="53"/><rect x="58" y="20" fill="#3A3A3A" width="1" height="53"/><rect x="54" y="20" fill="#3A3A3A" width="1" height="53"/><polyline fill="#3A3A3A" points="384.082,29.796 384.697,30.584 355.749,53.22 355.133,52.432 384.082,29.796 "/><polyline fill="#3A3A3A" points="386.303,33.138 386.919,33.926 358.886,55.846 358.27,55.059 386.303,33.138 "/><path fill="#3A3A3A" d="M116.5,61c-7.995,0-14.5-6.505-14.5-14.5S108.504,32,116.5,32c3.873,0,7.514,1.508,10.253,4.246l-0.707,0.707c-2.55-2.549-5.94-3.953-9.546-3.953c-7.444,0-13.5,6.057-13.5,13.5S109.056,60,116.5,60c3.658,0,7.083-1.439,9.646-4.055l0.714,0.699C124.108,59.453,120.429,61,116.5,61"/><path fill="#3A3A3A" d="M116.5,65C106.298,65,98,56.701,98,46.5S106.298,28,116.5,28c3.677,0,7.23,1.077,10.274,3.113l-0.556,0.832c-2.88-1.927-6.24-2.945-9.719-2.945C106.85,29,99,36.851,99,46.5c0,9.648,7.85,17.5,17.5,17.5c3.507,0,6.89-1.033,9.784-2.986l0.56,0.827C123.784,63.907,120.207,65,116.5,65"/><path fill="#3A3A3A" d="M116.5,69C104.093,69,94,58.906,94,46.5S104.093,24,116.5,24c3.603,0,7.043,0.826,10.228,2.454l-0.455,0.891C123.23,25.789,119.942,25,116.5,25C104.645,25,95,34.645,95,46.5c0,11.855,9.645,21.5,21.5,21.5c3.443,0,6.732-0.789,9.775-2.346l0.455,0.891C123.545,68.174,120.103,69,116.5,69"/><path fill="#3A3A3A" d="M116.5,73C101.888,73,90,61.111,90,46.5C90,31.888,101.888,20,116.5,20c3.532,0,6.962,0.684,10.194,2.031l-0.385,0.924c-3.11-1.298-6.41-1.955-9.81-1.955C102.439,21,91,32.439,91,46.5C91,60.561,102.439,72,116.5,72c3.442,0,6.782-0.674,9.925-2.004l0.39,0.922C123.547,72.3,120.077,73,116.5,73"/><path fill="#3A3A3A" d="M234.5,57c-5.79,0-10.5-4.71-10.5-10.5S228.71,36,234.5,36S245,40.71,245,46.5S240.29,57,234.5,57 M234.5,37c-5.238,0-9.5,4.262-9.5,9.5s4.262,9.5,9.5,9.5c5.238,0,9.5-4.262,9.5-9.5S239.738,37,234.5,37"/><polyline fill="#3A3A3A" points="244,0 245,0 245,73 244,73 244,0 "/><rect x="248" fill="#3A3A3A" width="1" height="73"/><rect x="252" fill="#3A3A3A" width="1" height="73"/><rect x="256" fill="#3A3A3A" width="1" height="73"/><rect x="260" fill="#3A3A3A" width="1" height="73"/><path fill="#3A3A3A" d="M234.5,61c-7.995,0-14.5-6.505-14.5-14.5S226.505,32,234.5,32c3.873,0,7.514,1.508,10.252,4.246l-0.707,0.707C241.496,34.404,238.105,33,234.5,33c-7.444,0-13.5,6.057-13.5,13.5S227.056,60,234.5,60c3.658,0,7.083-1.439,9.645-4.055l0.715,0.699C242.107,59.453,238.43,61,234.5,61"/><path fill="#3A3A3A" d="M234.5,65c-10.201,0-18.5-8.299-18.5-18.5S224.299,28,234.5,28c3.677,0,7.229,1.077,10.273,3.113l-0.558,0.832C241.339,30.019,237.979,29,234.5,29c-9.649,0-17.5,7.851-17.5,17.5c0,9.648,7.851,17.5,17.5,17.5c3.507,0,6.891-1.033,9.783-2.986l0.561,0.827C241.783,63.907,238.207,65,234.5,65"/><path fill="#3A3A3A" d="M234.5,69C222.094,69,212,58.906,212,46.5S222.094,24,234.5,24c3.604,0,7.043,0.826,10.229,2.454l-0.455,0.891C241.23,25.789,237.941,25,234.5,25c-11.855,0-21.5,9.645-21.5,21.5c0,11.855,9.645,21.5,21.5,21.5c3.443,0,6.73-0.789,9.773-2.346l0.455,0.891C241.545,68.174,238.104,69,234.5,69"/><path fill="#3A3A3A" d="M234.5,73C219.888,73,208,61.111,208,46.5c0-14.612,11.888-26.5,26.5-26.5c3.531,0,6.961,0.684,10.193,2.031l-0.385,0.924c-3.11-1.298-6.41-1.955-9.81-1.955C220.439,21,209,32.439,209,46.5c0,14.061,11.439,25.5,25.5,25.5c3.443,0,6.782-0.674,9.925-2.004l0.39,0.922C241.548,72.3,238.077,73,234.5,73"/><polyline fill="#3A3A3A" points="166,20 167,20 167,73 166,73 166,20 "/><rect x="162" y="20" fill="#3A3A3A" width="1" height="53"/><rect x="158" y="20" fill="#3A3A3A" width="1" height="53"/><rect x="154" y="20" fill="#3A3A3A" width="1" height="53"/><rect x="150" y="20" fill="#3A3A3A" width="1" height="53"/><path fill="#3A3A3A" d="M187,72.5h-1v-26c0-5.238-4.262-9.5-9.5-9.5s-9.5,4.262-9.5,9.5h-1c0-5.79,4.71-10.5,10.5-10.5S187,40.71,187,46.5V72.5"/><path fill="#3A3A3A" d="M191,72.5h-1v-26c0-7.443-6.056-13.5-13.5-13.5c-3.658,0-7.083,1.439-9.644,4.053l-0.715-0.699C168.892,33.546,172.57,32,176.5,32c7.995,0,14.5,6.505,14.5,14.5V72.5"/><path fill="#3A3A3A" d="M195,72.5h-1v-26c0-9.649-7.851-17.5-17.5-17.5c-3.506,0-6.89,1.033-9.784,2.988l-0.561-0.828c3.062-2.067,6.638-3.16,10.345-3.16c10.201,0,18.5,8.299,18.5,18.5V72.5"/><path fill="#3A3A3A" d="M199,72.5h-1v-26c0-11.855-9.645-21.5-21.5-21.5c-3.444,0-6.732,0.789-9.774,2.346l-0.455-0.891C169.454,24.826,172.896,24,176.5,24c12.406,0,22.5,10.094,22.5,22.5V72.5"/><path fill="#3A3A3A" d="M202.999,72.5h-1v-26c0-14.061-11.438-25.5-25.499-25.5c-3.442,0-6.782,0.674-9.927,2.004l-0.389-0.922C169.452,20.7,172.923,20,176.5,20c14.611,0,26.499,11.888,26.499,26.5V72.5"/><polyline fill="#3A3A3A" points="332,70.57 329,65.17 329,0 328,0 328,63.37 325,57.971 325,0 324,0 324,56.17 321,50.771 321,0 320,0 320,48.971 317,43.57 317,0 316,0 316,41.771 292.795,0 291.65,0 332.206,73 333,73 333,0 332,0 332,70.57 "/><polygon fill="#3A3A3A" points="321.35,73 280.795,0 279.65,0 320.205,73 "/><polygon fill="#3A3A3A" points="329.35,73 288.795,0 287.65,0 328.205,73 "/><polygon fill="#3A3A3A" points="325.35,73 284.795,0 283.65,0 324.205,73 "/><path fill="#3A3A3A" d="M80.5,37c2.64,0,5.03,1.084,6.754,2.829c0.084-0.372,0.173-0.743,0.271-1.11C85.662,37.035,83.203,36,80.5,36C74.71,36,70,40.71,70,46.5h1C71,41.262,75.262,37,80.5,37"/><path fill="#3A3A3A" d="M70.27,26.455l0.455,0.891C73.767,25.789,77.056,25,80.5,25c4.404,0,8.5,1.336,11.914,3.616c0.2-0.269,0.41-0.531,0.619-0.793C89.448,25.41,85.136,24,80.5,24C76.896,24,73.454,24.826,70.27,26.455"/><path fill="#3A3A3A" d="M80.5,21c5.396,0,10.401,1.689,14.527,4.561c0.236-0.242,0.478-0.479,0.722-0.713C91.433,21.799,86.174,20,80.5,20c-3.577,0-7.047,0.7-10.315,2.082l0.39,0.922C73.718,21.674,77.058,21,80.5,21"/><path fill="#3A3A3A" d="M80.5,33c3.007,0,5.778,1,8.024,2.669c0.125-0.321,0.249-0.643,0.385-0.959C86.534,33.011,83.636,32,80.5,32c-3.929,0-7.608,1.546-10.358,4.354l0.714,0.699C73.417,34.439,76.842,33,80.5,33"/><path fill="#3A3A3A" d="M80.5,29c3.607,0,6.962,1.099,9.75,2.977c0.162-0.292,0.327-0.581,0.498-0.866C87.812,29.148,84.289,28,80.5,28c-3.707,0-7.284,1.093-10.344,3.16l0.56,0.828C73.61,30.033,76.994,29,80.5,29"/><path fill="#3A3A3A" d="M37,50.5C37,44.71,32.29,40,26.5,40h-10v1h10c5.238,0,9.5,4.262,9.5,9.5S31.738,60,26.5,60h-10v1h10C32.289,61,37,56.29,37,50.5"/><path fill="#3A3A3A" d="M33,50.5c0-3.584-2.916-6.5-6.5-6.5h-10v1h10c3.033,0,5.5,2.468,5.5,5.5S29.532,56,26.5,56h-10v1h10C30.083,57,33,54.084,33,50.5"/><path fill="#3A3A3A" d="M41,50.5C41,42.505,34.495,36,26.5,36h-10v1h10C33.943,37,40,43.057,40,50.5S33.943,64,26.5,64h-10v1h10C34.495,65,41,58.495,41,50.5"/><path fill="#3A3A3A" d="M45,50.5C45,40.299,36.701,32,26.5,32h-10v1h10C36.149,33,44,40.852,44,50.5S36.149,68,26.5,68h-10v1h10C36.701,69,45,60.701,45,50.5"/><path fill="#3A3A3A" d="M49,22.5C49,10.094,38.906,0,26.5,0h-10v1h10C38.354,1,48,10.645,48,22.5c0,4.788-1.625,9.453-4.561,13.215c-0.664-0.76-1.378-1.474-2.137-2.139C43.715,30.36,45,26.545,45,22.5C45,12.299,36.701,4,26.5,4h-10v1h10C36.149,5,44,12.851,44,22.5c0,3.809-1.205,7.4-3.465,10.433c-0.781-0.625-1.601-1.201-2.461-1.719C39.958,28.711,41,25.645,41,22.5C41,14.505,34.495,8,26.5,8h-10v1h10C33.943,9,40,15.056,40,22.5c0,2.969-0.997,5.864-2.799,8.212c-0.905-0.492-1.849-0.92-2.824-1.286C36.067,27.51,37,25.08,37,22.5C37,16.71,32.29,12,26.5,12h-10v1h10c5.238,0,9.5,4.262,9.5,9.5c0,2.471-0.943,4.793-2.648,6.57c-1.213-0.389-2.471-0.675-3.763-0.853C31.618,27.116,33,24.966,33,22.5c0-3.584-2.916-6.5-6.5-6.5h-10v1h10c3.033,0,5.5,2.468,5.5,5.5S29.532,28,26.5,28h-10v1h10C38.354,29,48,38.645,48,50.5S38.354,72,26.5,72h-10v1h10C38.906,73,49,62.906,49,50.5c0-5.288-1.838-10.152-4.903-13.998C47.255,32.537,49,27.582,49,22.5"/><polyline fill="#3A3A3A" points="317.35,73 276.794,0 276,0 276,73 277,73 277,2.43 280,7.83 280,73 281,73 281,9.63 284,15.03 284,73 285,73 285,16.83 288,22.23 288,73 289,73 289,24.03 292,29.43 292,73 293,73 293,31.23 316.205,73 317.35,73 "/><polyline fill="#3A3A3A" points="353.328,48.736 380.506,27.502 353.328,48.736 "/><polygon fill="#3A3A3A" points="413.177,73 396.869,20 395.823,20 412.131,73 "/><polygon fill="#3A3A3A" points="409.177,73 392.869,20 391.823,20 408.131,73 "/><polygon fill="#3A3A3A" points="405.177,73 388.869,20 387.823,20 404.131,73 "/><polyline fill="#3A3A3A" points="363.941,56.932 363.325,56.143 387.996,36.852 388.611,37.64 363.941,56.932 "/><polygon fill="#3A3A3A" points="417.177,73 400.869,20 399.823,20 416.131,73 "/><polyline fill="#3A3A3A" points="468.131,20 452.5,70.8 451.023,66 465.177,20 464.131,20 450.5,64.3 449.023,59.5 461.177,20 460.131,20 448.5,57.8 447.023,53 457.177,20 456.131,20 446.5,51.301 445.023,46.5 453.177,20 452.131,20 444.5,44.8 436.869,20 436.131,20 420.5,70.8 419.023,66 433.177,20 432.131,20 418.5,64.3 417.023,59.5 429.178,20 428.132,20 416.5,57.801 415.023,53 425.177,20 424.131,20 414.5,51.301 413.023,46.5 421.176,20 420.131,20 412.5,44.8 404.869,20 403.823,20 420.131,73 420.869,73 428.5,48.2 436.131,73 437.176,73 429.023,46.5 430.5,41.699 440.131,73 441.177,73 431.023,40 432.5,35.199 444.131,73 445.177,73 433.023,33.5 434.5,28.7 448.131,73 449.177,73 435.023,27 436.5,22.2 452.131,73 452.869,73 469.177,20 468.131,20 "/><path fill="#CBCBCB" d="M428.502,48.208L428.502,48.208l0.373,1.212L428.502,48.208 M430.502,41.707l-1.477,4.8l0.522,1.7l1.478-4.8L430.502,41.707 M432.502,35.207l-1.477,4.8l0.522,1.7l1.478-4.8L432.502,35.207 M434.502,28.708l-1.477,4.799l0.522,1.7l1.478-4.799L434.502,28.708 M436.502,22.208l-1.477,4.799l0.522,1.7l1.478-4.799L436.502,22.208 M437.025,20.508L437.025,20.508l0.522,1.7v-0.001L437.025,20.508"/><path fill="#282828" d="M429.025,46.507l-0.523,1.701l0.373,1.212l0.15,0.487l0.522-1.7L429.025,46.507 M431.025,40.007l-0.523,1.7l0.523,1.7l0.522-1.7L431.025,40.007 M433.025,33.507l-0.523,1.7l0.523,1.7l0.522-1.7L433.025,33.507 M435.025,27.007l-0.523,1.701l0.523,1.7l0.522-1.701L435.025,27.007 M437.025,20.508l-0.523,1.7l0.523,1.7l0.522-1.7L437.025,20.508"/><path fill="#D5D5D5" d="M429.026,49.912L429.026,49.912l0.38,1.232L429.026,49.912 M431.026,43.411l-1.478,4.8l0.523,1.7l1.477-4.8L431.026,43.411 M433.026,36.911l-1.478,4.8l0.523,1.7l1.477-4.8L433.026,36.911 M435.026,30.412l-1.478,4.799l0.523,1.7l1.477-4.799L435.026,30.412 M437.026,23.912l-1.478,4.799l0.523,1.701l1.477-4.799L437.026,23.912 M437.55,22.212L437.55,22.212l0.523,1.7l0,0L437.55,22.212"/><path fill="#2C2C2C" d="M429.55,48.211l-0.522,1.701l0.38,1.232l0.144,0.467l0.523-1.7L429.55,48.211 M431.55,41.711l-0.522,1.7l0.522,1.7l0.523-1.7L431.55,41.711 M433.55,35.211l-0.522,1.7l0.522,1.7l0.523-1.7L433.55,35.211 M435.55,28.711l-0.522,1.701l0.522,1.7l0.523-1.701L435.55,28.711 M437.55,22.212l-0.522,1.7l0.522,1.701l0.523-1.701L437.55,22.212"/><path fill="#DFDFDF" d="M429.551,51.616L429.551,51.616l0.523,1.7L429.551,51.616 M431.551,45.115l-1.477,4.8l0.522,1.701l1.478-4.8L431.551,45.115 M433.551,38.615l-1.477,4.8l0.522,1.701l1.478-4.8L433.551,38.615 M435.551,32.116l-1.477,4.799l0.522,1.701l1.478-4.8L435.551,32.116 M437.551,25.616l-1.477,4.799l0.522,1.7l1.478-4.799L437.551,25.616 M438.074,23.916L438.074,23.916l0.522,1.701v-0.001L438.074,23.916"/><path fill="#313131" d="M430.074,49.915l-0.523,1.701l0.523,1.7l0.522-1.7L430.074,49.915 M432.074,43.415l-0.523,1.7l0.523,1.701l0.522-1.7L432.074,43.415 M434.074,36.916l-0.523,1.7l0.523,1.7l0.522-1.699L434.074,36.916 M436.074,30.416l-0.523,1.701l0.523,1.7l0.522-1.701L436.074,30.416 M438.074,23.916l-0.523,1.7l0.523,1.7l0.522-1.7L438.074,23.916"/><path fill="#E9E9E9" d="M432.078,46.828l-1.478,4.801l0.522,1.7l1.478-4.802L432.078,46.828 M434.078,40.328l-1.478,4.8l0.522,1.7l1.478-4.801L434.078,40.328 M436.078,33.829l-1.478,4.799l0.522,1.7l1.477-4.8L436.078,33.829 M438.078,27.329l-1.478,4.799l0.522,1.699l1.477-4.8L438.078,27.329 M438.602,25.628L438.602,25.628l0.522,1.699l0,0L438.602,25.628"/><path fill="#353535" d="M430.602,51.629l-0.522,1.699l0.522,1.699l0.522-1.698L430.602,51.629 M432.602,45.128l-0.522,1.7l0.522,1.699l0.522-1.699L432.602,45.128 M434.602,38.628l-0.522,1.7l0.522,1.699l0.522-1.699L434.602,38.628 M436.602,32.128l-0.522,1.701l0.521,1.699l0.523-1.701L436.602,32.128 M438.602,25.628l-0.522,1.701l0.521,1.699l0.523-1.7L438.602,25.628"/><path fill="#F3F3F3" d="M432.605,48.541l-1.479,4.801l0.523,1.699l0.383-1.244l1.094-3.556L432.605,48.541 M434.605,42.041l-1.479,4.8l0.523,1.7l1.477-4.8L434.605,42.041 M436.604,35.541l-1.477,4.8l0.523,1.7l1.477-4.8L436.604,35.541 M438.604,29.041l-1.477,4.8l0.523,1.7l1.477-4.799L438.604,29.041 M439.128,27.34L439.128,27.34l0.523,1.701V29.04L439.128,27.34"/><path fill="#393939" d="M431.128,53.342l-0.521,1.699l0.521,1.699l0.523-1.699L431.128,53.342 M433.128,46.841l-0.521,1.7l0.521,1.7l0.523-1.7L433.128,46.841 M435.128,40.341l-0.521,1.7l0.521,1.7l0.523-1.7L435.128,40.341 M437.128,33.84l-0.522,1.701l0.522,1.7l0.523-1.701L437.128,33.84 M439.128,27.34l-0.522,1.7l0.522,1.701l0.523-1.7L439.128,27.34"/><path fill="#CBCBCB" d="M366.232,37.397l-0.009,0.006c0.373,0.111,0.741,0.239,1.101,0.397h0.001C366.967,37.643,366.603,37.509,366.232,37.397 M369.837,34.579l-2.662,2.082c0.351,0.131,0.694,0.281,1.032,0.451l2.552-1.994C370.457,34.925,370.15,34.746,369.837,34.579 M373.214,31.938l-2.521,1.971c0.305,0.174,0.604,0.361,0.896,0.559l2.467-1.928C373.781,32.331,373.5,32.13,373.214,31.938 M376.497,29.371l-2.457,1.921c0.281,0.196,0.559,0.4,0.831,0.613l2.427-1.896C377.035,29.79,376.769,29.577,376.497,29.371 M379.735,26.839l-2.426,1.896c0.269,0.208,0.532,0.424,0.791,0.645l2.404-1.878C380.253,27.275,379.996,27.054,379.735,26.839 M381.182,26.765c0.043,0.038,0.085,0.076,0.127,0.114l0,0C381.267,26.84,381.225,26.802,381.182,26.765"/><path fill="#282828" d="M367.175,36.66l-0.941,0.737c0.369,0.111,0.733,0.246,1.093,0.403l0.882-0.689C367.869,36.941,367.524,36.792,367.175,36.66"/><path fill="#282828" d="M370.693,33.909l-0.856,0.669c0.313,0.167,0.62,0.347,0.922,0.539l0.832-0.65C371.298,34.27,370.998,34.083,370.693,33.909"/><path fill="#282828" d="M374.04,31.292l-0.826,0.646c0.286,0.191,0.567,0.392,0.844,0.602l0.813-0.635C374.599,31.692,374.321,31.488,374.04,31.292"/><path fill="#282828" d="M377.311,28.735l-0.812,0.636c0.271,0.206,0.538,0.418,0.801,0.638l0.804-0.628C377.843,29.159,377.578,28.944,377.311,28.735"/><path fill="#282828" d="M380.539,26.211l-0.804,0.628c0.261,0.215,0.518,0.437,0.771,0.663l0,0l0,0l-13.182,10.299c0.001,0,0.001,0,0.001,0l13.892-10.851l0.092-0.072c-0.042-0.038-0.084-0.076-0.127-0.114C380.971,26.576,380.755,26.393,380.539,26.211"/><polyline fill="#282828" points="380.506,27.502 380.506,27.502 378.102,29.38 377.298,30.009 374.871,31.905 374.058,32.54 371.591,34.468 370.759,35.118 368.207,37.111 367.325,37.8 367.324,37.801 367.324,37.801 380.506,27.502 "/><path fill="#D5D5D5" d="M364.967,37.111l-0.014,0.011c0.429,0.065,0.852,0.156,1.267,0.28l0.008-0.006C365.814,37.272,365.394,37.177,364.967,37.111 M368.827,34.093l-2.821,2.207c0.396,0.097,0.782,0.216,1.164,0.359l2.663-2.083C369.504,34.401,369.169,34.24,368.827,34.093 M372.309,31.371l-2.592,2.026c0.33,0.157,0.654,0.327,0.974,0.509l2.521-1.971C372.914,31.738,372.614,31.549,372.309,31.371 M375.649,28.759l-2.497,1.952c0.3,0.184,0.594,0.377,0.884,0.579l2.458-1.921C376.217,29.158,375.936,28.955,375.649,28.759 M378.927,26.197l-2.453,1.918c0.281,0.199,0.561,0.405,0.833,0.618l2.427-1.896C379.467,26.617,379.199,26.404,378.927,26.197"/><path fill="#2C2C2C" d="M366.006,36.299l-1.039,0.812c0.427,0.066,0.849,0.161,1.261,0.285l0.942-0.737C366.788,36.516,366.4,36.396,366.006,36.299"/><path fill="#2C2C2C" d="M369.717,33.397l-0.89,0.695c0.342,0.147,0.677,0.308,1.006,0.483l0.856-0.669C370.371,33.724,370.047,33.555,369.717,33.397"/><path fill="#2C2C2C" d="M373.152,30.711l-0.845,0.66c0.307,0.178,0.605,0.367,0.901,0.565l0.826-0.646C373.746,31.088,373.452,30.895,373.152,30.711"/><path fill="#2C2C2C" d="M376.474,28.115l-0.823,0.645c0.285,0.196,0.566,0.398,0.845,0.609l0.812-0.636C377.033,28.52,376.755,28.314,376.474,28.115"/><path fill="#2C2C2C" d="M379.735,25.564l-0.81,0.632c0.272,0.208,0.54,0.42,0.807,0.639l0.803-0.628C380.272,25.987,380.005,25.774,379.735,25.564"/><path fill="#DFDFDF" d="M363.5,37c0.491,0,0.972,0.049,1.447,0.121l0.014-0.011C364.481,37.037,363.994,37,363.5,37 M363.5,37c-0.008,0-0.015,0-0.022,0l-0.002,0.002L363.5,37 M367.729,33.676l-3.055,2.388c0.448,0.05,0.892,0.127,1.325,0.234l2.823-2.207C368.464,33.937,368.1,33.798,367.729,33.676 M371.347,30.848l-2.684,2.099c0.354,0.136,0.705,0.285,1.049,0.449l2.593-2.027C371.99,31.185,371.671,31.011,371.347,30.848 M374.758,28.181l-2.545,1.99c0.316,0.17,0.628,0.349,0.937,0.538l2.497-1.952C375.354,28.557,375.059,28.365,374.758,28.181 M378.083,25.582l-2.487,1.944c0.295,0.188,0.587,0.384,0.874,0.586l2.453-1.918C378.646,25.983,378.367,25.78,378.083,25.582"/><path fill="#313131" d="M364.675,36.064L363.478,37c0.009,0,0.016,0,0.022,0l0,0l0,0c0.494,0,0.981,0.037,1.461,0.11L366,36.298C365.565,36.191,365.123,36.114,364.675,36.064"/><path fill="#313131" d="M368.663,32.946l-0.935,0.73c0.37,0.122,0.734,0.26,1.095,0.415l0.889-0.695C369.368,33.231,369.018,33.082,368.663,32.946"/><path fill="#313131" d="M372.213,30.17l-0.866,0.677c0.324,0.163,0.645,0.337,0.958,0.521l0.845-0.66C372.841,30.52,372.529,30.34,372.213,30.17"/><path fill="#313131" d="M375.596,27.526l-0.838,0.655c0.301,0.185,0.596,0.376,0.889,0.576l0.823-0.644C376.183,27.91,375.891,27.714,375.596,27.526"/><path fill="#313131" d="M378.9,24.942l-0.817,0.639c0.284,0.198,0.563,0.402,0.84,0.612l0.81-0.632C379.458,25.349,379.181,25.143,378.9,24.942"/><path fill="#E9E9E9" d="M363.47,37c-0.64,0.002-1.265,0.068-1.868,0.19l-0.043,0.034c0.619-0.129,1.252-0.219,1.908-0.222L363.47,37 M366.526,33.341l-3.411,2.666C363.243,36.002,363.371,36,363.5,36c0.394,0,0.783,0.021,1.168,0.063l3.056-2.389C367.33,33.544,366.931,33.433,366.526,33.341 M370.322,30.373l-2.805,2.191c0.386,0.11,0.766,0.237,1.14,0.38l2.685-2.099C371.007,30.676,370.666,30.519,370.322,30.373 M373.821,27.637l-2.605,2.037c0.335,0.154,0.666,0.319,0.992,0.494l2.545-1.99C374.446,27.99,374.136,27.81,373.821,27.637 M377.203,24.993l-2.528,1.977c0.311,0.177,0.615,0.361,0.916,0.553l2.487-1.945C377.79,25.376,377.498,25.182,377.203,24.993"/><path fill="#353535" d="M363.5,36c-0.129,0-0.257,0.002-0.385,0.007l-1.515,1.184c0.604-0.123,1.229-0.188,1.868-0.19l1.198-0.937C364.283,36.021,363.894,36,363.5,36"/><path fill="#353535" d="M367.519,32.564l-0.991,0.776c0.403,0.092,0.804,0.204,1.196,0.333l0.935-0.73C368.283,32.802,367.903,32.675,367.519,32.564"/><path fill="#353535" d="M371.216,29.674l-0.894,0.699c0.344,0.146,0.685,0.303,1.02,0.472l0.866-0.677C371.882,29.993,371.551,29.828,371.216,29.674"/><path fill="#353535" d="M374.675,26.97l-0.854,0.667c0.313,0.172,0.625,0.353,0.932,0.541l0.838-0.655C375.29,27.331,374.984,27.146,374.675,26.97"/><path fill="#353535" d="M378.031,24.346l-0.828,0.647c0.295,0.188,0.587,0.383,0.875,0.585l0.816-0.639C378.611,24.735,378.323,24.537,378.031,24.346"/><path fill="#F3F3F3" d="M361.593,37.192c-0.295,0.061-0.585,0.134-0.869,0.221c0.271-0.08,0.55-0.129,0.826-0.188L361.593,37.192 M365.196,33.105l-4.039,3.158c0.631-0.145,1.283-0.232,1.951-0.256l3.411-2.668C366.084,33.24,365.643,33.162,365.196,33.105 M369.229,29.953l-2.956,2.312c0.419,0.081,0.833,0.181,1.241,0.298l2.805-2.192C369.959,30.219,369.597,30.08,369.229,29.953 M372.837,27.131l-2.68,2.095c0.355,0.137,0.707,0.286,1.055,0.445l2.605-2.037C373.494,27.458,373.168,27.291,372.837,27.131 M376.287,24.435l-2.576,2.014c0.324,0.165,0.646,0.338,0.96,0.519l2.528-1.977C376.898,24.799,376.595,24.613,376.287,24.435"/><path fill="#393939" d="M363.108,36.007c-0.668,0.024-1.32,0.112-1.951,0.256l-0.333,0.26l-0.146,0.904c0.017-0.005,0.03-0.009,0.046-0.014c0.284-0.087,0.574-0.161,0.869-0.221L363.108,36.007"/><path fill="#393939" d="M366.271,32.265l-1.075,0.841c0.445,0.056,0.888,0.134,1.323,0.234l0.993-0.776C367.104,32.445,366.69,32.346,366.271,32.265"/><path fill="#393939" d="M370.157,29.227l-0.929,0.726c0.367,0.127,0.729,0.267,1.089,0.418l0.895-0.699C370.864,29.512,370.514,29.364,370.157,29.227"/><path fill="#393939" d="M373.711,26.449l-0.874,0.683c0.331,0.16,0.657,0.327,0.98,0.503l0.854-0.667C374.355,26.787,374.035,26.614,373.711,26.449"/><path fill="#393939" d="M377.129,23.776l-0.842,0.658c0.308,0.179,0.611,0.364,0.912,0.556l0.828-0.647C377.731,24.148,377.432,23.958,377.129,23.776"/><path fill="#CBCBCB" d="M18,13h-1v3h1V13 M18,9h-1v3h1V9 M18,5h-1v3h1V5 M18,1h-1v3h1V1"/><path fill="#282828" d="M18,16h-1v1h1V16 M18,12h-1v1h1V12 M18,8h-1v1h1V8 M18,4h-1v1h1V4 M18,0h-1v1h1V0"/><path fill="#D5D5D5" d="M19,13h-1v3h1V13 M19,9h-1v3h1V9 M19,5h-1v3h1V5 M19,1h-1v3h1V1"/><path fill="#2C2C2C" d="M19,16h-1v1h1V16 M19,12h-1v1h1V12 M19,8h-1v1h1V8 M19,4h-1v1h1V4 M19,0h-1v1h1V0"/><path fill="#DFDFDF" d="M20,13h-1v3h1V13 M20,9h-1v3h1V9 M20,5h-1v3h1V5 M20,1h-1v3h1V1"/><path fill="#313131" d="M20,16h-1v1h1V16 M20,12h-1v1h1V12 M20,8h-1v1h1V8 M20,4h-1v1h1V4 M20,0h-1v1h1V0"/><path fill="#E9E9E9" d="M21,13h-1v3h1V13 M21,9h-1v3h1V9 M21,5h-1v3h1V5 M21,1h-1v3h1V1"/><path fill="#353535" d="M21,16h-1v1h1V16 M21,12h-1v1h1V12 M21,8h-1v1h1V8 M21,4h-1v1h1V4 M21,0h-1v1h1V0"/><path fill="#F3F3F3" d="M22,13h-1v3h1V13 M22,9h-1v3h1V9 M22,5h-1v3h1V5 M22,1h-1v3h1V1"/><path fill="#393939" d="M22,16h-1v1h1V16 M22,12h-1v1h1V12 M22,8h-1v1h1V8 M22,4h-1v1h1V4 M22,0h-1v1h1V0"/><path fill="#CBCBCB" d="M18,41h-1v3h1V41 M18,37h-1v3h1V37 M18,33h-1v3h1V33 M18,29h-1v3h1V29"/><polyline fill="#282828" points="18,40 17,40 17,41 18,41 18,40 "/><polyline fill="#282828" points="18,44 17,44 17,45 18,45 18,44 "/><polyline fill="#282828" points="18,36 17,36 17,37 18,37 18,36 "/><polyline fill="#282828" points="18,32 17,32 17,33 18,33 18,32 "/><polyline fill="#282828" points="18,28 17,28 17,29 18,29 18,28 "/><path fill="#D5D5D5" d="M19,41h-1v3h1V41 M19,37h-1v3h1V37 M19,33h-1v3h1V33 M19,29h-1v3h1V29"/><polyline fill="#2C2C2C" points="19,40 18,40 18,41 19,41 19,40 "/><polyline fill="#2C2C2C" points="19,44 18,44 18,45 19,45 19,44 "/><polyline fill="#2C2C2C" points="19,36 18,36 18,37 19,37 19,36 "/><polyline fill="#2C2C2C" points="19,32 18,32 18,33 19,33 19,32 "/><polyline fill="#2C2C2C" points="19,28 18,28 18,29 19,29 19,28 "/><path fill="#DFDFDF" d="M20,41h-1v3h1V41 M20,37h-1v3h1V37 M20,33h-1v3h1V33 M20,29h-1v3h1V29"/><polyline fill="#313131" points="20,40 19,40 19,41 20,41 20,40 "/><polyline fill="#313131" points="20,44 19,44 19,45 20,45 20,44 "/><polyline fill="#313131" points="20,36 19,36 19,37 20,37 20,36 "/><polyline fill="#313131" points="20,32 19,32 19,33 20,33 20,32 "/><polyline fill="#313131" points="20,28 19,28 19,29 20,29 20,28 "/><path fill="#E9E9E9" d="M21,41h-1v3h1V41 M21,37h-1v3h1V37 M21,33h-1v3h1V33 M21,29h-1v3h1V29"/><polyline fill="#353535" points="21,40 20,40 20,41 21,41 21,40 "/><polyline fill="#353535" points="21,44 20,44 20,45 21,45 21,44 "/><polyline fill="#353535" points="21,36 20,36 20,37 21,37 21,36 "/><polyline fill="#353535" points="21,32 20,32 20,33 21,33 21,32 "/><polyline fill="#353535" points="21,28 20,28 20,29 21,29 21,28 "/><path fill="#F3F3F3" d="M22,41h-1v3h1V41 M22,37h-1v3h1V37 M22,33h-1v3h1V33 M22,29h-1v3h1V29"/><polyline fill="#393939" points="22,40 21,40 21,41 22,41 22,40 "/><polyline fill="#393939" points="22,44 21,44 21,45 22,45 22,44 "/><polyline fill="#393939" points="22,36 21,36 21,37 22,37 22,36 "/><polyline fill="#393939" points="22,32 21,32 21,33 22,33 22,32 "/><polyline fill="#393939" points="22,28 21,28 21,29 22,29 22,28 "/><path fill="#CBCBCB" d="M18,69h-1v3h1V69 M18,65h-1v3h1V65 M18,61h-1v3h1V61 M18,57h-1v3h1V57"/><polyline fill="#282828" points="18,60 17,60 17,61 18,61 18,60 "/><polyline fill="#282828" points="18,56 17,56 17,57 18,57 18,56 "/><polyline fill="#282828" points="18,64 17,64 17,65 18,65 18,64 "/><polyline fill="#282828" points="18,68 17,68 17,69 18,69 18,68 "/><polyline fill="#282828" points="18,72 17,72 17,73 18,73 18,72 "/><path fill="#D5D5D5" d="M19,69h-1v3h1V69 M19,65h-1v3h1V65 M19,61h-1v3h1V61 M19,57h-1v3h1V57"/><polyline fill="#2C2C2C" points="19,60 18,60 18,61 19,61 19,60 "/><polyline fill="#2C2C2C" points="19,56 18,56 18,57 19,57 19,56 "/><polyline fill="#2C2C2C" points="19,64 18,64 18,65 19,65 19,64 "/><polyline fill="#2C2C2C" points="19,68 18,68 18,69 19,69 19,68 "/><polyline fill="#2C2C2C" points="19,72 18,72 18,73 19,73 19,72 "/><path fill="#DFDFDF" d="M20,69h-1v3h1V69 M20,65h-1v3h1V65 M20,61h-1v3h1V61 M20,57h-1v3h1V57"/><polyline fill="#313131" points="20,60 19,60 19,61 20,61 20,60 "/><polyline fill="#313131" points="20,56 19,56 19,57 20,57 20,56 "/><polyline fill="#313131" points="20,64 19,64 19,65 20,65 20,64 "/><polyline fill="#313131" points="20,68 19,68 19,69 20,69 20,68 "/><polyline fill="#313131" points="20,72 19,72 19,73 20,73 20,72 "/><path fill="#E9E9E9" d="M21,69h-1v3h1V69 M21,65h-1v3h1V65 M21,61h-1v3h1V61 M21,57h-1v3h1V57"/><polyline fill="#353535" points="21,60 20,60 20,61 21,61 21,60 "/><polyline fill="#353535" points="21,56 20,56 20,57 21,57 21,56 "/><polyline fill="#353535" points="21,64 20,64 20,65 21,65 21,64 "/><polyline fill="#353535" points="21,68 20,68 20,69 21,69 21,68 "/><polyline fill="#353535" points="21,72 20,72 20,73 21,73 21,72 "/><path fill="#F3F3F3" d="M22,69h-1v3h1V69 M22,65h-1v3h1V65 M22,61h-1v3h1V61 M22,57h-1v3h1V57"/><polyline fill="#393939" points="22,60 21,60 21,61 22,61 22,60 "/><polyline fill="#393939" points="22,56 21,56 21,57 22,57 22,56 "/><polyline fill="#393939" points="22,64 21,64 21,65 22,65 22,64 "/><polyline fill="#393939" points="22,68 21,68 21,69 22,69 22,68 "/><polyline fill="#393939" points="22,72 21,72 21,73 22,73 22,72 "/><path fill="#CBCBCB" d="M41.885,32.754c-0.187,0.278-0.381,0.552-0.583,0.821c0.586,0.514,1.146,1.058,1.677,1.629c0.156,0.167,0.309,0.338,0.46,0.51c0.21-0.27,0.414-0.544,0.611-0.823C43.375,34.134,42.652,33.42,41.885,32.754 M38.647,30.395c-0.181,0.279-0.373,0.552-0.573,0.819c0.86,0.518,1.68,1.094,2.461,1.719c0.201-0.27,0.393-0.543,0.577-0.821C40.33,31.489,39.506,30.916,38.647,30.395 M35.03,28.608c-0.203,0.281-0.42,0.554-0.652,0.817c0.265,0.099,0.527,0.204,0.787,0.312c0.697,0.292,1.377,0.616,2.037,0.974c0.204-0.266,0.397-0.538,0.58-0.817C36.897,29.409,35.978,28.979,35.03,28.608 M26.522,28c-0.008,0-0.015,0-0.022,0l0,0C26.507,28,26.515,28,26.522,28 M26.549,28c-0.007,0-0.014,0-0.021,0C26.535,28,26.542,28,26.549,28 M30.77,27.396c-0.361,0.315-0.756,0.591-1.181,0.821c0.197,0.027,0.394,0.057,0.59,0.089c0.01,0.001,0.02,0.003,0.03,0.005c0.002,0,0.004,0.001,0.007,0.001c1.073,0.179,2.12,0.432,3.136,0.758c0.25-0.261,0.485-0.534,0.702-0.818C32.991,27.891,31.895,27.603,30.77,27.396 M29.372,27.182c-0.824,0.507-1.788,0.809-2.822,0.818c1.037-0.009,2.007-0.307,2.832-0.817C29.378,27.183,29.375,27.182,29.372,27.182"/><path fill="#282828" d="M44.05,34.892c-0.197,0.279-0.401,0.553-0.611,0.823c-0.151-0.172-0.304-0.343-0.46-0.51c0.388,0.417,0.76,0.85,1.116,1.296l0.002,0.001c0.216-0.271,0.409-0.558,0.611-0.838C44.495,35.402,44.275,35.145,44.05,34.892 M35.164,29.738c0.417,0.175,0.828,0.362,1.232,0.562l0.102,0.052c0.327,0.163,0.649,0.333,0.967,0.512l0.165,0.095c0.299,0.171,0.594,0.348,0.884,0.533l0.159,0.102c0.299,0.193,0.594,0.394,0.883,0.601l0.103,0.073c0.568,0.411,1.117,0.849,1.644,1.31c0.202-0.27,0.396-0.543,0.583-0.821c-0.253-0.219-0.511-0.434-0.773-0.643c-0.184,0.278-0.376,0.552-0.577,0.821c-0.781-0.625-1.601-1.201-2.461-1.719c0.201-0.267,0.392-0.54,0.573-0.819c-0.285-0.173-0.573-0.339-0.866-0.5c-0.183,0.279-0.376,0.551-0.58,0.817C36.542,30.354,35.861,30.029,35.164,29.738 M34.054,28.252c-0.217,0.284-0.452,0.557-0.702,0.818c-1.016-0.326-2.063-0.579-3.136-0.758c0.148,0.025,0.295,0.052,0.442,0.08c0.258,0.048,0.515,0.102,0.77,0.159c0.139,0.031,0.278,0.062,0.417,0.096c0.274,0.067,0.545,0.141,0.815,0.218c0.114,0.033,0.229,0.062,0.342,0.097c0.332,0.101,0.66,0.209,0.986,0.325l0.142,0.048c0.083,0.03,0.166,0.06,0.248,0.091c0.232-0.263,0.449-0.536,0.652-0.817C34.708,28.483,34.382,28.364,34.054,28.252 M29.381,27.183c-0.825,0.51-1.795,0.808-2.832,0.817l0,0c-0.007,0-0.014,0-0.021,0c-0.001,0-0.003,0-0.005,0c-0.007,0-0.015,0-0.022,0c0.419,0,0.835,0.014,1.249,0.036c0.132,0.007,0.263,0.021,0.396,0.03c0.281,0.021,0.562,0.043,0.84,0.074c0.151,0.017,0.3,0.038,0.451,0.058c0.249,0.032,0.498,0.068,0.744,0.108c-0.196-0.032-0.393-0.062-0.59-0.089c0.424-0.23,0.82-0.506,1.181-0.821C30.312,27.312,29.849,27.24,29.381,27.183"/><path fill="#D5D5D5" d="M42.425,31.9c-0.172,0.289-0.352,0.573-0.54,0.854c0.767,0.666,1.49,1.379,2.165,2.138c0.198-0.281,0.39-0.566,0.574-0.856C43.937,33.28,43.202,32.566,42.425,31.9 M39.164,29.538c-0.162,0.292-0.334,0.577-0.517,0.857c0.859,0.521,1.682,1.094,2.465,1.717c0.186-0.281,0.363-0.565,0.531-0.854C40.854,30.635,40.027,30.061,39.164,29.538 M35.587,27.751c-0.171,0.293-0.357,0.58-0.557,0.857c0.948,0.371,1.868,0.801,2.751,1.287c0.184-0.28,0.356-0.566,0.519-0.857C37.426,28.556,36.521,28.125,35.587,27.751 M31.59,26.537c-0.247,0.311-0.522,0.598-0.821,0.859c1.125,0.207,2.222,0.495,3.285,0.856c0.211-0.276,0.407-0.562,0.585-0.857C33.65,27.045,32.633,26.758,31.59,26.537 M30.446,26.322c-0.32,0.33-0.682,0.617-1.075,0.859c0.003,0,0.007,0.001,0.01,0.001c0.392-0.242,0.75-0.531,1.069-0.86C30.449,26.323,30.448,26.322,30.446,26.322"/><path fill="#2C2C2C" d="M44.625,34.036c-0.184,0.29-0.376,0.575-0.574,0.856c0.225,0.252,0.444,0.51,0.658,0.772c0.203-0.28,0.409-0.557,0.598-0.845C45.085,34.553,44.857,34.292,44.625,34.036 M41.644,31.257c-0.168,0.289-0.346,0.574-0.531,0.854c0.262,0.209,0.52,0.423,0.773,0.643c0.188-0.281,0.368-0.565,0.54-0.854C42.169,31.681,41.909,31.466,41.644,31.257 M38.3,29.038c-0.162,0.292-0.335,0.578-0.519,0.857c0.293,0.161,0.582,0.327,0.866,0.5c0.182-0.28,0.354-0.566,0.517-0.857C38.88,29.365,38.591,29.198,38.3,29.038 M34.64,27.395c-0.179,0.295-0.374,0.582-0.585,0.857c0.328,0.112,0.654,0.231,0.976,0.356c0.2-0.277,0.386-0.563,0.557-0.857C35.274,27.626,34.958,27.507,34.64,27.395 M30.45,26.323c-0.318,0.329-0.677,0.618-1.069,0.86c0.467,0.057,0.93,0.128,1.388,0.213c0.299-0.261,0.574-0.549,0.821-0.859C31.213,26.457,30.833,26.385,30.45,26.323"/><path fill="#DFDFDF" d="M42.92,31.014c-0.157,0.299-0.322,0.594-0.495,0.886c0.777,0.666,1.511,1.379,2.199,2.136c0.186-0.292,0.365-0.588,0.536-0.888C44.458,32.393,43.709,31.68,42.92,31.014 M39.62,28.649c-0.142,0.301-0.293,0.598-0.456,0.889c0.863,0.523,1.69,1.098,2.479,1.72c0.17-0.292,0.331-0.587,0.483-0.886C41.328,29.749,40.491,29.174,39.62,28.649 M36.049,26.863c-0.139,0.303-0.293,0.6-0.462,0.889c0.934,0.374,1.839,0.804,2.713,1.286c0.161-0.291,0.312-0.587,0.451-0.889C37.88,27.669,36.978,27.239,36.049,26.863 M32.186,25.646c-0.174,0.313-0.374,0.611-0.595,0.89c1.042,0.221,2.06,0.509,3.049,0.858c0.175-0.288,0.333-0.585,0.476-0.889C34.164,26.163,33.186,25.875,32.186,25.646 M31.145,25.432c-0.203,0.32-0.436,0.619-0.699,0.891c0.001,0,0.002,0,0.004,0c0.263-0.271,0.498-0.57,0.701-0.89C31.149,25.432,31.147,25.432,31.145,25.432"/><path fill="#313131" d="M45.161,33.148c-0.171,0.3-0.35,0.596-0.536,0.888c0.233,0.256,0.46,0.517,0.682,0.783c0.192-0.293,0.367-0.596,0.545-0.897C45.626,33.66,45.396,33.401,45.161,33.148 M42.127,30.371c-0.152,0.299-0.313,0.595-0.483,0.886c0.265,0.209,0.525,0.423,0.782,0.643c0.173-0.292,0.338-0.587,0.495-0.886C42.66,30.794,42.396,30.58,42.127,30.371 M38.751,28.148c-0.139,0.302-0.29,0.598-0.451,0.889c0.292,0.161,0.58,0.328,0.864,0.5c0.162-0.291,0.314-0.587,0.456-0.889C39.334,28.477,39.044,28.31,38.751,28.148 M35.115,26.506c-0.142,0.304-0.301,0.601-0.476,0.889c0.319,0.113,0.635,0.231,0.947,0.357c0.168-0.289,0.323-0.585,0.462-0.889C35.74,26.738,35.43,26.619,35.115,26.506 M31.151,25.433c-0.203,0.32-0.438,0.619-0.701,0.89c0.383,0.062,0.763,0.134,1.14,0.214c0.222-0.279,0.421-0.577,0.595-0.89C31.844,25.568,31.498,25.497,31.151,25.433"/><path fill="#E9E9E9" d="M43.373,30.088c-0.142,0.312-0.292,0.621-0.452,0.926c0.789,0.666,1.537,1.378,2.24,2.134c0.174-0.305,0.341-0.614,0.5-0.927C44.94,31.466,44.177,30.754,43.373,30.088 M40.018,27.72c-0.122,0.314-0.255,0.624-0.398,0.929c0.871,0.525,1.708,1.1,2.507,1.722c0.155-0.305,0.301-0.614,0.437-0.927C41.75,28.822,40.901,28.246,40.018,27.72 M36.424,25.933c-0.11,0.316-0.235,0.626-0.375,0.93c0.929,0.376,1.832,0.807,2.702,1.286c0.141-0.305,0.271-0.615,0.389-0.929C38.263,26.741,37.357,26.311,36.424,25.933 M32.611,24.716c-0.118,0.323-0.26,0.634-0.425,0.931c1,0.229,1.978,0.517,2.93,0.859c0.142-0.303,0.267-0.614,0.375-0.931C34.554,25.236,33.593,24.948,32.611,24.716 M31.618,24.5c-0.128,0.327-0.287,0.638-0.473,0.931c0.002,0,0.004,0,0.006,0.001c0.186-0.293,0.344-0.604,0.472-0.931C31.621,24.501,31.62,24.501,31.618,24.5"/><path fill="#353535" d="M45.661,32.221c-0.159,0.313-0.326,0.622-0.5,0.927c0.235,0.253,0.466,0.511,0.691,0.773c0.18-0.305,0.357-0.611,0.522-0.924C46.141,32.734,45.903,32.476,45.661,32.221 M42.564,29.444c-0.136,0.312-0.282,0.622-0.437,0.927c0.269,0.209,0.533,0.423,0.793,0.643c0.16-0.305,0.31-0.614,0.452-0.926C43.107,29.869,42.837,29.653,42.564,29.444 M39.14,27.219c-0.118,0.314-0.248,0.625-0.389,0.929c0.293,0.162,0.583,0.328,0.869,0.5c0.144-0.305,0.276-0.615,0.398-0.929C39.729,27.548,39.436,27.381,39.14,27.219 M35.491,25.575c-0.108,0.316-0.234,0.627-0.375,0.931c0.314,0.113,0.625,0.232,0.934,0.357c0.14-0.304,0.265-0.614,0.375-0.93C36.116,25.808,35.805,25.688,35.491,25.575 M31.623,24.501c-0.128,0.327-0.287,0.638-0.472,0.931c0.347,0.064,0.693,0.136,1.035,0.214c0.165-0.297,0.308-0.608,0.425-0.931C32.284,24.638,31.955,24.567,31.623,24.501"/><path fill="#F3F3F3" d="M43.778,29.121c-0.126,0.326-0.261,0.648-0.405,0.967c0.804,0.666,1.568,1.378,2.289,2.133c0.162-0.319,0.316-0.642,0.462-0.968C45.383,30.499,44.6,29.787,43.778,29.121 M40.354,26.753c-0.101,0.326-0.213,0.648-0.336,0.967c0.883,0.526,1.732,1.103,2.546,1.724c0.139-0.318,0.268-0.641,0.387-0.967C42.121,27.856,41.254,27.28,40.354,26.753 M36.708,24.967c-0.079,0.327-0.174,0.649-0.284,0.966c0.933,0.378,1.839,0.809,2.716,1.287c0.12-0.318,0.227-0.64,0.322-0.966C38.572,25.775,37.653,25.346,36.708,24.967 M32.879,23.75c-0.065,0.332-0.155,0.654-0.269,0.966c0.982,0.232,1.943,0.52,2.88,0.859c0.108-0.316,0.2-0.639,0.274-0.966C34.826,24.272,33.862,23.984,32.879,23.75 M31.899,23.535c-0.064,0.334-0.16,0.656-0.281,0.965c0.002,0,0.003,0,0.005,0.001c0.121-0.31,0.215-0.632,0.279-0.966C31.901,23.536,31.9,23.535,31.899,23.535"/><path fill="#393939" d="M46.124,31.253c-0.146,0.326-0.3,0.649-0.462,0.968c0.242,0.254,0.48,0.513,0.712,0.777c0.169-0.319,0.33-0.642,0.483-0.968C46.617,31.766,46.373,31.507,46.124,31.253 M42.951,28.478c-0.119,0.326-0.248,0.648-0.387,0.967c0.273,0.209,0.543,0.424,0.809,0.644c0.144-0.318,0.279-0.641,0.405-0.967C43.506,28.901,43.231,28.687,42.951,28.478 M39.462,26.253c-0.095,0.326-0.203,0.648-0.322,0.966c0.296,0.162,0.589,0.329,0.878,0.501c0.124-0.318,0.236-0.641,0.336-0.967C40.061,26.582,39.763,26.415,39.462,26.253 M35.765,24.609c-0.074,0.328-0.166,0.65-0.274,0.966c0.314,0.113,0.625,0.233,0.933,0.357c0.11-0.316,0.205-0.639,0.284-0.966C36.396,24.842,36.082,24.723,35.765,24.609 M31.902,23.536c-0.064,0.333-0.158,0.656-0.279,0.966c0.332,0.065,0.661,0.137,0.988,0.214c0.113-0.312,0.204-0.634,0.269-0.966C32.556,23.673,32.23,23.602,31.902,23.536"/><path fill="#CBCBCB" d="M71,46.467c0,0.002,0,0.004,0,0.006C71,46.471,71,46.469,71,46.467 M71,46.432c0,0.004,0,0.008,0,0.012C71,46.439,71,46.436,71,46.432 M72,42.26c-0.629,1.256-0.988,2.668-1,4.162c0.012-1.486,0.376-2.888,1-4.139V42.26 M72,36.009c-0.346,0.281-0.679,0.581-1,0.899v5.121c0.281-0.596,0.617-1.16,1-1.688V36.009 M72,31.199c-0.339,0.188-0.672,0.389-1,0.601v3.745c0.323-0.282,0.657-0.547,1-0.797V31.199 M72,26.745c-0.336,0.146-0.669,0.3-1,0.463v3.414c0.328-0.197,0.662-0.383,1-0.558V26.745 M72,22.451c-0.335,0.119-0.668,0.245-1,0.378v3.269c0.331-0.154,0.664-0.301,1-0.438V22.451 M71.062,21.729c-0.021,0.008-0.042,0.016-0.062,0.023l0,0C71.021,21.745,71.042,21.737,71.062,21.729"/><path fill="#282828" d="M72,40.342c-0.383,0.527-0.719,1.092-1,1.688v4.47c0-0.009,0-0.018,0-0.027c0-0.002,0-0.004,0-0.006c0-0.008,0-0.016,0-0.023c0-0.004,0-0.008,0-0.012c0-0.002,0-0.006,0-0.01c0.012-1.494,0.371-2.906,1-4.162V40.342"/><path fill="#282828" d="M72,25.659c-0.336,0.138-0.669,0.284-1,0.438v1.11c0.331-0.164,0.664-0.318,1-0.463V25.659"/><path fill="#282828" d="M72,21.42c-0.312,0.106-0.628,0.194-0.938,0.309c-0.021,0.008-0.041,0.016-0.062,0.023v1.076c0.332-0.133,0.665-0.259,1-0.378V21.42"/><path fill="#282828" d="M72,34.748c-0.343,0.25-0.677,0.515-1,0.797v1.363c0.321-0.318,0.654-0.618,1-0.899V34.748"/><path fill="#282828" d="M72,30.064c-0.338,0.175-0.672,0.361-1,0.558V31.8c0.328-0.212,0.661-0.413,1-0.601V30.064"/><path fill="#D5D5D5" d="M73,40.676c-0.383,0.491-0.719,1.021-1,1.584v0.023c0.282-0.565,0.616-1.098,1-1.594V40.676 M73,35.269c-0.343,0.23-0.677,0.477-1,0.74v4.333c0.304-0.419,0.639-0.814,1-1.184V35.269 M73,30.683c-0.338,0.161-0.671,0.333-1,0.516v3.549c0.325-0.236,0.659-0.458,1-0.666V30.683 M73,26.342c-0.336,0.125-0.669,0.26-1,0.403v3.319c0.329-0.17,0.663-0.331,1-0.481V26.342 M73,22.12c-0.335,0.103-0.669,0.214-1,0.331v3.208c0.331-0.135,0.665-0.263,1-0.382V22.12"/><path fill="#2C2C2C" d="M73,39.158c-0.361,0.369-0.696,0.765-1,1.184v1.918c0.281-0.562,0.617-1.093,1-1.584V39.158"/><path fill="#2C2C2C" d="M73,25.277c-0.335,0.119-0.669,0.247-1,0.382v1.085c0.331-0.143,0.664-0.277,1-0.403V25.277"/><path fill="#2C2C2C" d="M73,21.088c-0.336,0.099-0.667,0.22-1,0.333v1.03c0.331-0.117,0.665-0.228,1-0.331V21.088"/><path fill="#2C2C2C" d="M73,34.083c-0.341,0.208-0.675,0.429-1,0.666v1.261c0.323-0.263,0.657-0.51,1-0.74V34.083"/><path fill="#2C2C2C" d="M73,29.583c-0.337,0.15-0.671,0.311-1,0.481v1.135c0.329-0.183,0.662-0.355,1-0.516V29.583"/><path fill="#DFDFDF" d="M74,39.578c-0.361,0.339-0.695,0.706-1,1.098v0.016c0.305-0.394,0.639-0.76,1-1.101V39.578 M74,34.659c-0.341,0.188-0.675,0.392-1,0.61v3.889c0.314-0.32,0.647-0.621,1-0.899V34.659 M74,30.246c-0.337,0.135-0.671,0.281-1,0.437v3.399c0.326-0.198,0.66-0.383,1-0.554V30.246 M74,25.996c-0.336,0.107-0.669,0.222-1,0.346v3.241c0.33-0.146,0.663-0.283,1-0.409V25.996 M74,21.834c-0.335,0.088-0.668,0.183-1,0.285v3.158c0.331-0.118,0.664-0.227,1-0.328V21.834"/><path fill="#313131" d="M74,38.259c-0.353,0.278-0.686,0.579-1,0.899v1.518c0.305-0.392,0.639-0.759,1-1.098V38.259"/><path fill="#313131" d="M74,24.949c-0.336,0.101-0.669,0.21-1,0.328v1.064c0.331-0.124,0.664-0.239,1-0.346V24.949"/><path fill="#313131" d="M74,20.825c-0.334,0.084-0.669,0.165-1,0.263v1.032c0.332-0.102,0.665-0.197,1-0.285V20.825"/><path fill="#313131" d="M74,33.529c-0.34,0.171-0.674,0.355-1,0.554v1.187c0.325-0.218,0.659-0.422,1-0.61V33.529"/><path fill="#313131" d="M74,29.174c-0.337,0.126-0.67,0.263-1,0.409v1.1c0.329-0.156,0.663-0.302,1-0.437V29.174"/><path fill="#E9E9E9" d="M75,38.758c-0.352,0.251-0.686,0.525-1,0.82v0.013c0.314-0.296,0.647-0.571,1-0.821V38.758 M75,34.162c-0.34,0.152-0.673,0.318-1,0.498v3.6c0.319-0.252,0.653-0.486,1-0.7V34.162 M75,29.881c-0.337,0.111-0.67,0.233-1,0.365v3.283c0.328-0.165,0.661-0.316,1-0.455V29.881 M75,25.706c-0.335,0.088-0.669,0.186-1,0.291v3.178c0.33-0.124,0.664-0.238,1-0.343V25.706 M75,21.593c-0.335,0.074-0.668,0.154-1,0.242v3.115c0.331-0.1,0.665-0.192,1-0.277V21.593"/><path fill="#353535" d="M75,37.559c-0.347,0.214-0.681,0.448-1,0.7v1.319c0.314-0.295,0.648-0.569,1-0.82V37.559"/><path fill="#353535" d="M75,24.672c-0.335,0.084-0.669,0.177-1,0.277v1.047c0.331-0.105,0.665-0.202,1-0.291V24.672"/><path fill="#353535" d="M75,20.592c-0.335,0.071-0.668,0.149-1,0.233v1.009c0.332-0.087,0.665-0.168,1-0.242V20.592"/><path fill="#353535" d="M75,33.074c-0.339,0.139-0.672,0.291-1,0.455v1.13c0.327-0.18,0.66-0.346,1-0.498V33.074"/><path fill="#353535" d="M75,28.831c-0.336,0.104-0.67,0.219-1,0.343v1.072c0.33-0.132,0.663-0.253,1-0.365V28.831"/><path fill="#F3F3F3" d="M76,38.135c-0.347,0.188-0.681,0.396-1,0.623v0.012c0.321-0.229,0.651-0.443,1-0.633V38.135 M76,33.763c-0.339,0.12-0.672,0.252-1,0.398v3.397c0.322-0.199,0.656-0.381,1-0.545V33.763 M76,29.584c-0.336,0.089-0.67,0.188-1,0.297v3.192c0.329-0.135,0.662-0.257,1-0.367V29.584 M76,25.467c-0.335,0.071-0.668,0.151-1,0.238v3.125c0.331-0.103,0.664-0.196,1-0.28V25.467 M76,21.394c-0.335,0.06-0.668,0.126-1,0.199v3.08c0.332-0.083,0.665-0.159,1-0.227V21.394"/><path fill="#393939" d="M76,37.014c-0.344,0.164-0.678,0.346-1,0.545v1.199c0.319-0.227,0.653-0.436,1-0.623V37.014"/><path fill="#393939" d="M76,24.446c-0.335,0.068-0.668,0.144-1,0.227v1.033c0.332-0.087,0.665-0.167,1-0.238V24.446"/><path fill="#393939" d="M76,20.393c-0.335,0.057-0.667,0.129-1,0.2v1c0.332-0.073,0.665-0.139,1-0.199V20.393"/><path fill="#393939" d="M76,32.707c-0.338,0.11-0.671,0.232-1,0.367v1.088c0.328-0.146,0.661-0.279,1-0.398V32.707"/><path fill="#393939" d="M76,28.551c-0.336,0.084-0.669,0.177-1,0.28v1.05c0.33-0.109,0.664-0.208,1-0.297V28.551"/><path fill="#CBCBCB" d="M126,46.467c0,0.002,0,0.006,0,0.008C126,46.471,126,46.469,126,46.467 M126,46.432c0,0.004,0,0.008,0,0.012C126,46.439,126,46.436,126,46.432 M125,42.26v0.023l0,0c0.624,1.25,0.987,2.65,1,4.139C125.987,44.928,125.629,43.516,125,42.26 M125,36.009v4.333c0.383,0.527,0.719,1.092,1,1.688v-5.122C125.679,36.59,125.346,36.291,125,36.009 M125,31.2v3.548c0.343,0.25,0.677,0.515,1,0.796v-3.743C125.672,31.589,125.339,31.389,125,31.2 M125,26.745v3.319c0.338,0.175,0.672,0.362,1,0.559v-3.415C125.669,27.045,125.336,26.891,125,26.745 M125,22.451v3.209c0.336,0.138,0.669,0.284,1,0.438v-3.27C125.669,22.695,125.335,22.569,125,22.451 M125.914,21.72c0.029,0.011,0.058,0.022,0.086,0.033l0,0C125.971,21.742,125.942,21.731,125.914,21.72"/><path fill="#282828" d="M125,40.342v1.918c0.629,1.256,0.987,2.668,1,4.162c0,0.003,0,0.008,0,0.01c0,0.004,0,0.008,0,0.012c0,0.009,0,0.017,0,0.023c0,0.002,0,0.004,0,0.008c0,0.008,0,0.018,0,0.025l0,0v-4.471C125.719,41.434,125.383,40.869,125,40.342"/><path fill="#282828" d="M126,36.907v5.122V46.5l0,0V36.907L126,36.907 M126,31.801v3.743l0,0V31.801L126,31.801 M126,27.208v3.415l0,0V27.208L126,27.208 M126,22.829v3.27l0,0V22.829L126,22.829 M126,21.753L126,21.753L126,21.753L126,21.753L126,21.753"/><path fill="#282828" d="M125,34.748v1.261c0.346,0.281,0.679,0.581,1,0.898l0,0v-1.363l0,0C125.677,35.263,125.343,34.998,125,34.748"/><path fill="#282828" d="M125,30.064V31.2c0.339,0.189,0.672,0.39,1,0.602l0,0v-1.179l0,0C125.672,30.426,125.338,30.239,125,30.064"/><path fill="#282828" d="M125,25.66v1.085c0.336,0.146,0.669,0.3,1,0.463l0,0v-1.11l0,0C125.669,25.943,125.336,25.797,125,25.66"/><path fill="#282828" d="M125,21.42v1.03c0.335,0.119,0.669,0.245,1,0.378l0,0v-1.076l0,0c-0.029-0.011-0.058-0.022-0.086-0.033C125.612,21.61,125.304,21.523,125,21.42"/><path fill="#D5D5D5" d="M124,40.676v0.016l0,0c0.384,0.494,0.718,1.026,1,1.593V42.26C124.719,41.697,124.383,41.167,124,40.676 M124,35.27v3.889c0.361,0.368,0.696,0.765,1,1.184V36.01C124.677,35.747,124.343,35.5,124,35.27 M124,30.685v3.399c0.341,0.207,0.675,0.429,1,0.665V31.2C124.672,31.017,124.338,30.845,124,30.685 M124,26.342v3.241c0.337,0.15,0.671,0.31,1,0.48v-3.319C124.669,26.602,124.336,26.468,124,26.342 M124,22.12v3.158c0.336,0.119,0.669,0.246,1,0.382v-3.209C124.668,22.333,124.335,22.223,124,22.12"/><path fill="#2C2C2C" d="M124,39.158v1.518c0.383,0.491,0.719,1.021,1,1.584v-1.918C124.696,39.923,124.361,39.527,124,39.158"/><path fill="#2C2C2C" d="M124,34.083v1.186c0.343,0.23,0.677,0.477,1,0.74v-1.261C124.675,34.512,124.341,34.29,124,34.083"/><path fill="#2C2C2C" d="M124,29.583v1.101c0.338,0.161,0.672,0.333,1,0.515v-1.136C124.671,29.894,124.337,29.733,124,29.583"/><path fill="#2C2C2C" d="M124,25.278v1.064c0.336,0.125,0.669,0.26,1,0.403V25.66C124.669,25.524,124.336,25.397,124,25.278"/><path fill="#2C2C2C" d="M124,21.088v1.032c0.335,0.104,0.668,0.213,1,0.331v-1.03l0,0C124.667,21.308,124.336,21.187,124,21.088"/><path fill="#DFDFDF" d="M123,39.578v0.013l0,0c0.361,0.341,0.695,0.707,1,1.101v-0.016C123.695,40.284,123.361,39.917,123,39.578 M123,34.66v3.599c0.353,0.278,0.686,0.579,1,0.899V35.27C123.675,35.051,123.341,34.848,123,34.66 M123,30.247v3.283c0.34,0.171,0.674,0.354,1,0.554v-3.399C123.671,30.528,123.337,30.382,123,30.247 M123,25.997v3.178c0.337,0.126,0.67,0.263,1,0.409v-3.241C123.669,26.219,123.336,26.104,123,25.997 M123,21.834v3.115c0.335,0.102,0.669,0.211,1,0.329V22.12C123.668,22.018,123.335,21.922,123,21.834"/><path fill="#313131" d="M123,38.259v1.319c0.361,0.339,0.695,0.706,1,1.098v-1.518C123.686,38.838,123.353,38.537,123,38.259"/><path fill="#313131" d="M123,33.53v1.13c0.341,0.188,0.675,0.391,1,0.609v-1.186C123.674,33.885,123.34,33.701,123,33.53"/><path fill="#313131" d="M123,29.174v1.073c0.337,0.135,0.671,0.281,1,0.438v-1.101C123.67,29.437,123.337,29.301,123,29.174"/><path fill="#313131" d="M123,24.949v1.047c0.336,0.107,0.669,0.222,1,0.346v-1.064C123.669,25.16,123.335,25.051,123,24.949"/><path fill="#313131" d="M123,20.825v1.009c0.335,0.088,0.668,0.183,1,0.285v-1.032l0,0C123.669,20.99,123.334,20.909,123,20.825"/><path fill="#E9E9E9" d="M122,38.758v0.012l0,0c0.353,0.25,0.686,0.525,1,0.821v-0.013C122.686,39.283,122.352,39.009,122,38.758 M122,34.163v3.396c0.347,0.214,0.681,0.448,1,0.7V34.66C122.673,34.48,122.34,34.314,122,34.163 M122,29.882v3.193c0.339,0.139,0.672,0.291,1,0.455v-3.283C122.67,30.115,122.337,29.994,122,29.882 M122,25.706v3.125c0.336,0.104,0.67,0.219,1,0.343v-3.178C122.669,25.892,122.335,25.794,122,25.706 M122,21.593v3.08c0.335,0.084,0.669,0.177,1,0.276v-3.115C122.668,21.747,122.335,21.667,122,21.593"/><path fill="#353535" d="M122,37.559v1.199c0.352,0.251,0.686,0.525,1,0.82v-1.319C122.681,38.007,122.347,37.773,122,37.559"/><path fill="#353535" d="M122,33.075v1.088c0.34,0.151,0.673,0.317,1,0.497v-1.13C122.672,33.365,122.339,33.214,122,33.075"/><path fill="#353535" d="M122,28.832v1.05c0.337,0.112,0.67,0.233,1,0.365v-1.073C122.67,29.051,122.336,28.936,122,28.832"/><path fill="#353535" d="M122,24.673v1.033c0.335,0.088,0.669,0.186,1,0.291V24.95C122.669,24.85,122.335,24.757,122,24.673"/><path fill="#353535" d="M122,20.592v1c0.335,0.074,0.668,0.154,1,0.242v-1.009l0,0C122.668,20.741,122.335,20.663,122,20.592"/><path fill="#F3F3F3" d="M121,38.135v0.002c0.349,0.188,0.679,0.403,1,0.633v-0.012C121.681,38.531,121.347,38.322,121,38.135 M121,33.764v3.25c0.344,0.164,0.678,0.346,1,0.545v-3.396C121.672,34.017,121.339,33.884,121,33.764 M121,29.584v3.124c0.338,0.11,0.671,0.232,1,0.367v-3.193C121.67,29.773,121.336,29.673,121,29.584 M121,25.468v3.083c0.336,0.084,0.669,0.178,1,0.28v-3.125C121.669,25.619,121.335,25.539,121,25.468 M121,21.394v3.052c0.335,0.068,0.669,0.144,1,0.227v-3.08C121.668,21.52,121.335,21.454,121,21.394"/><path fill="#393939" d="M121,37.014v1.121c0.347,0.188,0.681,0.396,1,0.623v-1.199C121.678,37.36,121.344,37.178,121,37.014"/><path fill="#393939" d="M121,32.708v1.056c0.339,0.12,0.672,0.252,1,0.399v-1.088C121.671,32.94,121.338,32.818,121,32.708"/><path fill="#393939" d="M121,28.551v1.033c0.336,0.089,0.67,0.188,1,0.297v-1.05C121.669,28.729,121.336,28.635,121,28.551"/><path fill="#393939" d="M121,24.446v1.021c0.335,0.071,0.669,0.151,1,0.238v-1.033C121.669,24.59,121.335,24.514,121,24.446"/><path fill="#393939" d="M121,20.393v1.001c0.335,0.06,0.668,0.126,1,0.199v-1l0,0C121.667,20.522,121.335,20.45,121,20.393"/><path fill="#CBCBCB" d="M126,71.247c-0.02,0.007-0.04,0.015-0.059,0.022C125.961,71.262,125.98,71.255,126,71.247L126,71.247 M126,66.902c-0.331,0.154-0.664,0.301-1,0.438v3.209c0.335-0.119,0.668-0.244,1-0.378V66.902 M126,62.378c-0.328,0.197-0.662,0.383-1,0.56v3.318c0.336-0.146,0.669-0.3,1-0.463V62.378 M126,57.455c-0.323,0.281-0.657,0.547-1,0.797v3.551c0.339-0.188,0.672-0.39,1-0.602V57.455 M126,50.971c-0.281,0.596-0.617,1.159-1,1.688v4.332c0.346-0.281,0.679-0.58,1-0.898V50.971 M126,46.578c-0.012,1.486-0.376,2.889-1,4.139v0.023C125.629,49.484,125.987,48.072,126,46.578 M126,46.557c0,0.004,0,0.008,0,0.012C126,46.564,126,46.561,126,46.557 M126,46.525c0,0.004,0,0.006,0,0.008C126,46.531,126,46.529,126,46.525"/><path fill="#282828" d="M126,46.5L126,46.5L126,46.5L126,46.5c0,0.009,0,0.018,0,0.025c0,0.004,0,0.006,0,0.008c0,0.008,0,0.016,0,0.023c0,0.004,0,0.008,0,0.012c0,0.002,0,0.007,0,0.01c-0.012,1.494-0.371,2.906-1,4.162v1.918c0.383-0.528,0.719-1.094,1-1.688V46.5L126,46.5"/><path fill="#282828" d="M126,71.247L126,71.247L126,71.247L126,71.247 M126,66.902L126,66.902v3.27l0,0V66.902 M126,62.378L126,62.378v3.415l0,0V62.378 M126,57.455L126,57.455v3.746l0,0V57.455 M126,46.5L126,46.5L126,46.5v4.471v5.121l0,0V46.5"/><path fill="#282828" d="M126,56.092L126,56.092c-0.321,0.318-0.654,0.617-1,0.898v1.262c0.343-0.25,0.677-0.516,1-0.797l0,0V56.092"/><path fill="#282828" d="M126,61.201L126,61.201c-0.328,0.212-0.661,0.412-1,0.602v1.135c0.338-0.177,0.672-0.361,1-0.56l0,0V61.201"/><path fill="#282828" d="M126,65.793L126,65.793c-0.331,0.163-0.664,0.316-1,0.463v1.085c0.336-0.138,0.669-0.284,1-0.438l0,0V65.793"/><path fill="#282828" d="M126,70.172L126,70.172c-0.332,0.133-0.665,0.26-1,0.378v1.03l0,0c0.313-0.105,0.631-0.195,0.941-0.311c0.02-0.009,0.04-0.017,0.059-0.022l0,0V70.172"/><path fill="#D5D5D5" d="M125,67.341c-0.331,0.136-0.664,0.263-1,0.382v3.157c0.335-0.103,0.669-0.213,1-0.33V67.341 M125,62.938c-0.329,0.17-0.663,0.33-1,0.479v3.241c0.336-0.126,0.669-0.26,1-0.402V62.938 M125,58.252c-0.325,0.234-0.659,0.458-1,0.665v3.399c0.338-0.159,0.672-0.332,1-0.515V58.252 M125,52.658c-0.304,0.419-0.639,0.812-1,1.183v3.89c0.343-0.229,0.677-0.477,1-0.739V52.658 M125,50.717c-0.282,0.565-0.616,1.098-1,1.594v0.015c0.383-0.491,0.719-1.021,1-1.584V50.717L125,50.717"/><path fill="#2C2C2C" d="M125,50.74c-0.281,0.562-0.617,1.093-1,1.584v1.517c0.361-0.368,0.696-0.764,1-1.183V50.74"/><path fill="#2C2C2C" d="M125,56.99c-0.323,0.264-0.657,0.511-1,0.74v1.187c0.341-0.207,0.675-0.431,1-0.665V56.99"/><path fill="#2C2C2C" d="M125,61.803c-0.328,0.184-0.662,0.354-1,0.516v1.1c0.337-0.148,0.671-0.311,1-0.48V61.803"/><path fill="#2C2C2C" d="M125,66.256c-0.331,0.143-0.664,0.276-1,0.402v1.064c0.336-0.119,0.669-0.246,1-0.383V66.256"/><path fill="#2C2C2C" d="M125,70.55c-0.331,0.117-0.665,0.228-1,0.33v1.032l0,0c0.336-0.1,0.667-0.221,1-0.332V70.55"/><path fill="#DFDFDF" d="M124,67.723c-0.331,0.117-0.665,0.228-1,0.328v3.115c0.335-0.089,0.668-0.184,1-0.286V67.723 M124,63.417c-0.33,0.146-0.663,0.283-1,0.409v3.178c0.336-0.107,0.669-0.222,1-0.346V63.417 M124,58.917c-0.327,0.198-0.66,0.383-1,0.554v3.283c0.337-0.135,0.671-0.279,1-0.438V58.917 M124,53.841c-0.313,0.321-0.648,0.621-1,0.899v3.601c0.341-0.188,0.675-0.392,1-0.61V53.841 M124,52.311c-0.305,0.393-0.639,0.758-1,1.1v0.013c0.361-0.339,0.695-0.706,1-1.098V52.311L124,52.311"/><path fill="#313131" d="M124,52.324c-0.305,0.392-0.639,0.759-1,1.098v1.318c0.352-0.278,0.687-0.578,1-0.899V52.324"/><path fill="#313131" d="M124,57.73c-0.325,0.219-0.659,0.422-1,0.609v1.13c0.34-0.171,0.673-0.354,1-0.554V57.73"/><path fill="#313131" d="M124,62.316c-0.329,0.156-0.663,0.303-1,0.438v1.072c0.337-0.126,0.67-0.264,1-0.409V62.316"/><path fill="#313131" d="M124,66.658c-0.331,0.124-0.664,0.238-1,0.346v1.047c0.335-0.102,0.669-0.211,1-0.328V66.658"/><path fill="#313131" d="M124,70.88c-0.332,0.103-0.665,0.197-1,0.286v1.009l0,0c0.334-0.084,0.669-0.165,1-0.263V70.88"/><path fill="#E9E9E9" d="M123,68.051c-0.332,0.1-0.665,0.192-1,0.276v3.08c0.335-0.073,0.668-0.154,1-0.241V68.051 M123,63.826c-0.33,0.124-0.664,0.238-1,0.343v3.125c0.335-0.088,0.669-0.187,1-0.29V63.826 M123,59.471c-0.328,0.164-0.661,0.316-1,0.455v3.193c0.337-0.111,0.67-0.233,1-0.365V59.471 M123,54.74c-0.319,0.253-0.653,0.486-1,0.701v3.396c0.34-0.151,0.673-0.317,1-0.497V54.74 M123,53.409c-0.314,0.296-0.647,0.571-1,0.821v0.012c0.352-0.251,0.686-0.525,1-0.82V53.409L123,53.409"/><path fill="#353535" d="M123,53.422c-0.314,0.295-0.648,0.569-1,0.82v1.199c0.347-0.215,0.681-0.448,1-0.701V53.422"/><path fill="#353535" d="M123,58.341c-0.327,0.181-0.66,0.347-1,0.497v1.088c0.339-0.139,0.672-0.291,1-0.455V58.341"/><path fill="#353535" d="M123,62.754c-0.33,0.132-0.663,0.254-1,0.365v1.05c0.336-0.104,0.67-0.219,1-0.343V62.754"/><path fill="#353535" d="M123,67.004c-0.331,0.104-0.665,0.202-1,0.29v1.033c0.335-0.084,0.668-0.177,1-0.276V67.004"/><path fill="#353535" d="M123,71.166c-0.332,0.087-0.665,0.168-1,0.241v1.001l0,0c0.335-0.071,0.668-0.149,1-0.233V71.166"/><path fill="#F3F3F3" d="M122,68.327c-0.332,0.083-0.665,0.159-1,0.228v3.051c0.335-0.059,0.668-0.125,1-0.197V68.327 M122,64.169c-0.331,0.103-0.664,0.196-1,0.28v3.083c0.335-0.071,0.669-0.15,1-0.238V64.169 M122,59.926c-0.329,0.135-0.662,0.258-1,0.367v3.124c0.336-0.09,0.67-0.188,1-0.298V59.926 M122,55.441c-0.322,0.197-0.656,0.381-1,0.545v3.25c0.339-0.119,0.672-0.252,1-0.398V55.441 M122,54.23c-0.321,0.229-0.651,0.443-1,0.633v0.002c0.347-0.188,0.681-0.396,1-0.623V54.23L122,54.23"/><path fill="#393939" d="M122,54.242c-0.319,0.228-0.653,0.436-1,0.623v1.121c0.344-0.164,0.678-0.348,1-0.545V54.242"/><path fill="#393939" d="M122,58.838c-0.328,0.146-0.661,0.279-1,0.398v1.057c0.338-0.109,0.671-0.232,1-0.367V58.838"/><path fill="#393939" d="M122,63.119c-0.33,0.109-0.664,0.208-1,0.298v1.032c0.336-0.084,0.669-0.178,1-0.28V63.119"/><path fill="#393939" d="M122,67.294c-0.331,0.088-0.665,0.167-1,0.238v1.021c0.335-0.066,0.668-0.144,1-0.227V67.294"/><path fill="#393939" d="M122,71.407c-0.332,0.073-0.665,0.14-1,0.198v1.002c0.335-0.058,0.667-0.129,1-0.199V71.407"/><path fill="#CBCBCB" d="M167,46.467c0,0.002,0,0.004,0,0.006C167,46.471,167,46.469,167,46.467 M167,46.432c0,0.004,0,0.008,0,0.012C167,46.439,167,46.436,167,46.432 M168,42.26c-0.629,1.256-0.988,2.668-1,4.162c0.012-1.486,0.376-2.888,1-4.139V42.26 M168,36.009c-0.346,0.281-0.679,0.581-1,0.899v5.121c0.281-0.596,0.617-1.16,1-1.688V36.009 M168,31.199c-0.339,0.188-0.672,0.389-1,0.601v3.744c0.323-0.281,0.657-0.547,1-0.796V31.199 M168,26.745c-0.336,0.146-0.669,0.3-1,0.463v3.414c0.329-0.197,0.662-0.383,1-0.558V26.745 M168,22.45c-0.335,0.119-0.668,0.245-1,0.378v3.27c0.331-0.155,0.664-0.301,1-0.438V22.45"/><path fill="#282828" d="M168,40.342c-0.383,0.527-0.719,1.092-1,1.688v4.47c0-0.009,0-0.018,0-0.027c0-0.002,0-0.004,0-0.006c0-0.008,0-0.016,0-0.023c0-0.004,0-0.008,0-0.012c0-0.002,0-0.006,0-0.01c0.012-1.494,0.371-2.906,1-4.162V40.342"/><path fill="#282828" d="M168,34.748c-0.343,0.25-0.677,0.515-1,0.796v1.364c0.321-0.318,0.654-0.618,1-0.899V34.748"/><path fill="#282828" d="M168,30.064c-0.338,0.175-0.671,0.361-1,0.558V31.8c0.328-0.212,0.661-0.413,1-0.601V30.064"/><path fill="#282828" d="M168,25.66c-0.336,0.138-0.669,0.284-1,0.438v1.11c0.331-0.164,0.664-0.318,1-0.463V25.66"/><path fill="#282828" d="M168,21.42c-0.333,0.113-0.671,0.206-1,0.333v1.075c0.332-0.133,0.665-0.259,1-0.378V21.42"/><path fill="#D5D5D5" d="M169,40.676c-0.383,0.491-0.718,1.021-1,1.584v0.023c0.282-0.565,0.616-1.098,1-1.594V40.676 M169,35.269c-0.343,0.23-0.677,0.477-1,0.74v4.333c0.304-0.419,0.639-0.814,1-1.184V35.269 M169,30.683c-0.338,0.161-0.672,0.333-1,0.516v3.549c0.325-0.236,0.659-0.458,1-0.666V30.683 M169,26.342c-0.336,0.125-0.669,0.26-1,0.403v3.319c0.329-0.17,0.663-0.331,1-0.481V26.342 M169,22.12c-0.335,0.103-0.668,0.213-1,0.331v3.209c0.331-0.136,0.664-0.263,1-0.382V22.12"/><path fill="#2C2C2C" d="M169,39.158c-0.361,0.369-0.696,0.765-1,1.184v1.918c0.282-0.562,0.617-1.093,1-1.584V39.158"/><path fill="#2C2C2C" d="M169,34.082c-0.341,0.208-0.675,0.429-1,0.666v1.262c0.323-0.263,0.657-0.51,1-0.74V34.082"/><path fill="#2C2C2C" d="M169,29.583c-0.337,0.15-0.671,0.311-1,0.481v1.135c0.328-0.183,0.662-0.355,1-0.516V29.583"/><path fill="#2C2C2C" d="M169,25.277c-0.336,0.119-0.669,0.247-1,0.382v1.085c0.331-0.143,0.664-0.277,1-0.403V25.277"/><path fill="#2C2C2C" d="M169,21.088c-0.336,0.099-0.667,0.22-1,0.333v1.03c0.332-0.117,0.665-0.228,1-0.331V21.088"/><path fill="#DFDFDF" d="M170,39.578c-0.361,0.339-0.695,0.706-1,1.098v0.016c0.305-0.394,0.639-0.76,1-1.101V39.578 M170,34.659c-0.341,0.188-0.675,0.392-1,0.61v3.889c0.314-0.32,0.647-0.621,1-0.899V34.659 M170,30.246c-0.337,0.135-0.671,0.281-1,0.437v3.399c0.327-0.198,0.66-0.382,1-0.553V30.246 M170,25.997c-0.335,0.106-0.669,0.222-1,0.346v3.241c0.33-0.146,0.663-0.283,1-0.409V25.997 M170,21.834c-0.335,0.088-0.668,0.184-1,0.286v3.158c0.331-0.117,0.665-0.227,1-0.328V21.834"/><path fill="#313131" d="M170,38.259c-0.353,0.278-0.686,0.579-1,0.899v1.518c0.305-0.392,0.639-0.759,1-1.098V38.259"/><path fill="#313131" d="M170,33.529c-0.34,0.171-0.673,0.355-1,0.553v1.187c0.325-0.218,0.659-0.422,1-0.61V33.529"/><path fill="#313131" d="M170,29.174c-0.337,0.126-0.67,0.263-1,0.409v1.1c0.329-0.156,0.663-0.302,1-0.437V29.174"/><path fill="#313131" d="M170,24.949c-0.335,0.101-0.669,0.211-1,0.328v1.065c0.331-0.124,0.665-0.239,1-0.346V24.949"/><path fill="#313131" d="M170,20.825c-0.334,0.084-0.669,0.165-1,0.263v1.032c0.332-0.102,0.665-0.197,1-0.286V20.825"/><path fill="#E9E9E9" d="M171,38.758c-0.352,0.251-0.686,0.525-1,0.82v0.013c0.314-0.296,0.647-0.571,1-0.821V38.758 M171,34.162c-0.34,0.152-0.673,0.318-1,0.498v3.6c0.319-0.252,0.653-0.486,1-0.7V34.162 M171,29.881c-0.337,0.111-0.67,0.233-1,0.365v3.283c0.328-0.165,0.661-0.316,1-0.455V29.881 M171,25.706c-0.335,0.089-0.669,0.186-1,0.291v3.177c0.33-0.124,0.664-0.238,1-0.343V25.706 M171,21.593c-0.335,0.074-0.668,0.154-1,0.241v3.115c0.332-0.1,0.665-0.192,1-0.276V21.593"/><path fill="#353535" d="M171,37.559c-0.347,0.214-0.681,0.448-1,0.7v1.319c0.314-0.295,0.648-0.569,1-0.82V37.559"/><path fill="#353535" d="M171,33.074c-0.339,0.139-0.672,0.291-1,0.455v1.13c0.327-0.18,0.66-0.346,1-0.498V33.074"/><path fill="#353535" d="M171,28.831c-0.336,0.105-0.67,0.219-1,0.343v1.072c0.33-0.132,0.663-0.253,1-0.365V28.831"/><path fill="#353535" d="M171,24.673c-0.335,0.084-0.668,0.176-1,0.276v1.047c0.331-0.105,0.665-0.202,1-0.291V24.673"/><path fill="#353535" d="M171,20.592c-0.335,0.071-0.668,0.149-1,0.233v1.009c0.332-0.087,0.665-0.167,1-0.241V20.592"/><path fill="#F3F3F3" d="M172,38.135c-0.347,0.188-0.681,0.396-1,0.623v0.012c0.321-0.229,0.651-0.443,1-0.633V38.135 M172,33.763c-0.339,0.12-0.672,0.252-1,0.398v3.397c0.322-0.199,0.656-0.381,1-0.545V33.763 M172,29.584c-0.336,0.089-0.67,0.188-1,0.297v3.192c0.329-0.135,0.662-0.257,1-0.367V29.584 M172,25.467c-0.335,0.072-0.669,0.151-1,0.238v3.125c0.331-0.103,0.664-0.196,1-0.28V25.467 M172,21.394c-0.335,0.06-0.668,0.126-1,0.199v3.08c0.332-0.083,0.665-0.159,1-0.227V21.394"/><path fill="#393939" d="M172,37.014c-0.344,0.164-0.678,0.346-1,0.545v1.199c0.319-0.227,0.653-0.436,1-0.623V37.014"/><path fill="#393939" d="M172,32.707c-0.338,0.11-0.671,0.232-1,0.367v1.088c0.328-0.146,0.661-0.279,1-0.398V32.707"/><path fill="#393939" d="M172,28.551c-0.336,0.084-0.669,0.177-1,0.28v1.05c0.33-0.109,0.664-0.208,1-0.297V28.551"/><path fill="#393939" d="M172,24.446c-0.335,0.068-0.668,0.144-1,0.227v1.033c0.331-0.087,0.665-0.167,1-0.238V24.446"/><path fill="#393939" d="M172,20.393c-0.335,0.057-0.667,0.129-1,0.2v1c0.332-0.073,0.665-0.139,1-0.199V20.393"/><path fill="#CBCBCB" d="M244,46.467c0,0.002,0,0.006,0,0.008C244,46.471,244,46.469,244,46.467 M244,46.432c0,0.004,0,0.008,0,0.012C244,46.439,244,46.436,244,46.432 M243,42.26v0.023l0,0c0.624,1.25,0.986,2.65,1,4.138C243.986,44.928,243.629,43.516,243,42.26 M243,36.01v4.332c0.384,0.527,0.719,1.092,1,1.688v-5.121C243.68,36.591,243.346,36.291,243,36.01 M243,31.2v3.548c0.344,0.25,0.677,0.515,1,0.796v-3.742C243.673,31.59,243.339,31.389,243,31.2 M243,26.745v3.319c0.338,0.175,0.672,0.362,1,0.558v-3.415C243.669,27.044,243.336,26.89,243,26.745 M243,22.451v3.209c0.336,0.138,0.669,0.284,1,0.438v-3.269C243.669,22.695,243.335,22.569,243,22.451 M243.896,21.714c0.035,0.013,0.068,0.026,0.104,0.04v-0.001C243.966,21.74,243.932,21.727,243.896,21.714"/><path fill="#282828" d="M243,40.342v1.918c0.629,1.256,0.986,2.668,1,4.161c0,0.004,0,0.009,0,0.011c0,0.004,0,0.008,0,0.012c0,0.009,0,0.017,0,0.023c0,0.002,0,0.004,0,0.008c0,0.008,0,0.018,0,0.025l0,0v-4.471C243.719,41.434,243.384,40.869,243,40.342"/><path fill="#282828" d="M244,36.909v5.121v4.47l0,0V36.909L244,36.909 M244,31.802v3.742l0,0V31.802L244,31.802 M244,27.208v3.415l0,0V27.208L244,27.208 M244,22.829v3.269l0,0V22.829L244,22.829 M244,21.753L244,21.753L244,21.753L244,21.753L244,21.753"/><path fill="#282828" d="M243,34.749v1.261c0.346,0.281,0.68,0.581,1,0.899l0,0v-1.364l0,0C243.677,35.263,243.344,34.998,243,34.749"/><path fill="#282828" d="M243,30.064V31.2c0.339,0.189,0.673,0.39,1,0.602l0,0v-1.18l0,0C243.672,30.426,243.338,30.24,243,30.064"/><path fill="#282828" d="M243,25.66v1.085c0.336,0.145,0.669,0.299,1,0.463l0,0v-1.11l0,0C243.669,25.943,243.336,25.797,243,25.66"/><path fill="#282828" d="M243,21.42v1.03c0.335,0.119,0.669,0.245,1,0.378l0,0v-1.075l0,0c-0.035-0.014-0.068-0.027-0.104-0.04C243.6,21.606,243.298,21.521,243,21.42"/><path fill="#D5D5D5" d="M242,40.675v0.017l0,0c0.384,0.494,0.719,1.026,1,1.593V42.26C242.719,41.697,242.383,41.167,242,40.675 M242,35.27v3.888c0.361,0.369,0.695,0.765,1,1.184V36.01C242.677,35.747,242.343,35.5,242,35.27 M242,30.685v3.399c0.341,0.207,0.675,0.429,1,0.665V31.2C242.672,31.018,242.338,30.845,242,30.685 M242,26.342v3.242c0.338,0.15,0.671,0.31,1,0.48v-3.319C242.669,26.602,242.336,26.468,242,26.342 M242,22.12v3.157c0.336,0.119,0.669,0.247,1,0.382V22.45C242.669,22.333,242.335,22.223,242,22.12"/><path fill="#2C2C2C" d="M242,39.158v1.517c0.383,0.492,0.719,1.022,1,1.585v-1.918C242.695,39.923,242.361,39.527,242,39.158"/><path fill="#2C2C2C" d="M242,34.083v1.187c0.343,0.23,0.677,0.477,1,0.74v-1.261C242.675,34.513,242.341,34.291,242,34.083"/><path fill="#2C2C2C" d="M242,29.584v1.101c0.338,0.161,0.672,0.333,1,0.516v-1.136C242.671,29.894,242.338,29.734,242,29.584"/><path fill="#2C2C2C" d="M242,25.277v1.065c0.336,0.125,0.669,0.26,1,0.403V25.66C242.669,25.524,242.336,25.396,242,25.277"/><path fill="#2C2C2C" d="M242,21.088v1.032c0.335,0.103,0.669,0.213,1,0.331v-1.03l0,0C242.667,21.308,242.336,21.187,242,21.088"/><path fill="#DFDFDF" d="M241,39.578v0.013l0,0c0.361,0.341,0.695,0.707,1,1.101v-0.017C241.695,40.284,241.359,39.917,241,39.578 M241,34.661v3.598c0.354,0.278,0.688,0.579,1,0.899V35.27C241.675,35.052,241.341,34.849,241,34.661 M241,30.248v3.283c0.34,0.171,0.674,0.354,1,0.553v-3.399C241.671,30.528,241.338,30.383,241,30.248 M241,25.997v3.178c0.337,0.126,0.67,0.263,1,0.409v-3.242C241.669,26.219,241.336,26.104,241,25.997 M241,21.834v3.115c0.336,0.102,0.669,0.211,1,0.328V22.12C241.668,22.018,241.335,21.923,241,21.834"/><path fill="#313131" d="M241,38.259v1.319c0.359,0.339,0.695,0.706,1,1.097v-1.517C241.688,38.838,241.354,38.537,241,38.259"/><path fill="#313131" d="M241,33.53v1.13c0.341,0.188,0.675,0.391,1,0.609v-1.187C241.674,33.885,241.34,33.701,241,33.53"/><path fill="#313131" d="M241,29.175v1.073c0.338,0.135,0.671,0.281,1,0.437v-1.101C241.67,29.438,241.337,29.301,241,29.175"/><path fill="#313131" d="M241,24.949v1.047c0.336,0.107,0.669,0.222,1,0.346v-1.065C241.669,25.16,241.336,25.051,241,24.949"/><path fill="#313131" d="M241,20.825v1.009c0.335,0.088,0.668,0.184,1,0.286v-1.032l0,0C241.669,20.99,241.334,20.909,241,20.825"/><path fill="#E9E9E9" d="M240,38.758v0.012l0,0c0.354,0.25,0.686,0.525,1,0.821v-0.013C240.686,39.283,240.352,39.009,240,38.758 M240,34.163v3.396c0.348,0.214,0.682,0.448,1,0.7v-3.598C240.674,34.48,240.34,34.314,240,34.163 M240,29.882v3.192c0.339,0.139,0.673,0.291,1,0.456v-3.283C240.67,30.115,240.337,29.994,240,29.882 M240,25.706v3.126c0.336,0.104,0.67,0.219,1,0.343v-3.178C240.669,25.892,240.335,25.794,240,25.706 M240,21.593v3.08c0.335,0.084,0.669,0.176,1,0.276v-3.115C240.668,21.747,240.335,21.667,240,21.593"/><path fill="#353535" d="M240,37.559v1.199c0.352,0.251,0.686,0.525,1,0.82v-1.319C240.682,38.007,240.348,37.773,240,37.559"/><path fill="#353535" d="M240,33.075v1.088c0.34,0.151,0.674,0.317,1,0.498v-1.13C240.673,33.366,240.339,33.214,240,33.075"/><path fill="#353535" d="M240,28.832v1.05c0.337,0.111,0.67,0.233,1,0.365v-1.073C240.67,29.051,240.336,28.937,240,28.832"/><path fill="#353535" d="M240,24.673v1.033c0.335,0.088,0.669,0.186,1,0.291V24.95C240.669,24.849,240.335,24.757,240,24.673"/><path fill="#353535" d="M240,20.592v1.001c0.335,0.073,0.668,0.154,1,0.241v-1.009l0,0C240.668,20.741,240.335,20.663,240,20.592"/><path fill="#F3F3F3" d="M239,38.135v0.002c0.35,0.188,0.68,0.403,1,0.633v-0.012C239.682,38.53,239.348,38.322,239,38.135 M239,33.765v3.249c0.344,0.164,0.678,0.346,1,0.545v-3.396C239.672,34.017,239.339,33.884,239,33.765 M239,29.584v3.124c0.338,0.11,0.672,0.232,1,0.367v-3.192C239.67,29.773,239.336,29.674,239,29.584 M239,25.468v3.084c0.336,0.084,0.67,0.177,1,0.28v-3.126C239.669,25.619,239.335,25.539,239,25.468 M239,21.394v3.052c0.335,0.068,0.668,0.143,1,0.227v-3.08C239.668,21.52,239.335,21.454,239,21.394"/><path fill="#393939" d="M239,37.014v1.121c0.348,0.188,0.682,0.396,1,0.623v-1.199C239.678,37.36,239.344,37.178,239,37.014"/><path fill="#393939" d="M239,32.708v1.057c0.339,0.119,0.672,0.252,1,0.398v-1.088C239.672,32.94,239.338,32.818,239,32.708"/><path fill="#393939" d="M239,28.552v1.033c0.336,0.089,0.67,0.188,1,0.298v-1.05C239.67,28.729,239.336,28.636,239,28.552"/><path fill="#393939" d="M239,24.446v1.021c0.335,0.071,0.669,0.151,1,0.238v-1.033C239.668,24.589,239.335,24.514,239,24.446"/><path fill="#393939" d="M239,20.393v1.001c0.335,0.06,0.668,0.126,1,0.199v-1.001l0,0C239.668,20.522,239.336,20.45,239,20.393"/><path fill="#CBCBCB" d="M244,71.247c-0.021,0.008-0.045,0.017-0.066,0.024C243.955,71.266,243.979,71.256,244,71.247L244,71.247 M244,66.9c-0.331,0.156-0.664,0.302-1,0.438v3.21c0.336-0.119,0.669-0.244,1-0.379V66.9 M244,62.378c-0.328,0.197-0.662,0.383-1,0.56v3.317c0.336-0.146,0.669-0.3,1-0.463V62.378 M244,57.455c-0.323,0.281-0.657,0.547-1,0.796v3.551c0.339-0.188,0.673-0.389,1-0.601V57.455 M244,50.971c-0.281,0.596-0.616,1.16-1,1.688v4.332c0.346-0.282,0.68-0.582,1-0.899V50.971 M244,46.579c-0.014,1.485-0.376,2.888-1,4.138v0.023C243.629,49.484,243.986,48.072,244,46.579 M244,46.557c0,0.004,0,0.008,0,0.012C244,46.564,244,46.561,244,46.557 M244,46.525c0,0.004,0,0.006,0,0.008C244,46.531,244,46.529,244,46.525"/><path fill="#282828" d="M244,46.5L244,46.5L244,46.5L244,46.5c0,0.009,0,0.018,0,0.025c0,0.004,0,0.006,0,0.008c0,0.008,0,0.016,0,0.023c0,0.004,0,0.008,0,0.012c0,0.002,0,0.007,0,0.011c-0.014,1.493-0.371,2.905-1,4.161v1.918c0.384-0.527,0.719-1.092,1-1.688V46.5L244,46.5"/><path fill="#282828" d="M244,71.247L244,71.247L244,71.247L244,71.247 M244,66.9L244,66.9v3.271l0,0V66.9 M244,62.378L244,62.378v3.414l0,0V62.378 M244,57.455L244,57.455v3.746l0,0V57.455 M244,46.5L244,46.5L244,46.5v4.471v5.12l0,0V46.5"/><path fill="#282828" d="M244,56.091L244,56.091c-0.32,0.317-0.654,0.617-1,0.899v1.261c0.343-0.249,0.677-0.515,1-0.796l0,0V56.091"/><path fill="#282828" d="M244,61.201L244,61.201c-0.327,0.212-0.661,0.412-1,0.601v1.136c0.338-0.177,0.672-0.361,1-0.56l0,0V61.201"/><path fill="#282828" d="M244,65.792L244,65.792c-0.331,0.163-0.664,0.317-1,0.463v1.085c0.336-0.138,0.669-0.283,1-0.438l0,0V65.792"/><path fill="#282828" d="M244,70.171L244,70.171c-0.331,0.134-0.664,0.261-1,0.379v1.03l0,0c0.311-0.105,0.625-0.193,0.934-0.309c0.021-0.008,0.045-0.018,0.066-0.024l0,0V70.171"/><path fill="#D5D5D5" d="M243,67.34c-0.331,0.137-0.664,0.264-1,0.383v3.158c0.335-0.104,0.669-0.214,1-0.331V67.34 M243,62.938c-0.329,0.17-0.662,0.33-1,0.479v3.241c0.336-0.126,0.669-0.262,1-0.403V62.938 M243,58.251c-0.325,0.235-0.658,0.459-1,0.666v3.399c0.338-0.16,0.672-0.332,1-0.516V58.251 M243,52.658c-0.305,0.419-0.639,0.814-1,1.184v3.889c0.343-0.229,0.677-0.478,1-0.739V52.658 M243,50.717c-0.281,0.565-0.616,1.098-1,1.594v0.016c0.383-0.492,0.719-1.021,1-1.585V50.717L243,50.717"/><path fill="#2C2C2C" d="M243,50.74c-0.281,0.562-0.617,1.093-1,1.585v1.517c0.361-0.369,0.695-0.765,1-1.184V50.74"/><path fill="#2C2C2C" d="M243,56.99c-0.323,0.263-0.657,0.51-1,0.74v1.187c0.342-0.207,0.675-0.431,1-0.666V56.99"/><path fill="#2C2C2C" d="M243,61.802c-0.328,0.185-0.662,0.354-1,0.517v1.1c0.338-0.15,0.671-0.311,1-0.48V61.802"/><path fill="#2C2C2C" d="M243,66.255c-0.331,0.144-0.664,0.277-1,0.403v1.064c0.336-0.119,0.669-0.248,1-0.384V66.255"/><path fill="#2C2C2C" d="M243,70.55c-0.331,0.117-0.665,0.228-1,0.331v1.031l0,0c0.336-0.1,0.667-0.221,1-0.332V70.55"/><path fill="#DFDFDF" d="M242,67.723c-0.331,0.117-0.665,0.228-1,0.328v3.115c0.335-0.088,0.669-0.184,1-0.285V67.723 M242,63.417c-0.33,0.146-0.663,0.282-1,0.409v3.177c0.336-0.106,0.669-0.222,1-0.345V63.417 M242,58.917c-0.326,0.198-0.66,0.383-1,0.554v3.283c0.337-0.135,0.671-0.279,1-0.438V58.917 M242,53.842c-0.312,0.32-0.646,0.621-1,0.899v3.599c0.341-0.188,0.675-0.391,1-0.609V53.842 M242,52.311c-0.305,0.393-0.639,0.758-1,1.1v0.013c0.359-0.339,0.695-0.706,1-1.097V52.311L242,52.311"/><path fill="#313131" d="M242,52.325c-0.305,0.391-0.641,0.758-1,1.097v1.319c0.354-0.278,0.688-0.579,1-0.899V52.325"/><path fill="#313131" d="M242,57.73c-0.325,0.219-0.659,0.422-1,0.608v1.131c0.34-0.171,0.674-0.354,1-0.554V57.73"/><path fill="#313131" d="M242,62.316c-0.329,0.156-0.663,0.303-1,0.438v1.072c0.337-0.127,0.67-0.264,1-0.409V62.316"/><path fill="#313131" d="M242,66.658c-0.331,0.123-0.664,0.238-1,0.345v1.048c0.335-0.102,0.669-0.211,1-0.328V66.658"/><path fill="#313131" d="M242,70.881c-0.331,0.102-0.665,0.197-1,0.285v1.009l0,0c0.334-0.084,0.669-0.165,1-0.263V70.881"/><path fill="#E9E9E9" d="M241,68.051c-0.331,0.1-0.664,0.192-1,0.276v3.08c0.335-0.073,0.668-0.154,1-0.241V68.051 M241,63.826c-0.33,0.124-0.663,0.238-1,0.343v3.125c0.336-0.089,0.669-0.187,1-0.291V63.826 M241,59.471c-0.327,0.164-0.661,0.316-1,0.455v3.193c0.337-0.111,0.67-0.233,1-0.365V59.471 M241,54.741c-0.318,0.252-0.652,0.485-1,0.7v3.396c0.34-0.151,0.674-0.317,1-0.498V54.741 M241,53.409c-0.314,0.296-0.646,0.571-1,0.821v0.012c0.352-0.251,0.686-0.525,1-0.82V53.409L241,53.409"/><path fill="#353535" d="M241,53.422c-0.314,0.295-0.648,0.569-1,0.82v1.199c0.348-0.215,0.682-0.448,1-0.7V53.422"/><path fill="#353535" d="M241,58.34c-0.326,0.182-0.66,0.348-1,0.498v1.088c0.339-0.139,0.673-0.291,1-0.455V58.34"/><path fill="#353535" d="M241,62.754c-0.33,0.132-0.663,0.254-1,0.365v1.05c0.337-0.104,0.67-0.219,1-0.343V62.754"/><path fill="#353535" d="M241,67.003c-0.331,0.104-0.664,0.202-1,0.291v1.033c0.336-0.084,0.669-0.177,1-0.276V67.003"/><path fill="#353535" d="M241,71.166c-0.332,0.087-0.665,0.168-1,0.241v1.001l0,0c0.335-0.071,0.668-0.149,1-0.233V71.166"/><path fill="#F3F3F3" d="M240,68.327c-0.331,0.083-0.665,0.159-1,0.228v3.053c0.335-0.061,0.668-0.127,1-0.199V68.327 M240,64.169c-0.33,0.103-0.664,0.196-1,0.28v3.083c0.335-0.071,0.669-0.15,1-0.238V64.169 M240,59.926c-0.328,0.135-0.662,0.258-1,0.367v3.124c0.336-0.09,0.67-0.188,1-0.298V59.926 M240,55.441c-0.322,0.199-0.656,0.381-1,0.545v3.25c0.339-0.119,0.672-0.252,1-0.398V55.441 M240,54.23c-0.32,0.229-0.65,0.443-1,0.633v0.002c0.348-0.188,0.682-0.396,1-0.623V54.23L240,54.23"/><path fill="#393939" d="M240,54.242c-0.318,0.228-0.652,0.436-1,0.623v1.121c0.344-0.164,0.678-0.346,1-0.545V54.242"/><path fill="#393939" d="M240,58.838c-0.328,0.146-0.661,0.279-1,0.398v1.057c0.338-0.109,0.672-0.232,1-0.367V58.838"/><path fill="#393939" d="M240,63.119c-0.33,0.109-0.664,0.208-1,0.298v1.032c0.336-0.084,0.67-0.178,1-0.28V63.119"/><path fill="#393939" d="M240,67.294c-0.331,0.088-0.665,0.167-1,0.238v1.021c0.335-0.066,0.669-0.144,1-0.227V67.294"/><path fill="#393939" d="M240,71.407c-0.332,0.073-0.665,0.14-1,0.198v1.002c0.336-0.058,0.668-0.129,1-0.199V71.407"/><path fill="#CBCBCB" d="M289,24.03v2.06l3,5.4v-2.06l-1.252-2.253L289,24.03 M285,16.83v2.06l3,5.4v-2.06l-0.785-1.414L285,16.83 M281,9.63v2.06l3,5.4v-2.06l-1.779-3.205L281,9.63 M277,2.43v2.06l3,5.4V7.83L277,2.43"/><path fill="#282828" d="M290.748,27.177L292,29.43v2.06l1,1.8v-2.06L290.748,27.177 M288,22.23v2.06l1,1.8v-2.06L288,22.23 M284,15.03v2.06l1,1.8v-2.06l2.215,3.986L284,15.03 M276,0.63v2.06l1,1.8V2.43l3,5.4v2.06l1,1.8V9.63l1.221,2.195L276,0.63"/><path fill="#D5D5D5" d="M289,26.1v2.06l3,5.4V31.5L289,26.1 M285,18.9v2.06l3,5.4V24.3L285,18.9 M281,11.7v2.06l3,5.4V17.1L281,11.7 M277,4.5v2.06l3,5.4V9.9L277,4.5"/><path fill="#2C2C2C" d="M292,31.5v2.06l1,1.8V33.3L292,31.5 M288,24.3v2.06l1,1.8V26.1L288,24.3 M284,17.1v2.06l1,1.8V18.9L284,17.1 M280,9.9v2.06l1,1.8V11.7L280,9.9 M276,2.7v2.06l1,1.8V4.5L276,2.7"/><path fill="#DFDFDF" d="M289,28.17v2.06l3,5.4v-2.06L289,28.17 M285,20.97v2.061l3,5.4v-2.06L285,20.97 M281,13.77v2.06l3,5.4v-2.06L281,13.77 M277,6.569v2.06l3,5.4v-2.06L277,6.569"/><path fill="#313131" d="M292,33.57v2.06l1,1.8v-2.06L292,33.57 M288,26.37v2.06l1,1.8v-2.06L288,26.37 M284,19.17v2.06l1,1.8V20.97L284,19.17 M280,11.97v2.061l1,1.8v-2.06L280,11.97 M276,4.77v2.06l1,1.8V6.57L276,4.77"/><path fill="#E9E9E9" d="M289,30.24v2.06l3,5.4v-2.06L289,30.24 M285,23.04v2.06l3,5.4v-2.06L285,23.04 M281,15.84v2.06l3,5.4v-2.06L281,15.84 M277,8.64v2.06l3,5.4v-2.06L277,8.64"/><path fill="#353535" d="M292,35.64v2.06l1,1.8v-2.06L292,35.64 M288,28.44v2.06l1,1.8v-2.06L288,28.44 M284,21.24v2.06l1,1.8v-2.06L284,21.24 M280,14.04v2.06l1,1.8v-2.06L280,14.04 M276,6.839v2.06l1,1.8V8.64L276,6.839"/><path fill="#F3F3F3" d="M289,32.31v2.061l3,5.4V37.71L289,32.31 M285,25.109v2.061l3,5.4v-2.06L285,25.109 M281,17.909v2.061l3,5.4v-2.06L281,17.909 M277,10.709v2.061l3,5.4v-2.06L277,10.709"/><path fill="#393939" d="M292,37.71v2.062l1,1.799V39.51L292,37.71 M288,30.51v2.061l1,1.8V32.31L288,30.51 M284,23.31v2.06l1,1.8v-2.061L284,23.31 M280,16.109v2.06l1,1.8v-2.061L280,16.109 M276,8.909v2.06l1,1.8v-2.061L276,8.909"/><path fill="#CBCBCB" d="M329,63.109v2.061l3,5.4V68.51L329,63.109 M325,55.91v2.061l3,5.399v-2.06L325,55.91 M321,48.71v2.06l3,5.4v-2.061L321,48.71 M317,41.51v2.061l3,5.399v-2.06L317,41.51"/><path fill="#282828" d="M332,68.511v2.06l1,1.801v-2.061L332,68.511 M328,61.311v2.061l1,1.8v-2.06L328,61.311 M324,54.109v2.061l1,1.8v-2.06L324,54.109 M320,46.91v2.061l1,1.799v-2.06L320,46.91 M316,39.71v2.06l1,1.801V41.51L316,39.71"/><path fill="#D5D5D5" d="M329,61.04v2.062l3,5.399v-2.062L329,61.04 M325,53.84V55.9l3,5.398v-2.06L325,53.84 M321,46.641v2.06l3,5.399v-2.061L321,46.641 M317,39.439v2.06l3,5.399v-2.06L317,39.439"/><path fill="#2C2C2C" d="M332,66.439v2.062l1,1.8V68.24L332,66.439 M328,59.24v2.06l1,1.802V61.04L328,59.24 M324,52.04v2.06l1,1.801V53.84L324,52.04 M320,44.84V46.9l1,1.801v-2.061L320,44.84 M316,37.64v2.06l1,1.8v-2.061L316,37.64"/><path fill="#DFDFDF" d="M329,58.97v2.062l3,5.4V64.37L329,58.97 M325,51.77v2.062l3,5.399V57.17L325,51.77 M321,44.57v2.06l3,5.4V49.97L321,44.57 M317,37.37v2.06l3,5.4V42.77L317,37.37"/><path fill="#313131" d="M332,64.37v2.062l1,1.799V66.17L332,64.37 M328,57.17v2.061l1,1.801V58.97L328,57.17 M324,49.97v2.062l1,1.8V51.77L324,49.97 M320,42.77v2.062l1,1.8V44.57L320,42.77 M316,35.57v2.06l1,1.8v-2.06L316,35.57"/><path fill="#E9E9E9" d="M329,56.9v2.06l3,5.399V62.3L329,56.9 M325,49.7v2.06l3,5.4V55.1L325,49.7 M321,42.5v2.061l3,5.399V47.9L321,42.5 M317,35.3v2.06l3,5.4V40.7L317,35.3"/><path fill="#353535" d="M332,62.301v2.061l1,1.8v-2.06L332,62.301 M328,55.102v2.06l1,1.8V56.9L328,55.102 M324,47.9v2.06l1,1.8V49.7L324,47.9 M320,40.7v2.06l1,1.801V42.5L320,40.7 M316,33.5v2.06l1,1.8V35.3L316,33.5"/><path fill="#F3F3F3" d="M329,54.831v2.06l3,5.4V60.23L329,54.831 M325,47.631v2.061l3,5.399V53.03L325,47.631 M321,40.432v2.06l3,5.399V45.83L321,40.432 M317,33.229v2.061l3,5.399v-2.06L317,33.229"/><path fill="#393939" d="M332,60.23v2.061l1,1.8v-2.06L332,60.23 M328,53.03v2.061l1,1.8v-2.06L328,53.03 M324,45.83v2.061l1,1.801v-2.061L324,45.83 M320,38.63v2.062l1,1.8v-2.06L320,38.63 M316,31.43v2.061l1,1.8V33.23L316,31.43"/><polyline fill="#CBCBCB" points="370.306,51.954 370.306,51.954 369.812,52.34 370.306,51.954 "/><path fill="#282828" d="M370.306,51.954l-0.297,0.002c-0.321,0.383-0.675,0.735-1.059,1.058l0.862-0.674L370.306,51.954"/><path fill="#CBCBCB" d="M360.613,54.495l-0.904,0.707c0.094,0.041,0.188,0.081,0.283,0.118c0.146,0.059,0.293,0.111,0.439,0.162c0.128,0.043,0.257,0.088,0.388,0.125c0.164,0.05,0.331,0.09,0.499,0.129c0.121,0.029,0.24,0.061,0.363,0.084c0.192,0.037,0.391,0.064,0.587,0.091c0.104,0.014,0.204,0.032,0.31,0.042C362.882,55.982,363.188,56,363.5,56c0.003,0,0.005,0,0.008,0l1.438-1.124C364.476,54.957,363.992,55,363.5,55C362.487,55,361.515,54.82,360.613,54.495 M357.14,52.132l-0.78,0.611c0.282,0.325,0.589,0.63,0.914,0.914l0.09,0.082c0.146,0.124,0.3,0.239,0.453,0.354l0.241,0.181c0.138,0.098,0.279,0.187,0.421,0.275c0.082,0.053,0.164,0.104,0.247,0.151l0.85-0.664C358.65,53.555,357.826,52.906,357.14,52.132 M355.241,48.509l-0.849,0.662c0.055,0.181,0.112,0.359,0.176,0.535l0.014,0.038c0.092,0.251,0.193,0.498,0.305,0.738l0.012,0.021c0.237,0.512,0.521,0.996,0.842,1.452l0.782-0.611C355.932,50.499,355.492,49.54,355.241,48.509 M355.048,47.393l-0.493,0.387L355.048,47.393L355.048,47.393"/><path fill="#282828" d="M355.048,47.393l-0.493,0.387l-0.408,0.318c0.047,0.274,0.104,0.545,0.176,0.812l0.007,0.028c0.021,0.078,0.043,0.156,0.064,0.233l0.849-0.662C355.152,48.146,355.088,47.771,355.048,47.393"/><path fill="#282828" d="M356.521,51.346l-0.782,0.611c0.191,0.273,0.398,0.536,0.619,0.786l0.78-0.611C356.919,51.883,356.712,51.62,356.521,51.346"/><path fill="#282828" d="M359.574,54.037l-0.85,0.664c0.025,0.016,0.052,0.031,0.077,0.046c0.134,0.076,0.271,0.147,0.406,0.218c0.128,0.064,0.257,0.127,0.387,0.188c0.038,0.018,0.075,0.033,0.113,0.051l0.904-0.707C360.255,54.365,359.908,54.212,359.574,54.037"/><polyline fill="#282828" points="355.048,47.393 354.555,47.777 355.048,47.393 355.048,47.393 "/><path fill="#282828" d="M368.726,53.189c-1.083,0.848-2.372,1.441-3.779,1.687L363.508,56c0.317,0,0.632-0.018,0.941-0.048c0.312-0.032,0.619-0.079,0.922-0.14L368.726,53.189"/><path fill="#D5D5D5" d="M367.971,52.511C366.722,53.443,365.176,54,363.5,54c-0.668,0-1.315-0.088-1.932-0.252l-0.955,0.747C361.515,54.82,362.487,55,363.5,55c0.492,0,0.976-0.043,1.445-0.124L367.971,52.511 M368.667,51.966h-0.047c-0.126,0.118-0.256,0.231-0.389,0.341L368.667,51.966 M357.931,51.514l-0.791,0.618c0.688,0.774,1.512,1.423,2.436,1.905l0.877-0.686C359.486,52.92,358.629,52.29,357.931,51.514 M356.122,47.818l-0.881,0.689c0.251,1.031,0.689,1.99,1.28,2.837l0.79-0.618C356.725,49.869,356.312,48.883,356.122,47.818 M356.007,46.643l-0.959,0.75l0,0L356.007,46.643L356.007,46.643"/><path fill="#2C2C2C" d="M356.007,46.645l-0.959,0.748c0.04,0.381,0.104,0.754,0.193,1.116l0.881-0.688C356.054,47.438,356.015,47.044,356.007,46.645"/><path fill="#2C2C2C" d="M357.312,50.729l-0.791,0.617c0.189,0.274,0.396,0.537,0.617,0.786l0.791-0.618C357.708,51.268,357.501,51.003,357.312,50.729"/><path fill="#2C2C2C" d="M360.451,53.352l-0.877,0.687c0.334,0.175,0.681,0.328,1.039,0.458l0.955-0.747C361.184,53.645,360.81,53.512,360.451,53.352"/><polyline fill="#2C2C2C" points="356.007,46.645 355.048,47.393 355.048,47.393 356.007,46.645 356.007,46.645 "/><path fill="#2C2C2C" d="M370.009,51.956l-1.342,0.01l-0.436,0.341c-0.087,0.069-0.174,0.139-0.262,0.204l-3.024,2.365c1.407-0.244,2.696-0.839,3.779-1.687l0.226-0.176C369.334,52.691,369.688,52.339,370.009,51.956"/><path fill="#DFDFDF" d="M368.62,51.966l-1.634,0.011C365.978,52.621,364.783,53,363.5,53c-0.304,0-0.604-0.021-0.896-0.062l-1.034,0.811C362.185,53.912,362.832,54,363.5,54c1.676,0,3.222-0.557,4.471-1.489l0.262-0.204C368.364,52.197,368.494,52.084,368.62,51.966 M358.718,50.898l-0.787,0.615c0.698,0.775,1.557,1.405,2.521,1.838l0.911-0.713C360.342,52.282,359.436,51.678,358.718,50.898 M357.028,47.109l-0.906,0.709c0.188,1.063,0.603,2.051,1.19,2.908l0.785-0.615C357.512,49.238,357.132,48.214,357.028,47.109 M357.033,45.841l-1.026,0.802v0.002L357.033,45.841L357.033,45.841"/><path fill="#313131" d="M357.033,45.842l-1.026,0.803c0.008,0.399,0.047,0.793,0.115,1.176l0.906-0.709C357.01,46.909,357,46.706,357,46.5l0,0l0,0C357,46.277,357.012,46.059,357.033,45.842"/><path fill="#313131" d="M358.099,50.111l-0.786,0.615c0.188,0.275,0.396,0.539,0.618,0.787l0.787-0.615C358.492,50.652,358.285,50.391,358.099,50.111"/><path fill="#313131" d="M361.362,52.639l-0.911,0.713c0.357,0.16,0.731,0.293,1.117,0.396l1.034-0.811C362.176,52.879,361.76,52.777,361.362,52.639"/><polyline fill="#313131" points="357.033,45.842 356.007,46.645 356.007,46.645 357.033,45.842 357.033,45.842 "/><path fill="#313131" d="M368.231,52.307l-0.262,0.204C368.059,52.443,368.146,52.376,368.231,52.307"/><path fill="#E9E9E9" d="M366.986,51.977l-3.181,0.021l-1.203,0.939C362.896,52.979,363.196,53,363.5,53C364.783,53,365.978,52.621,366.986,51.977 M359.509,50.28l-0.791,0.618c0.718,0.778,1.624,1.384,2.646,1.74l0.976-0.764C361.236,51.639,360.257,51.07,359.509,50.28 M358.002,46.35l-0.974,0.762c0.104,1.104,0.482,2.128,1.069,3.002l0.79-0.617C358.327,48.633,358,47.604,358,46.5l0,0l0,0C358,46.449,358.001,46.398,358.002,46.35 M358.239,44.898l-1.206,0.941l0,0l0,0c0,0,0,0,0,0.001L358.239,44.898L358.239,44.898"/><path fill="#353535" d="M358.239,44.898l-1.206,0.942C357.012,46.059,357,46.277,357,46.5c0,0.206,0.01,0.409,0.028,0.609l0.974-0.762C358.016,45.848,358.099,45.359,358.239,44.898"/><path fill="#353535" d="M358.889,49.495l-0.79,0.616c0.188,0.279,0.395,0.541,0.619,0.787l0.791-0.618C359.279,50.038,359.071,49.775,358.889,49.495"/><path fill="#353535" d="M362.338,51.876l-0.976,0.763c0.396,0.139,0.812,0.24,1.24,0.301l1.203-0.94L363.5,52C363.102,52,362.713,51.957,362.338,51.876"/><polyline fill="#353535" points="358.239,44.898 357.033,45.842 357.033,45.842 358.239,44.898 358.239,44.898 "/><polyline fill="#2C2C2C" points="357.033,45.842 357.033,45.842 357.033,45.842 357.033,45.842 "/><path fill="#F3F3F3" d="M360.308,49.655l-0.799,0.625c0.748,0.79,1.729,1.358,2.829,1.596l0.918-0.718l-0.055-0.188C362.074,50.895,361.059,50.406,360.308,49.655 M359.119,45.477l-1.117,0.873c-0.001,0.049-0.002,0.1-0.002,0.15c0,1.104,0.327,2.133,0.889,2.995l0.795-0.622c-0.433-0.688-0.684-1.5-0.684-2.373C359,46.146,359.041,45.805,359.119,45.477 M360.846,42.861l-2.605,2.037l0,0l0,0L360.846,42.861L360.846,42.861"/><path fill="#393939" d="M360.846,42.861l-2.605,2.037c-0.142,0.461-0.225,0.947-0.237,1.449l1.117-0.873c0.251-1.059,0.88-1.97,1.731-2.595L360.846,42.861"/><path fill="#393939" d="M359.684,48.873l-0.795,0.622c0.184,0.28,0.392,0.543,0.62,0.785l0.799-0.625C360.072,49.419,359.862,49.157,359.684,48.873"/><path fill="#393939" d="M363.256,51.158l-0.918,0.718C362.713,51.957,363.102,52,363.5,52L363.256,51.158"/><polyline fill="#393939" points="360.846,42.861 358.239,44.898 358.239,44.898 360.846,42.861 "/><polyline fill="#666666" points="358.239,44.898 358.239,44.898 358.239,44.898 358.239,44.898 "/><path fill="#CBCBCB" d="M421.548,70.795l-0.52,1.688L421.548,70.795L421.548,70.795 M419.548,64.296l-0.522,1.699l1.478,4.8l0.522-1.7L419.548,64.296 M417.548,57.796l-0.522,1.7l1.478,4.799l0.522-1.699L417.548,57.796 M415.548,51.296l-0.522,1.7l1.478,4.8l0.522-1.7L415.548,51.296 M413.548,44.796l-0.522,1.7l1.478,4.8l0.522-1.7L413.548,44.796 M412.922,43.43l-0.421,1.365L412.922,43.43"/><path fill="#282828" d="M421.024,69.095l-0.522,1.7l0.298,0.969l0.226,0.731l0.004-0.015l0.52-1.687L421.024,69.095 M419.024,62.596l-0.522,1.699l0.522,1.7l0.522-1.699L419.024,62.596 M417.024,56.096l-0.522,1.7l0.522,1.7l0.522-1.7L417.024,56.096 M415.024,49.596l-0.522,1.7l0.522,1.7l0.522-1.7L415.024,49.596 M413.024,43.096l-0.104,0.334l-0.421,1.366l0.523,1.7l0.522-1.7L413.024,43.096"/><path fill="#D5D5D5" d="M422.072,69.091l-0.489,1.589L422.072,69.091L422.072,69.091 M420.072,62.592l-0.523,1.7l1.478,4.799l0.522-1.7L420.072,62.592 M418.072,56.092l-0.523,1.7l1.478,4.799l0.522-1.7L418.072,56.092 M416.072,49.592l-0.523,1.7l1.478,4.8l0.522-1.699L416.072,49.592 M414.072,43.092l-0.523,1.7l1.478,4.8l0.522-1.699L414.072,43.092 M413.379,41.943l-0.354,1.146L413.379,41.943"/><path fill="#2C2C2C" d="M421.549,67.391l-0.522,1.7l0.522,1.7l0.034-0.111l0.489-1.589L421.549,67.391 M419.549,60.891l-0.522,1.7l0.522,1.701l0.523-1.7L419.549,60.891 M417.549,54.393l-0.522,1.699l0.522,1.7l0.523-1.7L417.549,54.393 M415.549,47.893l-0.522,1.699l0.522,1.7l0.523-1.7L415.549,47.893 M413.549,41.393l-0.17,0.553l-0.354,1.146l0.522,1.7l0.523-1.7L413.549,41.393"/><path fill="#DFDFDF" d="M422.597,67.387l-0.522,1.7l0,0L422.597,67.387L422.597,67.387 M420.597,60.889l-0.522,1.699l1.477,4.799l0.523-1.699L420.597,60.889 M418.597,54.389l-0.522,1.699l1.477,4.799l0.523-1.699L418.597,54.389 M416.597,47.889l-0.522,1.699l1.477,4.801l0.523-1.701L416.597,47.889 M414.597,41.389l-0.522,1.699l1.477,4.801l0.523-1.701L414.597,41.389 M413.895,40.268l-0.345,1.119L413.895,40.268"/><path fill="#313131" d="M422.073,65.688l-0.523,1.699l0.523,1.7l0.522-1.7L422.073,65.688 M420.073,59.188l-0.523,1.699l0.523,1.701l0.522-1.699L420.073,59.188 M418.073,52.688l-0.523,1.701l0.523,1.699l0.522-1.699L418.073,52.688 M416.073,46.188l-0.523,1.701l0.523,1.699l0.522-1.699L416.073,46.188 M414.073,39.688l-0.18,0.58l-0.345,1.121l0.523,1.699l0.522-1.699L414.073,39.688"/><path fill="#E9E9E9" d="M423.123,65.675l-0.522,1.699v0.001L423.123,65.675 M421.123,59.176l-0.522,1.698l1.478,4.8l0.521-1.697L421.123,59.176 M419.123,52.676l-0.522,1.699l1.478,4.799l0.521-1.697L419.123,52.676 M417.123,46.176l-0.522,1.699l1.478,4.8l0.521-1.698L417.123,46.176 M415.123,39.676l-0.522,1.699l1.478,4.8l0.521-1.698L415.123,39.676 M414.6,37.975l-0.262,0.851L414.6,37.975L414.6,37.975"/><path fill="#353535" d="M422.6,63.977l-0.521,1.697l0.522,1.7l0.522-1.699L422.6,63.977 M420.6,57.477l-0.521,1.697l0.522,1.7l0.522-1.698L420.6,57.477 M418.6,50.977l-0.521,1.698l0.522,1.7l0.522-1.699L418.6,50.977 M416.6,44.477l-0.521,1.698l0.522,1.7l0.522-1.699L416.6,44.477 M414.6,37.976l-0.262,0.851l-0.261,0.849l0.522,1.7l0.522-1.699L414.6,37.976"/><path fill="#F3F3F3" d="M423.65,63.963l-0.523,1.7l0,0L423.65,63.963L423.65,63.963 M421.65,57.463l-0.523,1.7l1.477,4.8l0.523-1.699L421.65,57.463 M419.65,50.963l-0.523,1.7l1.477,4.8l0.523-1.699L419.65,50.963 M417.65,44.463l-0.523,1.7l1.477,4.801l0.523-1.7L417.65,44.463 M415.65,37.962l-0.523,1.701l1.477,4.8l0.523-1.699L415.65,37.962 M415.006,36.657l-0.402,1.305L415.006,36.657"/><path fill="#393939" d="M423.127,62.264l-0.523,1.699l0.523,1.7l0.523-1.7L423.127,62.264 M421.127,55.764l-0.523,1.699l0.523,1.7l0.523-1.7L421.127,55.764 M419.127,49.264l-0.523,1.7l0.523,1.699l0.523-1.7L419.127,49.264 M417.127,42.764l-0.523,1.699l0.523,1.7l0.523-1.7L417.127,42.764 M415.127,36.263l-0.121,0.395l-0.402,1.306l0.523,1.7l0.523-1.701L415.127,36.263"/><path fill="#CBCBCB" d="M453.548,70.795l-0.522,1.7L453.548,70.795L453.548,70.795 M451.548,64.296l-0.522,1.699l1.478,4.8l0.522-1.7L451.548,64.296 M449.548,57.796l-0.522,1.7l1.478,4.799l0.522-1.699L449.548,57.796 M447.548,51.296l-0.522,1.7l1.477,4.799l0.523-1.699L447.548,51.296 M445.548,44.796l-0.522,1.7l1.478,4.8l0.522-1.7L445.548,44.796 M444.922,43.43l-0.421,1.365L444.922,43.43"/><path fill="#282828" d="M453.024,69.095l-0.522,1.7l0.298,0.969l0.226,0.731l0.522-1.7L453.024,69.095 M451.024,62.596l-0.522,1.699l0.522,1.7l0.522-1.699L451.024,62.596 M449.024,56.096l-0.523,1.699l0.523,1.701l0.522-1.7L449.024,56.096 M447.024,49.596l-0.522,1.7l0.522,1.7l0.522-1.7L447.024,49.596 M445.024,43.096l-0.104,0.334l-0.421,1.366l0.523,1.7l0.522-1.7L445.024,43.096"/><path fill="#D5D5D5" d="M454.072,69.091l-0.503,1.636L454.072,69.091L454.072,69.091 M452.072,62.592l-0.523,1.7l1.478,4.799l0.522-1.7L452.072,62.592 M450.072,56.092l-0.523,1.7l1.478,4.799l0.522-1.7L450.072,56.092 M448.072,49.592l-0.523,1.7l1.478,4.8l0.522-1.699L448.072,49.592 M446.072,43.092l-0.523,1.7l1.478,4.8l0.522-1.699L446.072,43.092 M445.379,41.943l-0.354,1.146L445.379,41.943"/><path fill="#2C2C2C" d="M453.549,67.391l-0.522,1.7l0.522,1.7l0.021-0.064l0.503-1.636L453.549,67.391 M451.549,60.891l-0.522,1.7l0.522,1.701l0.523-1.7L451.549,60.891 M449.549,54.393l-0.522,1.699l0.522,1.7l0.523-1.7L449.549,54.393 M447.549,47.893l-0.522,1.699l0.522,1.7l0.523-1.7L447.549,47.893 M445.549,41.393l-0.17,0.553l-0.354,1.146l0.522,1.7l0.523-1.7L445.549,41.393"/><path fill="#DFDFDF" d="M454.597,67.387l-0.522,1.7l0,0L454.597,67.387L454.597,67.387 M452.597,60.889l-0.522,1.699l1.477,4.799l0.523-1.699L452.597,60.889 M450.597,54.389l-0.522,1.699l1.477,4.799l0.523-1.699L450.597,54.389 M448.597,47.889l-0.522,1.699l1.477,4.799l0.523-1.699L448.597,47.889 M446.597,41.389l-0.522,1.699l1.477,4.801l0.523-1.701L446.597,41.389 M445.895,40.268l-0.345,1.119L445.895,40.268"/><path fill="#313131" d="M454.073,65.688l-0.523,1.699l0.523,1.7l0.522-1.7L454.073,65.688 M452.073,59.188l-0.523,1.699l0.523,1.701l0.522-1.699L452.073,59.188 M450.073,52.688l-0.523,1.699l0.523,1.701l0.522-1.699L450.073,52.688 M448.073,46.188l-0.523,1.701l0.523,1.699l0.522-1.699L448.073,46.188 M446.073,39.688l-0.18,0.58l-0.345,1.121l0.523,1.699l0.522-1.699L446.073,39.688"/><path fill="#E9E9E9" d="M455.123,65.675l-0.522,1.699v0.001L455.123,65.675 M453.123,59.176l-0.522,1.698l1.478,4.8l0.521-1.697L453.123,59.176 M451.123,52.676l-0.522,1.699l1.478,4.799l0.521-1.697L451.123,52.676 M449.123,46.176l-0.522,1.699l1.478,4.799l0.521-1.697L449.123,46.176 M447.123,39.676l-0.522,1.699l1.478,4.8l0.521-1.698L447.123,39.676 M446.6,37.975l-0.308,1L446.6,37.975L446.6,37.975"/><path fill="#353535" d="M454.6,63.977l-0.521,1.697l0.522,1.7l0.522-1.699L454.6,63.977 M452.6,57.477l-0.521,1.697l0.522,1.7l0.522-1.698L452.6,57.477 M450.6,50.977l-0.521,1.697l0.522,1.701l0.522-1.699L450.6,50.977 M448.6,44.477l-0.521,1.698l0.522,1.7l0.522-1.699L448.6,44.477 M446.6,37.976l-0.308,1l-0.215,0.698l0.522,1.7l0.522-1.699L446.6,37.976"/><path fill="#F3F3F3" d="M455.65,63.962l-0.523,1.7v0.001l0.523-1.699V63.962 M453.65,57.463l-0.523,1.7l1.477,4.8l0.523-1.699L453.65,57.463 M451.65,50.963l-0.523,1.7l1.477,4.8l0.523-1.699L451.65,50.963 M449.65,44.463l-0.523,1.7l1.477,4.8l0.523-1.699L449.65,44.463 M447.65,37.963l-0.523,1.7l1.477,4.8l0.523-1.699L447.65,37.963 M447.006,36.657l-0.402,1.305L447.006,36.657"/><path fill="#393939" d="M455.127,62.264l-0.523,1.699l0.523,1.7l0.523-1.701L455.127,62.264 M453.127,55.764l-0.523,1.699l0.523,1.7l0.523-1.7L453.127,55.764 M451.127,49.264l-0.523,1.699l0.523,1.7l0.523-1.7L451.127,49.264 M449.127,42.764l-0.523,1.699l0.523,1.7l0.523-1.7L449.127,42.764 M447.127,36.263l-0.121,0.395l-0.402,1.306l0.523,1.7l0.523-1.7L447.127,36.263"/></svg>