<svg version="1.1" class="webfonts_hoefler" xmlns="http://www.w3.org/2000/svg" xmlns:xlink="http://www.w3.org/1999/xlink" x="0px" y="0px" width="194px" height="36px" viewBox="0 0 194 36" enable-background="new 0 0 194 36" xml:space="preserve"><g><g><g><path d="M57.209,33.081h2.229v-11.99h-2.229v-2.155h8.473v2.155h-2.205v4.657h6.367v-4.657h-2.23v-2.155h8.498v2.155h-2.229v11.99h2.229v2.155h-8.498v-2.155h2.23v-5.253h-6.367v5.253h2.205v2.155h-8.473V33.081z"/><path d="M76.26,29.489c0-3.593,2.7-6.119,6.292-6.119c3.692,0,6.243,2.428,6.243,5.995c0,3.593-2.676,6.119-6.267,6.119C78.837,35.484,76.26,33.081,76.26,29.489z M84.831,29.415c0-3.122-0.768-4.36-2.378-4.36c-1.561,0-2.23,1.264-2.23,4.385c0,3.146,0.793,4.359,2.378,4.359C84.188,33.799,84.831,32.536,84.831,29.415z"/><path d="M93.452,29.91c0.148,2.699,1.238,3.592,3.097,3.592c1.362,0,2.254-0.568,2.774-2.031h1.907c-0.445,2.428-2.082,4.014-5.327,4.014c-3.864,0-6.218-2.379-6.218-5.945c0-3.518,2.601-6.168,6.094-6.168c3.914,0,5.748,2.773,5.574,6.54L93.452,29.91L93.452,29.91z M93.477,28.35h4.335c-0.123-2.354-0.769-3.295-2.105-3.295C94.418,25.055,93.625,25.873,93.477,28.35z"/><path d="M120.7,29.91c0.147,2.699,1.235,3.592,3.096,3.592c1.362,0,2.254-0.568,2.772-2.031h1.908c-0.445,2.428-2.08,4.014-5.324,4.014c-3.866,0-6.221-2.379-6.221-5.945c0-3.518,2.604-6.168,6.096-6.168c3.914,0,5.746,2.773,5.574,6.54L120.7,29.91L120.7,29.91z M120.725,28.35h4.336c-0.125-2.354-0.771-3.295-2.106-3.295C121.665,25.055,120.873,25.873,120.725,28.35z"/><path d="M129.171,33.154h1.709v-7.456h-1.709v-2.081h5.103v2.999c0.694-2.157,2.033-3.222,3.617-3.222c1.438,0,2.354,1.063,2.354,2.278c0,1.238-0.843,2.132-1.933,2.132s-1.933-0.621-1.933-1.761c0-0.049,0.024-0.124,0.024-0.198c-0.645,0.051-1.486,0.795-1.907,2.231v5.077h2.155v2.08h-7.481V33.154L129.171,33.154z"/><path d="M157.559,25.625v2.081h-1.539c-0.816,1.485-1.808,2.873-2.848,3.963c0.842,1.164,1.213,1.437,1.809,1.437c0.621,0,0.965-0.371,1.338-1.535l1.361,0.422c-0.471,2.029-1.512,3.642-3.689,3.642c-1.486,0-2.33-0.495-3.543-2.006c-1.312,1.337-2.824,2.006-4.656,2.006c-3.271,0-5.18-1.883-5.18-4.31c0-2.379,1.685-3.617,3.815-4.436c-1.14-1.164-1.71-2.058-1.71-3.42c0-2.154,1.956-4.012,4.905-4.012c2.823,0,4.285,1.732,4.285,3.395c0,1.881-1.412,2.773-3.222,3.565c1.39,1.338,2.43,2.526,3.42,3.938c0.693-0.817,1.338-1.758,1.81-2.676h-1.709v-2.056L157.559,25.625L157.559,25.625z M149.432,32.461c-1.216-1.732-2.603-3.27-3.965-4.583c-0.816,0.646-1.265,1.513-1.265,2.749c0,1.637,1.041,2.727,2.75,2.727C147.77,33.354,148.587,33.081,149.432,32.461z M147.671,25.477c0.968-0.693,1.438-1.512,1.438-2.552c0-1.017-0.495-1.858-1.637-1.858c-0.865,0-1.533,0.619-1.533,1.535C145.939,23.52,146.48,24.286,147.671,25.477z"/><path d="M158.979,27.186c0-5.078,3.617-8.646,7.879-8.646c2.08,0,3.642,0.72,4.632,1.934l0.52-1.883h2.231v6.49h-2.454c-0.99-2.997-2.377-4.51-4.435-4.51c-2.328,0-3.963,1.711-3.963,6.367c0,4.459,1.709,6.367,4.51,6.367c2.451,0,3.863-1.859,4.285-4.582h2.401c-0.42,4.211-2.849,6.91-7.258,6.91C162.249,35.633,158.979,32.215,158.979,27.186z"/><path d="M175.452,29.489c0-3.593,2.7-6.119,6.291-6.119c3.69,0,6.243,2.428,6.243,5.995c0,3.593-2.676,6.119-6.268,6.119C178.027,35.484,175.452,33.081,175.452,29.489z M184.021,29.415c0-3.122-0.768-4.36-2.377-4.36c-1.561,0-2.229,1.264-2.229,4.385c0,3.146,0.793,4.359,2.377,4.359C183.38,33.799,184.021,32.536,184.021,29.415z"/><path d="M188.309,33.479c0-1.239,0.967-2.205,2.229-2.205c1.238,0,2.205,0.941,2.205,2.154c0,1.238-0.967,2.229-2.229,2.229C189.273,35.657,188.309,34.689,188.309,33.479z"/><path d="M101.999,33.154h1.685v-7.456h-2.105v-2.081h2.105v-0.1c0-3.814,2.688-5.55,5.733-5.55c0.952,0,1.86,0.194,2.502,0.484l3.082-0.547v15.25h1.883v2.08h-6.922v-2.08h1.486v-7.457h-4.212v7.457h1.486v2.08h-6.725L101.999,33.154L101.999,33.154z M107.15,23.617h4.298v-1.411c-1.041-0.024-1.734-0.595-1.734-1.687c0-0.347,0.123-0.791,0.322-1.016c-0.175-0.072-0.423-0.148-0.793-0.148c-1.238,0-2.093,0.621-2.093,3.443V23.617z"/></g><g><path d="M68.935,4.599l2.212,8.003h0.135l2.25-8.003h-1.597V2.944h4.906v1.674h-1.443L71.975,15.68h-2.981l-2.079-7.061l-2.54,7.061h-2.924L58.143,4.618h-1.597V2.944h6.464v1.654h-1.539l2.231,8.042h0.153l2.329-6.408l-0.481-1.634H64.28V2.944h6.31v1.654L68.935,4.599L68.935,4.599z"/><path d="M78.136,11.467c0.115,2.097,0.961,2.79,2.404,2.79c1.059,0,1.75-0.442,2.155-1.578h1.48c-0.346,1.886-1.616,3.115-4.136,3.115c-3.002,0-4.829-1.846-4.829-4.616c0-2.732,2.021-4.791,4.733-4.791c3.04,0,4.463,2.156,4.329,5.08H78.136z M78.155,10.254h3.367c-0.097-1.827-0.597-2.558-1.635-2.558C78.886,7.696,78.27,8.331,78.155,10.254z"/><path d="M85.642,3.964h-1.308V2.309h4.136V8.37c0.558-1.174,1.5-1.982,2.866-1.982c1.019,0,1.731,0.366,2.29,0.925c0.827,0.827,1.231,2.154,1.231,3.771c0,1.614-0.48,2.941-1.289,3.751c-0.596,0.615-1.443,0.96-2.405,0.96c-1.597,0-2.558-0.75-3.154-1.904l-0.885,1.847h-1.481L85.642,3.964L85.642,3.964z M91.836,11.12c0-1.924-0.5-2.943-1.616-2.943c-1.232,0-1.925,1.347-1.925,3.077c0,1.771,0.712,2.964,1.925,2.964C91.336,14.218,91.836,13.159,91.836,11.12z"/><path d="M95.552,13.986h1.309v-5.79h-1.636V6.581h1.636v-0.27c0-2.77,2.02-4.116,4.271-4.116c1.943,0,2.81,0.788,2.81,1.865c0,0.789-0.578,1.423-1.424,1.423c-0.828,0-1.404-0.461-1.404-1.326c0-0.27,0.115-0.596,0.289-0.77c-0.116-0.059-0.289-0.116-0.481-0.116c-0.808,0-1.364,0.521-1.364,2.328v0.982h2.711v1.615h-2.576v5.79h1.904v1.617h-6.042v-1.617H95.552z"/><path d="M131.773,12.465h1.599c0.788,1.213,1.659,2.019,2.756,2.019c0.81,0,1.174-0.345,1.174-0.902c0-0.693-0.5-0.963-2.288-1.424c-2.156-0.559-3.291-1.251-3.291-2.867c0-1.577,1.27-2.906,3.271-2.906c1.174,0,1.962,0.441,2.521,1.116l0.366-1.078h1.502v3.079h-1.6c-0.692-1.076-1.499-1.828-2.462-1.828c-0.752,0-1.137,0.348-1.137,0.865c0,0.655,0.521,0.905,2.233,1.348c1.963,0.52,3.368,1.155,3.368,2.945c0,1.559-1.215,2.963-3.408,2.963c-1.404,0-2.18-0.577-2.756-1.232l-0.367,1.039h-1.48V12.465L131.773,12.465z"/><path d="M102.323,11.137c0-2.79,2.099-4.753,4.889-4.753c2.867,0,4.851,1.887,4.851,4.657c0,2.79-2.078,4.753-4.869,4.753C104.325,15.794,102.323,13.926,102.323,11.137z M108.982,11.078c0-2.424-0.598-3.387-1.85-3.387c-1.212,0-1.73,0.981-1.73,3.407c0,2.444,0.615,3.385,1.849,3.385C108.482,14.483,108.982,13.503,108.982,11.078z"/><path d="M112.677,13.984h1.328V8.192h-1.328V6.577h3.964v2.365c0.637-1.499,1.617-2.54,3.271-2.54c1.943,0,2.753,1.311,2.753,3.177v4.405h1.289V15.6h-5.14v-1.616h1.021V9.963c0-0.615-0.115-1.077-0.404-1.366c-0.211-0.193-0.5-0.308-0.886-0.308c-0.903,0-1.731,0.904-1.731,2.193v3.502h1.002V15.6h-5.14V13.984z"/><path d="M128.053,4.247v2.33h2.997v1.615h-2.997v4.541c0,0.829,0.288,1.29,0.942,1.29c0.575,0,0.866-0.461,1.104-1.605l1.154,0.326c-0.335,2.107-1.277,3.05-3.088,3.05c-1.962,0-2.924-1.021-2.924-3.079V8.192h-1.598V6.577h1.654V4.574L128.053,4.247z"/><path d="M143.134,3.959h-1.309V2.303h4.137v6.063c0.558-1.175,1.502-1.982,2.867-1.982c1.021,0,1.731,0.365,2.291,0.924c0.828,0.828,1.229,2.155,1.229,3.771c0,1.617-0.479,2.945-1.289,3.754c-0.596,0.615-1.442,0.962-2.406,0.962c-1.596,0-2.559-0.751-3.153-1.905l-0.886,1.847h-1.481V3.959L143.134,3.959z M149.329,11.118c0-1.925-0.5-2.944-1.616-2.944c-1.23,0-1.924,1.346-1.924,3.077c0,1.771,0.712,2.966,1.924,2.966C148.829,14.217,149.329,13.156,149.329,11.118z"/><path d="M155.564,16.853c0,0.25-0.078,0.52-0.174,0.712c0.789-0.095,1.271-0.462,1.828-1.81c-1.059-2.212-3.617-7.562-3.617-7.562h-1.194V6.577h5.641v1.615h-1.366l2.021,4.715l1.829-4.715h-1.155V6.577h3.944v1.615h-1.098l-3.078,7.159c-0.924,2.175-1.944,3.599-4.041,3.599c-1.637,0-2.482-0.847-2.482-2.002c0-0.903,0.596-1.617,1.48-1.617C155.082,15.331,155.564,16.103,155.564,16.853z"/></g></g><g><g><g><g><g><g><path d="M49.974,24.902c-1.59,0-2.981-0.848-3.744-2.17c-1.345,0.742-2.676,1.892-4.031,3.607c2.208,2.567,3.699,3.608,5.383,3.608c1.797,0,4.084-1.438,4.931-5.923C51.806,24.575,50.93,24.902,49.974,24.902z"/><path d="M32.865,9.596c-1.381,0-2.366,1.118-2.366,2.573c0,1.962,1.329,3.227,3.297,5.113c0.99-1.455,1.567-2.926,1.567-4.328C35.363,10.96,34.321,9.596,32.865,9.596z"/><path d="M36.146,19.604c1.371,1.41,2.47,2.67,3.53,3.974c1.711-2.849,2.114-4.89,0.105-6.905C38.992,17.559,37.813,18.478,36.146,19.604z"/><path d="M19.13,27.725c0-3.656,2.5-6.373,7.099-7.953c-1.783-1.935-2.674-3.461-2.674-5.987c0-3.744,3.678-7.365,9.486-7.365c5.338,0,8.226,3.371,8.226,6.425c0,1.114-0.221,2.042-0.811,2.961c2.378-0.13,4.118,0.875,4.261,3.163c1.447-2.092,3.098-3.259,5.257-3.259c0.276,0,0.532,0.02,0.793,0.071c-1.719-2.568-4.469-4.529-7.982-5.488C41.942,4.136,37.184,0,31.237,0c-4.98,0-9.343,2.947-11.269,7.199c-0.788-0.215-1.616-0.361-2.465-0.361c-4.75,0-8.663,3.602-9.147,8.222C3.624,15.827,0,20.119,0,25.077c0,5.511,4.528,10.159,10.556,10.159h14.647C21.654,34.107,19.13,31.236,19.13,27.725z"/><path d="M37.665,31.838c-1.54,1.691-3.282,2.799-5.274,3.398h9.694C40.712,34.689,39.35,33.635,37.665,31.838z"/><path d="M31.757,30.316c1.32,0,2.313-0.319,3.289-1.096c-2.426-3.022-4.902-5.58-6.465-7.134c-0.912,1.006-1.383,2.181-1.383,3.532C27.198,28.283,29.109,30.316,31.757,30.316z"/></g></g></g></g></g></g></g></svg>