<svg xmlns="http://www.w3.org/2000/svg" viewBox="0 0 780.71 250.92"><defs><style>.cls-1{fill:#fff;}</style></defs><title>8-Adidas Tango League</title><g id="Layer_2" data-name="Layer 2"><g id="Layer_1-2" data-name="Layer 1"><rect class="cls-1" x="2.93" width="144.78" height="16.03"/><path class="cls-1" d="M7.31,37.17H19.15L24.7,82H16.82l-1.2-10H9L7.88,82H1Zm5.23,6.93h-.13L9.83,65.52h5.1Z"/><path class="cls-1" d="M26.87,37.17H34a17.36,17.36,0,0,1,8.16,1.61,10.74,10.74,0,0,1,4.54,4.54,19.1,19.1,0,0,1,2,7.06Q49,54.5,49,59.6q0,4.85-.38,9A21.59,21.59,0,0,1,46.9,75.7a10.48,10.48,0,0,1-4.13,4.66A14.3,14.3,0,0,1,35.31,82H26.87ZM35.06,75.1a6.9,6.9,0,0,0,3-.54,3.46,3.46,0,0,0,1.61-2.17,18.35,18.35,0,0,0,.66-4.69q.13-3.06.13-8.16t-.13-8.13a17.78,17.78,0,0,0-.66-4.63,3.45,3.45,0,0,0-1.61-2.14,6.91,6.91,0,0,0-3-.54Z"/><path class="cls-1" d="M52.48,37.17h8.19V82H52.48Z"/><path class="cls-1" d="M64.84,37.17H72a17.36,17.36,0,0,1,8.16,1.61,10.75,10.75,0,0,1,4.54,4.54,19.14,19.14,0,0,1,2,7.06Q87,54.5,87,59.6q0,4.85-.38,9a21.61,21.61,0,0,1-1.76,7.12,10.49,10.49,0,0,1-4.13,4.66A14.31,14.31,0,0,1,73.29,82H64.84ZM73,75.1a6.9,6.9,0,0,0,3-.54,3.46,3.46,0,0,0,1.61-2.17,18.38,18.38,0,0,0,.66-4.69q.13-3.06.13-8.16t-.12-8.13a17.82,17.82,0,0,0-.66-4.63,3.45,3.45,0,0,0-1.61-2.14,6.91,6.91,0,0,0-3-.54Z"/><path class="cls-1" d="M94.11,37.17H106L111.49,82h-7.87l-1.2-10H95.81L94.67,82H87.81Zm5.23,6.93h-.13L96.63,65.52h5.1Z"/><path class="cls-1" d="M119.54,69.05q0,.94.06,2.14a9.78,9.78,0,0,0,.38,2.27,4.14,4.14,0,0,0,1,1.8,2.77,2.77,0,0,0,2,.72,3.29,3.29,0,0,0,1.7-.41,3.47,3.47,0,0,0,1.13-1.07,4.57,4.57,0,0,0,.63-1.42,6,6,0,0,0,.19-1.45,6.12,6.12,0,0,0-1.1-3.59,17.43,17.43,0,0,0-2.74-3q-1.64-1.45-3.59-3a24.92,24.92,0,0,1-3.59-3.4A17.5,17.5,0,0,1,113,54.31a14.05,14.05,0,0,1-1.1-5.8,16,16,0,0,1,.69-4.76,11.52,11.52,0,0,1,2-3.87,9.72,9.72,0,0,1,3.31-2.61,11.37,11.37,0,0,1,9.29,0,8.55,8.55,0,0,1,3.18,2.8,12.83,12.83,0,0,1,1.83,4.32,26.3,26.3,0,0,1,.66,5.54h-7.31c0-.63,0-1.33-.06-2.11a10.44,10.44,0,0,0-.35-2.21,3.84,3.84,0,0,0-1-1.73,2.56,2.56,0,0,0-1.89-.69A2.64,2.64,0,0,0,120,44.36a4.94,4.94,0,0,0-.82,3,5.91,5.91,0,0,0,1.1,3.46A18.2,18.2,0,0,0,123,53.84q1.64,1.48,3.59,3.06a26.06,26.06,0,0,1,3.59,3.53,18.86,18.86,0,0,1,2.74,4.41,13.91,13.91,0,0,1,1.1,5.73,15.56,15.56,0,0,1-.72,4.82,11.37,11.37,0,0,1-2.14,3.91,10.12,10.12,0,0,1-3.53,2.65,11.51,11.51,0,0,1-4.88,1,9.84,9.84,0,0,1-5.32-1.29,9.46,9.46,0,0,1-3.21-3.31,13.16,13.16,0,0,1-1.58-4.47,29,29,0,0,1-.41-4.79Z"/><path class="cls-1" d="M7.05,107.1H0v-6.93H22.3v6.93H15.25V145H7.05Z"/><path class="cls-1" d="M26.44,100.17H38.29L43.83,145H36l-1.2-10H28.14L27,145H20.14Zm5.23,6.93h-.13L29,128.52h5.1Z"/><path class="cls-1" d="M45.86,100.17h8l7.5,23.69h.13V100.17H68V145H61.67l-8.76-27.15h-.13V145H45.86Z"/><path class="cls-1" d="M86.29,116.18q0-.76,0-2.43a19.79,19.79,0,0,0-.22-3.34,9.83,9.83,0,0,0-.88-2.93,2.06,2.06,0,0,0-2-1.26,2.22,2.22,0,0,0-1.42.54A4.45,4.45,0,0,0,80.71,109a27.44,27.44,0,0,0-.72,4.91q-.25,3.21-.25,8.63t.25,8.79a25.28,25.28,0,0,0,.76,4.95A4.07,4.07,0,0,0,82,138.48a2.85,2.85,0,0,0,1.67.5,2.12,2.12,0,0,0,1.83-1,6.9,6.9,0,0,0,1-2.36,17.41,17.41,0,0,0,.41-2.74q.1-1.38.09-2.21H84v-6.55h10V145H90.45l-1.13-3a9.85,9.85,0,0,1-2.65,2.65,6.52,6.52,0,0,1-3.84,1.2,9.34,9.34,0,0,1-5.51-1.58,10.91,10.91,0,0,1-3.59-4.57,26.61,26.61,0,0,1-2-7.31,72.37,72.37,0,0,1-.6-9.86,55,55,0,0,1,.91-10.87,24.86,24.86,0,0,1,2.49-7.21,10.41,10.41,0,0,1,3.69-4,8.93,8.93,0,0,1,4.57-1.23,14,14,0,0,1,3.91.57A7.88,7.88,0,0,1,90.2,102a11.3,11.3,0,0,1,2.46,4.28,21.92,21.92,0,0,1,.95,7v2.9Z"/><path class="cls-1" d="M96.22,122.6a60.77,60.77,0,0,1,.85-11.09,23,23,0,0,1,2.43-7.18,9.74,9.74,0,0,1,3.78-3.87,10.94,10.94,0,0,1,9.83,0,9.76,9.76,0,0,1,3.78,3.87,23,23,0,0,1,2.43,7.18,60.77,60.77,0,0,1,.85,11.09,60.77,60.77,0,0,1-.85,11.09,22.94,22.94,0,0,1-2.43,7.18,9.75,9.75,0,0,1-3.78,3.88,10.95,10.95,0,0,1-9.83,0,9.73,9.73,0,0,1-3.78-3.87,22.94,22.94,0,0,1-2.43-7.18A60.77,60.77,0,0,1,96.22,122.6Zm8.95,4.72q0,3.65.22,5.92a20.16,20.16,0,0,0,.6,3.56,3.37,3.37,0,0,0,.95,1.73,2,2,0,0,0,2.52,0,3.38,3.38,0,0,0,.94-1.73,20.35,20.35,0,0,0,.6-3.56q.22-2.27.22-5.92v-9.45q0-3.65-.22-5.92a19.57,19.57,0,0,0-.6-3.53,3.59,3.59,0,0,0-.94-1.73,1.92,1.92,0,0,0-2.52,0,3.58,3.58,0,0,0-.95,1.73,19.4,19.4,0,0,0-.6,3.53q-.22,2.27-.22,5.92Z"/><path class="cls-1" d="M136.48,100.17h8.19V138.1h10.46V145H136.48Z"/><path class="cls-1" d="M157.53,100.17h18.52v6.93H165.72v11.47h7.62v7.31h-7.62V138.1H176.5V145h-19Z"/><path class="cls-1" d="M184,100.17h11.84L201.41,145h-7.87l-1.2-10h-6.62l-1.13,10h-6.87Zm5.23,6.93h-.13l-2.58,21.42h5.1Z"/><path class="cls-1" d="M217.29,116.18q0-.76,0-2.43a20,20,0,0,0-.22-3.34,9.81,9.81,0,0,0-.88-2.93,2.06,2.06,0,0,0-2-1.26,2.22,2.22,0,0,0-1.42.54,4.45,4.45,0,0,0-1.13,2.24,27.44,27.44,0,0,0-.72,4.91q-.25,3.21-.25,8.63t.25,8.79a25.28,25.28,0,0,0,.76,4.95,4.06,4.06,0,0,0,1.23,2.21,2.85,2.85,0,0,0,1.67.5,2.12,2.12,0,0,0,1.83-1,6.89,6.89,0,0,0,1-2.36,17.3,17.3,0,0,0,.41-2.74q.09-1.38.09-2.21h-3v-6.55h10V145h-3.46l-1.13-3a9.86,9.86,0,0,1-2.65,2.65,6.52,6.52,0,0,1-3.84,1.2,9.33,9.33,0,0,1-5.51-1.58,10.91,10.91,0,0,1-3.59-4.57,26.68,26.68,0,0,1-2-7.31,72.53,72.53,0,0,1-.6-9.86,54.94,54.94,0,0,1,.91-10.87,24.8,24.8,0,0,1,2.49-7.21,10.39,10.39,0,0,1,3.69-4,8.92,8.92,0,0,1,4.57-1.23,14,14,0,0,1,3.91.57,7.88,7.88,0,0,1,3.46,2.11,11.29,11.29,0,0,1,2.46,4.28,21.9,21.9,0,0,1,.95,7v2.9Z"/><path class="cls-1" d="M228.22,100.17h8.19v34.71a11.35,11.35,0,0,0,.1,1.48,3.88,3.88,0,0,0,.41,1.32,2.38,2.38,0,0,0,.88.95,2.74,2.74,0,0,0,1.45.35,2.44,2.44,0,0,0,2.36-1.23,6,6,0,0,0,.66-2.87V100.17h6.93v33.64q0,6.62-2.77,9.36a10.46,10.46,0,0,1-7.69,2.74,13.22,13.22,0,0,1-4.32-.66,8.35,8.35,0,0,1-3.31-2.08,9.42,9.42,0,0,1-2.14-3.72,18.23,18.23,0,0,1-.76-5.64Z"/><path class="cls-1" d="M253.33,100.17h18.52v6.93H261.52v11.47h7.62v7.31h-7.62V138.1h10.77V145h-19Z"/><path class="cls-1" d="M2.53,175.17H7.47V198h6.31v4.18H2.53Z"/><path class="cls-1" d="M18.6,175.17h7.14l3.34,27.06H24.34l-.72-6h-4l-.68,6H14.8Zm3.15,4.18h-.08l-1.56,12.92H23.2Z"/><path class="cls-1" d="M30.29,175.17h4.94V196.1a6.89,6.89,0,0,0,.06.89,2.32,2.32,0,0,0,.25.8,1.43,1.43,0,0,0,.53.57,1.65,1.65,0,0,0,.87.21,1.48,1.48,0,0,0,1.43-.74,3.6,3.6,0,0,0,.4-1.73V175.17h4.18v20.29q0,4-1.67,5.64a6.31,6.31,0,0,1-4.64,1.65,7.94,7.94,0,0,1-2.6-.4,5,5,0,0,1-2-1.25,5.69,5.69,0,0,1-1.29-2.24,11,11,0,0,1-.46-3.4Z"/><path class="cls-1" d="M45.57,175.17h4.83l4.52,14.29H55V175.17h4v27.06H55.11l-5.28-16.38h-.08v16.38H45.57Z"/><path class="cls-1" d="M70.05,185a17.91,17.91,0,0,0-.44-4.77q-.44-1.39-1.35-1.39a1.39,1.39,0,0,0-.76.25,2.22,2.22,0,0,0-.67,1.24,16.78,16.78,0,0,0-.46,3q-.17,2-.17,5.43t.11,5.3a20.18,20.18,0,0,0,.34,3,2.19,2.19,0,0,0,.63,1.31,1.63,1.63,0,0,0,1,.28q1.21,0,1.61-1.73a24.64,24.64,0,0,0,.48-4.69l4.18.19a35.56,35.56,0,0,1-.19,3.63,10.64,10.64,0,0,1-.87,3.34,6.36,6.36,0,0,1-2,2.47,5.55,5.55,0,0,1-3.44,1,5.63,5.63,0,0,1-3.32-1,6.59,6.59,0,0,1-2.17-2.75,16.07,16.07,0,0,1-1.18-4.41,43.6,43.6,0,0,1-.36-5.95,33.16,33.16,0,0,1,.55-6.55,15,15,0,0,1,1.5-4.35,6.27,6.27,0,0,1,2.22-2.41,5.38,5.38,0,0,1,2.75-.74,5.83,5.83,0,0,1,3.4.89,5.74,5.74,0,0,1,1.94,2.34,10.37,10.37,0,0,1,.86,3.27,35.75,35.75,0,0,1,.19,3.69Z"/><path class="cls-1" d="M76.74,175.17h4.94V186H84.8V175.17h4.94v27.06H84.8V190.75H81.68v11.48H76.74Z"/><path class="cls-1" d="M100.3,175.17h11.17v4.18h-6.23v6.92h4.6v4.41h-4.6V198h6.5v4.18H100.3Z"/><path class="cls-1" d="M112.49,175.17h4.83l2.32,19h.08l2.54-19h4l-4.07,27.06h-5.66Z"/><path class="cls-1" d="M127.74,175.17h11.17v4.18h-6.23v6.92h4.6v4.41h-4.6V198h6.5v4.18H127.74Z"/><path class="cls-1" d="M140.67,175.17h4.83L150,189.46h.08V175.17h4v27.06h-3.84l-5.28-16.38h-.08v16.38h-4.18Z"/><path class="cls-1" d="M159.45,179.35H155.2v-4.18h13.45v4.18h-4.26v22.88h-4.94Z"/><path class="cls-1" d="M176.51,188.69A36.55,36.55,0,0,1,177,182a13.81,13.81,0,0,1,1.46-4.33,5.87,5.87,0,0,1,2.28-2.34,6.6,6.6,0,0,1,5.93,0,5.87,5.87,0,0,1,2.28,2.34,13.84,13.84,0,0,1,1.46,4.33,43.8,43.8,0,0,1,0,13.38,13.83,13.83,0,0,1-1.46,4.33,5.87,5.87,0,0,1-2.28,2.34,6.6,6.6,0,0,1-5.93,0,5.87,5.87,0,0,1-2.28-2.34,13.8,13.8,0,0,1-1.46-4.33A36.56,36.56,0,0,1,176.51,188.69Zm5.4,2.85q0,2.2.13,3.57a12.18,12.18,0,0,0,.36,2.15,2,2,0,0,0,.57,1,1.22,1.22,0,0,0,1.52,0,2,2,0,0,0,.57-1,12.18,12.18,0,0,0,.36-2.15q.13-1.37.13-3.57v-5.7q0-2.2-.13-3.57a11.71,11.71,0,0,0-.36-2.13,2.16,2.16,0,0,0-.57-1,1.16,1.16,0,0,0-1.52,0,2.16,2.16,0,0,0-.57,1,11.71,11.71,0,0,0-.36,2.13q-.13,1.37-.13,3.57Z"/><path class="cls-1" d="M193.1,175.17h11.06v4.18H198v7.22h4.52V191H198v11.25H193.1Z"/><path class="cls-1" d="M215.41,179.35h-4.26v-4.18H224.6v4.18h-4.26v22.88h-4.94Z"/><path class="cls-1" d="M225.82,175.17h4.94V186h3.12V175.17h4.94v27.06h-4.94V190.75h-3.12v11.48h-4.94Z"/><path class="cls-1" d="M241.62,175.17h11.17v4.18h-6.23v6.92h4.6v4.41h-4.6V198h6.5v4.18H241.62Z"/><path class="cls-1" d="M264.65,179.35h-4.26v-4.18h13.45v4.18h-4.26v22.88h-4.94Z"/><path class="cls-1" d="M276.58,175.17h7.14l3.34,27.06h-4.75l-.72-6h-4l-.68,6h-4.14Zm3.15,4.18h-.08l-1.56,12.92h3.08Z"/><path class="cls-1" d="M288.51,175.17h4.83l4.52,14.29h.08V175.17h4v27.06H298l-5.28-16.38h-.08v16.38h-4.18Z"/><path class="cls-1" d="M313.11,184.82q0-.46,0-1.46a11.94,11.94,0,0,0-.13-2,5.94,5.94,0,0,0-.53-1.77,1.25,1.25,0,0,0-1.18-.76,1.34,1.34,0,0,0-.86.32,2.69,2.69,0,0,0-.68,1.35,16.61,16.61,0,0,0-.44,3q-.15,1.94-.15,5.21t.15,5.3a15.31,15.31,0,0,0,.46,3,2.45,2.45,0,0,0,.74,1.33,1.72,1.72,0,0,0,1,.3,1.28,1.28,0,0,0,1.1-.61,4.17,4.17,0,0,0,.61-1.42,10.39,10.39,0,0,0,.25-1.65q.06-.83.06-1.33h-1.82v-4h6v12.62h-2.09l-.68-1.79a6,6,0,0,1-1.6,1.6,3.93,3.93,0,0,1-2.32.72,5.63,5.63,0,0,1-3.33-1,6.6,6.6,0,0,1-2.17-2.75,16.07,16.07,0,0,1-1.18-4.41,43.76,43.76,0,0,1-.36-5.95,33.16,33.16,0,0,1,.55-6.55,15,15,0,0,1,1.5-4.35,6.26,6.26,0,0,1,2.22-2.41,5.38,5.38,0,0,1,2.75-.74,8.43,8.43,0,0,1,2.36.34,4.75,4.75,0,0,1,2.09,1.27,6.83,6.83,0,0,1,1.48,2.58,13.25,13.25,0,0,1,.57,4.24v1.75Z"/><path class="cls-1" d="M319.32,188.69a36.55,36.55,0,0,1,.51-6.69,13.81,13.81,0,0,1,1.46-4.33,5.87,5.87,0,0,1,2.28-2.34,6.6,6.6,0,0,1,5.93,0,5.87,5.87,0,0,1,2.28,2.34,13.84,13.84,0,0,1,1.46,4.33,43.8,43.8,0,0,1,0,13.38,13.83,13.83,0,0,1-1.46,4.33,5.87,5.87,0,0,1-2.28,2.34,6.6,6.6,0,0,1-5.93,0,5.87,5.87,0,0,1-2.28-2.34,13.8,13.8,0,0,1-1.46-4.33A36.56,36.56,0,0,1,319.32,188.69Zm5.4,2.85q0,2.2.13,3.57a12.18,12.18,0,0,0,.36,2.15,2,2,0,0,0,.57,1,1.22,1.22,0,0,0,1.52,0,2,2,0,0,0,.57-1,12.18,12.18,0,0,0,.36-2.15q.13-1.37.13-3.57v-5.7q0-2.2-.13-3.57a11.71,11.71,0,0,0-.36-2.13,2.16,2.16,0,0,0-.57-1,1.16,1.16,0,0,0-1.52,0,2.16,2.16,0,0,0-.57,1,11.71,11.71,0,0,0-.36,2.13q-.13,1.37-.13,3.57Z"/><path class="cls-1" d="M343.6,175.17h4.94V198h6.31v4.18H343.6Z"/><path class="cls-1" d="M356.52,175.17h11.17v4.18h-6.23v6.92h4.6v4.41h-4.6V198H368v4.18H356.52Z"/><path class="cls-1" d="M372.69,175.17h7.14l3.34,27.06h-4.75l-.72-6h-4l-.68,6h-4.14Zm3.15,4.18h-.08l-1.56,12.92h3.08Z"/><path class="cls-1" d="M393,184.82q0-.46,0-1.46a12.14,12.14,0,0,0-.13-2,5.94,5.94,0,0,0-.53-1.77,1.24,1.24,0,0,0-1.18-.76,1.34,1.34,0,0,0-.85.32,2.68,2.68,0,0,0-.68,1.35,16.62,16.62,0,0,0-.44,3q-.15,1.94-.15,5.21t.15,5.3a15.24,15.24,0,0,0,.46,3,2.45,2.45,0,0,0,.74,1.33,1.72,1.72,0,0,0,1,.3,1.28,1.28,0,0,0,1.1-.61,4.14,4.14,0,0,0,.61-1.42,10.51,10.51,0,0,0,.25-1.65q.06-.83.06-1.33h-1.82v-4h6v12.62h-2.09l-.68-1.79a6,6,0,0,1-1.6,1.6,3.93,3.93,0,0,1-2.32.72,5.63,5.63,0,0,1-3.32-1,6.57,6.57,0,0,1-2.17-2.75,16.11,16.11,0,0,1-1.18-4.41,43.61,43.61,0,0,1-.36-5.95,33.16,33.16,0,0,1,.55-6.55,15,15,0,0,1,1.5-4.35,6.28,6.28,0,0,1,2.22-2.41,5.38,5.38,0,0,1,2.75-.74,8.43,8.43,0,0,1,2.36.34,4.75,4.75,0,0,1,2.09,1.27,6.79,6.79,0,0,1,1.48,2.58,13.19,13.19,0,0,1,.57,4.24v1.75Z"/><path class="cls-1" d="M399.79,175.17h4.94V196.1a7.07,7.07,0,0,0,.06.89,2.35,2.35,0,0,0,.25.8,1.42,1.42,0,0,0,.53.57,1.65,1.65,0,0,0,.87.21,1.47,1.47,0,0,0,1.42-.74,3.6,3.6,0,0,0,.4-1.73V175.17h4.18v20.29q0,4-1.67,5.64a6.31,6.31,0,0,1-4.64,1.65,8,8,0,0,1-2.6-.4,5,5,0,0,1-2-1.25,5.69,5.69,0,0,1-1.29-2.24,11,11,0,0,1-.46-3.4Z"/><path class="cls-1" d="M415.16,175.17h11.17v4.18H420.1v6.92h4.6v4.41h-4.6V198h6.5v4.18H415.16Z"/><path class="cls-1" d="M435.71,175.17h4.94v27.06h-4.94Z"/><path class="cls-1" d="M443.3,175.17h4.83l4.52,14.29h.08V175.17h4v27.06h-3.84l-5.28-16.38h-.08v16.38H443.3Z"/><path class="cls-1" d="M469.33,179.35h-4.26v-4.18h13.45v4.18h-4.26v22.88h-4.94Z"/><path class="cls-1" d="M479.74,175.17h4.94V186h3.12V175.17h4.94v27.06h-4.94V190.75h-3.12v11.48h-4.94Z"/><path class="cls-1" d="M495.54,175.17h11.17v4.18h-6.23v6.92h4.6v4.41h-4.6V198H507v4.18H495.54Z"/><path class="cls-1" d="M516.29,175.17h5.55a12,12,0,0,1,3.19.4,5.82,5.82,0,0,1,4.07,3.69,9.93,9.93,0,0,1,.57,3.59,13.13,13.13,0,0,1-.13,1.82,8.72,8.72,0,0,1-.48,1.86,7,7,0,0,1-.89,1.67,4.54,4.54,0,0,1-1.39,1.25l2.93,12.77h-5l-2.32-11.63h-1.18v11.63h-4.94Zm4.94,11.48h1a2,2,0,0,0,1.16-.32,2.6,2.6,0,0,0,.78-.84,3.72,3.72,0,0,0,.44-1.2,7.34,7.34,0,0,0,.13-1.41,4.42,4.42,0,0,0-.74-3,2.63,2.63,0,0,0-2-.78h-.76Z"/><path class="cls-1" d="M531.58,175.17h11.17v4.18h-6.23v6.92h4.6v4.41h-4.6V198H543v4.18H531.58Z"/><path class="cls-1" d="M552.86,184.82q0-.46,0-1.46a11.93,11.93,0,0,0-.13-2,6,6,0,0,0-.53-1.77,1.25,1.25,0,0,0-1.18-.76,1.34,1.34,0,0,0-.85.32,2.68,2.68,0,0,0-.68,1.35,16.53,16.53,0,0,0-.44,3q-.15,1.94-.15,5.21t.15,5.3a15.25,15.25,0,0,0,.46,3,2.45,2.45,0,0,0,.74,1.33,1.71,1.71,0,0,0,1,.3,1.28,1.28,0,0,0,1.1-.61,4.15,4.15,0,0,0,.61-1.42,10.39,10.39,0,0,0,.25-1.65q.06-.83.06-1.33h-1.82v-4h6v12.62h-2.09l-.68-1.79a5.94,5.94,0,0,1-1.6,1.6,3.93,3.93,0,0,1-2.32.72,5.63,5.63,0,0,1-3.32-1,6.59,6.59,0,0,1-2.17-2.75,16.07,16.07,0,0,1-1.18-4.41,43.6,43.6,0,0,1-.36-5.95,33.16,33.16,0,0,1,.55-6.55,15,15,0,0,1,1.5-4.35,6.27,6.27,0,0,1,2.22-2.41,5.38,5.38,0,0,1,2.75-.74,8.43,8.43,0,0,1,2.36.34,4.75,4.75,0,0,1,2.09,1.27,6.81,6.81,0,0,1,1.48,2.58,13.22,13.22,0,0,1,.57,4.24v1.75Z"/><path class="cls-1" d="M559.76,175.17h4.94v27.06h-4.94Z"/><path class="cls-1" d="M566.83,188.69a36.62,36.62,0,0,1,.51-6.69,13.81,13.81,0,0,1,1.46-4.33,5.87,5.87,0,0,1,2.28-2.34,6.6,6.6,0,0,1,5.93,0,5.89,5.89,0,0,1,2.28,2.34,13.84,13.84,0,0,1,1.46,4.33,43.88,43.88,0,0,1,0,13.38,13.83,13.83,0,0,1-1.46,4.33,5.89,5.89,0,0,1-2.28,2.34,6.6,6.6,0,0,1-5.93,0,5.87,5.87,0,0,1-2.28-2.34,13.8,13.8,0,0,1-1.46-4.33A36.64,36.64,0,0,1,566.83,188.69Zm5.4,2.85q0,2.2.13,3.57a12.18,12.18,0,0,0,.36,2.15,2,2,0,0,0,.57,1,1.22,1.22,0,0,0,1.52,0,2,2,0,0,0,.57-1,12.27,12.27,0,0,0,.36-2.15q.13-1.37.13-3.57v-5.7q0-2.2-.13-3.57a11.8,11.8,0,0,0-.36-2.13,2.16,2.16,0,0,0-.57-1,1.15,1.15,0,0,0-1.52,0,2.16,2.16,0,0,0-.57,1,11.71,11.71,0,0,0-.36,2.13q-.13,1.37-.13,3.57Z"/><path class="cls-1" d="M583.32,175.17h4.83l4.52,14.29h.08V175.17h4v27.06h-3.84l-5.28-16.38h-.08v16.38h-4.18Z"/><path class="cls-1" d="M599.24,197.28h4.94v4.94h-4.94Z"/><path class="cls-1" d="M2.53,218.17H13.59v4.18H7.47v7.22H12V234H7.47v11.25H2.53Z"/><path class="cls-1" d="M14.11,231.69a36.63,36.63,0,0,1,.51-6.69,13.84,13.84,0,0,1,1.46-4.33,5.87,5.87,0,0,1,2.28-2.34,6.6,6.6,0,0,1,5.93,0,5.88,5.88,0,0,1,2.28,2.34A13.84,13.84,0,0,1,28,225a36.62,36.62,0,0,1,.51,6.69,36.64,36.64,0,0,1-.51,6.69,13.83,13.83,0,0,1-1.46,4.33,5.88,5.88,0,0,1-2.28,2.34,6.6,6.6,0,0,1-5.93,0,5.87,5.87,0,0,1-2.28-2.34,13.83,13.83,0,0,1-1.46-4.33A36.65,36.65,0,0,1,14.11,231.69Zm5.4,2.85q0,2.2.13,3.57a12.27,12.27,0,0,0,.36,2.15,2,2,0,0,0,.57,1,1.22,1.22,0,0,0,1.52,0,2,2,0,0,0,.57-1,12.27,12.27,0,0,0,.36-2.15q.13-1.37.13-3.57v-5.7q0-2.2-.13-3.57a11.8,11.8,0,0,0-.36-2.13,2.16,2.16,0,0,0-.57-1,1.15,1.15,0,0,0-1.52,0,2.16,2.16,0,0,0-.57,1,11.8,11.8,0,0,0-.36,2.13q-.13,1.37-.13,3.57Z"/><path class="cls-1" d="M30.7,218.17h5.55a12,12,0,0,1,3.19.4,6.11,6.11,0,0,1,2.47,1.31,6,6,0,0,1,1.6,2.38,9.93,9.93,0,0,1,.57,3.59,13.13,13.13,0,0,1-.13,1.82,8.66,8.66,0,0,1-.47,1.86,7,7,0,0,1-.89,1.67,4.54,4.54,0,0,1-1.39,1.25l2.93,12.77h-5L36.82,233.6H35.64v11.63H30.7Zm4.94,11.48h1a2,2,0,0,0,1.16-.32,2.6,2.6,0,0,0,.78-.84,3.72,3.72,0,0,0,.44-1.2,7.41,7.41,0,0,0,.13-1.41,4.42,4.42,0,0,0-.74-3,2.63,2.63,0,0,0-2-.78h-.76Z"/><path class="cls-1" d="M54.39,227.82q0-.46,0-1.46a11.94,11.94,0,0,0-.13-2,5.94,5.94,0,0,0-.53-1.77,1.25,1.25,0,0,0-1.18-.76,1.34,1.34,0,0,0-.86.32,2.69,2.69,0,0,0-.68,1.35,16.61,16.61,0,0,0-.44,3q-.15,1.94-.15,5.21t.15,5.3a15.31,15.31,0,0,0,.46,3,2.45,2.45,0,0,0,.74,1.33,1.72,1.72,0,0,0,1,.3,1.28,1.28,0,0,0,1.1-.61,4.17,4.17,0,0,0,.61-1.42,10.39,10.39,0,0,0,.25-1.65q.06-.83.06-1.33H53v-4h6v12.62H56.9l-.68-1.79a6,6,0,0,1-1.6,1.6,3.93,3.93,0,0,1-2.32.72,5.63,5.63,0,0,1-3.33-1,6.6,6.6,0,0,1-2.17-2.75,16.07,16.07,0,0,1-1.18-4.41,43.76,43.76,0,0,1-.36-5.95,33.16,33.16,0,0,1,.55-6.55,15,15,0,0,1,1.5-4.35,6.26,6.26,0,0,1,2.22-2.41,5.38,5.38,0,0,1,2.75-.74,8.43,8.43,0,0,1,2.36.34,4.75,4.75,0,0,1,2.09,1.27,6.83,6.83,0,0,1,1.48,2.58,13.25,13.25,0,0,1,.57,4.24v1.75Z"/><path class="cls-1" d="M61.38,218.17H72.55v4.18H66.32v6.92h4.6v4.41h-4.6V241h6.5v4.18H61.38Z"/><path class="cls-1" d="M77.57,222.35H73.31v-4.18H86.76v4.18H82.51v22.88H77.57Z"/><path class="cls-1" d="M97.63,222.35H93.38v-4.18h13.45v4.18h-4.26v22.88H97.63Z"/><path class="cls-1" d="M108,218.17H113V229h3.12V218.17H121v27.06H116.1V233.75H113v11.48H108Z"/><path class="cls-1" d="M123.85,218.17H135v4.18h-6.23v6.92h4.6v4.41h-4.6V241h6.5v4.18H123.85Z"/><path class="cls-1" d="M144.59,218.17h4.94q4.18,0,6.35,1.86t2.17,6.23a14.26,14.26,0,0,1-.36,3.33,6.91,6.91,0,0,1-1.16,2.56,5.4,5.4,0,0,1-2,1.65,6.89,6.89,0,0,1-3,.59h-2v10.83h-4.94Zm5,12.27H150a4.64,4.64,0,0,0,1.33-.17,2,2,0,0,0,1-.63,3,3,0,0,0,.61-1.25,8.1,8.1,0,0,0,.21-2,7.55,7.55,0,0,0-.27-2.28,2.79,2.79,0,0,0-.7-1.2,1.82,1.82,0,0,0-1-.47,8.88,8.88,0,0,0-1.18-.08h-.38Z"/><path class="cls-1" d="M159.34,218.17h5.55a12,12,0,0,1,3.19.4,6.11,6.11,0,0,1,2.47,1.31,6,6,0,0,1,1.6,2.38,9.93,9.93,0,0,1,.57,3.59,13.13,13.13,0,0,1-.13,1.82,8.66,8.66,0,0,1-.47,1.86,7,7,0,0,1-.89,1.67,4.54,4.54,0,0,1-1.39,1.25l2.93,12.77h-5l-2.32-11.63h-1.18v11.63h-4.94Zm4.94,11.48h1a2,2,0,0,0,1.16-.32,2.6,2.6,0,0,0,.78-.84,3.72,3.72,0,0,0,.44-1.2,7.41,7.41,0,0,0,.13-1.41,4.42,4.42,0,0,0-.74-3,2.63,2.63,0,0,0-2-.78h-.76Z"/><path class="cls-1" d="M173.93,231.69a36.62,36.62,0,0,1,.51-6.69,13.81,13.81,0,0,1,1.46-4.33,5.87,5.87,0,0,1,2.28-2.34,6.6,6.6,0,0,1,5.93,0,5.89,5.89,0,0,1,2.28,2.34,13.84,13.84,0,0,1,1.46,4.33,43.88,43.88,0,0,1,0,13.38,13.83,13.83,0,0,1-1.46,4.33,5.89,5.89,0,0,1-2.28,2.34,6.6,6.6,0,0,1-5.93,0,5.87,5.87,0,0,1-2.28-2.34,13.8,13.8,0,0,1-1.46-4.33A36.64,36.64,0,0,1,173.93,231.69Zm5.4,2.85q0,2.2.13,3.57a12.18,12.18,0,0,0,.36,2.15,2,2,0,0,0,.57,1,1.22,1.22,0,0,0,1.52,0,2,2,0,0,0,.57-1,12.27,12.27,0,0,0,.36-2.15q.13-1.37.13-3.57v-5.7q0-2.2-.13-3.57a11.8,11.8,0,0,0-.36-2.13,2.16,2.16,0,0,0-.57-1,1.15,1.15,0,0,0-1.52,0,2.16,2.16,0,0,0-.57,1,11.71,11.71,0,0,0-.36,2.13q-.13,1.37-.13,3.57Z"/><path class="cls-1" d="M190.51,218.17h11.06v4.18h-6.12v7.22H200V234h-4.52v11.25h-4.94Z"/><path class="cls-1" d="M203,218.17h11.17v4.18h-6.23v6.92h4.6v4.41h-4.6V241h6.5v4.18H203Z"/><path class="cls-1" d="M219.77,237.4c0,.38,0,.81,0,1.29a5.82,5.82,0,0,0,.23,1.37,2.48,2.48,0,0,0,.63,1.08,1.67,1.67,0,0,0,1.24.44,2,2,0,0,0,1-.25,2.08,2.08,0,0,0,.68-.65,2.71,2.71,0,0,0,.38-.86,3.59,3.59,0,0,0,.11-.87,3.69,3.69,0,0,0-.66-2.17,10.48,10.48,0,0,0-1.65-1.82q-1-.87-2.17-1.79a15,15,0,0,1-2.17-2.05,10.61,10.61,0,0,1-1.65-2.62,8.48,8.48,0,0,1-.67-3.5,9.66,9.66,0,0,1,.42-2.87,7,7,0,0,1,1.22-2.34,5.85,5.85,0,0,1,2-1.58,6.86,6.86,0,0,1,5.6,0,5.17,5.17,0,0,1,1.92,1.69,7.71,7.71,0,0,1,1.1,2.6,15.94,15.94,0,0,1,.4,3.34h-4.41q0-.57,0-1.27a6.34,6.34,0,0,0-.21-1.33,2.3,2.3,0,0,0-.59-1,1.54,1.54,0,0,0-1.14-.42,1.59,1.59,0,0,0-1.37.68,3,3,0,0,0-.49,1.79,3.57,3.57,0,0,0,.67,2.09,11,11,0,0,0,1.65,1.84q1,.89,2.17,1.84a15.64,15.64,0,0,1,2.17,2.13,11.36,11.36,0,0,1,1.65,2.66,8.4,8.4,0,0,1,.66,3.46,9.39,9.39,0,0,1-.44,2.91,6.84,6.84,0,0,1-1.29,2.36,6.11,6.11,0,0,1-2.13,1.6,6.94,6.94,0,0,1-2.94.59,5.94,5.94,0,0,1-3.21-.78,5.71,5.71,0,0,1-1.94-2,7.94,7.94,0,0,1-.95-2.7,17.4,17.4,0,0,1-.25-2.89Z"/><path class="cls-1" d="M234,237.4c0,.38,0,.81,0,1.29a5.82,5.82,0,0,0,.23,1.37,2.48,2.48,0,0,0,.63,1.08,1.67,1.67,0,0,0,1.24.44,2,2,0,0,0,1-.25,2.08,2.08,0,0,0,.68-.65,2.71,2.71,0,0,0,.38-.86,3.59,3.59,0,0,0,.11-.87,3.69,3.69,0,0,0-.66-2.17A10.48,10.48,0,0,0,236,235q-1-.87-2.17-1.79a15,15,0,0,1-2.17-2.05A10.61,10.61,0,0,1,230,228.5a8.48,8.48,0,0,1-.67-3.5,9.66,9.66,0,0,1,.42-2.87A7,7,0,0,1,231,219.8a5.85,5.85,0,0,1,2-1.58,6.86,6.86,0,0,1,5.6,0,5.17,5.17,0,0,1,1.92,1.69,7.71,7.71,0,0,1,1.1,2.6,15.94,15.94,0,0,1,.4,3.34h-4.41q0-.57,0-1.27a6.34,6.34,0,0,0-.21-1.33,2.3,2.3,0,0,0-.59-1,1.54,1.54,0,0,0-1.14-.42,1.59,1.59,0,0,0-1.37.68,3,3,0,0,0-.49,1.79,3.57,3.57,0,0,0,.67,2.09,11,11,0,0,0,1.65,1.84q1,.89,2.17,1.84a15.64,15.64,0,0,1,2.17,2.13,11.36,11.36,0,0,1,1.65,2.66,8.4,8.4,0,0,1,.66,3.46,9.39,9.39,0,0,1-.44,2.91,6.84,6.84,0,0,1-1.29,2.36,6.11,6.11,0,0,1-2.13,1.6,6.94,6.94,0,0,1-2.94.59,5.94,5.94,0,0,1-3.21-.78,5.71,5.71,0,0,1-1.94-2,7.94,7.94,0,0,1-.95-2.7,17.4,17.4,0,0,1-.25-2.89Z"/><path class="cls-1" d="M244.3,218.17h4.94v27.06H244.3Z"/><path class="cls-1" d="M251.37,231.69a36.55,36.55,0,0,1,.51-6.69,13.81,13.81,0,0,1,1.46-4.33,5.87,5.87,0,0,1,2.28-2.34,6.6,6.6,0,0,1,5.93,0,5.87,5.87,0,0,1,2.28,2.34,13.84,13.84,0,0,1,1.46,4.33,43.8,43.8,0,0,1,0,13.38,13.83,13.83,0,0,1-1.46,4.33,5.87,5.87,0,0,1-2.28,2.34,6.6,6.6,0,0,1-5.93,0,5.87,5.87,0,0,1-2.28-2.34,13.8,13.8,0,0,1-1.46-4.33A36.56,36.56,0,0,1,251.37,231.69Zm5.4,2.85q0,2.2.13,3.57a12.18,12.18,0,0,0,.36,2.15,2,2,0,0,0,.57,1,1.22,1.22,0,0,0,1.52,0,2,2,0,0,0,.57-1,12.18,12.18,0,0,0,.36-2.15q.13-1.37.13-3.57v-5.7q0-2.2-.13-3.57a11.71,11.71,0,0,0-.36-2.13,2.16,2.16,0,0,0-.57-1,1.16,1.16,0,0,0-1.52,0,2.16,2.16,0,0,0-.57,1,11.71,11.71,0,0,0-.36,2.13q-.13,1.37-.13,3.57Z"/><path class="cls-1" d="M267.86,218.17h4.83l4.52,14.29h.08V218.17h4v27.06H277.4l-5.28-16.38H272v16.38h-4.18Z"/><path class="cls-1" d="M286.48,218.17h7.14L297,245.22h-4.75l-.72-6h-4l-.68,6h-4.14Zm3.15,4.18h-.08L288,235.27h3.08Z"/><path class="cls-1" d="M298.5,218.17h4.94V241h6.31v4.18H298.5Z"/><path class="cls-1" d="M315.18,237.4c0,.38,0,.81,0,1.29a5.88,5.88,0,0,0,.23,1.37,2.48,2.48,0,0,0,.63,1.08,1.67,1.67,0,0,0,1.23.44,2,2,0,0,0,1-.25,2.09,2.09,0,0,0,.68-.65,2.73,2.73,0,0,0,.38-.86,3.59,3.59,0,0,0,.11-.87,3.68,3.68,0,0,0-.67-2.17A10.47,10.47,0,0,0,317.2,235q-1-.87-2.17-1.79a15,15,0,0,1-2.17-2.05,10.58,10.58,0,0,1-1.65-2.62,8.48,8.48,0,0,1-.66-3.5,9.62,9.62,0,0,1,.42-2.87,6.94,6.94,0,0,1,1.22-2.34,5.85,5.85,0,0,1,2-1.58,6.87,6.87,0,0,1,5.61,0,5.17,5.17,0,0,1,1.92,1.69,7.73,7.73,0,0,1,1.1,2.6,15.94,15.94,0,0,1,.4,3.34h-4.41q0-.57,0-1.27a6.28,6.28,0,0,0-.21-1.33,2.31,2.31,0,0,0-.59-1,1.55,1.55,0,0,0-1.14-.42,1.59,1.59,0,0,0-1.37.68,3,3,0,0,0-.49,1.79,3.56,3.56,0,0,0,.66,2.09,11,11,0,0,0,1.65,1.84q1,.89,2.17,1.84a15.7,15.7,0,0,1,2.17,2.13,11.33,11.33,0,0,1,1.65,2.66,8.38,8.38,0,0,1,.66,3.46,9.39,9.39,0,0,1-.44,2.91,6.86,6.86,0,0,1-1.29,2.36,6.11,6.11,0,0,1-2.13,1.6,7,7,0,0,1-2.94.59,5.94,5.94,0,0,1-3.21-.78,5.7,5.7,0,0,1-1.94-2,7.92,7.92,0,0,1-1-2.7,17.5,17.5,0,0,1-.25-2.89Z"/><path class="cls-1" d="M327.28,245.22h-1.82v-4.94h4.94v4.56l-2.93,6.08h-2Z"/><path class="cls-1" d="M342.86,222.35H338.6v-4.18h13.45v4.18H347.8v22.88h-4.94Z"/><path class="cls-1" d="M353.27,218.17h4.94V229h3.12V218.17h4.94v27.06h-4.94V233.75h-3.12v11.48h-4.94Z"/><path class="cls-1" d="M369.07,218.17h11.17v4.18H374v6.92h4.6v4.41H374V241h6.5v4.18H369.07Z"/><path class="cls-1" d="M393.2,237.4c0,.38,0,.81,0,1.29a5.82,5.82,0,0,0,.23,1.37,2.48,2.48,0,0,0,.63,1.08,1.67,1.67,0,0,0,1.24.44,2,2,0,0,0,1-.25,2.08,2.08,0,0,0,.68-.65,2.71,2.71,0,0,0,.38-.86,3.59,3.59,0,0,0,.11-.87,3.69,3.69,0,0,0-.66-2.17,10.48,10.48,0,0,0-1.65-1.82q-1-.87-2.17-1.79a15,15,0,0,1-2.17-2.05,10.61,10.61,0,0,1-1.65-2.62,8.48,8.48,0,0,1-.67-3.5,9.66,9.66,0,0,1,.42-2.87,7,7,0,0,1,1.22-2.34,5.85,5.85,0,0,1,2-1.58,6.86,6.86,0,0,1,5.6,0,5.17,5.17,0,0,1,1.92,1.69,7.71,7.71,0,0,1,1.1,2.6,15.94,15.94,0,0,1,.4,3.34h-4.41q0-.57,0-1.27a6.34,6.34,0,0,0-.21-1.33,2.3,2.3,0,0,0-.59-1,1.54,1.54,0,0,0-1.14-.42,1.59,1.59,0,0,0-1.37.68,3,3,0,0,0-.49,1.79,3.57,3.57,0,0,0,.67,2.09,11,11,0,0,0,1.65,1.84q1,.89,2.17,1.84a15.64,15.64,0,0,1,2.17,2.13,11.36,11.36,0,0,1,1.65,2.66,8.4,8.4,0,0,1,.66,3.46,9.39,9.39,0,0,1-.44,2.91,6.84,6.84,0,0,1-1.29,2.36,6.11,6.11,0,0,1-2.13,1.6,6.94,6.94,0,0,1-2.94.59,5.94,5.94,0,0,1-3.21-.78,5.71,5.71,0,0,1-1.94-2,7.94,7.94,0,0,1-.95-2.7,17.4,17.4,0,0,1-.25-2.89Z"/><path class="cls-1" d="M406.28,222.35H402v-4.18h13.45v4.18h-4.26v22.88h-4.94Z"/><path class="cls-1" d="M416.7,218.17h5.55a12,12,0,0,1,3.19.4,6.11,6.11,0,0,1,2.47,1.31,6,6,0,0,1,1.6,2.38,9.93,9.93,0,0,1,.57,3.59,13.13,13.13,0,0,1-.13,1.82,8.66,8.66,0,0,1-.47,1.86,7,7,0,0,1-.89,1.67,4.54,4.54,0,0,1-1.39,1.25l2.93,12.77h-5l-2.32-11.63h-1.18v11.63H416.7Zm4.94,11.48h1a2,2,0,0,0,1.16-.32,2.6,2.6,0,0,0,.78-.84,3.72,3.72,0,0,0,.44-1.2,7.41,7.41,0,0,0,.13-1.41,4.42,4.42,0,0,0-.74-3,2.63,2.63,0,0,0-2-.78h-.76Z"/><path class="cls-1" d="M432,218.17h11.17v4.18h-6.23v6.92h4.6v4.41h-4.6V241h6.5v4.18H432Z"/><path class="cls-1" d="M445,218.17h11.17v4.18h-6.23v6.92h4.6v4.41h-4.6V241h6.5v4.18H445Z"/><path class="cls-1" d="M461.2,222.35h-4.26v-4.18h13.45v4.18h-4.26v22.88H461.2Z"/><path class="cls-1" d="M478.79,218.17h4.94v27.06h-4.94Z"/><path class="cls-1" d="M490.09,237.4c0,.38,0,.81,0,1.29a5.82,5.82,0,0,0,.23,1.37,2.48,2.48,0,0,0,.63,1.08,1.67,1.67,0,0,0,1.24.44,2,2,0,0,0,1-.25,2.08,2.08,0,0,0,.68-.65,2.71,2.71,0,0,0,.38-.86,3.59,3.59,0,0,0,.11-.87,3.69,3.69,0,0,0-.66-2.17,10.48,10.48,0,0,0-1.65-1.82q-1-.87-2.17-1.79a15,15,0,0,1-2.17-2.05,10.61,10.61,0,0,1-1.65-2.62,8.48,8.48,0,0,1-.67-3.5,9.66,9.66,0,0,1,.42-2.87,7,7,0,0,1,1.22-2.34,5.85,5.85,0,0,1,2-1.58,6.86,6.86,0,0,1,5.6,0,5.17,5.17,0,0,1,1.92,1.69,7.71,7.71,0,0,1,1.1,2.6,15.94,15.94,0,0,1,.4,3.34H493.7q0-.57,0-1.27a6.34,6.34,0,0,0-.21-1.33,2.3,2.3,0,0,0-.59-1,1.54,1.54,0,0,0-1.14-.42,1.59,1.59,0,0,0-1.37.68,3,3,0,0,0-.49,1.79,3.57,3.57,0,0,0,.67,2.09,11,11,0,0,0,1.65,1.84q1,.89,2.17,1.84a15.64,15.64,0,0,1,2.17,2.13,11.36,11.36,0,0,1,1.65,2.66,8.4,8.4,0,0,1,.66,3.46,9.39,9.39,0,0,1-.44,2.91,6.84,6.84,0,0,1-1.29,2.36,6.11,6.11,0,0,1-2.13,1.6,6.94,6.94,0,0,1-2.94.59,5.94,5.94,0,0,1-3.21-.78,5.71,5.71,0,0,1-1.94-2,7.94,7.94,0,0,1-.95-2.7,17.4,17.4,0,0,1-.25-2.89Z"/><path class="cls-1" d="M506.7,218.17h4.48l1.75,15.88H513l2.36-15.88h4.45L522,234.05h.08L524,218.17h3.53L524,245.22h-4.48l-2.36-17.14h-.08l-2.43,17.14h-4.33Z"/><path class="cls-1" d="M529,218.17H534V229h3.12V218.17H542v27.06h-4.94V233.75H534v11.48H529Z"/><path class="cls-1" d="M544.82,218.17H556v4.18h-6.23v6.92h4.6v4.41h-4.6V241h6.5v4.18H544.82Z"/><path class="cls-1" d="M557.84,218.17h5.55a12,12,0,0,1,3.19.4,6.11,6.11,0,0,1,2.47,1.31,6,6,0,0,1,1.6,2.38,9.91,9.91,0,0,1,.57,3.59,13.28,13.28,0,0,1-.13,1.82,8.77,8.77,0,0,1-.47,1.86,7.08,7.08,0,0,1-.89,1.67,4.54,4.54,0,0,1-1.39,1.25l2.93,12.77h-5L564,233.6h-1.18v11.63h-4.94Zm4.94,11.48h1a2,2,0,0,0,1.16-.32,2.6,2.6,0,0,0,.78-.84,3.74,3.74,0,0,0,.44-1.2,7.41,7.41,0,0,0,.13-1.41,4.42,4.42,0,0,0-.74-3,2.63,2.63,0,0,0-2-.78h-.76Z"/><path class="cls-1" d="M573.13,218.17H584.3v4.18h-6.23v6.92h4.6v4.41h-4.6V241h6.5v4.18H573.13Z"/><path class="cls-1" d="M593.88,218.17h11.06v4.18h-6.12v7.22h4.52V234h-4.52v11.25h-4.94Z"/><path class="cls-1" d="M605.46,231.69A36.62,36.62,0,0,1,606,225a13.81,13.81,0,0,1,1.46-4.33,5.87,5.87,0,0,1,2.28-2.34,6.6,6.6,0,0,1,5.93,0,5.89,5.89,0,0,1,2.28,2.34,13.84,13.84,0,0,1,1.46,4.33,43.88,43.88,0,0,1,0,13.38,13.83,13.83,0,0,1-1.46,4.33,5.89,5.89,0,0,1-2.28,2.34,6.6,6.6,0,0,1-5.93,0,5.87,5.87,0,0,1-2.28-2.34,13.8,13.8,0,0,1-1.46-4.33A36.64,36.64,0,0,1,605.46,231.69Zm5.4,2.85q0,2.2.13,3.57a12.18,12.18,0,0,0,.36,2.15,2,2,0,0,0,.57,1,1.22,1.22,0,0,0,1.52,0,2,2,0,0,0,.57-1,12.27,12.27,0,0,0,.36-2.15q.13-1.37.13-3.57v-5.7q0-2.2-.13-3.57a11.8,11.8,0,0,0-.36-2.13,2.16,2.16,0,0,0-.57-1,1.15,1.15,0,0,0-1.52,0,2.16,2.16,0,0,0-.57,1,11.71,11.71,0,0,0-.36,2.13q-.13,1.37-.13,3.57Z"/><path class="cls-1" d="M621.39,231.69a36.54,36.54,0,0,1,.51-6.69,13.79,13.79,0,0,1,1.46-4.33,5.87,5.87,0,0,1,2.28-2.34,6.6,6.6,0,0,1,5.93,0,5.88,5.88,0,0,1,2.28,2.34,13.84,13.84,0,0,1,1.46,4.33,43.88,43.88,0,0,1,0,13.38,13.83,13.83,0,0,1-1.46,4.33,5.88,5.88,0,0,1-2.28,2.34,6.6,6.6,0,0,1-5.93,0,5.87,5.87,0,0,1-2.28-2.34,13.78,13.78,0,0,1-1.46-4.33A36.55,36.55,0,0,1,621.39,231.69Zm5.4,2.85q0,2.2.13,3.57a12.08,12.08,0,0,0,.36,2.15,2,2,0,0,0,.57,1,1.22,1.22,0,0,0,1.52,0,2,2,0,0,0,.57-1,12.18,12.18,0,0,0,.36-2.15q.13-1.37.13-3.57v-5.7q0-2.2-.13-3.57a11.71,11.71,0,0,0-.36-2.13,2.16,2.16,0,0,0-.57-1,1.16,1.16,0,0,0-1.52,0,2.16,2.16,0,0,0-.57,1,11.63,11.63,0,0,0-.36,2.13q-.13,1.37-.13,3.57Z"/><path class="cls-1" d="M640.42,222.35h-4.26v-4.18h13.45v4.18h-4.26v22.88h-4.94Z"/><path class="cls-1" d="M650.83,218.17h6.08a8.27,8.27,0,0,1,2.32.34,6,6,0,0,1,2.15,1.14,6.08,6.08,0,0,1,1.6,2.11,7.51,7.51,0,0,1,.63,3.25,7,7,0,0,1-1.06,3.91A5.06,5.06,0,0,1,659.2,231v.08a6.1,6.1,0,0,1,3.74,2.3,7.21,7.21,0,0,1,1.2,4.27,8.41,8.41,0,0,1-.59,3.27,7.09,7.09,0,0,1-1.56,2.36,6.36,6.36,0,0,1-2.22,1.43,7.35,7.35,0,0,1-2.62.47h-6.31Zm4.94,11.1a2.9,2.9,0,0,0,2.49-.87,4.66,4.66,0,0,0,.63-2.7,10.69,10.69,0,0,0-.13-1.86,2.13,2.13,0,0,0-.49-1.1,1.74,1.74,0,0,0-1-.49,8.45,8.45,0,0,0-1.52-.11Zm0,12a5.79,5.79,0,0,0,1.79-.23,2.1,2.1,0,0,0,1-.7,2.66,2.66,0,0,0,.47-1.24,12.46,12.46,0,0,0,.12-1.82,9.15,9.15,0,0,0-.13-1.63,2.81,2.81,0,0,0-.51-1.22,2.29,2.29,0,0,0-1-.74,5.07,5.07,0,0,0-1.73-.25Z"/><path class="cls-1" d="M668.54,218.17h7.14L679,245.22h-4.75l-.72-6h-4l-.68,6h-4.14Zm3.15,4.18h-.08l-1.56,12.92h3.08Z"/><path class="cls-1" d="M680.55,218.17h4.94V241h6.31v4.18H680.55Z"/><path class="cls-1" d="M693.48,218.17h4.94V241h6.31v4.18H693.48Z"/><path class="cls-1" d="M714.22,218.17h4.94V241h6.31v4.18H714.22Z"/><path class="cls-1" d="M727.06,218.17H732v27.06h-4.94Z"/><path class="cls-1" d="M733.4,218.17h4.83l2.32,19h.08l2.54-19h4l-4.07,27.06h-5.66Z"/><path class="cls-1" d="M748.65,218.17h11.17v4.18h-6.23v6.92h4.6v4.41h-4.6V241h6.5v4.18H748.65Z"/><path class="cls-1" d="M765.45,237.4c0,.38,0,.81,0,1.29a5.88,5.88,0,0,0,.23,1.37,2.5,2.5,0,0,0,.63,1.08,1.67,1.67,0,0,0,1.24.44,2,2,0,0,0,1-.25,2.1,2.1,0,0,0,.68-.65,2.69,2.69,0,0,0,.38-.86,3.59,3.59,0,0,0,.11-.87,3.69,3.69,0,0,0-.67-2.17,10.48,10.48,0,0,0-1.65-1.82q-1-.87-2.17-1.79a15.08,15.08,0,0,1-2.17-2.05,10.61,10.61,0,0,1-1.65-2.62,8.48,8.48,0,0,1-.67-3.5,9.66,9.66,0,0,1,.42-2.87,7,7,0,0,1,1.22-2.34,5.85,5.85,0,0,1,2-1.58,6.86,6.86,0,0,1,5.6,0,5.17,5.17,0,0,1,1.92,1.69,7.75,7.75,0,0,1,1.1,2.6,15.94,15.94,0,0,1,.4,3.34h-4.41q0-.57,0-1.27a6.41,6.41,0,0,0-.21-1.33,2.3,2.3,0,0,0-.59-1,1.54,1.54,0,0,0-1.14-.42,1.59,1.59,0,0,0-1.37.68,3,3,0,0,0-.49,1.79,3.57,3.57,0,0,0,.67,2.09,11,11,0,0,0,1.65,1.84q1,.89,2.17,1.84a15.7,15.7,0,0,1,2.17,2.13,11.39,11.39,0,0,1,1.65,2.66,8.4,8.4,0,0,1,.67,3.46,9.39,9.39,0,0,1-.44,2.91,6.85,6.85,0,0,1-1.29,2.36,6.11,6.11,0,0,1-2.13,1.6,7,7,0,0,1-2.95.59,6,6,0,0,1-3.21-.78,5.71,5.71,0,0,1-1.94-2,8,8,0,0,1-1-2.7,17.5,17.5,0,0,1-.25-2.89Z"/><path class="cls-1" d="M775.77,240.28h4.94v4.94h-4.94Z"/></g></g></svg>