<svg xmlns="http://www.w3.org/2000/svg" viewBox="0 0 754.18 688.73"><defs><style>.cls-1{fill:#da2128;}</style></defs><title>Ash</title><g id="Layer_2" data-name="Layer 2"><g id="Layer_1-2" data-name="Layer 1"><rect class="cls-1" x="2.13" y="71.06" width="349.57" height="16.93"/><path class="cls-1" d="M6.39.89h12L24,46.39H16l-1.21-10.1H8.12L7,46.39H0Zm5.3,7h-.13L8.95,29.65h5.18Z"/><path class="cls-1" d="M32.18,33.23q0,1,.06,2.17a9.9,9.9,0,0,0,.38,2.3,4.18,4.18,0,0,0,1.05,1.82,2.81,2.81,0,0,0,2.08.74,3.33,3.33,0,0,0,1.73-.42,3.51,3.51,0,0,0,1.15-1.09,4.6,4.6,0,0,0,.64-1.44,6.08,6.08,0,0,0,.19-1.47,6.2,6.2,0,0,0-1.12-3.64,17.69,17.69,0,0,0-2.78-3.07q-1.66-1.47-3.64-3a25.24,25.24,0,0,1-3.64-3.45,17.76,17.76,0,0,1-2.78-4.41,14.25,14.25,0,0,1-1.12-5.88,16.2,16.2,0,0,1,.7-4.82,11.69,11.69,0,0,1,2-3.93A9.83,9.83,0,0,1,30.48,1a10.38,10.38,0,0,1,4.63-1,10.36,10.36,0,0,1,4.79,1,8.67,8.67,0,0,1,3.23,2.84A13,13,0,0,1,45,8.24a26.81,26.81,0,0,1,.67,5.62H38.25q0-1-.06-2.14a10.67,10.67,0,0,0-.35-2.24,3.88,3.88,0,0,0-1-1.76A2.6,2.6,0,0,0,34.93,7a2.68,2.68,0,0,0-2.3,1.15,5,5,0,0,0-.83,3,6,6,0,0,0,1.12,3.51,18.46,18.46,0,0,0,2.78,3.1q1.66,1.5,3.64,3.1A26.42,26.42,0,0,1,43,24.47a19.08,19.08,0,0,1,2.78,4.47,14.11,14.11,0,0,1,1.12,5.82,15.78,15.78,0,0,1-.73,4.89,11.54,11.54,0,0,1-2.17,4,10.29,10.29,0,0,1-3.58,2.68,11.68,11.68,0,0,1-5,1A10,10,0,0,1,30,46a9.61,9.61,0,0,1-3.26-3.35,13.36,13.36,0,0,1-1.6-4.54,29.41,29.41,0,0,1-.42-4.86Z"/><path class="cls-1" d="M49.27.89h8.31V19.17h5.24V.89h8.31v45.5H62.82V27.09H57.58v19.3H49.27Z"/><path class="cls-1" d="M102.81,17.38a30.12,30.12,0,0,0-.73-8Q101.34,7,99.81,7a2.33,2.33,0,0,0-1.28.42,3.73,3.73,0,0,0-1.12,2.08,28.1,28.1,0,0,0-.77,5q-.29,3.32-.29,9.14,0,5.62.19,8.91a33.81,33.81,0,0,0,.57,5,3.7,3.7,0,0,0,1.05,2.2,2.73,2.73,0,0,0,1.63.48q2,0,2.72-2.91a41.46,41.46,0,0,0,.8-7.89l7,.32a59.51,59.51,0,0,1-.32,6.1,17.91,17.91,0,0,1-1.47,5.62,10.72,10.72,0,0,1-3.29,4.15,9.33,9.33,0,0,1-5.78,1.63,9.47,9.47,0,0,1-5.59-1.6,11.07,11.07,0,0,1-3.64-4.63,27,27,0,0,1-2-7.41,73.37,73.37,0,0,1-.61-10,55.74,55.74,0,0,1,.93-11A25.19,25.19,0,0,1,91.12,5.3a10.55,10.55,0,0,1,3.74-4.06A9.06,9.06,0,0,1,99.49,0a9.78,9.78,0,0,1,5.72,1.5,9.63,9.63,0,0,1,3.26,3.93,17.39,17.39,0,0,1,1.44,5.5,60,60,0,0,1,.32,6.2Z"/><path class="cls-1" d="M113.66.89H122V19.17h5.24V.89h8.31v45.5h-8.31V27.09H122v19.3h-8.31Z"/><path class="cls-1" d="M144.06.89h12l5.62,45.5h-8l-1.21-10.1h-6.71l-1.15,10.1h-7Zm5.3,7h-.13l-2.62,21.72h5.18Z"/><path class="cls-1" d="M177.79,17.13q0-.77,0-2.46a20.19,20.19,0,0,0-.22-3.39,10,10,0,0,0-.89-3,2.09,2.09,0,0,0-2-1.28,2.25,2.25,0,0,0-1.44.54,4.52,4.52,0,0,0-1.15,2.27,27.92,27.92,0,0,0-.73,5q-.26,3.26-.26,8.75t.26,8.91a25.67,25.67,0,0,0,.77,5,4.12,4.12,0,0,0,1.25,2.24,2.88,2.88,0,0,0,1.69.51,2.15,2.15,0,0,0,1.85-1,7,7,0,0,0,1-2.4,17.51,17.51,0,0,0,.42-2.78q.1-1.4.1-2.24h-3.07V25.18h10.1V46.39H182l-1.15-3a10,10,0,0,1-2.68,2.68,6.62,6.62,0,0,1-3.9,1.21,9.47,9.47,0,0,1-5.59-1.6A11.07,11.07,0,0,1,165,41.05a27,27,0,0,1-2-7.41,73.37,73.37,0,0,1-.61-10,55.74,55.74,0,0,1,.93-11,25.19,25.19,0,0,1,2.52-7.32,10.55,10.55,0,0,1,3.74-4.06A9.06,9.06,0,0,1,174.28,0a14.18,14.18,0,0,1,4,.58,8,8,0,0,1,3.51,2.14,11.45,11.45,0,0,1,2.49,4.34,22.24,22.24,0,0,1,1,7.13v2.94Z"/><path class="cls-1" d="M189.17.89h8.31V39.36h10.61v7H189.17Z"/><path class="cls-1" d="M215.85.89h12l5.62,45.5h-8l-1.21-10.1h-6.71l-1.15,10.1h-7Zm5.3,7H221L218.4,29.65h5.18Z"/><path class="cls-1" d="M259.93,0h5.75L251.37,47.28h-5.62Z"/><path class="cls-1" d="M280.25.89H299v7H288.56V19.55h7.73V27h-7.73v12.4h10.93v7H280.25Z"/><path class="cls-1" d="M315.45,17.38a30.12,30.12,0,0,0-.73-8Q314,7,312.45,7a2.33,2.33,0,0,0-1.28.42,3.73,3.73,0,0,0-1.12,2.08,28.1,28.1,0,0,0-.77,5q-.29,3.32-.29,9.14,0,5.62.19,8.91a33.81,33.81,0,0,0,.57,5,3.7,3.7,0,0,0,1.05,2.2,2.73,2.73,0,0,0,1.63.48q2,0,2.72-2.91a41.46,41.46,0,0,0,.8-7.89l7,.32a59.51,59.51,0,0,1-.32,6.1,17.91,17.91,0,0,1-1.47,5.62,10.72,10.72,0,0,1-3.29,4.15,9.33,9.33,0,0,1-5.78,1.63,9.47,9.47,0,0,1-5.59-1.6,11.07,11.07,0,0,1-3.64-4.63,27,27,0,0,1-2-7.41,73.37,73.37,0,0,1-.61-10,55.74,55.74,0,0,1,.93-11,25.19,25.19,0,0,1,2.52-7.32,10.55,10.55,0,0,1,3.74-4.06A9.06,9.06,0,0,1,312.13,0a9.78,9.78,0,0,1,5.72,1.5,9.63,9.63,0,0,1,3.26,3.93,17.39,17.39,0,0,1,1.44,5.5,60,60,0,0,1,.32,6.2Z"/><path class="cls-1" d="M326.3.89h7.22a17.61,17.61,0,0,1,8.27,1.63,10.9,10.9,0,0,1,4.6,4.6,19.39,19.39,0,0,1,2,7.16q.41,4.19.42,9.36,0,4.92-.38,9.11A21.89,21.89,0,0,1,346.62,40a10.63,10.63,0,0,1-4.19,4.73,14.5,14.5,0,0,1-7.57,1.69H326.3Zm8.31,38.47a7,7,0,0,0,3.07-.54,3.51,3.51,0,0,0,1.63-2.2,18.64,18.64,0,0,0,.67-4.76q.13-3.1.13-8.27T340,15.34a18.09,18.09,0,0,0-.67-4.7,3.5,3.5,0,0,0-1.63-2.17,7,7,0,0,0-3.07-.54Z"/><path class="cls-1" d="M5.26,149.3H18.73v29.06h8.5V149.3H40.7v72.34H27.23V191h-8.5v30.68H5.26Z"/><path class="cls-1" d="M45.82,185.47a96,96,0,0,1,1.4-17.88,36.48,36.48,0,0,1,4-11.58,15.86,15.86,0,0,1,6.22-6.25,18.32,18.32,0,0,1,16.17,0A15.88,15.88,0,0,1,79.81,156a36.5,36.5,0,0,1,4,11.58,96,96,0,0,1,1.4,17.88,96,96,0,0,1-1.4,17.88,36.47,36.47,0,0,1-4,11.58,15.86,15.86,0,0,1-6.22,6.25,18.32,18.32,0,0,1-16.17,0,15.85,15.85,0,0,1-6.22-6.25,36.44,36.44,0,0,1-4-11.58A96,96,0,0,1,45.82,185.47Zm14.72,7.62q0,5.89.36,9.55a32,32,0,0,0,1,5.74,5.42,5.42,0,0,0,1.55,2.79,3.38,3.38,0,0,0,4.15,0,5.42,5.42,0,0,0,1.55-2.79,32.15,32.15,0,0,0,1-5.74q.36-3.66.36-9.55V177.85q0-5.89-.36-9.55a30.93,30.93,0,0,0-1-5.69,5.74,5.74,0,0,0-1.55-2.79,3.2,3.2,0,0,0-4.15,0,5.74,5.74,0,0,0-1.55,2.79,30.77,30.77,0,0,0-1,5.69q-.36,3.66-.36,9.55Z"/><path class="cls-1" d="M90,149.3h13.16l12.33,38.2h.21V149.3h10.78v72.34H116l-14.4-43.79h-.21v43.79H90Z"/><path class="cls-1" d="M131.42,185.47a96,96,0,0,1,1.4-17.88,36.48,36.48,0,0,1,4-11.58,15.86,15.86,0,0,1,6.22-6.25,18.32,18.32,0,0,1,16.17,0,15.88,15.88,0,0,1,6.22,6.25,36.5,36.5,0,0,1,4,11.58,96,96,0,0,1,1.4,17.88,96,96,0,0,1-1.4,17.88,36.47,36.47,0,0,1-4,11.58,15.86,15.86,0,0,1-6.22,6.25,18.32,18.32,0,0,1-16.17,0,15.85,15.85,0,0,1-6.22-6.25,36.44,36.44,0,0,1-4-11.58A96,96,0,0,1,131.42,185.47Zm14.72,7.62q0,5.89.36,9.55a32,32,0,0,0,1,5.74,5.42,5.42,0,0,0,1.55,2.79,3.38,3.38,0,0,0,4.15,0,5.42,5.42,0,0,0,1.55-2.79,32.15,32.15,0,0,0,1-5.74q.36-3.66.36-9.55V177.85q0-5.89-.36-9.55a30.93,30.93,0,0,0-1-5.69,5.74,5.74,0,0,0-1.55-2.79,3.2,3.2,0,0,0-4.15,0,5.74,5.74,0,0,0-1.55,2.79,30.77,30.77,0,0,0-1,5.69q-.36,3.66-.36,9.55Z"/><path class="cls-1" d="M175.44,149.3h13.47v56a18,18,0,0,0,.16,2.39,6.16,6.16,0,0,0,.67,2.13,3.87,3.87,0,0,0,1.45,1.52,4.58,4.58,0,0,0,2.38.56,4,4,0,0,0,3.89-2,9.44,9.44,0,0,0,1.09-4.62v-56H210v54.25q0,10.67-4.56,15.09t-12.64,4.42a22.12,22.12,0,0,1-7.1-1.07,13.79,13.79,0,0,1-5.44-3.35,15.13,15.13,0,0,1-3.52-6,28.86,28.86,0,0,1-1.24-9.09Z"/><path class="cls-1" d="M216.52,149.3h15.13a33.28,33.28,0,0,1,8.71,1.07,16.76,16.76,0,0,1,6.74,3.51,16.16,16.16,0,0,1,4.35,6.35,26.08,26.08,0,0,1,1.55,9.6,34.59,34.59,0,0,1-.36,4.88,23.09,23.09,0,0,1-1.3,5,18.75,18.75,0,0,1-2.44,4.47,12.31,12.31,0,0,1-3.78,3.35l8,34.14H239.53l-6.32-31.09H230v31.09H216.52ZM230,180h2.69a5.56,5.56,0,0,0,3.16-.86,7,7,0,0,0,2.12-2.23,9.88,9.88,0,0,0,1.19-3.2,19.32,19.32,0,0,0,.36-3.76q0-5.89-2-8a7.23,7.23,0,0,0-5.44-2.08H230Z"/><path class="cls-1" d="M257.41,149.3h30.47v11.18h-17V179h12.54v11.79H270.88v19.71H288.6v11.18H257.41Z"/><path class="cls-1" d="M294.2,149.3h11.71q8.5,0,13.42,2.59a17.52,17.52,0,0,1,7.46,7.32A30.37,30.37,0,0,1,330,170.58a149,149,0,0,1,.67,14.88q0,7.83-.62,14.48a34.27,34.27,0,0,1-2.9,11.48,17,17,0,0,1-6.79,7.52q-4.51,2.69-12.28,2.69H294.2Zm13.47,61.16a11.55,11.55,0,0,0,5-.86,5.6,5.6,0,0,0,2.64-3.5,29.1,29.1,0,0,0,1.09-7.57q.21-4.93.21-13.16t-.21-13.11a28.22,28.22,0,0,0-1.09-7.47,5.58,5.58,0,0,0-2.64-3.45,11.57,11.57,0,0,0-5-.86Z"/><path class="cls-1" d="M360.93,149.3h19.48l9.12,72.34h-13l-2-16.05H363.73l-1.87,16.05h-11.3Zm8.6,11.18h-.21L365.08,195h8.39Z"/><path class="cls-1" d="M402.57,200.71q0,1.52.1,3.45a15.49,15.49,0,0,0,.62,3.66,6.63,6.63,0,0,0,1.71,2.9,4.61,4.61,0,0,0,3.37,1.17,5.49,5.49,0,0,0,2.8-.66A5.64,5.64,0,0,0,413,209.5a7.22,7.22,0,0,0,1-2.29,9.43,9.43,0,0,0,.31-2.34,9.73,9.73,0,0,0-1.81-5.79,28.32,28.32,0,0,0-4.51-4.88q-2.7-2.33-5.91-4.78a40.65,40.65,0,0,1-5.91-5.49,28.18,28.18,0,0,1-4.51-7,22.28,22.28,0,0,1-1.81-9.35,25.28,25.28,0,0,1,1.14-7.67,18.45,18.45,0,0,1,3.32-6.25,15.89,15.89,0,0,1,5.44-4.22,19,19,0,0,1,15.29.05,14,14,0,0,1,5.23,4.52,20.48,20.48,0,0,1,3,7,41.83,41.83,0,0,1,1.09,8.94h-12q0-1.52-.1-3.4a16.68,16.68,0,0,0-.57-3.56,6.14,6.14,0,0,0-1.61-2.79,4.26,4.26,0,0,0-3.11-1.12,4.37,4.37,0,0,0-3.73,1.83,7.86,7.86,0,0,0-1.35,4.78,9.4,9.4,0,0,0,1.81,5.59,29.52,29.52,0,0,0,4.51,4.93q2.69,2.39,5.91,4.93a42.43,42.43,0,0,1,5.91,5.69,30.27,30.27,0,0,1,4.51,7.11,22,22,0,0,1,1.81,9.25,24.65,24.65,0,0,1-1.19,7.77,18.24,18.24,0,0,1-3.52,6.3,16.65,16.65,0,0,1-5.8,4.27,19.29,19.29,0,0,1-8,1.58A16.46,16.46,0,0,1,399.1,221a15.43,15.43,0,0,1-5.29-5.33,21,21,0,0,1-2.59-7.21,45.92,45.92,0,0,1-.67-7.72Z"/><path class="cls-1" d="M447.13,149.3h17.93l6,37.08h.21l6.32-37.08h17.51v72.34h-12v-53h-.21l-9.12,53H466.3l-9-53h-.21v53h-9.95Z"/><path class="cls-1" d="M501.7,149.3h30.47v11.18h-17V179h12.54v11.79H515.18v19.71H532.9v11.18H501.7Z"/><path class="cls-1" d="M538.18,149.3h17.93l6,37.08h.21l6.32-37.08h17.51v72.34h-12v-53h-.21l-9.12,53h-7.46l-9-53h-.21v53h-9.95Z"/><path class="cls-1" d="M592.75,149.3h16.58a23,23,0,0,1,6.32.91,16,16,0,0,1,10.21,8.69,19.72,19.72,0,0,1,1.71,8.69,18.48,18.48,0,0,1-2.9,10.46q-2.9,4.37-9.12,5.69v.2q6.94,1.63,10.21,6.15A19,19,0,0,1,629,201.52a22.1,22.1,0,0,1-1.61,8.74,18.92,18.92,0,0,1-4.25,6.3,17.39,17.39,0,0,1-6.06,3.81,20.35,20.35,0,0,1-7.15,1.27h-17.2ZM606.23,179q5.08,0,6.79-2.34t1.71-7.21a27.9,27.9,0,0,0-.36-5,5.64,5.64,0,0,0-1.35-2.95,4.77,4.77,0,0,0-2.64-1.32,23.52,23.52,0,0,0-4.15-.3Zm0,32.11a16.06,16.06,0,0,0,4.87-.61,5.73,5.73,0,0,0,2.85-1.88,7,7,0,0,0,1.3-3.3,32.78,32.78,0,0,0,.31-4.88,23.85,23.85,0,0,0-.36-4.37,7.41,7.41,0,0,0-1.4-3.25,6.25,6.25,0,0,0-2.85-2,14.06,14.06,0,0,0-4.72-.66Z"/><path class="cls-1" d="M633.18,149.3h30.47v11.18h-17V179h12.54v11.79H646.65v19.71h17.72v11.18H633.18Z"/><path class="cls-1" d="M670,149.3H685.1a33.28,33.28,0,0,1,8.71,1.07,16.76,16.76,0,0,1,6.74,3.51,16.16,16.16,0,0,1,4.35,6.35,26.08,26.08,0,0,1,1.55,9.6,34.59,34.59,0,0,1-.36,4.88,23.09,23.09,0,0,1-1.3,5,18.75,18.75,0,0,1-2.44,4.47,12.31,12.31,0,0,1-3.78,3.35l8,34.14H693l-6.32-31.09h-3.21v31.09H670ZM683.44,180h2.69a5.56,5.56,0,0,0,3.16-.86,7,7,0,0,0,2.12-2.23,9.88,9.88,0,0,0,1.19-3.2,19.32,19.32,0,0,0,.36-3.76q0-5.89-2-8a7.23,7.23,0,0,0-5.44-2.08h-2.07Z"/><path class="cls-1" d="M3.29,278.6a96,96,0,0,1,1.4-17.88,36.48,36.48,0,0,1,4-11.58,15.86,15.86,0,0,1,6.22-6.25A17.3,17.3,0,0,1,23,241a17.31,17.31,0,0,1,8.08,1.88,15.88,15.88,0,0,1,6.22,6.25,36.5,36.5,0,0,1,4,11.58,96,96,0,0,1,1.4,17.88,96,96,0,0,1-1.4,17.88,36.47,36.47,0,0,1-4,11.58,15.86,15.86,0,0,1-6.22,6.25A17.33,17.33,0,0,1,23,316.2a17.32,17.32,0,0,1-8.08-1.88,15.85,15.85,0,0,1-6.22-6.25,36.44,36.44,0,0,1-4-11.58A96,96,0,0,1,3.29,278.6ZM18,286.22q0,5.89.36,9.55a32,32,0,0,0,1,5.74,5.42,5.42,0,0,0,1.55,2.79,3.38,3.38,0,0,0,4.15,0,5.42,5.42,0,0,0,1.55-2.79,32.15,32.15,0,0,0,1-5.74q.36-3.66.36-9.55V271q0-5.89-.36-9.55a30.93,30.93,0,0,0-1-5.69,5.74,5.74,0,0,0-1.55-2.79,3.2,3.2,0,0,0-4.15,0,5.74,5.74,0,0,0-1.55,2.79,30.77,30.77,0,0,0-1,5.69Q18,265.09,18,271Z"/><path class="cls-1" d="M47.7,242.43H77.85v11.18H61.17v19.3H73.5V284.7H61.17v30.07H47.7Z"/><path class="cls-1" d="M116.82,300.85a24,24,0,0,1-.88,7,10.42,10.42,0,0,1-2.69,4.57,10.17,10.17,0,0,1-4.66,2.44,28.92,28.92,0,0,1-6.89.71,33.73,33.73,0,0,1-3.83-.2L94.43,315V303.5a32.87,32.87,0,0,0,4.56.3,3.66,3.66,0,0,0,3.21-1.68,8.13,8.13,0,0,0,1.14-4.62V242.43h13.47Z"/><path class="cls-1" d="M123.18,242.43h13.47v56a18,18,0,0,0,.16,2.39,6.16,6.16,0,0,0,.67,2.13,3.87,3.87,0,0,0,1.45,1.52,4.58,4.58,0,0,0,2.38.56,4,4,0,0,0,3.89-2,9.44,9.44,0,0,0,1.09-4.62v-56h11.4v54.25q0,10.67-4.56,15.09t-12.64,4.42a22.12,22.12,0,0,1-7.1-1.07,13.79,13.79,0,0,1-5.44-3.35,15.13,15.13,0,0,1-3.52-6,28.86,28.86,0,0,1-1.24-9.09Z"/><path class="cls-1" d="M164.26,242.43h15.13a33.28,33.28,0,0,1,8.71,1.07,16.76,16.76,0,0,1,6.74,3.51,16.16,16.16,0,0,1,4.35,6.35,26.08,26.08,0,0,1,1.55,9.6,34.59,34.59,0,0,1-.36,4.88,23.09,23.09,0,0,1-1.3,5,18.75,18.75,0,0,1-2.44,4.47,12.31,12.31,0,0,1-3.78,3.35l8,34.14H187.27l-6.32-31.09h-3.21v31.09H164.26Zm13.47,30.68h2.69a5.56,5.56,0,0,0,3.16-.86,7,7,0,0,0,2.12-2.23,9.88,9.88,0,0,0,1.19-3.2,19.32,19.32,0,0,0,.36-3.76q0-5.89-2-8A7.23,7.23,0,0,0,179.8,253h-2.07Z"/><path class="cls-1" d="M211.84,286.83l-12.33-44.4h13.37l6.43,28.35h.21l6.84-28.35h11.3l-12.33,43.18v29.16H211.84Z"/><path class="cls-1" d="M260.75,242.43h19.48l9.12,72.34h-13l-2-16.05H263.55l-1.87,16.05h-11.3Zm8.6,11.18h-.21l-4.25,34.54h8.39Z"/><path class="cls-1" d="M299.82,253.61H288.21V242.43H324.9v11.18H313.29v61.16H299.82Z"/><path class="cls-1" d="M346.66,242.43h19.48l9.12,72.34h-13l-2-16.05H349.46l-1.87,16.05H336.3Zm8.6,11.18h-.21l-4.25,34.54h8.39Z"/><path class="cls-1" d="M378.62,242.43h13.47V303.6h17.2v11.18H378.62Z"/><path class="cls-1" d="M413,242.43H426.5V303.6h17.2v11.18H413Z"/><path class="cls-1" d="M462.87,242.43H480.8l6,37.08H487l6.32-37.08h17.51v72.34h-12v-53h-.21l-9.12,53H482l-9-53h-.21v53h-9.95Z"/><path class="cls-1" d="M524.28,242.43h19.48l9.12,72.34h-13l-2-16.05H527.08l-1.87,16.05h-11.3Zm8.6,11.18h-.21l-4.25,34.54h8.39Z"/><path class="cls-1" d="M579,300.85a24,24,0,0,1-.88,7,10.42,10.42,0,0,1-2.69,4.57,10.17,10.17,0,0,1-4.66,2.44,28.92,28.92,0,0,1-6.89.71,33.73,33.73,0,0,1-3.83-.2l-3.42-.41V303.5a32.87,32.87,0,0,0,4.56.3,3.66,3.66,0,0,0,3.21-1.68,8.13,8.13,0,0,0,1.14-4.62V242.43H579Z"/><path class="cls-1" d="M583.94,278.6a96,96,0,0,1,1.4-17.88,36.48,36.48,0,0,1,4-11.58,15.86,15.86,0,0,1,6.22-6.25,18.32,18.32,0,0,1,16.17,0,15.88,15.88,0,0,1,6.22,6.25,36.5,36.5,0,0,1,4,11.58,96,96,0,0,1,1.4,17.88,96,96,0,0,1-1.4,17.88,36.47,36.47,0,0,1-4,11.58,15.86,15.86,0,0,1-6.22,6.25,18.32,18.32,0,0,1-16.17,0,15.85,15.85,0,0,1-6.22-6.25,36.44,36.44,0,0,1-4-11.58A96,96,0,0,1,583.94,278.6Zm14.72,7.62q0,5.89.36,9.55a32,32,0,0,0,1,5.74,5.42,5.42,0,0,0,1.55,2.79,3.38,3.38,0,0,0,4.15,0,5.42,5.42,0,0,0,1.55-2.79,32.15,32.15,0,0,0,1-5.74q.36-3.66.36-9.55V271q0-5.89-.36-9.55a30.93,30.93,0,0,0-1-5.69,5.74,5.74,0,0,0-1.55-2.79,3.2,3.2,0,0,0-4.15,0,5.74,5.74,0,0,0-1.55,2.79,30.77,30.77,0,0,0-1,5.69q-.36,3.66-.36,9.55Z"/><path class="cls-1" d="M628.34,242.43h15.13a33.28,33.28,0,0,1,8.71,1.07,16.76,16.76,0,0,1,6.74,3.51,16.16,16.16,0,0,1,4.35,6.35,26.08,26.08,0,0,1,1.55,9.6,34.59,34.59,0,0,1-.36,4.88,23.09,23.09,0,0,1-1.3,5,18.75,18.75,0,0,1-2.44,4.47,12.31,12.31,0,0,1-3.78,3.35l8,34.14H651.35L645,283.68h-3.21v31.09H628.34Zm13.47,30.68h2.69a5.56,5.56,0,0,0,3.16-.86A7,7,0,0,0,649.8,270a9.88,9.88,0,0,0,1.19-3.2,19.32,19.32,0,0,0,.36-3.76q0-5.89-2-8a7.23,7.23,0,0,0-5.44-2.08h-2.07Z"/><path class="cls-1" d="M11.89,335.57H31.38l9.12,72.34h-13l-2-16.05H14.69l-1.87,16.05H1.53Zm8.6,11.18h-.21L16,381.29h8.39Z"/><path class="cls-1" d="M43.85,335.57H55.56q8.5,0,13.42,2.59a17.52,17.52,0,0,1,7.46,7.32,30.37,30.37,0,0,1,3.21,11.38,149,149,0,0,1,.67,14.88q0,7.83-.62,14.48a34.27,34.27,0,0,1-2.9,11.48A17,17,0,0,1,70,405.21q-4.51,2.69-12.28,2.69H43.85Zm13.47,61.16a11.55,11.55,0,0,0,5-.86,5.6,5.6,0,0,0,2.64-3.5A29.1,29.1,0,0,0,66,384.79q.21-4.93.21-13.16T66,358.53a28.22,28.22,0,0,0-1.09-7.47,5.58,5.58,0,0,0-2.64-3.45,11.57,11.57,0,0,0-5-.86Z"/><path class="cls-1" d="M83.23,335.57H96.39l6.32,50.8h.21l6.94-50.8h10.88l-11.09,72.34H94.22Z"/><path class="cls-1" d="M126,335.57H156.5v11.18h-17v18.49H152V377H139.5v19.71h17.72v11.18H126Z"/><path class="cls-1" d="M160.72,335.57h15.13a33.28,33.28,0,0,1,8.71,1.07,16.76,16.76,0,0,1,6.74,3.51,16.16,16.16,0,0,1,4.35,6.35,26.08,26.08,0,0,1,1.55,9.6,34.59,34.59,0,0,1-.36,4.88,23.09,23.09,0,0,1-1.3,5,18.75,18.75,0,0,1-2.44,4.47,12.31,12.31,0,0,1-3.78,3.35l8,34.14H183.72l-6.32-31.09h-3.21v31.09H160.72Zm13.47,30.68h2.69a5.56,5.56,0,0,0,3.16-.86,7,7,0,0,0,2.12-2.23,9.88,9.88,0,0,0,1.19-3.2,19.32,19.32,0,0,0,.36-3.76q0-5.89-2-8a7.23,7.23,0,0,0-5.44-2.08h-2.07Z"/><path class="cls-1" d="M211.5,346.74H199.89V335.57h36.69v11.18H225v61.16H211.5Z"/><path class="cls-1" d="M240.93,335.57H254.4v72.34H240.93Z"/><path class="cls-1" d="M273.05,387q0,1.52.1,3.45a15.49,15.49,0,0,0,.62,3.66,6.63,6.63,0,0,0,1.71,2.9,4.61,4.61,0,0,0,3.37,1.17,5.49,5.49,0,0,0,2.8-.66,5.64,5.64,0,0,0,1.87-1.73,7.22,7.22,0,0,0,1-2.29,9.43,9.43,0,0,0,.31-2.34,9.73,9.73,0,0,0-1.81-5.79,28.32,28.32,0,0,0-4.51-4.88q-2.7-2.33-5.91-4.78a40.65,40.65,0,0,1-5.91-5.49,28.18,28.18,0,0,1-4.51-7,22.28,22.28,0,0,1-1.81-9.35,25.28,25.28,0,0,1,1.14-7.67,18.45,18.45,0,0,1,3.32-6.25,15.89,15.89,0,0,1,5.44-4.22,19,19,0,0,1,15.29.05,14,14,0,0,1,5.23,4.52,20.48,20.48,0,0,1,3,7,41.83,41.83,0,0,1,1.09,8.94h-12q0-1.52-.1-3.4a16.68,16.68,0,0,0-.57-3.56,6.14,6.14,0,0,0-1.61-2.79,4.26,4.26,0,0,0-3.11-1.12,4.37,4.37,0,0,0-3.73,1.83,7.86,7.86,0,0,0-1.35,4.78,9.4,9.4,0,0,0,1.81,5.59,29.52,29.52,0,0,0,4.51,4.93q2.69,2.39,5.91,4.93a42.43,42.43,0,0,1,5.91,5.69,30.27,30.27,0,0,1,4.51,7.11,22,22,0,0,1,1.81,9.25,24.65,24.65,0,0,1-1.19,7.77,18.24,18.24,0,0,1-3.52,6.3,16.65,16.65,0,0,1-5.8,4.27,19.29,19.29,0,0,1-8,1.58,16.46,16.46,0,0,1-8.76-2.08,15.43,15.43,0,0,1-5.29-5.33,21,21,0,0,1-2.59-7.21A45.92,45.92,0,0,1,261,387Z"/><path class="cls-1" d="M302.38,335.57h13.47v72.34H302.38Z"/><path class="cls-1" d="M322.26,335.57h13.16l12.33,38.2H348v-38.2h10.78v72.34H348.27l-14.4-43.79h-.21v43.79h-11.4Z"/><path class="cls-1" d="M388.55,361.37q0-1.22.05-3.91a31.55,31.55,0,0,0-.36-5.38,15.64,15.64,0,0,0-1.45-4.72,3.4,3.4,0,0,0-3.21-2,3.69,3.69,0,0,0-2.33.86,7.14,7.14,0,0,0-1.87,3.61,43.58,43.58,0,0,0-1.19,7.93q-.42,5.18-.41,13.92,0,8.94.41,14.17a40.12,40.12,0,0,0,1.24,8,6.53,6.53,0,0,0,2,3.56,4.75,4.75,0,0,0,2.75.81,3.51,3.51,0,0,0,3-1.62,11,11,0,0,0,1.66-3.81,27.44,27.44,0,0,0,.67-4.42q.16-2.23.16-3.56h-5V374.18h16.37v33.73h-5.7l-1.87-4.78a16.08,16.08,0,0,1-4.35,4.27,10.88,10.88,0,0,1-6.32,1.93,15.59,15.59,0,0,1-9.07-2.54,17.67,17.67,0,0,1-5.91-7.37,42.32,42.32,0,0,1-3.21-11.79,114.33,114.33,0,0,1-1-15.9,86.9,86.9,0,0,1,1.5-17.53,39.49,39.49,0,0,1,4.09-11.63,16.9,16.9,0,0,1,6.06-6.45,14.91,14.91,0,0,1,7.51-2,23.36,23.36,0,0,1,6.43.92,13,13,0,0,1,5.7,3.4,18.13,18.13,0,0,1,4,6.91,34.71,34.71,0,0,1,1.55,11.33v4.67Z"/><path class="cls-1" d="M421.71,335.57h30.16v11.18H435.18V366h12.33v11.79H435.18v30.07H421.71Z"/><path class="cls-1" d="M456.95,335.57h30.47v11.18h-17v18.49H483V377H470.42v19.71h17.72v11.18H456.95Z"/><path class="cls-1" d="M502,387q0,1.52.1,3.45a15.49,15.49,0,0,0,.62,3.66,6.63,6.63,0,0,0,1.71,2.9,4.61,4.61,0,0,0,3.37,1.17,5.49,5.49,0,0,0,2.8-.66,5.64,5.64,0,0,0,1.87-1.73,7.22,7.22,0,0,0,1-2.29,9.43,9.43,0,0,0,.31-2.34,9.73,9.73,0,0,0-1.81-5.79,28.32,28.32,0,0,0-4.51-4.88q-2.7-2.33-5.91-4.78a40.65,40.65,0,0,1-5.91-5.49,28.18,28.18,0,0,1-4.51-7,22.28,22.28,0,0,1-1.81-9.35,25.28,25.28,0,0,1,1.14-7.67,18.45,18.45,0,0,1,3.32-6.25,15.89,15.89,0,0,1,5.44-4.22,19,19,0,0,1,15.29.05,14,14,0,0,1,5.23,4.52,20.48,20.48,0,0,1,3,7,41.83,41.83,0,0,1,1.09,8.94h-12q0-1.52-.1-3.4a16.68,16.68,0,0,0-.57-3.56,6.14,6.14,0,0,0-1.61-2.79,4.26,4.26,0,0,0-3.11-1.12,4.37,4.37,0,0,0-3.73,1.83,7.86,7.86,0,0,0-1.35,4.78,9.4,9.4,0,0,0,1.81,5.59,29.52,29.52,0,0,0,4.51,4.93q2.69,2.39,5.91,4.93a42.43,42.43,0,0,1,5.91,5.69,30.27,30.27,0,0,1,4.51,7.11,22,22,0,0,1,1.81,9.25,24.65,24.65,0,0,1-1.19,7.77,18.24,18.24,0,0,1-3.52,6.3,16.65,16.65,0,0,1-5.8,4.27,19.29,19.29,0,0,1-8,1.58,16.46,16.46,0,0,1-8.76-2.08,15.43,15.43,0,0,1-5.29-5.33,21,21,0,0,1-2.59-7.21A45.92,45.92,0,0,1,490,387Z"/><path class="cls-1" d="M539,346.74H527.39V335.57h36.69v11.18H552.47v61.16H539Z"/><path class="cls-1" d="M570.51,335.57H584v72.34H570.51Z"/><path class="cls-1" d="M589.06,335.57h13.16l6.32,50.8h.21l6.94-50.8h10.88l-11.09,72.34H600Z"/><path class="cls-1" d="M634.88,335.57h19.48l9.12,72.34h-13l-2-16.05H637.68l-1.87,16.05h-11.3Zm8.6,11.18h-.21L639,381.29h8.39Z"/><path class="cls-1" d="M666.84,335.57h13.47v61.16h17.2v11.18H666.84Z"/><path class="cls-1" d="M711.55,387q0,1.52.1,3.45a15.49,15.49,0,0,0,.62,3.66A6.63,6.63,0,0,0,714,397a4.61,4.61,0,0,0,3.37,1.17,5.49,5.49,0,0,0,2.8-.66,5.64,5.64,0,0,0,1.87-1.73,7.22,7.22,0,0,0,1-2.29,9.43,9.43,0,0,0,.31-2.34,9.73,9.73,0,0,0-1.81-5.79,28.32,28.32,0,0,0-4.51-4.88q-2.7-2.33-5.91-4.78a40.65,40.65,0,0,1-5.91-5.49,28.18,28.18,0,0,1-4.51-7,22.28,22.28,0,0,1-1.81-9.35,25.28,25.28,0,0,1,1.14-7.67,18.45,18.45,0,0,1,3.32-6.25,15.89,15.89,0,0,1,5.44-4.22,19,19,0,0,1,15.29.05,14,14,0,0,1,5.23,4.52,20.48,20.48,0,0,1,3,7,41.83,41.83,0,0,1,1.09,8.94h-12q0-1.52-.1-3.4a16.68,16.68,0,0,0-.57-3.56,6.14,6.14,0,0,0-1.61-2.79,4.26,4.26,0,0,0-3.11-1.12,4.37,4.37,0,0,0-3.73,1.83,7.86,7.86,0,0,0-1.35,4.78,9.4,9.4,0,0,0,1.81,5.59,29.52,29.52,0,0,0,4.51,4.93q2.69,2.39,5.91,4.93a42.43,42.43,0,0,1,5.91,5.69,30.27,30.27,0,0,1,4.51,7.11,22,22,0,0,1,1.81,9.25,24.65,24.65,0,0,1-1.19,7.77,18.24,18.24,0,0,1-3.52,6.3,16.65,16.65,0,0,1-5.8,4.27,19.29,19.29,0,0,1-8,1.58,16.46,16.46,0,0,1-8.76-2.08,15.43,15.43,0,0,1-5.29-5.33,21,21,0,0,1-2.59-7.21,45.92,45.92,0,0,1-.67-7.72Z"/><path class="cls-1" d="M738.92,394.7h13.47v13.21H738.92Z"/><path class="cls-1" d="M4.74,428.7H18.21V501H4.74Z"/><path class="cls-1" d="M24.62,428.7H37.78l12.33,38.2h.21V428.7H61.1V501H50.63l-14.4-43.79H36V501H24.62Z"/><path class="cls-1" d="M90.6,454.91q0-9-1.19-12.75t-3.68-3.71a3.83,3.83,0,0,0-2.07.66q-1,.66-1.81,3.3a43.92,43.92,0,0,0-1.24,7.92q-.47,5.29-.47,14.53,0,8.94.31,14.17a52.71,52.71,0,0,0,.93,8q.62,2.74,1.71,3.5a4.49,4.49,0,0,0,2.64.76q3.32,0,4.4-4.62a64.62,64.62,0,0,0,1.3-12.55l11.4.51a92.93,92.93,0,0,1-.52,9.7,28,28,0,0,1-2.38,8.94,17.09,17.09,0,0,1-5.34,6.6q-3.47,2.59-9.38,2.59a15.59,15.59,0,0,1-9.07-2.54,17.67,17.67,0,0,1-5.91-7.37A42.32,42.32,0,0,1,67,480.77a114.33,114.33,0,0,1-1-15.9,86.9,86.9,0,0,1,1.5-17.53,39.49,39.49,0,0,1,4.09-11.63,16.9,16.9,0,0,1,6.06-6.45,14.91,14.91,0,0,1,7.51-2q5.8,0,9.28,2.39a15.4,15.4,0,0,1,5.29,6.25,27.22,27.22,0,0,1,2.33,8.74,93.28,93.28,0,0,1,.52,9.86Z"/><path class="cls-1" d="M108,428.7h13.47v61.16h17.2V501H108Z"/><path class="cls-1" d="M141.92,428.7h13.47v56a18,18,0,0,0,.16,2.39,6.16,6.16,0,0,0,.67,2.13,3.87,3.87,0,0,0,1.45,1.52,4.58,4.58,0,0,0,2.38.56,4,4,0,0,0,3.89-2,9.44,9.44,0,0,0,1.09-4.62v-56h11.4V483q0,10.67-4.56,15.09t-12.64,4.42a22.12,22.12,0,0,1-7.1-1.07,13.79,13.79,0,0,1-5.44-3.35,15.13,15.13,0,0,1-3.52-6,28.86,28.86,0,0,1-1.24-9.09Z"/><path class="cls-1" d="M183,428.7h11.71q8.5,0,13.42,2.59a17.52,17.52,0,0,1,7.46,7.32A30.37,30.37,0,0,1,218.8,450a149,149,0,0,1,.67,14.88q0,7.83-.62,14.48a34.27,34.27,0,0,1-2.9,11.48,17,17,0,0,1-6.79,7.52Q204.66,501,196.88,501H183Zm13.47,61.16a11.55,11.55,0,0,0,5-.86,5.6,5.6,0,0,0,2.64-3.5,29.1,29.1,0,0,0,1.09-7.57q.21-4.93.21-13.16t-.21-13.11a28.22,28.22,0,0,0-1.09-7.47,5.58,5.58,0,0,0-2.64-3.45,11.57,11.57,0,0,0-5-.86Z"/><path class="cls-1" d="M224.92,428.7h13.47V501H224.92Z"/><path class="cls-1" d="M244.79,428.7H258l12.33,38.2h.21V428.7h10.78V501H270.81l-14.4-43.79h-.21V501h-11.4Z"/><path class="cls-1" d="M311.09,454.51q0-1.22.05-3.91a31.55,31.55,0,0,0-.36-5.38,15.64,15.64,0,0,0-1.45-4.72,3.4,3.4,0,0,0-3.21-2,3.69,3.69,0,0,0-2.33.86,7.14,7.14,0,0,0-1.87,3.61,43.58,43.58,0,0,0-1.19,7.93q-.42,5.18-.41,13.92,0,8.94.41,14.17a40.12,40.12,0,0,0,1.24,8,6.53,6.53,0,0,0,2,3.56,4.75,4.75,0,0,0,2.75.81,3.51,3.51,0,0,0,3-1.62,11,11,0,0,0,1.66-3.81,27.44,27.44,0,0,0,.67-4.42q.16-2.23.16-3.56h-5V467.31h16.37V501h-5.7l-1.87-4.78a16.08,16.08,0,0,1-4.35,4.27,10.88,10.88,0,0,1-6.32,1.93,15.59,15.59,0,0,1-9.07-2.54,17.67,17.67,0,0,1-5.91-7.37,42.32,42.32,0,0,1-3.21-11.79,114.33,114.33,0,0,1-1-15.9,86.9,86.9,0,0,1,1.5-17.53,39.49,39.49,0,0,1,4.09-11.63,16.9,16.9,0,0,1,6.06-6.45,14.91,14.91,0,0,1,7.51-2,23.36,23.36,0,0,1,6.43.92,13,13,0,0,1,5.7,3.4,18.13,18.13,0,0,1,4,6.91,34.71,34.71,0,0,1,1.55,11.33v4.67Z"/><path class="cls-1" d="M365,487.12a24,24,0,0,1-.88,7,10.42,10.42,0,0,1-2.69,4.57,10.17,10.17,0,0,1-4.66,2.44,28.92,28.92,0,0,1-6.89.71,33.73,33.73,0,0,1-3.83-.2l-3.42-.41V489.76a32.87,32.87,0,0,0,4.56.3,3.66,3.66,0,0,0,3.21-1.68,8.13,8.13,0,0,0,1.14-4.62V428.7H365Z"/><path class="cls-1" d="M371.34,428.7h13.47v56a18,18,0,0,0,.16,2.39,6.16,6.16,0,0,0,.67,2.13,3.87,3.87,0,0,0,1.45,1.52,4.58,4.58,0,0,0,2.38.56,4,4,0,0,0,3.89-2,9.44,9.44,0,0,0,1.09-4.62v-56h11.4V483q0,10.67-4.56,15.09t-12.64,4.42a22.12,22.12,0,0,1-7.1-1.07A13.79,13.79,0,0,1,376.1,498a15.13,15.13,0,0,1-3.52-6,28.86,28.86,0,0,1-1.24-9.09Z"/><path class="cls-1" d="M412.42,428.7h11.71q8.5,0,13.42,2.59a17.52,17.52,0,0,1,7.46,7.32A30.37,30.37,0,0,1,448.22,450a149,149,0,0,1,.67,14.88q0,7.83-.62,14.48a34.27,34.27,0,0,1-2.9,11.48,17,17,0,0,1-6.79,7.52Q434.08,501,426.3,501H412.42Zm13.47,61.16a11.55,11.55,0,0,0,5-.86,5.6,5.6,0,0,0,2.64-3.5,29.1,29.1,0,0,0,1.09-7.57q.21-4.93.21-13.16t-.21-13.11a28.22,28.22,0,0,0-1.09-7.47,5.58,5.58,0,0,0-2.64-3.45,11.57,11.57,0,0,0-5-.86Z"/><path class="cls-1" d="M477.45,454.51q0-1.22.05-3.91a31.55,31.55,0,0,0-.36-5.38,15.64,15.64,0,0,0-1.45-4.72,3.4,3.4,0,0,0-3.21-2,3.69,3.69,0,0,0-2.33.86,7.14,7.14,0,0,0-1.87,3.61,43.58,43.58,0,0,0-1.19,7.93q-.42,5.18-.41,13.92,0,8.94.41,14.17a40.12,40.12,0,0,0,1.24,8,6.53,6.53,0,0,0,2,3.56,4.75,4.75,0,0,0,2.75.81,3.51,3.51,0,0,0,3-1.62,11,11,0,0,0,1.66-3.81,27.44,27.44,0,0,0,.67-4.42q.16-2.23.16-3.56h-5V467.31H490V501h-5.7l-1.87-4.78a16.08,16.08,0,0,1-4.35,4.27,10.88,10.88,0,0,1-6.32,1.93,15.59,15.59,0,0,1-9.07-2.54,17.67,17.67,0,0,1-5.91-7.37,42.32,42.32,0,0,1-3.21-11.79,114.33,114.33,0,0,1-1-15.9,86.9,86.9,0,0,1,1.5-17.53,39.49,39.49,0,0,1,4.09-11.63,16.9,16.9,0,0,1,6.06-6.45,14.91,14.91,0,0,1,7.51-2,23.36,23.36,0,0,1,6.43.92,13,13,0,0,1,5.7,3.4,18.13,18.13,0,0,1,4,6.91,34.71,34.71,0,0,1,1.55,11.33v4.67Z"/><path class="cls-1" d="M495.49,428.7H509V501H495.49Z"/><path class="cls-1" d="M515.36,428.7h13.16l12.33,38.2h.21V428.7h10.78V501H541.38L527,457.25h-.21V501h-11.4Z"/><path class="cls-1" d="M581.66,454.51q0-1.22.05-3.91a31.55,31.55,0,0,0-.36-5.38,15.64,15.64,0,0,0-1.45-4.72,3.4,3.4,0,0,0-3.21-2,3.69,3.69,0,0,0-2.33.86,7.14,7.14,0,0,0-1.87,3.61,43.58,43.58,0,0,0-1.19,7.93q-.42,5.18-.41,13.92,0,8.94.41,14.17a40.12,40.12,0,0,0,1.24,8,6.53,6.53,0,0,0,2,3.56,4.75,4.75,0,0,0,2.75.81,3.51,3.51,0,0,0,3-1.62,11,11,0,0,0,1.66-3.81,27.44,27.44,0,0,0,.67-4.42q.16-2.23.16-3.56h-5V467.31H594.2V501h-5.7l-1.87-4.78a16.08,16.08,0,0,1-4.35,4.27,10.88,10.88,0,0,1-6.32,1.93,15.59,15.59,0,0,1-9.07-2.54,17.67,17.67,0,0,1-5.91-7.37,42.32,42.32,0,0,1-3.21-11.79,114.33,114.33,0,0,1-1-15.9,86.9,86.9,0,0,1,1.5-17.53,39.49,39.49,0,0,1,4.09-11.63,16.9,16.9,0,0,1,6.06-6.45,14.91,14.91,0,0,1,7.51-2,23.36,23.36,0,0,1,6.43.92,13,13,0,0,1,5.7,3.4,18.13,18.13,0,0,1,4,6.91,34.71,34.71,0,0,1,1.55,11.33v4.67Z"/><path class="cls-1" d="M616.89,428.7H647v11.18H630.36v19.3H642.7V471H630.36V501H616.89Z"/><path class="cls-1" d="M651.92,428.7h13.47V501H651.92Z"/><path class="cls-1" d="M672,428.7H685.5v61.16h17.2V501H672Z"/><path class="cls-1" d="M706.2,428.7h17.93l6,37.08h.21l6.32-37.08h17.51V501h-12V448H742l-9.12,53h-7.46l-9-53h-.21v53H706.2Z"/><path class="cls-1" d="M5.26,521.84H18.73V583h17.2v11.18H5.26Z"/><path class="cls-1" d="M41.53,521.84H55v72.34H41.53Z"/><path class="cls-1" d="M60,558a96,96,0,0,1,1.4-17.88,36.48,36.48,0,0,1,4-11.58,15.86,15.86,0,0,1,6.22-6.25,18.32,18.32,0,0,1,16.17,0A15.88,15.88,0,0,1,94,528.54a36.5,36.5,0,0,1,4,11.58,115,115,0,0,1,0,35.76,36.47,36.47,0,0,1-4,11.58,15.86,15.86,0,0,1-6.22,6.25,18.32,18.32,0,0,1-16.17,0,15.85,15.85,0,0,1-6.22-6.25,36.44,36.44,0,0,1-4-11.58A96,96,0,0,1,60,558Zm14.72,7.62q0,5.89.36,9.55a32,32,0,0,0,1,5.74,5.42,5.42,0,0,0,1.55,2.79,3.38,3.38,0,0,0,4.15,0,5.42,5.42,0,0,0,1.55-2.79,32.15,32.15,0,0,0,1-5.74q.36-3.66.36-9.55V550.39q0-5.89-.36-9.55a30.93,30.93,0,0,0-1-5.69,5.74,5.74,0,0,0-1.55-2.79,3.2,3.2,0,0,0-4.15,0,5.74,5.74,0,0,0-1.55,2.79,30.77,30.77,0,0,0-1,5.69q-.36,3.66-.36,9.55Z"/><path class="cls-1" d="M104.2,521.84h13.16L129.69,560h.21v-38.2h10.78v72.34H130.21l-14.4-43.79h-.21v43.79H104.2Z"/><path class="cls-1" d="M157.14,573.25q0,1.52.1,3.45a15.49,15.49,0,0,0,.62,3.66,6.63,6.63,0,0,0,1.71,2.9,4.61,4.61,0,0,0,3.37,1.17,5.49,5.49,0,0,0,2.8-.66,5.64,5.64,0,0,0,1.87-1.73,7.22,7.22,0,0,0,1-2.29,9.43,9.43,0,0,0,.31-2.34,9.73,9.73,0,0,0-1.81-5.79,28.32,28.32,0,0,0-4.51-4.88q-2.7-2.33-5.91-4.78a40.65,40.65,0,0,1-5.91-5.49,28.18,28.18,0,0,1-4.51-7,22.28,22.28,0,0,1-1.81-9.35,25.28,25.28,0,0,1,1.14-7.67,18.45,18.45,0,0,1,3.32-6.25A15.89,15.89,0,0,1,154.4,522a19,19,0,0,1,15.29.05,14,14,0,0,1,5.23,4.52,20.48,20.48,0,0,1,3,7,41.83,41.83,0,0,1,1.09,8.94H167q0-1.52-.1-3.4a16.68,16.68,0,0,0-.57-3.56,6.14,6.14,0,0,0-1.61-2.79,4.26,4.26,0,0,0-3.11-1.12,4.37,4.37,0,0,0-3.73,1.83,7.86,7.86,0,0,0-1.35,4.78,9.4,9.4,0,0,0,1.81,5.59,29.52,29.52,0,0,0,4.51,4.93q2.69,2.39,5.91,4.93a42.43,42.43,0,0,1,5.91,5.69,30.27,30.27,0,0,1,4.51,7.11,22,22,0,0,1,1.81,9.25,24.65,24.65,0,0,1-1.19,7.77,18.24,18.24,0,0,1-3.52,6.3,16.65,16.65,0,0,1-5.8,4.27,19.29,19.29,0,0,1-8,1.58,16.46,16.46,0,0,1-8.76-2.08,15.43,15.43,0,0,1-5.29-5.33,21,21,0,0,1-2.59-7.21,45.92,45.92,0,0,1-.67-7.72Z"/><path class="cls-1" d="M208.85,521.84h19.48l9.12,72.34h-13l-2-16.05H211.65l-1.87,16.05h-11.3Zm8.6,11.18h-.21L213,567.56h8.39Z"/><path class="cls-1" d="M247.92,533H236.31V521.84H273V533H261.39v61.16H247.92Z"/><path class="cls-1" d="M310.72,548q0-9-1.19-12.75t-3.68-3.71a3.83,3.83,0,0,0-2.07.66q-1,.66-1.81,3.3a43.92,43.92,0,0,0-1.24,7.92q-.47,5.29-.47,14.53,0,8.94.31,14.17a52.71,52.71,0,0,0,.93,8q.62,2.74,1.71,3.5a4.49,4.49,0,0,0,2.64.76q3.32,0,4.4-4.62a64.62,64.62,0,0,0,1.3-12.55l11.4.51a92.93,92.93,0,0,1-.52,9.7A28,28,0,0,1,320,586.4a17.09,17.09,0,0,1-5.34,6.6q-3.47,2.59-9.38,2.59a15.59,15.59,0,0,1-9.07-2.54,17.67,17.67,0,0,1-5.91-7.37,42.32,42.32,0,0,1-3.21-11.79,114.33,114.33,0,0,1-1-15.9,86.9,86.9,0,0,1,1.5-17.53,39.49,39.49,0,0,1,4.09-11.63,16.9,16.9,0,0,1,6.06-6.45,14.91,14.91,0,0,1,7.51-2q5.8,0,9.28,2.39a15.4,15.4,0,0,1,5.29,6.25,27.22,27.22,0,0,1,2.33,8.74,93.28,93.28,0,0,1,.52,9.86Z"/><path class="cls-1" d="M334.64,521.84h19.48l9.12,72.34h-13l-2-16.05H337.44l-1.87,16.05h-11.3Zm8.6,11.18H343l-4.25,34.54h8.39Z"/><path class="cls-1" d="M366.36,521.84h13.16L391.85,560h.21v-38.2h10.78v72.34H392.37L378,550.39h-.21v43.79h-11.4Z"/><path class="cls-1" d="M409.25,521.84h13.16L434.75,560H435v-38.2h10.78v72.34H435.26l-14.4-43.79h-.21v43.79h-11.4Z"/><path class="cls-1" d="M452.37,521.84h30.47V533h-17V551.5h12.54v11.79H465.85V583h17.72v11.18H452.37Z"/><path class="cls-1" d="M497.43,573.25q0,1.52.1,3.45a15.49,15.49,0,0,0,.62,3.66,6.63,6.63,0,0,0,1.71,2.9,4.61,4.61,0,0,0,3.37,1.17,5.49,5.49,0,0,0,2.8-.66A5.64,5.64,0,0,0,507.9,582a7.22,7.22,0,0,0,1-2.29,9.43,9.43,0,0,0,.31-2.34,9.73,9.73,0,0,0-1.81-5.79,28.32,28.32,0,0,0-4.51-4.88q-2.7-2.33-5.91-4.78a40.65,40.65,0,0,1-5.91-5.49,28.18,28.18,0,0,1-4.51-7,22.28,22.28,0,0,1-1.81-9.35,25.28,25.28,0,0,1,1.14-7.67,18.45,18.45,0,0,1,3.32-6.25,15.89,15.89,0,0,1,5.44-4.22A19,19,0,0,1,510,522a14,14,0,0,1,5.23,4.52,20.48,20.48,0,0,1,3,7,41.83,41.83,0,0,1,1.09,8.94h-12q0-1.52-.1-3.4a16.68,16.68,0,0,0-.57-3.56,6.14,6.14,0,0,0-1.61-2.79,4.26,4.26,0,0,0-3.11-1.12,4.37,4.37,0,0,0-3.73,1.83,7.86,7.86,0,0,0-1.35,4.78,9.4,9.4,0,0,0,1.81,5.59,29.52,29.52,0,0,0,4.51,4.93q2.69,2.39,5.91,4.93a42.43,42.43,0,0,1,5.91,5.69,30.27,30.27,0,0,1,4.51,7.11,22,22,0,0,1,1.81,9.25,24.65,24.65,0,0,1-1.19,7.77,18.24,18.24,0,0,1-3.52,6.3,16.65,16.65,0,0,1-5.8,4.27,19.29,19.29,0,0,1-8,1.58,16.46,16.46,0,0,1-8.76-2.08,15.43,15.43,0,0,1-5.29-5.33,21,21,0,0,1-2.59-7.21,45.92,45.92,0,0,1-.67-7.72Z"/><path class="cls-1" d="M538.88,584.83q3.52-5.89,7.36-11.68t7-11.43a80.37,80.37,0,0,0,5.18-11,29.44,29.44,0,0,0,2-10.36q0-1.42-.1-3.1a14.27,14.27,0,0,0-.52-3.1,6.35,6.35,0,0,0-1.24-2.39,3,3,0,0,0-2.38-1q-2.07,0-3.42,2.79t-1.45,10l-11.4-1a30.77,30.77,0,0,1,1.09-8.28,20.82,20.82,0,0,1,3.26-6.86,15.54,15.54,0,0,1,13.06-6.4,16.54,16.54,0,0,1,7.15,1.47,14.74,14.74,0,0,1,5.18,4,17.93,17.93,0,0,1,3.16,5.94,23.73,23.73,0,0,1,1.09,7.26,29.6,29.6,0,0,1-2.49,11.79,74.46,74.46,0,0,1-6.06,11.28,125.17,125.17,0,0,1-7.56,10.41q-4,4.93-7,9.19h21.35v11.79H538.88Z"/><path class="cls-1" d="M613.29,558a90.35,90.35,0,0,1-1.55,18.49,37.49,37.49,0,0,1-4,11.33,14,14,0,0,1-5.65,5.64,14.56,14.56,0,0,1-6.37,1.52,15.2,15.2,0,0,1-6.48-1.47,13.65,13.65,0,0,1-5.65-5.54,35.94,35.94,0,0,1-4-11.28,117.05,117.05,0,0,1,0-37.39,36,36,0,0,1,4-11.28,13.67,13.67,0,0,1,5.65-5.54,15.2,15.2,0,0,1,6.48-1.47A14.18,14.18,0,0,1,602,522.6a14.37,14.37,0,0,1,5.65,5.69,37.47,37.47,0,0,1,4,11.28A89.59,89.59,0,0,1,613.29,558Zm-12.85,0q0-9.45-.36-14.88a57.41,57.41,0,0,0-1-8.18q-.62-2.74-1.5-3.45a2.94,2.94,0,0,0-3.83,0q-.88.71-1.5,3.45a57.18,57.18,0,0,0-1,8.18q-.36,5.44-.36,14.88t.36,14.88a57.14,57.14,0,0,0,1,8.18q.62,2.74,1.5,3.45a2.94,2.94,0,0,0,3.83,0q.88-.71,1.5-3.45a57.37,57.37,0,0,0,1-8.18Q600.44,567.46,600.44,558Z"/><path class="cls-1" d="M614.74,584.42h8.08V536.37l-8.08,1.32v-8q1.66-.71,3.52-1.58t3.78-1.83q1.92-1,3.68-2.08a30,30,0,0,0,3.21-2.34h5.91v62.59h8.08v9.75H614.74Z"/><path class="cls-1" d="M643.34,521.84h32.75v8.43a111.89,111.89,0,0,0-9.53,30.53,216.5,216.5,0,0,0-2.69,33.38H648.52a136.44,136.44,0,0,1,1.92-16.31,150.54,150.54,0,0,1,3.52-15q2.12-7.32,4.87-14.53t5.86-14.73H643.34Z"/><path class="cls-1" d="M672,581h13.47v13.21H672Z"/><path class="cls-1" d="M11.89,615H31.38l9.12,72.34h-13l-2-16.05H14.69l-1.87,16.05H1.53Zm8.6,11.18h-.21L16,660.69h8.39Z"/><path class="cls-1" d="M53.53,666.38q0,1.52.1,3.45a15.49,15.49,0,0,0,.62,3.66,6.63,6.63,0,0,0,1.71,2.9,4.61,4.61,0,0,0,3.37,1.17,5.49,5.49,0,0,0,2.8-.66A5.64,5.64,0,0,0,64,675.17a7.22,7.22,0,0,0,1-2.29,9.43,9.43,0,0,0,.31-2.34,9.73,9.73,0,0,0-1.81-5.79A28.32,28.32,0,0,0,59,659.88q-2.7-2.33-5.91-4.78a40.65,40.65,0,0,1-5.91-5.49,28.18,28.18,0,0,1-4.51-7,22.28,22.28,0,0,1-1.81-9.35A25.28,25.28,0,0,1,42,625.59a18.45,18.45,0,0,1,3.32-6.25,15.89,15.89,0,0,1,5.44-4.22,17.09,17.09,0,0,1,7.51-1.58,17.07,17.07,0,0,1,7.77,1.63,14,14,0,0,1,5.23,4.52,20.48,20.48,0,0,1,3,7,41.83,41.83,0,0,1,1.09,8.94h-12q0-1.52-.1-3.4a16.68,16.68,0,0,0-.57-3.56,6.14,6.14,0,0,0-1.61-2.79A4.26,4.26,0,0,0,58,624.72a4.37,4.37,0,0,0-3.73,1.83,7.86,7.86,0,0,0-1.35,4.78,9.4,9.4,0,0,0,1.81,5.59,29.52,29.52,0,0,0,4.51,4.93q2.69,2.39,5.91,4.93A42.43,42.43,0,0,1,71,652.46a30.27,30.27,0,0,1,4.51,7.11,22,22,0,0,1,1.81,9.25,24.65,24.65,0,0,1-1.19,7.77,18.24,18.24,0,0,1-3.52,6.3,16.65,16.65,0,0,1-5.8,4.27,19.29,19.29,0,0,1-8,1.58,16.46,16.46,0,0,1-8.76-2.08,15.43,15.43,0,0,1-5.29-5.33,21,21,0,0,1-2.59-7.21,45.92,45.92,0,0,1-.67-7.72Z"/><path class="cls-1" d="M81.05,615H94.53V644H103V615H116.5v72.34H103V656.63h-8.5v30.68H81.05Z"/><path class="cls-1" d="M164.06,640.78q0-1.22.05-3.91a31.55,31.55,0,0,0-.36-5.38,15.64,15.64,0,0,0-1.45-4.72,3.4,3.4,0,0,0-3.21-2,3.69,3.69,0,0,0-2.33.86,7.14,7.14,0,0,0-1.87,3.61,43.58,43.58,0,0,0-1.19,7.93q-.42,5.18-.41,13.92,0,8.94.41,14.17a40.12,40.12,0,0,0,1.24,8,6.53,6.53,0,0,0,2,3.56,4.75,4.75,0,0,0,2.75.81,3.51,3.51,0,0,0,3-1.62,11,11,0,0,0,1.66-3.81,27.44,27.44,0,0,0,.67-4.42q.16-2.23.16-3.56h-5V653.58H176.6v33.73h-5.7L169,682.53a16.08,16.08,0,0,1-4.35,4.27,10.88,10.88,0,0,1-6.32,1.93,15.59,15.59,0,0,1-9.07-2.54,17.67,17.67,0,0,1-5.91-7.37A42.32,42.32,0,0,1,140.18,667a114.33,114.33,0,0,1-1-15.9,86.9,86.9,0,0,1,1.5-17.53A39.49,39.49,0,0,1,144.79,622a16.9,16.9,0,0,1,6.06-6.45,14.91,14.91,0,0,1,7.51-2,23.36,23.36,0,0,1,6.43.92,13,13,0,0,1,5.7,3.4,18.13,18.13,0,0,1,4,6.91,34.71,34.71,0,0,1,1.55,11.33v4.67Z"/><path class="cls-1" d="M182.33,615h15.13a33.28,33.28,0,0,1,8.71,1.07,16.76,16.76,0,0,1,6.74,3.51,16.16,16.16,0,0,1,4.35,6.35,26.08,26.08,0,0,1,1.55,9.6,34.59,34.59,0,0,1-.36,4.88,23.09,23.09,0,0,1-1.3,5,18.75,18.75,0,0,1-2.44,4.47,12.31,12.31,0,0,1-3.78,3.35l8,34.14H205.34L199,656.22h-3.21v31.09H182.33Zm13.47,30.68h2.69a5.56,5.56,0,0,0,3.16-.86,7,7,0,0,0,2.12-2.23,9.88,9.88,0,0,0,1.19-3.2,19.32,19.32,0,0,0,.36-3.76q0-5.89-2-8a7.23,7.23,0,0,0-5.44-2.08h-2.07Z"/><path class="cls-1" d="M223.22,615h30.47v11.18h-17v18.49h12.54v11.79H236.69v19.71h17.72v11.18H223.22Z"/><path class="cls-1" d="M257.83,615h12.23l4.77,42.47H275L281.46,615h12.13l5.91,42.47h.21L305,615h9.64L305,687.31H292.75l-6.43-45.82h-.21l-6.63,45.82H267.67Z"/><path class="cls-1" d="M332.75,615h13.47v56a18,18,0,0,0,.16,2.39,6.16,6.16,0,0,0,.67,2.13,3.87,3.87,0,0,0,1.45,1.52,4.58,4.58,0,0,0,2.38.56,4,4,0,0,0,3.89-2,9.44,9.44,0,0,0,1.09-4.62V615h11.4v54.25q0,10.67-4.56,15.09t-12.64,4.42a22.12,22.12,0,0,1-7.1-1.07,13.79,13.79,0,0,1-5.44-3.35,15.13,15.13,0,0,1-3.52-6,28.86,28.86,0,0,1-1.24-9.09Z"/><path class="cls-1" d="M373.83,615h13.47q11.4,0,17.31,5t5.91,16.66a37.36,37.36,0,0,1-1,8.89,18.31,18.31,0,0,1-3.16,6.86,14.69,14.69,0,0,1-5.54,4.42,19.09,19.09,0,0,1-8.14,1.58h-5.39v29H373.83Zm13.58,32.82h1.14a12.88,12.88,0,0,0,3.63-.46,5.6,5.6,0,0,0,2.64-1.68,8.12,8.12,0,0,0,1.66-3.35,21.36,21.36,0,0,0,.57-5.39,19.87,19.87,0,0,0-.73-6.1,7.41,7.41,0,0,0-1.92-3.2,5,5,0,0,0-2.75-1.27,24.9,24.9,0,0,0-3.21-.2h-1Z"/><path class="cls-1" d="M427.51,615H441v72.34H427.51Z"/><path class="cls-1" d="M447.39,615h13.16l12.33,38.2h.21V615h10.78v72.34H473.4L459,643.52h-.21v43.79h-11.4Z"/><path class="cls-1" d="M508,615h11.71q8.5,0,13.42,2.59a17.52,17.52,0,0,1,7.46,7.32,30.37,30.37,0,0,1,3.21,11.38,149,149,0,0,1,.67,14.88q0,7.83-.62,14.48A34.27,34.27,0,0,1,541,677.1a17,17,0,0,1-6.79,7.52q-4.51,2.69-12.28,2.69H508Zm13.47,61.16a11.55,11.55,0,0,0,5-.86,5.6,5.6,0,0,0,2.64-3.5,29.1,29.1,0,0,0,1.09-7.57q.21-4.93.21-13.16t-.21-13.11a28.22,28.22,0,0,0-1.09-7.47,5.58,5.58,0,0,0-2.64-3.45,11.57,11.57,0,0,0-5-.86Z"/><path class="cls-1" d="M549.7,615h13.47v56a18,18,0,0,0,.16,2.39,6.16,6.16,0,0,0,.67,2.13,3.87,3.87,0,0,0,1.45,1.52,4.58,4.58,0,0,0,2.38.56,4,4,0,0,0,3.89-2,9.44,9.44,0,0,0,1.09-4.62V615h11.4v54.25q0,10.67-4.56,15.09T567,688.73a22.12,22.12,0,0,1-7.1-1.07,13.79,13.79,0,0,1-5.44-3.35,15.13,15.13,0,0,1-3.52-6,28.86,28.86,0,0,1-1.24-9.09Z"/><path class="cls-1" d="M590.78,615h16.58a23,23,0,0,1,6.32.91,16,16,0,0,1,10.21,8.69,19.72,19.72,0,0,1,1.71,8.69,18.48,18.48,0,0,1-2.9,10.46q-2.9,4.37-9.12,5.69v.2q6.94,1.63,10.21,6.15a19,19,0,0,1,3.26,11.43,22.1,22.1,0,0,1-1.61,8.74,18.92,18.92,0,0,1-4.25,6.3,17.39,17.39,0,0,1-6.06,3.81,20.35,20.35,0,0,1-7.15,1.27h-17.2Zm13.47,29.67q5.08,0,6.79-2.34t1.71-7.21a27.9,27.9,0,0,0-.36-5,5.64,5.64,0,0,0-1.35-2.95,4.77,4.77,0,0,0-2.64-1.32,23.52,23.52,0,0,0-4.15-.3Zm0,32.11a16.06,16.06,0,0,0,4.87-.61,5.73,5.73,0,0,0,2.85-1.88,7,7,0,0,0,1.3-3.3,32.78,32.78,0,0,0,.31-4.88,23.85,23.85,0,0,0-.36-4.37,7.41,7.41,0,0,0-1.4-3.25,6.25,6.25,0,0,0-2.85-2,14.06,14.06,0,0,0-4.72-.66Z"/><path class="cls-1" d="M638.26,615h19.48l9.12,72.34h-13l-2-16.05H641.06l-1.87,16.05h-11.3Zm8.6,11.18h-.21l-4.25,34.54h8.39Z"/><path class="cls-1" d="M670,615h13.47v72.34H670Z"/><path class="cls-1" d="M689.53,674.1H703v13.21H689.53Z"/></g></g></svg>