<svg xmlns="http://www.w3.org/2000/svg" viewBox="0 0 777.22 251.5"><defs><style>.cls-1{fill:#fff;}</style></defs><title>4-biddi_soldit</title><g id="Layer_2" data-name="Layer 2"><g id="Layer_1-2" data-name="Layer 1"><rect class="cls-1" x="1.85" width="152.13" height="16.84"/><path class="cls-1" d="M2.08,37.63H12.16A13.75,13.75,0,0,1,16,38.2a9.9,9.9,0,0,1,3.56,1.89,10.08,10.08,0,0,1,2.65,3.5,12.44,12.44,0,0,1,1,5.39,11.63,11.63,0,0,1-1.76,6.49A8.37,8.37,0,0,1,15.94,59v.13a10.13,10.13,0,0,1,6.21,3.81,12,12,0,0,1,2,7.09,14,14,0,0,1-1,5.42,11.76,11.76,0,0,1-2.58,3.91,10.55,10.55,0,0,1-3.69,2.36,12.16,12.16,0,0,1-4.35.79H2.08ZM10.27,56q3.09,0,4.13-1.45a7.73,7.73,0,0,0,1-4.47A17.65,17.65,0,0,0,15.21,47a3.53,3.53,0,0,0-.82-1.83,2.88,2.88,0,0,0-1.61-.82,14,14,0,0,0-2.52-.19Zm0,19.91a9.58,9.58,0,0,0,3-.38A3.48,3.48,0,0,0,15,74.4a4.41,4.41,0,0,0,.79-2,20.76,20.76,0,0,0,.19-3,15,15,0,0,0-.22-2.71,4.63,4.63,0,0,0-.85-2,3.79,3.79,0,0,0-1.73-1.23A8.36,8.36,0,0,0,10.27,63Z"/><path class="cls-1" d="M26.72,37.63h8.19V82.49H26.72Z"/><path class="cls-1" d="M39.08,37.63H46.2a17.37,17.37,0,0,1,8.16,1.61,10.75,10.75,0,0,1,4.54,4.54,19.12,19.12,0,0,1,2,7.06q.41,4.13.41,9.23,0,4.85-.38,9a21.59,21.59,0,0,1-1.76,7.12A10.47,10.47,0,0,1,55,80.82a14.3,14.3,0,0,1-7.47,1.67H39.08Zm8.19,37.93a6.9,6.9,0,0,0,3-.54,3.46,3.46,0,0,0,1.61-2.17,18.39,18.39,0,0,0,.66-4.69q.13-3.06.13-8.16t-.13-8.13a17.82,17.82,0,0,0-.66-4.63A3.46,3.46,0,0,0,50.3,45.1a6.92,6.92,0,0,0-3-.54Z"/><path class="cls-1" d="M64.8,37.63h7.12a17.37,17.37,0,0,1,8.16,1.61,10.75,10.75,0,0,1,4.54,4.54,19.12,19.12,0,0,1,2,7.06Q87,55,87,60.06q0,4.85-.38,9a21.59,21.59,0,0,1-1.76,7.12,10.47,10.47,0,0,1-4.13,4.66,14.3,14.3,0,0,1-7.47,1.67H64.8ZM73,75.56A6.9,6.9,0,0,0,76,75a3.46,3.46,0,0,0,1.61-2.17,18.39,18.39,0,0,0,.66-4.69q.13-3.06.13-8.16t-.13-8.13a17.82,17.82,0,0,0-.66-4.63A3.46,3.46,0,0,0,76,45.1a6.92,6.92,0,0,0-3-.54Z"/><path class="cls-1" d="M90.42,37.63h8.19V82.49H90.42Z"/><path class="cls-1" d="M102.44,74.3h8.19v8.19h-8.19Z"/><path class="cls-1" d="M127.6,53.89a29.7,29.7,0,0,0-.72-7.91q-.73-2.3-2.24-2.3a2.3,2.3,0,0,0-1.26.41,3.67,3.67,0,0,0-1.1,2,27.61,27.61,0,0,0-.76,4.91q-.28,3.28-.28,9,0,5.54.19,8.79A33.31,33.31,0,0,0,122,73.8,3.64,3.64,0,0,0,123,76a2.69,2.69,0,0,0,1.61.47q2,0,2.68-2.87a40.87,40.87,0,0,0,.79-7.78l6.93.32a58.66,58.66,0,0,1-.32,6,17.68,17.68,0,0,1-1.45,5.54A10.56,10.56,0,0,1,130,81.77a9.19,9.19,0,0,1-5.7,1.61,9.33,9.33,0,0,1-5.51-1.58,10.91,10.91,0,0,1-3.59-4.57,26.61,26.61,0,0,1-2-7.31,72.2,72.2,0,0,1-.6-9.86,54.94,54.94,0,0,1,.91-10.87A24.83,24.83,0,0,1,116.07,42a10.41,10.41,0,0,1,3.69-4,8.93,8.93,0,0,1,4.57-1.23A9.65,9.65,0,0,1,130,38.23a9.5,9.5,0,0,1,3.21,3.88,17.16,17.16,0,0,1,1.42,5.42,59,59,0,0,1,.32,6.11Z"/><path class="cls-1" d="M137.25,60.06A60.68,60.68,0,0,1,138.1,49a22.92,22.92,0,0,1,2.42-7.18,9.74,9.74,0,0,1,3.78-3.87,10.94,10.94,0,0,1,9.83,0,9.76,9.76,0,0,1,3.78,3.87A22.94,22.94,0,0,1,160.34,49a60.68,60.68,0,0,1,.85,11.09,60.67,60.67,0,0,1-.85,11.09,22.92,22.92,0,0,1-2.42,7.18,9.75,9.75,0,0,1-3.78,3.88,10.95,10.95,0,0,1-9.83,0,9.73,9.73,0,0,1-3.78-3.87,22.9,22.9,0,0,1-2.42-7.18A60.67,60.67,0,0,1,137.25,60.06Zm8.95,4.72q0,3.65.22,5.92a20.16,20.16,0,0,0,.6,3.56A3.37,3.37,0,0,0,148,76a2,2,0,0,0,2.52,0,3.37,3.37,0,0,0,.95-1.73,20.25,20.25,0,0,0,.6-3.56q.22-2.27.22-5.92V55.34q0-3.65-.22-5.92a19.49,19.49,0,0,0-.6-3.53,3.58,3.58,0,0,0-.95-1.73,1.92,1.92,0,0,0-2.52,0,3.58,3.58,0,0,0-.95,1.73,19.4,19.4,0,0,0-.6,3.53q-.22,2.27-.22,5.92Z"/><path class="cls-1" d="M164.24,37.63h10.9l3.65,23h.13l3.84-23h10.65V82.49H186.1V49.61H186l-5.54,32.89h-4.54l-5.48-32.89h-.13V82.49h-6Z"/><path class="cls-1" d="M7.69,132.51q0,.94.06,2.14a9.73,9.73,0,0,0,.38,2.27,4.12,4.12,0,0,0,1,1.8,2.77,2.77,0,0,0,2,.72,3.29,3.29,0,0,0,1.7-.41A3.49,3.49,0,0,0,14,138a4.54,4.54,0,0,0,.63-1.42,6,6,0,0,0,.19-1.45,6.12,6.12,0,0,0-1.1-3.59,17.39,17.39,0,0,0-2.74-3q-1.64-1.45-3.59-3a24.93,24.93,0,0,1-3.59-3.4,17.53,17.53,0,0,1-2.74-4.35A14.05,14.05,0,0,1,0,112a16,16,0,0,1,.69-4.76,11.52,11.52,0,0,1,2-3.87A9.71,9.71,0,0,1,6,100.73a10.22,10.22,0,0,1,4.57-1,10.21,10.21,0,0,1,4.72,1,8.56,8.56,0,0,1,3.18,2.8,12.85,12.85,0,0,1,1.83,4.32,26.43,26.43,0,0,1,.66,5.54H13.67c0-.63,0-1.33-.06-2.11a10.5,10.5,0,0,0-.35-2.21,3.82,3.82,0,0,0-1-1.73,2.55,2.55,0,0,0-1.89-.69,2.64,2.64,0,0,0-2.27,1.13,4.94,4.94,0,0,0-.82,3,5.91,5.91,0,0,0,1.1,3.46,18.16,18.16,0,0,0,2.74,3.06q1.64,1.48,3.59,3.06a26,26,0,0,1,3.59,3.53,18.86,18.86,0,0,1,2.74,4.41,13.91,13.91,0,0,1,1.1,5.73,15.56,15.56,0,0,1-.72,4.82,11.39,11.39,0,0,1-2.14,3.91,10.14,10.14,0,0,1-3.53,2.65,11.51,11.51,0,0,1-4.88,1,9.85,9.85,0,0,1-5.32-1.29,9.47,9.47,0,0,1-3.21-3.31A13.14,13.14,0,0,1,.79,137.3a29,29,0,0,1-.41-4.79Z"/><path class="cls-1" d="M23.62,123.06A60.68,60.68,0,0,1,24.47,112a22.92,22.92,0,0,1,2.42-7.18,9.74,9.74,0,0,1,3.78-3.87,10.94,10.94,0,0,1,9.83,0,9.76,9.76,0,0,1,3.78,3.87A22.94,22.94,0,0,1,46.71,112a60.68,60.68,0,0,1,.85,11.09,60.67,60.67,0,0,1-.85,11.09,22.92,22.92,0,0,1-2.42,7.18,9.75,9.75,0,0,1-3.78,3.88,10.95,10.95,0,0,1-9.83,0,9.73,9.73,0,0,1-3.78-3.87,22.9,22.9,0,0,1-2.42-7.18A60.67,60.67,0,0,1,23.62,123.06Zm8.95,4.72q0,3.65.22,5.92a20.16,20.16,0,0,0,.6,3.56,3.37,3.37,0,0,0,.95,1.73,2,2,0,0,0,2.52,0,3.37,3.37,0,0,0,.95-1.73,20.25,20.25,0,0,0,.6-3.56q.22-2.27.22-5.92v-9.45q0-3.65-.22-5.92a19.49,19.49,0,0,0-.6-3.53,3.58,3.58,0,0,0-.95-1.73,1.92,1.92,0,0,0-2.52,0,3.58,3.58,0,0,0-.95,1.73,19.4,19.4,0,0,0-.6,3.53q-.22,2.27-.22,5.92Z"/><path class="cls-1" d="M50.75,100.63h8.19v37.93H69.4v6.93H50.75Z"/><path class="cls-1" d="M71.81,100.63h7.12a17.37,17.37,0,0,1,8.16,1.61,10.75,10.75,0,0,1,4.54,4.54,19.12,19.12,0,0,1,2,7.06Q94,118,94,123.06q0,4.85-.38,9a21.59,21.59,0,0,1-1.76,7.12,10.47,10.47,0,0,1-4.13,4.66,14.3,14.3,0,0,1-7.47,1.67H71.81ZM80,138.56a6.9,6.9,0,0,0,3-.54,3.46,3.46,0,0,0,1.61-2.17,18.39,18.39,0,0,0,.66-4.69q.13-3.06.13-8.16t-.13-8.13a17.82,17.82,0,0,0-.66-4.63A3.46,3.46,0,0,0,83,108.1a6.92,6.92,0,0,0-3-.54Z"/><path class="cls-1" d="M110.55,100.63h8.19v44.86h-8.19Z"/><path class="cls-1" d="M127.36,107.57h-7.06v-6.93h22.3v6.93h-7.06v37.93h-8.19Z"/><path class="cls-1" d="M2.58,175.75H7.52v22.88h6.31v4.18H2.58Z"/><path class="cls-1" d="M18.65,175.75h7.14l3.34,27.06H24.39l-.72-6h-4l-.68,6H14.85Zm3.15,4.18h-.08l-1.56,12.92h3.08Z"/><path class="cls-1" d="M30.34,175.75h4.94v20.94a6.89,6.89,0,0,0,.06.89,2.32,2.32,0,0,0,.25.8,1.43,1.43,0,0,0,.53.57,1.65,1.65,0,0,0,.87.21,1.48,1.48,0,0,0,1.43-.74,3.6,3.6,0,0,0,.4-1.73V175.75H43V196q0,4-1.67,5.64a6.31,6.31,0,0,1-4.64,1.65,7.94,7.94,0,0,1-2.6-.4,5,5,0,0,1-2-1.25,5.68,5.68,0,0,1-1.29-2.24,11,11,0,0,1-.46-3.4Z"/><path class="cls-1" d="M45.61,175.75h4.83L55,190H55V175.75h4V202.8H55.15l-5.28-16.38h-.08V202.8H45.61Z"/><path class="cls-1" d="M70.1,185.55a17.92,17.92,0,0,0-.44-4.77q-.44-1.39-1.35-1.39a1.39,1.39,0,0,0-.76.25,2.22,2.22,0,0,0-.67,1.24,16.69,16.69,0,0,0-.46,3q-.17,2-.17,5.43t.11,5.3a20.07,20.07,0,0,0,.34,3,2.2,2.2,0,0,0,.63,1.31,1.63,1.63,0,0,0,1,.28q1.22,0,1.62-1.73a24.66,24.66,0,0,0,.47-4.69l4.18.19a35.28,35.28,0,0,1-.19,3.63,10.64,10.64,0,0,1-.87,3.34,6.37,6.37,0,0,1-2,2.47,5.55,5.55,0,0,1-3.44,1,5.63,5.63,0,0,1-3.33-1,6.58,6.58,0,0,1-2.17-2.75,16.07,16.07,0,0,1-1.18-4.41,43.6,43.6,0,0,1-.36-5.95,33.16,33.16,0,0,1,.55-6.55,15,15,0,0,1,1.5-4.35A6.26,6.26,0,0,1,65.37,176a5.38,5.38,0,0,1,2.75-.74,5.82,5.82,0,0,1,3.4.89,5.73,5.73,0,0,1,1.94,2.34,10.37,10.37,0,0,1,.85,3.27,35.48,35.48,0,0,1,.19,3.69Z"/><path class="cls-1" d="M76.79,175.75h4.94v10.87h3.12V175.75h4.94V202.8H84.85V191.33H81.73V202.8H76.79Z"/><path class="cls-1" d="M108.63,185.55a17.92,17.92,0,0,0-.44-4.77q-.44-1.39-1.35-1.39a1.39,1.39,0,0,0-.76.25,2.22,2.22,0,0,0-.67,1.24,16.69,16.69,0,0,0-.46,3q-.17,2-.17,5.43t.11,5.3a20.07,20.07,0,0,0,.34,3,2.2,2.2,0,0,0,.63,1.31,1.63,1.63,0,0,0,1,.28q1.22,0,1.62-1.73a24.66,24.66,0,0,0,.47-4.69l4.18.19a35.28,35.28,0,0,1-.19,3.63,10.64,10.64,0,0,1-.87,3.34,6.37,6.37,0,0,1-2,2.47,5.55,5.55,0,0,1-3.44,1,5.63,5.63,0,0,1-3.33-1,6.58,6.58,0,0,1-2.17-2.75,16.07,16.07,0,0,1-1.18-4.41,43.6,43.6,0,0,1-.36-5.95,33.16,33.16,0,0,1,.55-6.55,15,15,0,0,1,1.5-4.35A6.26,6.26,0,0,1,103.9,176a5.38,5.38,0,0,1,2.75-.74,5.82,5.82,0,0,1,3.4.89,5.73,5.73,0,0,1,1.94,2.34,10.37,10.37,0,0,1,.85,3.27,35.48,35.48,0,0,1,.19,3.69Z"/><path class="cls-1" d="M117.71,175.75h7.14l3.34,27.06h-4.75l-.72-6h-4l-.68,6h-4.14Zm3.15,4.18h-.08l-1.56,12.92h3.08Z"/><path class="cls-1" d="M129.64,175.75h6.57l2.2,13.87h.08l2.32-13.87h6.42V202.8h-4.41V183h-.08l-3.34,19.84h-2.74L133.37,183h-.08V202.8h-3.65Z"/><path class="cls-1" d="M150,175.75h4.94q4.18,0,6.35,1.86t2.17,6.23a14.2,14.2,0,0,1-.36,3.33,6.91,6.91,0,0,1-1.16,2.56,5.41,5.41,0,0,1-2,1.65,6.89,6.89,0,0,1-3,.59h-2V202.8H150Zm5,12.27h.42a4.64,4.64,0,0,0,1.33-.17,2,2,0,0,0,1-.63,3.06,3.06,0,0,0,.61-1.25,8.15,8.15,0,0,0,.21-2,7.58,7.58,0,0,0-.27-2.28,2.79,2.79,0,0,0-.7-1.2,1.82,1.82,0,0,0-1-.47,8.88,8.88,0,0,0-1.18-.08h-.38Z"/><path class="cls-1" d="M166.59,175.75h7.14l3.34,27.06h-4.75l-.72-6h-4l-.68,6h-4.14Zm3.15,4.18h-.08l-1.56,12.92h3.08Z"/><path class="cls-1" d="M178.52,175.75h4.94V202.8h-4.94Z"/><path class="cls-1" d="M194.71,185.4q0-.46,0-1.46a12,12,0,0,0-.13-2,5.94,5.94,0,0,0-.53-1.77,1.24,1.24,0,0,0-1.18-.76,1.34,1.34,0,0,0-.85.32,2.68,2.68,0,0,0-.68,1.35,16.62,16.62,0,0,0-.44,3q-.15,1.94-.15,5.21t.15,5.3a15.24,15.24,0,0,0,.46,3,2.45,2.45,0,0,0,.74,1.33,1.72,1.72,0,0,0,1,.3,1.28,1.28,0,0,0,1.1-.61,4.17,4.17,0,0,0,.61-1.42,10.51,10.51,0,0,0,.25-1.65q.06-.83.06-1.33H193.3v-4h6V202.8h-2.09l-.68-1.79a5.94,5.94,0,0,1-1.6,1.6,3.93,3.93,0,0,1-2.32.72,5.63,5.63,0,0,1-3.33-1,6.58,6.58,0,0,1-2.17-2.75,16.07,16.07,0,0,1-1.18-4.41,43.6,43.6,0,0,1-.36-5.95,33.16,33.16,0,0,1,.55-6.55,15,15,0,0,1,1.5-4.35,6.26,6.26,0,0,1,2.22-2.41,5.38,5.38,0,0,1,2.75-.74,8.43,8.43,0,0,1,2.36.34,4.75,4.75,0,0,1,2.09,1.27,6.8,6.8,0,0,1,1.48,2.58,13.22,13.22,0,0,1,.57,4.24v1.75Z"/><path class="cls-1" d="M201.61,175.75h4.83L211,190H211V175.75h4V202.8h-3.84l-5.28-16.38h-.08V202.8h-4.18Z"/><path class="cls-1" d="M225.35,175.75h11.06v4.18h-6.12v7.22h4.52v4.41h-4.52V202.8h-4.94Z"/><path class="cls-1" d="M236.93,189.28a36.63,36.63,0,0,1,.51-6.69,13.84,13.84,0,0,1,1.46-4.33,5.88,5.88,0,0,1,2.28-2.34,6.6,6.6,0,0,1,5.93,0,5.88,5.88,0,0,1,2.28,2.34,13.84,13.84,0,0,1,1.46,4.33,43.8,43.8,0,0,1,0,13.38,13.83,13.83,0,0,1-1.46,4.33,5.88,5.88,0,0,1-2.28,2.34,6.6,6.6,0,0,1-5.93,0,5.88,5.88,0,0,1-2.28-2.34,13.83,13.83,0,0,1-1.46-4.33A36.65,36.65,0,0,1,236.93,189.28Zm5.4,2.85q0,2.2.13,3.57a12.19,12.19,0,0,0,.36,2.15,2,2,0,0,0,.57,1,1.22,1.22,0,0,0,1.52,0,2,2,0,0,0,.57-1,12.18,12.18,0,0,0,.36-2.15q.13-1.37.13-3.57v-5.7q0-2.2-.13-3.57a11.71,11.71,0,0,0-.36-2.13,2.15,2.15,0,0,0-.57-1,1.15,1.15,0,0,0-1.52,0,2.17,2.17,0,0,0-.57,1,11.73,11.73,0,0,0-.36,2.13q-.13,1.37-.13,3.57Z"/><path class="cls-1" d="M253.52,175.75h5.55a12,12,0,0,1,3.19.4,6.1,6.1,0,0,1,2.47,1.31,6,6,0,0,1,1.6,2.38,9.93,9.93,0,0,1,.57,3.59,13.13,13.13,0,0,1-.13,1.82,8.77,8.77,0,0,1-.47,1.86,7.05,7.05,0,0,1-.89,1.67A4.54,4.54,0,0,1,264,190l2.93,12.77h-5l-2.32-11.63h-1.18V202.8h-4.94Zm4.94,11.48h1a2,2,0,0,0,1.16-.32,2.6,2.6,0,0,0,.78-.84,3.77,3.77,0,0,0,.44-1.2,7.41,7.41,0,0,0,.13-1.41,4.42,4.42,0,0,0-.74-3,2.63,2.63,0,0,0-2-.78h-.76Z"/><path class="cls-1" d="M278.79,175.75h7.14l3.34,27.06h-4.75l-.72-6h-4l-.68,6H275Zm3.15,4.18h-.08l-1.56,12.92h3.08Z"/><path class="cls-1" d="M298.47,175.75h4.29a10.47,10.47,0,0,1,4.92,1,6.48,6.48,0,0,1,2.74,2.74,11.53,11.53,0,0,1,1.18,4.26q.25,2.49.25,5.57,0,2.93-.23,5.42a13,13,0,0,1-1.06,4.29,6.32,6.32,0,0,1-2.49,2.81,8.63,8.63,0,0,1-4.5,1h-5.09Zm4.94,22.88a4.16,4.16,0,0,0,1.82-.32,2.09,2.09,0,0,0,1-1.31,11.07,11.07,0,0,0,.4-2.83q.08-1.84.08-4.92t-.08-4.9a10.74,10.74,0,0,0-.4-2.79,2.08,2.08,0,0,0-1-1.29,4.17,4.17,0,0,0-1.82-.32Z"/><path class="cls-1" d="M314.14,175.75h4.94V202.8h-4.94Z"/><path class="cls-1" d="M330.33,185.4q0-.46,0-1.46a12,12,0,0,0-.13-2,5.94,5.94,0,0,0-.53-1.77,1.24,1.24,0,0,0-1.18-.76,1.34,1.34,0,0,0-.85.32,2.68,2.68,0,0,0-.68,1.35,16.62,16.62,0,0,0-.44,3q-.15,1.94-.15,5.21t.15,5.3a15.24,15.24,0,0,0,.46,3,2.45,2.45,0,0,0,.74,1.33,1.72,1.72,0,0,0,1,.3,1.28,1.28,0,0,0,1.1-.61,4.17,4.17,0,0,0,.61-1.42,10.51,10.51,0,0,0,.25-1.65q.06-.83.06-1.33h-1.82v-4h6V202.8h-2.09l-.68-1.79a5.94,5.94,0,0,1-1.6,1.6,3.93,3.93,0,0,1-2.32.72,5.63,5.63,0,0,1-3.33-1,6.58,6.58,0,0,1-2.17-2.75,16.07,16.07,0,0,1-1.18-4.41,43.6,43.6,0,0,1-.36-5.95,33.16,33.16,0,0,1,.55-6.55,15,15,0,0,1,1.5-4.35,6.26,6.26,0,0,1,2.22-2.41,5.38,5.38,0,0,1,2.75-.74,8.43,8.43,0,0,1,2.36.34,4.75,4.75,0,0,1,2.09,1.27,6.8,6.8,0,0,1,1.48,2.58,13.22,13.22,0,0,1,.57,4.24v1.75Z"/><path class="cls-1" d="M337.24,175.75h4.94V202.8h-4.94Z"/><path class="cls-1" d="M347.58,179.93h-4.26v-4.18h13.45v4.18h-4.26V202.8h-4.94Z"/><path class="cls-1" d="M359.51,175.75h7.14L370,202.8h-4.75l-.72-6h-4l-.68,6h-4.14Zm3.15,4.18h-.08L361,192.85h3.08Z"/><path class="cls-1" d="M371.53,175.75h4.94v22.88h6.31v4.18H371.53Z"/><path class="cls-1" d="M392.09,175.75h6.57l2.2,13.87h.08l2.32-13.87h6.42V202.8h-4.41V183h-.08l-3.34,19.84h-2.74L395.81,183h-.08V202.8h-3.65Z"/><path class="cls-1" d="M414.9,175.75H422l3.34,27.06h-4.75l-.72-6h-4l-.68,6H411.1Zm3.15,4.18H418l-1.56,12.92h3.08Z"/><path class="cls-1" d="M426.92,175.75h5.55a12,12,0,0,1,3.19.4,6.1,6.1,0,0,1,2.47,1.31,6,6,0,0,1,1.6,2.38,9.93,9.93,0,0,1,.57,3.59,13.13,13.13,0,0,1-.13,1.82,8.77,8.77,0,0,1-.47,1.86,7.05,7.05,0,0,1-.89,1.67,4.54,4.54,0,0,1-1.39,1.25l2.93,12.77h-5L433,191.18h-1.18V202.8h-4.94Zm4.94,11.48h1a2,2,0,0,0,1.16-.32,2.6,2.6,0,0,0,.78-.84,3.77,3.77,0,0,0,.44-1.2,7.41,7.41,0,0,0,.13-1.41,4.42,4.42,0,0,0-.74-3,2.63,2.63,0,0,0-2-.78h-.76Z"/><path class="cls-1" d="M442.21,175.75h4.94v11.32h.08l4.1-11.32h4.41L452,184.83l4.45,18h-4.75L449,190.68h-.08l-1.79,4.26v7.87h-4.94Z"/><path class="cls-1" d="M458,175.75h11.17v4.18H463v6.92h4.6v4.41H463v7.37h6.5v4.18H458Z"/><path class="cls-1" d="M474.23,179.93H470v-4.18h13.45v4.18h-4.26V202.8h-4.94Z"/><path class="cls-1" d="M484.64,175.75h4.94q4.18,0,6.35,1.86t2.17,6.23a14.2,14.2,0,0,1-.36,3.33,6.91,6.91,0,0,1-1.16,2.56,5.41,5.41,0,0,1-2,1.65,6.89,6.89,0,0,1-3,.59h-2V202.8h-4.94Zm5,12.27H490a4.64,4.64,0,0,0,1.33-.17,2,2,0,0,0,1-.63,3.06,3.06,0,0,0,.61-1.25,8.15,8.15,0,0,0,.21-2,7.58,7.58,0,0,0-.27-2.28,2.79,2.79,0,0,0-.7-1.2,1.82,1.82,0,0,0-1-.47,8.88,8.88,0,0,0-1.18-.08h-.38Z"/><path class="cls-1" d="M499.39,175.75h4.94v22.88h6.31v4.18H499.39Z"/><path class="cls-1" d="M515.46,175.75h7.14l3.34,27.06H521.2l-.72-6h-4l-.68,6h-4.14Zm3.15,4.18h-.08L517,192.85h3.08Z"/><path class="cls-1" d="M535.64,185.55a17.92,17.92,0,0,0-.44-4.77q-.44-1.39-1.35-1.39a1.39,1.39,0,0,0-.76.25,2.22,2.22,0,0,0-.67,1.24,16.69,16.69,0,0,0-.46,3q-.17,2-.17,5.43t.11,5.3a20.07,20.07,0,0,0,.34,3,2.2,2.2,0,0,0,.63,1.31,1.63,1.63,0,0,0,1,.28q1.22,0,1.62-1.73a24.66,24.66,0,0,0,.47-4.69l4.18.19a35.28,35.28,0,0,1-.19,3.63,10.64,10.64,0,0,1-.87,3.34,6.37,6.37,0,0,1-2,2.47,5.55,5.55,0,0,1-3.44,1,5.63,5.63,0,0,1-3.33-1,6.58,6.58,0,0,1-2.17-2.75,16.07,16.07,0,0,1-1.18-4.41,43.6,43.6,0,0,1-.36-5.95,33.16,33.16,0,0,1,.55-6.55,15,15,0,0,1,1.5-4.35,6.26,6.26,0,0,1,2.22-2.41,5.38,5.38,0,0,1,2.75-.74,5.82,5.82,0,0,1,3.4.89,5.73,5.73,0,0,1,1.94,2.34,10.37,10.37,0,0,1,.85,3.27,35.48,35.48,0,0,1,.19,3.69Z"/><path class="cls-1" d="M542.32,175.75H553.5v4.18h-6.23v6.92h4.6v4.41h-4.6v7.37h6.5v4.18H542.32Z"/><path class="cls-1" d="M561.63,175.75h4.48l1.75,15.88h.08l2.36-15.88h4.45l2.17,15.88H577l1.94-15.88h3.53l-3.53,27.06h-4.48l-2.36-17.14H572l-2.43,17.14h-4.33Z"/><path class="cls-1" d="M583.94,175.75h4.94v10.87H592V175.75h4.94V202.8H592V191.33h-3.12V202.8h-4.94Z"/><path class="cls-1" d="M599.75,175.75h11.17v4.18h-6.23v6.92h4.6v4.41h-4.6v7.37h6.5v4.18H599.75Z"/><path class="cls-1" d="M612.77,175.75h5.55a12,12,0,0,1,3.19.4,6.1,6.1,0,0,1,2.47,1.31,6,6,0,0,1,1.6,2.38,9.93,9.93,0,0,1,.57,3.59,13.13,13.13,0,0,1-.13,1.82,8.77,8.77,0,0,1-.47,1.86,7.05,7.05,0,0,1-.89,1.67,4.54,4.54,0,0,1-1.39,1.25l2.93,12.77h-5l-2.32-11.63h-1.18V202.8h-4.94Zm4.94,11.48h1a2,2,0,0,0,1.16-.32,2.6,2.6,0,0,0,.78-.84,3.77,3.77,0,0,0,.44-1.2,7.41,7.41,0,0,0,.13-1.41,4.42,4.42,0,0,0-.74-3,2.63,2.63,0,0,0-2-.78h-.76Z"/><path class="cls-1" d="M628.06,175.75h11.17v4.18H633v6.92h4.6v4.41H633v7.37h6.5v4.18H628.06Z"/><path class="cls-1" d="M648.62,175.75h6.57l2.2,13.87h.08l2.32-13.87h6.42V202.8H661.8V183h-.08l-3.34,19.84h-2.74L652.34,183h-.08V202.8h-3.65Z"/><path class="cls-1" d="M668.29,189.28a36.63,36.63,0,0,1,.51-6.69,13.84,13.84,0,0,1,1.46-4.33,5.88,5.88,0,0,1,2.28-2.34,6.6,6.6,0,0,1,5.93,0,5.88,5.88,0,0,1,2.28,2.34,13.84,13.84,0,0,1,1.46,4.33,43.8,43.8,0,0,1,0,13.38,13.83,13.83,0,0,1-1.46,4.33,5.88,5.88,0,0,1-2.28,2.34,6.6,6.6,0,0,1-5.93,0,5.88,5.88,0,0,1-2.28-2.34,13.83,13.83,0,0,1-1.46-4.33A36.65,36.65,0,0,1,668.29,189.28Zm5.4,2.85q0,2.2.13,3.57a12.19,12.19,0,0,0,.36,2.15,2,2,0,0,0,.57,1,1.22,1.22,0,0,0,1.52,0,2,2,0,0,0,.57-1,12.18,12.18,0,0,0,.36-2.15q.13-1.37.13-3.57v-5.7q0-2.2-.13-3.57a11.71,11.71,0,0,0-.36-2.13,2.15,2.15,0,0,0-.57-1,1.15,1.15,0,0,0-1.52,0,2.17,2.17,0,0,0-.57,1,11.73,11.73,0,0,0-.36,2.13q-.13,1.37-.13,3.57Z"/><path class="cls-1" d="M684.88,175.75h5.55a12,12,0,0,1,3.19.4,6.1,6.1,0,0,1,2.47,1.31,6,6,0,0,1,1.6,2.38,9.93,9.93,0,0,1,.57,3.59,13.13,13.13,0,0,1-.13,1.82,8.77,8.77,0,0,1-.47,1.86,7.05,7.05,0,0,1-.89,1.67,4.54,4.54,0,0,1-1.39,1.25l2.93,12.77h-5L691,191.18h-1.18V202.8h-4.94Zm4.94,11.48h1a2,2,0,0,0,1.16-.32,2.6,2.6,0,0,0,.78-.84,3.77,3.77,0,0,0,.44-1.2,7.41,7.41,0,0,0,.13-1.41,4.42,4.42,0,0,0-.74-3,2.63,2.63,0,0,0-2-.78h-.76Z"/><path class="cls-1" d="M700.17,175.75h11.17v4.18h-6.23v6.92h4.6v4.41h-4.6v7.37h6.5v4.18H700.17Z"/><path class="cls-1" d="M723.2,179.93h-4.26v-4.18h13.45v4.18h-4.26V202.8H723.2Z"/><path class="cls-1" d="M733.61,175.75h4.94v10.87h3.12V175.75h4.94V202.8h-4.94V191.33h-3.12V202.8h-4.94Z"/><path class="cls-1" d="M751.91,175.75h7.14l3.34,27.06h-4.75l-.72-6h-4l-.68,6h-4.14Zm3.15,4.18H755l-1.56,12.92h3.08Z"/><path class="cls-1" d="M763.84,175.75h4.83L773.19,190h.08V175.75h4V202.8h-3.84l-5.28-16.38H768V202.8h-4.18Z"/><path class="cls-1" d="M9.42,240.6a9.16,9.16,0,0,1-.32,2.62,3.92,3.92,0,0,1-1,1.71,3.71,3.71,0,0,1-1.71.91,10.41,10.41,0,0,1-2.53.27A12,12,0,0,1,2.47,246l-1.25-.15v-4.29a11.8,11.8,0,0,0,1.67.11,1.34,1.34,0,0,0,1.18-.63,3.09,3.09,0,0,0,.42-1.73v-20.6H9.42Z"/><path class="cls-1" d="M12,218.75H17v20.94a6.89,6.89,0,0,0,.06.89,2.32,2.32,0,0,0,.25.8,1.43,1.43,0,0,0,.53.57,1.65,1.65,0,0,0,.87.21,1.48,1.48,0,0,0,1.43-.74,3.6,3.6,0,0,0,.4-1.73V218.75H24.7V239q0,4-1.67,5.64a6.31,6.31,0,0,1-4.64,1.65,7.94,7.94,0,0,1-2.6-.4,5,5,0,0,1-2-1.25,5.68,5.68,0,0,1-1.29-2.24A11,11,0,0,1,12,239Z"/><path class="cls-1" d="M30.94,238c0,.38,0,.81,0,1.29a5.93,5.93,0,0,0,.23,1.37,2.48,2.48,0,0,0,.63,1.08,1.67,1.67,0,0,0,1.24.44,2,2,0,0,0,1-.25,2.11,2.11,0,0,0,.68-.65,2.73,2.73,0,0,0,.38-.86,3.59,3.59,0,0,0,.11-.87,3.68,3.68,0,0,0-.67-2.17A10.47,10.47,0,0,0,33,235.54q-1-.87-2.17-1.79a15,15,0,0,1-2.17-2.05A10.61,10.61,0,0,1,27,229.08a8.48,8.48,0,0,1-.67-3.5,9.62,9.62,0,0,1,.42-2.87,7,7,0,0,1,1.22-2.34,5.86,5.86,0,0,1,2-1.58,6.87,6.87,0,0,1,5.61,0,5.16,5.16,0,0,1,1.92,1.69,7.73,7.73,0,0,1,1.1,2.6,15.88,15.88,0,0,1,.4,3.34H34.55q0-.57,0-1.27a6.34,6.34,0,0,0-.21-1.33,2.31,2.31,0,0,0-.59-1,1.54,1.54,0,0,0-1.14-.42,1.59,1.59,0,0,0-1.37.68,3,3,0,0,0-.49,1.79,3.57,3.57,0,0,0,.67,2.09A11,11,0,0,0,33,228.8q1,.89,2.17,1.84a15.75,15.75,0,0,1,2.17,2.13A11.36,11.36,0,0,1,39,235.43a8.38,8.38,0,0,1,.67,3.46,9.39,9.39,0,0,1-.44,2.91A6.88,6.88,0,0,1,38,244.15a6.12,6.12,0,0,1-2.13,1.6,7,7,0,0,1-2.95.59,5.94,5.94,0,0,1-3.21-.78,5.71,5.71,0,0,1-1.94-2,7.94,7.94,0,0,1-.95-2.7,17.5,17.5,0,0,1-.25-2.89Z"/><path class="cls-1" d="M44,222.93H39.77v-4.18H53.22v4.18H49V245.8H44Z"/><path class="cls-1" d="M70.09,228.55a17.92,17.92,0,0,0-.44-4.77q-.44-1.39-1.35-1.39a1.39,1.39,0,0,0-.76.25,2.22,2.22,0,0,0-.67,1.24,16.69,16.69,0,0,0-.46,3q-.17,2-.17,5.43t.11,5.3a20.07,20.07,0,0,0,.34,3,2.2,2.2,0,0,0,.63,1.31,1.63,1.63,0,0,0,1,.28q1.22,0,1.62-1.73a24.66,24.66,0,0,0,.47-4.69l4.18.19a35.28,35.28,0,0,1-.19,3.63,10.64,10.64,0,0,1-.87,3.34,6.37,6.37,0,0,1-2,2.47,5.55,5.55,0,0,1-3.44,1,5.63,5.63,0,0,1-3.33-1,6.58,6.58,0,0,1-2.17-2.75,16.07,16.07,0,0,1-1.18-4.41,43.6,43.6,0,0,1-.36-5.95,33.16,33.16,0,0,1,.55-6.55,15,15,0,0,1,1.5-4.35A6.26,6.26,0,0,1,65.36,219a5.38,5.38,0,0,1,2.75-.74,5.82,5.82,0,0,1,3.4.89,5.73,5.73,0,0,1,1.94,2.34,10.37,10.37,0,0,1,.85,3.27,35.48,35.48,0,0,1,.19,3.69Z"/><path class="cls-1" d="M76.14,232.28a36.63,36.63,0,0,1,.51-6.69,13.84,13.84,0,0,1,1.46-4.33,5.88,5.88,0,0,1,2.28-2.34,6.6,6.6,0,0,1,5.93,0,5.88,5.88,0,0,1,2.28,2.34,13.84,13.84,0,0,1,1.46,4.33,43.8,43.8,0,0,1,0,13.38,13.83,13.83,0,0,1-1.46,4.33,5.88,5.88,0,0,1-2.28,2.34,6.6,6.6,0,0,1-5.93,0,5.88,5.88,0,0,1-2.28-2.34A13.83,13.83,0,0,1,76.65,239,36.65,36.65,0,0,1,76.14,232.28Zm5.4,2.85q0,2.2.13,3.57a12.19,12.19,0,0,0,.36,2.15,2,2,0,0,0,.57,1,1.22,1.22,0,0,0,1.52,0,2,2,0,0,0,.57-1,12.18,12.18,0,0,0,.36-2.15q.13-1.37.13-3.57v-5.7q0-2.2-.13-3.57a11.71,11.71,0,0,0-.36-2.13,2.15,2.15,0,0,0-.57-1,1.15,1.15,0,0,0-1.52,0,2.17,2.17,0,0,0-.57,1,11.73,11.73,0,0,0-.36,2.13q-.13,1.37-.13,3.57Z"/><path class="cls-1" d="M92.63,218.75h4.83L102,233h.08V218.75h4V245.8h-3.84l-5.28-16.38h-.08V245.8H92.63Z"/><path class="cls-1" d="M107.41,218.75h4.83l2.32,19h.08l2.55-19h4L117.1,245.8h-5.66Z"/><path class="cls-1" d="M122.66,218.75h11.17v4.18H127.6v6.92h4.6v4.41h-4.6v7.37h6.5v4.18H122.66Z"/><path class="cls-1" d="M135.59,218.75h4.83L144.94,233H145V218.75h4V245.8h-3.84l-5.28-16.38h-.08V245.8h-4.18Z"/><path class="cls-1" d="M154.37,222.93h-4.26v-4.18h13.45v4.18h-4.26V245.8h-4.94Z"/><path class="cls-1" d="M164.7,218.75h4.94V245.8H164.7Z"/><path class="cls-1" d="M171.77,232.28a36.63,36.63,0,0,1,.51-6.69,13.84,13.84,0,0,1,1.46-4.33,5.88,5.88,0,0,1,2.28-2.34,6.6,6.6,0,0,1,5.93,0,5.88,5.88,0,0,1,2.28,2.34,13.84,13.84,0,0,1,1.46,4.33,43.8,43.8,0,0,1,0,13.38,13.83,13.83,0,0,1-1.46,4.33,5.88,5.88,0,0,1-2.28,2.34,6.6,6.6,0,0,1-5.93,0,5.88,5.88,0,0,1-2.28-2.34,13.83,13.83,0,0,1-1.46-4.33A36.65,36.65,0,0,1,171.77,232.28Zm5.4,2.85q0,2.2.13,3.57a12.19,12.19,0,0,0,.36,2.15,2,2,0,0,0,.57,1,1.22,1.22,0,0,0,1.52,0,2,2,0,0,0,.57-1,12.18,12.18,0,0,0,.36-2.15q.13-1.37.13-3.57v-5.7q0-2.2-.13-3.57a11.71,11.71,0,0,0-.36-2.13,2.15,2.15,0,0,0-.57-1,1.15,1.15,0,0,0-1.52,0,2.17,2.17,0,0,0-.57,1,11.73,11.73,0,0,0-.36,2.13q-.13,1.37-.13,3.57Z"/><path class="cls-1" d="M188.26,218.75h4.83L197.61,233h.08V218.75h4V245.8H197.8l-5.28-16.38h-.08V245.8h-4.18Z"/><path class="cls-1" d="M206.88,218.75H214l3.34,27.06h-4.75l-.72-6h-4l-.68,6h-4.14Zm3.15,4.18H210l-1.56,12.92h3.08Z"/><path class="cls-1" d="M218.9,218.75h4.94v22.88h6.31v4.18H218.9Z"/><path class="cls-1" d="M239.46,218.75h4.94V245.8h-4.94Z"/><path class="cls-1" d="M249.8,222.93h-4.26v-4.18H259v4.18h-4.26V245.8H249.8Z"/><path class="cls-1" d="M260.21,218.75h11.17v4.18h-6.23v6.92h4.6v4.41h-4.6v7.37h6.5v4.18H260.21Z"/><path class="cls-1" d="M273.14,218.75h6.57l2.2,13.87H282l2.32-13.87h6.42V245.8h-4.41V226h-.08l-3.34,19.84h-2.74L276.87,226h-.08V245.8h-3.65Z"/><path class="cls-1" d="M297,238c0,.38,0,.81,0,1.29a5.93,5.93,0,0,0,.23,1.37,2.48,2.48,0,0,0,.63,1.08,1.67,1.67,0,0,0,1.24.44,2,2,0,0,0,1-.25,2.11,2.11,0,0,0,.68-.65,2.73,2.73,0,0,0,.38-.86,3.59,3.59,0,0,0,.11-.87,3.68,3.68,0,0,0-.67-2.17,10.47,10.47,0,0,0-1.65-1.82q-1-.87-2.17-1.79a15,15,0,0,1-2.17-2.05,10.61,10.61,0,0,1-1.65-2.62,8.48,8.48,0,0,1-.67-3.5,9.62,9.62,0,0,1,.42-2.87,7,7,0,0,1,1.22-2.34,5.86,5.86,0,0,1,2-1.58,6.87,6.87,0,0,1,5.61,0,5.16,5.16,0,0,1,1.92,1.69,7.73,7.73,0,0,1,1.1,2.6,15.88,15.88,0,0,1,.4,3.34h-4.41q0-.57,0-1.27a6.34,6.34,0,0,0-.21-1.33,2.31,2.31,0,0,0-.59-1,1.54,1.54,0,0,0-1.14-.42,1.59,1.59,0,0,0-1.37.68,3,3,0,0,0-.49,1.79,3.57,3.57,0,0,0,.67,2.09,11,11,0,0,0,1.65,1.84q1,.89,2.17,1.84a15.75,15.75,0,0,1,2.17,2.13,11.36,11.36,0,0,1,1.65,2.66,8.38,8.38,0,0,1,.67,3.46,9.39,9.39,0,0,1-.44,2.91,6.88,6.88,0,0,1-1.29,2.36,6.12,6.12,0,0,1-2.13,1.6,7,7,0,0,1-2.95.59,5.94,5.94,0,0,1-3.21-.78,5.71,5.71,0,0,1-1.94-2,7.94,7.94,0,0,1-.95-2.7,17.5,17.5,0,0,1-.25-2.89Z"/><path class="cls-1" d="M323.38,228.55a17.92,17.92,0,0,0-.44-4.77q-.44-1.39-1.35-1.39a1.39,1.39,0,0,0-.76.25,2.22,2.22,0,0,0-.67,1.24,16.69,16.69,0,0,0-.46,3q-.17,2-.17,5.43t.11,5.3a20.07,20.07,0,0,0,.34,3,2.2,2.2,0,0,0,.63,1.31,1.63,1.63,0,0,0,1,.28q1.22,0,1.62-1.73a24.66,24.66,0,0,0,.47-4.69l4.18.19a35.28,35.28,0,0,1-.19,3.63,10.64,10.64,0,0,1-.87,3.34,6.37,6.37,0,0,1-2,2.47,5.55,5.55,0,0,1-3.44,1,5.63,5.63,0,0,1-3.33-1,6.58,6.58,0,0,1-2.17-2.75,16.07,16.07,0,0,1-1.18-4.41,43.6,43.6,0,0,1-.36-5.95,33.16,33.16,0,0,1,.55-6.55,15,15,0,0,1,1.5-4.35,6.26,6.26,0,0,1,2.22-2.41,5.38,5.38,0,0,1,2.75-.74,5.82,5.82,0,0,1,3.4.89,5.73,5.73,0,0,1,1.94,2.34,10.37,10.37,0,0,1,.85,3.27,35.48,35.48,0,0,1,.19,3.69Z"/><path class="cls-1" d="M332.46,218.75h7.14l3.34,27.06H338.2l-.72-6h-4l-.68,6h-4.14Zm3.15,4.18h-.08L334,235.85h3.08Z"/><path class="cls-1" d="M344.39,218.75h4.83L353.74,233h.08V218.75h4V245.8h-3.84l-5.28-16.38h-.08V245.8h-4.18Z"/><path class="cls-1" d="M368.14,218.75h6.08a8.28,8.28,0,0,1,2.32.34,6,6,0,0,1,2.15,1.14,6.07,6.07,0,0,1,1.6,2.11,7.51,7.51,0,0,1,.63,3.25,7,7,0,0,1-1.06,3.91,5.06,5.06,0,0,1-3.34,2.13v.08a6.1,6.1,0,0,1,3.74,2.3,7.22,7.22,0,0,1,1.2,4.27,8.41,8.41,0,0,1-.59,3.27,7.08,7.08,0,0,1-1.56,2.36,6.36,6.36,0,0,1-2.22,1.43,7.35,7.35,0,0,1-2.62.47h-6.31Zm4.94,11.1a2.9,2.9,0,0,0,2.49-.87,4.66,4.66,0,0,0,.63-2.7,10.58,10.58,0,0,0-.13-1.86,2.13,2.13,0,0,0-.49-1.1,1.74,1.74,0,0,0-1-.49,8.44,8.44,0,0,0-1.52-.11Zm0,12a5.8,5.8,0,0,0,1.79-.23,2.11,2.11,0,0,0,1-.7,2.67,2.67,0,0,0,.47-1.24,12.48,12.48,0,0,0,.11-1.82,9.15,9.15,0,0,0-.13-1.63,2.8,2.8,0,0,0-.51-1.22,2.29,2.29,0,0,0-1-.74,5.07,5.07,0,0,0-1.73-.25Z"/><path class="cls-1" d="M383.26,218.75h11.17v4.18H388.2v6.92h4.6v4.41h-4.6v7.37h6.5v4.18H383.26Z"/><path class="cls-1" d="M404,218.75H409v22.88h6.31v4.18H404Z"/><path class="cls-1" d="M416.84,218.75h4.94V245.8h-4.94Z"/><path class="cls-1" d="M428.15,238c0,.38,0,.81,0,1.29a5.93,5.93,0,0,0,.23,1.37,2.48,2.48,0,0,0,.63,1.08,1.67,1.67,0,0,0,1.24.44,2,2,0,0,0,1-.25,2.11,2.11,0,0,0,.68-.65,2.73,2.73,0,0,0,.38-.86,3.59,3.59,0,0,0,.11-.87,3.68,3.68,0,0,0-.67-2.17,10.47,10.47,0,0,0-1.65-1.82q-1-.87-2.17-1.79a15,15,0,0,1-2.17-2.05,10.61,10.61,0,0,1-1.65-2.62,8.48,8.48,0,0,1-.67-3.5,9.62,9.62,0,0,1,.42-2.87,7,7,0,0,1,1.22-2.34,5.86,5.86,0,0,1,2-1.58,6.87,6.87,0,0,1,5.61,0,5.16,5.16,0,0,1,1.92,1.69,7.73,7.73,0,0,1,1.1,2.6,15.88,15.88,0,0,1,.4,3.34h-4.41q0-.57,0-1.27a6.34,6.34,0,0,0-.21-1.33,2.31,2.31,0,0,0-.59-1,1.54,1.54,0,0,0-1.14-.42,1.59,1.59,0,0,0-1.37.68,3,3,0,0,0-.49,1.79,3.57,3.57,0,0,0,.67,2.09,11,11,0,0,0,1.65,1.84q1,.89,2.17,1.84a15.75,15.75,0,0,1,2.17,2.13,11.36,11.36,0,0,1,1.65,2.66,8.38,8.38,0,0,1,.67,3.46,9.39,9.39,0,0,1-.44,2.91,6.88,6.88,0,0,1-1.29,2.36,6.12,6.12,0,0,1-2.13,1.6,7,7,0,0,1-2.95.59,5.94,5.94,0,0,1-3.21-.78,5.71,5.71,0,0,1-1.94-2,7.94,7.94,0,0,1-.95-2.7,17.5,17.5,0,0,1-.25-2.89Z"/><path class="cls-1" d="M441.23,222.93H437v-4.18h13.45v4.18h-4.26V245.8h-4.94Z"/><path class="cls-1" d="M451.64,218.75h11.17v4.18h-6.23v6.92h4.6v4.41h-4.6v7.37h6.5v4.18H451.64Z"/><path class="cls-1" d="M464.66,218.75H469a10.47,10.47,0,0,1,4.92,1,6.48,6.48,0,0,1,2.74,2.74,11.53,11.53,0,0,1,1.18,4.26q.25,2.49.25,5.57,0,2.93-.23,5.42a13,13,0,0,1-1.06,4.29,6.32,6.32,0,0,1-2.49,2.81,8.63,8.63,0,0,1-4.5,1h-5.09Zm4.94,22.88a4.16,4.16,0,0,0,1.82-.32,2.09,2.09,0,0,0,1-1.31,11.07,11.07,0,0,0,.4-2.83q.08-1.84.08-4.92t-.08-4.9a10.74,10.74,0,0,0-.4-2.79,2.08,2.08,0,0,0-1-1.29,4.17,4.17,0,0,0-1.82-.32Z"/><path class="cls-1" d="M481.45,245.8h-1.82v-4.94h4.94v4.56l-2.93,6.08h-2Z"/><path class="cls-1" d="M494.74,218.75h6.08a8.28,8.28,0,0,1,2.32.34,6,6,0,0,1,2.15,1.14,6.07,6.07,0,0,1,1.6,2.11,7.51,7.51,0,0,1,.63,3.25,7,7,0,0,1-1.06,3.91,5.06,5.06,0,0,1-3.34,2.13v.08a6.1,6.1,0,0,1,3.74,2.3,7.22,7.22,0,0,1,1.2,4.27,8.41,8.41,0,0,1-.59,3.27,7.08,7.08,0,0,1-1.56,2.36,6.36,6.36,0,0,1-2.22,1.43,7.35,7.35,0,0,1-2.62.47h-6.31Zm4.94,11.1a2.9,2.9,0,0,0,2.49-.87,4.66,4.66,0,0,0,.63-2.7,10.58,10.58,0,0,0-.13-1.86,2.13,2.13,0,0,0-.49-1.1,1.74,1.74,0,0,0-1-.49,8.44,8.44,0,0,0-1.52-.11Zm0,12a5.8,5.8,0,0,0,1.79-.23,2.11,2.11,0,0,0,1-.7,2.67,2.67,0,0,0,.47-1.24,12.48,12.48,0,0,0,.11-1.82,9.15,9.15,0,0,0-.13-1.63,2.8,2.8,0,0,0-.51-1.22,2.29,2.29,0,0,0-1-.74,5.07,5.07,0,0,0-1.73-.25Z"/><path class="cls-1" d="M509.28,232.28a36.63,36.63,0,0,1,.51-6.69,13.84,13.84,0,0,1,1.46-4.33,5.88,5.88,0,0,1,2.28-2.34,6.6,6.6,0,0,1,5.93,0,5.88,5.88,0,0,1,2.28,2.34,13.84,13.84,0,0,1,1.46,4.33,43.8,43.8,0,0,1,0,13.38,13.83,13.83,0,0,1-1.46,4.33,5.88,5.88,0,0,1-2.28,2.34,6.6,6.6,0,0,1-5.93,0,5.88,5.88,0,0,1-2.28-2.34,13.83,13.83,0,0,1-1.46-4.33A36.65,36.65,0,0,1,509.28,232.28Zm5.4,2.85q0,2.2.13,3.57a12.19,12.19,0,0,0,.36,2.15,2,2,0,0,0,.57,1,1.22,1.22,0,0,0,1.52,0,2,2,0,0,0,.57-1,12.18,12.18,0,0,0,.36-2.15q.13-1.37.13-3.57v-5.7q0-2.2-.13-3.57a11.71,11.71,0,0,0-.36-2.13,2.15,2.15,0,0,0-.57-1,1.15,1.15,0,0,0-1.52,0,2.17,2.17,0,0,0-.57,1,11.73,11.73,0,0,0-.36,2.13q-.13,1.37-.13,3.57Z"/><path class="cls-1" d="M525.72,218.75h4.94v20.94a6.89,6.89,0,0,0,.06.89,2.32,2.32,0,0,0,.25.8,1.43,1.43,0,0,0,.53.57,1.65,1.65,0,0,0,.87.21,1.48,1.48,0,0,0,1.43-.74,3.6,3.6,0,0,0,.4-1.73V218.75h4.18V239q0,4-1.67,5.64a6.31,6.31,0,0,1-4.64,1.65,7.94,7.94,0,0,1-2.6-.4,5,5,0,0,1-2-1.25,5.68,5.68,0,0,1-1.29-2.24,11,11,0,0,1-.46-3.4Z"/><path class="cls-1" d="M549.53,228.4q0-.46,0-1.46a12,12,0,0,0-.13-2,5.94,5.94,0,0,0-.53-1.77,1.24,1.24,0,0,0-1.18-.76,1.34,1.34,0,0,0-.85.32,2.68,2.68,0,0,0-.68,1.35,16.62,16.62,0,0,0-.44,3q-.15,1.94-.15,5.21t.15,5.3a15.24,15.24,0,0,0,.46,3,2.45,2.45,0,0,0,.74,1.33,1.72,1.72,0,0,0,1,.3,1.28,1.28,0,0,0,1.1-.61,4.17,4.17,0,0,0,.61-1.42,10.51,10.51,0,0,0,.25-1.65q.06-.83.06-1.33h-1.82v-4h6V245.8H552l-.68-1.79a5.94,5.94,0,0,1-1.6,1.6,3.93,3.93,0,0,1-2.32.72,5.63,5.63,0,0,1-3.33-1,6.58,6.58,0,0,1-2.17-2.75,16.07,16.07,0,0,1-1.18-4.41,43.6,43.6,0,0,1-.36-5.95,33.16,33.16,0,0,1,.55-6.55,15,15,0,0,1,1.5-4.35,6.26,6.26,0,0,1,2.22-2.41,5.38,5.38,0,0,1,2.75-.74,8.43,8.43,0,0,1,2.36.34,4.75,4.75,0,0,1,2.09,1.27,6.8,6.8,0,0,1,1.48,2.58,13.22,13.22,0,0,1,.57,4.24v1.75Z"/><path class="cls-1" d="M556.52,218.75h4.94v10.87h3.12V218.75h4.94V245.8h-4.94V234.33h-3.12V245.8h-4.94Z"/><path class="cls-1" d="M575,222.93h-4.26v-4.18h13.45v4.18h-4.26V245.8H575Z"/><path class="cls-1" d="M595.2,218.75h7.14l3.34,27.06h-4.75l-.72-6h-4l-.68,6H591.4Zm3.15,4.18h-.08l-1.56,12.92h3.08Z"/><path class="cls-1" d="M607.13,218.75H612L616.48,233h.08V218.75h4V245.8h-3.84l-5.28-16.38h-.08V245.8h-4.18Z"/><path class="cls-1" d="M623.24,218.75h4.29a10.47,10.47,0,0,1,4.92,1,6.48,6.48,0,0,1,2.74,2.74,11.53,11.53,0,0,1,1.18,4.26q.25,2.49.25,5.57,0,2.93-.23,5.42a13,13,0,0,1-1.06,4.29,6.32,6.32,0,0,1-2.49,2.81,8.63,8.63,0,0,1-4.5,1h-5.09Zm4.94,22.88a4.16,4.16,0,0,0,1.82-.32,2.09,2.09,0,0,0,1-1.31,11.07,11.07,0,0,0,.4-2.83q.08-1.84.08-4.92t-.08-4.9a10.74,10.74,0,0,0-.4-2.79,2.08,2.08,0,0,0-1-1.29,4.17,4.17,0,0,0-1.82-.32Z"/><path class="cls-1" d="M650.18,238c0,.38,0,.81,0,1.29a5.93,5.93,0,0,0,.23,1.37,2.48,2.48,0,0,0,.63,1.08,1.67,1.67,0,0,0,1.24.44,2,2,0,0,0,1-.25,2.11,2.11,0,0,0,.68-.65,2.73,2.73,0,0,0,.38-.86,3.59,3.59,0,0,0,.11-.87,3.68,3.68,0,0,0-.67-2.17,10.47,10.47,0,0,0-1.65-1.82q-1-.87-2.17-1.79a15,15,0,0,1-2.17-2.05,10.61,10.61,0,0,1-1.65-2.62,8.48,8.48,0,0,1-.67-3.5,9.62,9.62,0,0,1,.42-2.87,7,7,0,0,1,1.22-2.34,5.86,5.86,0,0,1,2-1.58,6.87,6.87,0,0,1,5.61,0,5.16,5.16,0,0,1,1.92,1.69,7.73,7.73,0,0,1,1.1,2.6,15.88,15.88,0,0,1,.4,3.34h-4.41q0-.57,0-1.27a6.34,6.34,0,0,0-.21-1.33,2.31,2.31,0,0,0-.59-1,1.54,1.54,0,0,0-1.14-.42,1.59,1.59,0,0,0-1.37.68,3,3,0,0,0-.49,1.79,3.57,3.57,0,0,0,.67,2.09,11,11,0,0,0,1.65,1.84q1,.89,2.17,1.84a15.75,15.75,0,0,1,2.17,2.13,11.36,11.36,0,0,1,1.65,2.66,8.38,8.38,0,0,1,.67,3.46,9.39,9.39,0,0,1-.44,2.91,6.88,6.88,0,0,1-1.29,2.36,6.12,6.12,0,0,1-2.13,1.6,7,7,0,0,1-2.95.59,5.94,5.94,0,0,1-3.21-.78,5.71,5.71,0,0,1-1.94-2,7.94,7.94,0,0,1-.95-2.7,17.5,17.5,0,0,1-.25-2.89Z"/><path class="cls-1" d="M660,232.28a36.63,36.63,0,0,1,.51-6.69,13.84,13.84,0,0,1,1.46-4.33,5.88,5.88,0,0,1,2.28-2.34,6.6,6.6,0,0,1,5.93,0,5.88,5.88,0,0,1,2.28,2.34,13.84,13.84,0,0,1,1.46,4.33,43.8,43.8,0,0,1,0,13.38,13.83,13.83,0,0,1-1.46,4.33,5.88,5.88,0,0,1-2.28,2.34,6.6,6.6,0,0,1-5.93,0A5.88,5.88,0,0,1,662,243.3a13.83,13.83,0,0,1-1.46-4.33A36.65,36.65,0,0,1,660,232.28Zm5.4,2.85q0,2.2.13,3.57a12.19,12.19,0,0,0,.36,2.15,2,2,0,0,0,.57,1,1.22,1.22,0,0,0,1.52,0,2,2,0,0,0,.57-1,12.18,12.18,0,0,0,.36-2.15q.13-1.37.13-3.57v-5.7q0-2.2-.13-3.57a11.71,11.71,0,0,0-.36-2.13,2.15,2.15,0,0,0-.57-1,1.15,1.15,0,0,0-1.52,0,2.17,2.17,0,0,0-.57,1,11.73,11.73,0,0,0-.36,2.13q-.13,1.37-.13,3.57Z"/><path class="cls-1" d="M676.59,218.75h4.94v22.88h6.31v4.18H676.59Z"/><path class="cls-1" d="M689.51,218.75h4.29a10.47,10.47,0,0,1,4.92,1,6.48,6.48,0,0,1,2.74,2.74,11.53,11.53,0,0,1,1.18,4.26q.25,2.49.25,5.57,0,2.93-.23,5.42a13,13,0,0,1-1.06,4.29,6.32,6.32,0,0,1-2.49,2.81,8.63,8.63,0,0,1-4.5,1h-5.09Zm4.94,22.88a4.16,4.16,0,0,0,1.82-.32,2.09,2.09,0,0,0,1-1.31,11.07,11.07,0,0,0,.4-2.83q.08-1.84.08-4.92t-.08-4.9a10.74,10.74,0,0,0-.4-2.79,2.08,2.08,0,0,0-1-1.29,4.17,4.17,0,0,0-1.82-.32Z"/><path class="cls-1" d="M704.45,240.86h4.94v4.94h-4.94Z"/></g></g></svg>