<svg xmlns="http://www.w3.org/2000/svg" viewBox="0 0 229.4 115.88"><defs><style>.cls-1{fill:#fff;}</style></defs><title>Asset 2</title><g id="Layer_2" data-name="Layer 2"><g id="Layer_1-2" data-name="Layer 1"><rect class="cls-1" x="0.38" width="68.94" height="7.63"/><path class="cls-1" d="M.48,18.75H3.71a7.89,7.89,0,0,1,3.71.73,4.88,4.88,0,0,1,2.06,2.06,8.69,8.69,0,0,1,.89,3.21q.19,1.88.19,4.19T10.38,33a9.82,9.82,0,0,1-.8,3.23,4.76,4.76,0,0,1-1.87,2.12,6.49,6.49,0,0,1-3.39.76H.48ZM4.2,36a3.14,3.14,0,0,0,1.37-.24,1.57,1.57,0,0,0,.73-1,8.35,8.35,0,0,0,.3-2.13q.06-1.39.06-3.71t-.06-3.69a8.08,8.08,0,0,0-.3-2.1,1.57,1.57,0,0,0-.73-1A3.13,3.13,0,0,0,4.2,21.9Z"/><path class="cls-1" d="M12.4,18.75h8.41V21.9H16.12v5.21h3.46v3.32H16.12V36H21v3.15H12.4Z"/><path class="cls-1" d="M24.66,21.9H21.45V18.75H31.58V21.9H28.38V39.13H24.66Z"/><path class="cls-1" d="M35.62,21.9H32.41V18.75H42.54V21.9H39.34V39.13H35.62Z"/><path class="cls-1" d="M42.86,28.94a27.61,27.61,0,0,1,.39-5,10.42,10.42,0,0,1,1.1-3.26,4.43,4.43,0,0,1,1.72-1.76,5,5,0,0,1,4.46,0,4.43,4.43,0,0,1,1.72,1.76,10.38,10.38,0,0,1,1.1,3.26,27.56,27.56,0,0,1,.39,5,27.57,27.57,0,0,1-.39,5,10.38,10.38,0,0,1-1.1,3.26A4.42,4.42,0,0,1,50.54,39a5,5,0,0,1-4.46,0,4.42,4.42,0,0,1-1.72-1.76A10.42,10.42,0,0,1,43.25,34,27.62,27.62,0,0,1,42.86,28.94Zm4.06,2.15q0,1.66.1,2.69a9.11,9.11,0,0,0,.27,1.62,1.53,1.53,0,0,0,.43.79.92.92,0,0,0,1.14,0,1.53,1.53,0,0,0,.43-.79,9.25,9.25,0,0,0,.27-1.62q.1-1,.1-2.69V26.79q0-1.66-.1-2.69a8.91,8.91,0,0,0-.27-1.6,1.63,1.63,0,0,0-.43-.79.87.87,0,0,0-1.14,0,1.62,1.62,0,0,0-.43.79A8.79,8.79,0,0,0,47,24.1q-.1,1-.1,2.69Z"/><path class="cls-1" d="M55.43,18.75h3.72V36H63.9v3.15H55.43Z"/><path class="cls-1" d="M.34,47.37h5L6.95,57.82H7L8.75,47.37h4.84V67.75H10.27V52.81h-.06L7.69,67.75H5.63L3.14,52.81H3.08V67.75H.34Z"/><path class="cls-1" d="M17.59,47.37H23l2.52,20.38H21.91l-.54-4.52h-3l-.52,4.52H14.72ZM20,50.52H19.9l-1.17,9.73H21Z"/><path class="cls-1" d="M26.64,47.37h5l1.66,10.45h.06l1.75-10.45h4.84V67.75H36.57V52.81h-.06L34,67.75H31.93L29.44,52.81h-.06V67.75H26.64Z"/><path class="cls-1" d="M43.89,47.37h5.38l2.52,20.38H48.21l-.54-4.52h-3l-.52,4.52H41Zm2.38,3.15H46.2L45,60.25h2.32Z"/><path class="cls-1" d="M0,81.33H5v1.89H2.23v3.26h2v2h-2v5.08H0Z"/><path class="cls-1" d="M5.33,87.44a16.52,16.52,0,0,1,.23-3,6.24,6.24,0,0,1,.66-2,2.65,2.65,0,0,1,1-1.06,3,3,0,0,1,2.68,0,2.65,2.65,0,0,1,1,1.06,6.26,6.26,0,0,1,.66,2,16.57,16.57,0,0,1,.23,3,16.58,16.58,0,0,1-.23,3,6.25,6.25,0,0,1-.66,2,2.65,2.65,0,0,1-1,1.06,3,3,0,0,1-2.68,0,2.65,2.65,0,0,1-1-1.06,6.23,6.23,0,0,1-.66-2A16.53,16.53,0,0,1,5.33,87.44Zm2.44,1.29q0,1,.06,1.61a5.49,5.49,0,0,0,.16,1,.92.92,0,0,0,.26.47.55.55,0,0,0,.69,0,.92.92,0,0,0,.26-.47,5.49,5.49,0,0,0,.16-1q.06-.62.06-1.61V86.16q0-1-.06-1.61a5.3,5.3,0,0,0-.16-1,1,1,0,0,0-.26-.47.52.52,0,0,0-.69,0,1,1,0,0,0-.26.47,5.3,5.3,0,0,0-.16,1q-.06.62-.06,1.61Z"/><path class="cls-1" d="M12.92,81.33h2.51a5.41,5.41,0,0,1,1.44.18A2.76,2.76,0,0,1,18,82.1a2.73,2.73,0,0,1,.72,1.07A4.48,4.48,0,0,1,19,84.8a6,6,0,0,1-.06.82,4,4,0,0,1-.21.84,3.18,3.18,0,0,1-.4.76,2.05,2.05,0,0,1-.63.57L19,93.56H16.73l-1-5.25h-.53v5.25H12.92Zm2.23,5.19h.45a.91.91,0,0,0,.52-.15,1.18,1.18,0,0,0,.35-.38,1.69,1.69,0,0,0,.2-.54,3.33,3.33,0,0,0,.06-.64,2,2,0,0,0-.33-1.35,1.19,1.19,0,0,0-.9-.35h-.34Z"/><path class="cls-1" d="M23.24,81.33h1.94a4.74,4.74,0,0,1,2.22.44A2.93,2.93,0,0,1,28.64,83a5.21,5.21,0,0,1,.53,1.92q.11,1.13.11,2.52t-.1,2.45a5.9,5.9,0,0,1-.48,1.94,2.85,2.85,0,0,1-1.12,1.27,3.89,3.89,0,0,1-2,.46h-2.3Zm2.23,10.34a1.88,1.88,0,0,0,.82-.15.94.94,0,0,0,.44-.59,5,5,0,0,0,.18-1.28q0-.83,0-2.22t0-2.21a4.85,4.85,0,0,0-.18-1.26.94.94,0,0,0-.44-.58,1.89,1.89,0,0,0-.82-.15Z"/><path class="cls-1" d="M30.44,81.33h5v1.89H32.67v3.13h2.08v2H32.67v3.33h2.94v1.89H30.44Z"/><path class="cls-1" d="M37.84,83.22H35.92V81.33H42v1.89H40.07V93.56H37.84Z"/><path class="cls-1" d="M44.45,83.22H42.53V81.33h6.08v1.89H46.68V93.56H44.45Z"/><path class="cls-1" d="M48.85,87.44a16.52,16.52,0,0,1,.23-3,6.24,6.24,0,0,1,.66-2,2.66,2.66,0,0,1,1-1.06,3,3,0,0,1,2.68,0,2.66,2.66,0,0,1,1,1.06,6.25,6.25,0,0,1,.66,2,19.77,19.77,0,0,1,0,6,6.24,6.24,0,0,1-.66,2,2.65,2.65,0,0,1-1,1.06,3,3,0,0,1-2.68,0,2.65,2.65,0,0,1-1-1.06,6.23,6.23,0,0,1-.66-2A16.53,16.53,0,0,1,48.85,87.44Zm2.44,1.29q0,1,.06,1.61a5.53,5.53,0,0,0,.16,1,.91.91,0,0,0,.26.47.55.55,0,0,0,.69,0,.91.91,0,0,0,.26-.47,5.53,5.53,0,0,0,.16-1q.06-.62.06-1.61V86.16q0-1-.06-1.61a5.34,5.34,0,0,0-.16-1,1,1,0,0,0-.26-.47.52.52,0,0,0-.69,0,1,1,0,0,0-.26.47,5.34,5.34,0,0,0-.16,1q-.06.62-.06,1.61Z"/><path class="cls-1" d="M56.44,81.33h2.23V91.67h2.85v1.89H56.44Z"/><path class="cls-1" d="M61,81.33h2.23v2.06l-1.32,2.75H61l.81-2.58H61Z"/><path class="cls-1" d="M66,90c0,.17,0,.37,0,.58a2.67,2.67,0,0,0,.1.62,1.12,1.12,0,0,0,.28.49.75.75,0,0,0,.56.2.9.9,0,0,0,.46-.11,1,1,0,0,0,.31-.29,1.25,1.25,0,0,0,.17-.39,1.63,1.63,0,0,0,.05-.4,1.67,1.67,0,0,0-.3-1,4.81,4.81,0,0,0-.75-.82q-.45-.39-1-.81a6.86,6.86,0,0,1-1-.93A4.79,4.79,0,0,1,64.22,86a3.84,3.84,0,0,1-.3-1.58,4.36,4.36,0,0,1,.19-1.3,3.14,3.14,0,0,1,.55-1.06,2.64,2.64,0,0,1,.9-.71,3.09,3.09,0,0,1,2.53,0,2.31,2.31,0,0,1,.87.76,3.48,3.48,0,0,1,.5,1.18,7.17,7.17,0,0,1,.18,1.51h-2q0-.26,0-.58a2.86,2.86,0,0,0-.09-.6,1,1,0,0,0-.27-.47.7.7,0,0,0-.51-.19.72.72,0,0,0-.62.31,1.34,1.34,0,0,0-.22.81,1.61,1.61,0,0,0,.3.94,5,5,0,0,0,.75.83q.45.4,1,.83a7.1,7.1,0,0,1,1,1,5.13,5.13,0,0,1,.75,1.2,3.79,3.79,0,0,1,.3,1.56,4.26,4.26,0,0,1-.2,1.31,3.1,3.1,0,0,1-.58,1.06,2.77,2.77,0,0,1-1,.72,3.15,3.15,0,0,1-1.33.27,2.68,2.68,0,0,1-1.45-.35,2.56,2.56,0,0,1-.88-.9,3.59,3.59,0,0,1-.43-1.22A8,8,0,0,1,64,90Z"/><path class="cls-1" d="M73.45,81.33h5.43v1.42a19.18,19.18,0,0,0-1.58,5.16,37.28,37.28,0,0,0-.45,5.64H74.31a23.44,23.44,0,0,1,.32-2.76,25.9,25.9,0,0,1,.58-2.53q.35-1.24.81-2.46t1-2.49H73.45Z"/><path class="cls-1" d="M85,87.44a15.55,15.55,0,0,1-.26,3.13,6.4,6.4,0,0,1-.67,1.92,2.34,2.34,0,0,1-.94,1,2.37,2.37,0,0,1-1.06.26A2.48,2.48,0,0,1,81,93.45a2.29,2.29,0,0,1-.94-.94,6.15,6.15,0,0,1-.66-1.91,20.17,20.17,0,0,1,0-6.32,6.17,6.17,0,0,1,.66-1.91,2.29,2.29,0,0,1,.94-.94,2.48,2.48,0,0,1,1.07-.25,2.32,2.32,0,0,1,1.06.27,2.41,2.41,0,0,1,.94,1,6.41,6.41,0,0,1,.67,1.91A15.42,15.42,0,0,1,85,87.44Zm-2.13,0q0-1.6-.06-2.52a9.92,9.92,0,0,0-.16-1.38,1.13,1.13,0,0,0-.25-.58.48.48,0,0,0-.64,0,1.11,1.11,0,0,0-.25.58,9.92,9.92,0,0,0-.16,1.38q-.06.92-.06,2.52T81.35,90a9.92,9.92,0,0,0,.16,1.38,1.1,1.1,0,0,0,.25.58.48.48,0,0,0,.64,0,1.12,1.12,0,0,0,.25-.58A9.92,9.92,0,0,0,82.81,90Q82.87,89,82.87,87.44Z"/><path class="cls-1" d="M87.16,83.22H85.24V81.33h6.08v1.89H89.39V93.56H87.16Z"/><path class="cls-1" d="M92,81.33h2.23v4.91h1.41V81.33h2.23V93.56H95.59V88.37H94.19v5.19H92Z"/><path class="cls-1" d="M103.63,88.83l-2-7.5h2.21l1.07,4.79h0L106,81.33h1.87l-2,7.3v4.93h-2.23Z"/><path class="cls-1" d="M108.49,81.33h5v1.89h-2.82v3.13h2.08v2h-2.08v3.33h2.94v1.89h-5.17Z"/><path class="cls-1" d="M115.88,81.33h3.23l1.51,12.23h-2.15l-.33-2.71h-1.8L116,93.56h-1.87Zm1.43,1.89h0l-.7,5.84H118Z"/><path class="cls-1" d="M121.4,81.33h2.51a5.42,5.42,0,0,1,1.44.18,2.76,2.76,0,0,1,1.12.59,2.73,2.73,0,0,1,.72,1.07,4.51,4.51,0,0,1,.26,1.62,5.94,5.94,0,0,1-.06.82,3.91,3.91,0,0,1-.21.84,3.15,3.15,0,0,1-.4.76,2,2,0,0,1-.63.57l1.32,5.77h-2.25l-1-5.25h-.53v5.25H121.4Zm2.23,5.19h.45a.91.91,0,0,0,.52-.15A1.18,1.18,0,0,0,125,86a1.7,1.7,0,0,0,.2-.54,3.33,3.33,0,0,0,.06-.64,2,2,0,0,0-.33-1.35,1.19,1.19,0,0,0-.9-.35h-.34Z"/><path class="cls-1" d="M131.63,81.33h2.23V93.56h-2.23Z"/><path class="cls-1" d="M135.15,81.33h2.18l2,6.46h0V81.33h1.79V93.56h-1.73l-2.39-7.4h0v7.4h-1.89Z"/><path class="cls-1" d="M146.91,83.22H145V81.33h6.08v1.89h-1.92V93.56h-2.23Z"/><path class="cls-1" d="M151.71,81.33h2.23v4.91h1.41V81.33h2.23V93.56h-2.23V88.37h-1.41v5.19h-2.23Z"/><path class="cls-1" d="M158.94,81.33h5v1.89h-2.82v3.13h2.08v2h-2.08v3.33h2.94v1.89h-5.17Z"/><path class="cls-1" d="M168.32,81.33h2.51a5.42,5.42,0,0,1,1.44.18,2.76,2.76,0,0,1,1.12.59,2.73,2.73,0,0,1,.72,1.07,4.51,4.51,0,0,1,.26,1.62,5.94,5.94,0,0,1-.06.82,3.91,3.91,0,0,1-.21.84,3.15,3.15,0,0,1-.4.76,2,2,0,0,1-.63.57l1.32,5.77h-2.25l-1-5.25h-.53v5.25h-2.23Zm2.23,5.19H171a.91.91,0,0,0,.52-.15,1.18,1.18,0,0,0,.35-.38,1.7,1.7,0,0,0,.2-.54,3.33,3.33,0,0,0,.06-.64,2,2,0,0,0-.33-1.35,1.19,1.19,0,0,0-.9-.35h-.34Z"/><path class="cls-1" d="M175.32,81.33h5v1.89h-2.82v3.13h2.08v2h-2.08v3.33h2.94v1.89h-5.17Z"/><path class="cls-1" d="M185,85.69c0-.14,0-.36,0-.66a5.49,5.49,0,0,0-.06-.91,2.69,2.69,0,0,0-.24-.8.56.56,0,0,0-.53-.34.61.61,0,0,0-.39.15,1.21,1.21,0,0,0-.31.61,7.52,7.52,0,0,0-.2,1.34q-.07.88-.07,2.35t.07,2.4a6.94,6.94,0,0,0,.21,1.35,1.11,1.11,0,0,0,.33.6.78.78,0,0,0,.46.14.58.58,0,0,0,.5-.28,1.87,1.87,0,0,0,.28-.64,4.82,4.82,0,0,0,.11-.75q0-.38,0-.6h-.82V87.86h2.71v5.7h-.95l-.31-.81a2.69,2.69,0,0,1-.72.72,1.77,1.77,0,0,1-1,.33,2.55,2.55,0,0,1-1.5-.43,3,3,0,0,1-1-1.25,7.23,7.23,0,0,1-.53-2,19.63,19.63,0,0,1-.16-2.69,15,15,0,0,1,.25-3,6.78,6.78,0,0,1,.68-2,2.84,2.84,0,0,1,1-1.09,2.43,2.43,0,0,1,1.25-.33,3.79,3.79,0,0,1,1.06.16,2.14,2.14,0,0,1,.94.58,3.09,3.09,0,0,1,.67,1.17A6,6,0,0,1,187,84.9v.79Z"/><path class="cls-1" d="M188.24,81.33h2.23V93.56h-2.23Z"/><path class="cls-1" d="M191.52,87.44a16.56,16.56,0,0,1,.23-3,6.25,6.25,0,0,1,.66-2,2.65,2.65,0,0,1,1-1.06,3,3,0,0,1,2.68,0,2.66,2.66,0,0,1,1,1.06,6.25,6.25,0,0,1,.66,2,19.77,19.77,0,0,1,0,6,6.24,6.24,0,0,1-.66,2,2.65,2.65,0,0,1-1,1.06,3,3,0,0,1-2.68,0,2.65,2.65,0,0,1-1-1.06,6.24,6.24,0,0,1-.66-2A16.57,16.57,0,0,1,191.52,87.44ZM194,88.73q0,1,.06,1.61a5.53,5.53,0,0,0,.16,1,.91.91,0,0,0,.26.47.55.55,0,0,0,.69,0,.91.91,0,0,0,.26-.47,5.53,5.53,0,0,0,.16-1q.06-.62.06-1.61V86.16q0-1-.06-1.61a5.34,5.34,0,0,0-.16-1,1,1,0,0,0-.26-.47.52.52,0,0,0-.69,0,1,1,0,0,0-.26.47,5.34,5.34,0,0,0-.16,1q-.06.62-.06,1.61Z"/><path class="cls-1" d="M199.07,81.33h2.18l2,6.46h0V81.33h1.79V93.56h-1.73L201,86.16h0v7.4h-1.89Z"/><path class="cls-1" d="M209.15,81.33h2l.79,7.18h0l1.07-7.18h2l1,7.18h0l.88-7.18h1.6L217,93.56h-2l-1.06-7.75h0l-1.1,7.75h-2Z"/><path class="cls-1" d="M219.33,81.33h5v1.89h-2.82v3.13h2.08v2h-2.08v3.33h2.94v1.89h-5.17Z"/><path class="cls-1" d="M0,101.08H2.23V106H3.64v-4.91H5.87V113.3H3.64v-5.19H2.23v5.19H0Z"/><path class="cls-1" d="M6.95,107.19a16.52,16.52,0,0,1,.23-3,6.24,6.24,0,0,1,.66-2,2.65,2.65,0,0,1,1-1.06,3,3,0,0,1,2.68,0,2.65,2.65,0,0,1,1,1.06,6.26,6.26,0,0,1,.66,2,16.57,16.57,0,0,1,.23,3,16.58,16.58,0,0,1-.23,3,6.25,6.25,0,0,1-.66,2,2.65,2.65,0,0,1-1,1.06,3,3,0,0,1-2.68,0,2.65,2.65,0,0,1-1-1.06,6.23,6.23,0,0,1-.66-2A16.53,16.53,0,0,1,6.95,107.19Zm2.44,1.29q0,1,.06,1.61a5.49,5.49,0,0,0,.16,1,.92.92,0,0,0,.26.47.55.55,0,0,0,.69,0,.92.92,0,0,0,.26-.47,5.49,5.49,0,0,0,.16-1q.06-.62.06-1.61V105.9q0-1-.06-1.61a5.3,5.3,0,0,0-.16-1,1,1,0,0,0-.26-.47.52.52,0,0,0-.69,0,1,1,0,0,0-.26.47,5.3,5.3,0,0,0-.16,1q-.06.62-.06,1.61Z"/><path class="cls-1" d="M14.5,101.08h2.18l2,6.46h0v-6.46h1.79V113.3H18.81l-2.39-7.4h0v7.4H14.5Z"/><path class="cls-1" d="M21.58,107.19a16.52,16.52,0,0,1,.23-3,6.24,6.24,0,0,1,.66-2,2.65,2.65,0,0,1,1-1.06,3,3,0,0,1,2.68,0,2.65,2.65,0,0,1,1,1.06,6.26,6.26,0,0,1,.66,2,19.85,19.85,0,0,1,0,6,6.25,6.25,0,0,1-.66,2,2.65,2.65,0,0,1-1,1.06,3,3,0,0,1-2.68,0,2.65,2.65,0,0,1-1-1.06,6.23,6.23,0,0,1-.66-2A16.53,16.53,0,0,1,21.58,107.19ZM24,108.48q0,1,.06,1.61a5.49,5.49,0,0,0,.16,1,.92.92,0,0,0,.26.47.55.55,0,0,0,.69,0,.92.92,0,0,0,.26-.47,5.49,5.49,0,0,0,.16-1q.06-.62.06-1.61V105.9q0-1-.06-1.61a5.3,5.3,0,0,0-.16-1,1,1,0,0,0-.26-.47.52.52,0,0,0-.69,0,1,1,0,0,0-.26.47,5.3,5.3,0,0,0-.16,1q-.06.62-.06,1.61Z"/><path class="cls-1" d="M29.11,101.08h2.23v9.46a3.13,3.13,0,0,0,0,.4,1,1,0,0,0,.11.36.64.64,0,0,0,.24.26.74.74,0,0,0,.4.09.67.67,0,0,0,.64-.33,1.62,1.62,0,0,0,.18-.78v-9.46h1.89v9.17a3.51,3.51,0,0,1-.76,2.55,2.85,2.85,0,0,1-2.09.75,3.6,3.6,0,0,1-1.18-.18,2.29,2.29,0,0,1-.9-.57,2.57,2.57,0,0,1-.58-1,5,5,0,0,1-.21-1.54Z"/><path class="cls-1" d="M36.14,101.08h2.51a5.41,5.41,0,0,1,1.44.18,2.76,2.76,0,0,1,1.12.59,2.73,2.73,0,0,1,.72,1.07,4.48,4.48,0,0,1,.26,1.62,6,6,0,0,1-.06.82,4,4,0,0,1-.21.84,3.18,3.18,0,0,1-.4.76,2.05,2.05,0,0,1-.63.57l1.32,5.77H40l-1-5.25h-.53v5.25H36.14Zm2.23,5.19h.45a.91.91,0,0,0,.52-.15,1.18,1.18,0,0,0,.35-.38,1.69,1.69,0,0,0,.2-.54,3.33,3.33,0,0,0,.06-.64,2,2,0,0,0-.33-1.35,1.19,1.19,0,0,0-.9-.35h-.34Z"/><path class="cls-1" d="M43.14,101.08h5V103H45.37v3.13h2.08v2H45.37v3.33h2.94v1.89H43.14Z"/><path class="cls-1" d="M49.12,101.08h1.94a4.74,4.74,0,0,1,2.22.44,2.94,2.94,0,0,1,1.24,1.24,5.22,5.22,0,0,1,.53,1.92q.11,1.13.11,2.52t-.1,2.45a5.92,5.92,0,0,1-.48,1.94,2.85,2.85,0,0,1-1.12,1.27,3.9,3.9,0,0,1-2,.46h-2.3Zm2.23,10.34a1.88,1.88,0,0,0,.82-.15,1,1,0,0,0,.44-.59,5,5,0,0,0,.18-1.28q0-.83,0-2.22t0-2.21a4.86,4.86,0,0,0-.18-1.26,1,1,0,0,0-.44-.58,1.9,1.9,0,0,0-.82-.15Z"/><path class="cls-1" d="M60.79,103H58.87v-1.89h6.08V103H63V113.3H60.79Z"/><path class="cls-1" d="M65.59,101.08h2.23V106h1.41v-4.91h2.23V113.3H69.23v-5.19H67.82v5.19H65.59Z"/><path class="cls-1" d="M72.82,101.08h5V103H75.05v3.13h2.08v2H75.05v3.33H78v1.89H72.82Z"/><path class="cls-1" d="M85.94,105.5a8.12,8.12,0,0,0-.2-2.15q-.2-.63-.61-.63a.63.63,0,0,0-.34.11,1,1,0,0,0-.3.56,7.55,7.55,0,0,0-.21,1.34q-.08.89-.08,2.46t.05,2.4a9.1,9.1,0,0,0,.15,1.35,1,1,0,0,0,.28.59.73.73,0,0,0,.44.13q.55,0,.73-.78a11.19,11.19,0,0,0,.21-2.12l1.89.09a15.87,15.87,0,0,1-.09,1.64,4.82,4.82,0,0,1-.39,1.51,2.88,2.88,0,0,1-.88,1.12,2.5,2.5,0,0,1-1.55.44,2.55,2.55,0,0,1-1.5-.43,3,3,0,0,1-1-1.25,7.23,7.23,0,0,1-.53-2,19.63,19.63,0,0,1-.16-2.69,15,15,0,0,1,.25-3,6.78,6.78,0,0,1,.68-2,2.84,2.84,0,0,1,1-1.09,2.43,2.43,0,0,1,1.25-.33,2.62,2.62,0,0,1,1.54.4,2.58,2.58,0,0,1,.88,1.06,4.69,4.69,0,0,1,.39,1.48,16.25,16.25,0,0,1,.09,1.67Z"/><path class="cls-1" d="M88.77,107.19a16.56,16.56,0,0,1,.23-3,6.25,6.25,0,0,1,.66-2,2.65,2.65,0,0,1,1-1.06,3,3,0,0,1,2.68,0,2.66,2.66,0,0,1,1,1.06,6.25,6.25,0,0,1,.66,2,19.77,19.77,0,0,1,0,6,6.24,6.24,0,0,1-.66,2,2.65,2.65,0,0,1-1,1.06,3,3,0,0,1-2.68,0,2.65,2.65,0,0,1-1-1.06,6.24,6.24,0,0,1-.66-2A16.57,16.57,0,0,1,88.77,107.19Zm2.44,1.29q0,1,.06,1.61a5.53,5.53,0,0,0,.16,1,.91.91,0,0,0,.26.47.55.55,0,0,0,.69,0,.91.91,0,0,0,.26-.47,5.53,5.53,0,0,0,.16-1q.06-.62.06-1.61V105.9q0-1-.06-1.61a5.34,5.34,0,0,0-.16-1,1,1,0,0,0-.26-.47.52.52,0,0,0-.69,0,1,1,0,0,0-.26.47,5.34,5.34,0,0,0-.16,1q-.06.62-.06,1.61Z"/><path class="cls-1" d="M96.31,101.08H98.5l2,6.46h0v-6.46h1.79V113.3h-1.73l-2.39-7.4h0v7.4H96.31Z"/><path class="cls-1" d="M105.31,109.76c0,.17,0,.37,0,.58a2.67,2.67,0,0,0,.1.62,1.12,1.12,0,0,0,.28.49.75.75,0,0,0,.56.2.9.9,0,0,0,.46-.11,1,1,0,0,0,.31-.29,1.25,1.25,0,0,0,.17-.39,1.63,1.63,0,0,0,.05-.4,1.67,1.67,0,0,0-.3-1,4.81,4.81,0,0,0-.75-.82q-.45-.39-1-.81a6.86,6.86,0,0,1-1-.93,4.79,4.79,0,0,1-.75-1.18,3.84,3.84,0,0,1-.3-1.58,4.36,4.36,0,0,1,.19-1.3,3.14,3.14,0,0,1,.55-1.06,2.64,2.64,0,0,1,.9-.71,3.09,3.09,0,0,1,2.53,0,2.31,2.31,0,0,1,.87.76,3.48,3.48,0,0,1,.5,1.18,7.17,7.17,0,0,1,.18,1.51h-2q0-.26,0-.58a2.86,2.86,0,0,0-.09-.6,1,1,0,0,0-.27-.47.7.7,0,0,0-.51-.19.72.72,0,0,0-.62.31,1.34,1.34,0,0,0-.22.81,1.61,1.61,0,0,0,.3.94,5,5,0,0,0,.75.83q.45.4,1,.83a7.1,7.1,0,0,1,1,1,5.13,5.13,0,0,1,.75,1.2,3.79,3.79,0,0,1,.3,1.56,4.26,4.26,0,0,1-.2,1.31,3.1,3.1,0,0,1-.58,1.06,2.77,2.77,0,0,1-1,.72,3.15,3.15,0,0,1-1.33.27,2.68,2.68,0,0,1-1.45-.35,2.56,2.56,0,0,1-.88-.9,3.59,3.59,0,0,1-.43-1.22,8,8,0,0,1-.11-1.3Z"/><path class="cls-1" d="M110,101.08h2.23v9.46a3,3,0,0,0,0,.4,1.08,1.08,0,0,0,.11.36.65.65,0,0,0,.24.26.74.74,0,0,0,.39.09.67.67,0,0,0,.64-.33,1.62,1.62,0,0,0,.18-.78v-9.46h1.89v9.17a3.51,3.51,0,0,1-.75,2.55,2.85,2.85,0,0,1-2.1.75,3.6,3.6,0,0,1-1.18-.18,2.28,2.28,0,0,1-.9-.57,2.56,2.56,0,0,1-.58-1,5,5,0,0,1-.21-1.54Z"/><path class="cls-1" d="M117,101.08h3l1,6.27h0l1-6.27H125V113.3h-2v-9h0l-1.51,9h-1.24l-1.49-9h0v9H117Z"/><path class="cls-1" d="M126.28,101.08h5V103h-2.82v3.13h2.08v2h-2.08v3.33h2.94v1.89h-5.17Z"/><path class="cls-1" d="M132.26,101.08h2.51a5.42,5.42,0,0,1,1.44.18,2.76,2.76,0,0,1,1.12.59,2.73,2.73,0,0,1,.72,1.07,4.51,4.51,0,0,1,.26,1.62,5.94,5.94,0,0,1-.06.82,3.91,3.91,0,0,1-.21.84,3.15,3.15,0,0,1-.4.76,2,2,0,0,1-.63.57l1.32,5.77h-2.25L135,108h-.53v5.25h-2.23Zm2.23,5.19h.45a.91.91,0,0,0,.52-.15,1.18,1.18,0,0,0,.35-.38,1.7,1.7,0,0,0,.2-.54,3.33,3.33,0,0,0,.06-.64,2,2,0,0,0-.33-1.35,1.19,1.19,0,0,0-.9-.35h-.34Z"/><path class="cls-1" d="M140.06,113.3h-.82v-2.23h2.23v2.06l-1.32,2.75h-.89Z"/><path class="cls-1" d="M146,101.08h2.18l2,6.46h0v-6.46H152V113.3H150.3l-2.39-7.4h0v7.4H146Z"/><path class="cls-1" d="M153.07,107.19a16.56,16.56,0,0,1,.23-3,6.25,6.25,0,0,1,.66-2,2.65,2.65,0,0,1,1-1.06,3,3,0,0,1,2.68,0,2.66,2.66,0,0,1,1,1.06,6.25,6.25,0,0,1,.66,2,19.77,19.77,0,0,1,0,6,6.24,6.24,0,0,1-.66,2,2.65,2.65,0,0,1-1,1.06,3,3,0,0,1-2.68,0,2.65,2.65,0,0,1-1-1.06,6.24,6.24,0,0,1-.66-2A16.57,16.57,0,0,1,153.07,107.19Zm2.44,1.29q0,1,.06,1.61a5.53,5.53,0,0,0,.16,1,.91.91,0,0,0,.26.47.55.55,0,0,0,.69,0,.91.91,0,0,0,.26-.47,5.53,5.53,0,0,0,.16-1q.06-.62.06-1.61V105.9q0-1-.06-1.61a5.34,5.34,0,0,0-.16-1,1,1,0,0,0-.26-.47.52.52,0,0,0-.69,0,1,1,0,0,0-.26.47,5.34,5.34,0,0,0-.16,1q-.06.62-.06,1.61Z"/><path class="cls-1" d="M161.77,103h-1.92v-1.89h6.08V103H164V113.3h-2.23Z"/><path class="cls-1" d="M170.83,103h-1.92v-1.89H175V103h-1.92V113.3h-2.23Z"/><path class="cls-1" d="M175.63,101.08h2.23V106h1.41v-4.91h2.23V113.3h-2.23v-5.19h-1.41v5.19h-2.23Z"/><path class="cls-1" d="M182.86,101.08h5V103H185.1v3.13h2.08v2H185.1v3.33H188v1.89h-5.17Z"/><path class="cls-1" d="M192.24,101.08H195a3.73,3.73,0,0,1,1,.15,2.69,2.69,0,0,1,1,.51,2.76,2.76,0,0,1,.72,1,3.4,3.4,0,0,1,.28,1.47,3.17,3.17,0,0,1-.48,1.77,2.29,2.29,0,0,1-1.51,1v0a2.76,2.76,0,0,1,1.69,1,3.26,3.26,0,0,1,.54,1.93,3.81,3.81,0,0,1-.27,1.48,3.2,3.2,0,0,1-.7,1.07,2.87,2.87,0,0,1-1,.64,3.31,3.31,0,0,1-1.18.21h-2.85Zm2.23,5a1.31,1.31,0,0,0,1.12-.39,2.1,2.1,0,0,0,.28-1.22,4.8,4.8,0,0,0-.06-.84,1,1,0,0,0-.22-.5.78.78,0,0,0-.44-.22,3.83,3.83,0,0,0-.69-.05Zm0,5.43a2.62,2.62,0,0,0,.81-.1,1,1,0,0,0,.47-.32,1.2,1.2,0,0,0,.21-.56,5.55,5.55,0,0,0,.05-.82A4.09,4.09,0,0,0,196,109a1.27,1.27,0,0,0-.23-.55,1,1,0,0,0-.47-.33,2.29,2.29,0,0,0-.78-.11Z"/><path class="cls-1" d="M199.17,101.08h2.51a5.42,5.42,0,0,1,1.44.18,2.76,2.76,0,0,1,1.12.59,2.73,2.73,0,0,1,.72,1.07,4.51,4.51,0,0,1,.26,1.62,5.94,5.94,0,0,1-.06.82,3.91,3.91,0,0,1-.21.84,3.15,3.15,0,0,1-.4.76,2,2,0,0,1-.63.57l1.32,5.77H203l-1-5.25h-.53v5.25h-2.23Zm2.23,5.19h.45a.91.91,0,0,0,.52-.15,1.18,1.18,0,0,0,.35-.38,1.7,1.7,0,0,0,.2-.54,3.33,3.33,0,0,0,.06-.64,2,2,0,0,0-.33-1.35,1.19,1.19,0,0,0-.9-.35h-.34Z"/><path class="cls-1" d="M207.47,101.08h3.23l1.51,12.23h-2.15l-.33-2.71h-1.8l-.31,2.71h-1.87Zm1.43,1.89h0l-.7,5.84h1.39Z"/><path class="cls-1" d="M212.95,101.08h2.18l2,6.46h0v-6.46H219V113.3h-1.73l-2.39-7.4h0v7.4h-1.89Z"/><path class="cls-1" d="M220.32,101.08h1.94a4.73,4.73,0,0,1,2.22.44,2.93,2.93,0,0,1,1.24,1.24,5.21,5.21,0,0,1,.53,1.92q.11,1.13.11,2.52t-.1,2.45a5.9,5.9,0,0,1-.48,1.94,2.85,2.85,0,0,1-1.12,1.27,3.9,3.9,0,0,1-2,.46h-2.3Zm2.23,10.34a1.88,1.88,0,0,0,.82-.15,1,1,0,0,0,.44-.59,5,5,0,0,0,.18-1.28q0-.83,0-2.22t0-2.21a4.85,4.85,0,0,0-.18-1.26.94.94,0,0,0-.44-.58,1.89,1.89,0,0,0-.82-.15Z"/><path class="cls-1" d="M227.17,111.07h2.23v2.23h-2.23Z"/></g></g></svg>