<svg xmlns="http://www.w3.org/2000/svg" viewBox="0 0 673.15 246.26"><defs><style>.cls-1{fill:#fff;}</style></defs><title>3-Dettol</title><g id="Layer_2" data-name="Layer 2"><g id="Layer_1-2" data-name="Layer 1"><rect class="cls-1" x="2.73" width="152.1" height="16.84"/><path class="cls-1" d="M3,37.56h7.12a17.36,17.36,0,0,1,8.16,1.61,10.75,10.75,0,0,1,4.54,4.54,19.14,19.14,0,0,1,2,7.06q.41,4.13.41,9.23,0,4.85-.38,9A21.61,21.61,0,0,1,23,76.09a10.48,10.48,0,0,1-4.13,4.66,14.3,14.3,0,0,1-7.47,1.67H3Zm8.19,37.93a6.9,6.9,0,0,0,3-.54,3.46,3.46,0,0,0,1.61-2.17,18.35,18.35,0,0,0,.66-4.69q.13-3.06.13-8.16t-.13-8.13a17.78,17.78,0,0,0-.66-4.63A3.45,3.45,0,0,0,14.17,45a6.92,6.92,0,0,0-3-.54Z"/><path class="cls-1" d="M28.68,37.56H47.2v6.93H36.87V56h7.62v7.31H36.87V75.49H47.64v6.93h-19Z"/><path class="cls-1" d="M56.46,44.49H49.4V37.56H71.7v6.93H64.65V82.42H56.46Z"/><path class="cls-1" d="M81.47,44.49H74.41V37.56h22.3v6.93H89.66V82.42H81.47Z"/><path class="cls-1" d="M96.92,60a60.77,60.77,0,0,1,.85-11.09,22.94,22.94,0,0,1,2.43-7.18A9.74,9.74,0,0,1,104,37.85a10.94,10.94,0,0,1,9.83,0,9.75,9.75,0,0,1,3.78,3.87A22.92,22.92,0,0,1,120,48.9,60.68,60.68,0,0,1,120.86,60,60.67,60.67,0,0,1,120,71.08a22.89,22.89,0,0,1-2.43,7.18,9.74,9.74,0,0,1-3.78,3.88,10.95,10.95,0,0,1-9.83,0,9.73,9.73,0,0,1-3.78-3.87,22.92,22.92,0,0,1-2.43-7.18A60.77,60.77,0,0,1,96.92,60Zm8.95,4.72q0,3.65.22,5.92a20.16,20.16,0,0,0,.6,3.56,3.37,3.37,0,0,0,.95,1.73,2,2,0,0,0,2.52,0,3.37,3.37,0,0,0,.95-1.73,20.35,20.35,0,0,0,.6-3.56q.22-2.27.22-5.92V55.27q0-3.65-.22-5.92a19.57,19.57,0,0,0-.6-3.53,3.58,3.58,0,0,0-.95-1.73,1.92,1.92,0,0,0-2.52,0,3.57,3.57,0,0,0-.95,1.73,19.4,19.4,0,0,0-.6,3.53q-.22,2.27-.22,5.92Z"/><path class="cls-1" d="M124.06,37.56h8.19V75.49h10.46v6.93H124.06Z"/><path class="cls-1" d="M2.64,100.56h8.19v44.86H2.64Z"/><path class="cls-1" d="M14.87,100.56h8l7.5,23.69h.13V100.56H37v44.86H30.68l-8.76-27.15H21.8v27.15H14.87Z"/><path class="cls-1" d="M39,100.56h8l3.84,31.5H51l4.22-31.5h6.62l-6.74,44.86H45.69Z"/><path class="cls-1" d="M63.79,100.56H72v44.86H63.79Z"/><path class="cls-1" d="M82.18,132.44q0,.94.06,2.14a9.73,9.73,0,0,0,.38,2.27,4.13,4.13,0,0,0,1,1.8,2.77,2.77,0,0,0,2,.72,3.29,3.29,0,0,0,1.7-.41,3.47,3.47,0,0,0,1.13-1.07,4.54,4.54,0,0,0,.63-1.42,6,6,0,0,0,.19-1.45,6.12,6.12,0,0,0-1.1-3.59,17.44,17.44,0,0,0-2.74-3q-1.64-1.45-3.59-3a25,25,0,0,1-3.59-3.4,17.53,17.53,0,0,1-2.74-4.35,14.05,14.05,0,0,1-1.1-5.8,16,16,0,0,1,.69-4.76,11.54,11.54,0,0,1,2-3.87,9.71,9.71,0,0,1,3.31-2.61,11.37,11.37,0,0,1,9.29,0,8.56,8.56,0,0,1,3.18,2.8,12.83,12.83,0,0,1,1.83,4.32,26.43,26.43,0,0,1,.66,5.54H88.17c0-.63,0-1.33-.06-2.11a10.56,10.56,0,0,0-.35-2.21,3.84,3.84,0,0,0-1-1.73,2.56,2.56,0,0,0-1.89-.69,2.64,2.64,0,0,0-2.27,1.13,4.94,4.94,0,0,0-.82,3,5.91,5.91,0,0,0,1.1,3.46,18.2,18.2,0,0,0,2.74,3.06q1.64,1.48,3.59,3.06a26.06,26.06,0,0,1,3.59,3.53,18.83,18.83,0,0,1,2.74,4.41,13.91,13.91,0,0,1,1.1,5.73,15.56,15.56,0,0,1-.72,4.82,11.39,11.39,0,0,1-2.14,3.91,10.13,10.13,0,0,1-3.53,2.65,11.51,11.51,0,0,1-4.88,1A9.85,9.85,0,0,1,80.07,145a9.47,9.47,0,0,1-3.21-3.31,13.16,13.16,0,0,1-1.58-4.47,29,29,0,0,1-.41-4.79Z"/><path class="cls-1" d="M98.87,100.56h8.19v44.86H98.87Z"/><path class="cls-1" d="M111.23,100.56h10.08a13.74,13.74,0,0,1,3.84.57,9.88,9.88,0,0,1,3.56,1.89,10.07,10.07,0,0,1,2.65,3.5,12.45,12.45,0,0,1,1,5.39,11.63,11.63,0,0,1-1.76,6.49,8.38,8.38,0,0,1-5.54,3.53V122a10.12,10.12,0,0,1,6.21,3.81,12,12,0,0,1,2,7.09,14,14,0,0,1-1,5.42,11.76,11.76,0,0,1-2.58,3.91,10.55,10.55,0,0,1-3.69,2.36,12.16,12.16,0,0,1-4.35.79H111.23Zm8.19,18.4q3.09,0,4.13-1.45a7.72,7.72,0,0,0,1-4.47,17.65,17.65,0,0,0-.22-3.09,3.52,3.52,0,0,0-.82-1.83,2.88,2.88,0,0,0-1.61-.82,14,14,0,0,0-2.52-.19Zm0,19.91a9.58,9.58,0,0,0,3-.38,3.48,3.48,0,0,0,1.73-1.17,4.41,4.41,0,0,0,.79-2,20.74,20.74,0,0,0,.19-3,15.09,15.09,0,0,0-.22-2.71,4.63,4.63,0,0,0-.85-2,3.79,3.79,0,0,0-1.73-1.23,8.37,8.37,0,0,0-2.87-.41Z"/><path class="cls-1" d="M135.94,100.56h8.19v37.93h10.46v6.93H135.94Z"/><path class="cls-1" d="M157,100.56h18.52v6.93H165.19V119h7.62v7.31h-7.62v12.22H176v6.93H157Z"/><path class="cls-1" d="M191.08,100.56H202l3.65,23h.13l3.84-23h10.65v44.86h-7.31V112.53h-.13l-5.54,32.89h-4.54l-5.48-32.89h-.13v32.89h-6Z"/><path class="cls-1" d="M228.54,100.56h11.84l5.54,44.86h-7.87l-1.2-10h-6.62l-1.13,10h-6.87Zm5.23,6.93h-.13l-2.58,21.42h5.1Z"/><path class="cls-1" d="M248.11,100.56h8.19v18.77h.13l6.8-18.77h7.31l-6.11,15.06,7.37,29.8h-7.87l-4.54-20.1h-.13l-3,7.06v13h-8.19Z"/><path class="cls-1" d="M274,100.56h18.52v6.93H282.18V119h7.62v7.31h-7.62v12.22H293v6.93H274Z"/><path class="cls-1" d="M293.71,123a60.77,60.77,0,0,1,.85-11.09,22.94,22.94,0,0,1,2.43-7.18,9.74,9.74,0,0,1,3.78-3.87,10.94,10.94,0,0,1,9.83,0,9.75,9.75,0,0,1,3.78,3.87,22.92,22.92,0,0,1,2.43,7.18,60.68,60.68,0,0,1,.85,11.09,60.67,60.67,0,0,1-.85,11.09,22.89,22.89,0,0,1-2.43,7.18,9.74,9.74,0,0,1-3.78,3.88,10.95,10.95,0,0,1-9.83,0,9.73,9.73,0,0,1-3.78-3.87,22.92,22.92,0,0,1-2.43-7.18A60.77,60.77,0,0,1,293.71,123Zm8.95,4.72q0,3.65.22,5.92a20.16,20.16,0,0,0,.6,3.56,3.37,3.37,0,0,0,.95,1.73,2,2,0,0,0,2.52,0,3.37,3.37,0,0,0,.95-1.73,20.35,20.35,0,0,0,.6-3.56q.22-2.27.22-5.92v-9.45q0-3.65-.22-5.92a19.57,19.57,0,0,0-.6-3.53,3.58,3.58,0,0,0-.95-1.73,1.92,1.92,0,0,0-2.52,0,3.57,3.57,0,0,0-.95,1.73,19.4,19.4,0,0,0-.6,3.53q-.22,2.27-.22,5.92Z"/><path class="cls-1" d="M318,100.56h8l3.84,31.5h.13l4.22-31.5h6.62L334,145.42h-9.39Z"/><path class="cls-1" d="M342.88,100.56H361.4v6.93H351.06V119h7.62v7.31h-7.62v12.22h10.77v6.93h-19Z"/><path class="cls-1" d="M364.1,100.56h9.2a19.83,19.83,0,0,1,5.29.66,9.65,9.65,0,0,1,6.74,6.11,16.48,16.48,0,0,1,.94,6,21.87,21.87,0,0,1-.22,3,14.59,14.59,0,0,1-.79,3.09,11.7,11.7,0,0,1-1.48,2.77,7.53,7.53,0,0,1-2.3,2.08l4.85,21.17h-8.25l-3.84-19.28h-2v19.28H364.1Zm8.19,19h1.64a3.34,3.34,0,0,0,1.92-.54,4.3,4.3,0,0,0,1.29-1.39,6.18,6.18,0,0,0,.72-2,12.22,12.22,0,0,0,.22-2.33q0-3.65-1.23-4.95a4.35,4.35,0,0,0-3.31-1.29h-1.26Z"/><path class="cls-1" d="M2.24,175.67H7.18v10.87H10.3V175.67h4.94v27.06H10.3V191.25H7.18v11.48H2.24Z"/><path class="cls-1" d="M17.42,189.2a36.63,36.63,0,0,1,.51-6.69,13.81,13.81,0,0,1,1.46-4.33,5.87,5.87,0,0,1,2.28-2.34,6.6,6.6,0,0,1,5.93,0,5.88,5.88,0,0,1,2.28,2.34,13.84,13.84,0,0,1,1.46,4.33,36.63,36.63,0,0,1,.51,6.69,36.65,36.65,0,0,1-.51,6.69,13.83,13.83,0,0,1-1.46,4.33,5.88,5.88,0,0,1-2.28,2.34,6.6,6.6,0,0,1-5.93,0,5.87,5.87,0,0,1-2.28-2.34,13.8,13.8,0,0,1-1.46-4.33A36.65,36.65,0,0,1,17.42,189.2Zm5.4,2.85q0,2.2.13,3.57a12.18,12.18,0,0,0,.36,2.15,2,2,0,0,0,.57,1,1.22,1.22,0,0,0,1.52,0,2,2,0,0,0,.57-1,12.27,12.27,0,0,0,.36-2.15q.13-1.37.13-3.57v-5.7q0-2.2-.13-3.57a11.8,11.8,0,0,0-.36-2.13,2.16,2.16,0,0,0-.57-1,1.15,1.15,0,0,0-1.52,0,2.16,2.16,0,0,0-.57,1,11.71,11.71,0,0,0-.36,2.13q-.13,1.37-.13,3.57Z"/><path class="cls-1" d="M32.4,175.67h4.48l1.75,15.88h.08l2.36-15.88h4.45l2.17,15.88h.08l1.94-15.88h3.53l-3.53,27.06H45.21l-2.36-17.14h-.08l-2.43,17.14H36Z"/><path class="cls-1" d="M62.35,175.67h4.29a10.47,10.47,0,0,1,4.92,1,6.48,6.48,0,0,1,2.74,2.74,11.51,11.51,0,0,1,1.18,4.26q.25,2.49.25,5.57,0,2.93-.23,5.42a13,13,0,0,1-1.06,4.29,6.32,6.32,0,0,1-2.49,2.81,8.63,8.63,0,0,1-4.5,1H62.35Zm4.94,22.88a4.16,4.16,0,0,0,1.82-.32,2.09,2.09,0,0,0,1-1.31,11.11,11.11,0,0,0,.4-2.83q.07-1.84.08-4.92t-.08-4.9a10.78,10.78,0,0,0-.4-2.79,2.08,2.08,0,0,0-1-1.29,4.17,4.17,0,0,0-1.82-.32Z"/><path class="cls-1" d="M77.45,189.2a36.54,36.54,0,0,1,.51-6.69,13.81,13.81,0,0,1,1.46-4.33,5.87,5.87,0,0,1,2.28-2.34,6.6,6.6,0,0,1,5.93,0,5.88,5.88,0,0,1,2.28,2.34,13.84,13.84,0,0,1,1.46,4.33,43.8,43.8,0,0,1,0,13.38,13.83,13.83,0,0,1-1.46,4.33,5.88,5.88,0,0,1-2.28,2.34,6.6,6.6,0,0,1-5.93,0,5.87,5.87,0,0,1-2.28-2.34A13.8,13.8,0,0,1,78,195.89,36.55,36.55,0,0,1,77.45,189.2Zm5.4,2.85q0,2.2.13,3.57a12.18,12.18,0,0,0,.36,2.15,2,2,0,0,0,.57,1,1.22,1.22,0,0,0,1.52,0,2,2,0,0,0,.57-1,12.18,12.18,0,0,0,.36-2.15q.13-1.37.13-3.57v-5.7q0-2.2-.13-3.57a11.71,11.71,0,0,0-.36-2.13,2.16,2.16,0,0,0-.57-1,1.16,1.16,0,0,0-1.52,0,2.16,2.16,0,0,0-.57,1,11.71,11.71,0,0,0-.36,2.13q-.13,1.37-.13,3.57Z"/><path class="cls-1" d="M104,192.28l-4.52-16.61h4.9l2.36,10.6h.08l2.51-10.6h4.14l-4.52,16.15v10.91H104Z"/><path class="cls-1" d="M113.12,189.2a36.63,36.63,0,0,1,.51-6.69,13.81,13.81,0,0,1,1.46-4.33,5.87,5.87,0,0,1,2.28-2.34,6.6,6.6,0,0,1,5.93,0,5.88,5.88,0,0,1,2.28,2.34,13.84,13.84,0,0,1,1.46,4.33,43.88,43.88,0,0,1,0,13.38,13.83,13.83,0,0,1-1.46,4.33,5.88,5.88,0,0,1-2.28,2.34,6.6,6.6,0,0,1-5.93,0,5.87,5.87,0,0,1-2.28-2.34,13.8,13.8,0,0,1-1.46-4.33A36.65,36.65,0,0,1,113.12,189.2Zm5.4,2.85q0,2.2.13,3.57a12.18,12.18,0,0,0,.36,2.15,2,2,0,0,0,.57,1,1.22,1.22,0,0,0,1.52,0,2,2,0,0,0,.57-1,12.27,12.27,0,0,0,.36-2.15q.13-1.37.13-3.57v-5.7q0-2.2-.13-3.57a11.8,11.8,0,0,0-.36-2.13,2.16,2.16,0,0,0-.57-1,1.15,1.15,0,0,0-1.52,0,2.16,2.16,0,0,0-.57,1,11.71,11.71,0,0,0-.36,2.13q-.13,1.37-.13,3.57Z"/><path class="cls-1" d="M129.57,175.67h4.94v20.94a6.89,6.89,0,0,0,.06.89,2.35,2.35,0,0,0,.25.8,1.42,1.42,0,0,0,.53.57,1.65,1.65,0,0,0,.87.21,1.48,1.48,0,0,0,1.42-.74,3.6,3.6,0,0,0,.4-1.73V175.67h4.18V196q0,4-1.67,5.64a6.31,6.31,0,0,1-4.64,1.65,7.94,7.94,0,0,1-2.6-.4,5,5,0,0,1-2-1.25,5.68,5.68,0,0,1-1.29-2.24,11,11,0,0,1-.46-3.4Z"/><path class="cls-1" d="M152.4,175.67H159l2.2,13.87h.08l2.32-13.87H170v27.06h-4.41V182.89h-.08l-3.34,19.84h-2.74l-3.31-19.84h-.08v19.84H152.4Z"/><path class="cls-1" d="M175.21,175.67h7.14l3.34,27.06H181l-.72-6h-4l-.68,6h-4.14Zm3.15,4.18h-.08l-1.56,12.92h3.08Z"/><path class="cls-1" d="M187.23,175.67h4.94V187h.08l4.1-11.32h4.41l-3.69,9.08,4.45,18h-4.75L194,190.61H194l-1.79,4.26v7.87h-4.94Z"/><path class="cls-1" d="M203.07,175.67h11.17v4.18H208v6.92h4.6v4.41H208v7.37h6.5v4.18H203.07Z"/><path class="cls-1" d="M223.62,175.67h4.94v27.06h-4.94Z"/><path class="cls-1" d="M231.21,175.67H236L240.56,190h.08V175.67h4v27.06h-3.84l-5.28-16.38h-.08v16.38h-4.18Z"/><path class="cls-1" d="M250.91,194.9c0,.38,0,.81,0,1.29a5.88,5.88,0,0,0,.23,1.37,2.48,2.48,0,0,0,.63,1.08,1.67,1.67,0,0,0,1.23.44,2,2,0,0,0,1-.25,2.09,2.09,0,0,0,.68-.65,2.69,2.69,0,0,0,.38-.86,3.59,3.59,0,0,0,.11-.87,3.68,3.68,0,0,0-.67-2.17,10.47,10.47,0,0,0-1.65-1.82q-1-.87-2.17-1.79a15,15,0,0,1-2.17-2.05,10.58,10.58,0,0,1-1.65-2.62,8.48,8.48,0,0,1-.67-3.5,9.62,9.62,0,0,1,.42-2.87,6.94,6.94,0,0,1,1.22-2.34,5.86,5.86,0,0,1,2-1.58,6.87,6.87,0,0,1,5.61,0,5.17,5.17,0,0,1,1.92,1.69,7.75,7.75,0,0,1,1.1,2.6,15.94,15.94,0,0,1,.4,3.34h-4.41c0-.38,0-.8,0-1.27a6.34,6.34,0,0,0-.21-1.33,2.31,2.31,0,0,0-.59-1,1.54,1.54,0,0,0-1.14-.42,1.59,1.59,0,0,0-1.37.68,3,3,0,0,0-.49,1.79,3.57,3.57,0,0,0,.67,2.09,11,11,0,0,0,1.65,1.84q1,.89,2.17,1.84a15.7,15.7,0,0,1,2.17,2.13,11.33,11.33,0,0,1,1.65,2.66,8.38,8.38,0,0,1,.67,3.46,9.39,9.39,0,0,1-.44,2.91,6.85,6.85,0,0,1-1.29,2.36,6.11,6.11,0,0,1-2.13,1.6,6.94,6.94,0,0,1-2.94.59,5.94,5.94,0,0,1-3.21-.78,5.7,5.7,0,0,1-1.94-2,8,8,0,0,1-1-2.7,17.5,17.5,0,0,1-.25-2.89Z"/><path class="cls-1" d="M261.3,175.67h11.17v4.18h-6.23v6.92h4.6v4.41h-4.6v7.37h6.5v4.18H261.3Z"/><path class="cls-1" d="M282.47,185.48a17.91,17.91,0,0,0-.44-4.77q-.44-1.39-1.35-1.39a1.39,1.39,0,0,0-.76.25,2.21,2.21,0,0,0-.67,1.24,16.69,16.69,0,0,0-.46,3q-.17,2-.17,5.43t.11,5.3a20,20,0,0,0,.34,3,2.19,2.19,0,0,0,.63,1.31,1.63,1.63,0,0,0,1,.28q1.22,0,1.62-1.73a24.66,24.66,0,0,0,.47-4.69l4.18.19a35.55,35.55,0,0,1-.19,3.63,10.64,10.64,0,0,1-.87,3.34,6.37,6.37,0,0,1-2,2.47,5.55,5.55,0,0,1-3.44,1,5.63,5.63,0,0,1-3.32-1,6.58,6.58,0,0,1-2.17-2.75,16.11,16.11,0,0,1-1.18-4.41,43.77,43.77,0,0,1-.36-5.95,33.16,33.16,0,0,1,.55-6.55,15,15,0,0,1,1.5-4.35,6.27,6.27,0,0,1,2.22-2.41,5.38,5.38,0,0,1,2.75-.74,5.82,5.82,0,0,1,3.4.89,5.74,5.74,0,0,1,1.94,2.34,10.37,10.37,0,0,1,.85,3.27,35.48,35.48,0,0,1,.19,3.69Z"/><path class="cls-1" d="M289,175.67H294v20.94a7.07,7.07,0,0,0,.06.89,2.35,2.35,0,0,0,.25.8,1.44,1.44,0,0,0,.53.57,1.65,1.65,0,0,0,.87.21,1.47,1.47,0,0,0,1.42-.74,3.59,3.59,0,0,0,.4-1.73V175.67h4.18V196q0,4-1.67,5.64a6.31,6.31,0,0,1-4.64,1.65,8,8,0,0,1-2.6-.4,5,5,0,0,1-2-1.25,5.7,5.7,0,0,1-1.29-2.24A11,11,0,0,1,289,196Z"/><path class="cls-1" d="M304.37,175.67h5.55a12,12,0,0,1,3.19.4,6.11,6.11,0,0,1,2.47,1.31,6,6,0,0,1,1.6,2.38,9.93,9.93,0,0,1,.57,3.59,13.13,13.13,0,0,1-.13,1.82,8.77,8.77,0,0,1-.47,1.86,7,7,0,0,1-.89,1.67,4.54,4.54,0,0,1-1.39,1.25l2.93,12.77h-5l-2.32-11.63h-1.18v11.63h-4.94Zm4.94,11.48h1a2,2,0,0,0,1.16-.32,2.6,2.6,0,0,0,.78-.84,3.72,3.72,0,0,0,.44-1.2,7.41,7.41,0,0,0,.13-1.41,4.42,4.42,0,0,0-.74-3,2.63,2.63,0,0,0-2-.78h-.76Z"/><path class="cls-1" d="M319.66,175.67h11.17v4.18H324.6v6.92h4.6v4.41h-4.6v7.37h6.5v4.18H319.66Z"/><path class="cls-1" d="M342.69,179.85h-4.26v-4.18h13.45v4.18h-4.26v22.88h-4.94Z"/><path class="cls-1" d="M353.1,175.67h11.17v4.18H358v6.92h4.6v4.41H358v7.37h6.5v4.18H353.1Z"/><path class="cls-1" d="M366.12,175.67h11.17v4.18h-6.23v6.92h4.6v4.41h-4.6v7.37h6.5v4.18H366.12Z"/><path class="cls-1" d="M379.05,175.67h4.83L388.4,190h.08V175.67h4v27.06h-3.84l-5.28-16.38h-.08v16.38h-4.18Z"/><path class="cls-1" d="M411.2,185.32q0-.46,0-1.46a12,12,0,0,0-.13-2,5.94,5.94,0,0,0-.53-1.77,1.25,1.25,0,0,0-1.18-.76,1.34,1.34,0,0,0-.85.32,2.68,2.68,0,0,0-.68,1.35,16.62,16.62,0,0,0-.44,3q-.15,1.94-.15,5.21t.15,5.3a15.24,15.24,0,0,0,.46,3,2.44,2.44,0,0,0,.74,1.33,1.72,1.72,0,0,0,1,.3,1.28,1.28,0,0,0,1.1-.61,4.15,4.15,0,0,0,.61-1.42,10.51,10.51,0,0,0,.25-1.65q.06-.83.06-1.33h-1.82v-4h6v12.62h-2.09l-.68-1.79a6,6,0,0,1-1.6,1.6,3.93,3.93,0,0,1-2.32.72,5.63,5.63,0,0,1-3.33-1,6.59,6.59,0,0,1-2.17-2.75,16.07,16.07,0,0,1-1.18-4.41,43.6,43.6,0,0,1-.36-5.95,33.16,33.16,0,0,1,.55-6.55,15,15,0,0,1,1.5-4.35,6.27,6.27,0,0,1,2.22-2.41,5.38,5.38,0,0,1,2.75-.74,8.43,8.43,0,0,1,2.36.34,4.75,4.75,0,0,1,2.09,1.27,6.81,6.81,0,0,1,1.48,2.58,13.22,13.22,0,0,1,.57,4.24v1.75Z"/><path class="cls-1" d="M418.1,175.67H423v27.06H418.1Z"/><path class="cls-1" d="M425.78,175.67h5.55a12,12,0,0,1,3.19.4,6.11,6.11,0,0,1,2.47,1.31,6,6,0,0,1,1.6,2.38,9.93,9.93,0,0,1,.57,3.59,13.13,13.13,0,0,1-.13,1.82,8.77,8.77,0,0,1-.47,1.86,7,7,0,0,1-.89,1.67,4.54,4.54,0,0,1-1.39,1.25l2.93,12.77h-5l-2.32-11.63h-1.18v11.63h-4.94Zm4.94,11.48h1a2,2,0,0,0,1.16-.32,2.6,2.6,0,0,0,.78-.84,3.72,3.72,0,0,0,.44-1.2,7.41,7.41,0,0,0,.13-1.41,4.42,4.42,0,0,0-.74-3,2.63,2.63,0,0,0-2-.78h-.76Z"/><path class="cls-1" d="M441.06,175.67H446v22.88h6.31v4.18H441.06Z"/><path class="cls-1" d="M457.75,194.9c0,.38,0,.81,0,1.29a5.88,5.88,0,0,0,.23,1.37,2.5,2.5,0,0,0,.63,1.08,1.67,1.67,0,0,0,1.24.44,2,2,0,0,0,1-.25,2.1,2.1,0,0,0,.68-.65,2.73,2.73,0,0,0,.38-.86,3.59,3.59,0,0,0,.11-.87,3.69,3.69,0,0,0-.67-2.17,10.48,10.48,0,0,0-1.65-1.82q-1-.87-2.17-1.79a15.08,15.08,0,0,1-2.17-2.05,10.61,10.61,0,0,1-1.65-2.62,8.48,8.48,0,0,1-.67-3.5,9.66,9.66,0,0,1,.42-2.87,7,7,0,0,1,1.22-2.34,5.84,5.84,0,0,1,2-1.58,6.86,6.86,0,0,1,5.6,0,5.16,5.16,0,0,1,1.92,1.69,7.73,7.73,0,0,1,1.1,2.6,15.94,15.94,0,0,1,.4,3.34h-4.41q0-.57,0-1.27a6.34,6.34,0,0,0-.21-1.33,2.3,2.3,0,0,0-.59-1,1.54,1.54,0,0,0-1.14-.42A1.59,1.59,0,0,0,458,180a3,3,0,0,0-.49,1.79,3.57,3.57,0,0,0,.67,2.09,11,11,0,0,0,1.65,1.84q1,.89,2.17,1.84a15.7,15.7,0,0,1,2.17,2.13,11.39,11.39,0,0,1,1.65,2.66,8.4,8.4,0,0,1,.66,3.46,9.39,9.39,0,0,1-.44,2.91,6.86,6.86,0,0,1-1.29,2.36,6.11,6.11,0,0,1-2.13,1.6,7,7,0,0,1-2.95.59,5.94,5.94,0,0,1-3.21-.78,5.7,5.7,0,0,1-1.94-2,7.92,7.92,0,0,1-1-2.7,17.5,17.5,0,0,1-.25-2.89Z"/><path class="cls-1" d="M475.79,175.67h4.94v22.88H487v4.18H475.79Z"/><path class="cls-1" d="M487.82,189.2a36.63,36.63,0,0,1,.51-6.69,13.81,13.81,0,0,1,1.46-4.33,5.87,5.87,0,0,1,2.28-2.34,6.6,6.6,0,0,1,5.93,0,5.88,5.88,0,0,1,2.28,2.34,13.84,13.84,0,0,1,1.46,4.33,43.88,43.88,0,0,1,0,13.38,13.83,13.83,0,0,1-1.46,4.33,5.88,5.88,0,0,1-2.28,2.34,6.6,6.6,0,0,1-5.93,0,5.87,5.87,0,0,1-2.28-2.34,13.8,13.8,0,0,1-1.46-4.33A36.65,36.65,0,0,1,487.82,189.2Zm5.4,2.85q0,2.2.13,3.57a12.18,12.18,0,0,0,.36,2.15,2,2,0,0,0,.57,1,1.22,1.22,0,0,0,1.52,0,2,2,0,0,0,.57-1,12.27,12.27,0,0,0,.36-2.15q.13-1.37.13-3.57v-5.7q0-2.2-.13-3.57a11.8,11.8,0,0,0-.36-2.13,2.16,2.16,0,0,0-.57-1,1.15,1.15,0,0,0-1.52,0,2.16,2.16,0,0,0-.57,1,11.71,11.71,0,0,0-.36,2.13q-.13,1.37-.13,3.57Z"/><path class="cls-1" d="M503.75,189.2a36.54,36.54,0,0,1,.51-6.69,13.81,13.81,0,0,1,1.46-4.33,5.87,5.87,0,0,1,2.28-2.34,6.6,6.6,0,0,1,5.93,0,5.88,5.88,0,0,1,2.28,2.34,13.84,13.84,0,0,1,1.46,4.33,43.8,43.8,0,0,1,0,13.38,13.83,13.83,0,0,1-1.46,4.33,5.88,5.88,0,0,1-2.28,2.34,6.6,6.6,0,0,1-5.93,0,5.87,5.87,0,0,1-2.28-2.34,13.8,13.8,0,0,1-1.46-4.33A36.55,36.55,0,0,1,503.75,189.2Zm5.4,2.85q0,2.2.13,3.57a12.18,12.18,0,0,0,.36,2.15,2,2,0,0,0,.57,1,1.22,1.22,0,0,0,1.52,0,2,2,0,0,0,.57-1,12.18,12.18,0,0,0,.36-2.15q.13-1.37.13-3.57v-5.7q0-2.2-.13-3.57a11.71,11.71,0,0,0-.36-2.13,2.16,2.16,0,0,0-.57-1,1.16,1.16,0,0,0-1.52,0,2.16,2.16,0,0,0-.57,1,11.71,11.71,0,0,0-.36,2.13q-.13,1.37-.13,3.57Z"/><path class="cls-1" d="M520.34,175.67h4.94V187h.08l4.1-11.32h4.41l-3.69,9.08,4.45,18h-4.75l-2.74-12.12h-.08l-1.79,4.26v7.87h-4.94Z"/><path class="cls-1" d="M543.9,175.67H550a8.27,8.27,0,0,1,2.32.34,6,6,0,0,1,2.15,1.14,6.08,6.08,0,0,1,1.6,2.11,7.51,7.51,0,0,1,.63,3.25,7,7,0,0,1-1.06,3.91,5.05,5.05,0,0,1-3.34,2.13v.08a6.1,6.1,0,0,1,3.74,2.3,7.22,7.22,0,0,1,1.2,4.27,8.41,8.41,0,0,1-.59,3.27,7.08,7.08,0,0,1-1.56,2.36,6.35,6.35,0,0,1-2.22,1.43,7.35,7.35,0,0,1-2.62.47H543.9Zm4.94,11.1a2.9,2.9,0,0,0,2.49-.87,4.66,4.66,0,0,0,.63-2.7,10.69,10.69,0,0,0-.13-1.86,2.13,2.13,0,0,0-.49-1.1,1.74,1.74,0,0,0-1-.49,8.46,8.46,0,0,0-1.52-.11Zm0,12a5.8,5.8,0,0,0,1.79-.23,2.11,2.11,0,0,0,1-.7,2.66,2.66,0,0,0,.47-1.24,12.48,12.48,0,0,0,.11-1.82,9.06,9.06,0,0,0-.13-1.63,2.8,2.8,0,0,0-.51-1.22,2.3,2.3,0,0,0-1-.74,5.08,5.08,0,0,0-1.73-.25Z"/><path class="cls-1" d="M559,175.67H570.2v4.18H564v6.92h4.6v4.41H564v7.37h6.5v4.18H559Z"/><path class="cls-1" d="M575.19,175.67h7.14l3.34,27.06h-4.75l-.72-6h-4l-.68,6h-4.14Zm3.15,4.18h-.08l-1.56,12.92h3.08Z"/><path class="cls-1" d="M586.89,175.67h4.94v20.94a6.89,6.89,0,0,0,.06.89,2.35,2.35,0,0,0,.25.8,1.42,1.42,0,0,0,.53.57,1.65,1.65,0,0,0,.87.21,1.48,1.48,0,0,0,1.42-.74,3.6,3.6,0,0,0,.4-1.73V175.67h4.18V196q0,4-1.67,5.64a6.31,6.31,0,0,1-4.64,1.65,7.94,7.94,0,0,1-2.6-.4,5,5,0,0,1-2-1.25,5.68,5.68,0,0,1-1.29-2.24,11,11,0,0,1-.46-3.4Z"/><path class="cls-1" d="M604.92,179.85h-4.26v-4.18h13.45v4.18h-4.26v22.88h-4.94Z"/><path class="cls-1" d="M615.25,175.67h4.94v27.06h-4.94Z"/><path class="cls-1" d="M622.92,175.67H634v4.18h-6.12v7.22h4.52v4.41h-4.52v11.25h-4.94Z"/><path class="cls-1" d="M635.29,175.67h4.94v20.94a7.07,7.07,0,0,0,.06.89,2.35,2.35,0,0,0,.25.8,1.44,1.44,0,0,0,.53.57,1.65,1.65,0,0,0,.87.21,1.47,1.47,0,0,0,1.42-.74,3.59,3.59,0,0,0,.4-1.73V175.67h4.18V196q0,4-1.67,5.64a6.31,6.31,0,0,1-4.64,1.65,8,8,0,0,1-2.6-.4,5,5,0,0,1-2-1.25,5.7,5.7,0,0,1-1.29-2.24,11,11,0,0,1-.46-3.4Z"/><path class="cls-1" d="M650.66,175.67h4.94v22.88h6.31v4.18H650.66Z"/><path class="cls-1" d="M665.4,193.15a13.84,13.84,0,0,1,.51-4.14,18.16,18.16,0,0,1,1.12-2.77q.3-.57.61-1.1c.2-.35.39-.72.55-1.08a7.2,7.2,0,0,0,.4-1.14,5.27,5.27,0,0,0,.15-1.31,4.32,4.32,0,0,0-.42-2,1.43,1.43,0,0,0-1.37-.8,1.62,1.62,0,0,0-1.54,1.22,9.17,9.17,0,0,0-.47,3.27L661.3,183a13.7,13.7,0,0,1,.3-2.95,6.78,6.78,0,0,1,1-2.43,5.19,5.19,0,0,1,1.86-1.65,6,6,0,0,1,2.85-.61,6.18,6.18,0,0,1,2.22.4,5.8,5.8,0,0,1,1.84,1.12,5.34,5.34,0,0,1,1.27,1.77,5.59,5.59,0,0,1,.48,2.34,8.74,8.74,0,0,1-.17,1.82,9.67,9.67,0,0,1-.44,1.48,11.22,11.22,0,0,1-.61,1.31l-.68,1.27q-.34.65-.68,1.33a10.13,10.13,0,0,0-.61,1.54,14,14,0,0,0-.44,1.9,14.91,14.91,0,0,0-.17,2.38v.68h-4Zm-.49,4.64h4.94v4.94h-4.94Z"/><path class="cls-1" d="M4.52,235.28,0,218.67H4.9l2.36,10.6h.08l2.51-10.6H14L9.46,234.82v10.91H4.52Z"/><path class="cls-1" d="M13.64,232.2a36.54,36.54,0,0,1,.51-6.69,13.81,13.81,0,0,1,1.46-4.33,5.87,5.87,0,0,1,2.28-2.34,6.6,6.6,0,0,1,5.93,0,5.88,5.88,0,0,1,2.28,2.34,13.84,13.84,0,0,1,1.46,4.33,36.54,36.54,0,0,1,.51,6.69,36.55,36.55,0,0,1-.51,6.69,13.83,13.83,0,0,1-1.46,4.33,5.88,5.88,0,0,1-2.28,2.34,6.6,6.6,0,0,1-5.93,0,5.87,5.87,0,0,1-2.28-2.34,13.8,13.8,0,0,1-1.46-4.33A36.55,36.55,0,0,1,13.64,232.2Zm5.4,2.85q0,2.2.13,3.57a12.18,12.18,0,0,0,.36,2.15,2,2,0,0,0,.57,1,1.22,1.22,0,0,0,1.52,0,2,2,0,0,0,.57-1,12.18,12.18,0,0,0,.36-2.15q.13-1.37.13-3.57v-5.7q0-2.2-.13-3.57a11.71,11.71,0,0,0-.36-2.13,2.16,2.16,0,0,0-.57-1,1.16,1.16,0,0,0-1.52,0,2.16,2.16,0,0,0-.57,1,11.71,11.71,0,0,0-.36,2.13q-.13,1.37-.13,3.57Z"/><path class="cls-1" d="M30.08,218.67H35v20.94a7.07,7.07,0,0,0,.06.89,2.35,2.35,0,0,0,.25.8,1.44,1.44,0,0,0,.53.57,1.65,1.65,0,0,0,.87.21,1.47,1.47,0,0,0,1.42-.74,3.59,3.59,0,0,0,.4-1.73V218.67h4.18V239q0,4-1.67,5.64a6.31,6.31,0,0,1-4.64,1.65,8,8,0,0,1-2.6-.4,5,5,0,0,1-2-1.25,5.7,5.7,0,0,1-1.29-2.24,11,11,0,0,1-.46-3.4Z"/><path class="cls-1" d="M53.11,218.67H57.4a10.47,10.47,0,0,1,4.92,1,6.48,6.48,0,0,1,2.74,2.74,11.53,11.53,0,0,1,1.18,4.26q.25,2.49.25,5.57,0,2.93-.23,5.42a13,13,0,0,1-1.06,4.29,6.32,6.32,0,0,1-2.49,2.81,8.63,8.63,0,0,1-4.5,1H53.11ZM58,241.55a4.15,4.15,0,0,0,1.82-.32,2.09,2.09,0,0,0,1-1.31,11.07,11.07,0,0,0,.4-2.83q.08-1.84.08-4.92t-.08-4.9a10.74,10.74,0,0,0-.4-2.79,2.08,2.08,0,0,0-1-1.29,4.17,4.17,0,0,0-1.82-.32Z"/><path class="cls-1" d="M68.21,232.2a36.63,36.63,0,0,1,.51-6.69,13.81,13.81,0,0,1,1.46-4.33,5.87,5.87,0,0,1,2.28-2.34,6.6,6.6,0,0,1,5.93,0,5.88,5.88,0,0,1,2.28,2.34,13.84,13.84,0,0,1,1.46,4.33,43.88,43.88,0,0,1,0,13.38,13.83,13.83,0,0,1-1.46,4.33,5.88,5.88,0,0,1-2.28,2.34,6.6,6.6,0,0,1-5.93,0,5.87,5.87,0,0,1-2.28-2.34,13.8,13.8,0,0,1-1.46-4.33A36.65,36.65,0,0,1,68.21,232.2Zm5.4,2.85q0,2.2.13,3.57a12.18,12.18,0,0,0,.36,2.15,2,2,0,0,0,.57,1,1.22,1.22,0,0,0,1.52,0,2,2,0,0,0,.57-1,12.27,12.27,0,0,0,.36-2.15q.13-1.37.13-3.57v-5.7q0-2.2-.13-3.57a11.8,11.8,0,0,0-.36-2.13,2.16,2.16,0,0,0-.57-1,1.15,1.15,0,0,0-1.52,0,2.16,2.16,0,0,0-.57,1,11.71,11.71,0,0,0-.36,2.13q-.13,1.37-.13,3.57Z"/><path class="cls-1" d="M84.7,218.67h4.83L94.05,233h.08V218.67h4v27.06H94.24L89,229.35h-.08v16.38H84.7Z"/><path class="cls-1" d="M100.46,218.67h4.94v4.56l-2.93,6.08h-2l1.79-5.7h-1.82Z"/><path class="cls-1" d="M110.62,222.85h-4.26v-4.18h13.45v4.18h-4.26v22.88h-4.94Z"/><path class="cls-1" d="M119.32,240.79h4.94v4.94h-4.94Z"/><path class="cls-1" d="M136.72,235.28l-4.52-16.61h4.9l2.36,10.6h.08l2.51-10.6h4.14l-4.52,16.15v10.91h-4.94Z"/><path class="cls-1" d="M145.84,232.2a36.54,36.54,0,0,1,.51-6.69,13.81,13.81,0,0,1,1.46-4.33,5.87,5.87,0,0,1,2.28-2.34,6.6,6.6,0,0,1,5.93,0,5.88,5.88,0,0,1,2.28,2.34,13.84,13.84,0,0,1,1.46,4.33,43.8,43.8,0,0,1,0,13.38,13.83,13.83,0,0,1-1.46,4.33,5.88,5.88,0,0,1-2.28,2.34,6.6,6.6,0,0,1-5.93,0,5.87,5.87,0,0,1-2.28-2.34,13.8,13.8,0,0,1-1.46-4.33A36.55,36.55,0,0,1,145.84,232.2Zm5.4,2.85q0,2.2.13,3.57a12.18,12.18,0,0,0,.36,2.15,2,2,0,0,0,.57,1,1.22,1.22,0,0,0,1.52,0,2,2,0,0,0,.57-1,12.18,12.18,0,0,0,.36-2.15q.13-1.37.13-3.57v-5.7q0-2.2-.13-3.57a11.71,11.71,0,0,0-.36-2.13,2.16,2.16,0,0,0-.57-1,1.16,1.16,0,0,0-1.52,0,2.16,2.16,0,0,0-.57,1,11.71,11.71,0,0,0-.36,2.13q-.13,1.37-.13,3.57Z"/><path class="cls-1" d="M162.28,218.67h4.94v20.94a6.89,6.89,0,0,0,.06.89,2.35,2.35,0,0,0,.25.8,1.42,1.42,0,0,0,.53.57,1.65,1.65,0,0,0,.87.21,1.48,1.48,0,0,0,1.42-.74,3.6,3.6,0,0,0,.4-1.73V218.67h4.18V239q0,4-1.67,5.64a6.31,6.31,0,0,1-4.64,1.65,7.94,7.94,0,0,1-2.6-.4,5,5,0,0,1-2-1.25,5.68,5.68,0,0,1-1.29-2.24,11,11,0,0,1-.46-3.4Z"/><path class="cls-1" d="M188.69,237.9c0,.38,0,.81,0,1.29a5.88,5.88,0,0,0,.23,1.37,2.48,2.48,0,0,0,.63,1.08,1.67,1.67,0,0,0,1.23.44,2,2,0,0,0,1-.25,2.09,2.09,0,0,0,.68-.65,2.69,2.69,0,0,0,.38-.86,3.59,3.59,0,0,0,.11-.87,3.68,3.68,0,0,0-.67-2.17,10.47,10.47,0,0,0-1.65-1.82q-1-.87-2.17-1.79a15,15,0,0,1-2.17-2.05,10.58,10.58,0,0,1-1.65-2.62,8.48,8.48,0,0,1-.67-3.5,9.62,9.62,0,0,1,.42-2.87,6.94,6.94,0,0,1,1.22-2.34,5.86,5.86,0,0,1,2-1.58,6.87,6.87,0,0,1,5.61,0,5.17,5.17,0,0,1,1.92,1.69,7.75,7.75,0,0,1,1.1,2.6,15.94,15.94,0,0,1,.4,3.34H192.3c0-.38,0-.8,0-1.27a6.34,6.34,0,0,0-.21-1.33,2.31,2.31,0,0,0-.59-1,1.54,1.54,0,0,0-1.14-.42A1.59,1.59,0,0,0,189,223a3,3,0,0,0-.49,1.79,3.57,3.57,0,0,0,.67,2.09,11,11,0,0,0,1.65,1.84q1,.89,2.17,1.84a15.7,15.7,0,0,1,2.17,2.13,11.33,11.33,0,0,1,1.65,2.66,8.38,8.38,0,0,1,.67,3.46,9.39,9.39,0,0,1-.44,2.91,6.85,6.85,0,0,1-1.29,2.36,6.11,6.11,0,0,1-2.13,1.6,6.94,6.94,0,0,1-2.94.59,5.94,5.94,0,0,1-3.21-.78,5.7,5.7,0,0,1-1.94-2,8,8,0,0,1-1-2.7,17.5,17.5,0,0,1-.25-2.89Z"/><path class="cls-1" d="M199.08,218.67H204v10.87h3.12V218.67h4.94v27.06h-4.94V234.25H204v11.48h-4.94Z"/><path class="cls-1" d="M214.25,232.2a36.63,36.63,0,0,1,.51-6.69,13.81,13.81,0,0,1,1.46-4.33,5.87,5.87,0,0,1,2.28-2.34,6.6,6.6,0,0,1,5.93,0,5.88,5.88,0,0,1,2.28,2.34,13.84,13.84,0,0,1,1.46,4.33,43.88,43.88,0,0,1,0,13.38,13.83,13.83,0,0,1-1.46,4.33,5.88,5.88,0,0,1-2.28,2.34,6.6,6.6,0,0,1-5.93,0,5.87,5.87,0,0,1-2.28-2.34,13.8,13.8,0,0,1-1.46-4.33A36.65,36.65,0,0,1,214.25,232.2Zm5.4,2.85q0,2.2.13,3.57a12.18,12.18,0,0,0,.36,2.15,2,2,0,0,0,.57,1,1.22,1.22,0,0,0,1.52,0,2,2,0,0,0,.57-1,12.27,12.27,0,0,0,.36-2.15q.13-1.37.13-3.57v-5.7q0-2.2-.13-3.57a11.8,11.8,0,0,0-.36-2.13,2.16,2.16,0,0,0-.57-1,1.15,1.15,0,0,0-1.52,0,2.16,2.16,0,0,0-.57,1,11.71,11.71,0,0,0-.36,2.13q-.13,1.37-.13,3.57Z"/><path class="cls-1" d="M229.24,218.67h4.48l1.75,15.88h.08l2.36-15.88h4.45l2.17,15.88h.08l1.94-15.88h3.53l-3.53,27.06H242l-2.36-17.14h-.08l-2.43,17.14h-4.33Z"/><path class="cls-1" d="M261.46,222.85h-4.26v-4.18h13.45v4.18h-4.26v22.88h-4.94Z"/><path class="cls-1" d="M271.88,218.67h4.94v10.87h3.12V218.67h4.94v27.06h-4.94V234.25h-3.12v11.48h-4.94Z"/><path class="cls-1" d="M287.68,218.67h11.17v4.18h-6.23v6.92h4.6v4.41h-4.6v7.37h6.5v4.18H287.68Z"/><path class="cls-1" d="M300.61,218.67h6.57l2.2,13.87h.08l2.32-13.87h6.42v27.06H313.8V225.89h-.08l-3.34,19.84h-2.74l-3.31-19.84h-.08v19.84h-3.65Z"/><path class="cls-1" d="M330.86,222.85H326.6v-4.18h13.45v4.18H335.8v22.88h-4.94Z"/><path class="cls-1" d="M341.27,218.67h4.94v10.87h3.12V218.67h4.94v27.06h-4.94V234.25h-3.12v11.48h-4.94Z"/><path class="cls-1" d="M359.58,218.67h7.14l3.34,27.06h-4.75l-.72-6h-4l-.68,6h-4.14Zm3.15,4.18h-.08l-1.56,12.92h3.08Z"/><path class="cls-1" d="M373.46,222.85H369.2v-4.18h13.45v4.18H378.4v22.88h-4.94Z"/><path class="cls-1" d="M393.52,222.85h-4.26v-4.18h13.45v4.18h-4.26v22.88h-4.94Z"/><path class="cls-1" d="M403.93,218.67h4.94v10.87H412V218.67h4.94v27.06H412V234.25h-3.12v11.48h-4.94Z"/><path class="cls-1" d="M419.74,218.67h11.17v4.18h-6.23v6.92h4.6v4.41h-4.6v7.37h6.5v4.18H419.74Z"/><path class="cls-1" d="M436.07,235.28l-4.52-16.61h4.9l2.36,10.6h.08l2.51-10.6h4.14L441,234.82v10.91h-4.94Z"/><path class="cls-1" d="M456.28,218.67h7.14l3.34,27.06H462l-.72-6h-4l-.68,6h-4.14Zm3.15,4.18h-.08l-1.56,12.92h3.08Z"/><path class="cls-1" d="M468.3,218.67h4.94v22.88h6.31v4.18H468.3Z"/><path class="cls-1" d="M481.23,218.67h5.55a12,12,0,0,1,3.19.4,6.11,6.11,0,0,1,2.47,1.31,6,6,0,0,1,1.6,2.38,9.91,9.91,0,0,1,.57,3.59,13.28,13.28,0,0,1-.13,1.82A8.72,8.72,0,0,1,494,230a7,7,0,0,1-.89,1.67,4.54,4.54,0,0,1-1.39,1.25l2.93,12.77h-5l-2.32-11.63h-1.18v11.63h-4.94Zm4.94,11.48h1a2,2,0,0,0,1.16-.32,2.6,2.6,0,0,0,.78-.84,3.74,3.74,0,0,0,.44-1.2,7.34,7.34,0,0,0,.13-1.41,4.42,4.42,0,0,0-.74-3,2.63,2.63,0,0,0-2-.78h-.76Z"/><path class="cls-1" d="M496.51,218.67h11.17v4.18h-6.23v6.92h4.6v4.41h-4.6v7.37H508v4.18H496.51Z"/><path class="cls-1" d="M512.68,218.67h7.14l3.34,27.06h-4.75l-.72-6h-4l-.68,6h-4.14Zm3.15,4.18h-.08l-1.56,12.92h3.08Z"/><path class="cls-1" d="M524.7,218.67H529a10.47,10.47,0,0,1,4.92,1,6.48,6.48,0,0,1,2.74,2.74,11.53,11.53,0,0,1,1.18,4.26q.25,2.49.25,5.57,0,2.93-.23,5.42a13,13,0,0,1-1.06,4.29,6.32,6.32,0,0,1-2.49,2.81,8.63,8.63,0,0,1-4.5,1H524.7Zm4.94,22.88a4.15,4.15,0,0,0,1.82-.32,2.09,2.09,0,0,0,1-1.31,11.07,11.07,0,0,0,.4-2.83q.08-1.84.08-4.92t-.08-4.9a10.74,10.74,0,0,0-.4-2.79,2.08,2.08,0,0,0-1-1.29,4.17,4.17,0,0,0-1.82-.32Z"/><path class="cls-1" d="M542.5,235.28,538,218.67h4.9l2.36,10.6h.08l2.51-10.6H552l-4.52,16.15v10.91H542.5Z"/><path class="cls-1" d="M562.71,218.67h7.14l3.34,27.06h-4.75l-.72-6h-4l-.68,6h-4.14Zm3.15,4.18h-.08l-1.56,12.92h3.08Z"/><path class="cls-1" d="M574.73,218.67h5.55a12,12,0,0,1,3.19.4,6.11,6.11,0,0,1,2.47,1.31,6,6,0,0,1,1.6,2.38,9.91,9.91,0,0,1,.57,3.59,13.28,13.28,0,0,1-.13,1.82,8.72,8.72,0,0,1-.48,1.86,7,7,0,0,1-.89,1.67,4.54,4.54,0,0,1-1.39,1.25l2.93,12.77h-5l-2.32-11.63h-1.18v11.63h-4.94Zm4.94,11.48h1a2,2,0,0,0,1.16-.32,2.6,2.6,0,0,0,.78-.84,3.74,3.74,0,0,0,.44-1.2,7.34,7.34,0,0,0,.13-1.41,4.42,4.42,0,0,0-.74-3,2.63,2.63,0,0,0-2-.78h-.76Z"/><path class="cls-1" d="M590,218.67h11.17v4.18H595v6.92h4.6v4.41H595v7.37h6.5v4.18H590Z"/><path class="cls-1" d="M603.41,240.79h4.94v4.94h-4.94Z"/></g></g></svg>