<svg xmlns="http://www.w3.org/2000/svg" viewBox="0 0 399.58 246.34"><defs><style>.cls-1{fill:#fff;}</style></defs><title>8-Diff Lucky</title><g id="Layer_2" data-name="Layer 2"><g id="Layer_1-2" data-name="Layer 1"><rect class="cls-1" x="1.52" width="152.13" height="16.84"/><path class="cls-1" d="M1.74,37.63H8.86A17.37,17.37,0,0,1,17,39.24a10.75,10.75,0,0,1,4.54,4.54,19.12,19.12,0,0,1,2,7.06q.41,4.13.41,9.23,0,4.85-.38,9a21.59,21.59,0,0,1-1.76,7.12,10.47,10.47,0,0,1-4.13,4.66,14.3,14.3,0,0,1-7.47,1.67H1.74ZM9.93,75.56A6.9,6.9,0,0,0,13,75a3.46,3.46,0,0,0,1.61-2.17,18.39,18.39,0,0,0,.66-4.69q.13-3.06.13-8.16t-.13-8.13a17.82,17.82,0,0,0-.66-4.63A3.46,3.46,0,0,0,13,45.1a6.92,6.92,0,0,0-3-.54Z"/><path class="cls-1" d="M27.36,37.63h8.19V82.49H27.36Z"/><path class="cls-1" d="M39.72,37.63H58v6.93H47.91v12h7.5v7.31h-7.5V82.49H39.72Z"/><path class="cls-1" d="M60,37.63H78.35v6.93H68.2v12h7.5v7.31H68.2V82.49H60Z"/><path class="cls-1" d="M1.74,100.63H9.93v37.93H20.39v6.93H1.74Z"/><path class="cls-1" d="M22.51,100.63H30.7v34.71a11.52,11.52,0,0,0,.09,1.48,3.88,3.88,0,0,0,.41,1.32,2.37,2.37,0,0,0,.88.95,2.74,2.74,0,0,0,1.45.35,2.45,2.45,0,0,0,2.36-1.23,6,6,0,0,0,.66-2.87V100.63h6.93v33.64q0,6.62-2.77,9.36A10.46,10.46,0,0,1,33,146.37a13.22,13.22,0,0,1-4.32-.66,8.36,8.36,0,0,1-3.31-2.08,9.43,9.43,0,0,1-2.14-3.72,18.23,18.23,0,0,1-.76-5.64Z"/><path class="cls-1" d="M61.43,116.89a29.7,29.7,0,0,0-.72-7.91q-.73-2.3-2.24-2.3a2.3,2.3,0,0,0-1.26.41,3.67,3.67,0,0,0-1.1,2,27.61,27.61,0,0,0-.76,4.91q-.28,3.28-.28,9,0,5.54.19,8.79a33.31,33.31,0,0,0,.57,4.95,3.64,3.64,0,0,0,1,2.17,2.69,2.69,0,0,0,1.61.47q2,0,2.68-2.87a40.87,40.87,0,0,0,.79-7.78l6.93.32a58.66,58.66,0,0,1-.32,6,17.68,17.68,0,0,1-1.45,5.54,10.56,10.56,0,0,1-3.24,4.09,9.19,9.19,0,0,1-5.7,1.61,9.33,9.33,0,0,1-5.51-1.58,10.91,10.91,0,0,1-3.59-4.57,26.61,26.61,0,0,1-2-7.31,72.2,72.2,0,0,1-.6-9.86,54.94,54.94,0,0,1,.91-10.87A24.83,24.83,0,0,1,49.9,105a10.41,10.41,0,0,1,3.69-4,8.93,8.93,0,0,1,4.57-1.23,9.65,9.65,0,0,1,5.64,1.48A9.5,9.5,0,0,1,67,105.11a17.16,17.16,0,0,1,1.42,5.42,59,59,0,0,1,.32,6.11Z"/><path class="cls-1" d="M72.14,100.63h8.19v18.77h.13l6.8-18.77h7.31l-6.11,15.06,7.37,29.8H87.95l-4.54-20.1h-.13l-3,7.06v13H72.14Z"/><path class="cls-1" d="M103.17,128.17l-7.5-27.53h8.13l3.91,17.58h.13L112,100.63h6.87l-7.5,26.78v18.08h-8.19Z"/><path class="cls-1" d="M130.2,139.44h4.91v-29.8l-4.91.82v-5q1-.44,2.14-1t2.3-1.13q1.16-.6,2.24-1.29a18.1,18.1,0,0,0,2-1.45h3.59v38.81h4.91v6H130.2Z"/><path class="cls-1" d="M154.41,119.66a6.76,6.76,0,0,0,3.37-.5,5.27,5.27,0,0,0,2-1.7,6.47,6.47,0,0,0,1-2.55,16.86,16.86,0,0,0,.28-3.18q0-1.07-.09-2.08a6.07,6.07,0,0,0-.41-1.76,3.14,3.14,0,0,0-.88-1.23,2.5,2.5,0,0,0-2.49-.25,2.1,2.1,0,0,0-.85.82,6.13,6.13,0,0,0-.66,1.64,12.16,12.16,0,0,0-.35,2.68L149,110.9a17.68,17.68,0,0,1,.85-4.22,10.31,10.31,0,0,1,1.89-3.4,8.92,8.92,0,0,1,3-2.3,9.85,9.85,0,0,1,4.25-.85,8.59,8.59,0,0,1,7.12,3.37,10.31,10.31,0,0,1,1.76,3.56,15.52,15.52,0,0,1,.57,4.22,15.18,15.18,0,0,1-1.32,6.49,8.43,8.43,0,0,1-4.91,4.22v.13a8.64,8.64,0,0,1,5.76,4.16,14.74,14.74,0,0,1,1.67,7.12q0,6.11-3.21,9.36a11.6,11.6,0,0,1-8.63,3.24,10,10,0,0,1-4.28-.85,8.33,8.33,0,0,1-3-2.33,10,10,0,0,1-1.8-3.5,15.2,15.2,0,0,1-.6-4.35l6.93-.44a16.17,16.17,0,0,0,.09,1.67,7.13,7.13,0,0,0,.41,1.76,3.88,3.88,0,0,0,.88,1.42,2.13,2.13,0,0,0,1.58.57,2.77,2.77,0,0,0,2.61-1.86,12.59,12.59,0,0,0,.85-5.13q0-4-1.48-5.64t-5.58-1.61Z"/><path class="cls-1" d="M4.67,175.75h7.14l3.34,27.06H10.41l-.72-6h-4l-.68,6H.87Zm3.15,4.18H7.75L6.19,192.85H9.27Z"/><path class="cls-1" d="M16.6,175.75h4.83L26,190H26V175.75h4V202.8H26.14l-5.28-16.38h-.08V202.8H16.6Z"/><path class="cls-1" d="M40.35,175.75H51.52v4.18H45.29v6.92h4.6v4.41h-4.6v7.37h6.5v4.18H40.35Z"/><path class="cls-1" d="M52.54,175.75h4.83l2.32,19h.08l2.55-19h4L62.23,202.8H56.57Z"/><path class="cls-1" d="M67.7,175.75h4.94V202.8H67.7Z"/><path class="cls-1" d="M75.38,175.75h4.94v22.88h6.31v4.18H75.38Z"/><path class="cls-1" d="M96.12,175.75h11.17v4.18h-6.23v6.92h4.6v4.41h-4.6v7.37h6.5v4.18H96.12Z"/><path class="cls-1" d="M112.45,192.35l-4.52-16.61h4.9l2.36,10.6h.08l2.51-10.6h4.14l-4.52,16.15V202.8h-4.94Z"/><path class="cls-1" d="M123,175.75h11.17v4.18h-6.23v6.92h4.6v4.41h-4.6v7.37h6.5v4.18H123Z"/><path class="cls-1" d="M152,185.55a17.92,17.92,0,0,0-.44-4.77q-.44-1.39-1.35-1.39a1.39,1.39,0,0,0-.76.25,2.22,2.22,0,0,0-.67,1.24,16.69,16.69,0,0,0-.46,3q-.17,2-.17,5.43t.11,5.3a20.07,20.07,0,0,0,.34,3,2.2,2.2,0,0,0,.63,1.31,1.63,1.63,0,0,0,1,.28q1.22,0,1.62-1.73a24.66,24.66,0,0,0,.47-4.69l4.18.19a35.28,35.28,0,0,1-.19,3.63,10.64,10.64,0,0,1-.87,3.34,6.37,6.37,0,0,1-2,2.47,5.55,5.55,0,0,1-3.44,1,5.63,5.63,0,0,1-3.33-1,6.58,6.58,0,0,1-2.17-2.75,16.07,16.07,0,0,1-1.18-4.41,43.6,43.6,0,0,1-.36-5.95,33.16,33.16,0,0,1,.55-6.55,15,15,0,0,1,1.5-4.35,6.26,6.26,0,0,1,2.22-2.41,5.38,5.38,0,0,1,2.75-.74,5.82,5.82,0,0,1,3.4.89,5.73,5.73,0,0,1,1.94,2.34,10.37,10.37,0,0,1,.85,3.27,35.48,35.48,0,0,1,.19,3.69Z"/><path class="cls-1" d="M158.73,175.75h4.94v10.87h3.12V175.75h4.94V202.8h-4.94V191.33h-3.12V202.8h-4.94Z"/><path class="cls-1" d="M177,175.75h7.14l3.34,27.06h-4.75l-.72-6h-4l-.68,6h-4.14Zm3.15,4.18h-.08l-1.56,12.92h3.08Z"/><path class="cls-1" d="M189,175.75h5.55a12,12,0,0,1,3.19.4,6.1,6.1,0,0,1,2.47,1.31,6,6,0,0,1,1.6,2.38,9.93,9.93,0,0,1,.57,3.59,13.13,13.13,0,0,1-.13,1.82,8.77,8.77,0,0,1-.47,1.86,7.05,7.05,0,0,1-.89,1.67,4.54,4.54,0,0,1-1.39,1.25l2.93,12.77h-5l-2.32-11.63H194V202.8H189ZM194,187.22h1a2,2,0,0,0,1.16-.32,2.6,2.6,0,0,0,.78-.84,3.77,3.77,0,0,0,.44-1.2,7.41,7.41,0,0,0,.13-1.41,4.42,4.42,0,0,0-.74-3,2.63,2.63,0,0,0-2-.78H194Z"/><path class="cls-1" d="M204.25,175.75h6.57l2.2,13.87h.08l2.32-13.87h6.42V202.8h-4.41V183h-.08L214,202.8h-2.74L208,183h-.08V202.8h-3.65Z"/><path class="cls-1" d="M234.49,179.93h-4.26v-4.18h13.45v4.18h-4.26V202.8h-4.94Z"/><path class="cls-1" d="M244,189.28a36.63,36.63,0,0,1,.51-6.69,13.84,13.84,0,0,1,1.46-4.33,5.88,5.88,0,0,1,2.28-2.34,6.6,6.6,0,0,1,5.93,0,5.88,5.88,0,0,1,2.28,2.34,13.84,13.84,0,0,1,1.46,4.33A43.8,43.8,0,0,1,258,196a13.83,13.83,0,0,1-1.46,4.33,5.88,5.88,0,0,1-2.28,2.34,6.6,6.6,0,0,1-5.93,0A5.88,5.88,0,0,1,246,200.3a13.83,13.83,0,0,1-1.46-4.33A36.65,36.65,0,0,1,244,189.28Zm5.4,2.85q0,2.2.13,3.57a12.19,12.19,0,0,0,.36,2.15,2,2,0,0,0,.57,1,1.22,1.22,0,0,0,1.52,0,2,2,0,0,0,.57-1,12.18,12.18,0,0,0,.36-2.15q.13-1.37.13-3.57v-5.7q0-2.2-.13-3.57a11.71,11.71,0,0,0-.36-2.13,2.15,2.15,0,0,0-.57-1,1.15,1.15,0,0,0-1.52,0,2.17,2.17,0,0,0-.57,1,11.73,11.73,0,0,0-.36,2.13q-.13,1.37-.13,3.57Z"/><path class="cls-1" d="M268.12,175.75h4.83L277.47,190h.08V175.75h4V202.8h-3.84l-5.28-16.38h-.08V202.8h-4.18Z"/><path class="cls-1" d="M284.23,175.75H295.4v4.18h-6.23v6.92h4.6v4.41h-4.6v7.37h6.5v4.18H284.23Z"/><path class="cls-1" d="M297.08,175.75H302v20.94a6.89,6.89,0,0,0,.06.89,2.32,2.32,0,0,0,.25.8,1.43,1.43,0,0,0,.53.57,1.65,1.65,0,0,0,.87.21,1.48,1.48,0,0,0,1.43-.74,3.6,3.6,0,0,0,.4-1.73V175.75h4.18V196q0,4-1.67,5.64a6.31,6.31,0,0,1-4.64,1.65,7.94,7.94,0,0,1-2.6-.4,5,5,0,0,1-2-1.25,5.68,5.68,0,0,1-1.29-2.24,11,11,0,0,1-.46-3.4Z"/><path class="cls-1" d="M315.12,179.93h-4.26v-4.18h13.45v4.18h-4.26V202.8h-4.94Z"/><path class="cls-1" d="M325.53,175.75h5.55a12,12,0,0,1,3.19.4,6.1,6.1,0,0,1,2.47,1.31,6,6,0,0,1,1.6,2.38,9.93,9.93,0,0,1,.57,3.59,13.13,13.13,0,0,1-.13,1.82,8.77,8.77,0,0,1-.47,1.86,7.05,7.05,0,0,1-.89,1.67A4.54,4.54,0,0,1,336,190l2.93,12.77h-5l-2.32-11.63h-1.18V202.8h-4.94Zm4.94,11.48h1a2,2,0,0,0,1.16-.32,2.6,2.6,0,0,0,.78-.84,3.77,3.77,0,0,0,.44-1.2,7.41,7.41,0,0,0,.13-1.41,4.42,4.42,0,0,0-.74-3,2.63,2.63,0,0,0-2-.78h-.76Z"/><path class="cls-1" d="M343.71,175.75h7.14l3.34,27.06h-4.75l-.72-6h-4l-.68,6h-4.14Zm3.15,4.18h-.08l-1.56,12.92h3.08Z"/><path class="cls-1" d="M355.73,175.75h4.94v22.88H367v4.18H355.73Z"/><path class="cls-1" d="M368.56,175.75h4.94V202.8h-4.94Z"/><path class="cls-1" d="M374.87,200l6.23-20.1h-5.7v-4.18h11.29v2.51l-6.42,20.37h6.23v4.18H374.87Z"/><path class="cls-1" d="M388.14,175.75h11.17v4.18h-6.23v6.92h4.6v4.41h-4.6v7.37h6.5v4.18H388.14Z"/><path class="cls-1" d="M4.52,235.35,0,218.75H4.9l2.36,10.6h.08l2.51-10.6H14L9.46,234.9V245.8H4.52Z"/><path class="cls-1" d="M13.64,232.28a36.63,36.63,0,0,1,.51-6.69,13.84,13.84,0,0,1,1.46-4.33,5.88,5.88,0,0,1,2.28-2.34,6.6,6.6,0,0,1,5.93,0,5.88,5.88,0,0,1,2.28,2.34,13.84,13.84,0,0,1,1.46,4.33,36.62,36.62,0,0,1,.51,6.69,36.64,36.64,0,0,1-.51,6.69,13.83,13.83,0,0,1-1.46,4.33,5.88,5.88,0,0,1-2.28,2.34,6.6,6.6,0,0,1-5.93,0,5.88,5.88,0,0,1-2.28-2.34A13.83,13.83,0,0,1,14.15,239,36.65,36.65,0,0,1,13.64,232.28Zm5.4,2.85q0,2.2.13,3.57a12.19,12.19,0,0,0,.36,2.15,2,2,0,0,0,.57,1,1.22,1.22,0,0,0,1.52,0,2,2,0,0,0,.57-1,12.18,12.18,0,0,0,.36-2.15q.13-1.37.13-3.57v-5.7q0-2.2-.13-3.57a11.71,11.71,0,0,0-.36-2.13,2.15,2.15,0,0,0-.57-1,1.15,1.15,0,0,0-1.52,0,2.17,2.17,0,0,0-.57,1,11.73,11.73,0,0,0-.36,2.13q-.13,1.37-.13,3.57Z"/><path class="cls-1" d="M30.08,218.75H35v20.94a6.89,6.89,0,0,0,.06.89,2.32,2.32,0,0,0,.25.8,1.43,1.43,0,0,0,.53.57,1.65,1.65,0,0,0,.87.21,1.48,1.48,0,0,0,1.43-.74,3.6,3.6,0,0,0,.4-1.73V218.75h4.18V239q0,4-1.67,5.64a6.31,6.31,0,0,1-4.64,1.65,7.94,7.94,0,0,1-2.6-.4,5,5,0,0,1-2-1.25,5.68,5.68,0,0,1-1.29-2.24,11,11,0,0,1-.46-3.4Z"/><path class="cls-1" d="M45.44,218.75H51a12,12,0,0,1,3.19.4,6.1,6.1,0,0,1,2.47,1.31,6,6,0,0,1,1.6,2.38,9.93,9.93,0,0,1,.57,3.59,13.13,13.13,0,0,1-.13,1.82,8.77,8.77,0,0,1-.47,1.86,7.05,7.05,0,0,1-.89,1.67A4.54,4.54,0,0,1,55.93,233l2.93,12.77h-5l-2.32-11.63H50.38V245.8H45.44Zm4.94,11.48h1a2,2,0,0,0,1.16-.32,2.6,2.6,0,0,0,.78-.84,3.77,3.77,0,0,0,.44-1.2,7.41,7.41,0,0,0,.13-1.41,4.42,4.42,0,0,0-.74-3,2.63,2.63,0,0,0-2-.78h-.76Z"/><path class="cls-1" d="M70.56,222.93H66.31v-4.18H79.76v4.18H75.5V245.8H70.56Z"/><path class="cls-1" d="M81,218.75h5.55a12,12,0,0,1,3.19.4,6.1,6.1,0,0,1,2.47,1.31,6,6,0,0,1,1.6,2.38,9.93,9.93,0,0,1,.57,3.59,13.13,13.13,0,0,1-.13,1.82,8.77,8.77,0,0,1-.47,1.86,7.05,7.05,0,0,1-.89,1.67A4.54,4.54,0,0,1,91.46,233l2.93,12.77h-5l-2.32-11.63H85.91V245.8H81Zm4.94,11.48h1a2,2,0,0,0,1.16-.32,2.6,2.6,0,0,0,.78-.84,3.77,3.77,0,0,0,.44-1.2,7.41,7.41,0,0,0,.13-1.41,4.42,4.42,0,0,0-.74-3,2.63,2.63,0,0,0-2-.78h-.76Z"/><path class="cls-1" d="M96.15,218.75h4.94V245.8H96.15Z"/><path class="cls-1" d="M107.46,238c0,.38,0,.81,0,1.29a5.93,5.93,0,0,0,.23,1.37,2.48,2.48,0,0,0,.63,1.08,1.67,1.67,0,0,0,1.24.44,2,2,0,0,0,1-.25,2.11,2.11,0,0,0,.68-.65,2.73,2.73,0,0,0,.38-.86,3.59,3.59,0,0,0,.11-.87,3.68,3.68,0,0,0-.67-2.17,10.47,10.47,0,0,0-1.65-1.82q-1-.87-2.17-1.79a15,15,0,0,1-2.17-2.05,10.61,10.61,0,0,1-1.65-2.62,8.48,8.48,0,0,1-.67-3.5,9.62,9.62,0,0,1,.42-2.87,7,7,0,0,1,1.22-2.34,5.86,5.86,0,0,1,2-1.58,6.87,6.87,0,0,1,5.61,0,5.16,5.16,0,0,1,1.92,1.69,7.73,7.73,0,0,1,1.1,2.6,15.88,15.88,0,0,1,.4,3.34h-4.41q0-.57,0-1.27a6.34,6.34,0,0,0-.21-1.33,2.31,2.31,0,0,0-.59-1,1.54,1.54,0,0,0-1.14-.42,1.59,1.59,0,0,0-1.37.68,3,3,0,0,0-.49,1.79,3.57,3.57,0,0,0,.67,2.09,11,11,0,0,0,1.65,1.84q1,.89,2.17,1.84a15.75,15.75,0,0,1,2.17,2.13,11.36,11.36,0,0,1,1.65,2.66,8.38,8.38,0,0,1,.67,3.46,9.39,9.39,0,0,1-.44,2.91,6.88,6.88,0,0,1-1.29,2.36,6.12,6.12,0,0,1-2.13,1.6,7,7,0,0,1-2.95.59,5.94,5.94,0,0,1-3.21-.78,5.71,5.71,0,0,1-1.94-2,7.94,7.94,0,0,1-.95-2.7A17.5,17.5,0,0,1,103,238Z"/><path class="cls-1" d="M117.85,218.75h4.94v11.32h.08l4.1-11.32h4.41l-3.69,9.08,4.45,18h-4.75l-2.74-12.12h-.08l-1.79,4.26v7.87h-4.94Z"/><path class="cls-1" d="M136.83,218.75H144l3.34,27.06h-4.75l-.72-6h-4l-.68,6H133Zm3.15,4.18h-.08l-1.56,12.92h3.08Z"/><path class="cls-1" d="M148.75,218.75h4.94V245.8h-4.94Z"/><path class="cls-1" d="M156.43,218.75h4.29a10.47,10.47,0,0,1,4.92,1,6.48,6.48,0,0,1,2.74,2.74,11.53,11.53,0,0,1,1.18,4.26q.25,2.49.25,5.57,0,2.93-.23,5.42a13,13,0,0,1-1.06,4.29A6.32,6.32,0,0,1,166,244.8a8.63,8.63,0,0,1-4.5,1h-5.09Zm4.94,22.88a4.16,4.16,0,0,0,1.82-.32,2.09,2.09,0,0,0,1-1.31,11.07,11.07,0,0,0,.4-2.83q.08-1.84.08-4.92t-.08-4.9a10.74,10.74,0,0,0-.4-2.79,2.08,2.08,0,0,0-1-1.29,4.17,4.17,0,0,0-1.82-.32Z"/><path class="cls-1" d="M172.16,218.75h11.17v4.18H177.1v6.92h4.6v4.41h-4.6v7.37h6.5v4.18H172.16Z"/><path class="cls-1" d="M185.19,218.75h4.94v11.32h.08l4.1-11.32h4.41L195,227.83l4.45,18h-4.75L192,233.68h-.08l-1.79,4.26v7.87h-4.94Z"/><path class="cls-1" d="M204.17,218.75h7.14l3.34,27.06h-4.75l-.72-6h-4l-.68,6h-4.14Zm3.15,4.18h-.08l-1.56,12.92h3.08Z"/><path class="cls-1" d="M216.19,218.75h4.94q4.18,0,6.35,1.86t2.17,6.23a14.2,14.2,0,0,1-.36,3.33,6.91,6.91,0,0,1-1.16,2.56,5.41,5.41,0,0,1-2,1.65,6.89,6.89,0,0,1-3,.59h-2V245.8h-4.94Zm5,12.27h.42a4.64,4.64,0,0,0,1.33-.17,2,2,0,0,0,1-.63,3.06,3.06,0,0,0,.61-1.25,8.15,8.15,0,0,0,.21-2,7.58,7.58,0,0,0-.27-2.28,2.79,2.79,0,0,0-.7-1.2,1.82,1.82,0,0,0-1-.47,8.88,8.88,0,0,0-1.18-.08h-.38Z"/><path class="cls-1" d="M230.93,218.75h4.94v10.87H239V218.75h4.94V245.8H239V234.33h-3.12V245.8h-4.94Z"/><path class="cls-1" d="M246.1,232.28a36.63,36.63,0,0,1,.51-6.69,13.84,13.84,0,0,1,1.46-4.33,5.88,5.88,0,0,1,2.28-2.34,6.6,6.6,0,0,1,5.93,0,5.88,5.88,0,0,1,2.28,2.34,13.84,13.84,0,0,1,1.46,4.33A43.8,43.8,0,0,1,260,239a13.83,13.83,0,0,1-1.46,4.33,5.88,5.88,0,0,1-2.28,2.34,6.6,6.6,0,0,1-5.93,0,5.88,5.88,0,0,1-2.28-2.34,13.83,13.83,0,0,1-1.46-4.33A36.65,36.65,0,0,1,246.1,232.28Zm5.4,2.85q0,2.2.13,3.57a12.19,12.19,0,0,0,.36,2.15,2,2,0,0,0,.57,1,1.22,1.22,0,0,0,1.52,0,2,2,0,0,0,.57-1,12.18,12.18,0,0,0,.36-2.15q.13-1.37.13-3.57v-5.7q0-2.2-.13-3.57a11.71,11.71,0,0,0-.36-2.13,2.15,2.15,0,0,0-.57-1,1.15,1.15,0,0,0-1.52,0,2.17,2.17,0,0,0-.57,1,11.73,11.73,0,0,0-.36,2.13q-.13,1.37-.13,3.57Z"/><path class="cls-1" d="M262.69,218.75h6.08a8.28,8.28,0,0,1,2.32.34,6,6,0,0,1,2.15,1.14,6.07,6.07,0,0,1,1.6,2.11,7.51,7.51,0,0,1,.63,3.25,7,7,0,0,1-1.06,3.91,5.06,5.06,0,0,1-3.34,2.13v.08a6.1,6.1,0,0,1,3.74,2.3,7.22,7.22,0,0,1,1.2,4.27,8.41,8.41,0,0,1-.59,3.27,7.08,7.08,0,0,1-1.56,2.36,6.36,6.36,0,0,1-2.22,1.43,7.35,7.35,0,0,1-2.62.47h-6.31Zm4.94,11.1a2.9,2.9,0,0,0,2.49-.87,4.66,4.66,0,0,0,.63-2.7,10.58,10.58,0,0,0-.13-1.86,2.13,2.13,0,0,0-.49-1.1,1.74,1.74,0,0,0-1-.49,8.44,8.44,0,0,0-1.52-.11Zm0,12a5.8,5.8,0,0,0,1.79-.23,2.11,2.11,0,0,0,1-.7,2.67,2.67,0,0,0,.47-1.24,12.48,12.48,0,0,0,.11-1.82,9.15,9.15,0,0,0-.13-1.63,2.8,2.8,0,0,0-.51-1.22,2.29,2.29,0,0,0-1-.74,5.07,5.07,0,0,0-1.73-.25Z"/><path class="cls-1" d="M277.77,218.75h4.94V245.8h-4.94Z"/><path class="cls-1" d="M287.95,218.75h7.14l3.34,27.06h-4.75l-.72-6h-4l-.68,6h-4.14Zm3.15,4.18H291l-1.56,12.92h3.08Z"/><path class="cls-1" d="M300.28,240.86h4.94v4.94h-4.94Z"/></g></g></svg>