<svg xmlns="http://www.w3.org/2000/svg" viewBox="0 0 439.64 246.19"><defs><style>.cls-1{fill:#231f20;}</style></defs><title>7-Diff Film</title><g id="Layer_2" data-name="Layer 2"><g id="Layer_1-2" data-name="Layer 1"><rect class="cls-1" x="1.65" width="152.51" height="16.9"/><path class="cls-1" d="M2,37.59H9.12a17.36,17.36,0,0,1,8.16,1.61,10.75,10.75,0,0,1,4.54,4.54,19.14,19.14,0,0,1,2,7.06q.41,4.13.41,9.23,0,4.85-.38,9A21.61,21.61,0,0,1,22,76.12a10.49,10.49,0,0,1-4.13,4.66,14.31,14.31,0,0,1-7.47,1.67H2Zm8.19,37.93a6.9,6.9,0,0,0,3-.54,3.46,3.46,0,0,0,1.61-2.17,18.38,18.38,0,0,0,.66-4.69q.13-3.06.13-8.16t-.12-8.13a17.82,17.82,0,0,0-.66-4.63,3.45,3.45,0,0,0-1.61-2.14,6.91,6.91,0,0,0-3-.54Z"/><path class="cls-1" d="M27.61,37.59H35.8V82.45H27.61Z"/><path class="cls-1" d="M40,37.59H58.3v6.93H48.16v12h7.5V63.8h-7.5V82.45H40Z"/><path class="cls-1" d="M60.27,37.59H78.6v6.93H68.46v12H76V63.8h-7.5V82.45H60.27Z"/><path class="cls-1" d="M2,100.59H20.33v6.93H10.19v12h7.5v7.31h-7.5v18.65H2Z"/><path class="cls-1" d="M22.15,100.59h8.19v44.86H22.15Z"/><path class="cls-1" d="M34.51,100.59H42.7v37.93H53.16v6.93H34.51Z"/><path class="cls-1" d="M55.42,100.59h10.9l3.65,23h.13l3.84-23H84.59v44.86H77.28V112.56h-.12l-5.54,32.89H67.07l-5.48-32.89h-.13v32.89h-6Z"/><path class="cls-1" d="M99.39,100.59h7.43l2.9,26.33h.13l3.91-26.33h7.37l3.59,26.33h.13l3.21-26.33h5.86l-5.86,44.86h-7.43L116.72,117h-.13l-4,28.41h-7.18Z"/><path class="cls-1" d="M135.89,100.59h8.19v44.86h-8.19Z"/><path class="cls-1" d="M148.25,100.59h8.19v37.93h10.46v6.93H148.25Z"/><path class="cls-1" d="M169.3,100.59h8.19v37.93h10.46v6.93H169.3Z"/><path class="cls-1" d="M203.7,100.59H222v6.93H211.89v12h7.5v7.31h-7.5v18.65H203.7Z"/><path class="cls-1" d="M223.85,100.59H232v44.86h-8.19Z"/><path class="cls-1" d="M236.07,100.59h8l7.5,23.69h.13V100.59h6.55v44.86h-6.36l-8.76-27.15H243v27.15h-6.93Z"/><path class="cls-1" d="M262.42,100.59h7.12a17.36,17.36,0,0,1,8.16,1.61,10.74,10.74,0,0,1,4.54,4.54,19.1,19.1,0,0,1,2,7.06q.41,4.13.41,9.23,0,4.85-.38,9a21.59,21.59,0,0,1-1.76,7.12,10.48,10.48,0,0,1-4.13,4.66,14.3,14.3,0,0,1-7.46,1.67h-8.44Zm8.19,37.93a6.9,6.9,0,0,0,3-.54,3.46,3.46,0,0,0,1.61-2.17,18.35,18.35,0,0,0,.66-4.69q.13-3.06.13-8.16t-.13-8.13a17.78,17.78,0,0,0-.66-4.63,3.45,3.45,0,0,0-1.61-2.14,6.91,6.91,0,0,0-3-.54Z"/><path class="cls-1" d="M305.26,128.13l-7.5-27.53h8.13l3.91,17.58h.13l4.16-17.58H321l-7.5,26.78v18.08h-8.19Z"/><path class="cls-1" d="M320,123a60.77,60.77,0,0,1,.85-11.09,22.92,22.92,0,0,1,2.43-7.18,9.73,9.73,0,0,1,3.78-3.87,10.94,10.94,0,0,1,9.83,0,9.74,9.74,0,0,1,3.78,3.87,22.94,22.94,0,0,1,2.43,7.18,60.68,60.68,0,0,1,.85,11.09,60.67,60.67,0,0,1-.85,11.09,22.92,22.92,0,0,1-2.43,7.18,9.73,9.73,0,0,1-3.78,3.88,10.95,10.95,0,0,1-9.83,0,9.73,9.73,0,0,1-3.78-3.87,22.89,22.89,0,0,1-2.43-7.18A60.77,60.77,0,0,1,320,123Zm8.95,4.72q0,3.65.22,5.92a20.18,20.18,0,0,0,.6,3.56,3.37,3.37,0,0,0,.95,1.73,2,2,0,0,0,2.52,0,3.37,3.37,0,0,0,.94-1.73,20.33,20.33,0,0,0,.6-3.56q.22-2.27.22-5.92V118.3q0-3.65-.22-5.92a19.56,19.56,0,0,0-.6-3.53,3.58,3.58,0,0,0-.94-1.73,1.92,1.92,0,0,0-2.52,0,3.58,3.58,0,0,0-.95,1.73,19.41,19.41,0,0,0-.6,3.53q-.22,2.27-.22,5.92Z"/><path class="cls-1" d="M346.89,100.59h8.19v34.71a11.52,11.52,0,0,0,.09,1.48,3.88,3.88,0,0,0,.41,1.32,2.37,2.37,0,0,0,.88.95,2.73,2.73,0,0,0,1.45.35,2.45,2.45,0,0,0,2.36-1.23,6,6,0,0,0,.66-2.87V100.59h6.93v33.64q0,6.62-2.77,9.36a10.46,10.46,0,0,1-7.69,2.74,13.21,13.21,0,0,1-4.31-.66,8.36,8.36,0,0,1-3.31-2.08,9.43,9.43,0,0,1-2.14-3.72,18.23,18.23,0,0,1-.76-5.64Z"/><path class="cls-1" d="M9.65,185.25q0-.46,0-1.46a12.14,12.14,0,0,0-.13-2A5.94,5.94,0,0,0,9,180a1.24,1.24,0,0,0-1.18-.76,1.34,1.34,0,0,0-.85.32,2.68,2.68,0,0,0-.68,1.35,16.62,16.62,0,0,0-.44,3q-.15,1.94-.15,5.21t.15,5.3a15.24,15.24,0,0,0,.46,3A2.45,2.45,0,0,0,7,198.71a1.72,1.72,0,0,0,1,.3,1.28,1.28,0,0,0,1.1-.61A4.14,4.14,0,0,0,9.77,197a10.51,10.51,0,0,0,.25-1.65q.06-.83.06-1.33H8.25v-4h6v12.62H12.16l-.68-1.79a6,6,0,0,1-1.6,1.6,3.93,3.93,0,0,1-2.32.72,5.63,5.63,0,0,1-3.32-1,6.57,6.57,0,0,1-2.17-2.75,16.11,16.11,0,0,1-1.18-4.41,43.61,43.61,0,0,1-.36-5.95,33.16,33.16,0,0,1,.55-6.55,15,15,0,0,1,1.5-4.35,6.28,6.28,0,0,1,2.22-2.41,5.38,5.38,0,0,1,2.75-.74,8.43,8.43,0,0,1,2.36.34A4.75,4.75,0,0,1,12,176.69a6.79,6.79,0,0,1,1.48,2.58,13.19,13.19,0,0,1,.57,4.24v1.75Z"/><path class="cls-1" d="M16.64,175.6h5.55a12,12,0,0,1,3.19.4,5.82,5.82,0,0,1,4.07,3.69,9.93,9.93,0,0,1,.57,3.59,13.13,13.13,0,0,1-.13,1.82,8.72,8.72,0,0,1-.48,1.86,7,7,0,0,1-.89,1.67,4.54,4.54,0,0,1-1.39,1.25l2.93,12.77h-5L22.76,191H21.58v11.63H16.64Zm4.94,11.48h1a2,2,0,0,0,1.16-.32,2.6,2.6,0,0,0,.78-.84,3.72,3.72,0,0,0,.44-1.2,7.34,7.34,0,0,0,.13-1.41,4.42,4.42,0,0,0-.74-3,2.63,2.63,0,0,0-2-.78h-.76Z"/><path class="cls-1" d="M34.82,175.6H42l3.34,27.06H40.56l-.72-6h-4l-.68,6H31ZM38,179.78H37.9L36.34,192.7h3.08Z"/><path class="cls-1" d="M46.84,175.6h4.94q4.18,0,6.35,1.86t2.17,6.23a14.26,14.26,0,0,1-.36,3.33,6.91,6.91,0,0,1-1.16,2.56,5.41,5.41,0,0,1-2,1.65,6.89,6.89,0,0,1-3,.59h-2v10.83H46.84Zm5,12.27h.42a4.64,4.64,0,0,0,1.33-.17,2,2,0,0,0,1-.63,3,3,0,0,0,.61-1.25,8.1,8.1,0,0,0,.21-2,7.55,7.55,0,0,0-.27-2.28,2.78,2.78,0,0,0-.7-1.2,1.82,1.82,0,0,0-1-.47,8.9,8.9,0,0,0-1.18-.08h-.38Z"/><path class="cls-1" d="M61.58,175.6h4.94v10.87h3.12V175.6h4.94v27.06H69.64V191.18H66.52v11.48H61.58Z"/><path class="cls-1" d="M77.29,175.6h4.94v27.06H77.29Z"/><path class="cls-1" d="M93.37,185.41a17.91,17.91,0,0,0-.44-4.77q-.44-1.39-1.35-1.39a1.39,1.39,0,0,0-.76.25,2.22,2.22,0,0,0-.67,1.24,16.78,16.78,0,0,0-.46,3q-.17,2-.17,5.43t.11,5.3a20.18,20.18,0,0,0,.34,3,2.19,2.19,0,0,0,.63,1.31,1.63,1.63,0,0,0,1,.28q1.21,0,1.61-1.73a24.64,24.64,0,0,0,.48-4.69l4.18.19a35.56,35.56,0,0,1-.19,3.63,10.64,10.64,0,0,1-.87,3.34,6.36,6.36,0,0,1-2,2.47,5.55,5.55,0,0,1-3.44,1,5.63,5.63,0,0,1-3.32-1,6.59,6.59,0,0,1-2.17-2.75,16.07,16.07,0,0,1-1.18-4.41,43.6,43.6,0,0,1-.36-5.95,33.16,33.16,0,0,1,.55-6.55,15,15,0,0,1,1.5-4.35,6.27,6.27,0,0,1,2.22-2.41,5.38,5.38,0,0,1,2.75-.74,5.83,5.83,0,0,1,3.4.89,5.74,5.74,0,0,1,1.94,2.34,10.37,10.37,0,0,1,.86,3.27,35.75,35.75,0,0,1,.19,3.69Z"/><path class="cls-1" d="M107.92,175.6h4.94q4.18,0,6.35,1.86t2.17,6.23A14.26,14.26,0,0,1,121,187a6.91,6.91,0,0,1-1.16,2.56,5.4,5.4,0,0,1-2,1.65,6.89,6.89,0,0,1-3,.59h-2v10.83h-4.94Zm5,12.27h.42a4.64,4.64,0,0,0,1.33-.17,2,2,0,0,0,1-.63,3,3,0,0,0,.61-1.25,8.1,8.1,0,0,0,.21-2,7.55,7.55,0,0,0-.27-2.28,2.79,2.79,0,0,0-.7-1.2,1.82,1.82,0,0,0-1-.47,8.88,8.88,0,0,0-1.18-.08h-.38Z"/><path class="cls-1" d="M122.24,189.13a36.62,36.62,0,0,1,.51-6.69,13.81,13.81,0,0,1,1.46-4.33,5.87,5.87,0,0,1,2.28-2.34,6.6,6.6,0,0,1,5.93,0,5.89,5.89,0,0,1,2.28,2.34,13.84,13.84,0,0,1,1.46,4.33,43.88,43.88,0,0,1,0,13.38,13.83,13.83,0,0,1-1.46,4.33,5.89,5.89,0,0,1-2.28,2.34,6.6,6.6,0,0,1-5.93,0,5.87,5.87,0,0,1-2.28-2.34,13.8,13.8,0,0,1-1.46-4.33A36.64,36.64,0,0,1,122.24,189.13Zm5.4,2.85q0,2.2.13,3.57a12.18,12.18,0,0,0,.36,2.15,2,2,0,0,0,.57,1,1.22,1.22,0,0,0,1.52,0,2,2,0,0,0,.57-1,12.27,12.27,0,0,0,.36-2.15q.13-1.37.13-3.57v-5.7q0-2.2-.13-3.57a11.8,11.8,0,0,0-.36-2.13,2.16,2.16,0,0,0-.57-1,1.15,1.15,0,0,0-1.52,0,2.16,2.16,0,0,0-.57,1,11.71,11.71,0,0,0-.36,2.13q-.13,1.37-.13,3.57Z"/><path class="cls-1" d="M142.41,194.83c0,.38,0,.81,0,1.29a5.82,5.82,0,0,0,.23,1.37,2.48,2.48,0,0,0,.63,1.08,1.67,1.67,0,0,0,1.24.44,2,2,0,0,0,1-.25,2.08,2.08,0,0,0,.68-.65,2.71,2.71,0,0,0,.38-.86,3.59,3.59,0,0,0,.11-.87,3.69,3.69,0,0,0-.66-2.17,10.48,10.48,0,0,0-1.65-1.82q-1-.87-2.17-1.79a15,15,0,0,1-2.17-2.05,10.61,10.61,0,0,1-1.65-2.62,8.48,8.48,0,0,1-.67-3.5,9.66,9.66,0,0,1,.42-2.87,7,7,0,0,1,1.22-2.34,5.85,5.85,0,0,1,2-1.58,6.86,6.86,0,0,1,5.6,0,5.17,5.17,0,0,1,1.92,1.69A7.71,7.71,0,0,1,150,180a15.94,15.94,0,0,1,.4,3.34H146q0-.57,0-1.27a6.34,6.34,0,0,0-.21-1.33,2.3,2.3,0,0,0-.59-1,1.54,1.54,0,0,0-1.14-.42,1.59,1.59,0,0,0-1.37.68,3,3,0,0,0-.49,1.79,3.57,3.57,0,0,0,.67,2.09,11,11,0,0,0,1.65,1.84q1,.89,2.17,1.84a15.64,15.64,0,0,1,2.17,2.13,11.36,11.36,0,0,1,1.65,2.66,8.4,8.4,0,0,1,.66,3.46,9.39,9.39,0,0,1-.44,2.91,6.84,6.84,0,0,1-1.29,2.36,6.11,6.11,0,0,1-2.13,1.6,6.94,6.94,0,0,1-2.94.59,5.94,5.94,0,0,1-3.21-.78,5.71,5.71,0,0,1-1.94-2,7.94,7.94,0,0,1-.95-2.7,17.4,17.4,0,0,1-.25-2.89Z"/><path class="cls-1" d="M155.49,179.78h-4.26V175.6h13.45v4.18h-4.26v22.88h-4.94Z"/><path class="cls-1" d="M165.91,175.6h11.17v4.18h-6.23v6.92h4.6v4.41h-4.6v7.37h6.5v4.18H165.91Z"/><path class="cls-1" d="M178.93,175.6h5.55a12,12,0,0,1,3.19.4,5.82,5.82,0,0,1,4.07,3.69,9.93,9.93,0,0,1,.57,3.59,13.13,13.13,0,0,1-.13,1.82,8.72,8.72,0,0,1-.48,1.86,7,7,0,0,1-.89,1.67,4.54,4.54,0,0,1-1.39,1.25l2.93,12.77h-5L185,191h-1.18v11.63h-4.94Zm4.94,11.48h1a2,2,0,0,0,1.16-.32,2.6,2.6,0,0,0,.78-.84,3.72,3.72,0,0,0,.44-1.2,7.34,7.34,0,0,0,.13-1.41,4.42,4.42,0,0,0-.74-3,2.63,2.63,0,0,0-2-.78h-.76Z"/><path class="cls-1" d="M198,194.83c0,.38,0,.81,0,1.29a5.82,5.82,0,0,0,.23,1.37,2.48,2.48,0,0,0,.63,1.08,1.67,1.67,0,0,0,1.24.44,2,2,0,0,0,1-.25,2.08,2.08,0,0,0,.68-.65,2.71,2.71,0,0,0,.38-.86,3.59,3.59,0,0,0,.11-.87,3.69,3.69,0,0,0-.66-2.17A10.48,10.48,0,0,0,200,192.4q-1-.87-2.17-1.79a15,15,0,0,1-2.17-2.05,10.61,10.61,0,0,1-1.65-2.62,8.48,8.48,0,0,1-.67-3.5,9.66,9.66,0,0,1,.42-2.87,7,7,0,0,1,1.22-2.34,5.85,5.85,0,0,1,2-1.58,6.86,6.86,0,0,1,5.6,0,5.17,5.17,0,0,1,1.92,1.69,7.71,7.71,0,0,1,1.1,2.6,15.94,15.94,0,0,1,.4,3.34h-4.41q0-.57,0-1.27a6.34,6.34,0,0,0-.21-1.33,2.3,2.3,0,0,0-.59-1,1.54,1.54,0,0,0-1.14-.42,1.59,1.59,0,0,0-1.37.68,3,3,0,0,0-.49,1.79,3.57,3.57,0,0,0,.67,2.09,11,11,0,0,0,1.65,1.84q1,.89,2.17,1.84a15.64,15.64,0,0,1,2.17,2.13,11.36,11.36,0,0,1,1.65,2.66,8.4,8.4,0,0,1,.66,3.46,9.39,9.39,0,0,1-.44,2.91A6.84,6.84,0,0,1,205,201a6.11,6.11,0,0,1-2.13,1.6,6.94,6.94,0,0,1-2.94.59,5.94,5.94,0,0,1-3.21-.78,5.71,5.71,0,0,1-1.94-2,7.94,7.94,0,0,1-.95-2.7,17.4,17.4,0,0,1-.25-2.89Z"/><path class="cls-1" d="M216,175.6H227.1v4.18H221V187h4.52v4.41H221v11.25H216Z"/><path class="cls-1" d="M227.62,189.13a36.63,36.63,0,0,1,.51-6.69,13.84,13.84,0,0,1,1.46-4.33,5.87,5.87,0,0,1,2.28-2.34,6.6,6.6,0,0,1,5.93,0,5.88,5.88,0,0,1,2.28,2.34,13.84,13.84,0,0,1,1.46,4.33,43.8,43.8,0,0,1,0,13.38,13.83,13.83,0,0,1-1.46,4.33,5.88,5.88,0,0,1-2.28,2.34,6.6,6.6,0,0,1-5.93,0,5.87,5.87,0,0,1-2.28-2.34,13.83,13.83,0,0,1-1.46-4.33A36.65,36.65,0,0,1,227.62,189.13ZM233,192q0,2.2.13,3.57a12.27,12.27,0,0,0,.36,2.15,2,2,0,0,0,.57,1,1.22,1.22,0,0,0,1.52,0,2,2,0,0,0,.57-1,12.27,12.27,0,0,0,.36-2.15q.13-1.37.13-3.57v-5.7q0-2.2-.13-3.57a11.8,11.8,0,0,0-.36-2.13,2.16,2.16,0,0,0-.57-1,1.15,1.15,0,0,0-1.52,0,2.16,2.16,0,0,0-.57,1,11.8,11.8,0,0,0-.36,2.13q-.13,1.37-.13,3.57Z"/><path class="cls-1" d="M244.21,175.6h5.55a12,12,0,0,1,3.19.4,6.11,6.11,0,0,1,2.47,1.31,6,6,0,0,1,1.6,2.38,9.93,9.93,0,0,1,.57,3.59,13.13,13.13,0,0,1-.13,1.82A8.66,8.66,0,0,1,257,187a7,7,0,0,1-.89,1.67,4.54,4.54,0,0,1-1.39,1.25l2.93,12.77h-5L250.33,191h-1.18v11.63h-4.94Zm4.94,11.48h1a2,2,0,0,0,1.16-.32,2.6,2.6,0,0,0,.78-.84,3.72,3.72,0,0,0,.44-1.2,7.41,7.41,0,0,0,.13-1.41,4.42,4.42,0,0,0-.74-3,2.63,2.63,0,0,0-2-.78h-.76Z"/><path class="cls-1" d="M267,175.6h4.29a10.48,10.48,0,0,1,4.92,1,6.48,6.48,0,0,1,2.74,2.74,11.55,11.55,0,0,1,1.18,4.26q.25,2.49.25,5.57,0,2.93-.23,5.42a13,13,0,0,1-1.06,4.29,6.33,6.33,0,0,1-2.49,2.81,8.63,8.63,0,0,1-4.5,1H267ZM272,198.48a4.16,4.16,0,0,0,1.82-.32,2.09,2.09,0,0,0,1-1.31,11.07,11.07,0,0,0,.4-2.83q.08-1.84.08-4.92t-.08-4.9a10.74,10.74,0,0,0-.4-2.79,2.08,2.08,0,0,0-1-1.29,4.17,4.17,0,0,0-1.82-.32Z"/><path class="cls-1" d="M282.72,175.6h4.94v27.06h-4.94Z"/><path class="cls-1" d="M290.39,175.6h11.06v4.18h-6.12V187h4.52v4.41h-4.52v11.25h-4.94Z"/><path class="cls-1" d="M302.86,175.6h11.06v4.18h-6.12V187h4.52v4.41h-4.52v11.25h-4.94Z"/><path class="cls-1" d="M321.55,199.16q1.29-2.2,2.7-4.37t2.56-4.27a30.27,30.27,0,0,0,1.9-4.12,11.21,11.21,0,0,0,.74-3.88q0-.53,0-1.16a5.47,5.47,0,0,0-.19-1.16,2.38,2.38,0,0,0-.46-.89,1.08,1.08,0,0,0-.87-.36q-.76,0-1.25,1a10.05,10.05,0,0,0-.53,3.74l-4.18-.38a11.71,11.71,0,0,1,.4-3.1,7.87,7.87,0,0,1,1.2-2.56,5.88,5.88,0,0,1,2-1.75,5.79,5.79,0,0,1,2.79-.65,6,6,0,0,1,2.62.55,5.4,5.4,0,0,1,1.9,1.5,6.75,6.75,0,0,1,1.16,2.22,9,9,0,0,1,.4,2.72,11.27,11.27,0,0,1-.91,4.41,28.15,28.15,0,0,1-2.22,4.22,47,47,0,0,1-2.77,3.9q-1.46,1.84-2.57,3.44h7.83v4.41h-12.2Z"/><path class="cls-1" d="M348.37,189.13a34.53,34.53,0,0,1-.57,6.92,14.23,14.23,0,0,1-1.48,4.24,5.19,5.19,0,0,1-2.07,2.11,5.25,5.25,0,0,1-2.34.57,5.48,5.48,0,0,1-2.37-.55,5.06,5.06,0,0,1-2.07-2.07,13.61,13.61,0,0,1-1.46-4.22,44.65,44.65,0,0,1,0-14,13.62,13.62,0,0,1,1.46-4.22,5.06,5.06,0,0,1,2.07-2.07,5.48,5.48,0,0,1,2.38-.55,5.13,5.13,0,0,1,2.34.59,5.33,5.33,0,0,1,2.07,2.13,14.22,14.22,0,0,1,1.48,4.22A34.24,34.24,0,0,1,348.37,189.13Zm-4.71,0q0-3.53-.13-5.57a21.93,21.93,0,0,0-.36-3.06,2.48,2.48,0,0,0-.55-1.29,1.06,1.06,0,0,0-1.41,0,2.48,2.48,0,0,0-.55,1.29,21.78,21.78,0,0,0-.36,3.06q-.13,2-.13,5.57t.13,5.57a21.74,21.74,0,0,0,.36,3.06,2.47,2.47,0,0,0,.55,1.29,1.06,1.06,0,0,0,1.41,0,2.47,2.47,0,0,0,.55-1.29,21.89,21.89,0,0,0,.36-3.06Q343.66,192.67,343.66,189.13Z"/><path class="cls-1" d="M349.21,199h3V181l-3,.49v-3l1.29-.59q.68-.32,1.39-.68t1.35-.78a11,11,0,0,0,1.18-.87h2.17V199h3v3.65H349.21Z"/><path class="cls-1" d="M359.24,175.6h12v3.15a42.46,42.46,0,0,0-3.5,11.42,82.36,82.36,0,0,0-1,12.48h-5.62a52.15,52.15,0,0,1,.7-6.1,57.14,57.14,0,0,1,1.29-5.61q.78-2.74,1.79-5.43t2.15-5.51h-7.83Z"/><path class="cls-1" d="M382.46,179.78H378.2V175.6h13.45v4.18H387.4v22.88h-4.94Z"/><path class="cls-1" d="M392.87,175.6h4.94v10.87h3.12V175.6h4.94v27.06h-4.94V191.18h-3.12v11.48h-4.94Z"/><path class="cls-1" d="M411.17,175.6h7.14l3.34,27.06h-4.75l-.72-6h-4l-.68,6h-4.14Zm3.15,4.18h-.08l-1.56,12.92h3.08Z"/><path class="cls-1" d="M425.06,179.78H420.8V175.6h13.45v4.18H430v22.88h-4.94Z"/><path class="cls-1" d="M4.64,237.83c0,.38,0,.81,0,1.29a5.88,5.88,0,0,0,.23,1.37,2.5,2.5,0,0,0,.63,1.08,1.67,1.67,0,0,0,1.24.44,2,2,0,0,0,1-.25,2.1,2.1,0,0,0,.68-.65,2.69,2.69,0,0,0,.38-.86,3.59,3.59,0,0,0,.11-.87,3.69,3.69,0,0,0-.67-2.17,10.48,10.48,0,0,0-1.65-1.82q-1-.87-2.17-1.79a15.08,15.08,0,0,1-2.17-2.05,10.61,10.61,0,0,1-1.65-2.62,8.48,8.48,0,0,1-.67-3.5,9.66,9.66,0,0,1,.42-2.87,7,7,0,0,1,1.22-2.34,5.85,5.85,0,0,1,2-1.58,6.16,6.16,0,0,1,2.75-.59,6.16,6.16,0,0,1,2.85.61,5.17,5.17,0,0,1,1.92,1.69,7.75,7.75,0,0,1,1.1,2.6,15.94,15.94,0,0,1,.4,3.34H8.25q0-.57,0-1.27A6.41,6.41,0,0,0,8,223.71a2.3,2.3,0,0,0-.59-1,1.54,1.54,0,0,0-1.14-.42,1.59,1.59,0,0,0-1.37.68,3,3,0,0,0-.49,1.79,3.57,3.57,0,0,0,.67,2.09,11,11,0,0,0,1.65,1.84q1,.89,2.17,1.84a15.7,15.7,0,0,1,2.17,2.13,11.39,11.39,0,0,1,1.65,2.66,8.4,8.4,0,0,1,.67,3.46,9.39,9.39,0,0,1-.44,2.91A6.85,6.85,0,0,1,11.65,244a6.11,6.11,0,0,1-2.13,1.6,7,7,0,0,1-2.95.59,6,6,0,0,1-3.21-.78,5.71,5.71,0,0,1-1.94-2,8,8,0,0,1-1-2.7,17.5,17.5,0,0,1-.25-2.89Z"/><path class="cls-1" d="M15,218.6H20q4.18,0,6.35,1.86t2.17,6.23a14.26,14.26,0,0,1-.36,3.33A6.91,6.91,0,0,1,27,232.59a5.4,5.4,0,0,1-2,1.65,6.89,6.89,0,0,1-3,.59H20v10.83H15Zm5,12.27h.42a4.64,4.64,0,0,0,1.33-.17,2,2,0,0,0,1-.63,3,3,0,0,0,.61-1.25,8.1,8.1,0,0,0,.21-2,7.55,7.55,0,0,0-.27-2.28,2.79,2.79,0,0,0-.7-1.2,1.82,1.82,0,0,0-1-.47,8.88,8.88,0,0,0-1.18-.08H20Z"/><path class="cls-1" d="M29.77,218.6H40.95v4.18H34.71v6.92h4.6v4.41h-4.6v7.37h6.5v4.18H29.77Z"/><path class="cls-1" d="M45.94,218.6h7.14l3.34,27.06H51.68l-.72-6H47l-.68,6H42.14Zm3.15,4.18H49L47.46,235.7h3.08Z"/><path class="cls-1" d="M58,218.6H62.9v11.32H63l4.1-11.32h4.41l-3.69,9.08,4.45,18H67.5l-2.74-12.12h-.08l-1.79,4.26v7.87H58Z"/><path class="cls-1" d="M83.8,222.78H79.54V218.6H93v4.18H88.74v22.88H83.8Z"/><path class="cls-1" d="M93.33,232.13a36.54,36.54,0,0,1,.51-6.69,13.79,13.79,0,0,1,1.46-4.33,5.87,5.87,0,0,1,2.28-2.34,6.6,6.6,0,0,1,5.93,0,5.88,5.88,0,0,1,2.28,2.34,13.84,13.84,0,0,1,1.46,4.33,43.88,43.88,0,0,1,0,13.38,13.83,13.83,0,0,1-1.46,4.33,5.88,5.88,0,0,1-2.28,2.34,6.6,6.6,0,0,1-5.93,0,5.87,5.87,0,0,1-2.28-2.34,13.78,13.78,0,0,1-1.46-4.33A36.55,36.55,0,0,1,93.33,232.13Zm5.4,2.85q0,2.2.13,3.57a12.08,12.08,0,0,0,.36,2.15,2,2,0,0,0,.57,1,1.22,1.22,0,0,0,1.52,0,2,2,0,0,0,.57-1,12.18,12.18,0,0,0,.36-2.15q.13-1.37.13-3.57v-5.7q0-2.2-.13-3.57a11.71,11.71,0,0,0-.36-2.13,2.16,2.16,0,0,0-.57-1,1.16,1.16,0,0,0-1.52,0,2.16,2.16,0,0,0-.57,1,11.63,11.63,0,0,0-.36,2.13q-.13,1.37-.13,3.57Z"/><path class="cls-1" d="M119.9,222.78h-4.26V218.6h13.45v4.18h-4.26v22.88H119.9Z"/><path class="cls-1" d="M130.31,218.6h4.94v10.87h3.12V218.6h4.94v27.06h-4.94V234.18h-3.12v11.48h-4.94Z"/><path class="cls-1" d="M146.11,218.6h11.17v4.18h-6.23v6.92h4.6v4.41h-4.6v7.37h6.5v4.18H146.11Z"/><path class="cls-1" d="M166.86,218.6h11.06v4.18H171.8V230h4.52v4.41H171.8v11.25h-4.94Z"/><path class="cls-1" d="M179.23,218.6h4.94v27.06h-4.94Z"/><path class="cls-1" d="M186.9,218.6h4.94v22.88h6.31v4.18H186.9Z"/><path class="cls-1" d="M199.73,218.6h6.57l2.21,13.87h.08l2.32-13.87h6.42v27.06h-4.41V225.82h-.08l-3.34,19.84h-2.74l-3.31-19.84h-.08v19.84h-3.65Z"/><path class="cls-1" d="M227.7,218.6h6.08a8.27,8.27,0,0,1,2.32.34,6,6,0,0,1,2.15,1.14,6.08,6.08,0,0,1,1.6,2.11,7.51,7.51,0,0,1,.63,3.25,7,7,0,0,1-1.06,3.91,5.06,5.06,0,0,1-3.34,2.13v.08a6.1,6.1,0,0,1,3.74,2.3,7.21,7.21,0,0,1,1.2,4.27,8.41,8.41,0,0,1-.59,3.27,7.09,7.09,0,0,1-1.56,2.36,6.36,6.36,0,0,1-2.22,1.43,7.35,7.35,0,0,1-2.62.47H227.7Zm4.94,11.1a2.9,2.9,0,0,0,2.49-.87,4.66,4.66,0,0,0,.63-2.7,10.69,10.69,0,0,0-.13-1.86,2.13,2.13,0,0,0-.49-1.1,1.74,1.74,0,0,0-1-.49,8.45,8.45,0,0,0-1.52-.11Zm0,12a5.79,5.79,0,0,0,1.79-.23,2.1,2.1,0,0,0,1-.7,2.66,2.66,0,0,0,.47-1.24,12.46,12.46,0,0,0,.12-1.82,9.15,9.15,0,0,0-.13-1.63,2.81,2.81,0,0,0-.51-1.22,2.29,2.29,0,0,0-1-.74,5.07,5.07,0,0,0-1.73-.25Z"/><path class="cls-1" d="M242.67,218.6h4.94v20.94a6.89,6.89,0,0,0,.06.89,2.35,2.35,0,0,0,.25.8,1.44,1.44,0,0,0,.53.57,1.65,1.65,0,0,0,.87.21,1.48,1.48,0,0,0,1.42-.74,3.59,3.59,0,0,0,.4-1.73V218.6h4.18V238.9q0,4-1.67,5.64a6.31,6.31,0,0,1-4.64,1.65,7.94,7.94,0,0,1-2.6-.4,5,5,0,0,1-2-1.25,5.69,5.69,0,0,1-1.29-2.24,11,11,0,0,1-.46-3.4Z"/><path class="cls-1" d="M258,218.6H269.1v4.18H263V230h4.52v4.41H263v11.25H258Z"/><path class="cls-1" d="M270.5,218.6h11.06v4.18h-6.12V230H280v4.41h-4.52v11.25H270.5Z"/><path class="cls-1" d="M290.33,218.6h4.94v27.06h-4.94Z"/><path class="cls-1" d="M297.92,218.6h4.83l4.52,14.29h.08V218.6h4v27.06h-3.84l-5.28-16.38h-.08v16.38h-4.18Z"/><path class="cls-1" d="M324.1,218.6h7.14l3.34,27.06h-4.75l-.72-6h-4l-.68,6H320.3Zm3.15,4.18h-.08l-1.56,12.92h3.08Z"/><path class="cls-1" d="M336.12,218.6h4.94v22.88h6.31v4.18H336.12Z"/><path class="cls-1" d="M349,218.6H354v22.88h6.31v4.18H349Z"/><path class="cls-1" d="M369.07,232.13a36.63,36.63,0,0,1,.51-6.69,13.84,13.84,0,0,1,1.46-4.33,5.87,5.87,0,0,1,2.28-2.34,6.6,6.6,0,0,1,5.93,0,5.88,5.88,0,0,1,2.28,2.34,13.84,13.84,0,0,1,1.46,4.33,43.8,43.8,0,0,1,0,13.38,13.83,13.83,0,0,1-1.46,4.33,5.88,5.88,0,0,1-2.28,2.34,6.6,6.6,0,0,1-5.93,0,5.87,5.87,0,0,1-2.28-2.34,13.83,13.83,0,0,1-1.46-4.33A36.65,36.65,0,0,1,369.07,232.13Zm5.4,2.85q0,2.2.13,3.57a12.27,12.27,0,0,0,.36,2.15,2,2,0,0,0,.57,1,1.22,1.22,0,0,0,1.52,0,2,2,0,0,0,.57-1,12.27,12.27,0,0,0,.36-2.15q.13-1.37.13-3.57v-5.7q0-2.2-.13-3.57a11.8,11.8,0,0,0-.36-2.13,2.16,2.16,0,0,0-.57-1,1.15,1.15,0,0,0-1.52,0,2.16,2.16,0,0,0-.57,1,11.8,11.8,0,0,0-.36,2.13q-.13,1.37-.13,3.57Z"/><path class="cls-1" d="M385.65,218.6h11.06v4.18h-6.12V230h4.52v4.41h-4.52v11.25h-4.94Z"/><path class="cls-1" d="M405.49,218.6h4.94v20.94a7.07,7.07,0,0,0,.06.89,2.35,2.35,0,0,0,.25.8,1.42,1.42,0,0,0,.53.57,1.65,1.65,0,0,0,.87.21,1.47,1.47,0,0,0,1.42-.74,3.6,3.6,0,0,0,.4-1.73V218.6h4.18V238.9q0,4-1.67,5.64a6.31,6.31,0,0,1-4.64,1.65,8,8,0,0,1-2.6-.4,5,5,0,0,1-2-1.25,5.69,5.69,0,0,1-1.29-2.24,11,11,0,0,1-.46-3.4Z"/><path class="cls-1" d="M424.38,237.83c0,.38,0,.81,0,1.29a5.88,5.88,0,0,0,.23,1.37,2.5,2.5,0,0,0,.63,1.08,1.67,1.67,0,0,0,1.24.44,2,2,0,0,0,1-.25,2.1,2.1,0,0,0,.68-.65,2.69,2.69,0,0,0,.38-.86,3.59,3.59,0,0,0,.11-.87,3.69,3.69,0,0,0-.67-2.17,10.48,10.48,0,0,0-1.65-1.82q-1-.87-2.17-1.79a15.08,15.08,0,0,1-2.17-2.05,10.61,10.61,0,0,1-1.65-2.62,8.48,8.48,0,0,1-.67-3.5,9.66,9.66,0,0,1,.42-2.87,7,7,0,0,1,1.22-2.34,5.85,5.85,0,0,1,2-1.58,6.86,6.86,0,0,1,5.6,0,5.17,5.17,0,0,1,1.92,1.69A7.75,7.75,0,0,1,432,223a15.94,15.94,0,0,1,.4,3.34H428q0-.57,0-1.27a6.41,6.41,0,0,0-.21-1.33,2.3,2.3,0,0,0-.59-1,1.54,1.54,0,0,0-1.14-.42,1.59,1.59,0,0,0-1.37.68,3,3,0,0,0-.49,1.79,3.57,3.57,0,0,0,.67,2.09,11,11,0,0,0,1.65,1.84q1,.89,2.17,1.84a15.7,15.7,0,0,1,2.17,2.13,11.39,11.39,0,0,1,1.65,2.66,8.4,8.4,0,0,1,.67,3.46,9.39,9.39,0,0,1-.44,2.91A6.85,6.85,0,0,1,431.4,244a6.11,6.11,0,0,1-2.13,1.6,7,7,0,0,1-2.95.59,6,6,0,0,1-3.21-.78,5.71,5.71,0,0,1-1.94-2,8,8,0,0,1-1-2.7,17.5,17.5,0,0,1-.25-2.89Z"/><path class="cls-1" d="M434.71,240.72h4.94v4.94h-4.94Z"/></g></g></svg>