<svg xmlns="http://www.w3.org/2000/svg" viewBox="0 0 168.29 61.48"><defs><style>.cls-1{fill:#fff;}</style></defs><title>Asset 1</title><g id="Layer_2" data-name="Layer 2"><g id="Layer_1-2" data-name="Layer 1"><rect class="cls-1" x="0.75" width="37.33" height="4.13"/><path class="cls-1" d="M.81,10.15h2v4.43H4.09V10.15h2v11h-2V16.5H2.82v4.68h-2Z"/><path class="cls-1" d="M8.36,10.15h2.91l1.36,11H10.7l-.29-2.45H8.78L8.5,21.19H6.81Zm1.29,1.71h0L9,17.13h1.26Z"/><path class="cls-1" d="M13.35,10.15h2.26a4.84,4.84,0,0,1,1.3.16,2.37,2.37,0,0,1,1.66,1.5,4.05,4.05,0,0,1,.23,1.46,5.36,5.36,0,0,1-.05.74,3.54,3.54,0,0,1-.19.76,2.85,2.85,0,0,1-.36.68,1.86,1.86,0,0,1-.57.51l1.19,5.21h-2l-.95-4.74h-.48v4.74h-2Zm2,4.68h.4a.82.82,0,0,0,.47-.13,1.06,1.06,0,0,0,.32-.34,1.51,1.51,0,0,0,.18-.49,3,3,0,0,0,.05-.57,1.8,1.8,0,0,0-.3-1.22,1.07,1.07,0,0,0-.81-.32h-.31Z"/><path class="cls-1" d="M19.1,10.15h2L22,17.9h0l1-7.75h1.63L23,21.19H20.74Z"/><path class="cls-1" d="M25.4,10.15H30v1.71H27.42v2.82h1.88v1.8H27.42v3h2.65v1.71H25.4Z"/><path class="cls-1" d="M32.14,16.92l-1.84-6.77h2l1,4.32h0l1-4.32H36l-1.84,6.59v4.45h-2Z"/><path class="cls-1" d="M39.31,10.15h2L43.12,16h0V10.15h1.61v11H43.2L41,14.51h0v6.68H39.31Z"/><path class="cls-1" d="M45.93,10.15h2v11h-2Z"/><path class="cls-1" d="M52.57,14.15a7.3,7.3,0,0,0-.18-1.94c-.12-.38-.3-.57-.55-.57a.56.56,0,0,0-.31.1.9.9,0,0,0-.27.5,6.85,6.85,0,0,0-.19,1.21q-.07.81-.07,2.22t0,2.16A8.18,8.18,0,0,0,51.19,19a.9.9,0,0,0,.26.54.66.66,0,0,0,.4.12q.5,0,.66-.71a10.06,10.06,0,0,0,.19-1.91l1.7.08a14.53,14.53,0,0,1-.08,1.48A4.37,4.37,0,0,1,54,20a2.6,2.6,0,0,1-.8,1,2.27,2.27,0,0,1-1.4.39A2.29,2.29,0,0,1,50.41,21a2.68,2.68,0,0,1-.88-1.12,6.54,6.54,0,0,1-.48-1.8,17.74,17.74,0,0,1-.15-2.43A13.51,13.51,0,0,1,49.12,13a6.12,6.12,0,0,1,.61-1.77,2.55,2.55,0,0,1,.91-1,2.2,2.2,0,0,1,1.12-.3,2.37,2.37,0,0,1,1.39.36,2.33,2.33,0,0,1,.79,1,4.22,4.22,0,0,1,.35,1.33,14.49,14.49,0,0,1,.08,1.5Z"/><path class="cls-1" d="M55.39,10.15h2v4.43h1.27V10.15h2v11h-2V16.5H57.4v4.68h-2Z"/><path class="cls-1" d="M61.66,15.67a15,15,0,0,1,.21-2.73,5.64,5.64,0,0,1,.6-1.77,2.4,2.4,0,0,1,.93-1,2.7,2.7,0,0,1,2.42,0,2.41,2.41,0,0,1,.93,1,5.63,5.63,0,0,1,.6,1.77,14.93,14.93,0,0,1,.21,2.73,14.91,14.91,0,0,1-.21,2.73,5.63,5.63,0,0,1-.6,1.77,2.4,2.4,0,0,1-.93,1,2.7,2.7,0,0,1-2.42,0,2.4,2.4,0,0,1-.93-1,5.64,5.64,0,0,1-.6-1.77A15,15,0,0,1,61.66,15.67Zm2.2,1.16c0,.6,0,1.08.05,1.46a5,5,0,0,0,.15.88.82.82,0,0,0,.23.43.49.49,0,0,0,.62,0,.82.82,0,0,0,.23-.43,5,5,0,0,0,.15-.88c0-.37.05-.86.05-1.46V14.51q0-.9-.05-1.46a4.83,4.83,0,0,0-.15-.87.88.88,0,0,0-.23-.43.47.47,0,0,0-.62,0,.88.88,0,0,0-.23.43,4.79,4.79,0,0,0-.15.87q-.05.56-.05,1.46Z"/><path class="cls-1" d="M68.52,10.15h2v9.33H73.1v1.71H68.52Z"/><path class="cls-1" d="M75.4,18c0,.16,0,.33,0,.53a2.39,2.39,0,0,0,.09.56,1,1,0,0,0,.26.44.68.68,0,0,0,.5.18.81.81,0,0,0,.42-.1.84.84,0,0,0,.28-.26,1.13,1.13,0,0,0,.16-.35,1.48,1.48,0,0,0,0-.36,1.51,1.51,0,0,0-.27-.88,4.33,4.33,0,0,0-.67-.74q-.4-.36-.88-.73a6.11,6.11,0,0,1-.88-.84,4.29,4.29,0,0,1-.67-1.07,3.46,3.46,0,0,1-.27-1.43,3.93,3.93,0,0,1,.17-1.17,2.84,2.84,0,0,1,.5-1,2.38,2.38,0,0,1,.81-.64,2.8,2.8,0,0,1,2.29,0,2.09,2.09,0,0,1,.78.69,3.14,3.14,0,0,1,.45,1.06,6.52,6.52,0,0,1,.16,1.36h-1.8q0-.23,0-.52a2.6,2.6,0,0,0-.08-.54,1,1,0,0,0-.24-.43.63.63,0,0,0-.46-.17.65.65,0,0,0-.56.28,1.22,1.22,0,0,0-.2.73,1.45,1.45,0,0,0,.27.85,4.48,4.48,0,0,0,.67.75q.4.36.88.75a6.45,6.45,0,0,1,.88.87A4.61,4.61,0,0,1,78.7,17,3.42,3.42,0,0,1,79,18.37a3.83,3.83,0,0,1-.18,1.19,2.82,2.82,0,0,1-.53,1,2.5,2.5,0,0,1-.87.65,2.83,2.83,0,0,1-1.2.24,2.42,2.42,0,0,1-1.31-.32,2.34,2.34,0,0,1-.79-.81,3.24,3.24,0,0,1-.39-1.1,7.19,7.19,0,0,1-.1-1.18Z"/><path class="cls-1" d="M1.74,27.35H0V25.65H5.49v1.71H3.75v9.33h-2Z"/><path class="cls-1" d="M6.07,25.65h2v4.43H9.35V25.65h2v11h-2V32H8.08v4.68h-2Z"/><path class="cls-1" d="M12.6,25.65h4.56v1.71H14.62v2.82h1.88V32H14.62v3h2.65v1.71H12.6Z"/><path class="cls-1" d="M22,27.35H20.26V25.65h5.49v1.71H24v9.33H22Z"/><path class="cls-1" d="M26.32,25.65h2.26a4.84,4.84,0,0,1,1.3.16,2.37,2.37,0,0,1,1.66,1.5,4.05,4.05,0,0,1,.23,1.46,5.36,5.36,0,0,1-.05.74,3.54,3.54,0,0,1-.19.76,2.85,2.85,0,0,1-.36.68,1.86,1.86,0,0,1-.57.51l1.19,5.21h-2l-.95-4.74h-.48v4.74h-2Zm2,4.68h.4a.82.82,0,0,0,.47-.13,1.06,1.06,0,0,0,.32-.34,1.51,1.51,0,0,0,.18-.49,3,3,0,0,0,.05-.57,1.8,1.8,0,0,0-.3-1.22,1.07,1.07,0,0,0-.81-.32h-.31Z"/><path class="cls-1" d="M32.6,25.65h2v11h-2Z"/><path class="cls-1" d="M36.83,25.65h2.91l1.36,11H39.17l-.29-2.45H37.25L37,36.68H35.28Zm1.29,1.71h0l-.64,5.27h1.26Z"/><path class="cls-1" d="M41.82,25.65h2V35h2.57v1.71H41.82Z"/><path class="cls-1" d="M2.57,46.44a4.38,4.38,0,0,0-.11-1.17q-.11-.34-.33-.34A.33.33,0,0,0,2,45a.54.54,0,0,0-.16.3,4.1,4.1,0,0,0-.11.73q0,.48,0,1.33t0,1.3a4.92,4.92,0,0,0,.08.73.54.54,0,0,0,.15.32.4.4,0,0,0,.24.07q.3,0,.4-.42a6.06,6.06,0,0,0,.12-1.15l1,0a8.59,8.59,0,0,1,0,.89,2.61,2.61,0,0,1-.21.82,1.56,1.56,0,0,1-.48.6,1.36,1.36,0,0,1-.84.24,1.37,1.37,0,0,1-.81-.23,1.6,1.6,0,0,1-.53-.67A3.93,3.93,0,0,1,.46,48.8a10.65,10.65,0,0,1-.09-1.46,8.11,8.11,0,0,1,.13-1.6,3.66,3.66,0,0,1,.37-1.06,1.54,1.54,0,0,1,.54-.59,1.32,1.32,0,0,1,.67-.18,1.42,1.42,0,0,1,.83.22,1.4,1.4,0,0,1,.47.57,2.53,2.53,0,0,1,.21.8,8.78,8.78,0,0,1,0,.9Z"/><path class="cls-1" d="M4.35,44H5.56v6.62H4.35Z"/><path class="cls-1" d="M6.36,44H7.54l1.11,3.5h0V44h1v6.62H8.69l-1.29-4h0v4h-1Z"/><path class="cls-1" d="M10.46,44h2.73v1H11.66v1.69h1.13v1.08H11.66v1.8h1.59v1h-2.8Z"/><path class="cls-1" d="M13.77,44h1.61l.54,3.39h0L16.5,44h1.57v6.62H17V45.8h0l-.82,4.85h-.67l-.81-4.85h0v4.85h-.89Z"/><path class="cls-1" d="M19.51,44h1.75l.82,6.62H20.91l-.18-1.47h-1l-.17,1.47h-1Zm.77,1h0l-.38,3.16h.75Z"/><path class="cls-1" d="M23.07,45.06H22V44h3.29v1h-1v5.6H23.07Z"/><path class="cls-1" d="M25.74,44h1.21v6.62H25.74Z"/><path class="cls-1" d="M29.83,46.44a4.38,4.38,0,0,0-.11-1.17q-.11-.34-.33-.34a.33.33,0,0,0-.19.06.54.54,0,0,0-.16.3,4.1,4.1,0,0,0-.11.73q0,.48,0,1.33t0,1.3a4.92,4.92,0,0,0,.08.73.54.54,0,0,0,.15.32.4.4,0,0,0,.24.07q.3,0,.4-.42a6.06,6.06,0,0,0,.12-1.15l1,0a8.59,8.59,0,0,1,0,.89,2.61,2.61,0,0,1-.21.82,1.56,1.56,0,0,1-.48.6,1.36,1.36,0,0,1-.84.24,1.37,1.37,0,0,1-.81-.23,1.6,1.6,0,0,1-.53-.67,3.93,3.93,0,0,1-.29-1.08,10.65,10.65,0,0,1-.09-1.46,8.11,8.11,0,0,1,.13-1.6,3.66,3.66,0,0,1,.37-1.06,1.54,1.54,0,0,1,.54-.59,1.32,1.32,0,0,1,.67-.18,1.42,1.42,0,0,1,.83.22,1.4,1.4,0,0,1,.47.57,2.53,2.53,0,0,1,.21.8,8.78,8.78,0,0,1,0,.9Z"/><path class="cls-1" d="M33.34,44h1.61l.54,3.39h0L36.07,44h1.57v6.62H36.57V45.8h0l-.82,4.85h-.67l-.81-4.85h0v4.85h-.89Z"/><path class="cls-1" d="M38.47,44H41.2v1H39.67v1.69H40.8v1.08H39.67v1.8h1.59v1h-2.8Z"/><path class="cls-1" d="M41.81,44h2.73v1H43v1.69h1.13v1.08H43v1.8h1.59v1h-2.8Z"/><path class="cls-1" d="M45.91,45.06h-1V44h3.29v1h-1v5.6H45.91Z"/><path class="cls-1" d="M49.55,48.74c0,.09,0,.2,0,.32a1.42,1.42,0,0,0,.06.33.6.6,0,0,0,.15.26.41.41,0,0,0,.3.11.49.49,0,0,0,.25-.06.5.5,0,0,0,.17-.16.66.66,0,0,0,.09-.21.86.86,0,0,0,0-.21.9.9,0,0,0-.16-.53,2.58,2.58,0,0,0-.4-.45l-.53-.44a3.71,3.71,0,0,1-.53-.5,2.58,2.58,0,0,1-.4-.64,2.07,2.07,0,0,1-.16-.86,2.35,2.35,0,0,1,.1-.7,1.69,1.69,0,0,1,.3-.57,1.43,1.43,0,0,1,.49-.39,1.67,1.67,0,0,1,1.37,0,1.26,1.26,0,0,1,.47.41,1.9,1.9,0,0,1,.27.64,3.91,3.91,0,0,1,.1.82H50.44c0-.09,0-.2,0-.31a1.57,1.57,0,0,0-.05-.33.57.57,0,0,0-.14-.26.38.38,0,0,0-.28-.1.39.39,0,0,0-.33.17.73.73,0,0,0-.12.44.87.87,0,0,0,.16.51,2.68,2.68,0,0,0,.4.45l.53.45a3.84,3.84,0,0,1,.53.52,2.77,2.77,0,0,1,.4.65,2,2,0,0,1,.16.85,2.31,2.31,0,0,1-.11.71,1.67,1.67,0,0,1-.32.58,1.5,1.5,0,0,1-.52.39,1.71,1.71,0,0,1-.72.14,1.45,1.45,0,0,1-.79-.19,1.4,1.4,0,0,1-.47-.49,1.94,1.94,0,0,1-.23-.66,4.32,4.32,0,0,1-.06-.71Z"/><path class="cls-1" d="M54,44h1.21V46.7h.76V44h1.21v6.62H55.94V47.85h-.76v2.81H54Z"/><path class="cls-1" d="M58.6,44h1.75l.82,6.62H60l-.18-1.47h-1l-.17,1.47h-1Zm.77,1h0L59,48.22h.75Z"/><path class="cls-1" d="M61.62,44h1.21v5.12a1.7,1.7,0,0,0,0,.22.57.57,0,0,0,.06.2.35.35,0,0,0,.13.14.4.4,0,0,0,.21.05.36.36,0,0,0,.35-.18.87.87,0,0,0,.1-.42V44h1v5a1.9,1.9,0,0,1-.41,1.38,1.54,1.54,0,0,1-1.13.4,1.94,1.94,0,0,1-.64-.1,1.22,1.22,0,0,1-.49-.31,1.39,1.39,0,0,1-.32-.55,2.69,2.69,0,0,1-.11-.83Z"/><path class="cls-1" d="M66.18,45.06h-1V44h3.29v1h-1v5.6H66.18Z"/><path class="cls-1" d="M68.88,44h2.73v1H70.09v1.69h1.13v1.08H70.09v1.8h1.59v1h-2.8Z"/><path class="cls-1" d="M76,46.44a4.38,4.38,0,0,0-.11-1.17q-.11-.34-.33-.34a.33.33,0,0,0-.19.06.54.54,0,0,0-.16.3,4.1,4.1,0,0,0-.11.73q0,.48,0,1.33t0,1.3a4.92,4.92,0,0,0,.08.73.54.54,0,0,0,.15.32.4.4,0,0,0,.24.07q.3,0,.4-.42a6.06,6.06,0,0,0,.12-1.15l1,0a8.59,8.59,0,0,1,0,.89,2.61,2.61,0,0,1-.21.82,1.56,1.56,0,0,1-.48.6,1.36,1.36,0,0,1-.84.24,1.37,1.37,0,0,1-.81-.23,1.6,1.6,0,0,1-.53-.67,3.93,3.93,0,0,1-.29-1.08,10.65,10.65,0,0,1-.09-1.46,8.11,8.11,0,0,1,.13-1.6,3.66,3.66,0,0,1,.37-1.06,1.54,1.54,0,0,1,.54-.59,1.32,1.32,0,0,1,.67-.18,1.42,1.42,0,0,1,.83.22,1.4,1.4,0,0,1,.47.57,2.53,2.53,0,0,1,.21.8,8.78,8.78,0,0,1,0,.9Z"/><path class="cls-1" d="M77.62,47.35a9,9,0,0,1,.13-1.64,3.39,3.39,0,0,1,.36-1.06,1.44,1.44,0,0,1,.56-.57,1.62,1.62,0,0,1,1.45,0,1.44,1.44,0,0,1,.56.57A3.39,3.39,0,0,1,81,45.71,10.74,10.74,0,0,1,81,49,3.38,3.38,0,0,1,80.67,50a1.43,1.43,0,0,1-.56.57,1.62,1.62,0,0,1-1.45,0A1.43,1.43,0,0,1,78.1,50,3.38,3.38,0,0,1,77.75,49,9,9,0,0,1,77.62,47.35Zm1.32.7q0,.54,0,.87a3,3,0,0,0,.09.53.49.49,0,0,0,.14.26.3.3,0,0,0,.37,0,.49.49,0,0,0,.14-.26,3,3,0,0,0,.09-.53q0-.33,0-.87V46.65q0-.54,0-.87a2.91,2.91,0,0,0-.09-.52.53.53,0,0,0-.14-.26.28.28,0,0,0-.37,0,.53.53,0,0,0-.14.26,2.86,2.86,0,0,0-.09.52q0,.34,0,.87Z"/><path class="cls-1" d="M81.8,44H83v5.12a1.7,1.7,0,0,0,0,.22.57.57,0,0,0,.06.2.35.35,0,0,0,.13.14.4.4,0,0,0,.21.05.36.36,0,0,0,.35-.18.87.87,0,0,0,.1-.42V44h1v5a1.9,1.9,0,0,1-.41,1.38,1.54,1.54,0,0,1-1.13.4,1.94,1.94,0,0,1-.64-.1,1.22,1.22,0,0,1-.49-.31,1.39,1.39,0,0,1-.32-.55A2.69,2.69,0,0,1,81.8,49Z"/><path class="cls-1" d="M86.36,45.06h-1V44h3.29v1h-1v5.6H86.36Z"/><path class="cls-1" d="M89,44h1.21v5.12a1.7,1.7,0,0,0,0,.22.57.57,0,0,0,.06.2.35.35,0,0,0,.13.14.4.4,0,0,0,.21.05.36.36,0,0,0,.35-.18.87.87,0,0,0,.1-.42V44h1v5a1.9,1.9,0,0,1-.41,1.38,1.54,1.54,0,0,1-1.13.4,1.94,1.94,0,0,1-.64-.1,1.22,1.22,0,0,1-.49-.31,1.39,1.39,0,0,1-.32-.55A2.69,2.69,0,0,1,89,49Z"/><path class="cls-1" d="M92.94,44H94.3a2.92,2.92,0,0,1,.78.1,1.42,1.42,0,0,1,1,.9,2.43,2.43,0,0,1,.14.88,3.18,3.18,0,0,1,0,.45,2.11,2.11,0,0,1-.12.46,1.7,1.7,0,0,1-.22.41,1.11,1.11,0,0,1-.34.31l.72,3.12H95l-.57-2.85h-.29v2.85H92.94Zm1.21,2.81h.24a.49.49,0,0,0,.28-.08.64.64,0,0,0,.19-.2.93.93,0,0,0,.11-.29,1.83,1.83,0,0,0,0-.34,1.08,1.08,0,0,0-.18-.73.64.64,0,0,0-.49-.19h-.19Z"/><path class="cls-1" d="M96.84,44h2.73v1H98v1.69h1.13v1.08H98v1.8h1.59v1h-2.8Z"/><path class="cls-1" d="M101.91,44h2.71v1h-1.5v1.77h1.11v1.08h-1.11v2.75h-1.21Z"/><path class="cls-1" d="M104.9,47.35a9,9,0,0,1,.13-1.64,3.39,3.39,0,0,1,.36-1.06,1.44,1.44,0,0,1,.56-.57,1.62,1.62,0,0,1,1.45,0,1.44,1.44,0,0,1,.56.57,3.39,3.39,0,0,1,.36,1.06,10.74,10.74,0,0,1,0,3.27A3.38,3.38,0,0,1,108,50a1.43,1.43,0,0,1-.56.57,1.62,1.62,0,0,1-1.45,0,1.43,1.43,0,0,1-.56-.57A3.38,3.38,0,0,1,105,49,9,9,0,0,1,104.9,47.35Zm1.32.7q0,.54,0,.87a3,3,0,0,0,.09.53.49.49,0,0,0,.14.26.3.3,0,0,0,.37,0,.49.49,0,0,0,.14-.26,3,3,0,0,0,.09-.53q0-.33,0-.87V46.65q0-.54,0-.87a2.91,2.91,0,0,0-.09-.52.53.53,0,0,0-.14-.26.28.28,0,0,0-.37,0,.53.53,0,0,0-.14.26,2.86,2.86,0,0,0-.09.52q0,.34,0,.87Z"/><path class="cls-1" d="M109.11,44h1.36a2.92,2.92,0,0,1,.78.1,1.42,1.42,0,0,1,1,.9,2.43,2.43,0,0,1,.14.88,3.18,3.18,0,0,1,0,.45,2.11,2.11,0,0,1-.12.46,1.7,1.7,0,0,1-.22.41,1.11,1.11,0,0,1-.34.31l.72,3.12h-1.22l-.57-2.85h-.29v2.85h-1.21Zm1.21,2.81h.24a.49.49,0,0,0,.28-.08.64.64,0,0,0,.19-.2.93.93,0,0,0,.11-.29,1.83,1.83,0,0,0,0-.34,1.08,1.08,0,0,0-.18-.73.64.64,0,0,0-.49-.19h-.19Z"/><path class="cls-1" d="M115.26,45.06h-1V44h3.29v1h-1v5.6h-1.21Z"/><path class="cls-1" d="M118,44h1.21V46.7h.76V44h1.21v6.62h-1.21V47.85h-.76v2.81H118Z"/><path class="cls-1" d="M122,44h2.73v1h-1.53v1.69h1.13v1.08h-1.13v1.8h1.59v1H122Z"/><path class="cls-1" d="M127.06,44h1.21v5.6h1.54v1h-2.75Z"/><path class="cls-1" d="M131.13,44h1.75l.82,6.62h-1.16l-.18-1.47h-1l-.17,1.47h-1Zm.77,1h0l-.38,3.16h.75Z"/><path class="cls-1" d="M134.15,44h1.21v5.12a1.7,1.7,0,0,0,0,.22.57.57,0,0,0,.06.2.35.35,0,0,0,.13.14.4.4,0,0,0,.21.05.36.36,0,0,0,.35-.18.87.87,0,0,0,.1-.42V44h1v5a1.9,1.9,0,0,1-.41,1.38,1.54,1.54,0,0,1-1.13.4,1.94,1.94,0,0,1-.64-.1,1.22,1.22,0,0,1-.49-.31,1.39,1.39,0,0,1-.32-.55,2.69,2.69,0,0,1-.11-.83Z"/><path class="cls-1" d="M138,44h1.18l1.11,3.5h0V44h1v6.62h-.94l-1.29-4h0v4h-1Z"/><path class="cls-1" d="M144.18,46.44a4.38,4.38,0,0,0-.11-1.17q-.11-.34-.33-.34a.33.33,0,0,0-.19.06.54.54,0,0,0-.16.3,4.1,4.1,0,0,0-.11.73q0,.48,0,1.33t0,1.3a4.92,4.92,0,0,0,.08.73.54.54,0,0,0,.15.32.4.4,0,0,0,.24.07q.3,0,.4-.42a6.06,6.06,0,0,0,.12-1.15l1,0a8.59,8.59,0,0,1,0,.89,2.61,2.61,0,0,1-.21.82,1.56,1.56,0,0,1-.48.6,1.36,1.36,0,0,1-.84.24,1.37,1.37,0,0,1-.81-.23,1.6,1.6,0,0,1-.53-.67,3.93,3.93,0,0,1-.29-1.08,10.65,10.65,0,0,1-.09-1.46,8.11,8.11,0,0,1,.13-1.6,3.66,3.66,0,0,1,.37-1.06,1.54,1.54,0,0,1,.54-.59,1.32,1.32,0,0,1,.67-.18,1.42,1.42,0,0,1,.83.22,1.4,1.4,0,0,1,.47.57,2.53,2.53,0,0,1,.21.8,8.78,8.78,0,0,1,0,.9Z"/><path class="cls-1" d="M146,44h1.21V46.7h.76V44h1.21v6.62h-1.21V47.85h-.76v2.81H146Z"/><path class="cls-1" d="M151.56,47.35a9,9,0,0,1,.13-1.64,3.39,3.39,0,0,1,.36-1.06,1.44,1.44,0,0,1,.56-.57,1.62,1.62,0,0,1,1.45,0,1.44,1.44,0,0,1,.56.57,3.39,3.39,0,0,1,.36,1.06A10.74,10.74,0,0,1,155,49a3.38,3.38,0,0,1-.36,1.06,1.43,1.43,0,0,1-.56.57,1.62,1.62,0,0,1-1.45,0A1.43,1.43,0,0,1,152,50a3.38,3.38,0,0,1-.36-1.06A9,9,0,0,1,151.56,47.35Zm1.32.7q0,.54,0,.87a3,3,0,0,0,.09.53.49.49,0,0,0,.14.26.3.3,0,0,0,.37,0,.49.49,0,0,0,.14-.26,3,3,0,0,0,.09-.53q0-.33,0-.87V46.65q0-.54,0-.87a2.91,2.91,0,0,0-.09-.52.53.53,0,0,0-.14-.26.28.28,0,0,0-.37,0,.53.53,0,0,0-.14.26,2.86,2.86,0,0,0-.09.52q0,.34,0,.87Z"/><path class="cls-1" d="M155.78,44h2.71v1H157v1.77h1.11v1.08H157v2.75h-1.21Z"/><path class="cls-1" d="M1.1,55.75h-1v-1H3.35v1h-1v5.6H1.1Z"/><path class="cls-1" d="M3.8,54.73H5v2.66h.76V54.73H7v6.62H5.77V58.54H5v2.81H3.8Z"/><path class="cls-1" d="M7.82,54.73h2.73v1H9v1.69h1.13v1.08H9v1.8h1.59v1H7.82Z"/><path class="cls-1" d="M13.73,59.43c0,.09,0,.2,0,.32a1.42,1.42,0,0,0,.06.33.6.6,0,0,0,.15.26.41.41,0,0,0,.3.11.49.49,0,0,0,.25-.06.5.5,0,0,0,.17-.16.66.66,0,0,0,.09-.21.86.86,0,0,0,0-.21.9.9,0,0,0-.16-.53,2.58,2.58,0,0,0-.4-.45l-.53-.44a3.71,3.71,0,0,1-.53-.5,2.58,2.58,0,0,1-.4-.64,2.07,2.07,0,0,1-.16-.86,2.35,2.35,0,0,1,.1-.7,1.69,1.69,0,0,1,.3-.57,1.43,1.43,0,0,1,.49-.39,1.67,1.67,0,0,1,1.37,0,1.26,1.26,0,0,1,.47.41,1.9,1.9,0,0,1,.27.64,3.91,3.91,0,0,1,.1.82H14.61c0-.09,0-.2,0-.31a1.57,1.57,0,0,0-.05-.33.57.57,0,0,0-.14-.26.38.38,0,0,0-.28-.1.39.39,0,0,0-.33.17.73.73,0,0,0-.12.44.87.87,0,0,0,.16.51,2.68,2.68,0,0,0,.4.45l.53.45a3.84,3.84,0,0,1,.53.52,2.77,2.77,0,0,1,.4.65,2,2,0,0,1,.16.85,2.31,2.31,0,0,1-.11.71,1.67,1.67,0,0,1-.32.58,1.5,1.5,0,0,1-.52.39,1.71,1.71,0,0,1-.72.14,1.45,1.45,0,0,1-.79-.19,1.4,1.4,0,0,1-.47-.49,1.94,1.94,0,0,1-.23-.66,4.32,4.32,0,0,1-.06-.71Z"/><path class="cls-1" d="M16.43,54.73h1.21a2.32,2.32,0,0,1,1.55.46,1.92,1.92,0,0,1,.53,1.53,3.48,3.48,0,0,1-.09.81,1.69,1.69,0,0,1-.28.63,1.33,1.33,0,0,1-.5.4,1.69,1.69,0,0,1-.73.14h-.48v2.65H16.43Zm1.22,3h.1a1.12,1.12,0,0,0,.33,0,.5.5,0,0,0,.24-.15.75.75,0,0,0,.15-.31,2,2,0,0,0,.05-.49,1.85,1.85,0,0,0-.07-.56.68.68,0,0,0-.17-.29.44.44,0,0,0-.25-.12l-.29,0h-.09Z"/><path class="cls-1" d="M20.18,54.73h1.36a2.92,2.92,0,0,1,.78.1,1.42,1.42,0,0,1,1,.9,2.43,2.43,0,0,1,.14.88,3.18,3.18,0,0,1,0,.45,2.11,2.11,0,0,1-.12.46,1.7,1.7,0,0,1-.22.41,1.11,1.11,0,0,1-.34.31l.72,3.12H22.25l-.57-2.85h-.29v2.85H20.18Zm1.21,2.81h.24a.49.49,0,0,0,.28-.08.64.64,0,0,0,.19-.2.93.93,0,0,0,.11-.29,1.83,1.83,0,0,0,0-.34,1.08,1.08,0,0,0-.18-.73.64.64,0,0,0-.49-.19h-.19Z"/><path class="cls-1" d="M24,54.73h1.21v6.62H24Z"/><path class="cls-1" d="M26.06,54.73h1.18l1.11,3.5h0v-3.5h1v6.62h-.94l-1.29-4h0v4h-1Z"/><path class="cls-1" d="M32.23,57.09c0-.07,0-.19,0-.36a2.93,2.93,0,0,0,0-.49,1.47,1.47,0,0,0-.13-.43.3.3,0,0,0-.29-.19.33.33,0,0,0-.21.08.65.65,0,0,0-.17.33,4.08,4.08,0,0,0-.11.72q0,.47,0,1.27t0,1.3a3.73,3.73,0,0,0,.11.73.6.6,0,0,0,.18.33.42.42,0,0,0,.25.07.31.31,0,0,0,.27-.15,1,1,0,0,0,.15-.35,2.58,2.58,0,0,0,.06-.41q0-.2,0-.33h-.45v-1h1.47v3.09h-.51l-.17-.44a1.44,1.44,0,0,1-.39.39,1,1,0,0,1-.57.18,1.37,1.37,0,0,1-.81-.23,1.6,1.6,0,0,1-.53-.67,3.93,3.93,0,0,1-.29-1.08A10.65,10.65,0,0,1,30,58a8.11,8.11,0,0,1,.13-1.6,3.66,3.66,0,0,1,.37-1.06,1.54,1.54,0,0,1,.54-.59,1.32,1.32,0,0,1,.67-.18,2.07,2.07,0,0,1,.58.08,1.16,1.16,0,0,1,.51.31,1.67,1.67,0,0,1,.36.63,3.25,3.25,0,0,1,.14,1v.43Z"/><path class="cls-1" d="M35.78,54.6h.84l-2.08,6.88h-.82Z"/><path class="cls-1" d="M37.87,59.43c0,.09,0,.2,0,.32a1.42,1.42,0,0,0,.06.33.6.6,0,0,0,.15.26.41.41,0,0,0,.3.11.49.49,0,0,0,.25-.06.5.5,0,0,0,.17-.16A.66.66,0,0,0,38.9,60a.86.86,0,0,0,0-.21.9.9,0,0,0-.16-.53,2.58,2.58,0,0,0-.4-.45l-.53-.44a3.71,3.71,0,0,1-.53-.5,2.58,2.58,0,0,1-.4-.64,2.07,2.07,0,0,1-.16-.86,2.35,2.35,0,0,1,.1-.7,1.69,1.69,0,0,1,.3-.57,1.43,1.43,0,0,1,.49-.39,1.67,1.67,0,0,1,1.37,0,1.26,1.26,0,0,1,.47.41,1.9,1.9,0,0,1,.27.64,3.91,3.91,0,0,1,.1.82H38.76c0-.09,0-.2,0-.31A1.57,1.57,0,0,0,38.7,56a.57.57,0,0,0-.14-.26.38.38,0,0,0-.28-.1.39.39,0,0,0-.33.17.73.73,0,0,0-.12.44.87.87,0,0,0,.16.51,2.68,2.68,0,0,0,.4.45l.53.45a3.84,3.84,0,0,1,.53.52,2.77,2.77,0,0,1,.4.65,2,2,0,0,1,.16.85,2.31,2.31,0,0,1-.11.71,1.67,1.67,0,0,1-.32.58,1.5,1.5,0,0,1-.52.39,1.71,1.71,0,0,1-.72.14,1.45,1.45,0,0,1-.79-.19,1.4,1.4,0,0,1-.47-.49,1.94,1.94,0,0,1-.23-.66,4.32,4.32,0,0,1-.06-.71Z"/><path class="cls-1" d="M40.53,54.73h1.21v5.12a1.7,1.7,0,0,0,0,.22.57.57,0,0,0,.06.2.35.35,0,0,0,.13.14.4.4,0,0,0,.21.05.36.36,0,0,0,.35-.18.87.87,0,0,0,.1-.42V54.73h1v5a1.9,1.9,0,0,1-.41,1.38,1.54,1.54,0,0,1-1.13.4,1.94,1.94,0,0,1-.64-.1,1.22,1.22,0,0,1-.49-.31,1.39,1.39,0,0,1-.32-.55,2.69,2.69,0,0,1-.11-.83Z"/><path class="cls-1" d="M44.42,54.73H46l.54,3.39h0l.57-3.39h1.57v6.62H47.65V56.5h0l-.82,4.85h-.67l-.81-4.85h0v4.85h-.89Z"/><path class="cls-1" d="M49.52,54.73h1.61l.54,3.39h0l.57-3.39h1.57v6.62H52.75V56.5h0l-.82,4.85h-.67l-.81-4.85h0v4.85h-.89Z"/><path class="cls-1" d="M54.64,54.73h2.73v1H55.85v1.69H57v1.08H55.85v1.8h1.59v1h-2.8Z"/><path class="cls-1" d="M58,54.73h1.36a2.92,2.92,0,0,1,.78.1,1.42,1.42,0,0,1,1,.9,2.43,2.43,0,0,1,.14.88,3.18,3.18,0,0,1,0,.45,2.11,2.11,0,0,1-.12.46,1.7,1.7,0,0,1-.22.41,1.11,1.11,0,0,1-.34.31l.72,3.12H60l-.57-2.85h-.29v2.85H58Zm1.21,2.81h.24a.49.49,0,0,0,.28-.08.64.64,0,0,0,.19-.2A.93.93,0,0,0,60,57a1.83,1.83,0,0,0,0-.34,1.08,1.08,0,0,0-.18-.73.64.64,0,0,0-.49-.19h-.19Z"/><path class="cls-1" d="M63.25,60.49q.32-.54.66-1.07t.63-1a7.47,7.47,0,0,0,.46-1,2.74,2.74,0,0,0,.18-.95c0-.09,0-.18,0-.28a1.32,1.32,0,0,0,0-.28.59.59,0,0,0-.11-.22.27.27,0,0,0-.21-.09c-.12,0-.23.09-.31.26a2.48,2.48,0,0,0-.13.92l-1-.09a2.85,2.85,0,0,1,.1-.76,1.92,1.92,0,0,1,.29-.63,1.44,1.44,0,0,1,.49-.43,1.42,1.42,0,0,1,.68-.16,1.46,1.46,0,0,1,.64.13,1.33,1.33,0,0,1,.46.37,1.64,1.64,0,0,1,.28.54,2.21,2.21,0,0,1,.1.66,2.75,2.75,0,0,1-.22,1.08,6.88,6.88,0,0,1-.54,1,11.5,11.5,0,0,1-.68,1q-.36.45-.63.84h1.92v1.08h-3Z"/><path class="cls-1" d="M70,58a8.4,8.4,0,0,1-.14,1.69,3.46,3.46,0,0,1-.36,1,1.26,1.26,0,0,1-.51.52,1.28,1.28,0,0,1-.57.14,1.34,1.34,0,0,1-.58-.13,1.24,1.24,0,0,1-.51-.51,3.34,3.34,0,0,1-.36-1,10.93,10.93,0,0,1,0-3.42,3.35,3.35,0,0,1,.36-1,1.25,1.25,0,0,1,.51-.51,1.34,1.34,0,0,1,.58-.13,1.26,1.26,0,0,1,.57.14,1.3,1.3,0,0,1,.51.52,3.47,3.47,0,0,1,.36,1A8.34,8.34,0,0,1,70,58Zm-1.15,0q0-.86,0-1.36a5.38,5.38,0,0,0-.09-.75.61.61,0,0,0-.13-.32.26.26,0,0,0-.34,0,.6.6,0,0,0-.13.32,5.31,5.31,0,0,0-.09.75q0,.5,0,1.36t0,1.36a5.32,5.32,0,0,0,.09.75.6.6,0,0,0,.13.32.26.26,0,0,0,.34,0,.6.6,0,0,0,.13-.32,5.4,5.4,0,0,0,.09-.75Q68.81,58.9,68.81,58Z"/><path class="cls-1" d="M70.32,60.46H71v-4.4l-.73.12v-.73l.32-.14.34-.17.33-.19.29-.21h.53v5.73h.73v.89H70.32Z"/><path class="cls-1" d="M73.18,59.75a1.6,1.6,0,0,1,.27-.93,2.84,2.84,0,0,1,.69-.69,2.28,2.28,0,0,1-.58-.75,2.1,2.1,0,0,1-.22-.93,2.46,2.46,0,0,1,.09-.68,1.66,1.66,0,0,1,.28-.57,1.38,1.38,0,0,1,.47-.39,1.47,1.47,0,0,1,.67-.14,1.22,1.22,0,0,1,.56.13,1.35,1.35,0,0,1,.42.33,1.48,1.48,0,0,1,.27.48,1.74,1.74,0,0,1,.09.56A1.77,1.77,0,0,1,76,57a2.14,2.14,0,0,1-.62.66l.39.42a3,3,0,0,1,.32.45,2.41,2.41,0,0,1,.22.5,1.89,1.89,0,0,1,.08.57,2.19,2.19,0,0,1-.09.62,1.69,1.69,0,0,1-.29.57,1.53,1.53,0,0,1-.52.42,1.65,1.65,0,0,1-.76.16,1.67,1.67,0,0,1-.67-.12,1.45,1.45,0,0,1-.49-.35,1.47,1.47,0,0,1-.31-.53A2.1,2.1,0,0,1,73.18,59.75Zm1,0a1.45,1.45,0,0,0,.05.42.72.72,0,0,0,.13.25.39.39,0,0,0,.18.13.64.64,0,0,0,.2,0,.56.56,0,0,0,.2,0,.47.47,0,0,0,.19-.13.76.76,0,0,0,.14-.24,1,1,0,0,0,.06-.36,1.05,1.05,0,0,0-.07-.38,1.46,1.46,0,0,0-.17-.33,2.35,2.35,0,0,0-.24-.29l-.28-.28a1.14,1.14,0,0,0-.14.23,2.44,2.44,0,0,0-.12.3,3,3,0,0,0-.08.33A1.76,1.76,0,0,0,74.2,59.75Zm.17-3.66a1.47,1.47,0,0,0,.17.66,1.37,1.37,0,0,0,.41.51,2.77,2.77,0,0,0,.27-.5,1.42,1.42,0,0,0,.11-.55,1.27,1.27,0,0,0,0-.23.66.66,0,0,0-.08-.21.44.44,0,0,0-.4-.21.38.38,0,0,0-.33.18A.63.63,0,0,0,74.37,56.09Z"/><path class="cls-1" d="M80.74,57.13A4.38,4.38,0,0,0,80.63,56q-.11-.34-.33-.34a.33.33,0,0,0-.19.06A.54.54,0,0,0,80,56a4.1,4.1,0,0,0-.11.73q0,.48,0,1.33t0,1.3a4.92,4.92,0,0,0,.08.73.54.54,0,0,0,.15.32.4.4,0,0,0,.24.07q.3,0,.4-.42a6.06,6.06,0,0,0,.12-1.15l1,0a8.59,8.59,0,0,1,0,.89,2.61,2.61,0,0,1-.21.82,1.56,1.56,0,0,1-.48.6,1.36,1.36,0,0,1-.84.24,1.37,1.37,0,0,1-.81-.23,1.6,1.6,0,0,1-.53-.67,3.93,3.93,0,0,1-.29-1.08A10.65,10.65,0,0,1,78.53,58a8.11,8.11,0,0,1,.13-1.6A3.66,3.66,0,0,1,79,55.37a1.54,1.54,0,0,1,.54-.59,1.32,1.32,0,0,1,.67-.18,1.42,1.42,0,0,1,.83.22,1.4,1.4,0,0,1,.47.57,2.53,2.53,0,0,1,.21.8,8.78,8.78,0,0,1,0,.9Z"/><path class="cls-1" d="M82.37,58a9,9,0,0,1,.13-1.64,3.39,3.39,0,0,1,.36-1.06,1.44,1.44,0,0,1,.56-.57,1.62,1.62,0,0,1,1.45,0,1.44,1.44,0,0,1,.56.57,3.39,3.39,0,0,1,.36,1.06,10.74,10.74,0,0,1,0,3.27,3.38,3.38,0,0,1-.36,1.06,1.43,1.43,0,0,1-.56.57,1.62,1.62,0,0,1-1.45,0,1.43,1.43,0,0,1-.56-.57,3.38,3.38,0,0,1-.36-1.06A9,9,0,0,1,82.37,58Zm1.32.7q0,.54,0,.87a3,3,0,0,0,.09.53.49.49,0,0,0,.14.26.3.3,0,0,0,.37,0,.49.49,0,0,0,.14-.26,3,3,0,0,0,.09-.53q0-.33,0-.87V57.34q0-.54,0-.87a2.91,2.91,0,0,0-.09-.52.53.53,0,0,0-.14-.26.28.28,0,0,0-.37,0,.53.53,0,0,0-.14.26,2.86,2.86,0,0,0-.09.52q0,.34,0,.87Z"/><path class="cls-1" d="M86.59,54.73H87.8v5.6h1.54v1H86.59Z"/><path class="cls-1" d="M89.91,54.73h1.21v5.6h1.54v1H89.91Z"/><path class="cls-1" d="M93.23,54.73H96v1H94.44v1.69h1.13v1.08H94.44v1.8H96v1h-2.8Z"/><path class="cls-1" d="M98.57,57.13A4.38,4.38,0,0,0,98.46,56q-.11-.34-.33-.34a.33.33,0,0,0-.19.06.54.54,0,0,0-.16.3,4.1,4.1,0,0,0-.11.73q0,.48,0,1.33t0,1.3a4.92,4.92,0,0,0,.08.73.54.54,0,0,0,.15.32.4.4,0,0,0,.24.07q.3,0,.4-.42a6.06,6.06,0,0,0,.12-1.15l1,0a8.59,8.59,0,0,1,0,.89,2.61,2.61,0,0,1-.21.82,1.56,1.56,0,0,1-.48.6,1.36,1.36,0,0,1-.84.24,1.37,1.37,0,0,1-.81-.23,1.6,1.6,0,0,1-.53-.67,3.93,3.93,0,0,1-.29-1.08A10.65,10.65,0,0,1,96.36,58a8.11,8.11,0,0,1,.13-1.6,3.66,3.66,0,0,1,.37-1.06,1.54,1.54,0,0,1,.54-.59,1.32,1.32,0,0,1,.67-.18,1.42,1.42,0,0,1,.83.22,1.4,1.4,0,0,1,.47.57,2.53,2.53,0,0,1,.21.8,8.78,8.78,0,0,1,0,.9Z"/><path class="cls-1" d="M101,55.75h-1v-1h3.29v1h-1v5.6H101Z"/><path class="cls-1" d="M103.71,54.73h1.21v6.62h-1.21Z"/><path class="cls-1" d="M105.59,58a9,9,0,0,1,.13-1.64,3.39,3.39,0,0,1,.36-1.06,1.44,1.44,0,0,1,.56-.57,1.62,1.62,0,0,1,1.45,0,1.44,1.44,0,0,1,.56.57A3.39,3.39,0,0,1,109,56.4a10.74,10.74,0,0,1,0,3.27,3.38,3.38,0,0,1-.36,1.06,1.43,1.43,0,0,1-.56.57,1.62,1.62,0,0,1-1.45,0,1.43,1.43,0,0,1-.56-.57,3.38,3.38,0,0,1-.36-1.06A9,9,0,0,1,105.59,58Zm1.32.7q0,.54,0,.87a3,3,0,0,0,.09.53.49.49,0,0,0,.14.26.3.3,0,0,0,.37,0,.49.49,0,0,0,.14-.26,3,3,0,0,0,.09-.53q0-.33,0-.87V57.34q0-.54,0-.87a2.91,2.91,0,0,0-.09-.52.53.53,0,0,0-.14-.26.28.28,0,0,0-.37,0,.53.53,0,0,0-.14.26,2.86,2.86,0,0,0-.09.52q0,.34,0,.87Z"/><path class="cls-1" d="M109.78,54.73H111l1.11,3.5h0v-3.5h1v6.62h-.94l-1.29-4h0v4h-1Z"/><path class="cls-1" d="M115.41,58a9,9,0,0,1,.13-1.64,3.39,3.39,0,0,1,.36-1.06,1.44,1.44,0,0,1,.56-.57,1.62,1.62,0,0,1,1.45,0,1.44,1.44,0,0,1,.56.57,3.39,3.39,0,0,1,.36,1.06,10.74,10.74,0,0,1,0,3.27,3.38,3.38,0,0,1-.36,1.06,1.43,1.43,0,0,1-.56.57,1.62,1.62,0,0,1-1.45,0,1.43,1.43,0,0,1-.56-.57,3.38,3.38,0,0,1-.36-1.06A9,9,0,0,1,115.41,58Zm1.32.7q0,.54,0,.87a3,3,0,0,0,.09.53.49.49,0,0,0,.14.26.3.3,0,0,0,.37,0,.49.49,0,0,0,.14-.26,3,3,0,0,0,.09-.53q0-.33,0-.87V57.34q0-.54,0-.87a2.91,2.91,0,0,0-.09-.52.53.53,0,0,0-.14-.26.28.28,0,0,0-.37,0,.53.53,0,0,0-.14.26,2.86,2.86,0,0,0-.09.52q0,.34,0,.87Z"/><path class="cls-1" d="M119.6,54.73h1.18l1.11,3.5h0v-3.5h1v6.62h-.94l-1.29-4h0v4h-1Z"/><path class="cls-1" d="M125.37,54.73h1.21v6.62h-1.21Z"/><path class="cls-1" d="M127.38,54.73H129l.54,3.39h0l.57-3.39h1.57v6.62H130.6V56.5h0l-.82,4.85h-.67l-.81-4.85h0v4.85h-.89Z"/><path class="cls-1" d="M133.11,54.73h1.75l.82,6.62h-1.16l-.18-1.47h-1l-.17,1.47h-1Zm.77,1h0l-.38,3.16h.75Z"/><path class="cls-1" d="M137,58,136,54.73h1.21l.5,1.78h0l.45-1.78h1l-1,3.08,1.17,3.54h-1.22l-.59-2h0l-.56,2h-1Z"/><path class="cls-1" d="M142.33,59.43c0,.09,0,.2,0,.32a1.42,1.42,0,0,0,.06.33.6.6,0,0,0,.15.26.41.41,0,0,0,.3.11.49.49,0,0,0,.25-.06.5.5,0,0,0,.17-.16.66.66,0,0,0,.09-.21.86.86,0,0,0,0-.21.9.9,0,0,0-.16-.53,2.58,2.58,0,0,0-.4-.45l-.53-.44a3.71,3.71,0,0,1-.53-.5,2.58,2.58,0,0,1-.4-.64,2.07,2.07,0,0,1-.16-.86,2.35,2.35,0,0,1,.1-.7,1.69,1.69,0,0,1,.3-.57,1.43,1.43,0,0,1,.49-.39,1.67,1.67,0,0,1,1.37,0,1.26,1.26,0,0,1,.47.41,1.9,1.9,0,0,1,.27.64,3.91,3.91,0,0,1,.1.82h-1.08c0-.09,0-.2,0-.31a1.57,1.57,0,0,0-.05-.33.57.57,0,0,0-.14-.26.38.38,0,0,0-.28-.1.39.39,0,0,0-.33.17.73.73,0,0,0-.12.44.87.87,0,0,0,.16.51,2.68,2.68,0,0,0,.4.45l.53.45a3.84,3.84,0,0,1,.53.52,2.77,2.77,0,0,1,.4.65,2,2,0,0,1,.16.85,2.31,2.31,0,0,1-.11.71,1.67,1.67,0,0,1-.32.58,1.5,1.5,0,0,1-.52.39,1.71,1.71,0,0,1-.72.14,1.45,1.45,0,0,1-.79-.19,1.4,1.4,0,0,1-.47-.49,1.94,1.94,0,0,1-.23-.66,4.32,4.32,0,0,1-.06-.71Z"/><path class="cls-1" d="M147.09,57.13A4.38,4.38,0,0,0,147,56q-.11-.34-.33-.34a.33.33,0,0,0-.19.06.54.54,0,0,0-.16.3,4.1,4.1,0,0,0-.11.73q0,.48,0,1.33t0,1.3a4.92,4.92,0,0,0,.08.73.54.54,0,0,0,.15.32.4.4,0,0,0,.24.07q.3,0,.4-.42a6.06,6.06,0,0,0,.12-1.15l1,0a8.59,8.59,0,0,1,0,.89,2.61,2.61,0,0,1-.21.82,1.56,1.56,0,0,1-.48.6,1.36,1.36,0,0,1-.84.24,1.37,1.37,0,0,1-.81-.23,1.6,1.6,0,0,1-.53-.67,3.93,3.93,0,0,1-.29-1.08,10.65,10.65,0,0,1-.09-1.46,8.11,8.11,0,0,1,.13-1.6,3.66,3.66,0,0,1,.37-1.06,1.54,1.54,0,0,1,.54-.59,1.32,1.32,0,0,1,.67-.18,1.42,1.42,0,0,1,.83.22,1.4,1.4,0,0,1,.47.57,2.53,2.53,0,0,1,.21.8,8.78,8.78,0,0,1,0,.9Z"/><path class="cls-1" d="M148.89,54.73h1.36a2.92,2.92,0,0,1,.78.1,1.42,1.42,0,0,1,1,.9,2.43,2.43,0,0,1,.14.88,3.18,3.18,0,0,1,0,.45,2.11,2.11,0,0,1-.12.46,1.7,1.7,0,0,1-.22.41,1.11,1.11,0,0,1-.34.31l.72,3.12H151l-.57-2.85h-.29v2.85h-1.21Zm1.21,2.81h.24a.49.49,0,0,0,.28-.08.64.64,0,0,0,.19-.2.93.93,0,0,0,.11-.29,1.83,1.83,0,0,0,0-.34,1.08,1.08,0,0,0-.18-.73.64.64,0,0,0-.49-.19h-.19Z"/><path class="cls-1" d="M152.78,54.73h2.73v1H154v1.69h1.13v1.08H154v1.8h1.59v1h-2.8Z"/><path class="cls-1" d="M156.12,54.73h2.73v1h-1.53v1.69h1.13v1.08h-1.13v1.8h1.59v1h-2.8Z"/><path class="cls-1" d="M159.44,54.73h1.18l1.11,3.5h0v-3.5h1v6.62h-.94l-1.29-4h0v4h-1Z"/><path class="cls-1" d="M164.41,59.43c0,.09,0,.2,0,.32a1.42,1.42,0,0,0,.06.33.6.6,0,0,0,.15.26.41.41,0,0,0,.3.11.49.49,0,0,0,.25-.06.5.5,0,0,0,.17-.16.66.66,0,0,0,.09-.21.86.86,0,0,0,0-.21.9.9,0,0,0-.16-.53,2.58,2.58,0,0,0-.4-.45l-.53-.44a3.71,3.71,0,0,1-.53-.5,2.58,2.58,0,0,1-.4-.64,2.07,2.07,0,0,1-.16-.86,2.35,2.35,0,0,1,.1-.7,1.69,1.69,0,0,1,.3-.57,1.43,1.43,0,0,1,.49-.39,1.67,1.67,0,0,1,1.37,0,1.26,1.26,0,0,1,.47.41,1.9,1.9,0,0,1,.27.64,3.91,3.91,0,0,1,.1.82h-1.08c0-.09,0-.2,0-.31a1.57,1.57,0,0,0-.05-.33.57.57,0,0,0-.14-.26.38.38,0,0,0-.28-.1.39.39,0,0,0-.33.17.73.73,0,0,0-.12.44.87.87,0,0,0,.16.51,2.68,2.68,0,0,0,.4.45l.53.45a3.84,3.84,0,0,1,.53.52,2.77,2.77,0,0,1,.4.65,2,2,0,0,1,.16.85,2.31,2.31,0,0,1-.11.71,1.67,1.67,0,0,1-.32.58,1.5,1.5,0,0,1-.52.39,1.71,1.71,0,0,1-.72.14,1.45,1.45,0,0,1-.79-.19,1.4,1.4,0,0,1-.47-.49,1.94,1.94,0,0,1-.23-.66,4.32,4.32,0,0,1-.06-.71Z"/><path class="cls-1" d="M167.08,60.14h1.21v1.21h-1.21Z"/></g></g></svg>