<svg xmlns="http://www.w3.org/2000/svg" viewBox="0 0 788.32 1093.09" xmlns:xlink="http://www.w3.org/1999/xlink"><defs><style>.hello-fill{fill:#da2128;}</style></defs><title>Hello</title><g id="Layer_2" data-name="Layer 2"><g id="Layer_1-2" data-name="Layer 1"><path class="hello-fill" d="M.55.94h8.7V20.07h5.48V.94h8.7V48.57h-8.7V28.37H9.25v20.2H.55Z"/><path class="hello-fill" d="M29.34.94H49V8.3H38V20.47h8.1v7.76H38v13H49.47v7.36H29.34Z"/><path class="hello-fill" d="M53.31.94H62V41.21h11.1v7.36H53.31Z"/><path class="hello-fill" d="M77.12.94h8.7V41.21h11.1v7.36H77.12Z"/><path class="hello-fill" d="M112.17,0c7.69,0,12.71,6,12.71,24.75s-5,24.75-12.71,24.75-12.71-6-12.71-24.75S104.48,0,112.17,0ZM109,29.77c0,10.3,1.2,12.38,3.21,12.38s3.21-2.07,3.21-12.38v-10c0-10.3-1.2-12.38-3.21-12.38S109,9.44,109,19.74Z"/><rect class="hello-fill" x="0.61" y="71.88" width="124.28" height="17.73"/><path class="hello-fill" d="M21.09,219.32c0,5.26,0,14.47,7.37,14.47,5.66,0,7.63-5.26,7.63-9.08,0-16.71-31-20.52-31-48.28,0-14.08,7.63-25.52,22.1-25.52,15.39,0,21.31,11.71,21.71,28.55H33.59c0-5.26,0-14.08-6.84-14.08-4.08,0-6.45,3.42-6.45,8.55,0,15.92,31,21.31,31,48.54,0,14.34-8.16,25.78-23.55,25.78-18.29,0-22-16-22-28.94Z"/><path class="hello-fill" d="M57.13,152.75H95.81v14.47H74.24v23.94H90.15v15.26H74.24v25.52h22.5v14.47H57.13Z"/><path class="hello-fill" d="M102.18,152.75h16.71l15.66,49.47h.26V152.75H148.5v93.67H135.21l-18.29-56.7h-.26v56.7H102.18Z"/><path class="hello-fill" d="M158,152.75h14.87c28.68,0,31.44,18.42,31.44,46.83,0,27.1-2.24,46.83-28.68,46.83H158Zm17.1,79.2c10.79-.13,11.32-4.08,11.32-32.49s-.53-32.1-11.32-32.23Z"/><path class="hello-fill" d="M263,186.69c0-15.52-2-21.32-6.19-21.32-3.55,0-7.1,2.37-7.1,34.21,0,30.78,1.84,34.21,7.1,34.21,5.66,0,7-8.68,7.24-22.24l14.47.66c0,16.32-2.37,36-22.37,36-18.29,0-24.34-17.89-24.34-48.67,0-35.78,10.79-48.68,24.34-48.68,19.74,0,22.1,18.16,22.1,35.26Z"/><path class="hello-fill" d="M285.69,152.75h17.1v72.49c0,4.21.92,8.55,5.92,8.55,4.74,0,6.32-4.08,6.32-8.55V152.75H329.5V223c0,18.42-8.16,25.26-21.84,25.26-13.16,0-22-6.84-22-25.26Z"/><path class="hello-fill" d="M339,152.75h17.1c19.34,0,29.47,7.76,29.47,28,0,16.84-6.58,28.16-22.63,28.16h-6.84v37.49H339Zm17.24,42.49h1.45c7,0,10.79-2.76,10.79-14.08,0-13.55-5.26-13.94-10.92-13.94h-1.31Z"/><path class="hello-fill" d="M421.71,186.69c0-15.52-2-21.32-6.19-21.32-3.55,0-7.1,2.37-7.1,34.21,0,30.78,1.84,34.21,7.1,34.21,5.66,0,7-8.68,7.24-22.24l14.47.66c0,16.32-2.37,36-22.37,36-18.29,0-24.34-17.89-24.34-48.67,0-35.78,10.79-48.68,24.34-48.68,19.74,0,22.1,18.16,22.1,35.26Z"/><path class="hello-fill" d="M453.45,152.75h24.74l11.58,93.67H473.31l-2.5-20.79H457l-2.37,20.79H440.29Zm10.92,14.47h-.26l-5.39,44.73h10.66Z"/><path class="hello-fill" d="M495.34,152.75h17.1v39.2h.26l14.21-39.2h15.26l-12.76,31.44,15.39,62.23H528.36l-9.47-42h-.26l-6.19,14.74v27.23h-17.1Z"/><path class="hello-fill" d="M550.52,152.75H589.2v14.47H567.62v23.94h15.92v15.26H567.62v25.52h22.5v14.47h-39.6Z"/><path class="hello-fill" d="M609,219.32c0,5.26,0,14.47,7.37,14.47,5.66,0,7.63-5.26,7.63-9.08,0-16.71-31-20.52-31-48.28,0-14.08,7.63-25.52,22.1-25.52,15.39,0,21.31,11.71,21.71,28.55H621.51c0-5.26,0-14.08-6.84-14.08-4.08,0-6.45,3.42-6.45,8.55,0,15.92,31,21.31,31,48.54,0,14.34-8.16,25.78-23.55,25.78-18.29,0-22-16-22-28.94Z"/><path class="hello-fill" d="M674.15,167.22H659.41V152.75H706v14.47H691.25v79.2h-17.1Z"/><path class="hello-fill" d="M732.56,150.9c15.13,0,25,11.71,25,48.68s-9.87,48.67-25,48.67-25-11.71-25-48.67S717.43,150.9,732.56,150.9Zm-6.32,58.54c0,20.26,2.37,24.34,6.32,24.34s6.32-4.08,6.32-24.34V189.72c0-20.26-2.37-24.34-6.32-24.34s-6.32,4.08-6.32,24.34Z"/><a xlink:href="https://goo.gl/maps/wmsHuZaAMF92" target="_blank" class="a-svg"><path class="hello-fill" d="M4.78,351.23c12-20.26,27.36-40.52,27.36-57.62,0-5-.26-12.37-5.39-12.37-3.42,0-6.05,4.21-6.18,16.58L6.1,296.5c0-15,7.37-27.89,22.1-27.89,13.68,0,21.05,10.79,21.05,24.21,0,20.52-19.08,40.65-29.34,55.25H47v15.26H4.78Z"/><path class="hello-fill" d="M77.41,364.38C66.36,364.38,55,356.23,55,316.5s11.32-47.89,22.37-47.89c10.79,0,22.36,8.94,22.36,47.89S88.2,364.38,77.41,364.38Zm0-83.15c-3.42,0-6.05,2.76-6.05,35.26s2.63,35.26,6.05,35.26,6.05-2.77,6.05-35.26S80.83,281.24,77.41,281.24Z"/><path class="hello-fill" d="M103,350.7h10.26V288.48L103,290.19V279.79c5.53-2.37,13.29-6.05,18-10.13h7.5v81h10.26v12.63H103Z"/><path class="hello-fill" d="M191.41,303.08c0-4.34,1.05-20.79-6.32-20.79-4.21,0-7.37,3.95-7.37,34.08,0,30.78,2.9,34.34,8.16,34.34,6.45,0,7-12.9,7-17.37h-6.32V319.65h20.79v43.68H200.1l-2.37-6.18c-2.63,3.94-7.63,8-13.55,8-18.29,0-24.34-17.89-24.34-48.67,0-35.78,10.79-48.68,24.34-48.68,11.05,0,22.5,5.26,22.5,29.21v6.05Z"/><path class="hello-fill" d="M215.64,269.66h21.05c10.52,0,23.16,5.79,23.16,23.68,0,10.52-4.74,18.68-15.26,20.92v.26c11.71,2.76,17.1,10.92,17.1,22.76,0,17.1-11.58,26-24.21,26H215.64Zm17.1,38.41c8.55,0,10.79-3.95,10.79-12.37,0-10.65-2.23-12.5-10.79-12.36Zm0,41.57c10.26,0,11.84-4.08,11.84-13.81,0-8.55-2.1-13.42-11.84-13.29Z"/><path class="hello-fill" d="M281.38,336.23c0,5.26,0,14.47,7.37,14.47,5.66,0,7.63-5.26,7.63-9.08,0-16.71-31-20.52-31-48.28,0-14.08,7.63-25.52,22.1-25.52,15.39,0,21.31,11.71,21.71,28.55H293.88c0-5.26,0-14.08-6.84-14.08-4.08,0-6.45,3.42-6.45,8.55,0,15.92,31,21.31,31,48.54,0,14.34-8.16,25.78-23.55,25.78-18.29,0-22-16-22-28.94Z"/><path class="hello-fill" d="M333.36,269.66h21.05c10.52,0,23.16,5.79,23.16,23.68,0,10.52-4.74,18.68-15.26,20.92v.26c11.71,2.76,17.1,10.92,17.1,22.76,0,17.1-11.58,26-24.21,26H333.36Zm17.1,38.41c8.55,0,10.79-3.95,10.79-12.37,0-10.65-2.23-12.5-10.79-12.36Zm0,41.57c10.26,0,11.84-4.08,11.84-13.81,0-8.55-2.1-13.42-11.84-13.29Z"/><path class="hello-fill" d="M386,269.66h17.1v79.2h21.84v14.47H386Z"/><path class="hello-fill" d="M431,269.66H445.9c28.68,0,31.44,18.42,31.44,46.83,0,27.1-2.24,46.83-28.68,46.83H431Zm17.1,79.2c10.79-.13,11.32-4.08,11.32-32.49s-.53-32.1-11.32-32.23Z"/><path class="hello-fill" d="M515,303.08c0-4.34,1.05-20.79-6.32-20.79-4.21,0-7.37,3.95-7.37,34.08,0,30.78,2.9,34.34,8.16,34.34,6.45,0,7-12.9,7-17.37h-6.32V319.65h20.79v43.68h-7.23l-2.37-6.18c-2.63,3.94-7.63,8-13.55,8-18.29,0-24.34-17.89-24.34-48.67,0-35.78,10.79-48.68,24.34-48.68,11.05,0,22.5,5.26,22.5,29.21v6.05Z"/><path class="hello-fill" d="M545.15,358.66h-6.31v-17.1h17.1v15.79l-10.13,21.05H539Z"/><path class="hello-fill" d="M572.78,269.66h14.87c28.68,0,31.44,18.42,31.44,46.83,0,27.1-2.24,46.83-28.68,46.83H572.78Zm17.1,79.2c10.79-.13,11.32-4.08,11.32-32.49s-.53-32.1-11.32-32.23Z"/><path class="hello-fill" d="M627,269.66h22.76l7.63,48h.26l8-48h22.23v93.67H672.65V294.66h-.26l-11.58,68.67h-9.47l-11.45-68.67h-.26v68.67H627Z"/><path class="hello-fill" d="M726.49,303.61c0-15.52-2-21.32-6.19-21.32-3.55,0-7.1,2.37-7.1,34.21,0,30.78,1.84,34.21,7.1,34.21,5.66,0,7-8.68,7.24-22.24l14.47.66c0,16.32-2.37,36-22.37,36-18.29,0-24.34-17.89-24.34-48.67,0-35.78,10.79-48.68,24.34-48.68,19.74,0,22.1,18.16,22.1,35.26Z"/><path class="hello-fill" d="M748.12,346.23h17.1v17.1h-17.1Z"/><rect class="hello-fill" y="377.41" width="765.21" height="13.3"/></a><path class="hello-fill" d="M17.28,518H2.55V503.49H49.12V518H34.38v79.2H17.28Z"/><path class="hello-fill" d="M75.7,501.64c15.13,0,25,11.71,25,48.68S90.83,599,75.7,599s-25-11.71-25-48.67S60.57,501.64,75.7,501.64Zm-6.32,58.54c0,20.26,2.37,24.34,6.32,24.34S82,580.45,82,560.19V540.46c0-20.26-2.37-24.34-6.32-24.34s-6.32,4.08-6.32,24.34Z"/><path class="hello-fill" d="M126.88,503.49h14.87c28.68,0,31.44,18.42,31.44,46.83,0,27.1-2.24,46.83-28.68,46.83H126.88Zm17.1,79.2c10.79-.13,11.32-4.08,11.32-32.49S154.77,518.09,144,518Z"/><path class="hello-fill" d="M181.33,503.49h17.1v93.67h-17.1Z"/><path class="hello-fill" d="M220.23,570.06c0,5.26,0,14.47,7.37,14.47,5.66,0,7.63-5.26,7.63-9.07,0-16.71-31-20.52-31-48.28,0-14.08,7.63-25.52,22.1-25.52,15.39,0,21.31,11.71,21.71,28.55H232.73c0-5.26,0-14.08-6.84-14.08-4.08,0-6.45,3.42-6.45,8.55,0,15.92,31,21.31,31,48.54,0,14.34-8.16,25.78-23.55,25.78-18.29,0-22-16-22-28.94Z"/><path class="hello-fill" d="M285.76,537.43c0-15.52-2-21.32-6.19-21.32-3.55,0-7.1,2.37-7.1,34.21,0,30.78,1.84,34.2,7.1,34.2,5.66,0,7-8.68,7.24-22.23l14.47.66c0,16.32-2.37,36-22.37,36-18.29,0-24.34-17.89-24.34-48.67,0-35.78,10.79-48.68,24.34-48.68,19.74,0,22.1,18.16,22.1,35.26Z"/><path class="hello-fill" d="M308.44,503.49h17.1V576c0,4.21.92,8.55,5.92,8.55,4.74,0,6.32-4.08,6.32-8.55V503.49h14.47v70.25c0,18.42-8.16,25.26-21.84,25.26-13.16,0-22-6.84-22-25.26Z"/><path class="hello-fill" d="M374,570.06c0,5.26,0,14.47,7.37,14.47,5.66,0,7.63-5.26,7.63-9.07,0-16.71-31-20.52-31-48.28,0-14.08,7.63-25.52,22.1-25.52,15.39,0,21.31,11.71,21.71,28.55H386.47c0-5.26,0-14.08-6.84-14.08-4.08,0-6.45,3.42-6.45,8.55,0,15.92,31,21.31,31,48.54,0,14.34-8.16,25.78-23.55,25.78-18.29,0-22-16-22-28.94Z"/><path class="hello-fill" d="M423.54,570.06c0,5.26,0,14.47,7.37,14.47,5.66,0,7.63-5.26,7.63-9.07,0-16.71-31-20.52-31-48.28,0-14.08,7.63-25.52,22.1-25.52,15.39,0,21.31,11.71,21.71,28.55H436c0-5.26,0-14.08-6.84-14.08-4.08,0-6.45,3.42-6.45,8.55,0,15.92,31,21.31,31,48.54,0,14.34-8.16,25.78-23.55,25.78-18.29,0-22-16-22-28.94Z"/><path class="hello-fill" d="M477.48,503.49h22.76l7.63,48h.26l8-48H538.4v93.67H523.14V528.48h-.26L511.3,597.16h-9.47l-11.45-68.67h-.26v68.67H477.48Z"/><path class="hello-fill" d="M570.79,501.64c15.13,0,25,11.71,25,48.68s-9.87,48.67-25,48.67-25-11.71-25-48.67S555.66,501.64,570.79,501.64Zm-6.32,58.54c0,20.26,2.37,24.34,6.32,24.34s6.32-4.08,6.32-24.34V540.46c0-20.26-2.37-24.34-6.32-24.34s-6.32,4.08-6.32,24.34Z"/><path class="hello-fill" d="M597.6,503.49H614.3l8,65.78h.26l8.81-65.78h13.81l-14.08,93.67h-19.6Z"/><path class="hello-fill" d="M650.36,503.49h17.1v93.67h-17.1Z"/><path class="hello-fill" d="M676.9,503.49h38.68V518H694V541.9h15.92v15.26H694v25.52h22.5v14.47H676.9Z"/><path class="hello-fill" d="M735.39,570.06c0,5.26,0,14.47,7.37,14.47,5.66,0,7.63-5.26,7.63-9.07,0-16.71-31-20.52-31-48.28,0-14.08,7.63-25.52,22.1-25.52,15.39,0,21.31,11.71,21.71,28.55H747.89c0-5.26,0-14.08-6.84-14.08-4.08,0-6.45,3.42-6.45,8.55,0,15.92,31,21.31,31,48.54,0,14.34-8.16,25.78-23.55,25.78-18.29,0-22-16-22-28.94Z"/><path class="hello-fill" d="M777.53,597.16h-6.31v-17.1h17.1v15.79l-10.13,21.05h-6.84Z"/><path class="hello-fill" d="M9.39,620.4H28.59c16.32,0,27.1,6.84,27.1,26.58,0,7.89-2.37,18.42-10,22.89l10.13,44.2H38.59l-8-40.26H26.49v40.26H9.39Zm17.1,39.73h3.42c6.32,0,8.68-6.32,8.68-13,0-10.13-3.68-13-9.47-13H26.49Z"/><path class="hello-fill" d="M62,620.4h17.1v93.67H62Z"/><path class="hello-fill" d="M88.26,620.4H105l15.66,49.47h.26V620.4h13.68v93.67H121.29L103,657.37h-.26v56.7H88.26Z"/><path class="hello-fill" d="M173.49,653.81c0-4.34,1.05-20.79-6.32-20.79-4.21,0-7.37,3.95-7.37,34.08,0,30.78,2.9,34.34,8.16,34.34,6.45,0,7-12.9,7-17.37h-6.32V670.39H189.4v43.68h-7.23l-2.37-6.18c-2.63,3.94-7.63,8-13.55,8-18.29,0-24.34-17.89-24.34-48.67,0-35.78,10.79-48.68,24.34-48.68,11.05,0,22.5,5.26,22.5,29.21v6.05Z"/><a xlink:href="tel:045146130"><path class="hello-fill" d="M237.42,715.12c-11.05,0-22.37-8.16-22.37-47.89s11.32-47.89,22.37-47.89c10.79,0,22.36,8.94,22.36,47.89S248.21,715.12,237.42,715.12Zm0-83.15c-3.42,0-6.05,2.76-6.05,35.26s2.63,35.26,6.05,35.26,6.05-2.77,6.05-35.26S240.84,632,237.42,632Z"/><path class="hello-fill" d="M268.35,677.23l18-56.83h19.08v58.94h8.94v11.58h-8.94v23.16H291V690.91H268.35ZM291,636.71h-.26L278,679.07h13Z"/><path class="hello-fill" d="M325.05,697h17.1v17.1h-17.1Z"/><path class="hello-fill" d="M367.81,690.78c0,9.34,2,11.71,5.79,11.71,4.08,0,6.32-5,6.32-18,0-10.66-1.71-16.71-7.63-16.71-4.21,0-6.05,2.76-8,6.18l-10.53-3.29,3.42-50.25H394l-1.05,14.47H368.73l-1.58,22c2.9-1.45,6.05-2.76,9.34-2.76,11.18,0,20.52,8.16,20.52,28.29,0,24.34-11.71,32.76-23.42,32.76-15,0-20.78-9.21-21-23.42Z"/><path class="hello-fill" d="M405.84,701.44H416.1V639.21l-10.26,1.71V630.53c5.53-2.37,13.29-6.05,18-10.13h7.5v81h10.26v12.63H405.84Z"/><path class="hello-fill" d="M446.89,677.23l18-56.83H484v58.94h8.94v11.58H484v23.16H469.52V690.91H446.89Zm22.63-40.52h-.26l-12.76,42.36h13Z"/><path class="hello-fill" d="M506.23,697h17.1v17.1h-17.1Z"/><path class="hello-fill" d="M562.4,644.87c-.66-8.42-1.18-12.9-5-12.9-6.18,0-6.45,11.58-7.5,30.39h.26c2.76-4.21,6.32-6.58,11.71-6.58,7.63,0,16,6.84,16,26.44,0,21.18-9.47,32.89-22,32.89-11.84,0-22.76-7.1-22.76-44.07,0-38,10.39-51.7,24.47-51.7,13.68,0,18.55,12.5,19.21,24.34Zm-12.1,39.07c.13,11,1.19,18.55,5.66,18.55,4.21,0,5.66-3.95,5.66-18.29,0-13-2.9-15.79-6.05-15.79a6.63,6.63,0,0,0-5.26,2.5Z"/><path class="hello-fill" d="M586,701.44h10.26V639.21L586,640.92V630.53c5.53-2.37,13.29-6.05,18-10.13h7.5v81h10.26v12.63H586Z"/><path class="hello-fill" d="M641.88,660.13c11.45.52,14.08-7.24,14.08-16.58,0-5.92-.92-11.58-6.05-11.58-2.76,0-5.53,2.11-5.92,11.18l-13.42-1.31c.92-12.5,7.37-22.5,20.92-22.5,13.29,0,19.73,10.92,19.73,23.29,0,10.13-3,18.55-13,22.36v.26c11.32,2.9,15.53,12.37,15.53,23.55,0,17-9.74,26.31-24.74,26.31-13.81,0-20.13-10.13-20.26-23l14.47-.92c.13,4.08.66,11.32,6.18,11.32,4.87,0,7.24-5.53,7.24-14.61,0-11.31-3.29-15.13-14.74-15.13Z"/><path class="hello-fill" d="M704.38,715.12c-11.05,0-22.37-8.16-22.37-47.89s11.32-47.89,22.37-47.89c10.79,0,22.36,8.94,22.36,47.89S715.16,715.12,704.38,715.12Zm0-83.15c-3.42,0-6.05,2.76-6.05,35.26s2.63,35.26,6.05,35.26,6.05-2.77,6.05-35.26S707.8,632,704.38,632Z"/><path class="hello-fill" d="M731.41,697h17.1v17.1h-17.1Z"/><rect class="hello-fill" x="215.64" y="727.86" width="532.88" height="13.3"/></a><path class="hello-fill" d="M17.28,868.7H2.55V854.23H49.12V868.7H34.38v79.2H17.28Z"/><path class="hello-fill" d="M75.7,852.39c15.13,0,25,11.71,25,48.68s-9.87,48.67-25,48.67-25-11.71-25-48.67S60.57,852.39,75.7,852.39Zm-6.32,58.54c0,20.26,2.37,24.34,6.32,24.34S82,931.19,82,910.93V891.2c0-20.26-2.37-24.34-6.32-24.34s-6.32,4.08-6.32,24.34Z"/><path class="hello-fill" d="M121,854.23h22.76l7.63,48h.26l8-48h22.23V947.9H166.61V879.23h-.26L154.77,947.9H145.3l-11.45-68.67h-.26V947.9H121Z"/><path class="hello-fill" d="M202.14,854.23h24.74l11.58,93.67H222l-2.5-20.79H205.69l-2.37,20.79H189Zm10.92,14.47h-.26l-5.39,44.73h10.66Z"/><path class="hello-fill" d="M245.56,854.23h17.1V947.9h-17.1Z"/><path class="hello-fill" d="M273.84,854.23h17.1v79.2h21.84V947.9H273.84Z"/><path class="hello-fill" d="M334.5,854.23h17.1v72.49c0,4.21.92,8.55,5.92,8.55,4.74,0,6.32-4.08,6.32-8.55V854.23h14.47v70.25c0,18.42-8.16,25.26-21.84,25.26-13.16,0-22-6.84-22-25.26Z"/><path class="hello-fill" d="M401.86,920.8c0,5.26,0,14.47,7.37,14.47,5.66,0,7.63-5.26,7.63-9.08,0-16.71-31-20.52-31-48.28,0-14.08,7.63-25.52,22.1-25.52,15.39,0,21.31,11.71,21.71,28.55H414.36c0-5.26,0-14.08-6.84-14.08-4.08,0-6.45,3.42-6.45,8.55,0,15.92,31,21.31,31,48.54,0,14.34-8.16,25.78-23.55,25.78-18.29,0-22-16-22-28.94Z"/><path class="hello-fill" d="M453.84,854.23h38.28V868.7H470.94v25H486.6V909H470.94V947.9h-17.1Z"/><path class="hello-fill" d="M498.83,854.23h17.1v72.49c0,4.21.92,8.55,5.92,8.55,4.74,0,6.32-4.08,6.32-8.55V854.23h14.47v70.25c0,18.42-8.16,25.26-21.84,25.26-13.16,0-22-6.84-22-25.26Z"/><path class="hello-fill" d="M551.78,854.23h16.71l15.66,49.47h.26V854.23h13.68V947.9H584.8l-18.29-56.7h-.26v56.7H551.78Z"/><path class="hello-fill" d="M607.29,854.23H624l15.66,49.47h.26V854.23H653.6V947.9H640.31L622,891.2h-.26v56.7H607.29Z"/><path class="hello-fill" d="M675.05,911.72l-15.66-57.49h17l8.16,36.7h.26l8.68-36.7h14.34l-15.65,55.91V947.9h-17.1Z"/><path class="hello-fill" d="M38.46,1004.56c0-4.34,1.05-20.79-6.32-20.79-4.21,0-7.37,3.95-7.37,34.08,0,30.78,2.9,34.33,8.16,34.33,6.45,0,7-12.89,7-17.36H33.59v-13.68H54.38v43.68H47.15l-2.37-6.18c-2.63,3.94-7.63,8-13.55,8-18.29,0-24.34-17.89-24.34-48.67,0-35.78,10.79-48.68,24.34-48.68,11.05,0,22.5,5.26,22.5,29.21v6.05Z"/><path class="hello-fill" d="M64.25,971.14h17.1v93.67H64.25Z"/><path class="hello-fill" d="M92.54,971.14h38.28v14.47H109.64v25H125.3v15.26H109.64v38.94H92.54Z"/><path class="hello-fill" d="M151.49,1037.71c0,5.26,0,14.47,7.37,14.47,5.66,0,7.63-5.26,7.63-9.07,0-16.71-31-20.52-31-48.28,0-14.08,7.63-25.52,22.1-25.52,15.39,0,21.31,11.71,21.71,28.55H164c0-5.26,0-14.08-6.84-14.08-4.08,0-6.45,3.42-6.45,8.55,0,15.92,31,21.31,31,48.54,0,14.34-8.16,25.78-23.55,25.78-18.29,0-22-16-22-28.94Z"/><path class="hello-fill" d="M193.63,1064.81h-6.32v-17.1h17.1v15.79l-10.13,21.05h-6.84Z"/><path class="hello-fill" d="M255.2,1005.09c0-15.52-2-21.32-6.19-21.32-3.55,0-7.1,2.37-7.1,34.21,0,30.78,1.84,34.2,7.1,34.2,5.66,0,7-8.68,7.24-22.23l14.47.66c0,16.32-2.37,36-22.37,36-18.29,0-24.34-17.89-24.34-48.67,0-35.78,10.79-48.68,24.34-48.68,19.74,0,22.1,18.16,22.1,35.26Z"/><path class="hello-fill" d="M277.57,971.14h17.1v79.2h21.84v14.47H277.57Z"/><path class="hello-fill" d="M324,971.14h17.1v93.67H324Z"/><path class="hello-fill" d="M381.51,1005.09c0-15.52-2-21.32-6.19-21.32-3.55,0-7.1,2.37-7.1,34.21,0,30.78,1.84,34.2,7.1,34.2,5.66,0,7-8.68,7.24-22.23l14.47.66c0,16.32-2.37,36-22.37,36-18.29,0-24.34-17.89-24.34-48.67,0-35.78,10.79-48.68,24.34-48.68,19.74,0,22.1,18.16,22.1,35.26Z"/><path class="hello-fill" d="M406.51,971.14h17.1v39.2h.26l14.21-39.2h15.26l-12.76,31.44L456,1064.81H439.53l-9.47-42h-.26l-6.19,14.74v27.23h-17.1Z"/><a xlink:href="mailto:hello@sciencesunshine.com"><path class="hello-fill" d="M482.82,971.14h17.1v37.63h10.79V971.14h17.1v93.67h-17.1v-39.73H499.93v39.73h-17.1Z"/><path class="hello-fill" d="M537.66,971.14h38.68v14.47H554.76v23.94h15.92v15.26H554.76v25.52h22.5v14.47h-39.6Z"/><path class="hello-fill" d="M584.76,971.14H604c16.32,0,27.1,6.84,27.1,26.58,0,7.89-2.37,18.42-10,22.89l10.13,44.2H614l-8-40.26h-4.08v40.26h-17.1Zm17.1,39.73h3.42c6.32,0,8.68-6.32,8.68-13,0-10.13-3.68-13-9.47-13h-2.63Z"/><path class="hello-fill" d="M639.37,971.14H678v14.47H656.47v23.94h15.92v15.26H656.47v25.52H679v14.47h-39.6Z"/><path class="hello-fill" d="M685.93,1047.71H703v17.1h-17.1Z"/><rect class="hello-fill" x="482.08" y="1079.8" width="220.96" height="13.3"/></a></g></g></svg>
