<svg xmlns="http://www.w3.org/2000/svg" viewBox="0 0 488.28 203.28"><defs><style>.cls-1{fill:#fff;}</style></defs><title>HarveyNichols Loved Ones</title><g id="Layer_2" data-name="Layer 2"><g id="Layer_1-2" data-name="Layer 1"><rect class="cls-1" x="1.22" width="152.31" height="16.86"/><path class="cls-1" d="M1.45,37.51H9.67V55.59h5.19V37.51h8.22v45H14.86V63.43H9.67v19.1H1.45Z"/><path class="cls-1" d="M31.53,37.51H43.42l5.56,45h-7.9l-1.2-10H33.24l-1.14,10H25.21Zm5.25,7h-.13L34.06,66h5.12Z"/><path class="cls-1" d="M51.16,37.51h9.23a19.94,19.94,0,0,1,5.31.66,9.68,9.68,0,0,1,6.77,6.13,16.54,16.54,0,0,1,.95,6,22,22,0,0,1-.22,3,14.57,14.57,0,0,1-.79,3.1,11.75,11.75,0,0,1-1.49,2.78,7.56,7.56,0,0,1-2.31,2.09l4.87,21.25H65.2L61.34,63.18h-2V82.53H51.16Zm8.22,19.1H61a3.35,3.35,0,0,0,1.93-.54,4.32,4.32,0,0,0,1.3-1.39,6.21,6.21,0,0,0,.73-2,12.27,12.27,0,0,0,.22-2.34q0-3.67-1.23-5a4.37,4.37,0,0,0-3.32-1.3H59.38Z"/><path class="cls-1" d="M73.9,37.51h8l3.86,31.62h.13l4.24-31.62h6.64L90,82.53H80.6Z"/><path class="cls-1" d="M98.9,37.51h18.59v7H107.12V56h7.65v7.33h-7.65V75.58h10.81v7h-19Z"/><path class="cls-1" d="M125.77,65.14l-7.53-27.63h8.16l3.92,17.64h.13l4.17-17.64h6.89L134,64.38V82.53h-8.22Z"/><path class="cls-1" d="M155,37.51h8l7.53,23.78h.13V37.51h6.58v45h-6.39l-8.79-27.26H162V82.53h-7Z"/><path class="cls-1" d="M181.33,37.51h8.22v45h-8.22Z"/><path class="cls-1" d="M207.72,53.82a29.82,29.82,0,0,0-.73-7.94q-.73-2.31-2.25-2.31a2.3,2.3,0,0,0-1.26.41A3.69,3.69,0,0,0,202.37,46a27.82,27.82,0,0,0-.76,4.93q-.28,3.29-.28,9,0,5.56.19,8.82a33.47,33.47,0,0,0,.57,5,3.66,3.66,0,0,0,1,2.18,2.7,2.7,0,0,0,1.61.47q2,0,2.69-2.88a41,41,0,0,0,.79-7.81l7,.32a59,59,0,0,1-.32,6,17.71,17.71,0,0,1-1.45,5.56,10.6,10.6,0,0,1-3.26,4.11,9.23,9.23,0,0,1-5.72,1.61,9.38,9.38,0,0,1-5.53-1.58,11,11,0,0,1-3.6-4.58,26.75,26.75,0,0,1-2-7.34,72.59,72.59,0,0,1-.6-9.9,55.14,55.14,0,0,1,.92-10.91,24.91,24.91,0,0,1,2.5-7.24,10.44,10.44,0,0,1,3.7-4,9,9,0,0,1,4.58-1.23,9.69,9.69,0,0,1,5.66,1.49A9.54,9.54,0,0,1,213.31,42a17.23,17.23,0,0,1,1.42,5.44,59.26,59.26,0,0,1,.32,6.13Z"/><path class="cls-1" d="M218.45,37.51h8.22V55.59h5.19V37.51h8.22v45h-8.22V63.43h-5.19v19.1h-8.22Z"/><path class="cls-1" d="M243.32,60a61,61,0,0,1,.85-11.13,23,23,0,0,1,2.44-7.21,9.76,9.76,0,0,1,3.79-3.89,11,11,0,0,1,9.87,0,9.78,9.78,0,0,1,3.79,3.89,23,23,0,0,1,2.43,7.21A60.93,60.93,0,0,1,267.35,60a60.92,60.92,0,0,1-.85,11.13,23,23,0,0,1-2.43,7.21,9.78,9.78,0,0,1-3.79,3.89,11,11,0,0,1-9.87,0,9.76,9.76,0,0,1-3.79-3.89,23,23,0,0,1-2.44-7.21A61,61,0,0,1,243.32,60Zm9,4.74q0,3.67.22,5.94a20.27,20.27,0,0,0,.6,3.57,3.38,3.38,0,0,0,.95,1.74,2,2,0,0,0,2.53,0,3.38,3.38,0,0,0,.95-1.74,20.32,20.32,0,0,0,.6-3.57q.22-2.28.22-5.94V55.28q0-3.67-.22-5.94a19.56,19.56,0,0,0-.6-3.54,3.59,3.59,0,0,0-.95-1.74,1.93,1.93,0,0,0-2.53,0,3.59,3.59,0,0,0-.95,1.74,19.52,19.52,0,0,0-.6,3.54q-.22,2.28-.22,5.94Z"/><path class="cls-1" d="M270.54,37.51h8.22V75.58h10.5v7H270.54Z"/><path class="cls-1" d="M297.94,69.5q0,.95.06,2.15a9.8,9.8,0,0,0,.38,2.28,4.15,4.15,0,0,0,1,1.8,2.78,2.78,0,0,0,2.05.73,3.31,3.31,0,0,0,1.71-.41A3.48,3.48,0,0,0,304.33,75a4.55,4.55,0,0,0,.63-1.42,6,6,0,0,0,.19-1.46,6.14,6.14,0,0,0-1.11-3.6,17.52,17.52,0,0,0-2.75-3q-1.65-1.45-3.6-3a25.07,25.07,0,0,1-3.6-3.42,17.61,17.61,0,0,1-2.75-4.36,14.11,14.11,0,0,1-1.11-5.82,16,16,0,0,1,.7-4.77,11.58,11.58,0,0,1,2-3.89,9.74,9.74,0,0,1,3.32-2.62,11.42,11.42,0,0,1,9.33,0,8.57,8.57,0,0,1,3.19,2.81,12.89,12.89,0,0,1,1.83,4.33,26.48,26.48,0,0,1,.66,5.57H304c0-.63,0-1.34-.06-2.12a10.6,10.6,0,0,0-.35-2.21,3.85,3.85,0,0,0-1-1.74,2.57,2.57,0,0,0-1.9-.7,2.65,2.65,0,0,0-2.28,1.14,5,5,0,0,0-.82,3,5.93,5.93,0,0,0,1.11,3.48,18.26,18.26,0,0,0,2.75,3.07q1.64,1.49,3.6,3.07a26.07,26.07,0,0,1,3.6,3.54,18.88,18.88,0,0,1,2.75,4.43A14,14,0,0,1,312.49,71a15.62,15.62,0,0,1-.73,4.84,11.42,11.42,0,0,1-2.15,3.92,10.18,10.18,0,0,1-3.54,2.66,11.56,11.56,0,0,1-4.9,1,9.89,9.89,0,0,1-5.34-1.3,9.5,9.5,0,0,1-3.23-3.32A13.22,13.22,0,0,1,291,74.31a29.18,29.18,0,0,1-.41-4.81Z"/><path class="cls-1" d="M1.45,100.74H9.67v38.07h10.5v7H1.45Z"/><path class="cls-1" d="M21.06,123.26a61,61,0,0,1,.85-11.13,23,23,0,0,1,2.43-7.21A9.77,9.77,0,0,1,28.14,101,11,11,0,0,1,38,101a9.78,9.78,0,0,1,3.79,3.89,23,23,0,0,1,2.43,7.21,61,61,0,0,1,.85,11.13,60.94,60.94,0,0,1-.85,11.13,23,23,0,0,1-2.43,7.21A9.78,9.78,0,0,1,38,145.48a11,11,0,0,1-9.86,0,9.77,9.77,0,0,1-3.79-3.89,23,23,0,0,1-2.43-7.21A60.94,60.94,0,0,1,21.06,123.26ZM30,128q0,3.67.22,5.94a20.25,20.25,0,0,0,.6,3.57,3.38,3.38,0,0,0,.95,1.74,2,2,0,0,0,2.53,0,3.38,3.38,0,0,0,.95-1.74,20.34,20.34,0,0,0,.6-3.57q.22-2.28.22-5.94v-9.49q0-3.67-.22-5.94a19.59,19.59,0,0,0-.6-3.54,3.59,3.59,0,0,0-.95-1.74,1.93,1.93,0,0,0-2.53,0,3.59,3.59,0,0,0-.95,1.74,19.5,19.5,0,0,0-.6,3.54q-.22,2.28-.22,5.94Z"/><path class="cls-1" d="M45.38,100.74h8l3.86,31.62h.13l4.24-31.62h6.64l-6.77,45H52.09Z"/><path class="cls-1" d="M70.39,100.74H89v7H78.61v11.51h7.65v7.33H78.61v12.27H89.42v7h-19Z"/><path class="cls-1" d="M91.68,100.74h7.15a17.43,17.43,0,0,1,8.19,1.61,10.78,10.78,0,0,1,4.55,4.55,19.19,19.19,0,0,1,2,7.08q.41,4.14.41,9.26,0,4.87-.38,9a21.67,21.67,0,0,1-1.77,7.15,10.52,10.52,0,0,1-4.14,4.68,14.36,14.36,0,0,1-7.49,1.68H91.68Zm8.22,38.07a6.93,6.93,0,0,0,3-.54,3.48,3.48,0,0,0,1.61-2.18,18.44,18.44,0,0,0,.66-4.71q.13-3.07.13-8.19t-.13-8.16a17.89,17.89,0,0,0-.66-4.65,3.47,3.47,0,0,0-1.61-2.15,6.93,6.93,0,0,0-3-.54Z"/><path class="cls-1" d="M129.68,123.26a61,61,0,0,1,.85-11.13,23,23,0,0,1,2.43-7.21,9.77,9.77,0,0,1,3.79-3.89,11,11,0,0,1,9.86,0,9.78,9.78,0,0,1,3.79,3.89,23,23,0,0,1,2.43,7.21,61,61,0,0,1,.85,11.13,60.94,60.94,0,0,1-.85,11.13,23,23,0,0,1-2.43,7.21,9.78,9.78,0,0,1-3.79,3.89,11,11,0,0,1-9.86,0,9.77,9.77,0,0,1-3.79-3.89,23,23,0,0,1-2.43-7.21A60.94,60.94,0,0,1,129.68,123.26Zm9,4.74q0,3.67.22,5.94a20.25,20.25,0,0,0,.6,3.57,3.38,3.38,0,0,0,.95,1.74,2,2,0,0,0,2.53,0,3.38,3.38,0,0,0,.95-1.74,20.34,20.34,0,0,0,.6-3.57q.22-2.28.22-5.94v-9.49q0-3.67-.22-5.94a19.59,19.59,0,0,0-.6-3.54,3.59,3.59,0,0,0-.95-1.74,1.93,1.93,0,0,0-2.53,0,3.59,3.59,0,0,0-.95,1.74,19.5,19.5,0,0,0-.6,3.54q-.22,2.28-.22,5.94Z"/><path class="cls-1" d="M156.76,100.74h8l7.53,23.78h.13V100.74H179v45h-6.39l-8.79-27.26h-.13v27.26h-7Z"/><path class="cls-1" d="M183.2,100.74h18.59v7H191.42v11.51h7.65v7.33h-7.65v12.27h10.81v7h-19Z"/><path class="cls-1" d="M210.8,132.74q0,.95.06,2.15a9.8,9.8,0,0,0,.38,2.28,4.14,4.14,0,0,0,1,1.8,2.78,2.78,0,0,0,2.06.73,3.3,3.3,0,0,0,1.71-.41,3.49,3.49,0,0,0,1.14-1.08,4.55,4.55,0,0,0,.63-1.42,6,6,0,0,0,.19-1.46,6.14,6.14,0,0,0-1.11-3.6,17.52,17.52,0,0,0-2.75-3q-1.65-1.45-3.6-3a25.11,25.11,0,0,1-3.6-3.42,17.61,17.61,0,0,1-2.75-4.36,14.11,14.11,0,0,1-1.11-5.82,16,16,0,0,1,.7-4.77,11.57,11.57,0,0,1,2-3.89,9.73,9.73,0,0,1,3.32-2.62,11.42,11.42,0,0,1,9.33,0,8.58,8.58,0,0,1,3.19,2.81,12.89,12.89,0,0,1,1.83,4.33,26.52,26.52,0,0,1,.66,5.57h-7.34c0-.63,0-1.34-.06-2.12a10.56,10.56,0,0,0-.35-2.21,3.84,3.84,0,0,0-1-1.74,2.57,2.57,0,0,0-1.9-.7,2.65,2.65,0,0,0-2.28,1.14,5,5,0,0,0-.82,3,5.93,5.93,0,0,0,1.11,3.48,18.26,18.26,0,0,0,2.75,3.07q1.64,1.49,3.6,3.07a26.07,26.07,0,0,1,3.6,3.54,18.9,18.9,0,0,1,2.75,4.43,14,14,0,0,1,1.11,5.75,15.62,15.62,0,0,1-.73,4.84,11.41,11.41,0,0,1-2.15,3.92,10.18,10.18,0,0,1-3.54,2.66,11.56,11.56,0,0,1-4.9,1,9.89,9.89,0,0,1-5.34-1.3,9.5,9.5,0,0,1-3.23-3.32,13.21,13.21,0,0,1-1.58-4.49,29.15,29.15,0,0,1-.41-4.81Z"/><path class="cls-1" d="M9,185.49a17.93,17.93,0,0,0-.44-4.77q-.44-1.39-1.35-1.39a1.39,1.39,0,0,0-.76.25,2.22,2.22,0,0,0-.67,1.24,16.71,16.71,0,0,0-.46,3q-.17,2-.17,5.43t.11,5.3a20.07,20.07,0,0,0,.34,3,2.2,2.2,0,0,0,.63,1.31,1.63,1.63,0,0,0,1,.28q1.22,0,1.61-1.73a24.63,24.63,0,0,0,.48-4.69l4.18.19a35.42,35.42,0,0,1-.19,3.63,10.64,10.64,0,0,1-.87,3.34,6.37,6.37,0,0,1-2,2.47,5.55,5.55,0,0,1-3.44,1,5.63,5.63,0,0,1-3.32-1,6.58,6.58,0,0,1-2.17-2.75,16.07,16.07,0,0,1-1.18-4.41A43.6,43.6,0,0,1,0,189.22a33.12,33.12,0,0,1,.55-6.55,15,15,0,0,1,1.5-4.35,6.27,6.27,0,0,1,2.22-2.41A5.38,5.38,0,0,1,7,175.16a5.82,5.82,0,0,1,3.4.89,5.73,5.73,0,0,1,1.94,2.34,10.35,10.35,0,0,1,.85,3.27,35.61,35.61,0,0,1,.19,3.69Z"/><path class="cls-1" d="M15.69,175.69h4.94v10.87h3.12V175.69h4.94v27.06H23.75V191.27H20.63v11.48H15.69Z"/><path class="cls-1" d="M31.5,175.69H37a12,12,0,0,1,3.19.4,6.1,6.1,0,0,1,2.47,1.31,6,6,0,0,1,1.6,2.38,9.93,9.93,0,0,1,.57,3.59,13.2,13.2,0,0,1-.13,1.82,8.76,8.76,0,0,1-.48,1.86,7,7,0,0,1-.89,1.67A4.54,4.54,0,0,1,42,190l2.93,12.77h-5l-2.32-11.63H36.44v11.63H31.5Zm4.94,11.48h1a2,2,0,0,0,1.16-.32,2.6,2.6,0,0,0,.78-.84,3.73,3.73,0,0,0,.44-1.2,7.36,7.36,0,0,0,.13-1.41,4.42,4.42,0,0,0-.74-3,2.63,2.63,0,0,0-2-.78h-.76Z"/><path class="cls-1" d="M46.68,175.69h4.94v27.06H46.68Z"/><path class="cls-1" d="M58,194.92c0,.38,0,.81,0,1.29a5.9,5.9,0,0,0,.23,1.37,2.49,2.49,0,0,0,.63,1.08,1.67,1.67,0,0,0,1.23.44,2,2,0,0,0,1-.25,2.1,2.1,0,0,0,.68-.65,2.72,2.72,0,0,0,.38-.86,3.6,3.6,0,0,0,.11-.87,3.69,3.69,0,0,0-.67-2.17A10.48,10.48,0,0,0,60,192.49q-1-.87-2.17-1.79a15.08,15.08,0,0,1-2.17-2.05A10.6,10.6,0,0,1,54,186a8.48,8.48,0,0,1-.67-3.5,9.63,9.63,0,0,1,.42-2.87A7,7,0,0,1,55,177.32a5.86,5.86,0,0,1,2-1.58,6.86,6.86,0,0,1,5.6,0,5.17,5.17,0,0,1,1.92,1.69,7.73,7.73,0,0,1,1.1,2.6,15.94,15.94,0,0,1,.4,3.34H61.59q0-.57,0-1.27a6.37,6.37,0,0,0-.21-1.33,2.31,2.31,0,0,0-.59-1,1.54,1.54,0,0,0-1.14-.42,1.59,1.59,0,0,0-1.37.68,3,3,0,0,0-.49,1.79,3.56,3.56,0,0,0,.67,2.09,11,11,0,0,0,1.65,1.84q1,.89,2.17,1.84a15.68,15.68,0,0,1,2.17,2.13,11.36,11.36,0,0,1,1.65,2.66,8.39,8.39,0,0,1,.67,3.46,9.39,9.39,0,0,1-.44,2.91A6.86,6.86,0,0,1,65,201.09a6.11,6.11,0,0,1-2.13,1.6,7,7,0,0,1-2.95.59,5.94,5.94,0,0,1-3.21-.78,5.7,5.7,0,0,1-1.94-2,7.94,7.94,0,0,1-1-2.7,17.5,17.5,0,0,1-.25-2.89Z"/><path class="cls-1" d="M71.06,179.87H66.8v-4.18H80.26v4.18H76v22.88H71.06Z"/><path class="cls-1" d="M81.38,175.69H88l2.2,13.87h.08l2.32-13.87H99v27.06H94.57V182.91h-.08l-3.34,19.84H88.41l-3.31-19.84H85v19.84H81.38Z"/><path class="cls-1" d="M104.19,175.69h7.14l3.34,27.06h-4.75l-.72-6h-4l-.68,6h-4.14Zm3.15,4.18h-.08l-1.56,12.92h3.08Z"/><path class="cls-1" d="M119.76,194.92c0,.38,0,.81,0,1.29a5.9,5.9,0,0,0,.23,1.37,2.49,2.49,0,0,0,.63,1.08,1.67,1.67,0,0,0,1.23.44,2,2,0,0,0,1-.25,2.1,2.1,0,0,0,.68-.65,2.72,2.72,0,0,0,.38-.86,3.6,3.6,0,0,0,.11-.87,3.69,3.69,0,0,0-.67-2.17,10.48,10.48,0,0,0-1.65-1.82q-1-.87-2.17-1.79a15.08,15.08,0,0,1-2.17-2.05,10.6,10.6,0,0,1-1.65-2.62,8.48,8.48,0,0,1-.67-3.5,9.63,9.63,0,0,1,.42-2.87,7,7,0,0,1,1.22-2.34,5.86,5.86,0,0,1,2-1.58,6.86,6.86,0,0,1,5.6,0,5.17,5.17,0,0,1,1.92,1.69,7.73,7.73,0,0,1,1.1,2.6,15.94,15.94,0,0,1,.4,3.34h-4.41q0-.57,0-1.27a6.37,6.37,0,0,0-.21-1.33,2.31,2.31,0,0,0-.59-1,1.54,1.54,0,0,0-1.14-.42A1.59,1.59,0,0,0,120,180a3,3,0,0,0-.49,1.79,3.56,3.56,0,0,0,.67,2.09,11,11,0,0,0,1.65,1.84q1,.89,2.17,1.84a15.68,15.68,0,0,1,2.17,2.13,11.36,11.36,0,0,1,1.65,2.66,8.39,8.39,0,0,1,.67,3.46,9.39,9.39,0,0,1-.44,2.91,6.86,6.86,0,0,1-1.29,2.36,6.11,6.11,0,0,1-2.13,1.6,7,7,0,0,1-2.95.59,5.94,5.94,0,0,1-3.21-.78,5.7,5.7,0,0,1-1.94-2,7.94,7.94,0,0,1-1-2.7,17.5,17.5,0,0,1-.25-2.89Z"/><path class="cls-1" d="M137.61,175.69h4.94v27.06h-4.94Z"/><path class="cls-1" d="M148.92,194.92c0,.38,0,.81,0,1.29a5.9,5.9,0,0,0,.23,1.37,2.49,2.49,0,0,0,.63,1.08,1.67,1.67,0,0,0,1.23.44,2,2,0,0,0,1-.25,2.1,2.1,0,0,0,.68-.65,2.72,2.72,0,0,0,.38-.86,3.6,3.6,0,0,0,.11-.87,3.69,3.69,0,0,0-.67-2.17,10.48,10.48,0,0,0-1.65-1.82q-1-.87-2.17-1.79a15.08,15.08,0,0,1-2.17-2.05,10.6,10.6,0,0,1-1.65-2.62,8.48,8.48,0,0,1-.67-3.5,9.63,9.63,0,0,1,.42-2.87,7,7,0,0,1,1.22-2.34,5.86,5.86,0,0,1,2-1.58,6.86,6.86,0,0,1,5.6,0,5.17,5.17,0,0,1,1.92,1.69,7.73,7.73,0,0,1,1.1,2.6,15.94,15.94,0,0,1,.4,3.34h-4.41q0-.57,0-1.27a6.37,6.37,0,0,0-.21-1.33,2.31,2.31,0,0,0-.59-1,1.54,1.54,0,0,0-1.14-.42,1.59,1.59,0,0,0-1.37.68,3,3,0,0,0-.49,1.79,3.56,3.56,0,0,0,.67,2.09,11,11,0,0,0,1.65,1.84q1,.89,2.17,1.84a15.68,15.68,0,0,1,2.17,2.13,11.36,11.36,0,0,1,1.65,2.66,8.39,8.39,0,0,1,.67,3.46,9.39,9.39,0,0,1-.44,2.91,6.86,6.86,0,0,1-1.29,2.36,6.11,6.11,0,0,1-2.13,1.6,7,7,0,0,1-2.95.59,5.94,5.94,0,0,1-3.21-.78,5.7,5.7,0,0,1-1.94-2,7.94,7.94,0,0,1-1-2.7,17.5,17.5,0,0,1-.25-2.89Z"/><path class="cls-1" d="M169.4,175.69h7.14l3.34,27.06h-4.75l-.72-6h-4l-.68,6H165.6Zm3.15,4.18h-.08l-1.56,12.92H174Z"/><path class="cls-1" d="M181.42,175.69h4.94v22.88h6.31v4.18H181.42Z"/><path class="cls-1" d="M194.34,175.69h4.94v22.88h6.31v4.18H194.34Z"/><path class="cls-1" d="M217.52,175.69h7.14L228,202.75h-4.75l-.72-6h-4l-.68,6h-4.14Zm3.15,4.18h-.08L219,192.79h3.08Z"/><path class="cls-1" d="M229.54,175.69h6.08a8.26,8.26,0,0,1,2.32.34,6,6,0,0,1,2.15,1.14,6.07,6.07,0,0,1,1.6,2.11,7.51,7.51,0,0,1,.63,3.25,7,7,0,0,1-1.06,3.91,5.06,5.06,0,0,1-3.34,2.13v.08a6.1,6.1,0,0,1,3.74,2.3,7.22,7.22,0,0,1,1.2,4.27,8.41,8.41,0,0,1-.59,3.27,7.09,7.09,0,0,1-1.56,2.36,6.36,6.36,0,0,1-2.22,1.43,7.35,7.35,0,0,1-2.62.47h-6.31Zm4.94,11.1a2.9,2.9,0,0,0,2.49-.87,4.66,4.66,0,0,0,.63-2.7,10.64,10.64,0,0,0-.13-1.86,2.13,2.13,0,0,0-.49-1.1,1.74,1.74,0,0,0-1-.49,8.45,8.45,0,0,0-1.52-.11Zm0,12a5.8,5.8,0,0,0,1.79-.23,2.11,2.11,0,0,0,1-.7,2.66,2.66,0,0,0,.48-1.24,12.55,12.55,0,0,0,.11-1.82,9.06,9.06,0,0,0-.13-1.63,2.8,2.8,0,0,0-.51-1.22,2.29,2.29,0,0,0-1-.74,5.07,5.07,0,0,0-1.73-.25Z"/><path class="cls-1" d="M244.07,189.22a36.63,36.63,0,0,1,.51-6.69A13.83,13.83,0,0,1,246,178.2a5.87,5.87,0,0,1,2.28-2.34,6.6,6.6,0,0,1,5.93,0,5.88,5.88,0,0,1,2.28,2.34,13.84,13.84,0,0,1,1.46,4.33,43.88,43.88,0,0,1,0,13.38,13.83,13.83,0,0,1-1.46,4.33,5.88,5.88,0,0,1-2.28,2.34,6.6,6.6,0,0,1-5.93,0,5.87,5.87,0,0,1-2.28-2.34,13.82,13.82,0,0,1-1.46-4.33A36.65,36.65,0,0,1,244.07,189.22Zm5.4,2.85q0,2.2.13,3.57a12.18,12.18,0,0,0,.36,2.15,2,2,0,0,0,.57,1,1.22,1.22,0,0,0,1.52,0,2,2,0,0,0,.57-1,12.23,12.23,0,0,0,.36-2.15q.13-1.37.13-3.57v-5.7q0-2.2-.13-3.57a11.76,11.76,0,0,0-.36-2.13,2.16,2.16,0,0,0-.57-1,1.15,1.15,0,0,0-1.52,0,2.16,2.16,0,0,0-.57,1,11.72,11.72,0,0,0-.36,2.13q-.13,1.37-.13,3.57Z"/><path class="cls-1" d="M260.51,175.69h4.94v20.94a6.89,6.89,0,0,0,.06.89,2.33,2.33,0,0,0,.25.8,1.43,1.43,0,0,0,.53.57,1.65,1.65,0,0,0,.87.21,1.47,1.47,0,0,0,1.43-.74,3.59,3.59,0,0,0,.4-1.73V175.69h4.18V196q0,4-1.67,5.64a6.3,6.3,0,0,1-4.64,1.65,8,8,0,0,1-2.6-.4,5,5,0,0,1-2-1.25,5.68,5.68,0,0,1-1.29-2.24,11,11,0,0,1-.46-3.4Z"/><path class="cls-1" d="M278.55,179.87H274.3v-4.18h13.45v4.18h-4.26v22.88h-4.94Z"/><path class="cls-1" d="M296.34,175.69h4.94v22.88h6.31v4.18H296.34Z"/><path class="cls-1" d="M308.36,189.22a36.63,36.63,0,0,1,.51-6.69,13.83,13.83,0,0,1,1.46-4.33,5.87,5.87,0,0,1,2.28-2.34,6.6,6.6,0,0,1,5.93,0,5.88,5.88,0,0,1,2.28,2.34,13.84,13.84,0,0,1,1.46,4.33,43.88,43.88,0,0,1,0,13.38,13.83,13.83,0,0,1-1.46,4.33,5.88,5.88,0,0,1-2.28,2.34,6.6,6.6,0,0,1-5.93,0,5.87,5.87,0,0,1-2.28-2.34,13.82,13.82,0,0,1-1.46-4.33A36.65,36.65,0,0,1,308.36,189.22Zm5.4,2.85q0,2.2.13,3.57a12.18,12.18,0,0,0,.36,2.15,2,2,0,0,0,.57,1,1.22,1.22,0,0,0,1.52,0,2,2,0,0,0,.57-1,12.23,12.23,0,0,0,.36-2.15q.13-1.37.13-3.57v-5.7q0-2.2-.13-3.57a11.76,11.76,0,0,0-.36-2.13,2.16,2.16,0,0,0-.57-1,1.15,1.15,0,0,0-1.52,0,2.16,2.16,0,0,0-.57,1,11.72,11.72,0,0,0-.36,2.13q-.13,1.37-.13,3.57Z"/><path class="cls-1" d="M323.21,175.69H328l2.32,19h.08l2.55-19h4l-4.07,27.06h-5.66Z"/><path class="cls-1" d="M338.46,175.69h11.17v4.18H343.4v6.92H348v4.41h-4.6v7.37h6.5v4.18H338.46Z"/><path class="cls-1" d="M351.85,197.8h4.94v4.94h-4.94Z"/><path class="cls-1" d="M370.36,194.92c0,.38,0,.81,0,1.29a5.9,5.9,0,0,0,.23,1.37,2.49,2.49,0,0,0,.63,1.08,1.67,1.67,0,0,0,1.23.44,2,2,0,0,0,1-.25,2.1,2.1,0,0,0,.68-.65,2.72,2.72,0,0,0,.38-.86,3.61,3.61,0,0,0,.11-.87,3.69,3.69,0,0,0-.67-2.17,10.49,10.49,0,0,0-1.65-1.82q-1-.87-2.17-1.79a15.06,15.06,0,0,1-2.17-2.05,10.61,10.61,0,0,1-1.65-2.62,8.48,8.48,0,0,1-.67-3.5,9.64,9.64,0,0,1,.42-2.87,7,7,0,0,1,1.22-2.34,5.85,5.85,0,0,1,2-1.58,6.87,6.87,0,0,1,5.61,0,5.17,5.17,0,0,1,1.92,1.69,7.72,7.72,0,0,1,1.1,2.6,15.91,15.91,0,0,1,.4,3.34H374q0-.57,0-1.27a6.34,6.34,0,0,0-.21-1.33,2.31,2.31,0,0,0-.59-1,1.54,1.54,0,0,0-1.14-.42,1.59,1.59,0,0,0-1.37.68,3,3,0,0,0-.49,1.79,3.57,3.57,0,0,0,.67,2.09,11,11,0,0,0,1.65,1.84q1,.89,2.17,1.84a15.67,15.67,0,0,1,2.17,2.13,11.34,11.34,0,0,1,1.65,2.66,8.38,8.38,0,0,1,.67,3.46,9.39,9.39,0,0,1-.44,2.91,6.87,6.87,0,0,1-1.29,2.36,6.12,6.12,0,0,1-2.13,1.6,7,7,0,0,1-2.95.59,5.94,5.94,0,0,1-3.21-.78,5.7,5.7,0,0,1-1.94-2,7.94,7.94,0,0,1-1-2.7,17.5,17.5,0,0,1-.25-2.89Z"/><path class="cls-1" d="M380.75,175.69h11.17v4.18h-6.23v6.92h4.6v4.41h-4.6v7.37h6.5v4.18H380.75Z"/><path class="cls-1" d="M393.77,175.69h4.94v22.88H405v4.18H393.77Z"/><path class="cls-1" d="M406.7,175.69h11.06v4.18h-6.12v7.22h4.52v4.41h-4.52v11.25H406.7Z"/><path class="cls-1" d="M418,190.66h7.52v3.65H418Z"/><path class="cls-1" d="M427.83,175.69h4.94v22.88h6.31v4.18H427.83Z"/><path class="cls-1" d="M439.85,189.22a36.63,36.63,0,0,1,.51-6.69,13.83,13.83,0,0,1,1.46-4.33,5.87,5.87,0,0,1,2.28-2.34,6.6,6.6,0,0,1,5.93,0,5.88,5.88,0,0,1,2.28,2.34,13.84,13.84,0,0,1,1.46,4.33,43.88,43.88,0,0,1,0,13.38,13.83,13.83,0,0,1-1.46,4.33,5.88,5.88,0,0,1-2.28,2.34,6.6,6.6,0,0,1-5.93,0,5.87,5.87,0,0,1-2.28-2.34,13.82,13.82,0,0,1-1.46-4.33A36.65,36.65,0,0,1,439.85,189.22Zm5.4,2.85q0,2.2.13,3.57a12.18,12.18,0,0,0,.36,2.15,2,2,0,0,0,.57,1,1.22,1.22,0,0,0,1.52,0,2,2,0,0,0,.57-1,12.23,12.23,0,0,0,.36-2.15q.13-1.37.13-3.57v-5.7q0-2.2-.13-3.57a11.76,11.76,0,0,0-.36-2.13,2.16,2.16,0,0,0-.57-1,1.15,1.15,0,0,0-1.52,0,2.16,2.16,0,0,0-.57,1,11.72,11.72,0,0,0-.36,2.13q-.13,1.37-.13,3.57Z"/><path class="cls-1" d="M454.7,175.69h4.83l2.32,19h.08l2.55-19h4l-4.07,27.06h-5.66Z"/><path class="cls-1" d="M470,175.69h11.17v4.18h-6.23v6.92h4.6v4.41h-4.6v7.37h6.5v4.18H470Z"/><path class="cls-1" d="M483.34,197.8h4.94v4.94h-4.94Z"/></g></g></svg>