<svg xmlns="http://www.w3.org/2000/svg" viewBox="0 0 794.25 284.08"><defs><style>.logo-fill{fill:#da2128;}</style></defs><title>Logo</title><g id="Layer_2" data-name="Layer 2"><g id="Layer_1-2" data-name="Layer 1"><ellipse class="logo-fill" cx="136.04" cy="142.04" rx="136.04" ry="142.04"/><path class="logo-fill" d="M793.94,88.69C793.94,49.07,760.12,0,711.51,0s-64.3,42-64.3,42S631.53,0,582.91,0s-82.43,49-82.43,88.64c0,0-14,89.13,146.73,195.39C808,177.83,793.94,88.69,793.94,88.69Z"/><path class="logo-fill" d="M477.28,219c6.76-9.89,11.1-20.12,14.22-28.27,3.68-9.61,5.9-19.89,7.73-34.58H453.85c-.44,3.44-1.31,8.25-2.15,12A85.75,85.75,0,0,1,447,183l-39.63-50.83c14.49-8.7,26.65-20.21,34.15-30.42s11.24-23.52,11.24-39.92q0-27.24-18.74-44.74C421.54,5.45,407.43,0,388.29,0c-21,0-36.1,5.71-49.26,17.11s-19.74,27.23-19.74,47.5a71.49,71.49,0,0,0,6.32,29.46c4.21,9.44,8.25,18.68,16,27.74l-5.6,3.58c-18.06,11.7-27.31,23.52-35.26,35.46s-11.92,26.28-11.92,43q0,30.37,23,55.27c15.34,16.6,32.88,24.9,60.15,24.9q27.21,0,48-11.19,11.68-6.25,25.2-19.34l18.52,23.55H523.9ZM374.06,44.19a24.17,24.17,0,0,1,13.3-4q11.43,0,17,6.8A23.65,23.65,0,0,1,410,62.52q0,11.91-9.37,22.11-4.87,5.48-16.11,13.42-11.24-14-14.61-19.46-5.25-8.31-5.25-15.87Q364.69,50.05,374.06,44.19Zm25.59,188.75A51.43,51.43,0,0,1,375.3,239q-17.1,0-28-11.52t-10.94-25.3a41.88,41.88,0,0,1,6.31-22.47q6.31-10.2,25.86-23.61l49.81,63.32A72.62,72.62,0,0,1,399.65,232.94Z"/></g></g></svg>
