<svg xmlns="http://www.w3.org/2000/svg" viewBox="0 0 736.45 688.71"><defs><style>.cls-1{fill:#da2128;}</style></defs><title>MS</title><g id="Layer_2" data-name="Layer 2"><g id="Layer_1-2" data-name="Layer 1"><rect class="cls-1" x="0.59" y="71.06" width="349.57" height="16.93"/><path class="cls-1" d="M.45.89H11.5l3.71,23.32h.13L19.23.89H30V46.39H22.62V13h-.13L16.87,46.39h-4.6L6.71,13H6.58V46.39H.45Z"/><path class="cls-1" d="M33.9,38.08H42.2v8.31H33.9Z"/><path class="cls-1" d="M52,33.23q0,1,.06,2.17a9.93,9.93,0,0,0,.38,2.3,4.18,4.18,0,0,0,1.05,1.82,2.81,2.81,0,0,0,2.08.74,3.34,3.34,0,0,0,1.73-.42,3.53,3.53,0,0,0,1.15-1.09,4.59,4.59,0,0,0,.64-1.44,6,6,0,0,0,.19-1.47A6.2,6.2,0,0,0,58.2,32.2a17.68,17.68,0,0,0-2.78-3.07q-1.66-1.47-3.64-3a25.27,25.27,0,0,1-3.64-3.45,17.76,17.76,0,0,1-2.78-4.41,14.25,14.25,0,0,1-1.12-5.88,16.2,16.2,0,0,1,.7-4.82,11.68,11.68,0,0,1,2-3.93A9.83,9.83,0,0,1,50.34,1a11.54,11.54,0,0,1,9.42,0A8.66,8.66,0,0,1,63,3.87a13,13,0,0,1,1.85,4.38,26.82,26.82,0,0,1,.67,5.62H58.11q0-1-.06-2.14a10.72,10.72,0,0,0-.35-2.24,3.88,3.88,0,0,0-1-1.76A2.6,2.6,0,0,0,54.78,7a2.68,2.68,0,0,0-2.3,1.15,5,5,0,0,0-.83,3,6,6,0,0,0,1.12,3.51,18.46,18.46,0,0,0,2.78,3.1q1.66,1.5,3.64,3.1a26.45,26.45,0,0,1,3.64,3.58,19.1,19.1,0,0,1,2.78,4.47,14.11,14.11,0,0,1,1.12,5.81A15.78,15.78,0,0,1,66,39.65a11.53,11.53,0,0,1-2.17,4,10.29,10.29,0,0,1-3.58,2.68,11.68,11.68,0,0,1-5,1A10,10,0,0,1,49.9,46a9.62,9.62,0,0,1-3.26-3.35A13.37,13.37,0,0,1,45,38.08a29.46,29.46,0,0,1-.42-4.86Z"/><path class="cls-1" d="M69,38.08h8.31v8.31H69Z"/><path class="cls-1" d="M94.45.89h8.31v19h.13l6.9-19h7.41L111,16.17l7.48,30.22h-8L105.89,26h-.13l-3,7.16V46.39H94.45Z"/><path class="cls-1" d="M118.54,23.64a61.62,61.62,0,0,1,.86-11.25,23.26,23.26,0,0,1,2.46-7.28,9.88,9.88,0,0,1,3.83-3.93,11.09,11.09,0,0,1,10,0,9.89,9.89,0,0,1,3.83,3.93A23.28,23.28,0,0,1,142,12.4a61.57,61.57,0,0,1,.86,11.25A61.55,61.55,0,0,1,142,34.89a23.25,23.25,0,0,1-2.46,7.28,9.88,9.88,0,0,1-3.83,3.93,11.1,11.1,0,0,1-10,0,9.87,9.87,0,0,1-3.83-3.93,23.24,23.24,0,0,1-2.46-7.28A61.6,61.6,0,0,1,118.54,23.64Zm9.07,4.79q0,3.71.22,6a20.53,20.53,0,0,0,.61,3.61,3.43,3.43,0,0,0,1,1.76,2,2,0,0,0,2.56,0,3.42,3.42,0,0,0,1-1.76,20.53,20.53,0,0,0,.61-3.61q.22-2.3.22-6V18.85q0-3.71-.22-6a19.74,19.74,0,0,0-.61-3.58,3.62,3.62,0,0,0-1-1.76,1.94,1.94,0,0,0-2.56,0,3.63,3.63,0,0,0-1,1.76,19.74,19.74,0,0,0-.61,3.58q-.22,2.3-.22,6Z"/><path class="cls-1" d="M150.17,7.92H143v-7h22.62v7h-7.16V46.39h-8.31Z"/><path class="cls-1" d="M169.82.89h12l5.62,45.49h-8l-1.21-10.1h-6.71l-1.15,10.1h-7Zm5.3,7H175l-2.62,21.72h5.18Z"/><path class="cls-1" d="M189.49.89h8.31V46.39h-8.31Z"/><path class="cls-1" d="M206.53,7.92h-7.16v-7H222v7h-7.16V46.39h-8.31Z"/><path class="cls-1" d="M247.42,0h5.75L238.86,47.28h-5.62Z"/><path class="cls-1" d="M271.83.89h12l5.62,45.49h-8l-1.21-10.1h-6.71l-1.15,10.1h-7Zm5.3,7H277l-2.62,21.72h5.18Z"/><path class="cls-1" d="M291.65.89H301a20.13,20.13,0,0,1,5.37.67,10.27,10.27,0,0,1,4.15,2.2,10.17,10.17,0,0,1,2.68,4,16.69,16.69,0,0,1,1,6,22.14,22.14,0,0,1-.22,3.07,14.71,14.71,0,0,1-.8,3.13,11.88,11.88,0,0,1-1.5,2.81,7.63,7.63,0,0,1-2.33,2.11l4.92,21.47h-8.37l-3.9-19.55h-2V46.39h-8.31ZM300,20.19h1.66a3.38,3.38,0,0,0,1.95-.54,4.37,4.37,0,0,0,1.31-1.41,6.29,6.29,0,0,0,.73-2,12.37,12.37,0,0,0,.22-2.36q0-3.7-1.25-5a4.41,4.41,0,0,0-3.35-1.31H300Z"/><path class="cls-1" d="M321.8,7.92h-7.16v-7h22.62v7H330.1V46.39H321.8Z"/><path class="cls-1" d="M10.36,149.3H29.85L39,221.63H26l-2-16.05H13.16L11.3,221.63H0ZM19,160.47h-.21L14.51,195H22.9Z"/><path class="cls-1" d="M63.52,149.3H81.45l6,37.08h.21L94,149.3H111.5v72.34h-12v-53h-.21l-9.12,53H82.69l-9-53h-.21v53H63.52Z"/><path class="cls-1" d="M117.8,149.3h13.47v56a18.08,18.08,0,0,0,.16,2.39,6.16,6.16,0,0,0,.67,2.13,3.86,3.86,0,0,0,1.45,1.52,4.57,4.57,0,0,0,2.38.56,4,4,0,0,0,3.89-2,9.45,9.45,0,0,0,1.09-4.62v-56h11.4v54.25q0,10.67-4.56,15.09t-12.64,4.42A22.12,22.12,0,0,1,128,222a13.79,13.79,0,0,1-5.44-3.35,15.13,15.13,0,0,1-3.52-6,28.85,28.85,0,0,1-1.24-9.09Z"/><path class="cls-1" d="M158.88,149.3h13.47v61.16h17.2v11.18H158.88Z"/><path class="cls-1" d="M196.08,160.47H184.47V149.3h36.68v11.18H209.55v61.16H196.08Z"/><path class="cls-1" d="M223.47,149.3h13.47v72.34H223.47Z"/><path class="cls-1" d="M242.33,189.33h20.52v9.75H242.33Z"/><path class="cls-1" d="M268.45,149.3h11.71q8.5,0,13.42,2.59A17.51,17.51,0,0,1,301,159.2a30.38,30.38,0,0,1,3.21,11.38q.67,6.66.67,14.88,0,7.82-.62,14.48a34.26,34.26,0,0,1-2.9,11.48,17,17,0,0,1-6.79,7.52q-4.51,2.69-12.28,2.69H268.45Zm13.47,61.16a11.55,11.55,0,0,0,5-.86,5.6,5.6,0,0,0,2.64-3.5,29.1,29.1,0,0,0,1.09-7.57q.21-4.93.21-13.16t-.21-13.11a28.23,28.23,0,0,0-1.09-7.47,5.59,5.59,0,0,0-2.64-3.45,11.58,11.58,0,0,0-5-.86Z"/><path class="cls-1" d="M310.37,149.3h13.47v72.34H310.37Z"/><path class="cls-1" d="M340.41,200.71q0,1.52.1,3.45a15.46,15.46,0,0,0,.62,3.66,6.62,6.62,0,0,0,1.71,2.9,4.6,4.6,0,0,0,3.37,1.17,5.5,5.5,0,0,0,2.8-.66,5.65,5.65,0,0,0,1.87-1.73,7.23,7.23,0,0,0,1-2.29,9.44,9.44,0,0,0,.31-2.34,9.73,9.73,0,0,0-1.81-5.79,28.27,28.27,0,0,0-4.51-4.88q-2.7-2.34-5.91-4.78a40.72,40.72,0,0,1-5.91-5.49,28.22,28.22,0,0,1-4.51-7,22.28,22.28,0,0,1-1.81-9.35,25.27,25.27,0,0,1,1.14-7.67,18.46,18.46,0,0,1,3.32-6.25,15.89,15.89,0,0,1,5.44-4.22,19.06,19.06,0,0,1,15.29.05,14,14,0,0,1,5.23,4.52,20.48,20.48,0,0,1,3,7,41.82,41.82,0,0,1,1.09,8.94h-12q0-1.52-.1-3.4a16.66,16.66,0,0,0-.57-3.56,6.13,6.13,0,0,0-1.61-2.79,4.25,4.25,0,0,0-3.11-1.12,4.37,4.37,0,0,0-3.73,1.83,7.85,7.85,0,0,0-1.35,4.78,9.4,9.4,0,0,0,1.81,5.59,29.55,29.55,0,0,0,4.51,4.93q2.69,2.39,5.91,4.93a42.37,42.37,0,0,1,5.91,5.69,30.28,30.28,0,0,1,4.51,7.11,22.05,22.05,0,0,1,1.81,9.25,24.65,24.65,0,0,1-1.19,7.77,18.22,18.22,0,0,1-3.52,6.3,16.65,16.65,0,0,1-5.8,4.27,19.28,19.28,0,0,1-8,1.57,16.45,16.45,0,0,1-8.76-2.08,15.42,15.42,0,0,1-5.29-5.33,21,21,0,0,1-2.59-7.21,45.9,45.9,0,0,1-.67-7.72Z"/><path class="cls-1" d="M391,175.51q0-9-1.19-12.75T386.15,159a3.82,3.82,0,0,0-2.07.66q-1,.66-1.81,3.3a43.84,43.84,0,0,0-1.24,7.92q-.47,5.29-.47,14.53,0,8.94.31,14.17a52.7,52.7,0,0,0,.93,8q.62,2.74,1.71,3.5a4.49,4.49,0,0,0,2.64.76q3.32,0,4.4-4.62a64.62,64.62,0,0,0,1.3-12.55l11.4.51a92.77,92.77,0,0,1-.52,9.7,28,28,0,0,1-2.38,8.94,17.09,17.09,0,0,1-5.34,6.6q-3.47,2.59-9.38,2.59a15.59,15.59,0,0,1-9.07-2.54,17.67,17.67,0,0,1-5.91-7.37,42.31,42.31,0,0,1-3.21-11.79,114.32,114.32,0,0,1-1-15.9,86.89,86.89,0,0,1,1.5-17.53,39.51,39.51,0,0,1,4.09-11.63,16.91,16.91,0,0,1,6.06-6.45,14.91,14.91,0,0,1,7.51-2q5.8,0,9.27,2.39a15.39,15.39,0,0,1,5.29,6.25,27.23,27.23,0,0,1,2.33,8.74,93.41,93.41,0,0,1,.52,9.85Z"/><path class="cls-1" d="M408.27,149.3h13.47v72.34H408.27Z"/><path class="cls-1" d="M428.38,149.3h13.47q11.4,0,17.31,5t5.91,16.66a37.36,37.36,0,0,1-1,8.89,18.32,18.32,0,0,1-3.16,6.86,14.69,14.69,0,0,1-5.54,4.42,19.07,19.07,0,0,1-8.13,1.58h-5.39v29H428.38ZM442,182.11h1.14a12.91,12.91,0,0,0,3.63-.46,5.6,5.6,0,0,0,2.64-1.68,8.12,8.12,0,0,0,1.66-3.35,21.34,21.34,0,0,0,.57-5.38,19.89,19.89,0,0,0-.73-6.1,7.42,7.42,0,0,0-1.92-3.2,5,5,0,0,0-2.75-1.27,24.91,24.91,0,0,0-3.21-.2h-1Z"/><path class="cls-1" d="M467.81,149.3h13.47v61.16h17.2v11.18H467.81Z"/><path class="cls-1" d="M502,149.3h13.47v72.34H502Z"/><path class="cls-1" d="M521.85,149.3H535l12.33,38.2h.21V149.3h10.78v72.34H547.86l-14.4-43.79h-.21v43.79h-11.4Z"/><path class="cls-1" d="M571.81,149.3h19.48l9.12,72.34h-13l-2-16.05H574.61l-1.87,16.05h-11.3Zm8.6,11.18h-.21L576,195h8.39Z"/><path class="cls-1" d="M603.77,149.3H618.9a33.28,33.28,0,0,1,8.7,1.07,16.76,16.76,0,0,1,6.74,3.51,16.17,16.17,0,0,1,4.35,6.35,26.09,26.09,0,0,1,1.55,9.6,34.52,34.52,0,0,1-.36,4.88,23.06,23.06,0,0,1-1.29,5,18.79,18.79,0,0,1-2.44,4.47,12.31,12.31,0,0,1-3.78,3.35l8,34.14H626.77l-6.32-31.09h-3.21v31.09H603.77ZM617.24,180h2.69a5.57,5.57,0,0,0,3.16-.86,7,7,0,0,0,2.12-2.23,9.88,9.88,0,0,0,1.19-3.2,19.32,19.32,0,0,0,.36-3.76q0-5.89-2-8a7.24,7.24,0,0,0-5.44-2.08h-2.07Z"/><path class="cls-1" d="M651.34,193.69,639,149.3h13.37l6.42,28.35H659l6.84-28.35h11.3l-12.33,43.18v29.16H651.34Z"/><path class="cls-1" d="M3.73,242.43H15.44q8.5,0,13.42,2.59a17.51,17.51,0,0,1,7.46,7.31,30.38,30.38,0,0,1,3.21,11.38q.67,6.66.67,14.88,0,7.82-.62,14.48a34.26,34.26,0,0,1-2.9,11.48,17,17,0,0,1-6.79,7.52q-4.51,2.69-12.28,2.69H3.73ZM17.2,303.59a11.55,11.55,0,0,0,5-.86,5.6,5.6,0,0,0,2.64-3.5,29.1,29.1,0,0,0,1.09-7.57q.21-4.93.21-13.16t-.21-13.11a28.23,28.23,0,0,0-1.09-7.47,5.59,5.59,0,0,0-2.64-3.45,11.58,11.58,0,0,0-5-.86Z"/><path class="cls-1" d="M45.8,242.43H76.27V253.6h-17v18.49H71.81v11.79H59.28v19.71H77v11.18H45.8Z"/><path class="cls-1" d="M90.86,293.84q0,1.52.1,3.45a15.46,15.46,0,0,0,.62,3.66,6.62,6.62,0,0,0,1.71,2.9A4.6,4.6,0,0,0,96.66,305a5.5,5.5,0,0,0,2.8-.66,5.65,5.65,0,0,0,1.87-1.73,7.23,7.23,0,0,0,1-2.29,9.44,9.44,0,0,0,.31-2.34,9.73,9.73,0,0,0-1.81-5.79,28.27,28.27,0,0,0-4.51-4.88q-2.7-2.34-5.91-4.78a40.72,40.72,0,0,1-5.91-5.49,28.22,28.22,0,0,1-4.51-7,22.28,22.28,0,0,1-1.81-9.35A25.27,25.27,0,0,1,79.36,253a18.46,18.46,0,0,1,3.32-6.25,15.89,15.89,0,0,1,5.44-4.22,19.06,19.06,0,0,1,15.29.05,14,14,0,0,1,5.23,4.52,20.48,20.48,0,0,1,3,7,41.82,41.82,0,0,1,1.09,8.94h-12q0-1.52-.1-3.4a16.66,16.66,0,0,0-.57-3.56,6.13,6.13,0,0,0-1.61-2.79,4.25,4.25,0,0,0-3.11-1.12A4.37,4.37,0,0,0,91.59,254a7.85,7.85,0,0,0-1.35,4.78,9.4,9.4,0,0,0,1.81,5.59,29.55,29.55,0,0,0,4.51,4.93q2.69,2.39,5.91,4.93a42.37,42.37,0,0,1,5.91,5.69,30.28,30.28,0,0,1,4.51,7.11,22.05,22.05,0,0,1,1.81,9.25A24.65,24.65,0,0,1,113.5,304a18.22,18.22,0,0,1-3.52,6.3,16.65,16.65,0,0,1-5.8,4.27,19.28,19.28,0,0,1-8,1.57,16.45,16.45,0,0,1-8.76-2.08,15.42,15.42,0,0,1-5.29-5.33,21,21,0,0,1-2.59-7.21,45.9,45.9,0,0,1-.67-7.72Z"/><path class="cls-1" d="M118.09,242.43h13.47v72.34H118.09Z"/><path class="cls-1" d="M161.45,268.23q0-1.22.05-3.91a31.5,31.5,0,0,0-.36-5.38,15.62,15.62,0,0,0-1.45-4.72,3.4,3.4,0,0,0-3.21-2,3.69,3.69,0,0,0-2.33.86,7.13,7.13,0,0,0-1.87,3.61,43.53,43.53,0,0,0-1.19,7.92q-.42,5.18-.41,13.92,0,8.94.41,14.17a40,40,0,0,0,1.24,8,6.52,6.52,0,0,0,2,3.56,4.75,4.75,0,0,0,2.75.81,3.51,3.51,0,0,0,3-1.63,11,11,0,0,0,1.66-3.81,27.38,27.38,0,0,0,.67-4.42q.16-2.23.16-3.56h-5V281H174v33.73h-5.7L166.43,310a16.07,16.07,0,0,1-4.35,4.27,10.88,10.88,0,0,1-6.32,1.93,15.59,15.59,0,0,1-9.07-2.54,17.67,17.67,0,0,1-5.91-7.37,42.31,42.31,0,0,1-3.21-11.79,114.32,114.32,0,0,1-1-15.9,86.89,86.89,0,0,1,1.5-17.53,39.51,39.51,0,0,1,4.09-11.63,16.91,16.91,0,0,1,6.06-6.45,14.91,14.91,0,0,1,7.51-2,23.39,23.39,0,0,1,6.43.91,13,13,0,0,1,5.7,3.4,18.12,18.12,0,0,1,4,6.91,34.7,34.7,0,0,1,1.55,11.33v4.67Z"/><path class="cls-1" d="M179.48,242.43h13.16L205,280.63h.21v-38.2H216v72.34H205.49L191.09,271h-.21v43.79h-11.4Z"/><path class="cls-1" d="M222.6,242.43h30.47V253.6h-17v18.49h12.54v11.79H236.07v19.71h17.72v11.18H222.6Z"/><path class="cls-1" d="M257.29,242.43h15.13a33.28,33.28,0,0,1,8.7,1.07,16.76,16.76,0,0,1,6.74,3.51,16.17,16.17,0,0,1,4.35,6.35,26.09,26.09,0,0,1,1.55,9.6,34.52,34.52,0,0,1-.36,4.88,23.06,23.06,0,0,1-1.29,5,18.79,18.79,0,0,1-2.44,4.47,12.31,12.31,0,0,1-3.78,3.35l8,34.14H280.29L274,283.68h-3.21v31.09H257.29Zm13.47,30.68h2.69a5.57,5.57,0,0,0,3.16-.86,7,7,0,0,0,2.12-2.23,9.88,9.88,0,0,0,1.19-3.2,19.32,19.32,0,0,0,.36-3.76q0-5.89-2-8a7.24,7.24,0,0,0-5.44-2.08h-2.07Z"/><path class="cls-1" d="M335.94,268.64q0-9-1.19-12.75t-3.68-3.71a3.82,3.82,0,0,0-2.07.66q-1,.66-1.81,3.3a43.84,43.84,0,0,0-1.24,7.92q-.47,5.29-.47,14.53,0,8.94.31,14.17a52.7,52.7,0,0,0,.93,8q.62,2.74,1.71,3.5a4.49,4.49,0,0,0,2.64.76q3.32,0,4.4-4.62a64.62,64.62,0,0,0,1.3-12.55l11.4.51a92.77,92.77,0,0,1-.52,9.7,28,28,0,0,1-2.38,8.94,17.09,17.09,0,0,1-5.34,6.6q-3.47,2.59-9.38,2.59a15.59,15.59,0,0,1-9.07-2.54,17.67,17.67,0,0,1-5.91-7.37,42.31,42.31,0,0,1-3.21-11.79,114.32,114.32,0,0,1-1-15.9,86.89,86.89,0,0,1,1.5-17.53A39.51,39.51,0,0,1,317,249.44,16.91,16.91,0,0,1,323,243a14.91,14.91,0,0,1,7.51-2q5.8,0,9.27,2.39a15.39,15.39,0,0,1,5.29,6.25,27.23,27.23,0,0,1,2.33,8.74,93.41,93.41,0,0,1,.52,9.85Z"/><path class="cls-1" d="M353.32,242.43h13.47v29.06h8.5V242.43h13.47v72.34H375.29V284.08h-8.5v30.68H353.32Z"/><path class="cls-1" d="M402.41,242.43H421.9L431,314.76h-13l-2-16.05H405.21l-1.87,16.05h-11.3ZM411,253.6h-.21l-4.25,34.54H415Z"/><path class="cls-1" d="M434.13,242.43h17.93l6,37.08h.21l6.32-37.08h17.51v72.34h-12v-53h-.21l-9.12,53H453.3l-9-53h-.21v53h-9.95Z"/><path class="cls-1" d="M488.7,242.43h13.47q11.4,0,17.31,5t5.91,16.66a37.36,37.36,0,0,1-1,8.89,18.32,18.32,0,0,1-3.16,6.86,14.69,14.69,0,0,1-5.54,4.42,19.07,19.07,0,0,1-8.13,1.58h-5.39v29H488.7Zm13.58,32.82h1.14a12.91,12.91,0,0,0,3.63-.46,5.6,5.6,0,0,0,2.64-1.68,8.12,8.12,0,0,0,1.66-3.35,21.34,21.34,0,0,0,.57-5.38,19.89,19.89,0,0,0-.73-6.1,7.42,7.42,0,0,0-1.92-3.2,5,5,0,0,0-2.75-1.27,24.91,24.91,0,0,0-3.21-.2h-1Z"/><path class="cls-1" d="M527.9,242.43h13.47v72.34H527.9Z"/><path class="cls-1" d="M546.38,278.6a96,96,0,0,1,1.4-17.88,36.5,36.5,0,0,1,4-11.58,15.86,15.86,0,0,1,6.22-6.25,18.33,18.33,0,0,1,16.17,0,15.88,15.88,0,0,1,6.22,6.25,36.52,36.52,0,0,1,4,11.58,96,96,0,0,1,1.4,17.88,96,96,0,0,1-1.4,17.88,36.5,36.5,0,0,1-4,11.58,15.86,15.86,0,0,1-6.22,6.25,18.33,18.33,0,0,1-16.17,0,15.84,15.84,0,0,1-6.22-6.25,36.47,36.47,0,0,1-4-11.58A96,96,0,0,1,546.38,278.6Zm14.72,7.62q0,5.89.36,9.55a32,32,0,0,0,1,5.74A5.41,5.41,0,0,0,564,304.3a3.37,3.37,0,0,0,4.15,0,5.41,5.41,0,0,0,1.55-2.79,32.12,32.12,0,0,0,1-5.74q.36-3.66.36-9.55V271q0-5.89-.36-9.55a30.93,30.93,0,0,0-1-5.69,5.73,5.73,0,0,0-1.55-2.79,3.2,3.2,0,0,0-4.15,0,5.73,5.73,0,0,0-1.55,2.79,30.77,30.77,0,0,0-1,5.69q-.36,3.66-.36,9.55Z"/><path class="cls-1" d="M590.56,242.43h13.16l12.33,38.2h.21v-38.2H627v72.34H616.57L602.16,271H602v43.79h-11.4Z"/><path class="cls-1" d="M633.44,242.43h13.47v72.34H633.44Z"/><path class="cls-1" d="M653.31,242.43h13.16l12.33,38.2H679v-38.2h10.78v72.34H679.33L664.92,271h-.21v43.79h-11.4Z"/><path class="cls-1" d="M719.61,268.23q0-1.22.05-3.91a31.5,31.5,0,0,0-.36-5.38,15.62,15.62,0,0,0-1.45-4.72,3.4,3.4,0,0,0-3.21-2,3.69,3.69,0,0,0-2.33.86,7.13,7.13,0,0,0-1.87,3.61,43.53,43.53,0,0,0-1.19,7.92q-.42,5.18-.41,13.92,0,8.94.41,14.17a40,40,0,0,0,1.24,8,6.52,6.52,0,0,0,2,3.56,4.75,4.75,0,0,0,2.75.81,3.51,3.51,0,0,0,3-1.63,11,11,0,0,0,1.66-3.81,27.38,27.38,0,0,0,.67-4.42q.16-2.23.16-3.56h-5V281h16.37v33.73h-5.7L724.58,310a16.07,16.07,0,0,1-4.35,4.27,10.88,10.88,0,0,1-6.32,1.93,15.59,15.59,0,0,1-9.07-2.54,17.67,17.67,0,0,1-5.91-7.37,42.31,42.31,0,0,1-3.21-11.79,114.32,114.32,0,0,1-1-15.9,86.89,86.89,0,0,1,1.5-17.53,39.51,39.51,0,0,1,4.09-11.63,16.91,16.91,0,0,1,6.06-6.45,14.91,14.91,0,0,1,7.51-2,23.39,23.39,0,0,1,6.43.91,13,13,0,0,1,5.7,3.4,18.12,18.12,0,0,1,4,6.91,34.7,34.7,0,0,1,1.55,11.33v4.67Z"/><path class="cls-1" d="M10.36,335.56H29.85L39,407.89H26l-2-16.05H13.16L11.3,407.89H0ZM19,346.73h-.21l-4.25,34.54H22.9Z"/><path class="cls-1" d="M42.32,335.56H57.45a33.28,33.28,0,0,1,8.7,1.07,16.76,16.76,0,0,1,6.74,3.51,16.17,16.17,0,0,1,4.35,6.35,26.09,26.09,0,0,1,1.55,9.6,34.52,34.52,0,0,1-.36,4.88,23.06,23.06,0,0,1-1.29,5,18.79,18.79,0,0,1-2.44,4.47,12.31,12.31,0,0,1-3.78,3.35l8,34.14H65.33L59,376.81H55.79v31.09H42.32Zm13.47,30.68h2.69a5.57,5.57,0,0,0,3.16-.86,7,7,0,0,0,2.12-2.23,9.88,9.88,0,0,0,1.19-3.2,19.32,19.32,0,0,0,.36-3.76q0-5.89-2-8a7.24,7.24,0,0,0-5.44-2.08H55.79Z"/><path class="cls-1" d="M91.16,335.56h19.48l9.12,72.34h-13l-2-16.05H94l-1.87,16.05H80.8Zm8.6,11.18h-.21l-4.25,34.54h8.39Z"/><path class="cls-1" d="M123.12,335.56H139.7a23,23,0,0,1,6.32.91,16,16,0,0,1,10.21,8.69,19.73,19.73,0,0,1,1.71,8.69,18.48,18.48,0,0,1-2.9,10.46q-2.9,4.37-9.12,5.69v.2q6.94,1.63,10.21,6.15a19,19,0,0,1,3.26,11.43,22.09,22.09,0,0,1-1.61,8.74,18.91,18.91,0,0,1-4.25,6.3,17.39,17.39,0,0,1-6.06,3.81,20.35,20.35,0,0,1-7.15,1.27h-17.2Zm13.47,29.67q5.08,0,6.79-2.34t1.71-7.21a27.91,27.91,0,0,0-.36-5,5.64,5.64,0,0,0-1.35-2.95,4.78,4.78,0,0,0-2.64-1.32,23.51,23.51,0,0,0-4.15-.3Zm0,32.1a16.06,16.06,0,0,0,4.87-.61,5.73,5.73,0,0,0,2.85-1.88,7,7,0,0,0,1.3-3.3,32.82,32.82,0,0,0,.31-4.88,23.85,23.85,0,0,0-.36-4.37,7.42,7.42,0,0,0-1.4-3.25,6.25,6.25,0,0,0-2.85-2,14.06,14.06,0,0,0-4.71-.66Z"/><path class="cls-1" d="M163.43,335.56H176.9v72.34H163.43Z"/><path class="cls-1" d="M206.48,361.77q0-9-1.19-12.75t-3.68-3.71a3.82,3.82,0,0,0-2.07.66q-1,.66-1.81,3.3a43.84,43.84,0,0,0-1.24,7.92q-.47,5.29-.47,14.53,0,8.94.31,14.17a52.7,52.7,0,0,0,.93,8q.62,2.74,1.71,3.5a4.49,4.49,0,0,0,2.64.76q3.32,0,4.4-4.62a64.62,64.62,0,0,0,1.3-12.55l11.4.51a92.77,92.77,0,0,1-.52,9.7,28,28,0,0,1-2.38,8.94,17.09,17.09,0,0,1-5.34,6.6q-3.47,2.59-9.38,2.59a15.59,15.59,0,0,1-9.07-2.54,17.67,17.67,0,0,1-5.91-7.37,42.31,42.31,0,0,1-3.21-11.79,114.32,114.32,0,0,1-1-15.9,86.89,86.89,0,0,1,1.5-17.53,39.51,39.51,0,0,1,4.09-11.63,16.91,16.91,0,0,1,6.06-6.45,14.91,14.91,0,0,1,7.51-2q5.8,0,9.27,2.39a15.39,15.39,0,0,1,5.29,6.25,27.23,27.23,0,0,1,2.33,8.74,93.41,93.41,0,0,1,.52,9.85Z"/><path class="cls-1" d="M246.16,346.73H234.56V335.56h36.68v11.18H259.64v61.16H246.16Z"/><path class="cls-1" d="M286.37,380,274,335.56h13.37l6.42,28.35H294l6.84-28.35h11.3l-12.33,43.18v29.16H286.37Z"/><path class="cls-1" d="M314.4,335.56h13.47q11.4,0,17.31,5t5.91,16.66a37.36,37.36,0,0,1-1,8.89,18.32,18.32,0,0,1-3.16,6.86,14.69,14.69,0,0,1-5.54,4.42,19.07,19.07,0,0,1-8.13,1.58h-5.39v29H314.4ZM328,368.37h1.14a12.91,12.91,0,0,0,3.63-.46,5.6,5.6,0,0,0,2.64-1.68,8.12,8.12,0,0,0,1.66-3.35,21.34,21.34,0,0,0,.57-5.38,19.89,19.89,0,0,0-.73-6.1,7.42,7.42,0,0,0-1.92-3.2,5,5,0,0,0-2.75-1.27,24.91,24.91,0,0,0-3.21-.2h-1Z"/><path class="cls-1" d="M352.72,371.73a96,96,0,0,1,1.4-17.88,36.5,36.5,0,0,1,4-11.58,15.86,15.86,0,0,1,6.22-6.25,18.33,18.33,0,0,1,16.17,0,15.88,15.88,0,0,1,6.22,6.25,36.52,36.52,0,0,1,4,11.58,115,115,0,0,1,0,35.76,36.5,36.5,0,0,1-4,11.58,15.86,15.86,0,0,1-6.22,6.25,18.33,18.33,0,0,1-16.17,0,15.84,15.84,0,0,1-6.22-6.25,36.47,36.47,0,0,1-4-11.58A96,96,0,0,1,352.72,371.73Zm14.72,7.62q0,5.89.36,9.55a32,32,0,0,0,1,5.74,5.41,5.41,0,0,0,1.55,2.79,3.37,3.37,0,0,0,4.15,0,5.41,5.41,0,0,0,1.55-2.79,32.12,32.12,0,0,0,1-5.74q.36-3.66.36-9.55V364.11q0-5.89-.36-9.55a30.93,30.93,0,0,0-1-5.69,5.73,5.73,0,0,0-1.55-2.79,3.2,3.2,0,0,0-4.15,0,5.73,5.73,0,0,0-1.55,2.79,30.77,30.77,0,0,0-1,5.69q-.36,3.66-.36,9.55Z"/><path class="cls-1" d="M420.24,361.36q0-1.22.05-3.91a31.5,31.5,0,0,0-.36-5.38,15.62,15.62,0,0,0-1.45-4.72,3.4,3.4,0,0,0-3.21-2,3.69,3.69,0,0,0-2.33.86,7.13,7.13,0,0,0-1.87,3.61,43.53,43.53,0,0,0-1.19,7.92q-.42,5.18-.41,13.92,0,8.94.41,14.17a40,40,0,0,0,1.24,8,6.52,6.52,0,0,0,2,3.56,4.75,4.75,0,0,0,2.75.81,3.51,3.51,0,0,0,3-1.63,11,11,0,0,0,1.66-3.81,27.38,27.38,0,0,0,.67-4.42q.16-2.23.16-3.56h-5V374.16h16.37v33.73h-5.7l-1.87-4.78a16.07,16.07,0,0,1-4.35,4.27,10.88,10.88,0,0,1-6.32,1.93,15.59,15.59,0,0,1-9.07-2.54,17.67,17.67,0,0,1-5.91-7.37,42.31,42.31,0,0,1-3.21-11.79,114.32,114.32,0,0,1-1-15.9,86.89,86.89,0,0,1,1.5-17.53A39.51,39.51,0,0,1,401,342.57a16.91,16.91,0,0,1,6.06-6.45,14.91,14.91,0,0,1,7.51-2A23.39,23.39,0,0,1,421,335a13,13,0,0,1,5.7,3.4,18.12,18.12,0,0,1,4,6.91,34.7,34.7,0,0,1,1.55,11.33v4.67Z"/><path class="cls-1" d="M438.51,335.56h15.13a33.28,33.28,0,0,1,8.7,1.07,16.76,16.76,0,0,1,6.74,3.51,16.17,16.17,0,0,1,4.35,6.35,26.09,26.09,0,0,1,1.55,9.6,34.52,34.52,0,0,1-.36,4.88,23.06,23.06,0,0,1-1.29,5,18.79,18.79,0,0,1-2.44,4.47,12.31,12.31,0,0,1-3.78,3.35l8,34.14H461.51l-6.32-31.09H452v31.09H438.51ZM452,366.24h2.69a5.57,5.57,0,0,0,3.16-.86,7,7,0,0,0,2.12-2.23,9.88,9.88,0,0,0,1.19-3.2,19.32,19.32,0,0,0,.36-3.76q0-5.89-2-8a7.24,7.24,0,0,0-5.44-2.08H452Z"/><path class="cls-1" d="M487.35,335.56h19.48l9.12,72.34H503l-2-16.05H490.15l-1.87,16.05H477Zm8.6,11.18h-.21l-4.25,34.54h8.39Z"/><path class="cls-1" d="M519.31,335.56h13.47q11.4,0,17.31,5T556,357.2a37.36,37.36,0,0,1-1,8.89,18.32,18.32,0,0,1-3.16,6.86,14.69,14.69,0,0,1-5.54,4.42,19.07,19.07,0,0,1-8.13,1.58h-5.39v29H519.31Zm13.58,32.82H534a12.91,12.91,0,0,0,3.63-.46,5.6,5.6,0,0,0,2.64-1.68,8.12,8.12,0,0,0,1.66-3.35,21.34,21.34,0,0,0,.57-5.38,19.89,19.89,0,0,0-.73-6.1,7.42,7.42,0,0,0-1.92-3.2,5,5,0,0,0-2.75-1.27,24.91,24.91,0,0,0-3.21-.2h-1Z"/><path class="cls-1" d="M558.74,335.56h13.47v29.06h8.5V335.56h13.47v72.34H580.71V377.21h-8.5v30.68H558.74Z"/><path class="cls-1" d="M608.74,380l-12.33-44.4h13.37l6.42,28.35h.21l6.84-28.35h11.3l-12.33,43.18v29.16H608.74Z"/><path class="cls-1" d="M688.53,407.89a21.35,21.35,0,0,1-8-1.37,15.75,15.75,0,0,1-6.11-4.52,19.59,19.59,0,0,1-6.17,5.28,16.35,16.35,0,0,1-8,2A14.78,14.78,0,0,1,648,403.47a18.53,18.53,0,0,1-3-5.74,20.64,20.64,0,0,1-1-6.2,24.59,24.59,0,0,1,3.06-12,58.22,58.22,0,0,1,8-11.07q-1.24-2.54-2.28-4.83a47.32,47.32,0,0,1-1.81-4.62,37.35,37.35,0,0,1-1.24-4.78,27.58,27.58,0,0,1-.47-5.18q0-6.81,4.2-10.87t11-4.06a13.85,13.85,0,0,1,6.06,1.27,13.49,13.49,0,0,1,4.4,3.3,14.38,14.38,0,0,1,2.69,4.67,16.07,16.07,0,0,1,.93,5.38,21,21,0,0,1-.78,6.1,18.15,18.15,0,0,1-2.18,4.67,32.8,32.8,0,0,1-3.32,4.22q-1.92,2.08-4.09,4.62a39.18,39.18,0,0,0,3.06,6.55q1.81,3.1,3.57,6.35a54.91,54.91,0,0,0,1.55-5.79q.62-2.95,1-5.89l8.91,1.93A90.69,90.69,0,0,1,684.38,382a52.69,52.69,0,0,1-3.63,9.85,13.21,13.21,0,0,0,3.11,3.51,10.37,10.37,0,0,0,4.66,2Zm-28.71-29.26a14.36,14.36,0,0,0-2.75,4,11.76,11.76,0,0,0-1,5,15.62,15.62,0,0,0,.41,3.45,11.68,11.68,0,0,0,1.35,3.4,9.13,9.13,0,0,0,2.33,2.64,5.39,5.39,0,0,0,3.37,1.07,4,4,0,0,0,3-1.22,26.77,26.77,0,0,0,2.12-2.44Zm.93-29.56a17.61,17.61,0,0,0,1,5.59q1,2.95,2,5.28a53.38,53.38,0,0,0,3.26-4.62,10.37,10.37,0,0,0,1.5-5.64,8.85,8.85,0,0,0-.88-4.06,3.23,3.23,0,0,0-3.16-1.73,3,3,0,0,0-2.9,1.57A7.62,7.62,0,0,0,660.76,349.07Z"/><path class="cls-1" d="M26.32,454.9q0-9-1.19-12.75t-3.68-3.71a3.82,3.82,0,0,0-2.07.66q-1,.66-1.81,3.3a43.84,43.84,0,0,0-1.24,7.92q-.47,5.29-.47,14.53,0,8.94.31,14.17a52.7,52.7,0,0,0,.93,8q.62,2.74,1.71,3.5a4.49,4.49,0,0,0,2.64.76q3.32,0,4.4-4.62a64.62,64.62,0,0,0,1.3-12.55l11.4.51a92.77,92.77,0,0,1-.52,9.7,28,28,0,0,1-2.38,8.94,17.09,17.09,0,0,1-5.34,6.6q-3.47,2.59-9.38,2.59a15.59,15.59,0,0,1-9.07-2.54A17.67,17.67,0,0,1,6,492.54a42.31,42.31,0,0,1-3.21-11.79,114.32,114.32,0,0,1-1-15.9,86.89,86.89,0,0,1,1.5-17.53A39.51,39.51,0,0,1,7.36,435.7a16.91,16.91,0,0,1,6.06-6.45,14.91,14.91,0,0,1,7.51-2q5.8,0,9.27,2.39a15.39,15.39,0,0,1,5.29,6.25,27.23,27.23,0,0,1,2.33,8.74,93.41,93.41,0,0,1,.52,9.85Z"/><path class="cls-1" d="M43.31,428.69H56.78v56a18.08,18.08,0,0,0,.16,2.39,6.16,6.16,0,0,0,.67,2.13,3.86,3.86,0,0,0,1.45,1.52,4.57,4.57,0,0,0,2.38.56,4,4,0,0,0,3.89-2,9.45,9.45,0,0,0,1.09-4.62v-56h11.4v54.25q0,10.67-4.56,15.09t-12.64,4.42a22.12,22.12,0,0,1-7.1-1.07A13.79,13.79,0,0,1,48.07,498a15.13,15.13,0,0,1-3.52-6,28.85,28.85,0,0,1-1.24-9.09Z"/><path class="cls-1" d="M84.38,428.69H97.86v61.16h17.2V501H84.38Z"/><path class="cls-1" d="M121.59,439.86H110V428.69h36.68v11.18H135.06V501H121.59Z"/><path class="cls-1" d="M149,428.69h13.47v56a18.08,18.08,0,0,0,.16,2.39,6.16,6.16,0,0,0,.67,2.13,3.86,3.86,0,0,0,1.45,1.52,4.57,4.57,0,0,0,2.38.56,4,4,0,0,0,3.89-2,9.45,9.45,0,0,0,1.09-4.62v-56h11.4v54.25q0,10.67-4.56,15.09t-12.64,4.42a22.12,22.12,0,0,1-7.1-1.07,13.79,13.79,0,0,1-5.44-3.35,15.13,15.13,0,0,1-3.52-6,28.85,28.85,0,0,1-1.24-9.09Z"/><path class="cls-1" d="M190.06,428.69h15.13a33.28,33.28,0,0,1,8.7,1.07,16.76,16.76,0,0,1,6.74,3.51,16.17,16.17,0,0,1,4.35,6.35,26.09,26.09,0,0,1,1.55,9.6,34.52,34.52,0,0,1-.36,4.88,23.06,23.06,0,0,1-1.29,5,18.79,18.79,0,0,1-2.44,4.47,12.31,12.31,0,0,1-3.78,3.35l8,34.14H213.07l-6.32-31.09h-3.21V501H190.06Zm13.47,30.68h2.69a5.57,5.57,0,0,0,3.16-.86,7,7,0,0,0,2.12-2.23,9.88,9.88,0,0,0,1.19-3.2,19.32,19.32,0,0,0,.36-3.76q0-5.89-2-8a7.24,7.24,0,0,0-5.44-2.08h-2.07Z"/><path class="cls-1" d="M230.95,428.69h30.47v11.18h-17v18.49H257v11.79H244.42v19.71h17.72V501H230.95Z"/><path class="cls-1" d="M287,428.69h13.47V501H287Z"/><path class="cls-1" d="M306.88,428.69H320l12.33,38.2h.21v-38.2h10.78V501H332.89l-14.4-43.79h-.21V501h-11.4Z"/><path class="cls-1" d="M363.36,428.69h16.58a23,23,0,0,1,6.32.91,16,16,0,0,1,10.21,8.69,19.73,19.73,0,0,1,1.71,8.69,18.48,18.48,0,0,1-2.9,10.46q-2.9,4.37-9.12,5.69v.2q6.94,1.63,10.21,6.15a19,19,0,0,1,3.26,11.43,22.09,22.09,0,0,1-1.61,8.74,18.91,18.91,0,0,1-4.25,6.3,17.39,17.39,0,0,1-6.06,3.81,20.35,20.35,0,0,1-7.15,1.27h-17.2Zm13.47,29.67q5.08,0,6.79-2.34t1.71-7.21a27.91,27.91,0,0,0-.36-5,5.64,5.64,0,0,0-1.35-2.95,4.78,4.78,0,0,0-2.64-1.32,23.51,23.51,0,0,0-4.15-.3Zm0,32.1a16.06,16.06,0,0,0,4.87-.61,5.73,5.73,0,0,0,2.85-1.88,7,7,0,0,0,1.3-3.3,32.82,32.82,0,0,0,.31-4.88,23.85,23.85,0,0,0-.36-4.37,7.42,7.42,0,0,0-1.4-3.25,6.25,6.25,0,0,0-2.85-2,14.06,14.06,0,0,0-4.71-.66Z"/><path class="cls-1" d="M402.18,464.86a96,96,0,0,1,1.4-17.88,36.5,36.5,0,0,1,4-11.58,15.86,15.86,0,0,1,6.22-6.25,18.33,18.33,0,0,1,16.17,0,15.88,15.88,0,0,1,6.22,6.25,36.52,36.52,0,0,1,4,11.58,115,115,0,0,1,0,35.76,36.5,36.5,0,0,1-4,11.58,15.86,15.86,0,0,1-6.22,6.25,18.33,18.33,0,0,1-16.17,0,15.84,15.84,0,0,1-6.22-6.25,36.47,36.47,0,0,1-4-11.58A96,96,0,0,1,402.18,464.86Zm14.72,7.62q0,5.89.36,9.55a32,32,0,0,0,1,5.74,5.41,5.41,0,0,0,1.55,2.79,3.37,3.37,0,0,0,4.15,0,5.41,5.41,0,0,0,1.55-2.79,32.12,32.12,0,0,0,1-5.74q.36-3.66.36-9.55V457.24q0-5.89-.36-9.55a30.93,30.93,0,0,0-1-5.69,5.73,5.73,0,0,0-1.55-2.79,3.2,3.2,0,0,0-4.15,0,5.73,5.73,0,0,0-1.55,2.79,30.77,30.77,0,0,0-1,5.69q-.36,3.66-.36,9.55Z"/><path class="cls-1" d="M453.3,439.86H441.69V428.69h36.68v11.18H466.77V501H453.3Z"/><path class="cls-1" d="M480.92,428.69h13.47v29.06h8.5V428.69h13.47V501H502.89V470.34h-8.5V501H480.92Z"/><path class="cls-1" d="M550.25,480.1q0,1.52.1,3.45a15.46,15.46,0,0,0,.62,3.66,6.62,6.62,0,0,0,1.71,2.9,4.6,4.6,0,0,0,3.37,1.17,5.5,5.5,0,0,0,2.8-.66,5.65,5.65,0,0,0,1.87-1.73,7.23,7.23,0,0,0,1-2.29,9.44,9.44,0,0,0,.31-2.34,9.73,9.73,0,0,0-1.81-5.79,28.27,28.27,0,0,0-4.51-4.88q-2.7-2.34-5.91-4.78a40.72,40.72,0,0,1-5.91-5.49,28.22,28.22,0,0,1-4.51-7,22.28,22.28,0,0,1-1.81-9.35,25.27,25.27,0,0,1,1.14-7.67,18.46,18.46,0,0,1,3.32-6.25,15.89,15.89,0,0,1,5.44-4.22,19.06,19.06,0,0,1,15.29.05,14,14,0,0,1,5.23,4.52,20.48,20.48,0,0,1,3,7,41.82,41.82,0,0,1,1.09,8.94h-12q0-1.52-.1-3.4a16.66,16.66,0,0,0-.57-3.56,6.13,6.13,0,0,0-1.61-2.79,4.25,4.25,0,0,0-3.11-1.12,4.37,4.37,0,0,0-3.73,1.83,7.85,7.85,0,0,0-1.35,4.78,9.4,9.4,0,0,0,1.81,5.59,29.55,29.55,0,0,0,4.51,4.93q2.69,2.39,5.91,4.93a42.37,42.37,0,0,1,5.91,5.69,30.28,30.28,0,0,1,4.51,7.11,22.05,22.05,0,0,1,1.81,9.25,24.65,24.65,0,0,1-1.19,7.77,18.22,18.22,0,0,1-3.52,6.3,16.65,16.65,0,0,1-5.8,4.27,19.28,19.28,0,0,1-8,1.57,16.45,16.45,0,0,1-8.76-2.08,15.42,15.42,0,0,1-5.29-5.33,21,21,0,0,1-2.59-7.21,45.9,45.9,0,0,1-.67-7.72Z"/><path class="cls-1" d="M585.17,439.86H573.56V428.69h36.68v11.18H598.64V501H585.17Z"/><path class="cls-1" d="M616.81,428.69h19.48L645.41,501h-13l-2-16.05H619.61L617.74,501h-11.3Zm8.6,11.18h-.21L621,474.41h8.39Z"/><path class="cls-1" d="M653.78,439.86H642.18V428.69h36.68v11.18H667.25V501H653.78Z"/><path class="cls-1" d="M681.17,428.69h13.47V501H681.17Z"/><path class="cls-1" d="M724.22,454.9q0-9-1.19-12.75t-3.68-3.71a3.82,3.82,0,0,0-2.07.66q-1,.66-1.81,3.3a43.84,43.84,0,0,0-1.24,7.92q-.47,5.29-.47,14.53,0,8.94.31,14.17a52.7,52.7,0,0,0,.93,8q.62,2.74,1.71,3.5a4.49,4.49,0,0,0,2.64.76q3.32,0,4.4-4.62A64.62,64.62,0,0,0,725,474.1l11.4.51a92.77,92.77,0,0,1-.52,9.7,28,28,0,0,1-2.38,8.94,17.09,17.09,0,0,1-5.34,6.6q-3.47,2.59-9.38,2.59a15.59,15.59,0,0,1-9.07-2.54,17.67,17.67,0,0,1-5.91-7.37,42.31,42.31,0,0,1-3.21-11.79,114.32,114.32,0,0,1-1-15.9,86.89,86.89,0,0,1,1.5-17.53,39.51,39.51,0,0,1,4.09-11.63,16.91,16.91,0,0,1,6.06-6.45,14.91,14.91,0,0,1,7.51-2q5.8,0,9.27,2.39a15.39,15.39,0,0,1,5.29,6.25,27.23,27.23,0,0,1,2.33,8.74,93.41,93.41,0,0,1,.52,9.85Z"/><path class="cls-1" d="M10.36,521.82H29.85L39,594.16H26L24,578.1H13.16L11.3,594.16H0ZM19,533h-.21l-4.25,34.54H22.9Z"/><path class="cls-1" d="M42.08,521.82H55.24L67.58,560h.21v-38.2H78.56v72.34H68.09l-14.4-43.79h-.21v43.79H42.08Z"/><path class="cls-1" d="M85.2,521.82H96.91q8.5,0,13.42,2.59a17.51,17.51,0,0,1,7.46,7.31A30.38,30.38,0,0,1,121,543.1q.67,6.66.67,14.88,0,7.82-.62,14.48a34.26,34.26,0,0,1-2.9,11.48,17,17,0,0,1-6.79,7.52q-4.51,2.69-12.28,2.69H85.2ZM98.67,583a11.55,11.55,0,0,0,5-.86,5.6,5.6,0,0,0,2.64-3.5,29.1,29.1,0,0,0,1.09-7.57q.21-4.93.21-13.16t-.21-13.11a28.23,28.23,0,0,0-1.09-7.47,5.59,5.59,0,0,0-2.64-3.45,11.58,11.58,0,0,0-5-.86Z"/><path class="cls-1" d="M141.16,521.82h11.71q8.5,0,13.42,2.59a17.51,17.51,0,0,1,7.46,7.31A30.38,30.38,0,0,1,177,543.1q.67,6.66.67,14.88,0,7.82-.62,14.48a34.26,34.26,0,0,1-2.9,11.48,17,17,0,0,1-6.79,7.52q-4.51,2.69-12.28,2.69H141.16ZM154.63,583a11.55,11.55,0,0,0,5-.86,5.6,5.6,0,0,0,2.64-3.5,29.1,29.1,0,0,0,1.09-7.57q.21-4.93.21-13.16t-.21-13.11a28.23,28.23,0,0,0-1.09-7.47,5.59,5.59,0,0,0-2.64-3.45,11.58,11.58,0,0,0-5-.86Z"/><path class="cls-1" d="M183.08,521.82h13.47v72.34H183.08Z"/><path class="cls-1" d="M226.43,547.62q0-1.22.05-3.91a31.5,31.5,0,0,0-.36-5.38,15.62,15.62,0,0,0-1.45-4.72,3.4,3.4,0,0,0-3.21-2,3.69,3.69,0,0,0-2.33.86,7.13,7.13,0,0,0-1.87,3.61,43.53,43.53,0,0,0-1.19,7.92q-.42,5.18-.41,13.92,0,8.94.41,14.17a40,40,0,0,0,1.24,8,6.52,6.52,0,0,0,2,3.56,4.75,4.75,0,0,0,2.75.81,3.51,3.51,0,0,0,3-1.63,11,11,0,0,0,1.66-3.81,27.38,27.38,0,0,0,.67-4.42q.16-2.23.16-3.56h-5V560.42H239v33.73h-5.7l-1.87-4.78a16.07,16.07,0,0,1-4.35,4.27,10.88,10.88,0,0,1-6.32,1.93,15.59,15.59,0,0,1-9.07-2.54,17.67,17.67,0,0,1-5.91-7.37,42.31,42.31,0,0,1-3.21-11.79,114.32,114.32,0,0,1-1-15.9,86.89,86.89,0,0,1,1.5-17.53,39.51,39.51,0,0,1,4.09-11.63,16.91,16.91,0,0,1,6.06-6.45,14.91,14.91,0,0,1,7.51-2,23.39,23.39,0,0,1,6.43.91,13,13,0,0,1,5.7,3.4,18.12,18.12,0,0,1,4,6.91A34.7,34.7,0,0,1,238.46,543v4.67Z"/><path class="cls-1" d="M244.48,521.82h13.47v72.34H244.48Z"/><path class="cls-1" d="M271.93,533H260.32V521.82H297V533H285.4v61.16H271.93Z"/><path class="cls-1" d="M303.56,521.82H323l9.12,72.34h-13l-2-16.05H306.36l-1.87,16.05H293.2Zm8.6,11.18H312l-4.25,34.54h8.39Z"/><path class="cls-1" d="M335.52,521.82H349V583h17.2v11.18H335.52Z"/><path class="cls-1" d="M383.29,521.82h17.93l6,37.08h.21l6.32-37.08h17.51v72.34h-12v-53H419l-9.12,53h-7.46l-9-53h-.21v53h-9.95Z"/><path class="cls-1" d="M437.86,521.82h30.47V533h-17v18.49h12.54v11.79H451.33V583h17.72v11.18H437.86Z"/><path class="cls-1" d="M472.54,521.82h11.71q8.5,0,13.42,2.59a17.51,17.51,0,0,1,7.46,7.31,30.38,30.38,0,0,1,3.21,11.38q.67,6.66.67,14.88,0,7.82-.62,14.48a34.26,34.26,0,0,1-2.9,11.48,17,17,0,0,1-6.79,7.52q-4.51,2.69-12.28,2.69H472.54ZM486,583a11.55,11.55,0,0,0,5-.86,5.6,5.6,0,0,0,2.64-3.5,29.1,29.1,0,0,0,1.09-7.57q.21-4.93.21-13.16t-.21-13.11a28.23,28.23,0,0,0-1.09-7.47,5.59,5.59,0,0,0-2.64-3.45,11.58,11.58,0,0,0-5-.86Z"/><path class="cls-1" d="M514.46,521.82h13.47v72.34H514.46Z"/><path class="cls-1" d="M541.42,521.82H560.9L570,594.16h-13l-2-16.05H544.21l-1.87,16.05h-11.3ZM550,533h-.21l-4.25,34.54H554Z"/><path class="cls-1" d="M574.33,580.95H587.8v13.21H574.33Z"/><path class="cls-1" d="M602.61,521.82h17.93l6,37.08h.21l6.32-37.08h17.51v72.34h-12v-53h-.21l-9.12,53h-7.46l-9-53h-.21v53h-9.95Z"/><path class="cls-1" d="M656.67,580.95h13.47v13.21H656.67Z"/><path class="cls-1" d="M685.89,573.23q0,1.52.1,3.45a15.46,15.46,0,0,0,.62,3.66,6.62,6.62,0,0,0,1.71,2.9,4.6,4.6,0,0,0,3.37,1.17,5.5,5.5,0,0,0,2.8-.66,5.65,5.65,0,0,0,1.87-1.73,7.23,7.23,0,0,0,1-2.29,9.44,9.44,0,0,0,.31-2.34,9.73,9.73,0,0,0-1.81-5.79,28.27,28.27,0,0,0-4.51-4.88q-2.7-2.34-5.91-4.78a40.72,40.72,0,0,1-5.91-5.49,28.22,28.22,0,0,1-4.51-7,22.28,22.28,0,0,1-1.81-9.35,25.27,25.27,0,0,1,1.14-7.67,18.46,18.46,0,0,1,3.32-6.25,15.89,15.89,0,0,1,5.44-4.22,19.06,19.06,0,0,1,15.29.05,14,14,0,0,1,5.23,4.52,20.48,20.48,0,0,1,3,7,41.82,41.82,0,0,1,1.09,8.94h-12q0-1.52-.1-3.4a16.66,16.66,0,0,0-.57-3.56,6.13,6.13,0,0,0-1.61-2.79,4.25,4.25,0,0,0-3.11-1.12,4.37,4.37,0,0,0-3.73,1.83,7.85,7.85,0,0,0-1.35,4.78,9.4,9.4,0,0,0,1.81,5.59,29.55,29.55,0,0,0,4.51,4.93q2.69,2.39,5.91,4.93a42.37,42.37,0,0,1,5.91,5.69,30.28,30.28,0,0,1,4.51,7.11,22.05,22.05,0,0,1,1.81,9.25,24.65,24.65,0,0,1-1.19,7.77,18.22,18.22,0,0,1-3.52,6.3,16.65,16.65,0,0,1-5.8,4.27,19.28,19.28,0,0,1-8,1.57,16.45,16.45,0,0,1-8.76-2.08,15.42,15.42,0,0,1-5.29-5.33,21,21,0,0,1-2.59-7.21,45.9,45.9,0,0,1-.67-7.72Z"/><path class="cls-1" d="M713.25,580.95h13.47v13.21H713.25Z"/><path class="cls-1" d="M26.63,640.75q0-1.22.05-3.91a31.5,31.5,0,0,0-.36-5.38,15.62,15.62,0,0,0-1.45-4.72,3.4,3.4,0,0,0-3.21-2,3.69,3.69,0,0,0-2.33.86,7.13,7.13,0,0,0-1.87,3.61,43.53,43.53,0,0,0-1.19,7.92q-.42,5.18-.41,13.92,0,8.94.41,14.17a40,40,0,0,0,1.24,8,6.52,6.52,0,0,0,2,3.56,4.75,4.75,0,0,0,2.75.81,3.51,3.51,0,0,0,3-1.63,11,11,0,0,0,1.66-3.81,27.38,27.38,0,0,0,.67-4.42q.16-2.23.16-3.56h-5V653.56H39.17v33.73h-5.7l-1.87-4.78a16.07,16.07,0,0,1-4.35,4.27,10.88,10.88,0,0,1-6.32,1.93,15.59,15.59,0,0,1-9.07-2.54A17.67,17.67,0,0,1,6,678.8,42.31,42.31,0,0,1,2.75,667a114.32,114.32,0,0,1-1-15.9,86.89,86.89,0,0,1,1.5-17.53A39.51,39.51,0,0,1,7.36,622a16.91,16.91,0,0,1,6.06-6.45,14.91,14.91,0,0,1,7.51-2,23.39,23.39,0,0,1,6.43.91,13,13,0,0,1,5.7,3.4,18.12,18.12,0,0,1,4,6.91,34.7,34.7,0,0,1,1.55,11.33v4.67Z"/><path class="cls-1" d="M44.9,614.95H60a33.28,33.28,0,0,1,8.7,1.07,16.76,16.76,0,0,1,6.74,3.51,16.17,16.17,0,0,1,4.35,6.35,26.09,26.09,0,0,1,1.55,9.6,34.52,34.52,0,0,1-.36,4.88,23.06,23.06,0,0,1-1.29,5,18.79,18.79,0,0,1-2.44,4.47,12.31,12.31,0,0,1-3.78,3.35l8,34.14H67.91L61.59,656.2H58.37v31.09H44.9Zm13.47,30.68h2.69a5.57,5.57,0,0,0,3.16-.86,7,7,0,0,0,2.12-2.23,9.88,9.88,0,0,0,1.19-3.2,19.32,19.32,0,0,0,.36-3.76q0-5.89-2-8a7.24,7.24,0,0,0-5.44-2.08H58.37Z"/><path class="cls-1" d="M85.78,614.95h30.47v11.18h-17v18.49h12.54V656.4H99.26v19.71H117v11.18H85.78Z"/><path class="cls-1" d="M118.3,614.95h12.23l4.77,42.47h.21l6.43-42.47h12.12L160,657.42h.21l5.29-42.47h9.64l-9.64,72.34H153.22l-6.42-45.82h-.21L140,687.29H128.15Z"/><path class="cls-1" d="M197.37,614.95h13.47v56a18.08,18.08,0,0,0,.16,2.39,6.16,6.16,0,0,0,.67,2.13,3.86,3.86,0,0,0,1.45,1.52,4.57,4.57,0,0,0,2.38.56,4,4,0,0,0,3.89-2,9.45,9.45,0,0,0,1.09-4.62v-56h11.4V669.2q0,10.67-4.56,15.09t-12.64,4.42a22.12,22.12,0,0,1-7.1-1.07,13.79,13.79,0,0,1-5.44-3.35,15.13,15.13,0,0,1-3.52-6,28.85,28.85,0,0,1-1.24-9.09Z"/><path class="cls-1" d="M238.45,614.95h13.47q11.4,0,17.31,5t5.91,16.66a37.36,37.36,0,0,1-1,8.89,18.32,18.32,0,0,1-3.16,6.86,14.69,14.69,0,0,1-5.54,4.42,19.07,19.07,0,0,1-8.13,1.58h-5.39v29H238.45ZM252,647.76h1.14a12.91,12.91,0,0,0,3.63-.46,5.6,5.6,0,0,0,2.64-1.68,8.12,8.12,0,0,0,1.66-3.35,21.34,21.34,0,0,0,.57-5.38,19.89,19.89,0,0,0-.73-6.1,7.42,7.42,0,0,0-1.92-3.2,5,5,0,0,0-2.75-1.27,24.91,24.91,0,0,0-3.21-.2h-1Z"/><path class="cls-1" d="M294.2,614.95h13.47v72.34H294.2Z"/><path class="cls-1" d="M314.07,614.95h13.16l12.33,38.2h.21v-38.2h10.78v72.34H340.08l-14.4-43.79h-.21v43.79h-11.4Z"/><path class="cls-1" d="M383.92,666.36q0,1.52.1,3.45a15.46,15.46,0,0,0,.62,3.66,6.62,6.62,0,0,0,1.71,2.9,4.6,4.6,0,0,0,3.37,1.17,5.5,5.5,0,0,0,2.8-.66,5.65,5.65,0,0,0,1.87-1.73,7.23,7.23,0,0,0,1-2.29,9.44,9.44,0,0,0,.31-2.34,9.73,9.73,0,0,0-1.81-5.79,28.27,28.27,0,0,0-4.51-4.88q-2.7-2.34-5.91-4.78a40.72,40.72,0,0,1-5.91-5.49,28.22,28.22,0,0,1-4.51-7,22.28,22.28,0,0,1-1.81-9.35,25.27,25.27,0,0,1,1.14-7.67,18.46,18.46,0,0,1,3.32-6.25,15.89,15.89,0,0,1,5.44-4.22,19.06,19.06,0,0,1,15.29.05,14,14,0,0,1,5.23,4.52,20.48,20.48,0,0,1,3,7,41.82,41.82,0,0,1,1.09,8.94h-12q0-1.52-.1-3.4a16.66,16.66,0,0,0-.57-3.56,6.13,6.13,0,0,0-1.61-2.79,4.25,4.25,0,0,0-3.11-1.12,4.37,4.37,0,0,0-3.73,1.83,7.85,7.85,0,0,0-1.35,4.78,9.4,9.4,0,0,0,1.81,5.59,29.55,29.55,0,0,0,4.51,4.93q2.69,2.39,5.91,4.93a42.37,42.37,0,0,1,5.91,5.69,30.28,30.28,0,0,1,4.51,7.11,22.05,22.05,0,0,1,1.81,9.25,24.65,24.65,0,0,1-1.19,7.77,18.22,18.22,0,0,1-3.52,6.3,16.65,16.65,0,0,1-5.8,4.27,19.28,19.28,0,0,1-8,1.57,16.45,16.45,0,0,1-8.76-2.08,15.42,15.42,0,0,1-5.29-5.33,21,21,0,0,1-2.59-7.21,45.9,45.9,0,0,1-.67-7.72Z"/><path class="cls-1" d="M411.44,614.95h13.47V644h8.5V614.95h13.47v72.34H433.41V656.6h-8.5v30.68H411.44Z"/><path class="cls-1" d="M460.54,614.95H480l9.12,72.34h-13l-2-16.05H463.34l-1.87,16.05h-11.3Zm8.6,11.18h-.21l-4.25,34.54h8.39Z"/><path class="cls-1" d="M492.5,614.95h15.13a33.28,33.28,0,0,1,8.7,1.07,16.76,16.76,0,0,1,6.74,3.51,16.17,16.17,0,0,1,4.35,6.35,26.09,26.09,0,0,1,1.55,9.6,34.52,34.52,0,0,1-.36,4.88,23.06,23.06,0,0,1-1.29,5,18.79,18.79,0,0,1-2.44,4.47,12.31,12.31,0,0,1-3.78,3.35l8,34.14H515.5l-6.32-31.09H506v31.09H492.5ZM506,645.63h2.69a5.57,5.57,0,0,0,3.16-.86,7,7,0,0,0,2.12-2.23,9.88,9.88,0,0,0,1.19-3.2,19.32,19.32,0,0,0,.36-3.76q0-5.89-2-8a7.24,7.24,0,0,0-5.44-2.08H506Z"/><path class="cls-1" d="M553.36,673.37a24,24,0,0,1-.88,7,10.42,10.42,0,0,1-2.69,4.57,10.17,10.17,0,0,1-4.66,2.44,28.92,28.92,0,0,1-6.89.71,33.72,33.72,0,0,1-3.83-.2l-3.42-.41V676a32.87,32.87,0,0,0,4.56.3,3.67,3.67,0,0,0,3.21-1.68,8.14,8.14,0,0,0,1.14-4.62V614.95h13.47Z"/><path class="cls-1" d="M566.16,614.95h19.48l9.12,72.34h-13l-2-16.05H569l-1.87,16.05H555.8Zm8.6,11.18h-.21l-4.25,34.54h8.39Z"/><path class="cls-1" d="M598.12,614.95h13.47V644h8.5V614.95h13.47v72.34H620.09V656.6h-8.5v30.68H598.12Z"/><path class="cls-1" d="M639.87,674.08h13.47v13.21H639.87Z"/></g></g></svg>