<svg xmlns="http://www.w3.org/2000/svg" viewBox="0 0 744.53 688.67"><defs><style>.cls-1{fill:#da2128;}</style></defs><title>Myriam</title><g id="Layer_2" data-name="Layer 2"><g id="Layer_1-2" data-name="Layer 1"><path class="cls-1" d="M12,149.29H31.5l9.12,72.33h-13l-2-16.05H14.82L13,221.62H1.66Zm8.6,11.17h-.21L16.17,195h8.39Z"/><path class="cls-1" d="M61.55,149.29H91.7v11.17H75v19.3H87.35v11.79H75v30.07H61.55Z"/><path class="cls-1" d="M94.48,149.29H108v72.33H94.48Z"/><path class="cls-1" d="M114.59,149.29h15.13a33.27,33.27,0,0,1,8.7,1.07,16.76,16.76,0,0,1,6.74,3.5,16.18,16.18,0,0,1,4.35,6.35,26.1,26.1,0,0,1,1.55,9.6,34.55,34.55,0,0,1-.36,4.88,23.07,23.07,0,0,1-1.29,5,18.76,18.76,0,0,1-2.44,4.47,12.3,12.3,0,0,1-3.78,3.35l8,34.13H137.6l-6.32-31.09h-3.21v31.09H114.59ZM128.06,180h2.69a5.57,5.57,0,0,0,3.16-.86,7,7,0,0,0,2.12-2.23,9.85,9.85,0,0,0,1.19-3.2,19.31,19.31,0,0,0,.36-3.76q0-5.89-2-8a7.23,7.23,0,0,0-5.44-2.08h-2.07Z"/><path class="cls-1" d="M155.24,149.29h17.93l6,37.08h.21l6.32-37.08h17.51v72.33h-12v-53H191l-9.12,53h-7.46l-9-53h-.21v53h-9.95Z"/><path class="cls-1" d="M221.14,149.29h16.58a23,23,0,0,1,6.32.91,16,16,0,0,1,10.21,8.69,19.73,19.73,0,0,1,1.71,8.69,18.48,18.48,0,0,1-2.9,10.46q-2.9,4.37-9.12,5.69v.2q6.94,1.63,10.21,6.15a19,19,0,0,1,3.26,11.43,22.1,22.1,0,0,1-1.61,8.74,18.92,18.92,0,0,1-4.25,6.3,17.38,17.38,0,0,1-6.06,3.81,20.35,20.35,0,0,1-7.15,1.27h-17.2ZM234.62,179q5.08,0,6.79-2.34t1.71-7.21a27.9,27.9,0,0,0-.36-5,5.64,5.64,0,0,0-1.35-2.95,4.77,4.77,0,0,0-2.64-1.32,23.5,23.5,0,0,0-4.14-.3Zm0,32.1a16.05,16.05,0,0,0,4.87-.61,5.74,5.74,0,0,0,2.85-1.88,7,7,0,0,0,1.29-3.3,32.7,32.7,0,0,0,.31-4.88,23.83,23.83,0,0,0-.36-4.37,7.41,7.41,0,0,0-1.4-3.25,6.25,6.25,0,0,0-2.85-2,14.06,14.06,0,0,0-4.71-.66Z"/><path class="cls-1" d="M261.57,149.29H292v11.17H275V179h12.54v11.79H275v19.71h17.72v11.17H261.57Z"/><path class="cls-1" d="M296.25,149.29h13.47v61.16h17.2v11.17H296.25Z"/><path class="cls-1" d="M330.41,149.29h13.47v72.33H330.41Z"/><path class="cls-1" d="M350.53,149.29H381v11.17H364V179h12.54v11.79H364v19.71h17.72v11.17H350.53Z"/><path class="cls-1" d="M383,149.29H396.2l6.32,50.79h.21l6.94-50.79h10.88l-11.09,72.33H394Z"/><path class="cls-1" d="M423.82,149.29h30.46v11.17h-17V179h12.54v11.79H437.29v19.71H455v11.17H423.82Z"/><path class="cls-1" d="M458.5,149.29h15.13a33.27,33.27,0,0,1,8.7,1.07,16.76,16.76,0,0,1,6.74,3.5,16.18,16.18,0,0,1,4.35,6.35,26.1,26.1,0,0,1,1.55,9.6,34.55,34.55,0,0,1-.36,4.88,23.07,23.07,0,0,1-1.29,5,18.76,18.76,0,0,1-2.44,4.47,12.3,12.3,0,0,1-3.78,3.35l8,34.13H481.5l-6.32-31.09H472v31.09H458.5ZM472,180h2.69a5.57,5.57,0,0,0,3.16-.86,7,7,0,0,0,2.12-2.23,9.85,9.85,0,0,0,1.19-3.2,19.31,19.31,0,0,0,.36-3.76q0-5.89-2-8a7.23,7.23,0,0,0-5.44-2.08H472Z"/><path class="cls-1" d="M514,149.29h13.47v72.33H514Z"/><path class="cls-1" d="M533.91,149.29h13.16l12.33,38.2h.21v-38.2h10.78v72.33H559.92l-14.4-43.79h-.21v43.79h-11.4Z"/><path class="cls-1" d="M600.75,160.46H589.14V149.29h36.68v11.17H614.22v61.16H600.75Z"/><path class="cls-1" d="M628.37,149.29h13.47v29.05h8.5V149.29h13.47v72.33H650.34V190.94h-8.5v30.68H628.37Z"/><path class="cls-1" d="M670.63,149.29h30.46v11.17h-17V179h12.54v11.79H684.1v19.71h17.72v11.17H670.63Z"/><path class="cls-1" d="M5.39,242.42H18.86q11.4,0,17.3,5t5.91,16.66a37.32,37.32,0,0,1-1,8.89,18.3,18.3,0,0,1-3.16,6.86,14.69,14.69,0,0,1-5.54,4.42,19.08,19.08,0,0,1-8.13,1.57H18.86v29H5.39ZM19,275.23H20.1a12.84,12.84,0,0,0,3.63-.46,5.6,5.6,0,0,0,2.64-1.68A8.11,8.11,0,0,0,28,269.74a21.35,21.35,0,0,0,.57-5.38,19.85,19.85,0,0,0-.73-6.1,7.4,7.4,0,0,0-1.92-3.2,5,5,0,0,0-2.75-1.27,24.92,24.92,0,0,0-3.21-.2H19Z"/><path class="cls-1" d="M43.71,278.58a96.05,96.05,0,0,1,1.4-17.88,36.48,36.48,0,0,1,4-11.58,15.86,15.86,0,0,1,6.22-6.25,18.32,18.32,0,0,1,16.17,0,15.88,15.88,0,0,1,6.22,6.25,36.52,36.52,0,0,1,4,11.58,96.05,96.05,0,0,1,1.4,17.88,96,96,0,0,1-1.4,17.88,36.49,36.49,0,0,1-4,11.58,15.85,15.85,0,0,1-6.22,6.25,18.32,18.32,0,0,1-16.17,0A15.83,15.83,0,0,1,49.1,308a36.44,36.44,0,0,1-4-11.58A96,96,0,0,1,43.71,278.58Zm14.71,7.62q0,5.89.36,9.55a31.9,31.9,0,0,0,1,5.74,5.42,5.42,0,0,0,1.55,2.79,3.38,3.38,0,0,0,4.15,0A5.42,5.42,0,0,0,67,301.49a32,32,0,0,0,1-5.74q.36-3.66.36-9.55V271q0-5.89-.36-9.55a30.79,30.79,0,0,0-1-5.69,5.74,5.74,0,0,0-1.55-2.79,3.2,3.2,0,0,0-4.15,0,5.74,5.74,0,0,0-1.55,2.79,30.71,30.71,0,0,0-1,5.69q-.36,3.66-.36,9.55Z"/><path class="cls-1" d="M83.74,242.42H96l4.77,42.46h.21l6.42-42.46h12.12l5.91,42.46h.21l5.28-42.46h9.64l-9.64,72.33H118.66l-6.42-45.82H112l-6.63,45.82H93.58Z"/><path class="cls-1" d="M143.79,242.42h30.46v11.17h-17v18.49h12.54v11.79H157.26v19.71H175v11.17H143.79Z"/><path class="cls-1" d="M178.47,242.42H193.6a33.27,33.27,0,0,1,8.7,1.07A16.76,16.76,0,0,1,209,247a16.18,16.18,0,0,1,4.35,6.35,26.1,26.1,0,0,1,1.55,9.6,34.55,34.55,0,0,1-.36,4.88,23.07,23.07,0,0,1-1.29,5,18.76,18.76,0,0,1-2.44,4.47,12.3,12.3,0,0,1-3.78,3.35l8,34.13H201.47l-6.32-31.09h-3.21v31.09H178.47Zm13.47,30.68h2.69a5.57,5.57,0,0,0,3.16-.86,7,7,0,0,0,2.12-2.23,9.85,9.85,0,0,0,1.19-3.2,19.31,19.31,0,0,0,.36-3.76q0-5.89-2-8A7.23,7.23,0,0,0,194,253h-2.07Z"/><path class="cls-1" d="M230.48,278.58a96.05,96.05,0,0,1,1.4-17.88,36.48,36.48,0,0,1,4-11.58,15.86,15.86,0,0,1,6.22-6.25,18.32,18.32,0,0,1,16.17,0,15.88,15.88,0,0,1,6.22,6.25,36.52,36.52,0,0,1,4,11.58,96.05,96.05,0,0,1,1.4,17.88,96,96,0,0,1-1.4,17.88,36.49,36.49,0,0,1-4,11.58,15.85,15.85,0,0,1-6.22,6.25,18.32,18.32,0,0,1-16.17,0,15.83,15.83,0,0,1-6.22-6.25,36.44,36.44,0,0,1-4-11.58A96,96,0,0,1,230.48,278.58Zm14.71,7.62q0,5.89.36,9.55a31.9,31.9,0,0,0,1,5.74,5.42,5.42,0,0,0,1.55,2.79,3.38,3.38,0,0,0,4.15,0,5.42,5.42,0,0,0,1.55-2.79,32,32,0,0,0,1-5.74q.36-3.66.36-9.55V271q0-5.89-.36-9.55a30.79,30.79,0,0,0-1-5.69,5.74,5.74,0,0,0-1.55-2.79,3.2,3.2,0,0,0-4.15,0,5.74,5.74,0,0,0-1.55,2.79,30.71,30.71,0,0,0-1,5.69q-.36,3.66-.36,9.55Z"/><path class="cls-1" d="M274.89,242.42H305v11.17H288.36v19.3h12.33v11.79H288.36v30.07H274.89Z"/><path class="cls-1" d="M323.28,242.42H335q8.5,0,13.42,2.59a17.51,17.51,0,0,1,7.46,7.31,30.36,30.36,0,0,1,3.21,11.38q.67,6.65.67,14.88,0,7.83-.62,14.48a34.29,34.29,0,0,1-2.9,11.48,17,17,0,0,1-6.79,7.52q-4.51,2.69-12.28,2.69H323.28Zm13.47,61.16a11.55,11.55,0,0,0,5-.86,5.61,5.61,0,0,0,2.64-3.51,29.07,29.07,0,0,0,1.09-7.57q.21-4.93.21-13.16t-.21-13.11a28.2,28.2,0,0,0-1.09-7.47,5.58,5.58,0,0,0-2.64-3.45,11.55,11.55,0,0,0-5-.87Z"/><path class="cls-1" d="M365.19,242.42h13.47v72.33H365.19Z"/><path class="cls-1" d="M408.55,268.22q0-1.22.05-3.91a31.6,31.6,0,0,0-.36-5.38,15.64,15.64,0,0,0-1.45-4.72,3.4,3.4,0,0,0-3.21-2,3.69,3.69,0,0,0-2.33.86,7.14,7.14,0,0,0-1.87,3.61,43.62,43.62,0,0,0-1.19,7.92q-.42,5.18-.42,13.92,0,8.94.42,14.17a40.12,40.12,0,0,0,1.24,8,6.54,6.54,0,0,0,2,3.56,4.75,4.75,0,0,0,2.75.81,3.51,3.51,0,0,0,3-1.62,11,11,0,0,0,1.66-3.81,27.35,27.35,0,0,0,.67-4.42q.16-2.23.16-3.55h-5V281h16.37v33.73h-5.7L413.52,310a16.06,16.06,0,0,1-4.35,4.27,10.88,10.88,0,0,1-6.32,1.93,15.59,15.59,0,0,1-9.07-2.54,17.66,17.66,0,0,1-5.91-7.37,42.29,42.29,0,0,1-3.21-11.79,114.2,114.2,0,0,1-1-15.9,86.9,86.9,0,0,1,1.5-17.52,39.5,39.5,0,0,1,4.09-11.63,16.9,16.9,0,0,1,6.06-6.45,14.9,14.9,0,0,1,7.51-2,23.39,23.39,0,0,1,6.42.91,13,13,0,0,1,5.7,3.4,18.14,18.14,0,0,1,4,6.91,34.71,34.71,0,0,1,1.55,11.33v4.67Z"/><path class="cls-1" d="M426.59,242.42h13.47v72.33H426.59Z"/><path class="cls-1" d="M454,253.59H442.43V242.42h36.68v11.17H467.51v61.16H454Z"/><path class="cls-1" d="M485.67,242.42h19.48l9.12,72.33h-13l-2-16.05H488.47l-1.87,16.05H475.31Zm8.6,11.17h-.21l-4.25,34.54h8.39Z"/><path class="cls-1" d="M517.63,242.42H531.1v61.16h17.2v11.17H517.63Z"/><path class="cls-1" d="M574.62,242.42H594.1l9.12,72.33h-13l-2-16.05H577.42l-1.87,16.05H564.25Zm8.6,11.17H583l-4.25,34.54h8.39Z"/><path class="cls-1" d="M606.33,242.42H619.5l12.33,38.2H632v-38.2h10.78v72.33H632.34L617.94,271h-.21v43.79h-11.4Z"/><path class="cls-1" d="M649.45,242.42h11.71q8.5,0,13.42,2.59a17.51,17.51,0,0,1,7.46,7.31,30.36,30.36,0,0,1,3.21,11.38q.67,6.65.67,14.88,0,7.83-.62,14.48a34.29,34.29,0,0,1-2.9,11.48,17,17,0,0,1-6.79,7.52q-4.51,2.69-12.28,2.69H649.45Zm13.47,61.16a11.55,11.55,0,0,0,5-.86,5.61,5.61,0,0,0,2.64-3.51,29.07,29.07,0,0,0,1.09-7.57q.21-4.93.21-13.16t-.21-13.11a28.2,28.2,0,0,0-1.09-7.47,5.58,5.58,0,0,0-2.64-3.45,11.55,11.55,0,0,0-5-.87Z"/><path class="cls-1" d="M14.61,386.95q0,1.52.1,3.46a15.42,15.42,0,0,0,.62,3.66A6.64,6.64,0,0,0,17,397a4.6,4.6,0,0,0,3.37,1.17,5.5,5.5,0,0,0,2.8-.66,5.64,5.64,0,0,0,1.86-1.73,7.25,7.25,0,0,0,1-2.29,9.45,9.45,0,0,0,.31-2.34,9.72,9.72,0,0,0-1.81-5.79,28.31,28.31,0,0,0-4.51-4.88q-2.7-2.33-5.91-4.77a40.75,40.75,0,0,1-5.91-5.49,28.19,28.19,0,0,1-4.51-7A22.27,22.27,0,0,1,2,353.83a25.3,25.3,0,0,1,1.14-7.67,18.48,18.48,0,0,1,3.32-6.25,15.89,15.89,0,0,1,5.44-4.21,17.1,17.1,0,0,1,7.51-1.57,17.08,17.08,0,0,1,7.77,1.63,14,14,0,0,1,5.23,4.52,20.45,20.45,0,0,1,3,7,41.82,41.82,0,0,1,1.09,8.94h-12q0-1.52-.1-3.4a16.75,16.75,0,0,0-.57-3.55,6.14,6.14,0,0,0-1.61-2.79,4.25,4.25,0,0,0-3.11-1.12,4.37,4.37,0,0,0-3.73,1.83A7.86,7.86,0,0,0,14,351.9a9.4,9.4,0,0,0,1.81,5.59,29.56,29.56,0,0,0,4.51,4.93q2.69,2.39,5.91,4.93A42.54,42.54,0,0,1,32.12,373a30.26,30.26,0,0,1,4.51,7.11,22,22,0,0,1,1.81,9.25,24.64,24.64,0,0,1-1.19,7.77,18.27,18.27,0,0,1-3.52,6.3,16.65,16.65,0,0,1-5.8,4.27,19.29,19.29,0,0,1-8,1.57,16.46,16.46,0,0,1-8.76-2.08,15.39,15.39,0,0,1-5.29-5.33,21,21,0,0,1-2.59-7.21,45.89,45.89,0,0,1-.67-7.72Z"/><path class="cls-1" d="M40.6,371.71A96.05,96.05,0,0,1,42,353.83a36.48,36.48,0,0,1,4-11.58A15.86,15.86,0,0,1,52.21,336a18.32,18.32,0,0,1,16.17,0,15.88,15.88,0,0,1,6.22,6.25,36.52,36.52,0,0,1,4,11.58A96.05,96.05,0,0,1,80,371.71a96,96,0,0,1-1.4,17.88,36.49,36.49,0,0,1-4,11.58,15.85,15.85,0,0,1-6.22,6.25,18.32,18.32,0,0,1-16.17,0A15.83,15.83,0,0,1,46,401.17a36.44,36.44,0,0,1-4-11.58A96,96,0,0,1,40.6,371.71Zm14.71,7.62q0,5.89.36,9.55a31.9,31.9,0,0,0,1,5.74,5.42,5.42,0,0,0,1.55,2.79,3.38,3.38,0,0,0,4.15,0,5.42,5.42,0,0,0,1.55-2.79,32,32,0,0,0,1-5.74q.36-3.66.36-9.55V364.09q0-5.89-.36-9.55a30.79,30.79,0,0,0-1-5.69,5.74,5.74,0,0,0-1.55-2.79,3.2,3.2,0,0,0-4.15,0,5.74,5.74,0,0,0-1.55,2.79,30.71,30.71,0,0,0-1,5.69q-.36,3.66-.36,9.55Z"/><path class="cls-1" d="M107.8,361.75q0-9-1.19-12.75t-3.68-3.71a3.83,3.83,0,0,0-2.07.66q-1,.66-1.81,3.3a43.88,43.88,0,0,0-1.24,7.92q-.47,5.28-.47,14.53,0,8.94.31,14.17a52.63,52.63,0,0,0,.93,8q.62,2.74,1.71,3.51a4.49,4.49,0,0,0,2.64.76q3.32,0,4.4-4.62A64.58,64.58,0,0,0,108.63,381l11.4.51a92.92,92.92,0,0,1-.52,9.7,28,28,0,0,1-2.38,8.94,17.08,17.08,0,0,1-5.34,6.6q-3.47,2.59-9.38,2.59a15.59,15.59,0,0,1-9.07-2.54,17.66,17.66,0,0,1-5.91-7.37,42.29,42.29,0,0,1-3.21-11.79,114.2,114.2,0,0,1-1-15.9,86.9,86.9,0,0,1,1.5-17.52,39.5,39.5,0,0,1,4.09-11.63,16.9,16.9,0,0,1,6.06-6.45,14.9,14.9,0,0,1,7.51-2q5.8,0,9.27,2.39a15.38,15.38,0,0,1,5.28,6.25,27.23,27.23,0,0,1,2.33,8.74,93.43,93.43,0,0,1,.52,9.86Z"/><path class="cls-1" d="M125,335.54h13.47v72.33H125Z"/><path class="cls-1" d="M152,335.54h19.48l9.12,72.33h-13l-2-16.05H154.79l-1.87,16.05H141.63Zm8.6,11.17h-.21l-4.25,34.54h8.39Z"/><path class="cls-1" d="M183.95,335.54h13.47V396.7h17.2v11.17H183.95Z"/><path class="cls-1" d="M219.46,394.67h13.47v13.21H219.46Z"/><path class="cls-1" d="M247.74,335.54h17.93l6,37.08h.21l6.32-37.08h17.51v72.33h-12v-53h-.21l-9.12,53h-7.46l-9-53h-.21v53h-9.95Z"/><path class="cls-1" d="M310,379.94l-12.33-44.39h13.37l6.42,28.34h.21l6.84-28.34h11.29l-12.33,43.18v29.16H310Z"/><path class="cls-1" d="M338.07,335.54H353.2a33.27,33.27,0,0,1,8.7,1.07,16.76,16.76,0,0,1,6.74,3.5,16.18,16.18,0,0,1,4.35,6.35,26.1,26.1,0,0,1,1.55,9.6,34.55,34.55,0,0,1-.36,4.88,23.07,23.07,0,0,1-1.29,5,18.76,18.76,0,0,1-2.44,4.47,12.3,12.3,0,0,1-3.78,3.35l8,34.13H361.08l-6.32-31.09h-3.21v31.09H338.07Zm13.47,30.68h2.69a5.57,5.57,0,0,0,3.16-.86,7,7,0,0,0,2.12-2.23,9.85,9.85,0,0,0,1.19-3.2,19.31,19.31,0,0,0,.36-3.76q0-5.89-2-8a7.23,7.23,0,0,0-5.44-2.08h-2.07Z"/><path class="cls-1" d="M378.66,335.54h13.47v72.33H378.66Z"/><path class="cls-1" d="M405.61,335.54h19.48l9.12,72.33h-13l-2-16.05H408.41l-1.87,16.05H395.25Zm8.6,11.17H414l-4.25,34.54h8.39Z"/><path class="cls-1" d="M437.33,335.54h17.93l6,37.08h.21l6.32-37.08h17.51v72.33h-12v-53h-.21l-9.12,53H456.5l-9-53h-.21v53h-9.95Z"/><path class="cls-1" d="M505.3,335.54h16.58a23,23,0,0,1,6.32.91,16,16,0,0,1,10.21,8.69,19.73,19.73,0,0,1,1.71,8.69,18.48,18.48,0,0,1-2.9,10.46q-2.9,4.37-9.12,5.69v.2q6.94,1.63,10.21,6.15a19,19,0,0,1,3.26,11.43A22.1,22.1,0,0,1,540,396.5a18.92,18.92,0,0,1-4.25,6.3,17.38,17.38,0,0,1-6.06,3.81,20.35,20.35,0,0,1-7.15,1.27H505.3Zm13.47,29.66q5.08,0,6.79-2.34t1.71-7.21a27.9,27.9,0,0,0-.36-5,5.64,5.64,0,0,0-1.35-2.95,4.77,4.77,0,0,0-2.64-1.32,23.5,23.5,0,0,0-4.14-.3Zm0,32.1a16.05,16.05,0,0,0,4.87-.61,5.74,5.74,0,0,0,2.85-1.88,7,7,0,0,0,1.29-3.3,32.7,32.7,0,0,0,.31-4.88,23.83,23.83,0,0,0-.36-4.37,7.41,7.41,0,0,0-1.4-3.25,6.25,6.25,0,0,0-2.85-2,14.06,14.06,0,0,0-4.71-.66Z"/><path class="cls-1" d="M545.73,335.54h15.13a33.27,33.27,0,0,1,8.7,1.07,16.76,16.76,0,0,1,6.74,3.5,16.18,16.18,0,0,1,4.35,6.35,26.1,26.1,0,0,1,1.55,9.6,34.55,34.55,0,0,1-.36,4.88,23.07,23.07,0,0,1-1.29,5,18.76,18.76,0,0,1-2.44,4.47,12.3,12.3,0,0,1-3.78,3.35l8,34.13H568.73l-6.32-31.09H559.2v31.09H545.73Zm13.47,30.68h2.69a5.57,5.57,0,0,0,3.16-.86,7,7,0,0,0,2.12-2.23,9.85,9.85,0,0,0,1.19-3.2,19.31,19.31,0,0,0,.36-3.76q0-5.89-2-8a7.23,7.23,0,0,0-5.44-2.08H559.2Z"/><path class="cls-1" d="M586.31,335.54h13.47v72.33H586.31Z"/><path class="cls-1" d="M606.19,335.54h13.16l12.33,38.2h.21v-38.2h10.78v72.33H632.2l-14.4-43.79h-.21v43.79h-11.4Z"/><path class="cls-1" d="M672.48,361.35q0-1.22.05-3.91a31.6,31.6,0,0,0-.36-5.38,15.64,15.64,0,0,0-1.45-4.72,3.4,3.4,0,0,0-3.21-2,3.69,3.69,0,0,0-2.33.86,7.14,7.14,0,0,0-1.87,3.61,43.62,43.62,0,0,0-1.19,7.92q-.42,5.18-.42,13.92,0,8.94.42,14.17a40.12,40.12,0,0,0,1.24,8,6.54,6.54,0,0,0,2,3.56,4.75,4.75,0,0,0,2.75.81,3.51,3.51,0,0,0,3-1.62,11,11,0,0,0,1.66-3.81,27.35,27.35,0,0,0,.67-4.42q.16-2.23.16-3.55h-5V374.14H685v33.73h-5.7l-1.87-4.77a16.06,16.06,0,0,1-4.35,4.27,10.88,10.88,0,0,1-6.32,1.93,15.59,15.59,0,0,1-9.07-2.54,17.66,17.66,0,0,1-5.91-7.37,42.29,42.29,0,0,1-3.21-11.79,114.2,114.2,0,0,1-1-15.9,86.9,86.9,0,0,1,1.5-17.52,39.5,39.5,0,0,1,4.09-11.63,16.9,16.9,0,0,1,6.06-6.45,14.9,14.9,0,0,1,7.51-2,23.39,23.39,0,0,1,6.42.91,13,13,0,0,1,5.7,3.4,18.14,18.14,0,0,1,4,6.91,34.71,34.71,0,0,1,1.55,11.33v4.67Z"/><path class="cls-1" d="M700.21,386.95q0,1.52.1,3.46a15.42,15.42,0,0,0,.62,3.66,6.64,6.64,0,0,0,1.71,2.9,4.6,4.6,0,0,0,3.37,1.17,5.5,5.5,0,0,0,2.8-.66,5.64,5.64,0,0,0,1.86-1.73,7.25,7.25,0,0,0,1-2.29,9.45,9.45,0,0,0,.31-2.34,9.72,9.72,0,0,0-1.81-5.79,28.31,28.31,0,0,0-4.51-4.88q-2.7-2.33-5.91-4.77a40.75,40.75,0,0,1-5.91-5.49,28.19,28.19,0,0,1-4.51-7,22.27,22.27,0,0,1-1.81-9.35,25.3,25.3,0,0,1,1.14-7.67,18.48,18.48,0,0,1,3.32-6.25,15.89,15.89,0,0,1,5.44-4.21,19.06,19.06,0,0,1,15.29.05,14,14,0,0,1,5.23,4.52,20.45,20.45,0,0,1,3,7,41.82,41.82,0,0,1,1.09,8.94H710q0-1.52-.1-3.4a16.75,16.75,0,0,0-.57-3.55,6.14,6.14,0,0,0-1.61-2.79,4.25,4.25,0,0,0-3.11-1.12,4.37,4.37,0,0,0-3.73,1.83,7.86,7.86,0,0,0-1.35,4.78,9.4,9.4,0,0,0,1.81,5.59,29.56,29.56,0,0,0,4.51,4.93q2.69,2.39,5.91,4.93a42.54,42.54,0,0,1,5.91,5.69,30.26,30.26,0,0,1,4.51,7.11,22,22,0,0,1,1.81,9.25,24.64,24.64,0,0,1-1.19,7.77,18.27,18.27,0,0,1-3.52,6.3,16.65,16.65,0,0,1-5.8,4.27,19.29,19.29,0,0,1-8,1.57,16.46,16.46,0,0,1-8.76-2.08,15.39,15.39,0,0,1-5.29-5.33,21,21,0,0,1-2.59-7.21,45.89,45.89,0,0,1-.67-7.72Z"/><path class="cls-1" d="M5.39,428.67H17.1q8.5,0,13.42,2.59A17.51,17.51,0,0,1,38,438.57a30.36,30.36,0,0,1,3.21,11.38q.67,6.65.67,14.88,0,7.83-.62,14.48a34.29,34.29,0,0,1-2.9,11.48,17,17,0,0,1-6.79,7.52Q27,501,19.27,501H5.39Zm13.47,61.16a11.55,11.55,0,0,0,5-.86,5.61,5.61,0,0,0,2.64-3.51,29.07,29.07,0,0,0,1.09-7.57q.21-4.93.21-13.16t-.21-13.11a28.2,28.2,0,0,0-1.09-7.47,5.58,5.58,0,0,0-2.64-3.45,11.55,11.55,0,0,0-5-.87Z"/><path class="cls-1" d="M47.46,428.67H77.92v11.17h-17v18.49H73.47v11.79H60.93v19.71H78.65V501H47.46Z"/><path class="cls-1" d="M82.14,428.67h30.46v11.17h-17v18.49h12.54v11.79H95.61v19.71h17.72V501H82.14Z"/><path class="cls-1" d="M116.82,428.67h13.47q11.4,0,17.3,5t5.91,16.66a37.32,37.32,0,0,1-1,8.89,18.3,18.3,0,0,1-3.16,6.86,14.69,14.69,0,0,1-5.54,4.42,19.08,19.08,0,0,1-8.13,1.57h-5.39v29H116.82Zm13.57,32.81h1.14a12.84,12.84,0,0,0,3.63-.46,5.6,5.6,0,0,0,2.64-1.68,8.11,8.11,0,0,0,1.66-3.35,21.35,21.35,0,0,0,.57-5.38,19.85,19.85,0,0,0-.73-6.1,7.4,7.4,0,0,0-1.92-3.2,5,5,0,0,0-2.75-1.27,24.92,24.92,0,0,0-3.21-.2h-1Z"/><path class="cls-1" d="M173.09,428.67h30.15v11.17H186.56v19.3h12.33v11.79H186.56V501H173.09Z"/><path class="cls-1" d="M206,428.67H224l6,37.08h.21l6.32-37.08H254V501H242V448h-.21l-9.12,53H225.2l-9-53H216v53H206Z"/><path class="cls-1" d="M283.44,454.88q0-9-1.19-12.75t-3.68-3.71a3.83,3.83,0,0,0-2.07.66q-1,.66-1.81,3.3a43.88,43.88,0,0,0-1.24,7.92q-.47,5.28-.47,14.53,0,8.94.31,14.17a52.63,52.63,0,0,0,.93,8q.62,2.74,1.71,3.51a4.49,4.49,0,0,0,2.64.76q3.32,0,4.4-4.62a64.58,64.58,0,0,0,1.29-12.55l11.4.51a92.92,92.92,0,0,1-.52,9.7,28,28,0,0,1-2.38,8.94,17.08,17.08,0,0,1-5.34,6.6q-3.47,2.59-9.38,2.59a15.59,15.59,0,0,1-9.07-2.54,17.66,17.66,0,0,1-5.91-7.37,42.29,42.29,0,0,1-3.21-11.79,114.2,114.2,0,0,1-1-15.9,86.9,86.9,0,0,1,1.5-17.52,39.5,39.5,0,0,1,4.09-11.63,16.9,16.9,0,0,1,6.06-6.45,14.9,14.9,0,0,1,7.51-2q5.8,0,9.27,2.39a15.38,15.38,0,0,1,5.28,6.25,27.23,27.23,0,0,1,2.33,8.74,93.43,93.43,0,0,1,.52,9.86Z"/><path class="cls-1" d="M324,454.47q0-1.22.05-3.91a31.6,31.6,0,0,0-.36-5.38,15.64,15.64,0,0,0-1.45-4.72,3.4,3.4,0,0,0-3.21-2,3.69,3.69,0,0,0-2.33.86,7.14,7.14,0,0,0-1.87,3.61,43.62,43.62,0,0,0-1.19,7.92q-.42,5.18-.42,13.92,0,8.94.42,14.17a40.12,40.12,0,0,0,1.24,8,6.54,6.54,0,0,0,2,3.56,4.75,4.75,0,0,0,2.75.81,3.51,3.51,0,0,0,3-1.62,11,11,0,0,0,1.66-3.81,27.35,27.35,0,0,0,.67-4.42q.16-2.23.16-3.55h-5V467.27h16.37V501h-5.7l-1.87-4.77a16.06,16.06,0,0,1-4.35,4.27,10.88,10.88,0,0,1-6.32,1.93,15.59,15.59,0,0,1-9.07-2.54,17.66,17.66,0,0,1-5.91-7.37,42.29,42.29,0,0,1-3.21-11.79,114.2,114.2,0,0,1-1-15.9,86.9,86.9,0,0,1,1.5-17.52,39.5,39.5,0,0,1,4.09-11.63,16.9,16.9,0,0,1,6.06-6.45,14.9,14.9,0,0,1,7.51-2,23.39,23.39,0,0,1,6.42.91,13,13,0,0,1,5.7,3.4,18.14,18.14,0,0,1,4,6.91A34.71,34.71,0,0,1,336,449.8v4.67Z"/><path class="cls-1" d="M359.2,428.67h30.46v11.17h-17v18.49h12.54v11.79H372.67v19.71h17.72V501H359.2Z"/><path class="cls-1" d="M403.52,464.12l-11.81-35.46h13.47l5.6,19.4H411l5-19.4h11.5l-11,33.63L429.53,501H416l-6.53-21.74h-.21L403,501H391.6Z"/><path class="cls-1" d="M432.27,428.67h13.47q11.4,0,17.3,5T469,450.3a37.32,37.32,0,0,1-1,8.89,18.3,18.3,0,0,1-3.16,6.86,14.69,14.69,0,0,1-5.54,4.42,19.08,19.08,0,0,1-8.13,1.57h-5.39v29H432.27Zm13.57,32.81H447a12.84,12.84,0,0,0,3.63-.46,5.6,5.6,0,0,0,2.64-1.68,8.11,8.11,0,0,0,1.66-3.35,21.35,21.35,0,0,0,.57-5.38,19.85,19.85,0,0,0-.73-6.1,7.4,7.4,0,0,0-1.92-3.2A5,5,0,0,0,450.1,440a24.92,24.92,0,0,0-3.21-.2h-1Z"/><path class="cls-1" d="M471.7,428.67h30.46v11.17h-17v18.49h12.54v11.79H485.17v19.71h17.72V501H471.7Z"/><path class="cls-1" d="M506.38,428.67h15.13a33.27,33.27,0,0,1,8.7,1.07,16.76,16.76,0,0,1,6.74,3.5,16.18,16.18,0,0,1,4.35,6.35,26.1,26.1,0,0,1,1.55,9.6,34.55,34.55,0,0,1-.36,4.88,23.07,23.07,0,0,1-1.29,5,18.76,18.76,0,0,1-2.44,4.47,12.3,12.3,0,0,1-3.78,3.35L543,501H529.39l-6.32-31.09h-3.21V501H506.38Zm13.47,30.68h2.69a5.57,5.57,0,0,0,3.16-.86,7,7,0,0,0,2.12-2.23A9.85,9.85,0,0,0,529,453a19.31,19.31,0,0,0,.36-3.76q0-5.89-2-8a7.23,7.23,0,0,0-5.44-2.08h-2.07Z"/><path class="cls-1" d="M547,428.67h13.47V501H547Z"/><path class="cls-1" d="M567.08,428.67h30.46v11.17h-17v18.49h12.54v11.79H580.55v19.71h17.72V501H567.08Z"/><path class="cls-1" d="M601.54,428.67H614.7L627,466.86h.21v-38.2H638V501H627.55l-14.4-43.79h-.21V501h-11.4Z"/><path class="cls-1" d="M667.51,454.88q0-9-1.19-12.75t-3.68-3.71a3.83,3.83,0,0,0-2.07.66q-1,.66-1.81,3.3a43.88,43.88,0,0,0-1.24,7.92q-.47,5.28-.47,14.53,0,8.94.31,14.17a52.63,52.63,0,0,0,.93,8q.62,2.74,1.71,3.51a4.49,4.49,0,0,0,2.64.76q3.32,0,4.4-4.62a64.58,64.58,0,0,0,1.29-12.55l11.4.51a92.92,92.92,0,0,1-.52,9.7,28,28,0,0,1-2.38,8.94,17.08,17.08,0,0,1-5.34,6.6q-3.47,2.59-9.38,2.59a15.59,15.59,0,0,1-9.07-2.54,17.66,17.66,0,0,1-5.91-7.37,42.29,42.29,0,0,1-3.21-11.79,114.2,114.2,0,0,1-1-15.9,86.9,86.9,0,0,1,1.5-17.52,39.5,39.5,0,0,1,4.09-11.63,16.9,16.9,0,0,1,6.06-6.45,14.9,14.9,0,0,1,7.51-2q5.8,0,9.27,2.39a15.38,15.38,0,0,1,5.28,6.25,27.23,27.23,0,0,1,2.33,8.74,93.43,93.43,0,0,1,.52,9.86Z"/><path class="cls-1" d="M684.89,428.67h30.46v11.17h-17v18.49H710.9v11.79H698.36v19.71h17.72V501H684.89Z"/><path class="cls-1" d="M725.47,501h-5V487.79H734V500l-8,16.25H720.6Z"/><path class="cls-1" d="M11.61,533H0V521.79H36.68V533H25.08v61.16H11.61Z"/><path class="cls-1" d="M43.24,521.79H62.72l9.12,72.33h-13l-2-16.05H46l-1.87,16.05H32.88ZM51.84,533h-.21l-4.25,34.54h8.39Z"/><path class="cls-1" d="M75.2,521.79H88.67v30.28h.21l11.19-30.28h12L102,546.07l12.12,48.05h-13l-7.46-32.41h-.21L88.67,573.1v21H75.2Z"/><path class="cls-1" d="M117.31,521.79h13.47v72.33H117.31Z"/><path class="cls-1" d="M137.18,521.79h13.16L162.67,560h.21v-38.2h10.78v72.33H163.19l-14.4-43.79h-.21v43.79h-11.4Z"/><path class="cls-1" d="M203.47,547.6q0-1.22.05-3.91a31.58,31.58,0,0,0-.36-5.38,15.64,15.64,0,0,0-1.45-4.72,3.4,3.4,0,0,0-3.21-2,3.69,3.69,0,0,0-2.33.86A7.13,7.13,0,0,0,194.3,536a43.64,43.64,0,0,0-1.19,7.93q-.42,5.18-.42,13.92,0,8.94.42,14.17a40.14,40.14,0,0,0,1.24,8,6.53,6.53,0,0,0,2,3.55,4.75,4.75,0,0,0,2.75.81,3.51,3.51,0,0,0,3-1.62,11,11,0,0,0,1.66-3.81,27.41,27.41,0,0,0,.67-4.42q.16-2.23.16-3.56h-5V560.4H216v33.73h-5.7l-1.87-4.78a16.1,16.1,0,0,1-4.35,4.27,10.88,10.88,0,0,1-6.32,1.93A15.59,15.59,0,0,1,188.7,593a17.67,17.67,0,0,1-5.91-7.37,42.31,42.31,0,0,1-3.21-11.79,114.24,114.24,0,0,1-1-15.9,86.93,86.93,0,0,1,1.5-17.53,39.52,39.52,0,0,1,4.09-11.63,16.93,16.93,0,0,1,6.06-6.45,14.9,14.9,0,0,1,7.51-2,23.39,23.39,0,0,1,6.42.91,13,13,0,0,1,5.7,3.4,18.13,18.13,0,0,1,4,6.91,34.7,34.7,0,0,1,1.55,11.33v4.67Z"/><path class="cls-1" d="M238.7,521.79h30.15V533H252.17v19.3H264.5v11.78H252.17v30.07H238.7Z"/><path class="cls-1" d="M271.64,521.79h13.47v56a17.92,17.92,0,0,0,.16,2.39,6.16,6.16,0,0,0,.67,2.13,3.86,3.86,0,0,0,1.45,1.52,4.57,4.57,0,0,0,2.38.56,4,4,0,0,0,3.89-2,9.44,9.44,0,0,0,1.09-4.62v-56h11.4V576q0,10.67-4.56,15.09t-12.64,4.42a22.11,22.11,0,0,1-7.1-1.07,13.76,13.76,0,0,1-5.44-3.35,15.11,15.11,0,0,1-3.52-6,28.86,28.86,0,0,1-1.24-9.09Z"/><path class="cls-1" d="M312.72,521.79h13.47v61.16h17.2v11.18H312.72Z"/><path class="cls-1" d="M347.12,521.79h13.47v61.16h17.2v11.18H347.12Z"/><path class="cls-1" d="M389.29,558a96.05,96.05,0,0,1,1.4-17.88,36.49,36.49,0,0,1,4-11.58,15.87,15.87,0,0,1,6.22-6.25,18.32,18.32,0,0,1,16.17,0,15.89,15.89,0,0,1,6.22,6.25,36.54,36.54,0,0,1,4,11.58,115,115,0,0,1,0,35.76,36.5,36.5,0,0,1-4,11.58,15.88,15.88,0,0,1-6.22,6.25,18.32,18.32,0,0,1-16.17,0,15.86,15.86,0,0,1-6.22-6.25,36.45,36.45,0,0,1-4-11.58A96,96,0,0,1,389.29,558ZM404,565.58q0,5.89.36,9.55a31.93,31.93,0,0,0,1,5.74,5.41,5.41,0,0,0,1.55,2.79,3.38,3.38,0,0,0,4.15,0,5.41,5.41,0,0,0,1.55-2.79,32,32,0,0,0,1-5.74q.36-3.66.36-9.55V550.34q0-5.89-.36-9.55a30.82,30.82,0,0,0-1-5.69,5.74,5.74,0,0,0-1.55-2.79,3.2,3.2,0,0,0-4.15,0,5.74,5.74,0,0,0-1.55,2.79,30.74,30.74,0,0,0-1,5.69q-.36,3.66-.36,9.55Z"/><path class="cls-1" d="M429.32,521.79h12.23l4.77,42.46h.21l6.42-42.46h12.12L471,564.26h.21l5.28-42.46h9.64l-9.64,72.33H464.24l-6.42-45.82h-.21L451,594.13H439.16Z"/><path class="cls-1" d="M489.13,521.79h13.16L514.62,560h.21v-38.2h10.78v72.33H515.14l-14.4-43.79h-.21v43.79h-11.4Z"/><path class="cls-1" d="M532.25,521.79h30.46V533h-17v18.49h12.54v11.78H545.72v19.71h17.72v11.18H532.25Z"/><path class="cls-1" d="M566.93,521.79h15.13a33.27,33.27,0,0,1,8.7,1.07,16.78,16.78,0,0,1,6.74,3.51,16.15,16.15,0,0,1,4.35,6.35,26.08,26.08,0,0,1,1.55,9.6,34.58,34.58,0,0,1-.36,4.88,23.13,23.13,0,0,1-1.29,5,18.75,18.75,0,0,1-2.44,4.47,12.31,12.31,0,0,1-3.78,3.35l8,34.13H589.93L583.61,563H580.4v31.09H566.93Zm13.47,30.68h2.69a5.57,5.57,0,0,0,3.16-.86,7,7,0,0,0,2.12-2.24,9.86,9.86,0,0,0,1.19-3.2,19.33,19.33,0,0,0,.36-3.76q0-5.89-2-8a7.24,7.24,0,0,0-5.44-2.08H580.4Z"/><path class="cls-1" d="M618.19,573.2q0,1.52.1,3.45a15.44,15.44,0,0,0,.62,3.66,6.62,6.62,0,0,0,1.71,2.89,4.6,4.6,0,0,0,3.37,1.17,5.5,5.5,0,0,0,2.8-.66,5.64,5.64,0,0,0,1.86-1.73,7.23,7.23,0,0,0,1-2.29,9.46,9.46,0,0,0,.31-2.34,9.72,9.72,0,0,0-1.81-5.79,28.24,28.24,0,0,0-4.51-4.88q-2.7-2.33-5.91-4.78a40.54,40.54,0,0,1-5.91-5.49,28.15,28.15,0,0,1-4.51-7,22.26,22.26,0,0,1-1.81-9.35,25.28,25.28,0,0,1,1.14-7.67,18.45,18.45,0,0,1,3.32-6.25,15.9,15.9,0,0,1,5.44-4.22,19.06,19.06,0,0,1,15.29.05,14,14,0,0,1,5.23,4.52,20.45,20.45,0,0,1,3,7,41.84,41.84,0,0,1,1.09,8.94H628q0-1.52-.1-3.4a16.77,16.77,0,0,0-.57-3.56,6.13,6.13,0,0,0-1.61-2.79,4.25,4.25,0,0,0-3.11-1.12,4.37,4.37,0,0,0-3.73,1.83,7.85,7.85,0,0,0-1.35,4.78,9.39,9.39,0,0,0,1.81,5.59,29.41,29.41,0,0,0,4.51,4.93q2.69,2.39,5.91,4.93a42.31,42.31,0,0,1,5.91,5.69,30.22,30.22,0,0,1,4.51,7.11,22,22,0,0,1,1.81,9.24,24.63,24.63,0,0,1-1.19,7.77,18.25,18.25,0,0,1-3.52,6.3,16.65,16.65,0,0,1-5.8,4.27,19.29,19.29,0,0,1-8,1.57,16.46,16.46,0,0,1-8.76-2.08,15.43,15.43,0,0,1-5.29-5.33,21,21,0,0,1-2.59-7.21,45.92,45.92,0,0,1-.67-7.72Z"/><path class="cls-1" d="M645.71,521.79h13.47v29.06h8.5V521.79h13.47v72.33H667.68V563.44h-8.5v30.68H645.71Z"/><path class="cls-1" d="M687.73,521.79H701.2v72.33H687.73Z"/><path class="cls-1" d="M707.84,521.79h13.47q11.4,0,17.3,5t5.91,16.66a37.33,37.33,0,0,1-1,8.89,18.32,18.32,0,0,1-3.16,6.86,14.69,14.69,0,0,1-5.54,4.42,19.08,19.08,0,0,1-8.13,1.58h-5.39v29H707.84Zm13.57,32.81h1.14a12.91,12.91,0,0,0,3.63-.46,5.6,5.6,0,0,0,2.64-1.68,8.12,8.12,0,0,0,1.66-3.35,21.34,21.34,0,0,0,.57-5.38,19.84,19.84,0,0,0-.73-6.09,7.4,7.4,0,0,0-1.92-3.2,5,5,0,0,0-2.75-1.27,24.92,24.92,0,0,0-3.21-.2h-1Z"/><path class="cls-1" d="M3.42,651.08a96.05,96.05,0,0,1,1.4-17.88,36.49,36.49,0,0,1,4-11.58A15.87,15.87,0,0,1,15,615.37a17.31,17.31,0,0,1,8.08-1.88,17.32,17.32,0,0,1,8.08,1.88,15.89,15.89,0,0,1,6.22,6.25,36.54,36.54,0,0,1,4,11.58,96.05,96.05,0,0,1,1.4,17.88A96,96,0,0,1,41.4,669a36.5,36.5,0,0,1-4,11.58,15.88,15.88,0,0,1-6.22,6.25,17.32,17.32,0,0,1-8.08,1.88A17.31,17.31,0,0,1,15,686.79a15.86,15.86,0,0,1-6.22-6.25,36.45,36.45,0,0,1-4-11.58A96,96,0,0,1,3.42,651.08Zm14.71,7.62q0,5.89.36,9.55a31.93,31.93,0,0,0,1,5.74A5.41,5.41,0,0,0,21,676.79a3.38,3.38,0,0,0,4.15,0A5.41,5.41,0,0,0,26.73,674a32,32,0,0,0,1-5.74q.36-3.66.36-9.55V643.46q0-5.89-.36-9.55a30.82,30.82,0,0,0-1-5.69,5.74,5.74,0,0,0-1.55-2.79,3.2,3.2,0,0,0-4.15,0,5.74,5.74,0,0,0-1.55,2.79,30.74,30.74,0,0,0-1,5.69q-.36,3.66-.36,9.55Z"/><path class="cls-1" d="M47.82,614.92H78v11.18H61.29v19.3H73.62v11.78H61.29v30.07H47.82Z"/><path class="cls-1" d="M102.84,614.92h19.48l9.12,72.33h-13l-2-16.05H105.64l-1.87,16.05H92.48Zm8.6,11.18h-.21L107,660.63h8.39Z"/><path class="cls-1" d="M134.8,614.92h13.47v61.16h17.2v11.18H134.8Z"/><path class="cls-1" d="M169.2,614.92h13.47v61.16h17.2v11.18H169.2Z"/><path class="cls-1" d="M217.49,614.92H231V644h8.5V614.92h13.47v72.33H239.45V656.57H231v30.68H217.49Z"/><path class="cls-1" d="M259.74,614.92h30.46v11.18h-17v18.49h12.54v11.78H273.21v19.71h17.72v11.18H259.74Z"/><path class="cls-1" d="M294.42,614.92h15.13a33.27,33.27,0,0,1,8.7,1.07,16.78,16.78,0,0,1,6.74,3.51,16.15,16.15,0,0,1,4.35,6.35,26.08,26.08,0,0,1,1.55,9.6,34.58,34.58,0,0,1-.36,4.88,23.13,23.13,0,0,1-1.29,5,18.75,18.75,0,0,1-2.44,4.47,12.31,12.31,0,0,1-3.78,3.35l8,34.13H317.43l-6.32-31.09H307.9v31.09H294.42ZM307.9,645.6h2.69a5.57,5.57,0,0,0,3.16-.86,7,7,0,0,0,2.12-2.24,9.86,9.86,0,0,0,1.19-3.2,19.33,19.33,0,0,0,.36-3.76q0-5.89-2-8a7.24,7.24,0,0,0-5.44-2.08H307.9Z"/><path class="cls-1" d="M357.11,614.92h19.48l9.12,72.33h-13l-2-16.05H359.91L358,687.25H346.75Zm8.6,11.18h-.21l-4.25,34.54h8.39Z"/><path class="cls-1" d="M411.3,641.13q0-9-1.19-12.75t-3.68-3.71a3.83,3.83,0,0,0-2.07.66q-1,.66-1.81,3.3a43.91,43.91,0,0,0-1.24,7.92q-.47,5.29-.47,14.53,0,8.94.31,14.17a52.67,52.67,0,0,0,.93,8q.62,2.74,1.71,3.5a4.49,4.49,0,0,0,2.64.76q3.32,0,4.4-4.62a64.6,64.6,0,0,0,1.29-12.55l11.4.51a92.88,92.88,0,0,1-.52,9.7,28,28,0,0,1-2.38,8.94,17.09,17.09,0,0,1-5.34,6.6q-3.47,2.59-9.38,2.59a15.59,15.59,0,0,1-9.07-2.54,17.67,17.67,0,0,1-5.91-7.37A42.31,42.31,0,0,1,387.72,667a114.24,114.24,0,0,1-1-15.9,86.93,86.93,0,0,1,1.5-17.53,39.52,39.52,0,0,1,4.09-11.63,16.93,16.93,0,0,1,6.06-6.45,14.9,14.9,0,0,1,7.51-2q5.8,0,9.27,2.39a15.41,15.41,0,0,1,5.28,6.25,27.25,27.25,0,0,1,2.33,8.74,93.36,93.36,0,0,1,.52,9.85Z"/><path class="cls-1" d="M451.51,641.13q0-9-1.19-12.75t-3.68-3.71a3.83,3.83,0,0,0-2.07.66q-1,.66-1.81,3.3a43.91,43.91,0,0,0-1.24,7.92q-.47,5.29-.47,14.53,0,8.94.31,14.17a52.67,52.67,0,0,0,.93,8q.62,2.74,1.71,3.5a4.49,4.49,0,0,0,2.64.76q3.32,0,4.4-4.62a64.6,64.6,0,0,0,1.29-12.55l11.4.51a92.88,92.88,0,0,1-.52,9.7,28,28,0,0,1-2.38,8.94,17.09,17.09,0,0,1-5.34,6.6q-3.47,2.59-9.38,2.59a15.59,15.59,0,0,1-9.07-2.54,17.67,17.67,0,0,1-5.91-7.37A42.31,42.31,0,0,1,427.94,667a114.24,114.24,0,0,1-1-15.9,86.93,86.93,0,0,1,1.5-17.53,39.52,39.52,0,0,1,4.09-11.63,16.93,16.93,0,0,1,6.06-6.45,14.9,14.9,0,0,1,7.51-2q5.8,0,9.27,2.39a15.41,15.41,0,0,1,5.28,6.25,27.25,27.25,0,0,1,2.33,8.74,93.36,93.36,0,0,1,.52,9.85Z"/><path class="cls-1" d="M467.17,651.08a96.05,96.05,0,0,1,1.4-17.88,36.49,36.49,0,0,1,4-11.58,15.87,15.87,0,0,1,6.22-6.25,18.32,18.32,0,0,1,16.17,0,15.89,15.89,0,0,1,6.22,6.25,36.54,36.54,0,0,1,4,11.58,115,115,0,0,1,0,35.76,36.5,36.5,0,0,1-4,11.58,15.88,15.88,0,0,1-6.22,6.25,18.32,18.32,0,0,1-16.17,0,15.86,15.86,0,0,1-6.22-6.25,36.45,36.45,0,0,1-4-11.58A96,96,0,0,1,467.17,651.08Zm14.71,7.62q0,5.89.36,9.55a31.93,31.93,0,0,0,1,5.74,5.41,5.41,0,0,0,1.55,2.79,3.38,3.38,0,0,0,4.15,0,5.41,5.41,0,0,0,1.55-2.79,32,32,0,0,0,1-5.74q.36-3.66.36-9.55V643.46q0-5.89-.36-9.55a30.82,30.82,0,0,0-1-5.69,5.74,5.74,0,0,0-1.55-2.79,3.2,3.2,0,0,0-4.15,0,5.74,5.74,0,0,0-1.55,2.79,30.74,30.74,0,0,0-1,5.69q-.36,3.66-.36,9.55Z"/><path class="cls-1" d="M511.19,614.92h13.47v56a17.92,17.92,0,0,0,.16,2.39,6.16,6.16,0,0,0,.67,2.13,3.86,3.86,0,0,0,1.45,1.52,4.57,4.57,0,0,0,2.38.56,4,4,0,0,0,3.89-2,9.44,9.44,0,0,0,1.09-4.62v-56h11.4v54.25q0,10.67-4.56,15.09t-12.64,4.42a22.11,22.11,0,0,1-7.1-1.07,13.76,13.76,0,0,1-5.44-3.35,15.11,15.11,0,0,1-3.52-6,28.86,28.86,0,0,1-1.24-9.09Z"/><path class="cls-1" d="M552,614.92h13.16l12.33,38.2h.21v-38.2H588.5v72.33H578l-14.4-43.79h-.21v43.79H552Z"/><path class="cls-1" d="M602.49,626.09H590.88V614.92h36.68v11.18H616v61.16H602.49Z"/><path class="cls-1" d="M640.88,666.32q0,1.52.1,3.45a15.44,15.44,0,0,0,.62,3.66,6.62,6.62,0,0,0,1.71,2.89,4.6,4.6,0,0,0,3.37,1.17,5.5,5.5,0,0,0,2.8-.66,5.64,5.64,0,0,0,1.86-1.73,7.23,7.23,0,0,0,1-2.29,9.46,9.46,0,0,0,.31-2.34,9.72,9.72,0,0,0-1.81-5.79,28.24,28.24,0,0,0-4.51-4.88q-2.7-2.33-5.91-4.78a40.54,40.54,0,0,1-5.91-5.49,28.15,28.15,0,0,1-4.51-7,22.26,22.26,0,0,1-1.81-9.35,25.28,25.28,0,0,1,1.14-7.67,18.45,18.45,0,0,1,3.32-6.25,15.9,15.9,0,0,1,5.44-4.22,19.06,19.06,0,0,1,15.29.05,14,14,0,0,1,5.23,4.52,20.45,20.45,0,0,1,3,7,41.84,41.84,0,0,1,1.09,8.94h-12q0-1.52-.1-3.4a16.77,16.77,0,0,0-.57-3.56,6.13,6.13,0,0,0-1.61-2.79,4.25,4.25,0,0,0-3.11-1.12,4.37,4.37,0,0,0-3.73,1.83,7.85,7.85,0,0,0-1.35,4.78,9.39,9.39,0,0,0,1.81,5.59,29.41,29.41,0,0,0,4.51,4.93q2.69,2.39,5.91,4.93a42.31,42.31,0,0,1,5.91,5.69,30.22,30.22,0,0,1,4.51,7.11,22,22,0,0,1,1.81,9.24,24.63,24.63,0,0,1-1.19,7.77,18.25,18.25,0,0,1-3.52,6.3,16.65,16.65,0,0,1-5.8,4.27,19.29,19.29,0,0,1-8,1.57,16.46,16.46,0,0,1-8.76-2.08,15.43,15.43,0,0,1-5.29-5.33,21,21,0,0,1-2.59-7.21,45.92,45.92,0,0,1-.67-7.72Z"/><path class="cls-1" d="M668.25,674h13.47v13.21H668.25Z"/><rect class="cls-1" x="3.27" y="71.05" width="410.39" height="16.93"/><path class="cls-1" d="M3.12.89H14.17l3.71,23.32H18L21.9.89H32.7V46.38H25.29V13h-.13L19.54,46.38h-4.6L9.38,13H9.25V46.38H3.12Z"/><path class="cls-1" d="M41.64,28.81,34,.89h8.24l4,17.82h.13L50.58.89h7L49.94,28V46.38H41.64Z"/><path class="cls-1" d="M59,.89h9.33a20.13,20.13,0,0,1,5.37.67,10.25,10.25,0,0,1,4.15,2.21,10.16,10.16,0,0,1,2.68,4,16.71,16.71,0,0,1,1,6,22.09,22.09,0,0,1-.22,3.07A14.71,14.71,0,0,1,80.5,20,11.85,11.85,0,0,1,79,22.81a7.65,7.65,0,0,1-2.33,2.11l4.92,21.47H73.21l-3.9-19.55h-2V46.38H59Zm8.31,19.29H69a3.39,3.39,0,0,0,1.95-.54,4.38,4.38,0,0,0,1.31-1.41,6.29,6.29,0,0,0,.73-2,12.42,12.42,0,0,0,.22-2.37q0-3.7-1.25-5a4.42,4.42,0,0,0-3.35-1.31H67.33Z"/><path class="cls-1" d="M84.18.89h8.31V46.38H84.18Z"/><path class="cls-1" d="M100.91.89h12l5.62,45.49h-8l-1.21-10.1h-6.71l-1.15,10.1h-7Zm5.3,7h-.13l-2.62,21.72h5.17Z"/><path class="cls-1" d="M120.59.89h11.05l3.71,23.32h.13L139.37.89h10.8V46.38h-7.41V13h-.13L137,46.38h-4.6L126.85,13h-.13V46.38h-6.13Z"/><path class="cls-1" d="M181.73,17.12q0-.77,0-2.46a20.15,20.15,0,0,0-.22-3.39,10,10,0,0,0-.89-3,2.09,2.09,0,0,0-2-1.28,2.25,2.25,0,0,0-1.44.54,4.52,4.52,0,0,0-1.15,2.27,27.85,27.85,0,0,0-.74,5q-.26,3.26-.26,8.75t.26,8.91a25.77,25.77,0,0,0,.77,5,4.13,4.13,0,0,0,1.25,2.24,2.9,2.9,0,0,0,1.69.51,2.15,2.15,0,0,0,1.85-1,7,7,0,0,0,1-2.4,17.43,17.43,0,0,0,.42-2.78q.1-1.4.1-2.24h-3.07V25.17h10.09V46.38h-3.51l-1.15-3a10,10,0,0,1-2.68,2.68,6.61,6.61,0,0,1-3.9,1.21,9.46,9.46,0,0,1-5.59-1.6A11.08,11.08,0,0,1,169,41a27,27,0,0,1-2-7.41,73.38,73.38,0,0,1-.61-10,55.79,55.79,0,0,1,.93-11,25.17,25.17,0,0,1,2.52-7.31,10.52,10.52,0,0,1,3.74-4.06A9,9,0,0,1,178.21,0a14.18,14.18,0,0,1,4,.57,8,8,0,0,1,3.51,2.14,11.46,11.46,0,0,1,2.49,4.34,22.22,22.22,0,0,1,1,7.13v2.94Z"/><path class="cls-1" d="M193.11.89h8.31V19.17h5.24V.89H215V46.38h-8.31V27.09h-5.24V46.38h-8.31Z"/><path class="cls-1" d="M223.5.89h12l5.62,45.49h-8l-1.21-10.1h-6.71l-1.15,10.1h-7Zm5.3,7h-.13l-2.62,21.72h5.17Z"/><path class="cls-1" d="M242.16,41.72l10.48-33.8H243v-7h19V5.11l-10.8,34.24h10.48v7H242.16Z"/><path class="cls-1" d="M269.26.89h12l5.62,45.49h-8l-1.21-10.1H271l-1.15,10.1h-7Zm5.3,7h-.13l-2.62,21.72H277Z"/><path class="cls-1" d="M289.09.89h8.31V39.36H308v7H289.09Z"/><path class="cls-1" d="M331.13,0h5.75L322.57,47.28h-5.62Z"/><path class="cls-1" d="M351.7.89h12l5.62,45.49h-8l-1.21-10.1h-6.71l-1.15,10.1h-7Zm5.3,7h-.13l-2.62,21.72h5.17Z"/><path class="cls-1" d="M371.38.89h11.05l3.71,23.32h.13L390.16.89H401V46.38h-7.41V13h-.13L387.8,46.38h-4.6L377.64,13h-.13V46.38h-6.13Z"/></g></g></svg>