<svg xmlns="http://www.w3.org/2000/svg" viewBox="0 0 848.03 686.54"><defs><style>.cls-1{fill:#da2128;}</style></defs><title>Nadine</title><g id="Layer_2" data-name="Layer 2"><g id="Layer_1-2" data-name="Layer 1"><path class="cls-1" d="M1,.89H9.12l7.58,24h.13V.89h6.62V46.24H17L8.17,18.79H8V46.24H1Z"/><path class="cls-1" d="M33.23.89h12l5.61,45.35h-8L41.64,36.18H34.95L33.8,46.24H26.86Zm5.29,7h-.13L35.77,29.55h5.16Z"/><path class="cls-1" d="M54.37.89h7.2c13.89,0,15.23,8.92,15.23,22.68,0,13.12-1.08,22.68-13.89,22.68H54.37Zm8.28,38.35c5.22-.06,5.48-2,5.48-15.73S67.87,8,62.65,7.9Z"/><path class="cls-1" d="M81.59.89h8.28V46.24H81.59Z"/><path class="cls-1" d="M95.16.89h8.09l7.58,24H111V.89h6.62V46.24h-6.43l-8.85-27.45h-.13V46.24h-7Z"/><path class="cls-1" d="M123.05.89h18.73v7H131.33V19.49H139v7.39h-7.71V39.24h10.89v7H123.05Z"/><path class="cls-1" d="M173.16,17.07c0-2.1.51-10.06-3.06-10.06-2,0-3.57,1.91-3.57,16.5,0,14.91,1.4,16.62,3.95,16.62,3.12,0,3.38-6.24,3.38-8.41h-3.06V25.09h10.07V46.24h-3.5l-1.15-3a8.34,8.34,0,0,1-6.56,3.88c-8.85,0-11.78-8.66-11.78-23.57C157.88,6.24,163.1,0,169.66,0c5.35,0,10.89,2.55,10.89,14.14v2.93Z"/><path class="cls-1" d="M185.74.89H194V19.11h5.22V.89h8.28V46.24h-8.28V27H194V46.24h-8.28Z"/><path class="cls-1" d="M224.2,0c7.32,0,12.1,5.67,12.1,23.57s-4.78,23.57-12.1,23.57S212.1,41.47,212.1,23.57,216.87,0,224.2,0Zm-3.06,28.34c0,9.81,1.15,11.78,3.06,11.78s3.05-2,3.05-11.78V18.79C227.26,9,226.11,7,224.2,7s-3.06,2-3.06,11.78Z"/><path class="cls-1" d="M246.91,33.12c0,2.55,0,7,3.57,7,2.74,0,3.69-2.55,3.69-4.39,0-8.09-15-9.94-15-23.38,0-6.82,3.69-12.36,10.7-12.36,7.45,0,10.32,5.67,10.51,13.82H253c0-2.55,0-6.81-3.31-6.81-2,0-3.12,1.65-3.12,4.14,0,7.71,15,10.32,15,23.5,0,6.95-4,12.49-11.41,12.49-8.85,0-10.63-7.77-10.63-14Z"/><path class="cls-1" d="M271.75,33.12c0,2.55,0,7,3.57,7,2.74,0,3.69-2.55,3.69-4.39,0-8.09-15-9.94-15-23.38C264,5.54,267.67,0,274.68,0c7.45,0,10.32,5.67,10.51,13.82H277.8c0-2.55,0-6.81-3.31-6.81-2,0-3.12,1.65-3.12,4.14,0,7.71,15,10.32,15,23.5,0,6.95-4,12.49-11.41,12.49-8.85,0-10.63-7.77-10.63-14Z"/><path class="cls-1" d="M301.34,0c7.32,0,12.1,5.67,12.1,23.57s-4.78,23.57-12.1,23.57-12.11-5.67-12.11-23.57S294,0,301.34,0Zm-3.06,28.34c0,9.81,1.15,11.78,3.06,11.78s3.05-2,3.05-11.78V18.79C304.4,9,303.25,7,301.34,7s-3.06,2-3.06,11.78Z"/><path class="cls-1" d="M317.77.89H326V36c0,2,.45,4.14,2.86,4.14S332,38.15,332,36V.89h7v34c0,8.92-3.95,12.23-10.58,12.23-6.37,0-10.63-3.31-10.63-12.23Z"/><path class="cls-1" d="M344.42.89h10.19c5.09,0,11.21,2.8,11.21,11.47,0,5.09-2.29,9-7.39,10.13v.13c5.67,1.34,8.28,5.28,8.28,11,0,8.28-5.61,12.61-11.72,12.61H344.42Zm8.28,18.6c4.14,0,5.22-1.91,5.22-6,0-5.16-1.08-6.05-5.22-6Zm0,20.13c5,0,5.73-2,5.73-6.69,0-4.14-1-6.5-5.73-6.43Z"/><path class="cls-1" d="M394.92,0h5.73L386.38,47.13h-5.61Z"/><path class="cls-1" d="M430.32,17.32c0-7.52-1-10.32-3-10.32-1.72,0-3.44,1.15-3.44,16.56,0,14.91.89,16.56,3.44,16.56,2.74,0,3.38-4.2,3.5-10.76l7,.32c0,7.9-1.15,17.45-10.83,17.45-8.85,0-11.78-8.66-11.78-23.57C415.22,6.24,420.45,0,427,0c9.55,0,10.7,8.79,10.7,17.07Z"/><path class="cls-1" d="M442.42.89h18.73v7H450.71V19.49h7.71v7.39h-7.71V39.24H461.6v7H442.42Z"/><path class="cls-1" d="M476,0c7.32,0,12.1,5.67,12.1,23.57S483.29,47.13,476,47.13s-12.11-5.67-12.11-23.57S468.63,0,476,0ZM472.9,28.34c0,9.81,1.15,11.78,3.06,11.78s3.05-2,3.05-11.78V18.79C479,9,477.87,7,476,7s-3.06,2-3.06,11.78Z"/><rect class="cls-1" x="1.03" y="70.84" width="487.03" height="16.88"/><path class="cls-1" d="M11.57,159.84H0V148.7H36.58v11.14H25v61H11.57Z"/><path class="cls-1" d="M41.23,148.7H54.66v29h8.47v-29H76.57v72.13H63.13V190.23H54.66v30.59H41.23Z"/><path class="cls-1" d="M83.36,148.7h30.38v11.14H96.8v18.44h12.5V190H96.8v19.65h17.67v11.14H83.36Z"/><path class="cls-1" d="M137.71,148.7h30.07v11.14H151.15v19.25h12.3v11.75h-12.3v30H137.71Z"/><path class="cls-1" d="M172.64,148.7h13.43v72.13H172.64Z"/><path class="cls-1" d="M192.69,148.7h15.09a33.18,33.18,0,0,1,8.68,1.06,16.7,16.7,0,0,1,6.72,3.5,16.12,16.12,0,0,1,4.34,6.33,26,26,0,0,1,1.55,9.57,34.47,34.47,0,0,1-.36,4.86,23,23,0,0,1-1.29,5,18.71,18.71,0,0,1-2.43,4.46,12.28,12.28,0,0,1-3.77,3.34l8,34H215.63l-6.3-31h-3.2v31H192.69Zm13.43,30.59h2.69a5.55,5.55,0,0,0,3.15-.86,7,7,0,0,0,2.12-2.23,9.84,9.84,0,0,0,1.19-3.19,19.27,19.27,0,0,0,.36-3.75q0-5.87-2-8a7.21,7.21,0,0,0-5.42-2.08h-2.07Z"/><path class="cls-1" d="M243.81,200q0,1.52.1,3.44a15.44,15.44,0,0,0,.62,3.65,6.61,6.61,0,0,0,1.7,2.89,4.59,4.59,0,0,0,3.36,1.17,5.48,5.48,0,0,0,2.79-.66,5.64,5.64,0,0,0,1.86-1.72,7.21,7.21,0,0,0,1-2.28,9.43,9.43,0,0,0,.31-2.33,9.7,9.7,0,0,0-1.81-5.77,28.21,28.21,0,0,0-4.49-4.86q-2.69-2.33-5.89-4.76a40.58,40.58,0,0,1-5.89-5.47,28.11,28.11,0,0,1-4.49-7,22.21,22.21,0,0,1-1.81-9.32,25.21,25.21,0,0,1,1.14-7.65,18.4,18.4,0,0,1,3.31-6.23,15.84,15.84,0,0,1,5.42-4.2,19,19,0,0,1,15.24.05,13.93,13.93,0,0,1,5.22,4.51,20.42,20.42,0,0,1,3,6.94,41.71,41.71,0,0,1,1.08,8.92h-12q0-1.52-.1-3.39a16.64,16.64,0,0,0-.57-3.55,6.11,6.11,0,0,0-1.6-2.79,4.24,4.24,0,0,0-3.1-1.12,4.36,4.36,0,0,0-3.72,1.82,7.83,7.83,0,0,0-1.34,4.76,9.37,9.37,0,0,0,1.81,5.57,29.43,29.43,0,0,0,4.49,4.91q2.69,2.38,5.89,4.91a42.26,42.26,0,0,1,5.89,5.67,30.16,30.16,0,0,1,4.49,7.09,22,22,0,0,1,1.81,9.22,24.57,24.57,0,0,1-1.19,7.75,18.19,18.19,0,0,1-3.51,6.28,16.59,16.59,0,0,1-5.79,4.25,19.21,19.21,0,0,1-8,1.57,16.41,16.41,0,0,1-8.73-2.08,15.38,15.38,0,0,1-5.27-5.32,20.9,20.9,0,0,1-2.58-7.19,45.8,45.8,0,0,1-.67-7.7Z"/><path class="cls-1" d="M278.63,159.84H267.06V148.7h36.58v11.14H292.06v61H278.63Z"/><path class="cls-1" d="M321,148.7h12.19L337.94,191h.21l6.41-42.34h12.09L362.53,191h.21L368,148.7h9.61L368,220.83H355.81l-6.41-45.69h-.21l-6.61,45.69H330.81Z"/><path class="cls-1" d="M378.27,184.76a95.76,95.76,0,0,1,1.4-17.83,36.39,36.39,0,0,1,4-11.55,15.81,15.81,0,0,1,6.2-6.23,18.27,18.27,0,0,1,16.12,0,15.83,15.83,0,0,1,6.2,6.23,36.43,36.43,0,0,1,4,11.55,95.76,95.76,0,0,1,1.4,17.83,95.74,95.74,0,0,1-1.4,17.83,36.39,36.39,0,0,1-4,11.55,15.82,15.82,0,0,1-6.2,6.23,18.27,18.27,0,0,1-16.12,0,15.79,15.79,0,0,1-6.2-6.23,36.35,36.35,0,0,1-4-11.55A95.74,95.74,0,0,1,378.27,184.76Zm14.67,7.6q0,5.88.36,9.52a31.89,31.89,0,0,0,1,5.72,5.4,5.4,0,0,0,1.55,2.79,3.36,3.36,0,0,0,4.13,0,5.4,5.4,0,0,0,1.55-2.79,32,32,0,0,0,1-5.72q.36-3.65.36-9.52v-15.2q0-5.87-.36-9.52a30.83,30.83,0,0,0-1-5.67,5.73,5.73,0,0,0-1.55-2.79,3.19,3.19,0,0,0-4.13,0,5.73,5.73,0,0,0-1.55,2.79,30.71,30.71,0,0,0-1,5.67q-.36,3.65-.36,9.52Z"/><path class="cls-1" d="M422.31,148.7h17.88l6,37h.21l6.3-37h17.46v72.13h-12V167.95H458l-9.09,52.88h-7.44l-9-52.88h-.21v52.88h-9.92Z"/><path class="cls-1" d="M483.54,148.7H503l9.09,72.13H499.15l-2-16H486.33l-1.86,16H473.21Zm8.58,11.14h-.21l-4.24,34.44H496Z"/><path class="cls-1" d="M515.17,148.7h13.12l12.3,38.09h.21V148.7h10.75v72.13H541.11l-14.36-43.66h-.21v43.66H515.17Z"/><path class="cls-1" d="M581.82,159.84H570.24V148.7h36.58v11.14H595.25v61H581.82Z"/><path class="cls-1" d="M607,184.76a95.76,95.76,0,0,1,1.4-17.83,36.39,36.39,0,0,1,4-11.55,15.81,15.81,0,0,1,6.2-6.23,18.27,18.27,0,0,1,16.12,0,15.83,15.83,0,0,1,6.2,6.23,36.43,36.43,0,0,1,4,11.55,95.76,95.76,0,0,1,1.4,17.83,95.74,95.74,0,0,1-1.4,17.83,36.39,36.39,0,0,1-4,11.55,15.82,15.82,0,0,1-6.2,6.23,18.27,18.27,0,0,1-16.12,0,15.79,15.79,0,0,1-6.2-6.23,36.35,36.35,0,0,1-4-11.55A95.74,95.74,0,0,1,607,184.76Zm14.67,7.6q0,5.88.36,9.52a31.89,31.89,0,0,0,1,5.72,5.4,5.4,0,0,0,1.55,2.79,3.36,3.36,0,0,0,4.13,0,5.4,5.4,0,0,0,1.55-2.79,32,32,0,0,0,1-5.72q.36-3.65.36-9.52v-15.2q0-5.87-.36-9.52a30.83,30.83,0,0,0-1-5.67,5.73,5.73,0,0,0-1.55-2.79,3.19,3.19,0,0,0-4.13,0A5.73,5.73,0,0,0,623,162a30.71,30.71,0,0,0-1,5.67q-.36,3.65-.36,9.52Z"/><path class="cls-1" d="M668.85,148.7h15.09a33.18,33.18,0,0,1,8.68,1.06,16.7,16.7,0,0,1,6.72,3.5,16.12,16.12,0,0,1,4.34,6.33,26,26,0,0,1,1.55,9.57,34.47,34.47,0,0,1-.36,4.86,23,23,0,0,1-1.29,5,18.71,18.71,0,0,1-2.43,4.46,12.28,12.28,0,0,1-3.77,3.34l8,34H691.79l-6.3-31h-3.2v31H668.85Zm13.43,30.59H685a5.55,5.55,0,0,0,3.15-.86,7,7,0,0,0,2.12-2.23,9.84,9.84,0,0,0,1.19-3.19,19.27,19.27,0,0,0,.36-3.75q0-5.87-2-8a7.21,7.21,0,0,0-5.42-2.08h-2.07Z"/><path class="cls-1" d="M709,148.7h13.43v55.82a18,18,0,0,0,.15,2.38,6.15,6.15,0,0,0,.67,2.13,3.86,3.86,0,0,0,1.45,1.52,4.56,4.56,0,0,0,2.38.56,4,4,0,0,0,3.87-2,9.42,9.42,0,0,0,1.08-4.61V148.7h11.37v54.1q0,10.64-4.55,15t-12.61,4.41a22.05,22.05,0,0,1-7.08-1.06,13.74,13.74,0,0,1-5.42-3.34,15.09,15.09,0,0,1-3.51-6A28.77,28.77,0,0,1,709,202.8Z"/><path class="cls-1" d="M749.76,148.7h13.12l12.3,38.09h.21V148.7h10.75v72.13H775.7l-14.36-43.66h-.21v43.66H749.76Z"/><path class="cls-1" d="M12,241.56H31.41l9.09,72.13H27.59l-2-16H14.78l-1.86,16H1.65Zm8.58,11.14h-.21l-4.24,34.44h8.37Z"/><path class="cls-1" d="M43.61,241.56H56.74L69,279.65h.21V241.56H80v72.13H69.55L55.19,270H55v43.66H43.61Z"/><path class="cls-1" d="M106.54,241.56H126l9.09,72.13H122.14l-2-16H109.33l-1.86,16H96.2Zm8.58,11.14h-.21l-4.24,34.44H119Z"/><path class="cls-1" d="M160.88,267.29q0-1.22.05-3.9a31.44,31.44,0,0,0-.36-5.37,15.58,15.58,0,0,0-1.45-4.71,3.39,3.39,0,0,0-3.2-2,3.68,3.68,0,0,0-2.32.86,7.12,7.12,0,0,0-1.86,3.6,43.42,43.42,0,0,0-1.19,7.9q-.41,5.17-.41,13.88,0,8.92.41,14.13a40,40,0,0,0,1.24,8,6.51,6.51,0,0,0,2,3.55,4.74,4.74,0,0,0,2.74.81,3.5,3.5,0,0,0,3-1.62,11,11,0,0,0,1.65-3.8,27.28,27.28,0,0,0,.67-4.41q.16-2.23.16-3.55h-5V280.06h16.33v33.63H167.7l-1.86-4.76a16,16,0,0,1-4.34,4.25,10.85,10.85,0,0,1-6.3,1.92,15.53,15.53,0,0,1-9-2.53,17.61,17.61,0,0,1-5.89-7.34,42.18,42.18,0,0,1-3.2-11.75,114,114,0,0,1-1-15.85,86.66,86.66,0,0,1,1.5-17.47,39.39,39.39,0,0,1,4.08-11.6,16.85,16.85,0,0,1,6-6.43,14.85,14.85,0,0,1,7.49-2,23.33,23.33,0,0,1,6.41.91,13,13,0,0,1,5.68,3.39,18.08,18.08,0,0,1,4,6.89,34.61,34.61,0,0,1,1.55,11.3v4.66Z"/><path class="cls-1" d="M179.09,241.56h30.38V252.7H192.53v18.44H205v11.75h-12.5v19.65h17.67v11.14h-31.1Z"/><path class="cls-1" d="M213.45,241.56h13.12l12.3,38.09h.21V241.56h10.75v72.13H239.38L225,270h-.21v43.66H213.45Z"/><path class="cls-1" d="M279.24,267.7q0-9-1.19-12.71t-3.67-3.7a3.82,3.82,0,0,0-2.07.66q-1,.66-1.81,3.29a43.75,43.75,0,0,0-1.24,7.9q-.46,5.27-.46,14.49,0,8.92.31,14.13a52.64,52.64,0,0,0,.93,8q.62,2.73,1.71,3.5a4.48,4.48,0,0,0,2.63.76q3.31,0,4.39-4.61a64.46,64.46,0,0,0,1.29-12.51l11.37.51a92.58,92.58,0,0,1-.52,9.67,28,28,0,0,1-2.38,8.91,17,17,0,0,1-5.32,6.58q-3.46,2.58-9.35,2.58a15.53,15.53,0,0,1-9-2.53,17.61,17.61,0,0,1-5.89-7.34,42.18,42.18,0,0,1-3.2-11.75,114,114,0,0,1-1-15.85,86.66,86.66,0,0,1,1.5-17.47,39.39,39.39,0,0,1,4.08-11.6,16.85,16.85,0,0,1,6-6.43,14.85,14.85,0,0,1,7.49-2q5.79,0,9.25,2.38a15.35,15.35,0,0,1,5.27,6.23,27.16,27.16,0,0,1,2.32,8.71,93.15,93.15,0,0,1,.52,9.83Z"/><path class="cls-1" d="M303.13,285.83l-12.3-44.27h13.33l6.41,28.26h.21l6.82-28.26h11.26l-12.3,43.05v29.07H303.13Z"/><path class="cls-1" d="M346.83,241.56H360l12.3,38.09h.21V241.56H383.2v72.13H372.77L358.4,270h-.21v43.66H346.83Z"/><path class="cls-1" d="M389.83,241.56H420.2V252.7H403.26v18.44h12.5v11.75h-12.5v19.65h17.67v11.14h-31.1Z"/><path class="cls-1" d="M435.29,252.7H423.72V241.56h36.58V252.7H448.72v61H435.29Z"/><path class="cls-1" d="M463.19,241.56h12.19l4.75,42.34h.21l6.41-42.34h12.09l5.89,42.34h.21l5.27-42.34h9.61l-9.61,72.13H498L491.6,268h-.21l-6.61,45.69H473Z"/><path class="cls-1" d="M520.46,277.62a95.76,95.76,0,0,1,1.4-17.83,36.39,36.39,0,0,1,4-11.55A15.81,15.81,0,0,1,532,242a18.27,18.27,0,0,1,16.12,0,15.83,15.83,0,0,1,6.2,6.23,36.43,36.43,0,0,1,4,11.55,95.76,95.76,0,0,1,1.4,17.83,95.74,95.74,0,0,1-1.4,17.83,36.39,36.39,0,0,1-4,11.55,15.82,15.82,0,0,1-6.2,6.23,18.27,18.27,0,0,1-16.12,0,15.79,15.79,0,0,1-6.2-6.23,36.35,36.35,0,0,1-4-11.55A95.74,95.74,0,0,1,520.46,277.62Zm14.67,7.6q0,5.88.36,9.52a31.89,31.89,0,0,0,1,5.72,5.4,5.4,0,0,0,1.55,2.79,3.36,3.36,0,0,0,4.13,0,5.4,5.4,0,0,0,1.55-2.79,32,32,0,0,0,1-5.72q.36-3.65.36-9.52V270q0-5.87-.36-9.52a30.83,30.83,0,0,0-1-5.67,5.73,5.73,0,0,0-1.55-2.79,3.19,3.19,0,0,0-4.13,0,5.73,5.73,0,0,0-1.55,2.79,30.71,30.71,0,0,0-1,5.67q-.36,3.65-.36,9.52Z"/><path class="cls-1" d="M564.74,241.56h15.09a33.18,33.18,0,0,1,8.68,1.06,16.7,16.7,0,0,1,6.72,3.5,16.12,16.12,0,0,1,4.34,6.33,26,26,0,0,1,1.55,9.57,34.47,34.47,0,0,1-.36,4.86,23,23,0,0,1-1.29,5,18.71,18.71,0,0,1-2.43,4.46,12.28,12.28,0,0,1-3.77,3.34l8,34H587.68l-6.3-31h-3.2v31H564.74Zm13.43,30.59h2.69a5.55,5.55,0,0,0,3.15-.86,7,7,0,0,0,2.12-2.23,9.84,9.84,0,0,0,1.19-3.19,19.27,19.27,0,0,0,.36-3.75q0-5.87-2-8a7.21,7.21,0,0,0-5.42-2.08h-2.07Z"/><path class="cls-1" d="M605.5,241.56h13.43v30.19h.21l11.16-30.19h12l-10,24.21,12.09,47.92H631.44L624,281.37h-.21l-4.86,11.35v21H605.5Z"/><path class="cls-1" d="M662.85,241.56h13.43v72.13H662.85Z"/><path class="cls-1" d="M682.66,241.56h13.12l12.3,38.09h.21V241.56H719v72.13H708.6L694.24,270H694v43.66H682.66Z"/><path class="cls-1" d="M747.24,252.7H735.67V241.56h36.58V252.7H760.67v61H747.24Z"/><path class="cls-1" d="M774.79,241.56h13.43v29h8.47v-29h13.43v72.13H796.69V283.09h-8.47v30.59H774.79Z"/><path class="cls-1" d="M816.92,241.56H847.3V252.7H830.36v18.44h12.5v11.75h-12.5v19.65H848v11.14h-31.1Z"/><path class="cls-1" d="M5.37,334.42H20.46a33.18,33.18,0,0,1,8.68,1.06,16.7,16.7,0,0,1,6.72,3.5,16.12,16.12,0,0,1,4.34,6.33,26,26,0,0,1,1.55,9.57,34.45,34.45,0,0,1-.36,4.86,23,23,0,0,1-1.29,5,18.71,18.71,0,0,1-2.43,4.46,12.28,12.28,0,0,1-3.77,3.34l8,34H28.31l-6.3-31h-3.2v31H5.37ZM18.81,365h2.69a5.55,5.55,0,0,0,3.15-.86,7,7,0,0,0,2.12-2.23A9.85,9.85,0,0,0,28,358.73a19.26,19.26,0,0,0,.36-3.75q0-5.87-2-8A7.21,7.21,0,0,0,20.87,345H18.81Z"/><path class="cls-1" d="M46.14,334.42H76.51v11.14H59.57V364h12.5v11.75H59.57V395.4H77.24v11.14H46.14Z"/><path class="cls-1" d="M103.16,360.15q0-1.22.05-3.9a31.43,31.43,0,0,0-.36-5.37,15.58,15.58,0,0,0-1.45-4.71,3.39,3.39,0,0,0-3.2-2,3.68,3.68,0,0,0-2.32.86A7.12,7.12,0,0,0,94,348.6a43.42,43.42,0,0,0-1.19,7.9q-.41,5.17-.41,13.88,0,8.92.41,14.13a40,40,0,0,0,1.24,8,6.51,6.51,0,0,0,2,3.55,4.73,4.73,0,0,0,2.74.81,3.5,3.5,0,0,0,3-1.62,11,11,0,0,0,1.65-3.8,27.28,27.28,0,0,0,.67-4.41q.15-2.23.16-3.55h-5V372.91h16.33v33.63H110l-1.86-4.76a16,16,0,0,1-4.34,4.25,10.85,10.85,0,0,1-6.3,1.92,15.53,15.53,0,0,1-9-2.53,17.61,17.61,0,0,1-5.89-7.34,42.19,42.19,0,0,1-3.2-11.75,114,114,0,0,1-1-15.85A86.65,86.65,0,0,1,79.86,353a39.39,39.39,0,0,1,4.08-11.6A16.85,16.85,0,0,1,90,335a14.85,14.85,0,0,1,7.49-2,23.33,23.33,0,0,1,6.41.91,13,13,0,0,1,5.68,3.39,18.08,18.08,0,0,1,4,6.89,34.61,34.61,0,0,1,1.55,11.3v4.66Z"/><path class="cls-1" d="M121.15,334.42h13.43v72.13H121.15Z"/><path class="cls-1" d="M139.58,370.48a95.76,95.76,0,0,1,1.4-17.83,36.39,36.39,0,0,1,4-11.55,15.81,15.81,0,0,1,6.2-6.23,18.27,18.27,0,0,1,16.12,0,15.83,15.83,0,0,1,6.2,6.23,36.43,36.43,0,0,1,4,11.55,114.63,114.63,0,0,1,0,35.66,36.39,36.39,0,0,1-4,11.55,15.82,15.82,0,0,1-6.2,6.23,18.27,18.27,0,0,1-16.12,0,15.79,15.79,0,0,1-6.2-6.23,36.35,36.35,0,0,1-4-11.55A95.74,95.74,0,0,1,139.58,370.48Zm14.67,7.6q0,5.88.36,9.52a31.89,31.89,0,0,0,1,5.72,5.4,5.4,0,0,0,1.55,2.79,3.36,3.36,0,0,0,4.13,0,5.4,5.4,0,0,0,1.55-2.79,32,32,0,0,0,1-5.72q.36-3.65.36-9.52v-15.2q0-5.87-.36-9.52a30.83,30.83,0,0,0-1-5.67,5.73,5.73,0,0,0-1.55-2.79,3.19,3.19,0,0,0-4.13,0,5.73,5.73,0,0,0-1.55,2.79,30.71,30.71,0,0,0-1,5.67q-.36,3.65-.36,9.52Z"/><path class="cls-1" d="M183.63,334.42h13.12l12.3,38.09h.21V334.42H220v72.13H209.57L195.2,362.89H195v43.66H183.63Z"/><path class="cls-1" d="M226.12,393.38h13.43v13.17H226.12Z"/><path class="cls-1" d="M250.81,370.48a95.76,95.76,0,0,1,1.4-17.83,36.39,36.39,0,0,1,4-11.55,15.81,15.81,0,0,1,6.2-6.23,18.27,18.27,0,0,1,16.12,0,15.83,15.83,0,0,1,6.2,6.23,36.43,36.43,0,0,1,4,11.55,114.63,114.63,0,0,1,0,35.66,36.39,36.39,0,0,1-4,11.55,15.82,15.82,0,0,1-6.2,6.23,18.27,18.27,0,0,1-16.12,0,15.79,15.79,0,0,1-6.2-6.23,36.35,36.35,0,0,1-4-11.55A95.74,95.74,0,0,1,250.81,370.48Zm14.67,7.6q0,5.88.36,9.52a31.89,31.89,0,0,0,1,5.72,5.4,5.4,0,0,0,1.55,2.79,3.36,3.36,0,0,0,4.13,0,5.4,5.4,0,0,0,1.55-2.79,32,32,0,0,0,1-5.72q.36-3.65.36-9.52v-15.2q0-5.87-.36-9.52a30.83,30.83,0,0,0-1-5.67,5.73,5.73,0,0,0-1.55-2.79,3.19,3.19,0,0,0-4.13,0,5.73,5.73,0,0,0-1.55,2.79,30.71,30.71,0,0,0-1,5.67q-.36,3.65-.36,9.52Z"/><path class="cls-1" d="M294.86,334.42H308l12.3,38.09h.21V334.42h10.75v72.13H320.8l-14.36-43.66h-.21v43.66H294.86Z"/><path class="cls-1" d="M337.85,334.42h13.43v61h17.15v11.14H337.85Z"/><path class="cls-1" d="M374.95,378.69l-12.3-44.27H376l6.41,28.26h.21l6.82-28.26h11.26l-12.3,43.05v29.07H374.95Z"/><path class="cls-1" d="M425.78,334.42h19.43l9.09,72.13H441.39l-2-16H428.57l-1.86,16H415.45Zm8.58,11.14h-.21L429.92,380h8.37Z"/><path class="cls-1" d="M457.65,334.42h11.68q8.47,0,13.38,2.58a17.46,17.46,0,0,1,7.44,7.29,30.28,30.28,0,0,1,3.2,11.35q.67,6.64.67,14.84,0,7.8-.62,14.44a34.17,34.17,0,0,1-2.89,11.45,17,17,0,0,1-6.77,7.5q-4.49,2.69-12.24,2.68H457.65Zm13.43,61a11.52,11.52,0,0,0,5-.86,5.59,5.59,0,0,0,2.63-3.5,29,29,0,0,0,1.08-7.55q.21-4.91.21-13.12t-.21-13.07a28.14,28.14,0,0,0-1.08-7.45,5.57,5.57,0,0,0-2.63-3.44,11.55,11.55,0,0,0-5-.86Z"/><path class="cls-1" d="M499.6,334.42H513q11.36,0,17.26,5T536.18,356a37.25,37.25,0,0,1-1,8.86A18.26,18.26,0,0,1,532,371.7a14.64,14.64,0,0,1-5.53,4.41,19,19,0,0,1-8.11,1.57H513v28.87H499.6Zm13.54,32.72h1.14a12.88,12.88,0,0,0,3.62-.46,5.58,5.58,0,0,0,2.63-1.67,8.07,8.07,0,0,0,1.65-3.34,21.29,21.29,0,0,0,.57-5.37,19.83,19.83,0,0,0-.72-6.08,7.39,7.39,0,0,0-1.91-3.19,5,5,0,0,0-2.74-1.27,24.76,24.76,0,0,0-3.2-.2h-1Z"/><path class="cls-1" d="M540.93,334.42h30.38v11.14H554.36V364h12.5v11.75h-12.5V395.4H572v11.14h-31.1Z"/><path class="cls-1" d="M577.61,334.42H592.7a33.18,33.18,0,0,1,8.68,1.06,16.7,16.7,0,0,1,6.72,3.5,16.12,16.12,0,0,1,4.34,6.33,26,26,0,0,1,1.55,9.57,34.47,34.47,0,0,1-.36,4.86,23,23,0,0,1-1.29,5,18.71,18.71,0,0,1-2.43,4.46,12.28,12.28,0,0,1-3.77,3.34l8,34H600.55l-6.3-31H591v31H577.61ZM591,365h2.69a5.55,5.55,0,0,0,3.15-.86,7,7,0,0,0,2.12-2.23,9.84,9.84,0,0,0,1.19-3.19,19.27,19.27,0,0,0,.36-3.75q0-5.87-2-8a7.21,7.21,0,0,0-5.42-2.08H591Z"/><path class="cls-1" d="M630.82,385.68q0,1.52.1,3.44a15.44,15.44,0,0,0,.62,3.65,6.61,6.61,0,0,0,1.7,2.89,4.59,4.59,0,0,0,3.36,1.17,5.48,5.48,0,0,0,2.79-.66,5.64,5.64,0,0,0,1.86-1.72,7.21,7.21,0,0,0,1-2.28,9.43,9.43,0,0,0,.31-2.33,9.7,9.7,0,0,0-1.81-5.77,28.21,28.21,0,0,0-4.49-4.86q-2.69-2.33-5.89-4.76a40.58,40.58,0,0,1-5.89-5.47,28.11,28.11,0,0,1-4.49-7,22.21,22.21,0,0,1-1.81-9.32,25.21,25.21,0,0,1,1.14-7.65,18.4,18.4,0,0,1,3.31-6.23,15.84,15.84,0,0,1,5.42-4.2,19,19,0,0,1,15.24.05,13.93,13.93,0,0,1,5.22,4.51,20.42,20.42,0,0,1,3,6.94,41.71,41.71,0,0,1,1.08,8.92h-12q0-1.52-.1-3.39A16.64,16.64,0,0,0,640,348a6.11,6.11,0,0,0-1.6-2.79,4.24,4.24,0,0,0-3.1-1.12,4.36,4.36,0,0,0-3.72,1.82,7.83,7.83,0,0,0-1.34,4.76A9.37,9.37,0,0,0,632,356.3a29.43,29.43,0,0,0,4.49,4.91q2.69,2.38,5.89,4.91a42.26,42.26,0,0,1,5.89,5.67,30.16,30.16,0,0,1,4.49,7.09,22,22,0,0,1,1.81,9.22,24.57,24.57,0,0,1-1.19,7.75,18.19,18.19,0,0,1-3.51,6.28,16.59,16.59,0,0,1-5.79,4.25,19.21,19.21,0,0,1-8,1.57,16.41,16.41,0,0,1-8.73-2.08,15.38,15.38,0,0,1-5.27-5.32,20.9,20.9,0,0,1-2.58-7.19,45.8,45.8,0,0,1-.67-7.7Z"/><path class="cls-1" d="M658.82,370.48a95.76,95.76,0,0,1,1.4-17.83,36.39,36.39,0,0,1,4-11.55,15.81,15.81,0,0,1,6.2-6.23,18.27,18.27,0,0,1,16.12,0,15.83,15.83,0,0,1,6.2,6.23,36.43,36.43,0,0,1,4,11.55,114.63,114.63,0,0,1,0,35.66,36.39,36.39,0,0,1-4,11.55,15.82,15.82,0,0,1-6.2,6.23,18.27,18.27,0,0,1-16.12,0,15.79,15.79,0,0,1-6.2-6.23,36.35,36.35,0,0,1-4-11.55A95.74,95.74,0,0,1,658.82,370.48Zm14.67,7.6q0,5.88.36,9.52a31.89,31.89,0,0,0,1,5.72,5.4,5.4,0,0,0,1.55,2.79,3.36,3.36,0,0,0,4.13,0,5.4,5.4,0,0,0,1.55-2.79,32,32,0,0,0,1-5.72q.36-3.65.36-9.52v-15.2q0-5.87-.36-9.52a30.83,30.83,0,0,0-1-5.67,5.73,5.73,0,0,0-1.55-2.79,3.19,3.19,0,0,0-4.13,0,5.73,5.73,0,0,0-1.55,2.79,30.71,30.71,0,0,0-1,5.67q-.36,3.65-.36,9.52Z"/><path class="cls-1" d="M702.87,334.42H716l12.3,38.09h.21V334.42h10.75v72.13H728.81l-14.36-43.66h-.21v43.66H702.87Z"/><path class="cls-1" d="M765.38,345.56H753.81V334.42h36.58v11.14H778.82v61H765.38Z"/><path class="cls-1" d="M790.52,370.48a95.76,95.76,0,0,1,1.4-17.83,36.39,36.39,0,0,1,4-11.55,15.81,15.81,0,0,1,6.2-6.23,18.27,18.27,0,0,1,16.12,0,15.83,15.83,0,0,1,6.2,6.23,36.43,36.43,0,0,1,4,11.55,114.63,114.63,0,0,1,0,35.66,36.39,36.39,0,0,1-4,11.55,15.82,15.82,0,0,1-6.2,6.23,18.27,18.27,0,0,1-16.12,0,15.79,15.79,0,0,1-6.2-6.23,36.35,36.35,0,0,1-4-11.55A95.74,95.74,0,0,1,790.52,370.48Zm14.67,7.6q0,5.88.36,9.52a31.89,31.89,0,0,0,1,5.72,5.4,5.4,0,0,0,1.55,2.79,3.36,3.36,0,0,0,4.13,0,5.4,5.4,0,0,0,1.55-2.79,32,32,0,0,0,1-5.72q.36-3.65.36-9.52v-15.2q0-5.87-.36-9.52a30.83,30.83,0,0,0-1-5.67,5.73,5.73,0,0,0-1.55-2.79,3.19,3.19,0,0,0-4.13,0,5.73,5.73,0,0,0-1.55,2.79,30.71,30.71,0,0,0-1,5.67q-.36,3.65-.36,9.52Z"/><path class="cls-1" d="M1.45,427.28H13.64l4.75,42.34h.21L25,427.28H37.09L43,469.62h.21l5.27-42.34h9.61l-9.61,72.13H36.27l-6.41-45.69h-.21L23,499.41H11.26Z"/><path class="cls-1" d="M63.13,427.28H76.57v72.13H63.13Z"/><path class="cls-1" d="M85,427.28H98.16l12.3,38.09h.21V427.28h10.75v72.13H111L96.61,455.75H96.4v43.66H85Z"/><path class="cls-1" d="M143.42,427.28h11.68q8.47,0,13.38,2.58a17.46,17.46,0,0,1,7.44,7.29,30.28,30.28,0,0,1,3.2,11.35q.67,6.64.67,14.84,0,7.8-.62,14.44a34.17,34.17,0,0,1-2.89,11.45,17,17,0,0,1-6.77,7.5q-4.49,2.69-12.24,2.68H143.42Zm13.43,61a11.52,11.52,0,0,0,5-.86,5.59,5.59,0,0,0,2.63-3.5,29,29,0,0,0,1.08-7.55q.21-4.91.21-13.12t-.21-13.07a28.14,28.14,0,0,0-1.08-7.45,5.57,5.57,0,0,0-2.63-3.44,11.55,11.55,0,0,0-5-.86Z"/><path class="cls-1" d="M185,427.28h13.43V483.1a18,18,0,0,0,.15,2.38,6.15,6.15,0,0,0,.67,2.13,3.86,3.86,0,0,0,1.45,1.52,4.56,4.56,0,0,0,2.38.56,4,4,0,0,0,3.87-2A9.42,9.42,0,0,0,208,483.1V427.28h11.37v54.1q0,10.64-4.55,15t-12.61,4.41a22.05,22.05,0,0,1-7.08-1.06,13.74,13.74,0,0,1-5.42-3.34,15.09,15.09,0,0,1-3.51-6,28.77,28.77,0,0,1-1.24-9.07Z"/><path class="cls-1" d="M225.94,427.28h16.53a22.93,22.93,0,0,1,6.3.91A15.91,15.91,0,0,1,259,436.85a19.67,19.67,0,0,1,1.7,8.66,18.43,18.43,0,0,1-2.89,10.43q-2.89,4.36-9.09,5.67v.2q6.92,1.62,10.18,6.13a19,19,0,0,1,3.25,11.4,22,22,0,0,1-1.6,8.71,18.85,18.85,0,0,1-4.24,6.28,17.33,17.33,0,0,1-6,3.8,20.28,20.28,0,0,1-7.13,1.27H225.94Zm13.43,29.58q5.06,0,6.77-2.33t1.71-7.19a27.81,27.81,0,0,0-.36-5,5.62,5.62,0,0,0-1.34-2.94,4.76,4.76,0,0,0-2.63-1.32,23.38,23.38,0,0,0-4.13-.3Zm0,32a16,16,0,0,0,4.86-.61,5.71,5.71,0,0,0,2.84-1.87,7,7,0,0,0,1.29-3.29,32.73,32.73,0,0,0,.31-4.86,23.79,23.79,0,0,0-.36-4.36,7.39,7.39,0,0,0-1.39-3.24,6.23,6.23,0,0,0-2.84-2,14,14,0,0,0-4.7-.66Z"/><path class="cls-1" d="M275.33,427.28h19.43l9.09,72.13H290.94l-2-16H278.12l-1.86,16H265Zm8.58,11.14h-.21l-4.24,34.44h8.37Z"/><path class="cls-1" d="M309,427.28h13.43v72.13H309Z"/><path class="cls-1" d="M346.52,427.28H360v61h17.15v11.14H346.52Z"/><path class="cls-1" d="M383.62,471.55l-12.3-44.27h13.33l6.41,28.26h.21l6.82-28.26h11.26L397,470.33v29.07H383.62Z"/><path class="cls-1" d="M413.38,427.28H426.5l12.3,38.09H439V427.28h10.75v72.13H439.31l-14.36-43.66h-.21v43.66H413.38Z"/><path class="cls-1" d="M466.18,462.63,454.4,427.28h13.43l5.58,19.35h.21l5-19.35H490l-11,33.53,13,38.6H478.57l-6.51-21.68h-.21l-6.2,21.68H454.29Z"/><path class="cls-1" d="M518.25,427.28h19.43l9.09,72.13H533.85l-2-16H521l-1.86,16H507.92Zm8.58,11.14h-.21l-4.24,34.44h8.37Z"/><path class="cls-1" d="M572.59,453q0-1.22.05-3.9a31.44,31.44,0,0,0-.36-5.37,15.58,15.58,0,0,0-1.45-4.71,3.39,3.39,0,0,0-3.2-2,3.68,3.68,0,0,0-2.32.86,7.12,7.12,0,0,0-1.86,3.6,43.42,43.42,0,0,0-1.19,7.9q-.41,5.17-.41,13.88,0,8.92.41,14.13a40,40,0,0,0,1.24,8,6.51,6.51,0,0,0,2,3.55,4.74,4.74,0,0,0,2.74.81,3.5,3.5,0,0,0,3-1.62,11,11,0,0,0,1.65-3.8,27.28,27.28,0,0,0,.67-4.41q.16-2.23.16-3.55h-5V465.77h16.33v33.63h-5.68l-1.86-4.76a16,16,0,0,1-4.34,4.25,10.85,10.85,0,0,1-6.3,1.92,15.53,15.53,0,0,1-9-2.53,17.61,17.61,0,0,1-5.89-7.34,42.18,42.18,0,0,1-3.2-11.75,114,114,0,0,1-1-15.85,86.66,86.66,0,0,1,1.5-17.47,39.39,39.39,0,0,1,4.08-11.6,16.85,16.85,0,0,1,6-6.43,14.85,14.85,0,0,1,7.49-2,23.33,23.33,0,0,1,6.41.91,13,13,0,0,1,5.68,3.39,18.08,18.08,0,0,1,4,6.89,34.61,34.61,0,0,1,1.55,11.3V453Z"/><path class="cls-1" d="M592.84,427.28h30.38v11.14H606.27v18.44h12.5v11.75h-12.5v19.65h17.67v11.14h-31.1Z"/><path class="cls-1" d="M629.21,427.28h13.12l12.3,38.09h.21V427.28h10.75v72.13H655.15l-14.36-43.66h-.21v43.66H629.21Z"/><path class="cls-1" d="M695,453.42q0-9-1.19-12.71t-3.67-3.7a3.82,3.82,0,0,0-2.07.66q-1,.66-1.81,3.29a43.75,43.75,0,0,0-1.24,7.9q-.46,5.27-.46,14.49,0,8.92.31,14.13a52.64,52.64,0,0,0,.93,8q.62,2.73,1.71,3.5a4.48,4.48,0,0,0,2.63.76q3.31,0,4.39-4.61a64.46,64.46,0,0,0,1.29-12.51l11.37.51a92.58,92.58,0,0,1-.52,9.67,28,28,0,0,1-2.38,8.91,17,17,0,0,1-5.32,6.58q-3.46,2.58-9.35,2.58a15.53,15.53,0,0,1-9-2.53,17.61,17.61,0,0,1-5.89-7.34,42.18,42.18,0,0,1-3.2-11.75,114,114,0,0,1-1-15.85,86.66,86.66,0,0,1,1.5-17.47,39.39,39.39,0,0,1,4.08-11.6,16.85,16.85,0,0,1,6-6.43,14.85,14.85,0,0,1,7.49-2q5.79,0,9.25,2.38a15.35,15.35,0,0,1,5.27,6.23,27.16,27.16,0,0,1,2.32,8.71A93.15,93.15,0,0,1,707,453Z"/><path class="cls-1" d="M720.93,471.55l-12.3-44.27H722l6.41,28.26h.21l6.82-28.26h11.26l-12.3,43.05v29.07H720.93Z"/><path class="cls-1" d="M757,463.34a95.76,95.76,0,0,1,1.4-17.83,36.39,36.39,0,0,1,4-11.55,15.81,15.81,0,0,1,6.2-6.23,18.27,18.27,0,0,1,16.12,0,15.83,15.83,0,0,1,6.2,6.23,36.43,36.43,0,0,1,4,11.55,114.63,114.63,0,0,1,0,35.66,36.39,36.39,0,0,1-4,11.55,15.82,15.82,0,0,1-6.2,6.23,18.27,18.27,0,0,1-16.12,0,15.79,15.79,0,0,1-6.2-6.23,36.35,36.35,0,0,1-4-11.55A95.74,95.74,0,0,1,757,463.34Zm14.67,7.6q0,5.88.36,9.52a31.89,31.89,0,0,0,1,5.72,5.4,5.4,0,0,0,1.55,2.79,3.36,3.36,0,0,0,4.13,0,5.4,5.4,0,0,0,1.55-2.79,32,32,0,0,0,1-5.72q.36-3.65.36-9.52v-15.2q0-5.87-.36-9.52a30.83,30.83,0,0,0-1-5.67,5.73,5.73,0,0,0-1.55-2.79,3.19,3.19,0,0,0-4.13,0,5.73,5.73,0,0,0-1.55,2.79,30.71,30.71,0,0,0-1,5.67q-.36,3.65-.36,9.52Z"/><path class="cls-1" d="M801.27,427.28h30.07v11.14H814.7v19.25H827v11.75H814.7v30H801.27Z"/><path class="cls-1" d="M11.57,531.28H0V520.14H36.58v11.14H25v61H11.57Z"/><path class="cls-1" d="M41.23,520.14H54.66v29h8.47v-29H76.57v72.13H63.13V561.67H54.66v30.59H41.23Z"/><path class="cls-1" d="M83.36,520.14h30.38v11.14H96.8v18.44h12.5v11.75H96.8v19.65h17.67v11.14H83.36Z"/><path class="cls-1" d="M139.78,564.41l-12.3-44.27h13.33l6.41,28.26h.21l6.82-28.26h11.26l-12.3,43.05v29.07H139.78Z"/><path class="cls-1" d="M169.85,520.14h30.38v11.14H183.28v18.44h12.5v11.75h-12.5v19.65h17.67v11.14h-31.1Z"/><path class="cls-1" d="M215.21,520.14h19.43l9.09,72.13H230.81l-2-16H218l-1.86,16H204.87Zm8.58,11.14h-.21l-4.24,34.44h8.37Z"/><path class="cls-1" d="M249.1,520.14h15.09a33.18,33.18,0,0,1,8.68,1.06,16.7,16.7,0,0,1,6.72,3.5,16.12,16.12,0,0,1,4.34,6.33,26,26,0,0,1,1.55,9.57,34.47,34.47,0,0,1-.36,4.86,23,23,0,0,1-1.29,5,18.71,18.71,0,0,1-2.43,4.46,12.28,12.28,0,0,1-3.77,3.34l8,34H272l-6.3-31h-3.2v31H249.1Zm13.43,30.59h2.69a5.55,5.55,0,0,0,3.15-.86,7,7,0,0,0,2.12-2.23,9.84,9.84,0,0,0,1.19-3.19,19.27,19.27,0,0,0,.36-3.75q0-5.87-2-8a7.21,7.21,0,0,0-5.42-2.08h-2.07Z"/><path class="cls-1" d="M311.51,550.73a11.27,11.27,0,0,0,5.53-.81,8.62,8.62,0,0,0,3.36-2.74,10.29,10.29,0,0,0,1.7-4.1,26.67,26.67,0,0,0,.47-5.12q0-1.72-.16-3.34a9.59,9.59,0,0,0-.67-2.84,5.05,5.05,0,0,0-1.45-2,4.16,4.16,0,0,0-4.08-.41,3.41,3.41,0,0,0-1.39,1.32,9.77,9.77,0,0,0-1.08,2.63,19.25,19.25,0,0,0-.57,4.31l-10.54-1a28,28,0,0,1,1.4-6.79,16.53,16.53,0,0,1,3.1-5.47,14.58,14.58,0,0,1,5-3.7,16.42,16.42,0,0,1,7-1.37,14.91,14.91,0,0,1,6.82,1.47,14.48,14.48,0,0,1,4.86,4,16.44,16.44,0,0,1,2.89,5.72,24.5,24.5,0,0,1,.93,6.79,24,24,0,0,1-2.17,10.43q-2.17,4.56-8.06,6.79v.2q6.72,1.72,9.45,6.69a23.33,23.33,0,0,1,2.74,11.45q0,9.83-5.27,15t-14.16,5.22a16.78,16.78,0,0,1-7-1.37,13.64,13.64,0,0,1-5-3.75,16,16,0,0,1-2.94-5.62,24,24,0,0,1-1-7l11.37-.71a25.74,25.74,0,0,0,.15,2.68,11.33,11.33,0,0,0,.67,2.84,6.21,6.21,0,0,0,1.45,2.28,3.53,3.53,0,0,0,2.58.91,4.53,4.53,0,0,0,4.29-3,19.9,19.9,0,0,0,1.4-8.26q0-6.48-2.43-9.07t-9.14-2.58Z"/><path class="cls-1" d="M359.34,564.41,347,520.14h13.33l6.41,28.26H367l6.82-28.26h11.26l-12.3,43.05v29.07H359.34Z"/><path class="cls-1" d="M389.41,520.14h30.38v11.14H402.84v18.44h12.5v11.75h-12.5v19.65h17.67v11.14h-31.1Z"/><path class="cls-1" d="M436.84,520.14h19.43l9.09,72.13H452.44l-2-16H439.63l-1.86,16H426.51Zm8.58,11.14h-.21L441,565.73h8.37Z"/><path class="cls-1" d="M470.73,520.14h15.09a33.18,33.18,0,0,1,8.68,1.06,16.7,16.7,0,0,1,6.72,3.5,16.12,16.12,0,0,1,4.34,6.33,26,26,0,0,1,1.55,9.57,34.47,34.47,0,0,1-.36,4.86,23,23,0,0,1-1.29,5,18.71,18.71,0,0,1-2.43,4.46,12.28,12.28,0,0,1-3.77,3.34l8,34H493.67l-6.3-31h-3.2v31H470.73Zm13.43,30.59h2.69a5.55,5.55,0,0,0,3.15-.86,7,7,0,0,0,2.12-2.23,9.84,9.84,0,0,0,1.19-3.19,19.27,19.27,0,0,0,.36-3.75q0-5.87-2-8a7.21,7.21,0,0,0-5.42-2.08h-2.07Z"/><path class="cls-1" d="M523.94,571.4q0,1.52.1,3.44a15.44,15.44,0,0,0,.62,3.65,6.61,6.61,0,0,0,1.7,2.89,4.59,4.59,0,0,0,3.36,1.17,5.48,5.48,0,0,0,2.79-.66,5.64,5.64,0,0,0,1.86-1.72,7.21,7.21,0,0,0,1-2.28,9.43,9.43,0,0,0,.31-2.33,9.7,9.7,0,0,0-1.81-5.77,28.21,28.21,0,0,0-4.49-4.86q-2.69-2.33-5.89-4.76a40.58,40.58,0,0,1-5.89-5.47,28.11,28.11,0,0,1-4.49-7,22.21,22.21,0,0,1-1.81-9.32,25.21,25.21,0,0,1,1.14-7.65,18.4,18.4,0,0,1,3.31-6.23,15.84,15.84,0,0,1,5.42-4.2,19,19,0,0,1,15.24.05,13.93,13.93,0,0,1,5.22,4.51,20.42,20.42,0,0,1,3,6.94,41.71,41.71,0,0,1,1.08,8.92h-12q0-1.52-.1-3.39a16.64,16.64,0,0,0-.57-3.55,6.11,6.11,0,0,0-1.6-2.79,4.24,4.24,0,0,0-3.1-1.12,4.36,4.36,0,0,0-3.72,1.82,7.83,7.83,0,0,0-1.34,4.76,9.37,9.37,0,0,0,1.81,5.57,29.43,29.43,0,0,0,4.49,4.91q2.69,2.38,5.89,4.91a42.26,42.26,0,0,1,5.89,5.67,30.16,30.16,0,0,1,4.49,7.09,22,22,0,0,1,1.81,9.22,24.57,24.57,0,0,1-1.19,7.75,18.19,18.19,0,0,1-3.51,6.28,16.59,16.59,0,0,1-5.79,4.25,19.21,19.21,0,0,1-8,1.57,16.41,16.41,0,0,1-8.73-2.08,15.38,15.38,0,0,1-5.27-5.32,20.9,20.9,0,0,1-2.58-7.19,45.8,45.8,0,0,1-.67-7.7Z"/><path class="cls-1" d="M564.24,520.14h13.43v72.13H564.24Z"/><path class="cls-1" d="M584.06,520.14h13.12l12.3,38.09h.21V520.14h10.75v72.13H610l-14.36-43.66h-.21v43.66H584.06Z"/><path class="cls-1" d="M649,520.14h19.43l9.09,72.13H664.65l-2-16H651.84l-1.86,16H638.71Zm8.58,11.14h-.21l-4.24,34.44h8.37Z"/><path class="cls-1" d="M694.3,520.14h15.09a33.18,33.18,0,0,1,8.68,1.06,16.7,16.7,0,0,1,6.72,3.5,16.12,16.12,0,0,1,4.34,6.33,26,26,0,0,1,1.55,9.57,34.47,34.47,0,0,1-.36,4.86,23,23,0,0,1-1.29,5,18.71,18.71,0,0,1-2.43,4.46,12.28,12.28,0,0,1-3.77,3.34l8,34H717.24l-6.3-31h-3.2v31H694.3Zm13.43,30.59h2.69a5.55,5.55,0,0,0,3.15-.86,7,7,0,0,0,2.12-2.23,9.84,9.84,0,0,0,1.19-3.19,19.27,19.27,0,0,0,.36-3.75q0-5.87-2-8a7.21,7.21,0,0,0-5.42-2.08h-2.07Z"/><path class="cls-1" d="M733.18,556.2a95.76,95.76,0,0,1,1.4-17.83,36.39,36.39,0,0,1,4-11.55,15.81,15.81,0,0,1,6.2-6.23,18.27,18.27,0,0,1,16.12,0,15.83,15.83,0,0,1,6.2,6.23,36.43,36.43,0,0,1,4,11.55,114.63,114.63,0,0,1,0,35.66,36.39,36.39,0,0,1-4,11.55,15.82,15.82,0,0,1-6.2,6.23,18.27,18.27,0,0,1-16.12,0,15.79,15.79,0,0,1-6.2-6.23,36.35,36.35,0,0,1-4-11.55A95.74,95.74,0,0,1,733.18,556.2Zm14.67,7.6q0,5.88.36,9.52a31.89,31.89,0,0,0,1,5.72,5.4,5.4,0,0,0,1.55,2.79,3.36,3.36,0,0,0,4.13,0,5.4,5.4,0,0,0,1.55-2.79,32,32,0,0,0,1-5.72q.36-3.65.36-9.52v-15.2q0-5.87-.36-9.52a30.83,30.83,0,0,0-1-5.67,5.73,5.73,0,0,0-1.55-2.79,3.19,3.19,0,0,0-4.13,0,5.73,5.73,0,0,0-1.55,2.79,30.71,30.71,0,0,0-1,5.67q-.36,3.65-.36,9.52Z"/><path class="cls-1" d="M773.1,520.14h12.19L790,562.48h.21l6.41-42.34h12.09l5.89,42.34h.21l5.27-42.34h9.61l-9.61,72.13H807.92l-6.41-45.69h-.21l-6.61,45.69H782.91Z"/><path class="cls-1" d="M829.82,579.1h13.43v13.17H829.82Z"/><path class="cls-1" d="M4.86,613H18l12.3,38.09h.21V613H41.23v72.13H30.79L16.43,641.47h-.21v43.66H4.86Z"/><path class="cls-1" d="M54.67,613H74.1l9.09,72.13H70.27l-2-16H57.46l-1.86,16H44.34Zm8.58,11.14H63L58.8,658.59h8.37Z"/><path class="cls-1" d="M88.56,613h11.68q8.47,0,13.38,2.58a17.46,17.46,0,0,1,7.44,7.29,30.28,30.28,0,0,1,3.2,11.35q.67,6.64.67,14.84,0,7.8-.62,14.44a34.17,34.17,0,0,1-2.89,11.45,17,17,0,0,1-6.77,7.5q-4.49,2.69-12.24,2.68H88.56ZM102,674a11.52,11.52,0,0,0,5-.86,5.59,5.59,0,0,0,2.63-3.5,29,29,0,0,0,1.09-7.55q.21-4.91.21-13.12t-.21-13.07a28.14,28.14,0,0,0-1.09-7.45A5.57,5.57,0,0,0,107,625a11.55,11.55,0,0,0-5-.86Z"/><path class="cls-1" d="M130.36,613h13.43v72.13H130.36Z"/><path class="cls-1" d="M150.17,613H163.3l12.3,38.09h.21V613h10.75v72.13H176.11l-14.36-43.66h-.21v43.66H150.17Z"/><path class="cls-1" d="M193.17,613h30.38v11.14H206.6v18.44h12.5v11.75H206.6V674h17.67v11.14h-31.1Z"/><path class="cls-1" d="M268.28,638.73q0-1.22.05-3.9a31.44,31.44,0,0,0-.36-5.37,15.58,15.58,0,0,0-1.45-4.71,3.39,3.39,0,0,0-3.2-2,3.68,3.68,0,0,0-2.32.86,7.12,7.12,0,0,0-1.86,3.6,43.42,43.42,0,0,0-1.19,7.9q-.41,5.17-.41,13.88,0,8.92.41,14.13a40,40,0,0,0,1.24,8,6.51,6.51,0,0,0,2,3.55,4.74,4.74,0,0,0,2.74.81,3.5,3.5,0,0,0,3-1.62,11,11,0,0,0,1.65-3.8,27.28,27.28,0,0,0,.67-4.41q.16-2.23.16-3.55h-5V651.49h16.33v33.63H275.1l-1.86-4.76a16,16,0,0,1-4.34,4.25,10.85,10.85,0,0,1-6.3,1.92,15.53,15.53,0,0,1-9-2.53,17.61,17.61,0,0,1-5.89-7.34,42.18,42.18,0,0,1-3.2-11.75,114,114,0,0,1-1-15.85,86.66,86.66,0,0,1,1.5-17.47,39.39,39.39,0,0,1,4.08-11.6,16.85,16.85,0,0,1,6-6.43,14.85,14.85,0,0,1,7.49-2,23.33,23.33,0,0,1,6.41.91,13,13,0,0,1,5.68,3.39,18.08,18.08,0,0,1,4,6.89,34.61,34.61,0,0,1,1.55,11.3v4.66Z"/><path class="cls-1" d="M288.54,613h15.09a33.18,33.18,0,0,1,8.68,1.06,16.7,16.7,0,0,1,6.72,3.5,16.12,16.12,0,0,1,4.34,6.33,26,26,0,0,1,1.55,9.57,34.47,34.47,0,0,1-.36,4.86,23,23,0,0,1-1.29,5,18.71,18.71,0,0,1-2.43,4.46,12.28,12.28,0,0,1-3.77,3.34l8,34H311.48l-6.3-31H302v31H288.54ZM302,643.59h2.69a5.55,5.55,0,0,0,3.15-.86,7,7,0,0,0,2.12-2.23,9.84,9.84,0,0,0,1.19-3.19,19.27,19.27,0,0,0,.36-3.75q0-5.87-2-8a7.21,7.21,0,0,0-5.42-2.08H302Z"/><path class="cls-1" d="M331.31,613h30.38v11.14H344.75v18.44h12.5v11.75h-12.5V674h17.67v11.14h-31.1Z"/><path class="cls-1" d="M365.82,613H378l4.75,42.34H383L389.38,613h12.09l5.89,42.34h.21L412.84,613h9.61l-9.61,72.13H400.65l-6.41-45.69H394l-6.61,45.69H375.64Z"/><path class="cls-1" d="M440.53,613H454v55.82a18,18,0,0,0,.15,2.38,6.15,6.15,0,0,0,.67,2.13,3.86,3.86,0,0,0,1.45,1.52,4.56,4.56,0,0,0,2.38.56,4,4,0,0,0,3.87-2,9.42,9.42,0,0,0,1.08-4.61V613h11.37v54.1q0,10.64-4.55,15t-12.61,4.41a22.05,22.05,0,0,1-7.08-1.06,13.74,13.74,0,0,1-5.42-3.34,15.09,15.09,0,0,1-3.51-6,28.77,28.77,0,0,1-1.24-9.07Z"/><path class="cls-1" d="M481.49,613h13.43q11.36,0,17.26,5t5.89,16.61a37.25,37.25,0,0,1-1,8.86,18.26,18.26,0,0,1-3.15,6.84,14.64,14.64,0,0,1-5.53,4.41,19,19,0,0,1-8.11,1.57h-5.37v28.87H481.49ZM495,645.72h1.14a12.88,12.88,0,0,0,3.62-.46,5.58,5.58,0,0,0,2.63-1.67,8.07,8.07,0,0,0,1.65-3.34,21.29,21.29,0,0,0,.57-5.37,19.83,19.83,0,0,0-.72-6.08,7.39,7.39,0,0,0-1.91-3.19,5,5,0,0,0-2.74-1.27,24.76,24.76,0,0,0-3.2-.2h-1Z"/><path class="cls-1" d="M539.14,613h13.43v72.13H539.14Z"/><path class="cls-1" d="M559,613h13.12l12.3,38.09h.21V613h10.75v72.13H584.9l-14.36-43.66h-.21v43.66H559Z"/><path class="cls-1" d="M623.54,613h11.68q8.47,0,13.38,2.58a17.46,17.46,0,0,1,7.44,7.29,30.28,30.28,0,0,1,3.2,11.35q.67,6.64.67,14.84,0,7.8-.62,14.44a34.17,34.17,0,0,1-2.89,11.45,17,17,0,0,1-6.77,7.5q-4.49,2.69-12.24,2.68H623.54ZM637,674a11.52,11.52,0,0,0,5-.86,5.59,5.59,0,0,0,2.63-3.5,29,29,0,0,0,1.08-7.55q.21-4.91.21-13.12t-.21-13.07a28.14,28.14,0,0,0-1.08-7.45,5.57,5.57,0,0,0-2.63-3.44,11.55,11.55,0,0,0-5-.86Z"/><path class="cls-1" d="M665.11,613h13.43v55.82a18,18,0,0,0,.15,2.38,6.15,6.15,0,0,0,.67,2.13,3.86,3.86,0,0,0,1.45,1.52,4.56,4.56,0,0,0,2.38.56,4,4,0,0,0,3.87-2,9.42,9.42,0,0,0,1.08-4.61V613h11.37v54.1q0,10.64-4.55,15t-12.61,4.41a22.05,22.05,0,0,1-7.08-1.06,13.74,13.74,0,0,1-5.42-3.34,15.09,15.09,0,0,1-3.51-6,28.77,28.77,0,0,1-1.24-9.07Z"/><path class="cls-1" d="M706.07,613H722.6a22.93,22.93,0,0,1,6.3.91,15.91,15.91,0,0,1,10.18,8.66,19.67,19.67,0,0,1,1.7,8.66,18.43,18.43,0,0,1-2.89,10.43Q735,646,728.8,647.34v.2q6.92,1.62,10.18,6.13a19,19,0,0,1,3.25,11.4,22,22,0,0,1-1.6,8.71,18.85,18.85,0,0,1-4.24,6.28,17.33,17.33,0,0,1-6,3.8,20.28,20.28,0,0,1-7.13,1.27H706.07Zm13.43,29.58q5.06,0,6.77-2.33t1.71-7.19a27.81,27.81,0,0,0-.36-5,5.62,5.62,0,0,0-1.34-2.94,4.76,4.76,0,0,0-2.63-1.32,23.38,23.38,0,0,0-4.13-.3Zm0,32a16,16,0,0,0,4.86-.61,5.71,5.71,0,0,0,2.84-1.87,7,7,0,0,0,1.29-3.29,32.73,32.73,0,0,0,.31-4.86,23.79,23.79,0,0,0-.36-4.36,7.39,7.39,0,0,0-1.39-3.24,6.23,6.23,0,0,0-2.84-2,14,14,0,0,0-4.7-.66Z"/><path class="cls-1" d="M753.4,613h19.43l9.09,72.13H769l-2-16H756.19l-1.86,16H743.07ZM762,624.14h-.21l-4.24,34.44h8.37Z"/><path class="cls-1" d="M785,613h13.43v72.13H785Z"/><path class="cls-1" d="M804.52,672H818v13.17H804.52Z"/></g></g></svg>