<svg xmlns="http://www.w3.org/2000/svg" viewBox="0 0 597.68 246.3"><defs><style>.cls-1{fill:#fff;}</style></defs><title>Netflix no sleeps given</title><g id="Layer_2" data-name="Layer 2"><g id="Layer_1-2" data-name="Layer 1"><rect class="cls-1" x="2.47" width="152.71" height="16.91"/><path class="cls-1" d="M2.38,37.61h8l7.5,23.69H18V37.61h6.55V82.46H18.19L9.43,55.31H9.31V82.46H2.38Z"/><path class="cls-1" d="M28.73,37.61H47.25v6.93H36.92V56h7.62v7.31H36.92V75.54H47.69v6.93h-19Z"/><path class="cls-1" d="M55.27,44.54H48.21V37.61h22.3v6.93H63.46V82.46H55.27Z"/><path class="cls-1" d="M72.19,37.61H90.52v6.93H80.38v12h7.5v7.31h-7.5V82.46H72.19Z"/><path class="cls-1" d="M92.49,37.61h8.19V75.54h10.46v6.93H92.49Z"/><path class="cls-1" d="M113.39,37.61h8.19V82.46h-8.19Z"/><path class="cls-1" d="M130.48,59.6l-7.18-22h8.19l3.4,12H135l3-12h7l-6.68,20.85,7.94,24H138l-4-13.48h-.13l-3.78,13.48h-6.93Z"/><path class="cls-1" d="M2.38,100.61h8l7.5,23.69H18V100.61h6.55v44.86H18.19L9.43,118.31H9.31v27.15H2.38Z"/><path class="cls-1" d="M27.69,123a60.71,60.71,0,0,1,.85-11.09A22.92,22.92,0,0,1,31,104.77a9.74,9.74,0,0,1,3.78-3.87,10.94,10.94,0,0,1,9.83,0,9.75,9.75,0,0,1,3.78,3.87,22.94,22.94,0,0,1,2.43,7.18A60.7,60.7,0,0,1,51.63,123a60.69,60.69,0,0,1-.85,11.09,22.92,22.92,0,0,1-2.43,7.18,9.74,9.74,0,0,1-3.78,3.88,10.95,10.95,0,0,1-9.83,0A9.73,9.73,0,0,1,31,141.31a22.89,22.89,0,0,1-2.43-7.18A60.7,60.7,0,0,1,27.69,123Zm8.95,4.72q0,3.65.22,5.92a20.19,20.19,0,0,0,.6,3.56A3.37,3.37,0,0,0,38.4,139a2,2,0,0,0,2.52,0,3.37,3.37,0,0,0,.95-1.73,20.28,20.28,0,0,0,.6-3.56q.22-2.27.22-5.92v-9.45q0-3.65-.22-5.92a19.51,19.51,0,0,0-.6-3.53,3.58,3.58,0,0,0-.95-1.73,1.92,1.92,0,0,0-2.52,0,3.58,3.58,0,0,0-.95,1.73,19.42,19.42,0,0,0-.6,3.53q-.22,2.27-.22,5.92Z"/><path class="cls-1" d="M73.55,132.49q0,.94.06,2.14A9.77,9.77,0,0,0,74,136.9a4.13,4.13,0,0,0,1,1.8,2.77,2.77,0,0,0,2,.72,3.29,3.29,0,0,0,1.7-.41,3.48,3.48,0,0,0,1.13-1.07,4.53,4.53,0,0,0,.63-1.42,6,6,0,0,0,.19-1.45,6.12,6.12,0,0,0-1.1-3.59,17.44,17.44,0,0,0-2.74-3q-1.64-1.45-3.59-3a25,25,0,0,1-3.59-3.4A17.53,17.53,0,0,1,67,117.75a14.05,14.05,0,0,1-1.1-5.8,16,16,0,0,1,.69-4.76,11.53,11.53,0,0,1,2-3.87,9.71,9.71,0,0,1,3.31-2.61,11.37,11.37,0,0,1,9.29,0,8.56,8.56,0,0,1,3.18,2.8,12.84,12.84,0,0,1,1.83,4.32,26.43,26.43,0,0,1,.66,5.54H79.54c0-.63,0-1.33-.06-2.11a10.56,10.56,0,0,0-.35-2.21,3.83,3.83,0,0,0-1-1.73,2.56,2.56,0,0,0-1.89-.69A2.64,2.64,0,0,0,74,107.79a4.94,4.94,0,0,0-.82,3,5.91,5.91,0,0,0,1.1,3.46A18.16,18.16,0,0,0,77,117.27q1.64,1.48,3.59,3.06a26,26,0,0,1,3.59,3.53,18.82,18.82,0,0,1,2.74,4.41A13.91,13.91,0,0,1,88,134a15.57,15.57,0,0,1-.72,4.82,11.38,11.38,0,0,1-2.14,3.91,10.13,10.13,0,0,1-3.53,2.65,11.51,11.51,0,0,1-4.88,1,9.85,9.85,0,0,1-5.32-1.29,9.47,9.47,0,0,1-3.21-3.31,13.16,13.16,0,0,1-1.57-4.47,29,29,0,0,1-.41-4.79Z"/><path class="cls-1" d="M90.42,100.61h8.19v37.93h10.46v6.93H90.42Z"/><path class="cls-1" d="M111.48,100.61H130v6.93H119.67V119h7.62v7.31h-7.62v12.22h10.77v6.93h-19Z"/><path class="cls-1" d="M132.7,100.61h18.52v6.93H140.89V119h7.62v7.31h-7.62v12.22h10.77v6.93h-19Z"/><path class="cls-1" d="M153.92,100.61h8.19q6.93,0,10.52,3.09T176.23,114a23.6,23.6,0,0,1-.6,5.51,11.46,11.46,0,0,1-1.92,4.25,9,9,0,0,1-3.37,2.74,11.41,11.41,0,0,1-4.95,1h-3.28v18h-8.19ZM162.18,121h.69a7.72,7.72,0,0,0,2.21-.28,3.4,3.4,0,0,0,1.61-1,5.07,5.07,0,0,0,1-2.08,13.49,13.49,0,0,0,.35-3.34,12.56,12.56,0,0,0-.44-3.78,4.62,4.62,0,0,0-1.17-2,3,3,0,0,0-1.67-.79,14.77,14.77,0,0,0-2-.13h-.63Z"/><path class="cls-1" d="M184.76,132.49q0,.94.06,2.14a9.77,9.77,0,0,0,.38,2.27,4.13,4.13,0,0,0,1,1.8,2.77,2.77,0,0,0,2,.72A3.29,3.29,0,0,0,190,139a3.48,3.48,0,0,0,1.13-1.07,4.53,4.53,0,0,0,.63-1.42,6,6,0,0,0,.19-1.45,6.12,6.12,0,0,0-1.1-3.59,17.44,17.44,0,0,0-2.74-3q-1.64-1.45-3.59-3a25,25,0,0,1-3.59-3.4,17.53,17.53,0,0,1-2.74-4.35,14.05,14.05,0,0,1-1.1-5.8,16,16,0,0,1,.69-4.76,11.53,11.53,0,0,1,2-3.87,9.71,9.71,0,0,1,3.31-2.61,11.37,11.37,0,0,1,9.29,0,8.56,8.56,0,0,1,3.18,2.8,12.84,12.84,0,0,1,1.83,4.32,26.43,26.43,0,0,1,.66,5.54h-7.31c0-.63,0-1.33-.06-2.11a10.56,10.56,0,0,0-.35-2.21,3.83,3.83,0,0,0-1-1.73,2.56,2.56,0,0,0-1.89-.69,2.64,2.64,0,0,0-2.27,1.13,4.94,4.94,0,0,0-.82,3,5.91,5.91,0,0,0,1.1,3.46,18.16,18.16,0,0,0,2.74,3.06q1.64,1.48,3.59,3.06a26,26,0,0,1,3.59,3.53,18.82,18.82,0,0,1,2.74,4.41,13.91,13.91,0,0,1,1.1,5.73,15.57,15.57,0,0,1-.72,4.82,11.38,11.38,0,0,1-2.14,3.91,10.13,10.13,0,0,1-3.53,2.65,11.51,11.51,0,0,1-4.88,1,9.85,9.85,0,0,1-5.32-1.29,9.47,9.47,0,0,1-3.21-3.31,13.16,13.16,0,0,1-1.57-4.47,29,29,0,0,1-.41-4.79Z"/><path class="cls-1" d="M228.61,116.61q0-.76,0-2.43a19.94,19.94,0,0,0-.22-3.34,9.83,9.83,0,0,0-.88-2.93,2.06,2.06,0,0,0-2-1.26,2.22,2.22,0,0,0-1.42.54,4.45,4.45,0,0,0-1.13,2.24,27.51,27.51,0,0,0-.72,4.91q-.25,3.21-.25,8.63t.25,8.79a25.32,25.32,0,0,0,.76,4.95,4.07,4.07,0,0,0,1.23,2.21,2.85,2.85,0,0,0,1.67.5,2.12,2.12,0,0,0,1.83-1,6.89,6.89,0,0,0,1-2.36,17.27,17.27,0,0,0,.41-2.74q.09-1.38.09-2.21h-3v-6.55h10v20.92h-3.46l-1.13-3a9.86,9.86,0,0,1-2.65,2.65,6.52,6.52,0,0,1-3.84,1.2,9.33,9.33,0,0,1-5.51-1.58A10.91,10.91,0,0,1,216,140.2a26.65,26.65,0,0,1-2-7.31,72.32,72.32,0,0,1-.6-9.86,54.94,54.94,0,0,1,.91-10.87,24.81,24.81,0,0,1,2.49-7.21,10.4,10.4,0,0,1,3.69-4,8.93,8.93,0,0,1,4.57-1.23,14,14,0,0,1,3.91.57,7.88,7.88,0,0,1,3.47,2.11,11.29,11.29,0,0,1,2.46,4.28,21.92,21.92,0,0,1,.95,7v2.9Z"/><path class="cls-1" d="M239.7,100.61h8.19v44.86H239.7Z"/><path class="cls-1" d="M249.87,100.61h8l3.84,31.5h.13l4.22-31.5h6.61l-6.74,44.86h-9.39Z"/><path class="cls-1" d="M274.79,100.61h18.52v6.93H283V119h7.62v7.31H283v12.22h10.77v6.93h-19Z"/><path class="cls-1" d="M295.87,100.61h8l7.5,23.69h.13V100.61H318v44.86h-6.36l-8.76-27.15h-.13v27.15h-6.93Z"/><path class="cls-1" d="M4.26,179.89H0v-4.18H13.45v4.18H9.2v22.88H4.26Z"/><path class="cls-1" d="M14.67,175.71h4.94v10.87h3.12V175.71h4.94v27.06H22.72V191.29H19.61v11.48H14.67Z"/><path class="cls-1" d="M30.47,175.71H41.64v4.18H35.41v6.92H40v4.41h-4.6v7.37h6.5v4.18H30.47Z"/><path class="cls-1" d="M51.22,175.71h4.94v22.88h6.31v4.18H51.22Z"/><path class="cls-1" d="M67.29,175.71h7.14l3.34,27.06H73l-.72-6h-4l-.68,6H63.49Zm3.15,4.18h-.08l-1.56,12.92h3.08Z"/><path class="cls-1" d="M79,175.71h4.94v20.94a6.89,6.89,0,0,0,.06.89,2.34,2.34,0,0,0,.25.8,1.43,1.43,0,0,0,.53.57,1.65,1.65,0,0,0,.87.21,1.47,1.47,0,0,0,1.43-.74,3.59,3.59,0,0,0,.4-1.73V175.71h4.18V196q0,4-1.67,5.64a6.31,6.31,0,0,1-4.64,1.65,8,8,0,0,1-2.6-.4,5,5,0,0,1-2-1.25,5.68,5.68,0,0,1-1.29-2.24A11,11,0,0,1,79,196Z"/><path class="cls-1" d="M94.25,175.71h4.83L103.6,190h.08V175.71h4v27.06h-3.84l-5.28-16.38h-.08v16.38H94.25Z"/><path class="cls-1" d="M118.74,185.51a17.93,17.93,0,0,0-.44-4.77q-.44-1.39-1.35-1.39a1.39,1.39,0,0,0-.76.25,2.22,2.22,0,0,0-.67,1.24,16.71,16.71,0,0,0-.46,3q-.17,2-.17,5.43t.11,5.3a20.07,20.07,0,0,0,.34,3,2.2,2.2,0,0,0,.63,1.31,1.63,1.63,0,0,0,1,.28q1.22,0,1.61-1.73a24.63,24.63,0,0,0,.48-4.69l4.18.19a35.42,35.42,0,0,1-.19,3.63,10.64,10.64,0,0,1-.87,3.34,6.37,6.37,0,0,1-2,2.47,5.55,5.55,0,0,1-3.44,1,5.63,5.63,0,0,1-3.32-1,6.58,6.58,0,0,1-2.17-2.75,16.07,16.07,0,0,1-1.18-4.41,43.6,43.6,0,0,1-.36-5.95,33.12,33.12,0,0,1,.55-6.55,15,15,0,0,1,1.5-4.35,6.27,6.27,0,0,1,2.22-2.41,5.38,5.38,0,0,1,2.76-.74,5.82,5.82,0,0,1,3.4.89,5.73,5.73,0,0,1,1.94,2.34,10.35,10.35,0,0,1,.85,3.27,35.61,35.61,0,0,1,.19,3.69Z"/><path class="cls-1" d="M125.43,175.71h4.94v10.87h3.12V175.71h4.94v27.06h-4.94V191.29h-3.12v11.48h-4.94Z"/><path class="cls-1" d="M148.27,189.24a36.61,36.61,0,0,1,.51-6.69,13.83,13.83,0,0,1,1.46-4.33,5.87,5.87,0,0,1,2.28-2.34,6.6,6.6,0,0,1,5.93,0,5.88,5.88,0,0,1,2.28,2.34,13.84,13.84,0,0,1,1.46,4.33,43.86,43.86,0,0,1,0,13.38,13.83,13.83,0,0,1-1.46,4.33,5.88,5.88,0,0,1-2.28,2.34,6.6,6.6,0,0,1-5.93,0,5.87,5.87,0,0,1-2.28-2.34,13.82,13.82,0,0,1-1.46-4.33A36.62,36.62,0,0,1,148.27,189.24Zm5.4,2.85q0,2.2.13,3.57a12.18,12.18,0,0,0,.36,2.15,2,2,0,0,0,.57,1,1.22,1.22,0,0,0,1.52,0,2,2,0,0,0,.57-1,12.23,12.23,0,0,0,.36-2.15q.13-1.37.13-3.57v-5.7q0-2.2-.13-3.57a11.76,11.76,0,0,0-.36-2.13,2.16,2.16,0,0,0-.57-1,1.16,1.16,0,0,0-1.52,0,2.16,2.16,0,0,0-.57,1,11.72,11.72,0,0,0-.36,2.13q-.13,1.37-.13,3.57Z"/><path class="cls-1" d="M164.85,175.71h11.06v4.18h-6.12v7.22h4.52v4.41h-4.52v11.25h-4.94Z"/><path class="cls-1" d="M184.69,175.71h4.83L194,190h.08V175.71h4v27.06h-3.84l-5.28-16.38h-.08v16.38h-4.18Z"/><path class="cls-1" d="M200.8,175.71H212v4.18h-6.23v6.92h4.6v4.41h-4.6v7.37h6.5v4.18H200.8Z"/><path class="cls-1" d="M217,179.89h-4.26v-4.18h13.45v4.18h-4.26v22.88H217Z"/><path class="cls-1" d="M227.4,175.71h11.06v4.18h-6.12v7.22h4.52v4.41h-4.52v11.25H227.4Z"/><path class="cls-1" d="M239.86,175.71h4.94v22.88h6.31v4.18H239.86Z"/><path class="cls-1" d="M252.69,175.71h4.94v27.06h-4.94Z"/><path class="cls-1" d="M263.2,189l-4.33-13.26h4.94l2.05,7.26h.08l1.82-7.26H272l-4,12.58,4.79,14.48h-5l-2.39-8.13h-.08L263,202.77h-4.18Z"/><path class="cls-1" d="M281.25,175.71h4.94v27.06h-4.94Z"/><path class="cls-1" d="M288.84,175.71h4.83L298.19,190h.08V175.71h4v27.06h-3.84l-5.28-16.38H293v16.38h-4.18Z"/><path class="cls-1" d="M314.87,179.89h-4.26v-4.18h13.45v4.18h-4.26v22.88h-4.94Z"/><path class="cls-1" d="M325.28,175.71h4.94v10.87h3.12V175.71h4.94v27.06h-4.94V191.29h-3.12v11.48h-4.94Z"/><path class="cls-1" d="M341.08,175.71h11.17v4.18H346v6.92h4.6v4.41H346v7.37h6.5v4.18H341.08Z"/><path class="cls-1" d="M361.64,175.71h6.57l2.2,13.87h.08l2.32-13.87h6.42v27.06h-4.41V182.93h-.08l-3.34,19.84h-2.74l-3.31-19.84h-.08v19.84h-3.65Z"/><path class="cls-1" d="M381.86,175.71h4.94v27.06h-4.94Z"/><path class="cls-1" d="M389.53,175.71h4.29a10.47,10.47,0,0,1,4.92,1,6.48,6.48,0,0,1,2.74,2.74,11.53,11.53,0,0,1,1.18,4.26q.25,2.49.25,5.57,0,2.93-.23,5.42a13,13,0,0,1-1.06,4.29,6.32,6.32,0,0,1-2.49,2.81,8.63,8.63,0,0,1-4.5,1h-5.09Zm4.94,22.88a4.16,4.16,0,0,0,1.82-.32,2.09,2.09,0,0,0,1-1.31,11.08,11.08,0,0,0,.4-2.83q.08-1.84.08-4.92t-.08-4.9a10.75,10.75,0,0,0-.4-2.79,2.08,2.08,0,0,0-1-1.29,4.17,4.17,0,0,0-1.82-.32Z"/><path class="cls-1" d="M405.27,175.71h4.29a10.47,10.47,0,0,1,4.92,1,6.48,6.48,0,0,1,2.74,2.74,11.53,11.53,0,0,1,1.18,4.26q.25,2.49.25,5.57,0,2.93-.23,5.42a13,13,0,0,1-1.06,4.29,6.32,6.32,0,0,1-2.49,2.81,8.63,8.63,0,0,1-4.5,1h-5.09Zm4.94,22.88a4.16,4.16,0,0,0,1.82-.32,2.09,2.09,0,0,0,1-1.31,11.08,11.08,0,0,0,.4-2.83q.08-1.84.08-4.92t-.08-4.9a10.75,10.75,0,0,0-.4-2.79,2.08,2.08,0,0,0-1-1.29,4.17,4.17,0,0,0-1.82-.32Z"/><path class="cls-1" d="M421,175.71h4.94v22.88h6.31v4.18H421Z"/><path class="cls-1" d="M433.93,175.71H445.1v4.18h-6.23v6.92h4.6v4.41h-4.6v7.37h6.5v4.18H433.93Z"/><path class="cls-1" d="M454.67,175.71h11.17v4.18h-6.23v6.92h4.6v4.41h-4.6v7.37h6.5v4.18H454.67Z"/><path class="cls-1" d="M470.84,175.71H478l3.34,27.06h-4.75l-.72-6h-4l-.68,6H467Zm3.15,4.18h-.08l-1.56,12.92h3.08Z"/><path class="cls-1" d="M486.4,194.94c0,.38,0,.81,0,1.29a5.9,5.9,0,0,0,.23,1.37,2.49,2.49,0,0,0,.63,1.08,1.67,1.67,0,0,0,1.23.44,2,2,0,0,0,1-.25,2.1,2.1,0,0,0,.68-.65,2.72,2.72,0,0,0,.38-.86,3.6,3.6,0,0,0,.11-.87,3.69,3.69,0,0,0-.67-2.17,10.48,10.48,0,0,0-1.65-1.82q-1-.87-2.17-1.79a15.08,15.08,0,0,1-2.17-2.05,10.6,10.6,0,0,1-1.65-2.62,8.48,8.48,0,0,1-.67-3.5,9.63,9.63,0,0,1,.42-2.87,7,7,0,0,1,1.22-2.34,5.86,5.86,0,0,1,2-1.58,6.86,6.86,0,0,1,5.6,0,5.17,5.17,0,0,1,1.92,1.69,7.73,7.73,0,0,1,1.1,2.6,15.94,15.94,0,0,1,.4,3.34H490q0-.57,0-1.27a6.37,6.37,0,0,0-.21-1.33,2.31,2.31,0,0,0-.59-1,1.54,1.54,0,0,0-1.14-.42,1.59,1.59,0,0,0-1.37.68,3,3,0,0,0-.49,1.79,3.56,3.56,0,0,0,.67,2.09,11,11,0,0,0,1.65,1.84q1,.89,2.17,1.84a15.68,15.68,0,0,1,2.17,2.13,11.36,11.36,0,0,1,1.65,2.66,8.39,8.39,0,0,1,.67,3.46,9.39,9.39,0,0,1-.44,2.91,6.86,6.86,0,0,1-1.29,2.36,6.11,6.11,0,0,1-2.13,1.6,7,7,0,0,1-2.95.59,5.94,5.94,0,0,1-3.21-.78,5.7,5.7,0,0,1-1.94-2,7.94,7.94,0,0,1-1-2.7,17.5,17.5,0,0,1-.25-2.89Z"/><path class="cls-1" d="M499.48,179.89h-4.26v-4.18h13.45v4.18h-4.26v22.88h-4.94Z"/><path class="cls-1" d="M517.27,175.71h5.55a12,12,0,0,1,3.19.4,6.1,6.1,0,0,1,2.47,1.31,6,6,0,0,1,1.6,2.38,9.93,9.93,0,0,1,.57,3.59,13.2,13.2,0,0,1-.13,1.82,8.76,8.76,0,0,1-.48,1.86,7,7,0,0,1-.89,1.67,4.54,4.54,0,0,1-1.39,1.25l2.93,12.77h-5l-2.32-11.63h-1.18v11.63h-4.94Zm4.94,11.48h1a2,2,0,0,0,1.16-.32,2.6,2.6,0,0,0,.78-.84,3.73,3.73,0,0,0,.44-1.2,7.36,7.36,0,0,0,.13-1.41,4.42,4.42,0,0,0-.74-3,2.63,2.63,0,0,0-2-.78h-.76Z"/><path class="cls-1" d="M532.55,175.71h11.17v4.18h-6.23v6.92h4.6v4.41h-4.6v7.37H544v4.18H532.55Z"/><path class="cls-1" d="M553.83,185.36q0-.46,0-1.46a12,12,0,0,0-.13-2,5.93,5.93,0,0,0-.53-1.77,1.24,1.24,0,0,0-1.18-.76,1.34,1.34,0,0,0-.85.32,2.69,2.69,0,0,0-.68,1.35,16.57,16.57,0,0,0-.44,3q-.15,1.94-.15,5.21t.15,5.3a15.28,15.28,0,0,0,.46,3,2.45,2.45,0,0,0,.74,1.33,1.71,1.71,0,0,0,1,.3,1.28,1.28,0,0,0,1.1-.61,4.15,4.15,0,0,0,.61-1.42,10.45,10.45,0,0,0,.25-1.65q.06-.83.06-1.33h-1.82v-4h6v12.62h-2.09l-.68-1.79a6,6,0,0,1-1.6,1.6,3.93,3.93,0,0,1-2.32.72,5.63,5.63,0,0,1-3.32-1,6.58,6.58,0,0,1-2.17-2.75,16.07,16.07,0,0,1-1.18-4.41,43.6,43.6,0,0,1-.36-5.95,33.12,33.12,0,0,1,.55-6.55,15,15,0,0,1,1.5-4.35,6.27,6.27,0,0,1,2.22-2.41,5.38,5.38,0,0,1,2.76-.74,8.43,8.43,0,0,1,2.36.34,4.75,4.75,0,0,1,2.09,1.27,6.81,6.81,0,0,1,1.48,2.58,13.22,13.22,0,0,1,.57,4.24v1.75Z"/><path class="cls-1" d="M560.73,175.71h4.94v27.06h-4.94Z"/><path class="cls-1" d="M567.81,189.24a36.61,36.61,0,0,1,.51-6.69,13.83,13.83,0,0,1,1.46-4.33,5.87,5.87,0,0,1,2.28-2.34,6.6,6.6,0,0,1,5.93,0,5.88,5.88,0,0,1,2.28,2.34,13.84,13.84,0,0,1,1.46,4.33,43.86,43.86,0,0,1,0,13.38,13.83,13.83,0,0,1-1.46,4.33A5.88,5.88,0,0,1,578,202.6a6.6,6.6,0,0,1-5.93,0,5.87,5.87,0,0,1-2.28-2.34,13.82,13.82,0,0,1-1.46-4.33A36.62,36.62,0,0,1,567.81,189.24Zm5.4,2.85q0,2.2.13,3.57a12.18,12.18,0,0,0,.36,2.15,2,2,0,0,0,.57,1,1.22,1.22,0,0,0,1.52,0,2,2,0,0,0,.57-1,12.23,12.23,0,0,0,.36-2.15q.13-1.37.13-3.57v-5.7q0-2.2-.13-3.57a11.76,11.76,0,0,0-.36-2.13,2.16,2.16,0,0,0-.57-1,1.16,1.16,0,0,0-1.52,0,2.16,2.16,0,0,0-.57,1,11.72,11.72,0,0,0-.36,2.13q-.13,1.37-.13,3.57Z"/><path class="cls-1" d="M584.3,175.71h4.83L593.65,190h.08V175.71h4v27.06h-3.84l-5.28-16.38h-.08v16.38H584.3Z"/><path class="cls-1" d="M4.26,222.89H0v-4.18H13.45v4.18H9.2v22.88H4.26Z"/><path class="cls-1" d="M13.79,232.24a36.62,36.62,0,0,1,.51-6.69,13.83,13.83,0,0,1,1.46-4.33A5.87,5.87,0,0,1,18,218.88a6.6,6.6,0,0,1,5.93,0,5.88,5.88,0,0,1,2.28,2.34,13.84,13.84,0,0,1,1.46,4.33,36.62,36.62,0,0,1,.51,6.69,36.63,36.63,0,0,1-.51,6.69,13.83,13.83,0,0,1-1.46,4.33A5.88,5.88,0,0,1,24,245.6a6.6,6.6,0,0,1-5.93,0,5.87,5.87,0,0,1-2.28-2.34,13.82,13.82,0,0,1-1.46-4.33A36.63,36.63,0,0,1,13.79,232.24Zm5.4,2.85q0,2.2.13,3.57a12.18,12.18,0,0,0,.36,2.15,2,2,0,0,0,.57,1,1.22,1.22,0,0,0,1.52,0,2,2,0,0,0,.57-1,12.22,12.22,0,0,0,.36-2.15q.13-1.37.13-3.57v-5.7q0-2.2-.13-3.57a11.76,11.76,0,0,0-.36-2.13,2.16,2.16,0,0,0-.57-1,1.16,1.16,0,0,0-1.52,0,2.16,2.16,0,0,0-.57,1,11.72,11.72,0,0,0-.36,2.13q-.13,1.37-.13,3.57Z"/><path class="cls-1" d="M40.5,218.71h7.14L51,245.77H46.24l-.72-6h-4l-.68,6H36.7Zm3.15,4.18h-.08L42,235.81H45.1Z"/><path class="cls-1" d="M52.43,218.71h4.83L61.78,233h.08V218.71h4v27.06H62l-5.28-16.38h-.08v16.38H52.43Z"/><path class="cls-1" d="M78.61,218.71h7.14l3.34,27.06H84.35l-.72-6h-4l-.68,6H74.81Zm3.15,4.18h-.08l-1.56,12.92h3.08Z"/><path class="cls-1" d="M90.3,218.71h4.94v20.94a6.89,6.89,0,0,0,.06.89,2.34,2.34,0,0,0,.25.8,1.43,1.43,0,0,0,.53.57,1.65,1.65,0,0,0,.87.21,1.47,1.47,0,0,0,1.43-.74,3.59,3.59,0,0,0,.4-1.73V218.71H103V239q0,4-1.67,5.64a6.31,6.31,0,0,1-4.64,1.65,8,8,0,0,1-2.6-.4,5,5,0,0,1-2-1.25,5.68,5.68,0,0,1-1.29-2.24,11,11,0,0,1-.46-3.4Z"/><path class="cls-1" d="M105.67,218.71H110a10.47,10.47,0,0,1,4.92,1,6.48,6.48,0,0,1,2.74,2.74,11.53,11.53,0,0,1,1.18,4.26q.25,2.49.25,5.57,0,2.93-.23,5.42a13,13,0,0,1-1.06,4.29,6.32,6.32,0,0,1-2.49,2.81,8.63,8.63,0,0,1-4.5,1h-5.09Zm4.94,22.88a4.16,4.16,0,0,0,1.82-.32,2.09,2.09,0,0,0,1-1.31,11.08,11.08,0,0,0,.4-2.83q.08-1.84.08-4.92t-.08-4.9a10.75,10.75,0,0,0-.4-2.79,2.08,2.08,0,0,0-1-1.29,4.17,4.17,0,0,0-1.82-.32Z"/><path class="cls-1" d="M121.34,218.71h4.94v27.06h-4.94Z"/><path class="cls-1" d="M129,218.71h11.17v4.18H134v6.92h4.6v4.41H134v7.37h6.5v4.18H129Z"/><path class="cls-1" d="M141.95,218.71h4.83L151.29,233h.08V218.71h4v27.06h-3.84l-5.28-16.38h-.08v16.38h-4.18Z"/><path class="cls-1" d="M166.43,228.51a17.93,17.93,0,0,0-.44-4.77q-.44-1.39-1.35-1.39a1.39,1.39,0,0,0-.76.25,2.22,2.22,0,0,0-.67,1.24,16.71,16.71,0,0,0-.46,3q-.17,2-.17,5.43t.11,5.3a20.07,20.07,0,0,0,.34,3,2.2,2.2,0,0,0,.63,1.31,1.63,1.63,0,0,0,1,.28q1.22,0,1.61-1.73a24.63,24.63,0,0,0,.48-4.69l4.18.19a35.42,35.42,0,0,1-.19,3.63,10.64,10.64,0,0,1-.87,3.34,6.37,6.37,0,0,1-2,2.47,5.55,5.55,0,0,1-3.44,1,5.63,5.63,0,0,1-3.32-1,6.58,6.58,0,0,1-2.17-2.75,16.07,16.07,0,0,1-1.18-4.41,43.6,43.6,0,0,1-.36-5.95,33.12,33.12,0,0,1,.55-6.55,15,15,0,0,1,1.5-4.35,6.27,6.27,0,0,1,2.22-2.41,5.38,5.38,0,0,1,2.76-.74,5.82,5.82,0,0,1,3.4.89,5.73,5.73,0,0,1,1.94,2.34,10.35,10.35,0,0,1,.85,3.27,35.61,35.61,0,0,1,.19,3.69Z"/><path class="cls-1" d="M173.12,218.71h11.17v4.18h-6.23v6.92h4.6v4.41h-4.6v7.37h6.5v4.18H173.12Z"/><path class="cls-1" d="M196.3,218.71h7.14l3.34,27.06H202l-.72-6h-4l-.68,6H192.5Zm3.15,4.18h-.08l-1.56,12.92h3.08Z"/><path class="cls-1" d="M206.48,218.71h4.83l2.32,19h.08l2.55-19h4l-4.07,27.06h-5.66Z"/><path class="cls-1" d="M221.73,218.71H232.9v4.18h-6.23v6.92h4.6v4.41h-4.6v7.37h6.5v4.18H221.73Z"/><path class="cls-1" d="M234.75,218.71h5.55a12,12,0,0,1,3.19.4,6.1,6.1,0,0,1,2.47,1.31,6,6,0,0,1,1.6,2.38,9.93,9.93,0,0,1,.57,3.59,13.2,13.2,0,0,1-.13,1.82,8.76,8.76,0,0,1-.48,1.86,7,7,0,0,1-.89,1.67,4.54,4.54,0,0,1-1.39,1.25l2.93,12.77h-5l-2.32-11.63h-1.18v11.63h-4.94Zm4.94,11.48h1a2,2,0,0,0,1.16-.32,2.6,2.6,0,0,0,.78-.84,3.73,3.73,0,0,0,.44-1.2,7.36,7.36,0,0,0,.13-1.41,4.42,4.42,0,0,0-.74-3,2.63,2.63,0,0,0-2-.78h-.76Z"/><path class="cls-1" d="M253.82,237.94c0,.38,0,.81,0,1.29a5.9,5.9,0,0,0,.23,1.37,2.49,2.49,0,0,0,.63,1.08,1.67,1.67,0,0,0,1.23.44,2,2,0,0,0,1-.25,2.1,2.1,0,0,0,.68-.65,2.72,2.72,0,0,0,.38-.86,3.6,3.6,0,0,0,.11-.87,3.69,3.69,0,0,0-.67-2.17,10.48,10.48,0,0,0-1.65-1.82q-1-.87-2.17-1.79a15.08,15.08,0,0,1-2.17-2.05,10.6,10.6,0,0,1-1.65-2.62,8.48,8.48,0,0,1-.67-3.5,9.63,9.63,0,0,1,.42-2.87,7,7,0,0,1,1.22-2.34,5.86,5.86,0,0,1,2-1.58,6.86,6.86,0,0,1,5.6,0,5.17,5.17,0,0,1,1.92,1.69,7.73,7.73,0,0,1,1.1,2.6,15.94,15.94,0,0,1,.4,3.34h-4.41q0-.57,0-1.27a6.37,6.37,0,0,0-.21-1.33,2.31,2.31,0,0,0-.59-1,1.54,1.54,0,0,0-1.14-.42,1.59,1.59,0,0,0-1.37.68,3,3,0,0,0-.49,1.79,3.56,3.56,0,0,0,.67,2.09,11,11,0,0,0,1.65,1.84q1,.89,2.17,1.84a15.68,15.68,0,0,1,2.17,2.13,11.36,11.36,0,0,1,1.65,2.66,8.39,8.39,0,0,1,.67,3.46,9.39,9.39,0,0,1-.44,2.91,6.86,6.86,0,0,1-1.29,2.36,6.11,6.11,0,0,1-2.13,1.6,7,7,0,0,1-2.95.59,5.94,5.94,0,0,1-3.21-.78,5.7,5.7,0,0,1-1.94-2,7.94,7.94,0,0,1-1-2.7,17.5,17.5,0,0,1-.25-2.89Z"/><path class="cls-1" d="M264.22,218.71h11.17v4.18h-6.23v6.92h4.6v4.41h-4.6v7.37h6.5v4.18H264.22Z"/><path class="cls-1" d="M287.24,222.89H283v-4.18h13.45v4.18h-4.26v22.88h-4.94Z"/><path class="cls-1" d="M296.78,232.24a36.61,36.61,0,0,1,.51-6.69,13.83,13.83,0,0,1,1.46-4.33,5.87,5.87,0,0,1,2.28-2.34,6.6,6.6,0,0,1,5.93,0,5.88,5.88,0,0,1,2.28,2.34,13.84,13.84,0,0,1,1.46,4.33,43.86,43.86,0,0,1,0,13.38,13.83,13.83,0,0,1-1.46,4.33A5.88,5.88,0,0,1,307,245.6a6.6,6.6,0,0,1-5.93,0,5.87,5.87,0,0,1-2.28-2.34,13.82,13.82,0,0,1-1.46-4.33A36.62,36.62,0,0,1,296.78,232.24Zm5.4,2.85q0,2.2.13,3.57a12.18,12.18,0,0,0,.36,2.15,2,2,0,0,0,.57,1,1.22,1.22,0,0,0,1.52,0,2,2,0,0,0,.57-1,12.23,12.23,0,0,0,.36-2.15q.13-1.37.13-3.57v-5.7q0-2.2-.13-3.57a11.76,11.76,0,0,0-.36-2.13,2.16,2.16,0,0,0-.57-1,1.16,1.16,0,0,0-1.52,0,2.16,2.16,0,0,0-.57,1,11.72,11.72,0,0,0-.36,2.13q-.13,1.37-.13,3.57Z"/><path class="cls-1" d="M324.44,237.94c0,.38,0,.81,0,1.29a5.9,5.9,0,0,0,.23,1.37,2.49,2.49,0,0,0,.63,1.08,1.67,1.67,0,0,0,1.23.44,2,2,0,0,0,1-.25,2.1,2.1,0,0,0,.68-.65,2.72,2.72,0,0,0,.38-.86,3.6,3.6,0,0,0,.11-.87,3.69,3.69,0,0,0-.67-2.17,10.48,10.48,0,0,0-1.65-1.82q-1-.87-2.17-1.79a15.08,15.08,0,0,1-2.17-2.05,10.6,10.6,0,0,1-1.65-2.62,8.48,8.48,0,0,1-.67-3.5,9.63,9.63,0,0,1,.42-2.87,7,7,0,0,1,1.22-2.34,5.86,5.86,0,0,1,2-1.58,6.86,6.86,0,0,1,5.6,0,5.17,5.17,0,0,1,1.92,1.69,7.73,7.73,0,0,1,1.1,2.6,15.94,15.94,0,0,1,.4,3.34H328q0-.57,0-1.27a6.37,6.37,0,0,0-.21-1.33,2.31,2.31,0,0,0-.59-1,1.54,1.54,0,0,0-1.14-.42,1.59,1.59,0,0,0-1.37.68,3,3,0,0,0-.49,1.79,3.56,3.56,0,0,0,.67,2.09,11,11,0,0,0,1.65,1.84q1,.89,2.17,1.84a15.68,15.68,0,0,1,2.17,2.13,11.36,11.36,0,0,1,1.65,2.66,8.39,8.39,0,0,1,.67,3.46,9.39,9.39,0,0,1-.44,2.91,6.86,6.86,0,0,1-1.29,2.36,6.11,6.11,0,0,1-2.13,1.6,7,7,0,0,1-2.95.59,5.94,5.94,0,0,1-3.21-.78,5.7,5.7,0,0,1-1.94-2,7.94,7.94,0,0,1-1-2.7,17.5,17.5,0,0,1-.25-2.89Z"/><path class="cls-1" d="M337.52,222.89h-4.26v-4.18h13.45v4.18h-4.26v22.88h-4.94Z"/><path class="cls-1" d="M347.93,218.71h5.55a12,12,0,0,1,3.19.4,6.1,6.1,0,0,1,2.47,1.31,6,6,0,0,1,1.6,2.38,9.93,9.93,0,0,1,.57,3.59,13.2,13.2,0,0,1-.13,1.82,8.76,8.76,0,0,1-.48,1.86,7,7,0,0,1-.89,1.67,4.54,4.54,0,0,1-1.39,1.25l2.93,12.77h-5L354,234.14h-1.18v11.63h-4.94Zm4.94,11.48h1a2,2,0,0,0,1.16-.32,2.6,2.6,0,0,0,.78-.84,3.73,3.73,0,0,0,.44-1.2,7.36,7.36,0,0,0,.13-1.41,4.42,4.42,0,0,0-.74-3,2.63,2.63,0,0,0-2-.78h-.76Z"/><path class="cls-1" d="M363.22,218.71h11.17v4.18h-6.23v6.92h4.6v4.41h-4.6v7.37h6.5v4.18H363.22Z"/><path class="cls-1" d="M379.39,218.71h7.14l3.34,27.06h-4.75l-.72-6h-4l-.68,6h-4.14Zm3.15,4.18h-.08l-1.56,12.92H384Z"/><path class="cls-1" d="M391.31,218.71h6.57l2.2,13.87h.08l2.32-13.87h6.42v27.06H404.5V225.93h-.08l-3.34,19.84h-2.74L395,225.93H395v19.84h-3.65Z"/><path class="cls-1" d="M411.53,218.71h4.94v27.06h-4.94Z"/><path class="cls-1" d="M419.11,218.71h4.83L428.46,233h.08V218.71h4v27.06h-3.84l-5.28-16.38h-.08v16.38h-4.18Z"/><path class="cls-1" d="M443.71,228.36q0-.46,0-1.46a12,12,0,0,0-.13-2,5.93,5.93,0,0,0-.53-1.77,1.24,1.24,0,0,0-1.18-.76,1.34,1.34,0,0,0-.85.32,2.69,2.69,0,0,0-.68,1.35,16.57,16.57,0,0,0-.44,3q-.15,1.94-.15,5.21t.15,5.3a15.28,15.28,0,0,0,.46,3,2.45,2.45,0,0,0,.74,1.33,1.71,1.71,0,0,0,1,.3,1.28,1.28,0,0,0,1.1-.61,4.15,4.15,0,0,0,.61-1.42,10.45,10.45,0,0,0,.25-1.65q.06-.83.06-1.33h-1.82v-4h6v12.62h-2.09l-.68-1.79a6,6,0,0,1-1.6,1.6,3.93,3.93,0,0,1-2.32.72,5.63,5.63,0,0,1-3.32-1,6.58,6.58,0,0,1-2.17-2.75,16.07,16.07,0,0,1-1.18-4.41,43.6,43.6,0,0,1-.36-5.95,33.12,33.12,0,0,1,.55-6.55,15,15,0,0,1,1.5-4.35,6.27,6.27,0,0,1,2.22-2.41,5.38,5.38,0,0,1,2.76-.74,8.43,8.43,0,0,1,2.36.34,4.75,4.75,0,0,1,2.09,1.27,6.81,6.81,0,0,1,1.48,2.58,13.22,13.22,0,0,1,.57,4.24v1.75Z"/><path class="cls-1" d="M466.44,228.51a17.93,17.93,0,0,0-.44-4.77q-.44-1.39-1.35-1.39a1.39,1.39,0,0,0-.76.25,2.22,2.22,0,0,0-.67,1.24,16.71,16.71,0,0,0-.46,3q-.17,2-.17,5.43t.11,5.3a20.07,20.07,0,0,0,.34,3,2.2,2.2,0,0,0,.63,1.31,1.63,1.63,0,0,0,1,.28q1.22,0,1.61-1.73a24.63,24.63,0,0,0,.48-4.69l4.18.19a35.42,35.42,0,0,1-.19,3.63,10.64,10.64,0,0,1-.87,3.34,6.37,6.37,0,0,1-2,2.47,5.55,5.55,0,0,1-3.44,1,5.63,5.63,0,0,1-3.32-1,6.58,6.58,0,0,1-2.17-2.75,16.07,16.07,0,0,1-1.18-4.41,43.6,43.6,0,0,1-.36-5.95,33.12,33.12,0,0,1,.55-6.55,15,15,0,0,1,1.5-4.35,6.27,6.27,0,0,1,2.22-2.41,5.38,5.38,0,0,1,2.76-.74,5.82,5.82,0,0,1,3.4.89,5.73,5.73,0,0,1,1.94,2.34,10.35,10.35,0,0,1,.85,3.27,35.61,35.61,0,0,1,.19,3.69Z"/><path class="cls-1" d="M472.48,232.24a36.61,36.61,0,0,1,.51-6.69,13.83,13.83,0,0,1,1.46-4.33,5.87,5.87,0,0,1,2.28-2.34,6.6,6.6,0,0,1,5.93,0,5.88,5.88,0,0,1,2.28,2.34,13.84,13.84,0,0,1,1.46,4.33,43.86,43.86,0,0,1,0,13.38,13.83,13.83,0,0,1-1.46,4.33,5.88,5.88,0,0,1-2.28,2.34,6.6,6.6,0,0,1-5.93,0,5.87,5.87,0,0,1-2.28-2.34,13.82,13.82,0,0,1-1.46-4.33A36.62,36.62,0,0,1,472.48,232.24Zm5.4,2.85q0,2.2.13,3.57a12.18,12.18,0,0,0,.36,2.15,2,2,0,0,0,.57,1,1.22,1.22,0,0,0,1.52,0,2,2,0,0,0,.57-1,12.23,12.23,0,0,0,.36-2.15q.13-1.37.13-3.57v-5.7q0-2.2-.13-3.57a11.76,11.76,0,0,0-.36-2.13,2.16,2.16,0,0,0-.57-1,1.16,1.16,0,0,0-1.52,0,2.16,2.16,0,0,0-.57,1,11.72,11.72,0,0,0-.36,2.13q-.13,1.37-.13,3.57Z"/><path class="cls-1" d="M489,218.71h4.83L498.33,233h.08V218.71h4v27.06h-3.84l-5.28-16.38h-.08v16.38H489Z"/><path class="cls-1" d="M507.76,222.89H503.5v-4.18H517v4.18H512.7v22.88h-4.94Z"/><path class="cls-1" d="M518.17,218.71h11.17v4.18h-6.23v6.92h4.6v4.41h-4.6v7.37h6.5v4.18H518.17Z"/><path class="cls-1" d="M531.1,218.71h4.83L540.45,233h.08V218.71h4v27.06h-3.84l-5.28-16.38h-.08v16.38H531.1Z"/><path class="cls-1" d="M549.88,222.89h-4.26v-4.18h13.45v4.18h-4.26v22.88h-4.94Z"/><path class="cls-1" d="M558.58,240.83h4.94v4.94h-4.94Z"/></g></g></svg>