<svg xmlns="http://www.w3.org/2000/svg" viewBox="0 0 721.55 289.29"><defs><style>.cls-1{fill:#fff;}</style></defs><title>5-Strangerthings</title><g id="Layer_2" data-name="Layer 2"><g id="Layer_1-2" data-name="Layer 1"><rect class="cls-1" x="1.86" width="152.71" height="16.91"/><path class="cls-1" d="M1.76,37.61h8l7.5,23.69h.13V37.61h6.55V82.46H17.58L8.82,55.31H8.69V82.46H1.76Z"/><path class="cls-1" d="M28.12,37.61H46.64v6.93H36.31V56h7.62v7.31H36.31V75.54H47.08v6.93h-19Z"/><path class="cls-1" d="M54.66,44.54H47.6V37.61H69.9v6.93H62.85V82.46H54.66Z"/><path class="cls-1" d="M71.58,37.61H89.91v6.93H79.77v12h7.5v7.31h-7.5V82.46H71.58Z"/><path class="cls-1" d="M91.88,37.61h8.19V75.54h10.46v6.93H91.88Z"/><path class="cls-1" d="M112.78,37.61H121V82.46h-8.19Z"/><path class="cls-1" d="M129.87,59.6l-7.18-22h8.19l3.4,12h.13l3-12h7l-6.68,20.85,7.94,24h-8.25l-4-13.48h-.13l-3.78,13.48h-6.93Z"/><path class="cls-1" d="M7.69,132.49q0,.94.06,2.14a9.84,9.84,0,0,0,.38,2.27,4.13,4.13,0,0,0,1,1.8,2.77,2.77,0,0,0,2,.72,3.29,3.29,0,0,0,1.7-.41A3.47,3.47,0,0,0,14,137.94a4.54,4.54,0,0,0,.63-1.42,6,6,0,0,0,.19-1.45,6.12,6.12,0,0,0-1.1-3.59,17.43,17.43,0,0,0-2.74-3q-1.64-1.45-3.59-3a24.88,24.88,0,0,1-3.59-3.4,17.53,17.53,0,0,1-2.74-4.35,14.05,14.05,0,0,1-1.1-5.8,16,16,0,0,1,.69-4.76,11.53,11.53,0,0,1,2-3.87A9.71,9.71,0,0,1,6,100.7a10.22,10.22,0,0,1,4.57-1,10.22,10.22,0,0,1,4.73,1,8.55,8.55,0,0,1,3.18,2.8,12.83,12.83,0,0,1,1.83,4.32A26.43,26.43,0,0,1,21,113.4H13.67c0-.63,0-1.33-.06-2.11a10.5,10.5,0,0,0-.35-2.21,3.83,3.83,0,0,0-1-1.73,2.56,2.56,0,0,0-1.89-.69,2.64,2.64,0,0,0-2.27,1.13,4.94,4.94,0,0,0-.82,3,5.91,5.91,0,0,0,1.1,3.46,18.12,18.12,0,0,0,2.74,3.06q1.64,1.48,3.59,3.06a26,26,0,0,1,3.59,3.53,18.86,18.86,0,0,1,2.74,4.41,13.91,13.91,0,0,1,1.1,5.73,15.59,15.59,0,0,1-.72,4.82,11.37,11.37,0,0,1-2.14,3.91,10.12,10.12,0,0,1-3.53,2.65,11.51,11.51,0,0,1-4.88,1,9.85,9.85,0,0,1-5.32-1.29,9.48,9.48,0,0,1-3.21-3.31,13.16,13.16,0,0,1-1.57-4.47,28.94,28.94,0,0,1-.41-4.79Z"/><path class="cls-1" d="M29,107.54H22v-6.93h22.3v6.93H37.23v37.93H29Z"/><path class="cls-1" d="M46,100.61h9.2a19.83,19.83,0,0,1,5.29.66,9.65,9.65,0,0,1,6.74,6.11,16.48,16.48,0,0,1,.95,6,21.88,21.88,0,0,1-.22,3,14.65,14.65,0,0,1-.79,3.09,11.78,11.78,0,0,1-1.48,2.77,7.53,7.53,0,0,1-2.3,2.08l4.85,21.17H59.94L56.1,126.19h-2v19.28H46Zm8.19,19h1.64a3.33,3.33,0,0,0,1.92-.54A4.32,4.32,0,0,0,59,117.71a6.23,6.23,0,0,0,.72-2,12.22,12.22,0,0,0,.22-2.33q0-3.65-1.23-4.95a4.35,4.35,0,0,0-3.31-1.29H54.15Z"/><path class="cls-1" d="M75.77,100.61H87.61l5.54,44.86H85.28l-1.2-10H77.47l-1.13,10H69.47ZM81,107.54h-.13L78.29,129h5.1Z"/><path class="cls-1" d="M95.19,100.61h8l7.5,23.69h.13V100.61h6.55v44.86H111l-8.76-27.15h-.13v27.15H95.19Z"/><path class="cls-1" d="M135.62,116.61q0-.76,0-2.43a20,20,0,0,0-.22-3.34,9.83,9.83,0,0,0-.88-2.93,2.06,2.06,0,0,0-2-1.26,2.22,2.22,0,0,0-1.42.54,4.46,4.46,0,0,0-1.13,2.24,27.62,27.62,0,0,0-.72,4.91q-.25,3.21-.25,8.63t.25,8.79a25.43,25.43,0,0,0,.76,4.95,4.08,4.08,0,0,0,1.23,2.21,2.85,2.85,0,0,0,1.67.5,2.12,2.12,0,0,0,1.83-1,6.89,6.89,0,0,0,1-2.36,17.18,17.18,0,0,0,.41-2.74q.1-1.38.09-2.21h-3v-6.55h10v20.92h-3.46l-1.13-3a9.85,9.85,0,0,1-2.65,2.65,6.52,6.52,0,0,1-3.84,1.2,9.33,9.33,0,0,1-5.51-1.58A10.92,10.92,0,0,1,123,140.2a26.65,26.65,0,0,1-2-7.31,72.19,72.19,0,0,1-.6-9.86,54.93,54.93,0,0,1,.91-10.87A24.83,24.83,0,0,1,123.9,105a10.41,10.41,0,0,1,3.69-4,8.93,8.93,0,0,1,4.57-1.23,14,14,0,0,1,3.91.57,7.88,7.88,0,0,1,3.46,2.11,11.29,11.29,0,0,1,2.46,4.28,21.92,21.92,0,0,1,.95,7v2.9Z"/><path class="cls-1" d="M146.85,100.61h18.52v6.93H155V119h7.62v7.31H155v12.22h10.77v6.93h-19Z"/><path class="cls-1" d="M168.08,100.61h9.2a19.83,19.83,0,0,1,5.29.66,9.65,9.65,0,0,1,6.74,6.11,16.48,16.48,0,0,1,.95,6,21.88,21.88,0,0,1-.22,3,14.59,14.59,0,0,1-.79,3.09,11.7,11.7,0,0,1-1.48,2.77,7.52,7.52,0,0,1-2.3,2.08l4.85,21.17h-8.25l-3.84-19.28h-2v19.28h-8.19Zm8.19,19h1.64a3.34,3.34,0,0,0,1.92-.54,4.31,4.31,0,0,0,1.29-1.39,6.18,6.18,0,0,0,.72-2,12.22,12.22,0,0,0,.22-2.33q0-3.65-1.23-4.95a4.35,4.35,0,0,0-3.31-1.29h-1.26Z"/><path class="cls-1" d="M209.72,107.54h-7.06v-6.93H225v6.93h-7.06v37.93h-8.19Z"/><path class="cls-1" d="M226.64,100.61h9.2a19.83,19.83,0,0,1,5.29.66,9.64,9.64,0,0,1,6.74,6.11,16.48,16.48,0,0,1,.95,6,21.88,21.88,0,0,1-.22,3,14.47,14.47,0,0,1-.79,3.09,11.63,11.63,0,0,1-1.48,2.77,7.53,7.53,0,0,1-2.3,2.08l4.85,21.17h-8.25l-3.84-19.28h-2v19.28h-8.19Zm8.19,19h1.64a3.34,3.34,0,0,0,1.92-.54,4.3,4.3,0,0,0,1.29-1.39,6.18,6.18,0,0,0,.72-2,12.22,12.22,0,0,0,.22-2.33q0-3.65-1.23-4.95a4.35,4.35,0,0,0-3.31-1.29h-1.26Z"/><path class="cls-1" d="M256.45,100.61h11.84l5.54,44.86H266l-1.2-10h-6.62l-1.13,10h-6.87Zm5.23,6.93h-.13L259,129h5.1Z"/><path class="cls-1" d="M275.87,100.61h8.19v44.86h-8.19Z"/><path class="cls-1" d="M288.23,100.61h8.19v37.93h10.46v6.93H288.23Z"/><path class="cls-1" d="M309.28,100.61H327.8v6.93H317.47V119h7.62v7.31h-7.62v12.22h10.77v6.93h-19Z"/><path class="cls-1" d="M330.5,100.61h9.2a19.83,19.83,0,0,1,5.29.66,9.64,9.64,0,0,1,6.74,6.11,16.48,16.48,0,0,1,.95,6,21.88,21.88,0,0,1-.22,3,14.47,14.47,0,0,1-.79,3.09,11.63,11.63,0,0,1-1.48,2.77,7.53,7.53,0,0,1-2.3,2.08l4.85,21.17h-8.25l-3.84-19.28h-2v19.28H330.5Zm8.19,19h1.64a3.34,3.34,0,0,0,1.92-.54,4.3,4.3,0,0,0,1.29-1.39,6.18,6.18,0,0,0,.72-2,12.22,12.22,0,0,0,.22-2.33q0-3.65-1.23-4.95a4.35,4.35,0,0,0-3.31-1.29h-1.26Z"/><path class="cls-1" d="M361.79,132.49q0,.94.06,2.14a9.73,9.73,0,0,0,.38,2.27,4.12,4.12,0,0,0,1,1.8,2.77,2.77,0,0,0,2,.72A3.29,3.29,0,0,0,367,139a3.48,3.48,0,0,0,1.13-1.07,4.54,4.54,0,0,0,.63-1.42,6,6,0,0,0,.19-1.45,6.12,6.12,0,0,0-1.1-3.59,17.39,17.39,0,0,0-2.74-3q-1.64-1.45-3.59-3a25,25,0,0,1-3.59-3.4,17.53,17.53,0,0,1-2.74-4.35,14,14,0,0,1-1.1-5.8,16,16,0,0,1,.69-4.76,11.55,11.55,0,0,1,2-3.87,9.72,9.72,0,0,1,3.31-2.61,11.37,11.37,0,0,1,9.29,0,8.56,8.56,0,0,1,3.18,2.8,12.85,12.85,0,0,1,1.83,4.32,26.43,26.43,0,0,1,.66,5.54h-7.31c0-.63,0-1.33-.06-2.11a10.5,10.5,0,0,0-.35-2.21,3.82,3.82,0,0,0-1-1.73,2.55,2.55,0,0,0-1.89-.69,2.64,2.64,0,0,0-2.27,1.13,4.94,4.94,0,0,0-.82,3,5.91,5.91,0,0,0,1.1,3.46,18.16,18.16,0,0,0,2.74,3.06q1.64,1.48,3.59,3.06a26,26,0,0,1,3.59,3.53,18.83,18.83,0,0,1,2.74,4.41,13.91,13.91,0,0,1,1.1,5.73,15.56,15.56,0,0,1-.72,4.82,11.39,11.39,0,0,1-2.14,3.91,10.14,10.14,0,0,1-3.53,2.65,11.51,11.51,0,0,1-4.88,1,9.85,9.85,0,0,1-5.32-1.29,9.47,9.47,0,0,1-3.21-3.31,13.16,13.16,0,0,1-1.58-4.47,29,29,0,0,1-.41-4.79Z"/><path class="cls-1" d="M6.06,179.89H1.8v-4.18H15.25v4.18H11v22.88H6.06Z"/><path class="cls-1" d="M16.47,175.71h4.94v10.87h3.12V175.71h4.94v27.06H24.53V191.29H21.41v11.48H16.47Z"/><path class="cls-1" d="M32.18,175.71h4.94v27.06H32.18Z"/><path class="cls-1" d="M43.49,194.93c0,.38,0,.81,0,1.29a5.88,5.88,0,0,0,.23,1.37,2.5,2.5,0,0,0,.63,1.08,1.67,1.67,0,0,0,1.24.44,2,2,0,0,0,1-.25,2.1,2.1,0,0,0,.68-.65,2.73,2.73,0,0,0,.38-.86,3.59,3.59,0,0,0,.11-.87,3.69,3.69,0,0,0-.67-2.17,10.48,10.48,0,0,0-1.65-1.82q-1-.87-2.17-1.79a15.08,15.08,0,0,1-2.17-2.05A10.61,10.61,0,0,1,39.51,186a8.48,8.48,0,0,1-.66-3.5,9.62,9.62,0,0,1,.42-2.87,6.94,6.94,0,0,1,1.22-2.34,5.85,5.85,0,0,1,2-1.58,6.86,6.86,0,0,1,5.6,0A5.16,5.16,0,0,1,50,177.47a7.73,7.73,0,0,1,1.1,2.6,15.94,15.94,0,0,1,.4,3.34H47.09q0-.57,0-1.27a6.34,6.34,0,0,0-.21-1.33,2.3,2.3,0,0,0-.59-1,1.54,1.54,0,0,0-1.14-.42,1.59,1.59,0,0,0-1.37.68,3,3,0,0,0-.49,1.79,3.57,3.57,0,0,0,.67,2.09,11,11,0,0,0,1.65,1.84q1,.89,2.17,1.84a15.7,15.7,0,0,1,2.17,2.13,11.39,11.39,0,0,1,1.65,2.66,8.4,8.4,0,0,1,.66,3.46,9.39,9.39,0,0,1-.44,2.91,6.86,6.86,0,0,1-1.29,2.36,6.11,6.11,0,0,1-2.13,1.6,7,7,0,0,1-2.95.59,5.94,5.94,0,0,1-3.21-.78,5.7,5.7,0,0,1-1.94-2,7.92,7.92,0,0,1-1-2.7,17.5,17.5,0,0,1-.25-2.89Z"/><path class="cls-1" d="M61.34,175.71h6.57l2.2,13.87h.08l2.32-13.87h6.42v27.06H74.53V182.93h-.08l-3.34,19.84H68.37l-3.31-19.84H65v19.84H61.34Z"/><path class="cls-1" d="M81.56,175.71H86.5v27.06H81.56Z"/><path class="cls-1" d="M89.24,175.71h4.29a10.48,10.48,0,0,1,4.92,1,6.48,6.48,0,0,1,2.74,2.74,11.55,11.55,0,0,1,1.18,4.26q.25,2.49.25,5.57,0,2.93-.23,5.42a13,13,0,0,1-1.06,4.29,6.32,6.32,0,0,1-2.49,2.81,8.63,8.63,0,0,1-4.5,1H89.24Zm4.94,22.88a4.16,4.16,0,0,0,1.82-.32,2.09,2.09,0,0,0,1-1.31,11.07,11.07,0,0,0,.4-2.83q.08-1.84.08-4.92t-.08-4.9a10.74,10.74,0,0,0-.4-2.79,2.08,2.08,0,0,0-1-1.29,4.17,4.17,0,0,0-1.82-.32Z"/><path class="cls-1" d="M105,175.71h4.29a10.47,10.47,0,0,1,4.92,1,6.48,6.48,0,0,1,2.74,2.74,11.51,11.51,0,0,1,1.18,4.26q.25,2.49.25,5.57,0,2.93-.23,5.42a13,13,0,0,1-1.06,4.29,6.32,6.32,0,0,1-2.49,2.81,8.63,8.63,0,0,1-4.5,1H105Zm4.94,22.88a4.16,4.16,0,0,0,1.82-.32,2.09,2.09,0,0,0,1-1.31,11.06,11.06,0,0,0,.4-2.83q.08-1.84.08-4.92t-.08-4.9a10.73,10.73,0,0,0-.4-2.79,2.08,2.08,0,0,0-1-1.29,4.17,4.17,0,0,0-1.82-.32Z"/><path class="cls-1" d="M120.71,175.71h4.94v22.88H132v4.18H120.71Z"/><path class="cls-1" d="M133.63,175.71H144.8v4.18h-6.23v6.92h4.6v4.41h-4.6v7.37h6.5v4.18H133.63Z"/><path class="cls-1" d="M154.38,175.71h11.17v4.18h-6.23v6.92h4.6v4.41h-4.6v7.37h6.5v4.18H154.38Z"/><path class="cls-1" d="M170.55,175.71h7.14L181,202.76h-4.75l-.72-6h-4l-.68,6h-4.14Zm3.15,4.18h-.08l-1.56,12.92h3.08Z"/><path class="cls-1" d="M186.11,194.93c0,.38,0,.81,0,1.29a5.93,5.93,0,0,0,.23,1.37,2.49,2.49,0,0,0,.63,1.08,1.67,1.67,0,0,0,1.23.44,2,2,0,0,0,1-.25,2.1,2.1,0,0,0,.68-.65,2.73,2.73,0,0,0,.38-.86,3.59,3.59,0,0,0,.11-.87,3.68,3.68,0,0,0-.67-2.17,10.44,10.44,0,0,0-1.65-1.82q-1-.87-2.17-1.79a15.13,15.13,0,0,1-2.17-2.05,10.58,10.58,0,0,1-1.65-2.62,8.47,8.47,0,0,1-.67-3.5,9.62,9.62,0,0,1,.42-2.87,6.94,6.94,0,0,1,1.22-2.34,5.86,5.86,0,0,1,2-1.58,6.86,6.86,0,0,1,5.6,0,5.16,5.16,0,0,1,1.92,1.69,7.73,7.73,0,0,1,1.1,2.6,16,16,0,0,1,.4,3.34h-4.41c0-.38,0-.8,0-1.27a6.41,6.41,0,0,0-.21-1.33,2.31,2.31,0,0,0-.59-1,1.54,1.54,0,0,0-1.14-.42,1.59,1.59,0,0,0-1.37.68,3,3,0,0,0-.49,1.79,3.56,3.56,0,0,0,.66,2.09,11,11,0,0,0,1.65,1.84q1,.89,2.17,1.84a15.7,15.7,0,0,1,2.17,2.13,11.36,11.36,0,0,1,1.65,2.66,8.4,8.4,0,0,1,.67,3.46,9.39,9.39,0,0,1-.44,2.91,6.85,6.85,0,0,1-1.29,2.36,6.11,6.11,0,0,1-2.13,1.6,6.94,6.94,0,0,1-2.94.59,5.94,5.94,0,0,1-3.21-.78,5.7,5.7,0,0,1-1.94-2,7.92,7.92,0,0,1-1-2.7,17.5,17.5,0,0,1-.25-2.89Z"/><path class="cls-1" d="M199.19,179.89h-4.26v-4.18h13.45v4.18h-4.26v22.88h-4.94Z"/><path class="cls-1" d="M216.78,175.71h4.94v27.06h-4.94Z"/><path class="cls-1" d="M228.08,194.93c0,.38,0,.81,0,1.29a5.88,5.88,0,0,0,.23,1.37,2.5,2.5,0,0,0,.63,1.08,1.67,1.67,0,0,0,1.24.44,2,2,0,0,0,1-.25,2.1,2.1,0,0,0,.68-.65,2.71,2.71,0,0,0,.38-.86,3.59,3.59,0,0,0,.11-.87,3.69,3.69,0,0,0-.67-2.17,10.48,10.48,0,0,0-1.65-1.82q-1-.87-2.17-1.79a15.08,15.08,0,0,1-2.17-2.05,10.61,10.61,0,0,1-1.65-2.62,8.48,8.48,0,0,1-.67-3.5,9.62,9.62,0,0,1,.42-2.87,6.94,6.94,0,0,1,1.22-2.34,5.86,5.86,0,0,1,2-1.58,6.86,6.86,0,0,1,5.6,0,5.17,5.17,0,0,1,1.92,1.69,7.75,7.75,0,0,1,1.1,2.6,15.94,15.94,0,0,1,.4,3.34h-4.41q0-.57,0-1.27a6.41,6.41,0,0,0-.21-1.33,2.3,2.3,0,0,0-.59-1,1.54,1.54,0,0,0-1.14-.42,1.59,1.59,0,0,0-1.37.68,3,3,0,0,0-.49,1.79,3.56,3.56,0,0,0,.67,2.09,11,11,0,0,0,1.65,1.84q1,.89,2.17,1.84a15.7,15.7,0,0,1,2.17,2.13,11.39,11.39,0,0,1,1.65,2.66,8.4,8.4,0,0,1,.67,3.46,9.39,9.39,0,0,1-.44,2.91,6.85,6.85,0,0,1-1.29,2.36,6.11,6.11,0,0,1-2.13,1.6,7,7,0,0,1-2.95.59,5.94,5.94,0,0,1-3.21-.78,5.71,5.71,0,0,1-1.94-2,8,8,0,0,1-1-2.7,17.5,17.5,0,0,1-.25-2.89Z"/><path class="cls-1" d="M245.94,175.71h4.83L255.29,190h.08V175.71h4v27.06h-3.84l-5.28-16.38h-.08v16.38h-4.18Z"/><path class="cls-1" d="M261.42,189.23a36.62,36.62,0,0,1,.51-6.69,13.81,13.81,0,0,1,1.46-4.33,5.87,5.87,0,0,1,2.28-2.34,6.6,6.6,0,0,1,5.93,0,5.88,5.88,0,0,1,2.28,2.34,13.84,13.84,0,0,1,1.46,4.33,43.88,43.88,0,0,1,0,13.38,13.83,13.83,0,0,1-1.46,4.33,5.88,5.88,0,0,1-2.28,2.34,6.6,6.6,0,0,1-5.93,0,5.87,5.87,0,0,1-2.28-2.34,13.8,13.8,0,0,1-1.46-4.33A36.64,36.64,0,0,1,261.42,189.23Zm5.4,2.85q0,2.2.13,3.57a12.18,12.18,0,0,0,.36,2.15,2,2,0,0,0,.57,1,1.22,1.22,0,0,0,1.52,0,2,2,0,0,0,.57-1,12.28,12.28,0,0,0,.36-2.15q.13-1.37.13-3.57v-5.7q0-2.2-.13-3.57a11.81,11.81,0,0,0-.36-2.13,2.16,2.16,0,0,0-.57-1,1.15,1.15,0,0,0-1.52,0,2.16,2.16,0,0,0-.57,1,11.71,11.71,0,0,0-.36,2.13q-.13,1.37-.13,3.57Z"/><path class="cls-1" d="M280.46,179.89H276.2v-4.18h13.45v4.18H285.4v22.88h-4.94Z"/><path class="cls-1" d="M298.24,175.71h6.08a8.27,8.27,0,0,1,2.32.34,6,6,0,0,1,2.15,1.14,6.08,6.08,0,0,1,1.6,2.11,7.51,7.51,0,0,1,.63,3.25,7,7,0,0,1-1.06,3.91,5.06,5.06,0,0,1-3.34,2.13v.08a6.1,6.1,0,0,1,3.74,2.3,7.22,7.22,0,0,1,1.2,4.27,8.41,8.41,0,0,1-.59,3.27,7.06,7.06,0,0,1-1.56,2.36,6.36,6.36,0,0,1-2.22,1.43,7.35,7.35,0,0,1-2.62.47h-6.31Zm4.94,11.1a2.9,2.9,0,0,0,2.49-.87,4.65,4.65,0,0,0,.63-2.7,10.58,10.58,0,0,0-.13-1.86,2.12,2.12,0,0,0-.49-1.1,1.74,1.74,0,0,0-1-.49,8.44,8.44,0,0,0-1.52-.11Zm0,12a5.8,5.8,0,0,0,1.79-.23,2.11,2.11,0,0,0,1-.7,2.66,2.66,0,0,0,.47-1.24,12.48,12.48,0,0,0,.11-1.82,9.15,9.15,0,0,0-.13-1.63A2.8,2.8,0,0,0,306,192a2.29,2.29,0,0,0-1-.74,5.07,5.07,0,0,0-1.73-.25Z"/><path class="cls-1" d="M313.32,175.71h4.94v27.06h-4.94Z"/><path class="cls-1" d="M329.51,185.36q0-.46,0-1.46a12,12,0,0,0-.13-2,5.94,5.94,0,0,0-.53-1.77,1.24,1.24,0,0,0-1.18-.76,1.34,1.34,0,0,0-.86.32,2.69,2.69,0,0,0-.68,1.35,16.62,16.62,0,0,0-.44,3q-.15,1.94-.15,5.21t.15,5.3a15.24,15.24,0,0,0,.46,3,2.45,2.45,0,0,0,.74,1.33,1.72,1.72,0,0,0,1,.3,1.28,1.28,0,0,0,1.1-.61,4.15,4.15,0,0,0,.61-1.42,10.51,10.51,0,0,0,.25-1.65q.06-.83.06-1.33h-1.82v-4h6v12.62H332l-.68-1.79a6,6,0,0,1-1.6,1.6,3.93,3.93,0,0,1-2.32.72,5.63,5.63,0,0,1-3.33-1,6.58,6.58,0,0,1-2.17-2.75,16.07,16.07,0,0,1-1.18-4.41,43.6,43.6,0,0,1-.36-5.95,33.16,33.16,0,0,1,.55-6.55,15,15,0,0,1,1.5-4.35,6.27,6.27,0,0,1,2.22-2.41,5.39,5.39,0,0,1,2.76-.74,8.43,8.43,0,0,1,2.36.34,4.75,4.75,0,0,1,2.09,1.27,6.8,6.8,0,0,1,1.48,2.58,13.22,13.22,0,0,1,.57,4.24v1.75Z"/><path class="cls-1" d="M343.23,189.23a36.62,36.62,0,0,1,.51-6.69,13.81,13.81,0,0,1,1.46-4.33,5.87,5.87,0,0,1,2.28-2.34,6.6,6.6,0,0,1,5.93,0,5.88,5.88,0,0,1,2.28,2.34,13.84,13.84,0,0,1,1.46,4.33,43.88,43.88,0,0,1,0,13.38,13.83,13.83,0,0,1-1.46,4.33,5.88,5.88,0,0,1-2.28,2.34,6.6,6.6,0,0,1-5.93,0,5.87,5.87,0,0,1-2.28-2.34,13.8,13.8,0,0,1-1.46-4.33A36.64,36.64,0,0,1,343.23,189.23Zm5.4,2.85q0,2.2.13,3.57a12.18,12.18,0,0,0,.36,2.15,2,2,0,0,0,.57,1,1.22,1.22,0,0,0,1.52,0,2,2,0,0,0,.57-1,12.28,12.28,0,0,0,.36-2.15q.13-1.37.13-3.57v-5.7q0-2.2-.13-3.57a11.81,11.81,0,0,0-.36-2.13,2.16,2.16,0,0,0-.57-1,1.15,1.15,0,0,0-1.52,0,2.16,2.16,0,0,0-.57,1,11.71,11.71,0,0,0-.36,2.13q-.13,1.37-.13,3.57Z"/><path class="cls-1" d="M359.72,175.71h4.83L369.07,190h.08V175.71h4v27.06h-3.84L364,186.38h-.08v16.38h-4.18Z"/><path class="cls-1" d="M386.86,194.93c0,.38,0,.81,0,1.29a5.93,5.93,0,0,0,.23,1.37,2.49,2.49,0,0,0,.63,1.08,1.67,1.67,0,0,0,1.23.44,2,2,0,0,0,1-.25,2.1,2.1,0,0,0,.68-.65,2.71,2.71,0,0,0,.38-.86,3.63,3.63,0,0,0,.11-.87,3.68,3.68,0,0,0-.67-2.17,10.44,10.44,0,0,0-1.65-1.82q-1-.87-2.17-1.79a15.13,15.13,0,0,1-2.17-2.05,10.64,10.64,0,0,1-1.65-2.62,8.48,8.48,0,0,1-.67-3.5,9.62,9.62,0,0,1,.42-2.87,7,7,0,0,1,1.22-2.34,5.86,5.86,0,0,1,2-1.58,6.86,6.86,0,0,1,5.6,0,5.17,5.17,0,0,1,1.92,1.69,7.73,7.73,0,0,1,1.1,2.6,16,16,0,0,1,.4,3.34h-4.41q0-.57,0-1.27a6.34,6.34,0,0,0-.21-1.33,2.31,2.31,0,0,0-.59-1,1.54,1.54,0,0,0-1.14-.42,1.6,1.6,0,0,0-1.37.68,3,3,0,0,0-.49,1.79,3.57,3.57,0,0,0,.67,2.09,11,11,0,0,0,1.65,1.84q1,.89,2.17,1.84a15.64,15.64,0,0,1,2.17,2.13,11.36,11.36,0,0,1,1.65,2.66,8.4,8.4,0,0,1,.67,3.46,9.39,9.39,0,0,1-.44,2.91,6.86,6.86,0,0,1-1.29,2.36,6.12,6.12,0,0,1-2.13,1.6,6.94,6.94,0,0,1-2.94.59,5.94,5.94,0,0,1-3.21-.78,5.7,5.7,0,0,1-1.94-2,8,8,0,0,1-1-2.7,17.5,17.5,0,0,1-.25-2.89Z"/><path class="cls-1" d="M405.7,185.51a17.92,17.92,0,0,0-.44-4.77q-.44-1.39-1.35-1.39a1.39,1.39,0,0,0-.76.25,2.22,2.22,0,0,0-.67,1.24,16.71,16.71,0,0,0-.46,3q-.17,2-.17,5.43t.11,5.3a20,20,0,0,0,.34,3,2.19,2.19,0,0,0,.63,1.31,1.63,1.63,0,0,0,1,.28q1.22,0,1.62-1.73a24.66,24.66,0,0,0,.47-4.69l4.18.19a35.55,35.55,0,0,1-.19,3.63,10.64,10.64,0,0,1-.87,3.34,6.37,6.37,0,0,1-2,2.47,5.55,5.55,0,0,1-3.44,1,5.63,5.63,0,0,1-3.33-1,6.59,6.59,0,0,1-2.17-2.75,16.07,16.07,0,0,1-1.18-4.41,43.6,43.6,0,0,1-.36-5.95,33.08,33.08,0,0,1,.55-6.55,14.93,14.93,0,0,1,1.5-4.35,6.27,6.27,0,0,1,2.22-2.41,5.38,5.38,0,0,1,2.75-.74,5.82,5.82,0,0,1,3.4.89,5.73,5.73,0,0,1,1.94,2.34,10.34,10.34,0,0,1,.86,3.27,35.75,35.75,0,0,1,.19,3.69Z"/><path class="cls-1" d="M412.33,175.71h4.94v27.06h-4.94Z"/><path class="cls-1" d="M419.53,190.68h7.52v3.65h-7.52Z"/><path class="cls-1" d="M429.4,175.71h11.06v4.18h-6.12v7.22h4.52v4.41h-4.52v11.25H429.4Z"/><path class="cls-1" d="M441.76,175.71h4.94v27.06h-4.94Z"/><path class="cls-1" d="M460.46,194.93c0,.38,0,.81,0,1.29a5.88,5.88,0,0,0,.23,1.37,2.49,2.49,0,0,0,.63,1.08,1.67,1.67,0,0,0,1.24.44,2,2,0,0,0,1-.25,2.1,2.1,0,0,0,.68-.65,2.73,2.73,0,0,0,.38-.86,3.59,3.59,0,0,0,.11-.87,3.69,3.69,0,0,0-.67-2.17,10.48,10.48,0,0,0-1.65-1.82q-1-.87-2.17-1.79a15.08,15.08,0,0,1-2.17-2.05,10.61,10.61,0,0,1-1.65-2.62,8.48,8.48,0,0,1-.66-3.5,9.62,9.62,0,0,1,.42-2.87,6.94,6.94,0,0,1,1.22-2.34,5.85,5.85,0,0,1,2-1.58,6.86,6.86,0,0,1,5.6,0,5.16,5.16,0,0,1,1.92,1.69,7.71,7.71,0,0,1,1.1,2.6,15.88,15.88,0,0,1,.4,3.34h-4.41q0-.57,0-1.27a6.34,6.34,0,0,0-.21-1.33,2.3,2.3,0,0,0-.59-1,1.54,1.54,0,0,0-1.14-.42,1.59,1.59,0,0,0-1.37.68,3,3,0,0,0-.49,1.79,3.57,3.57,0,0,0,.67,2.09,11,11,0,0,0,1.65,1.84q1,.89,2.17,1.84a15.7,15.7,0,0,1,2.17,2.13,11.39,11.39,0,0,1,1.65,2.66,8.4,8.4,0,0,1,.66,3.46,9.39,9.39,0,0,1-.44,2.91,6.86,6.86,0,0,1-1.29,2.36,6.11,6.11,0,0,1-2.13,1.6,7,7,0,0,1-2.95.59,5.94,5.94,0,0,1-3.21-.78,5.7,5.7,0,0,1-1.94-2,7.92,7.92,0,0,1-1-2.7,17.5,17.5,0,0,1-.25-2.89Z"/><path class="cls-1" d="M470.28,189.23a36.55,36.55,0,0,1,.51-6.69,13.81,13.81,0,0,1,1.46-4.33,5.87,5.87,0,0,1,2.28-2.34,6.6,6.6,0,0,1,5.93,0,5.87,5.87,0,0,1,2.28,2.34,13.84,13.84,0,0,1,1.46,4.33,43.88,43.88,0,0,1,0,13.38,13.83,13.83,0,0,1-1.46,4.33,5.87,5.87,0,0,1-2.28,2.34,6.6,6.6,0,0,1-5.93,0,5.87,5.87,0,0,1-2.28-2.34,13.8,13.8,0,0,1-1.46-4.33A36.56,36.56,0,0,1,470.28,189.23Zm5.4,2.85q0,2.2.13,3.57a12.18,12.18,0,0,0,.36,2.15,2,2,0,0,0,.57,1,1.22,1.22,0,0,0,1.52,0,2,2,0,0,0,.57-1,12.28,12.28,0,0,0,.36-2.15q.13-1.37.13-3.57v-5.7q0-2.2-.13-3.57a11.81,11.81,0,0,0-.36-2.13,2.17,2.17,0,0,0-.57-1,1.16,1.16,0,0,0-1.52,0,2.16,2.16,0,0,0-.57,1,11.71,11.71,0,0,0-.36,2.13q-.13,1.37-.13,3.57Z"/><path class="cls-1" d="M493.12,175.71h4.48l1.75,15.88h.08l2.36-15.88h4.45l2.17,15.88h.08l1.94-15.88h3.53l-3.53,27.06h-4.48l-2.36-17.14h-.08l-2.43,17.14h-4.33Z"/><path class="cls-1" d="M515.43,175.71h11.17v4.18h-6.23v6.92H525v4.41h-4.6v7.37h6.5v4.18H515.43Z"/><path class="cls-1" d="M536.18,175.71h4.94v22.88h6.31v4.18H536.18Z"/><path class="cls-1" d="M552.25,175.71h7.14l3.34,27.06H558l-.72-6h-4l-.68,6h-4.14Zm3.15,4.18h-.08l-1.56,12.92h3.08Z"/><path class="cls-1" d="M563.94,175.71h4.94v20.94a6.89,6.89,0,0,0,.06.89,2.32,2.32,0,0,0,.25.8,1.44,1.44,0,0,0,.53.57,1.65,1.65,0,0,0,.87.21,1.48,1.48,0,0,0,1.43-.74,3.6,3.6,0,0,0,.4-1.73V175.71h4.18V196q0,4-1.67,5.64a6.31,6.31,0,0,1-4.64,1.65,7.94,7.94,0,0,1-2.6-.4,5,5,0,0,1-2-1.25,5.68,5.68,0,0,1-1.29-2.24,11,11,0,0,1-.46-3.4Z"/><path class="cls-1" d="M579.21,175.71H584L588.56,190h.08V175.71h4v27.06h-3.84l-5.28-16.38h-.08v16.38h-4.18Z"/><path class="cls-1" d="M603.7,185.51a18,18,0,0,0-.44-4.77q-.44-1.39-1.35-1.39a1.39,1.39,0,0,0-.76.25,2.22,2.22,0,0,0-.67,1.24,16.78,16.78,0,0,0-.46,3q-.17,2-.17,5.43t.11,5.3a19.94,19.94,0,0,0,.34,3,2.19,2.19,0,0,0,.63,1.31,1.63,1.63,0,0,0,1,.28q1.22,0,1.62-1.73a24.64,24.64,0,0,0,.48-4.69l4.18.19a35.28,35.28,0,0,1-.19,3.63,10.64,10.64,0,0,1-.87,3.34,6.37,6.37,0,0,1-2,2.47,5.55,5.55,0,0,1-3.44,1,5.63,5.63,0,0,1-3.33-1,6.59,6.59,0,0,1-2.17-2.75,16.07,16.07,0,0,1-1.18-4.41,43.6,43.6,0,0,1-.36-5.95,33.16,33.16,0,0,1,.55-6.55,15,15,0,0,1,1.5-4.35,6.26,6.26,0,0,1,2.22-2.41,5.38,5.38,0,0,1,2.75-.74,5.82,5.82,0,0,1,3.4.89,5.73,5.73,0,0,1,1.94,2.34,10.34,10.34,0,0,1,.85,3.27,35.48,35.48,0,0,1,.19,3.69Z"/><path class="cls-1" d="M610.39,175.71h4.94v10.87h3.12V175.71h4.94v27.06h-4.94V191.29h-3.12v11.48h-4.94Z"/><path class="cls-1" d="M626.19,175.71h11.17v4.18h-6.23v6.92h4.6v4.41h-4.6v7.37h6.5v4.18H626.19Z"/><path class="cls-1" d="M639.22,175.71h4.29a10.47,10.47,0,0,1,4.92,1,6.48,6.48,0,0,1,2.74,2.74,11.53,11.53,0,0,1,1.18,4.26q.25,2.49.25,5.57,0,2.93-.23,5.42a13,13,0,0,1-1.06,4.29,6.32,6.32,0,0,1-2.49,2.81,8.63,8.63,0,0,1-4.5,1h-5.09Zm4.94,22.88a4.16,4.16,0,0,0,1.82-.32,2.09,2.09,0,0,0,1-1.31,11.07,11.07,0,0,0,.4-2.83q.08-1.84.08-4.92t-.08-4.9a10.74,10.74,0,0,0-.4-2.79,2.08,2.08,0,0,0-1-1.29,4.17,4.17,0,0,0-1.82-.32Z"/><path class="cls-1" d="M7.16,237.93c0,.38,0,.81,0,1.29a5.88,5.88,0,0,0,.23,1.37,2.48,2.48,0,0,0,.63,1.08,1.67,1.67,0,0,0,1.23.44,2,2,0,0,0,1-.25,2.1,2.1,0,0,0,.68-.65,2.73,2.73,0,0,0,.38-.86,3.59,3.59,0,0,0,.11-.87,3.68,3.68,0,0,0-.67-2.17,10.44,10.44,0,0,0-1.65-1.82q-1-.87-2.17-1.79a15,15,0,0,1-2.17-2.05A10.58,10.58,0,0,1,3.19,229a8.48,8.48,0,0,1-.67-3.5,9.62,9.62,0,0,1,.42-2.87,6.94,6.94,0,0,1,1.22-2.34,5.86,5.86,0,0,1,2-1.58,6.16,6.16,0,0,1,2.75-.59,6.17,6.17,0,0,1,2.85.61,5.16,5.16,0,0,1,1.92,1.69,7.73,7.73,0,0,1,1.1,2.6,16,16,0,0,1,.4,3.34H10.77c0-.38,0-.8,0-1.27a6.34,6.34,0,0,0-.21-1.33,2.31,2.31,0,0,0-.59-1,1.54,1.54,0,0,0-1.14-.42,1.59,1.59,0,0,0-1.37.68,3,3,0,0,0-.49,1.79,3.56,3.56,0,0,0,.67,2.09,11,11,0,0,0,1.65,1.84q1,.89,2.17,1.84a15.7,15.7,0,0,1,2.17,2.13,11.33,11.33,0,0,1,1.65,2.66,8.38,8.38,0,0,1,.67,3.46,9.39,9.39,0,0,1-.44,2.91,6.85,6.85,0,0,1-1.29,2.36,6.11,6.11,0,0,1-2.13,1.6,6.94,6.94,0,0,1-2.94.59,5.94,5.94,0,0,1-3.21-.78,5.7,5.7,0,0,1-1.94-2,8,8,0,0,1-1-2.7,17.5,17.5,0,0,1-.25-2.89Z"/><path class="cls-1" d="M20.24,222.89H16v-4.18H29.44v4.18H25.18v22.88H20.24Z"/><path class="cls-1" d="M30.65,218.71H36.2a12,12,0,0,1,3.19.4,5.82,5.82,0,0,1,4.07,3.69,9.93,9.93,0,0,1,.57,3.59,13.13,13.13,0,0,1-.13,1.82,8.77,8.77,0,0,1-.47,1.86,7.05,7.05,0,0,1-.89,1.67A4.54,4.54,0,0,1,41.14,233l2.93,12.77h-5l-2.32-11.63H35.59v11.63H30.65Zm4.94,11.48h1a2,2,0,0,0,1.16-.32,2.59,2.59,0,0,0,.78-.84,3.77,3.77,0,0,0,.44-1.2,7.41,7.41,0,0,0,.13-1.41,4.42,4.42,0,0,0-.74-3,2.63,2.63,0,0,0-2-.78h-.76Z"/><path class="cls-1" d="M48.83,218.71H56l3.34,27.06H54.57l-.72-6h-4l-.68,6H45ZM52,222.89h-.08l-1.56,12.92h3.08Z"/><path class="cls-1" d="M60.76,218.71h4.83L70.11,233h.08V218.71h4v27.06H70.3L65,229.38h-.08v16.38H60.76Z"/><path class="cls-1" d="M85.36,228.36q0-.46,0-1.46a11.93,11.93,0,0,0-.13-2,6,6,0,0,0-.53-1.77,1.25,1.25,0,0,0-1.18-.76,1.34,1.34,0,0,0-.85.32A2.69,2.69,0,0,0,82,224a16.52,16.52,0,0,0-.44,3q-.15,1.94-.15,5.21t.15,5.3a15.24,15.24,0,0,0,.46,3,2.44,2.44,0,0,0,.74,1.33,1.72,1.72,0,0,0,1,.3,1.28,1.28,0,0,0,1.1-.61,4.15,4.15,0,0,0,.61-1.42,10.51,10.51,0,0,0,.25-1.65q.06-.83.06-1.33H84v-4h6v12.62H87.87L87.18,244a5.94,5.94,0,0,1-1.6,1.6,3.93,3.93,0,0,1-2.32.72,5.63,5.63,0,0,1-3.33-1,6.59,6.59,0,0,1-2.17-2.75,16.07,16.07,0,0,1-1.18-4.41,43.6,43.6,0,0,1-.36-5.95,33.16,33.16,0,0,1,.55-6.55,15,15,0,0,1,1.5-4.35,6.26,6.26,0,0,1,2.22-2.41,5.38,5.38,0,0,1,2.75-.74,8.44,8.44,0,0,1,2.36.34,4.76,4.76,0,0,1,2.09,1.27,6.81,6.81,0,0,1,1.48,2.58,13.22,13.22,0,0,1,.57,4.24v1.75Z"/><path class="cls-1" d="M92.35,218.71h11.17v4.18H97.29v6.92h4.6v4.41h-4.6v7.37h6.5v4.18H92.35Z"/><path class="cls-1" d="M105.37,218.71h5.55a12,12,0,0,1,3.19.4,6.1,6.1,0,0,1,2.47,1.31,6,6,0,0,1,1.6,2.38,9.93,9.93,0,0,1,.57,3.59,13.13,13.13,0,0,1-.13,1.82,8.71,8.71,0,0,1-.47,1.86,7.08,7.08,0,0,1-.89,1.67,4.54,4.54,0,0,1-1.39,1.25l2.93,12.77h-5l-2.32-11.63h-1.18v11.63h-4.94Zm4.94,11.48h1a2,2,0,0,0,1.16-.32,2.6,2.6,0,0,0,.78-.84,3.72,3.72,0,0,0,.44-1.2,7.41,7.41,0,0,0,.13-1.41,4.42,4.42,0,0,0-.74-3,2.62,2.62,0,0,0-2-.78h-.76Z"/><path class="cls-1" d="M130.49,222.89h-4.26v-4.18h13.45v4.18h-4.26v22.88h-4.94Z"/><path class="cls-1" d="M140.9,218.71h4.94v10.87H149V218.71h4.94v27.06H149V234.29h-3.12v11.48H140.9Z"/><path class="cls-1" d="M156.61,218.71h4.94v27.06h-4.94Z"/><path class="cls-1" d="M164.19,218.71H169L173.54,233h.08V218.71h4v27.06h-3.84l-5.28-16.38h-.08v16.38h-4.18Z"/><path class="cls-1" d="M188.79,228.36q0-.46,0-1.46a12,12,0,0,0-.13-2,5.94,5.94,0,0,0-.53-1.77,1.25,1.25,0,0,0-1.18-.76,1.34,1.34,0,0,0-.86.32,2.69,2.69,0,0,0-.68,1.35,16.61,16.61,0,0,0-.44,3q-.15,1.94-.15,5.21t.15,5.3a15.39,15.39,0,0,0,.46,3,2.46,2.46,0,0,0,.74,1.33,1.72,1.72,0,0,0,1,.3,1.28,1.28,0,0,0,1.1-.61,4.15,4.15,0,0,0,.61-1.42,10.39,10.39,0,0,0,.25-1.65q.06-.83.06-1.33h-1.82v-4h6v12.62H191.3l-.68-1.79a6,6,0,0,1-1.6,1.6,3.93,3.93,0,0,1-2.32.72,5.63,5.63,0,0,1-3.33-1,6.58,6.58,0,0,1-2.17-2.75,16.07,16.07,0,0,1-1.18-4.41,43.77,43.77,0,0,1-.36-5.95,33.09,33.09,0,0,1,.55-6.55,15,15,0,0,1,1.5-4.35,6.27,6.27,0,0,1,2.22-2.41,5.38,5.38,0,0,1,2.76-.74,8.43,8.43,0,0,1,2.36.34,4.75,4.75,0,0,1,2.09,1.27,6.81,6.81,0,0,1,1.48,2.58,13.22,13.22,0,0,1,.57,4.24v1.75Z"/><path class="cls-1" d="M199.24,237.93c0,.38,0,.81,0,1.29a5.88,5.88,0,0,0,.23,1.37,2.48,2.48,0,0,0,.63,1.08,1.67,1.67,0,0,0,1.24.44,2,2,0,0,0,1-.25,2.09,2.09,0,0,0,.68-.65,2.71,2.71,0,0,0,.38-.86,3.59,3.59,0,0,0,.11-.87,3.69,3.69,0,0,0-.66-2.17,10.52,10.52,0,0,0-1.65-1.82q-1-.87-2.17-1.79a15,15,0,0,1-2.17-2.05,10.61,10.61,0,0,1-1.65-2.62,8.48,8.48,0,0,1-.67-3.5,9.66,9.66,0,0,1,.42-2.87,7,7,0,0,1,1.22-2.34,5.86,5.86,0,0,1,2-1.58,6.87,6.87,0,0,1,5.61,0,5.17,5.17,0,0,1,1.92,1.69,7.71,7.71,0,0,1,1.1,2.6,15.94,15.94,0,0,1,.4,3.34h-4.41q0-.57,0-1.27a6.34,6.34,0,0,0-.21-1.33,2.3,2.3,0,0,0-.59-1,1.54,1.54,0,0,0-1.14-.42,1.59,1.59,0,0,0-1.37.68,3,3,0,0,0-.49,1.79,3.57,3.57,0,0,0,.67,2.09,11,11,0,0,0,1.65,1.84q1,.89,2.17,1.84a15.64,15.64,0,0,1,2.17,2.13,11.33,11.33,0,0,1,1.65,2.66,8.38,8.38,0,0,1,.67,3.46,9.39,9.39,0,0,1-.44,2.91,6.86,6.86,0,0,1-1.29,2.36,6.11,6.11,0,0,1-2.13,1.6,7,7,0,0,1-2.95.59,5.94,5.94,0,0,1-3.21-.78,5.71,5.71,0,0,1-1.94-2,7.94,7.94,0,0,1-.95-2.7,17.4,17.4,0,0,1-.25-2.89Z"/><path class="cls-1" d="M216,242.27q1.29-2.2,2.7-4.37t2.56-4.27a30.39,30.39,0,0,0,1.9-4.12,11.2,11.2,0,0,0,.74-3.88q0-.53,0-1.16a5.46,5.46,0,0,0-.19-1.16,2.37,2.37,0,0,0-.46-.89,1.08,1.08,0,0,0-.87-.36q-.76,0-1.25,1a10.1,10.1,0,0,0-.53,3.74l-4.18-.38a11.75,11.75,0,0,1,.4-3.1,7.89,7.89,0,0,1,1.2-2.56,5.89,5.89,0,0,1,2-1.75,5.79,5.79,0,0,1,2.79-.65,6,6,0,0,1,2.62.55,5.42,5.42,0,0,1,1.9,1.5,6.75,6.75,0,0,1,1.16,2.22,9,9,0,0,1,.4,2.72,11.26,11.26,0,0,1-.91,4.41,28,28,0,0,1-2.22,4.22,46.59,46.59,0,0,1-2.77,3.9q-1.46,1.84-2.56,3.44h7.83v4.41H216Z"/><path class="cls-1" d="M238,218.71h11.17v4.18H243v6.92h4.6v4.41H243v7.37h6.5v4.18H238Z"/><path class="cls-1" d="M250.23,218.71h4.83l2.32,19h.08l2.55-19h4l-4.07,27.06h-5.66Z"/><path class="cls-1" d="M264.4,232.23a36.62,36.62,0,0,1,.51-6.69,13.81,13.81,0,0,1,1.46-4.33,5.87,5.87,0,0,1,2.28-2.34,6.6,6.6,0,0,1,5.93,0,5.88,5.88,0,0,1,2.28,2.34,13.84,13.84,0,0,1,1.46,4.33,43.88,43.88,0,0,1,0,13.38,13.83,13.83,0,0,1-1.46,4.33,5.88,5.88,0,0,1-2.28,2.34,6.6,6.6,0,0,1-5.93,0,5.87,5.87,0,0,1-2.28-2.34,13.8,13.8,0,0,1-1.46-4.33A36.64,36.64,0,0,1,264.4,232.23Zm5.4,2.85q0,2.2.13,3.57a12.18,12.18,0,0,0,.36,2.15,2,2,0,0,0,.57,1,1.22,1.22,0,0,0,1.52,0,2,2,0,0,0,.57-1,12.28,12.28,0,0,0,.36-2.15q.13-1.37.13-3.57v-5.7q0-2.2-.13-3.57a11.81,11.81,0,0,0-.36-2.13,2.16,2.16,0,0,0-.57-1,1.15,1.15,0,0,0-1.52,0,2.16,2.16,0,0,0-.57,1,11.71,11.71,0,0,0-.36,2.13q-.13,1.37-.13,3.57Z"/><path class="cls-1" d="M281,218.71h4.94V230H286l4.1-11.32h4.41l-3.69,9.08,4.45,18h-4.75l-2.74-12.12h-.08l-1.79,4.26v7.87H281Z"/><path class="cls-1" d="M296.73,218.71h4.94v27.06h-4.94Z"/><path class="cls-1" d="M304.32,218.71h4.83L313.66,233h.08V218.71h4v27.06h-3.84l-5.28-16.38h-.08v16.38h-4.18Z"/><path class="cls-1" d="M328.92,228.36q0-.46,0-1.46a12.14,12.14,0,0,0-.13-2,5.94,5.94,0,0,0-.53-1.77,1.25,1.25,0,0,0-1.18-.76,1.34,1.34,0,0,0-.85.32,2.69,2.69,0,0,0-.68,1.35,16.52,16.52,0,0,0-.44,3q-.15,1.94-.15,5.21t.15,5.3a15.24,15.24,0,0,0,.46,3,2.45,2.45,0,0,0,.74,1.33,1.72,1.72,0,0,0,1,.3,1.28,1.28,0,0,0,1.1-.61,4.14,4.14,0,0,0,.61-1.42,10.51,10.51,0,0,0,.25-1.65q.06-.83.06-1.33h-1.82v-4h6v12.62h-2.09l-.68-1.79a6,6,0,0,1-1.6,1.6,3.93,3.93,0,0,1-2.32.72,5.63,5.63,0,0,1-3.32-1,6.57,6.57,0,0,1-2.17-2.75,16.07,16.07,0,0,1-1.18-4.41,43.61,43.61,0,0,1-.36-5.95,33.09,33.09,0,0,1,.55-6.55,15,15,0,0,1,1.5-4.35,6.27,6.27,0,0,1,2.22-2.41,5.38,5.38,0,0,1,2.75-.74,8.44,8.44,0,0,1,2.36.34,4.76,4.76,0,0,1,2.09,1.27,6.8,6.8,0,0,1,1.48,2.58,13.19,13.19,0,0,1,.57,4.24v1.75Z"/><path class="cls-1" d="M345.64,222.89h-4.26v-4.18h13.45v4.18h-4.26v22.88h-4.94Z"/><path class="cls-1" d="M356,218.71H361v10.87h3.12V218.71H369v27.06H364.1V234.29H361v11.48H356Z"/><path class="cls-1" d="M371.85,218.71H383v4.18h-6.23v6.92h4.6v4.41h-4.6v7.37h6.5v4.18H371.85Z"/><path class="cls-1" d="M395,218.71h7.14l3.34,27.06h-4.75l-.72-6h-4l-.68,6h-4.14Zm3.15,4.18h-.08l-1.56,12.92h3.08Z"/><path class="cls-1" d="M415.21,228.51a17.92,17.92,0,0,0-.44-4.77q-.44-1.39-1.35-1.39a1.39,1.39,0,0,0-.76.25,2.22,2.22,0,0,0-.67,1.24,16.78,16.78,0,0,0-.46,3q-.17,2-.17,5.43t.11,5.3a20.07,20.07,0,0,0,.34,3,2.2,2.2,0,0,0,.63,1.31,1.63,1.63,0,0,0,1,.28q1.22,0,1.62-1.73a24.64,24.64,0,0,0,.48-4.69l4.18.19a35.28,35.28,0,0,1-.19,3.63,10.66,10.66,0,0,1-.87,3.34,6.39,6.39,0,0,1-2,2.47,5.55,5.55,0,0,1-3.44,1,5.63,5.63,0,0,1-3.33-1,6.59,6.59,0,0,1-2.17-2.75,16.07,16.07,0,0,1-1.18-4.41,43.6,43.6,0,0,1-.36-5.95,33.08,33.08,0,0,1,.55-6.55,15,15,0,0,1,1.5-4.35,6.27,6.27,0,0,1,2.22-2.41,5.38,5.38,0,0,1,2.75-.74,5.82,5.82,0,0,1,3.4.89,5.73,5.73,0,0,1,1.94,2.34,10.34,10.34,0,0,1,.85,3.27,35.48,35.48,0,0,1,.19,3.69Z"/><path class="cls-1" d="M424.69,222.89h-4.26v-4.18h13.45v4.18h-4.26v22.88h-4.94Z"/><path class="cls-1" d="M435,218.71H440v27.06H435Z"/><path class="cls-1" d="M442.09,232.23a36.63,36.63,0,0,1,.51-6.69,13.84,13.84,0,0,1,1.46-4.33,5.87,5.87,0,0,1,2.28-2.34,6.6,6.6,0,0,1,5.93,0,5.87,5.87,0,0,1,2.28,2.34,13.84,13.84,0,0,1,1.46,4.33,43.8,43.8,0,0,1,0,13.38,13.83,13.83,0,0,1-1.46,4.33,5.87,5.87,0,0,1-2.28,2.34,6.6,6.6,0,0,1-5.93,0,5.87,5.87,0,0,1-2.28-2.34,13.83,13.83,0,0,1-1.46-4.33A36.65,36.65,0,0,1,442.09,232.23Zm5.4,2.85q0,2.2.13,3.57a12.28,12.28,0,0,0,.36,2.15,2,2,0,0,0,.57,1,1.22,1.22,0,0,0,1.52,0,2,2,0,0,0,.57-1,12.18,12.18,0,0,0,.36-2.15q.13-1.37.13-3.57v-5.7q0-2.2-.13-3.57a11.71,11.71,0,0,0-.36-2.13,2.16,2.16,0,0,0-.57-1,1.16,1.16,0,0,0-1.52,0,2.17,2.17,0,0,0-.57,1,11.81,11.81,0,0,0-.36,2.13q-.13,1.37-.13,3.57Z"/><path class="cls-1" d="M458.58,218.71h4.83L467.93,233H468V218.71h4v27.06h-3.84l-5.28-16.38h-.08v16.38h-4.18Z"/><path class="cls-1" d="M484.77,218.71h7.14l3.34,27.06H490.5l-.72-6h-4l-.68,6H481Zm3.15,4.18h-.08l-1.56,12.92h3.08Z"/><path class="cls-1" d="M496.69,218.71h4.83L506,233h.08V218.71h4v27.06h-3.84l-5.28-16.38h-.08v16.38h-4.18Z"/><path class="cls-1" d="M512.81,218.71h4.29a10.47,10.47,0,0,1,4.92,1,6.48,6.48,0,0,1,2.74,2.74,11.53,11.53,0,0,1,1.18,4.26q.25,2.49.25,5.57,0,2.93-.23,5.42a13,13,0,0,1-1.06,4.29,6.32,6.32,0,0,1-2.49,2.81,8.63,8.63,0,0,1-4.5,1h-5.09Zm4.94,22.88a4.16,4.16,0,0,0,1.82-.32,2.09,2.09,0,0,0,1-1.31,11.07,11.07,0,0,0,.4-2.83q.08-1.84.08-4.92t-.08-4.9a10.74,10.74,0,0,0-.4-2.79,2.08,2.08,0,0,0-1-1.29,4.17,4.17,0,0,0-1.82-.32Z"/><path class="cls-1" d="M536.36,218.71h4.29a10.48,10.48,0,0,1,4.92,1,6.48,6.48,0,0,1,2.74,2.74,11.55,11.55,0,0,1,1.18,4.26q.25,2.49.25,5.57,0,2.93-.23,5.42a13,13,0,0,1-1.06,4.29,6.32,6.32,0,0,1-2.49,2.81,8.63,8.63,0,0,1-4.5,1h-5.09Zm4.94,22.88a4.16,4.16,0,0,0,1.82-.32,2.09,2.09,0,0,0,1-1.31,11.07,11.07,0,0,0,.4-2.83q.08-1.84.08-4.92t-.08-4.9a10.74,10.74,0,0,0-.4-2.79,2.08,2.08,0,0,0-1-1.29,4.17,4.17,0,0,0-1.82-.32Z"/><path class="cls-1" d="M552.1,218.71h5.55a12,12,0,0,1,3.19.4,5.82,5.82,0,0,1,4.07,3.69,9.93,9.93,0,0,1,.57,3.59,13.28,13.28,0,0,1-.13,1.82,8.77,8.77,0,0,1-.48,1.86,7,7,0,0,1-.89,1.67,4.54,4.54,0,0,1-1.39,1.25l2.93,12.77h-5l-2.32-11.63H557v11.63H552.1ZM557,230.18h1a2,2,0,0,0,1.16-.32A2.6,2.6,0,0,0,560,229a3.74,3.74,0,0,0,.44-1.2,7.34,7.34,0,0,0,.13-1.41,4.42,4.42,0,0,0-.74-3,2.62,2.62,0,0,0-2-.78H557Z"/><path class="cls-1" d="M570.28,218.71h7.14l3.34,27.06H576l-.72-6h-4l-.68,6h-4.14Zm3.15,4.18h-.08l-1.56,12.92h3.08Z"/><path class="cls-1" d="M582.21,218.71h6.57l2.2,13.87h.08l2.32-13.87h6.42v27.06h-4.41V225.93h-.08L592,245.76h-2.74l-3.31-19.84h-.08v19.84h-3.65Z"/><path class="cls-1" d="M605,218.71h7.14l3.34,27.06h-4.75l-.72-6h-4l-.68,6h-4.14Zm3.15,4.18h-.08l-1.56,12.92h3.08Z"/><path class="cls-1" d="M627.13,218.71h7.14l3.34,27.06h-4.75l-.72-6h-4l-.68,6h-4.14Zm3.15,4.18h-.08l-1.56,12.92h3.08Z"/><path class="cls-1" d="M642.69,237.93c0,.38,0,.81,0,1.29a5.88,5.88,0,0,0,.23,1.37,2.5,2.5,0,0,0,.63,1.08,1.67,1.67,0,0,0,1.24.44,2,2,0,0,0,1-.25,2.11,2.11,0,0,0,.68-.65,2.73,2.73,0,0,0,.38-.86,3.59,3.59,0,0,0,.11-.87,3.69,3.69,0,0,0-.67-2.17,10.52,10.52,0,0,0-1.65-1.82q-1-.87-2.17-1.79a15.08,15.08,0,0,1-2.17-2.05,10.58,10.58,0,0,1-1.65-2.62,8.47,8.47,0,0,1-.67-3.5,9.66,9.66,0,0,1,.42-2.87,7,7,0,0,1,1.22-2.34,5.86,5.86,0,0,1,2-1.58,6.87,6.87,0,0,1,5.61,0,5.16,5.16,0,0,1,1.92,1.69,7.73,7.73,0,0,1,1.1,2.6,15.94,15.94,0,0,1,.4,3.34H646.3q0-.57,0-1.27a6.47,6.47,0,0,0-.21-1.33,2.3,2.3,0,0,0-.59-1,1.54,1.54,0,0,0-1.14-.42A1.59,1.59,0,0,0,643,223a3,3,0,0,0-.49,1.79,3.57,3.57,0,0,0,.67,2.09,11,11,0,0,0,1.65,1.84q1,.89,2.17,1.84a15.7,15.7,0,0,1,2.17,2.13,11.36,11.36,0,0,1,1.65,2.66,8.38,8.38,0,0,1,.67,3.46,9.39,9.39,0,0,1-.44,2.91,6.85,6.85,0,0,1-1.29,2.36,6.11,6.11,0,0,1-2.13,1.6,7,7,0,0,1-2.95.59,5.94,5.94,0,0,1-3.21-.78,5.7,5.7,0,0,1-1.94-2,7.92,7.92,0,0,1-1-2.7,17.5,17.5,0,0,1-.25-2.89Z"/><path class="cls-1" d="M653.09,218.71H658q4.18,0,6.35,1.86t2.17,6.23a14.2,14.2,0,0,1-.36,3.33,6.91,6.91,0,0,1-1.16,2.56,5.4,5.4,0,0,1-2,1.65,6.89,6.89,0,0,1-3,.59h-2v10.83h-4.94Zm5,12.27h.42a4.64,4.64,0,0,0,1.33-.17,2.06,2.06,0,0,0,1-.63,3,3,0,0,0,.61-1.25,8.15,8.15,0,0,0,.21-2,7.58,7.58,0,0,0-.27-2.28,2.79,2.79,0,0,0-.7-1.2,1.82,1.82,0,0,0-1-.47,8.89,8.89,0,0,0-1.18-.08h-.38Z"/><path class="cls-1" d="M667.83,218.71H679v4.18h-6.23v6.92h4.6v4.41h-4.6v7.37h6.5v4.18H667.83Z"/><path class="cls-1" d="M689,228.51a17.92,17.92,0,0,0-.44-4.77q-.44-1.39-1.35-1.39a1.39,1.39,0,0,0-.76.25,2.22,2.22,0,0,0-.67,1.24,16.69,16.69,0,0,0-.46,3q-.17,2-.17,5.43t.11,5.3a20.07,20.07,0,0,0,.34,3,2.2,2.2,0,0,0,.63,1.31,1.63,1.63,0,0,0,1,.28q1.22,0,1.62-1.73a24.66,24.66,0,0,0,.47-4.69l4.18.19a35.28,35.28,0,0,1-.19,3.63,10.64,10.64,0,0,1-.87,3.34,6.37,6.37,0,0,1-2,2.47,5.55,5.55,0,0,1-3.44,1,5.63,5.63,0,0,1-3.33-1,6.58,6.58,0,0,1-2.17-2.75,16.07,16.07,0,0,1-1.18-4.41,43.6,43.6,0,0,1-.36-5.95,33.16,33.16,0,0,1,.55-6.55,15,15,0,0,1,1.5-4.35,6.27,6.27,0,0,1,2.22-2.41,5.39,5.39,0,0,1,2.76-.74,5.82,5.82,0,0,1,3.4.89,5.73,5.73,0,0,1,1.94,2.34,10.37,10.37,0,0,1,.85,3.27,35.48,35.48,0,0,1,.19,3.69Z"/><path class="cls-1" d="M698.48,222.89h-4.26v-4.18h13.45v4.18h-4.26v22.88h-4.94Z"/><path class="cls-1" d="M712.81,237.93c0,.38,0,.81,0,1.29a5.93,5.93,0,0,0,.23,1.37,2.48,2.48,0,0,0,.63,1.08,1.67,1.67,0,0,0,1.23.44,2,2,0,0,0,1-.25,2.09,2.09,0,0,0,.68-.65,2.71,2.71,0,0,0,.38-.86,3.59,3.59,0,0,0,.11-.87,3.68,3.68,0,0,0-.67-2.17,10.47,10.47,0,0,0-1.65-1.82q-1-.87-2.17-1.79a15,15,0,0,1-2.17-2.05,10.58,10.58,0,0,1-1.65-2.62,8.48,8.48,0,0,1-.67-3.5,9.62,9.62,0,0,1,.42-2.87,6.94,6.94,0,0,1,1.22-2.34,5.86,5.86,0,0,1,2-1.58,6.87,6.87,0,0,1,5.61,0,5.17,5.17,0,0,1,1.92,1.69,7.75,7.75,0,0,1,1.1,2.6,15.94,15.94,0,0,1,.4,3.34h-4.41c0-.38,0-.8,0-1.27a6.34,6.34,0,0,0-.21-1.33,2.31,2.31,0,0,0-.59-1,1.54,1.54,0,0,0-1.14-.42,1.59,1.59,0,0,0-1.37.68,3,3,0,0,0-.49,1.79,3.56,3.56,0,0,0,.67,2.09,10.92,10.92,0,0,0,1.65,1.84q1,.89,2.17,1.84a15.7,15.7,0,0,1,2.17,2.13,11.33,11.33,0,0,1,1.65,2.66,8.38,8.38,0,0,1,.67,3.46,9.39,9.39,0,0,1-.44,2.91,6.86,6.86,0,0,1-1.29,2.36,6.11,6.11,0,0,1-2.13,1.6,7,7,0,0,1-2.95.59,5.94,5.94,0,0,1-3.21-.78,5.7,5.7,0,0,1-1.94-2,8,8,0,0,1-1-2.7,17.5,17.5,0,0,1-.25-2.89Z"/><path class="cls-1" d="M3.06,275.23a36.63,36.63,0,0,1,.51-6.69A13.81,13.81,0,0,1,5,264.21a5.87,5.87,0,0,1,2.28-2.34,6.24,6.24,0,0,1,3-.7,6.24,6.24,0,0,1,3,.7,5.88,5.88,0,0,1,2.28,2.34A13.84,13.84,0,0,1,17,268.55a36.63,36.63,0,0,1,.51,6.69,36.65,36.65,0,0,1-.51,6.69,13.83,13.83,0,0,1-1.46,4.33,5.88,5.88,0,0,1-2.28,2.34,6.24,6.24,0,0,1-3,.7,6.24,6.24,0,0,1-3-.7A5.87,5.87,0,0,1,5,286.25a13.8,13.8,0,0,1-1.46-4.33A36.65,36.65,0,0,1,3.06,275.23Zm5.4,2.85q0,2.2.13,3.57a12.18,12.18,0,0,0,.36,2.15,2,2,0,0,0,.57,1,1.22,1.22,0,0,0,1.52,0,2,2,0,0,0,.57-1,12.27,12.27,0,0,0,.36-2.15q.13-1.37.13-3.57v-5.7q0-2.2-.13-3.57a11.8,11.8,0,0,0-.36-2.13,2.16,2.16,0,0,0-.57-1,1.15,1.15,0,0,0-1.52,0,2.16,2.16,0,0,0-.57,1,11.71,11.71,0,0,0-.36,2.13q-.13,1.37-.13,3.57Z"/><path class="cls-1" d="M19.64,261.71H30.7v4.18H24.58v7.22h4.52v4.41H24.58v11.25H19.64Z"/><path class="cls-1" d="M41.95,265.89H37.69v-4.18H51.15v4.18H46.89v22.88H41.95Z"/><path class="cls-1" d="M52.36,261.71H57.3v10.87h3.12V261.71h4.94v27.06H60.42V277.29H57.3v11.48H52.36Z"/><path class="cls-1" d="M68.17,261.71H79.34v4.18H73.11v6.92h4.6v4.41h-4.6v7.37h6.5v4.18H68.17Z"/><path class="cls-1" d="M92.29,280.93c0,.38,0,.81,0,1.29a5.93,5.93,0,0,0,.23,1.37,2.48,2.48,0,0,0,.63,1.08,1.67,1.67,0,0,0,1.23.44,2,2,0,0,0,1-.25,2.09,2.09,0,0,0,.68-.65,2.71,2.71,0,0,0,.38-.86,3.59,3.59,0,0,0,.11-.87,3.68,3.68,0,0,0-.67-2.17,10.47,10.47,0,0,0-1.65-1.82q-1-.87-2.17-1.79A15,15,0,0,1,90,274.66,10.58,10.58,0,0,1,88.32,272a8.48,8.48,0,0,1-.67-3.5,9.62,9.62,0,0,1,.42-2.87,6.94,6.94,0,0,1,1.22-2.34,5.86,5.86,0,0,1,2-1.58,6.87,6.87,0,0,1,5.61,0,5.17,5.17,0,0,1,1.92,1.69,7.75,7.75,0,0,1,1.1,2.6,15.94,15.94,0,0,1,.4,3.34H95.9c0-.38,0-.8,0-1.27a6.34,6.34,0,0,0-.21-1.33,2.31,2.31,0,0,0-.59-1,1.54,1.54,0,0,0-1.14-.42,1.59,1.59,0,0,0-1.37.68,3,3,0,0,0-.49,1.79,3.56,3.56,0,0,0,.67,2.09,10.92,10.92,0,0,0,1.65,1.84q1,.89,2.17,1.84a15.7,15.7,0,0,1,2.17,2.13,11.33,11.33,0,0,1,1.65,2.66,8.38,8.38,0,0,1,.67,3.46,9.39,9.39,0,0,1-.44,2.91,6.86,6.86,0,0,1-1.29,2.36,6.11,6.11,0,0,1-2.13,1.6,7,7,0,0,1-2.95.59,5.94,5.94,0,0,1-3.21-.78,5.7,5.7,0,0,1-1.94-2,8,8,0,0,1-1-2.7,17.5,17.5,0,0,1-.25-2.89Z"/><path class="cls-1" d="M102.69,261.71h4.94v10.87h3.12V261.71h4.94v27.06h-4.94V277.29h-3.12v11.48h-4.94Z"/><path class="cls-1" d="M117.86,275.23a36.63,36.63,0,0,1,.51-6.69,13.84,13.84,0,0,1,1.46-4.33,5.87,5.87,0,0,1,2.28-2.34,6.6,6.6,0,0,1,5.93,0,5.88,5.88,0,0,1,2.28,2.34,13.84,13.84,0,0,1,1.46,4.33,43.8,43.8,0,0,1,0,13.38,13.83,13.83,0,0,1-1.46,4.33,5.88,5.88,0,0,1-2.28,2.34,6.6,6.6,0,0,1-5.93,0,5.87,5.87,0,0,1-2.28-2.34,13.83,13.83,0,0,1-1.46-4.33A36.65,36.65,0,0,1,117.86,275.23Zm5.4,2.85q0,2.2.13,3.57a12.19,12.19,0,0,0,.36,2.15,2,2,0,0,0,.57,1,1.22,1.22,0,0,0,1.52,0,2,2,0,0,0,.57-1,12.18,12.18,0,0,0,.36-2.15q.13-1.37.13-3.57v-5.7q0-2.2-.13-3.57a11.71,11.71,0,0,0-.36-2.13,2.16,2.16,0,0,0-.57-1,1.15,1.15,0,0,0-1.52,0,2.16,2.16,0,0,0-.57,1,11.73,11.73,0,0,0-.36,2.13q-.13,1.37-.13,3.57Z"/><path class="cls-1" d="M132.85,261.71h4.48l1.75,15.88h.08l2.36-15.88H146l2.17,15.88h.08l1.94-15.88h3.54l-3.54,27.06h-4.48l-2.36-17.14h-.08l-2.43,17.14h-4.33Z"/><path class="cls-1" d="M154.05,283.82H159v4.94h-4.94Z"/><path class="cls-1" d="M167.73,261.71h4.48L174,277.59H174l2.36-15.88h4.45L183,277.59h.08L185,261.71h3.54L185,288.76h-4.48l-2.36-17.14h-.08l-2.43,17.14h-4.33Z"/><path class="cls-1" d="M190,261.71h4.94v27.06H190Z"/><path class="cls-1" d="M200.3,265.89H196v-4.18H209.5v4.18h-4.26v22.88H200.3Z"/><path class="cls-1" d="M210.71,261.71h4.94v10.87h3.12V261.71h4.94v27.06h-4.94V277.29h-3.12v11.48h-4.94Z"/><path class="cls-1" d="M236.7,261.71h7.14l3.34,27.06h-4.75l-.72-6h-4l-.68,6H232.9Zm3.15,4.18h-.08l-1.56,12.92h3.08Z"/><path class="cls-1" d="M256.39,261.71h4.94v10.87h3.12V261.71h4.94v27.06h-4.94V277.29h-3.12v11.48h-4.94Z"/><path class="cls-1" d="M272.09,261.71H277v27.06h-4.94Z"/><path class="cls-1" d="M279.77,261.71h4.94v22.88H291v4.18H279.77Z"/><path class="cls-1" d="M295.84,261.71H303l3.34,27.06h-4.75l-.72-6h-4l-.68,6H292Zm3.15,4.18h-.08l-1.56,12.92h3.08Z"/><path class="cls-1" d="M307.86,261.71h5.55a12,12,0,0,1,3.19.4,6.11,6.11,0,0,1,2.47,1.31,6,6,0,0,1,1.6,2.38,9.93,9.93,0,0,1,.57,3.59,13.28,13.28,0,0,1-.13,1.82,8.72,8.72,0,0,1-.48,1.86,7,7,0,0,1-.89,1.67,4.54,4.54,0,0,1-1.39,1.25l2.93,12.77h-5L314,277.13H312.8v11.63h-4.94Zm4.94,11.48h1a2,2,0,0,0,1.16-.32,2.59,2.59,0,0,0,.78-.84,3.72,3.72,0,0,0,.44-1.2,7.34,7.34,0,0,0,.13-1.41,4.43,4.43,0,0,0-.74-3,2.63,2.63,0,0,0-2-.78h-.76Z"/><path class="cls-1" d="M323,261.71H328v27.06H323Z"/><path class="cls-1" d="M330.11,275.23a36.62,36.62,0,0,1,.51-6.69,13.81,13.81,0,0,1,1.46-4.33,5.87,5.87,0,0,1,2.28-2.34,6.6,6.6,0,0,1,5.93,0,5.88,5.88,0,0,1,2.28,2.34,13.84,13.84,0,0,1,1.46,4.33,43.88,43.88,0,0,1,0,13.38,13.83,13.83,0,0,1-1.46,4.33,5.88,5.88,0,0,1-2.28,2.34,6.6,6.6,0,0,1-5.93,0,5.87,5.87,0,0,1-2.28-2.34,13.8,13.8,0,0,1-1.46-4.33A36.64,36.64,0,0,1,330.11,275.23Zm5.4,2.85q0,2.2.13,3.57a12.18,12.18,0,0,0,.36,2.15,2,2,0,0,0,.57,1,1.22,1.22,0,0,0,1.52,0,2,2,0,0,0,.57-1,12.28,12.28,0,0,0,.36-2.15q.13-1.37.13-3.57v-5.7q0-2.2-.13-3.57a11.81,11.81,0,0,0-.36-2.13,2.16,2.16,0,0,0-.57-1,1.15,1.15,0,0,0-1.52,0,2.16,2.16,0,0,0-.57,1,11.71,11.71,0,0,0-.36,2.13q-.13,1.37-.13,3.57Z"/><path class="cls-1" d="M346.55,261.71h4.94v20.94a7.07,7.07,0,0,0,.06.89,2.35,2.35,0,0,0,.25.8,1.44,1.44,0,0,0,.53.57,1.65,1.65,0,0,0,.87.21,1.47,1.47,0,0,0,1.42-.74,3.59,3.59,0,0,0,.4-1.73V261.71h4.18V282q0,4-1.67,5.64a6.31,6.31,0,0,1-4.64,1.65,8,8,0,0,1-2.6-.4,5,5,0,0,1-2-1.25A5.68,5.68,0,0,1,347,285.4a11,11,0,0,1-.46-3.4Z"/><path class="cls-1" d="M365.45,280.93c0,.38,0,.81,0,1.29a5.88,5.88,0,0,0,.23,1.37,2.48,2.48,0,0,0,.63,1.08,1.67,1.67,0,0,0,1.24.44,2,2,0,0,0,1-.25,2.09,2.09,0,0,0,.68-.65,2.71,2.71,0,0,0,.38-.86,3.59,3.59,0,0,0,.11-.87,3.69,3.69,0,0,0-.66-2.17,10.52,10.52,0,0,0-1.65-1.82q-1-.87-2.17-1.79a15,15,0,0,1-2.17-2.05,10.61,10.61,0,0,1-1.65-2.62,8.48,8.48,0,0,1-.67-3.5,9.66,9.66,0,0,1,.42-2.87,7,7,0,0,1,1.22-2.34,5.86,5.86,0,0,1,2-1.58,6.87,6.87,0,0,1,5.61,0,5.17,5.17,0,0,1,1.92,1.69,7.71,7.71,0,0,1,1.1,2.6,15.94,15.94,0,0,1,.4,3.34h-4.41q0-.57,0-1.27a6.34,6.34,0,0,0-.21-1.33,2.3,2.3,0,0,0-.59-1,1.54,1.54,0,0,0-1.14-.42,1.59,1.59,0,0,0-1.37.68,3,3,0,0,0-.49,1.79,3.57,3.57,0,0,0,.67,2.09,11,11,0,0,0,1.65,1.84q1,.89,2.17,1.84a15.64,15.64,0,0,1,2.17,2.13,11.33,11.33,0,0,1,1.65,2.66,8.38,8.38,0,0,1,.67,3.46,9.39,9.39,0,0,1-.44,2.91,6.86,6.86,0,0,1-1.29,2.36,6.11,6.11,0,0,1-2.13,1.6,7,7,0,0,1-2.95.59,5.94,5.94,0,0,1-3.21-.78,5.71,5.71,0,0,1-1.94-2,7.94,7.94,0,0,1-.95-2.7,17.4,17.4,0,0,1-.25-2.89Z"/><path class="cls-1" d="M383.31,261.71h6.57l2.2,13.87h.08l2.32-13.87h6.42v27.06h-4.41V268.93h-.08l-3.34,19.84h-2.74L387,268.93H387v19.84h-3.65Z"/><path class="cls-1" d="M406.12,261.71h7.14l3.34,27.06h-4.75l-.72-6h-4l-.68,6h-4.14Zm3.15,4.18h-.08l-1.56,12.92h3.08Z"/><path class="cls-1" d="M421.68,280.93c0,.38,0,.81,0,1.29a5.88,5.88,0,0,0,.23,1.37,2.48,2.48,0,0,0,.63,1.08,1.67,1.67,0,0,0,1.24.44,2,2,0,0,0,1-.25,2.09,2.09,0,0,0,.68-.65,2.71,2.71,0,0,0,.38-.86,3.59,3.59,0,0,0,.11-.87,3.69,3.69,0,0,0-.66-2.17,10.52,10.52,0,0,0-1.65-1.82q-1-.87-2.17-1.79a15,15,0,0,1-2.17-2.05,10.61,10.61,0,0,1-1.65-2.62,8.48,8.48,0,0,1-.67-3.5,9.66,9.66,0,0,1,.42-2.87,7,7,0,0,1,1.22-2.34,5.86,5.86,0,0,1,2-1.58,6.87,6.87,0,0,1,5.61,0,5.17,5.17,0,0,1,1.92,1.69,7.71,7.71,0,0,1,1.1,2.6,15.94,15.94,0,0,1,.4,3.34h-4.41q0-.57,0-1.27a6.34,6.34,0,0,0-.21-1.33,2.3,2.3,0,0,0-.59-1,1.54,1.54,0,0,0-1.14-.42,1.59,1.59,0,0,0-1.37.68,3,3,0,0,0-.49,1.79,3.57,3.57,0,0,0,.67,2.09,11,11,0,0,0,1.65,1.84q1,.89,2.17,1.84a15.64,15.64,0,0,1,2.17,2.13,11.33,11.33,0,0,1,1.65,2.66,8.38,8.38,0,0,1,.67,3.46,9.39,9.39,0,0,1-.44,2.91,6.86,6.86,0,0,1-1.29,2.36,6.11,6.11,0,0,1-2.13,1.6,7,7,0,0,1-2.95.59,5.94,5.94,0,0,1-3.21-.78,5.71,5.71,0,0,1-1.94-2,7.94,7.94,0,0,1-.95-2.7,17.4,17.4,0,0,1-.25-2.89Z"/><path class="cls-1" d="M432.07,261.71H437v10.87h3.12V261.71h4.94v27.06h-4.94V277.29H437v11.48h-4.94Z"/><path class="cls-1" d="M447.76,261.71h4.94v20.94a6.89,6.89,0,0,0,.06.89,2.35,2.35,0,0,0,.25.8,1.42,1.42,0,0,0,.53.57,1.65,1.65,0,0,0,.87.21,1.47,1.47,0,0,0,1.42-.74,3.6,3.6,0,0,0,.4-1.73V261.71h4.18V282q0,4-1.67,5.64a6.31,6.31,0,0,1-4.64,1.65,8,8,0,0,1-2.6-.4,5,5,0,0,1-2-1.25,5.69,5.69,0,0,1-1.29-2.24,11,11,0,0,1-.46-3.4Z"/><path class="cls-1" d="M463.13,261.71h4.94q4.18,0,6.35,1.86t2.17,6.23a14.2,14.2,0,0,1-.36,3.33,6.91,6.91,0,0,1-1.16,2.56,5.41,5.41,0,0,1-2,1.65,6.89,6.89,0,0,1-3,.59h-2v10.83h-4.94Zm5,12.27h.42a4.64,4.64,0,0,0,1.33-.17,2.05,2.05,0,0,0,1-.63,3.06,3.06,0,0,0,.61-1.25,8.15,8.15,0,0,0,.21-2,7.58,7.58,0,0,0-.27-2.28,2.78,2.78,0,0,0-.7-1.2,1.82,1.82,0,0,0-1-.47,8.89,8.89,0,0,0-1.18-.08h-.38Z"/><path class="cls-1" d="M484.56,275.23a36.63,36.63,0,0,1,.51-6.69,13.84,13.84,0,0,1,1.46-4.33,5.87,5.87,0,0,1,2.28-2.34,6.6,6.6,0,0,1,5.93,0,5.88,5.88,0,0,1,2.28,2.34,13.84,13.84,0,0,1,1.46,4.33,43.88,43.88,0,0,1,0,13.38,13.83,13.83,0,0,1-1.46,4.33,5.88,5.88,0,0,1-2.28,2.34,6.6,6.6,0,0,1-5.93,0,5.87,5.87,0,0,1-2.28-2.34,13.83,13.83,0,0,1-1.46-4.33A36.65,36.65,0,0,1,484.56,275.23Zm5.4,2.85q0,2.2.13,3.57a12.18,12.18,0,0,0,.36,2.15,2,2,0,0,0,.57,1,1.22,1.22,0,0,0,1.52,0,2,2,0,0,0,.57-1,12.27,12.27,0,0,0,.36-2.15q.13-1.37.13-3.57v-5.7q0-2.2-.13-3.57a11.8,11.8,0,0,0-.36-2.13,2.16,2.16,0,0,0-.57-1,1.15,1.15,0,0,0-1.52,0,2.16,2.16,0,0,0-.57,1,11.71,11.71,0,0,0-.36,2.13q-.13,1.37-.13,3.57Z"/><path class="cls-1" d="M501.15,261.71H512.2v4.18h-6.12v7.22h4.52v4.41h-4.52v11.25h-4.94Z"/><path class="cls-1" d="M520,282.23a6.53,6.53,0,0,1,1.12-3.82,11.54,11.54,0,0,1,2.83-2.83,9.32,9.32,0,0,1-2.36-3.08,8.56,8.56,0,0,1-.91-3.8,10.06,10.06,0,0,1,.38-2.77,6.86,6.86,0,0,1,1.16-2.34,5.66,5.66,0,0,1,1.94-1.6,6,6,0,0,1,2.75-.59,5,5,0,0,1,2.3.51,5.53,5.53,0,0,1,1.73,1.37,6,6,0,0,1,1.1,2,7.12,7.12,0,0,1,.38,2.3,7.26,7.26,0,0,1-.82,3.61,8.82,8.82,0,0,1-2.53,2.7q.83.88,1.58,1.73a12.28,12.28,0,0,1,1.31,1.82,9.86,9.86,0,0,1,.91,2.05,7.7,7.7,0,0,1,.34,2.34,9,9,0,0,1-.38,2.55,6.94,6.94,0,0,1-1.2,2.34,6.26,6.26,0,0,1-2.11,1.71,7.6,7.6,0,0,1-5.85.15,5.82,5.82,0,0,1-3.27-3.59A8.59,8.59,0,0,1,520,282.23Zm4.18,0a5.89,5.89,0,0,0,.21,1.73,3,3,0,0,0,.53,1,1.63,1.63,0,0,0,.72.51,2.55,2.55,0,0,0,.82.13,2.33,2.33,0,0,0,.8-.15A1.91,1.91,0,0,0,528,285a3.1,3.1,0,0,0,.57-1,4.07,4.07,0,0,0,.23-1.46,4.31,4.31,0,0,0-.27-1.54,6.13,6.13,0,0,0-.7-1.33,9.77,9.77,0,0,0-1-1.2q-.55-.57-1.16-1.14a4.68,4.68,0,0,0-.57,1,9.86,9.86,0,0,0-.47,1.24,11.77,11.77,0,0,0-.34,1.37A7.16,7.16,0,0,0,524.17,282.23Zm.68-15a6,6,0,0,0,.68,2.7,5.66,5.66,0,0,0,1.67,2.09,11.31,11.31,0,0,0,1.1-2.05,5.82,5.82,0,0,0,.46-2.24,5,5,0,0,0-.1-1,2.68,2.68,0,0,0-.32-.87,1.79,1.79,0,0,0-1.63-.87,1.57,1.57,0,0,0-1.37.72A2.59,2.59,0,0,0,524.86,267.25Z"/><path class="cls-1" d="M547.29,275.23a34.44,34.44,0,0,1-.57,6.92,14.18,14.18,0,0,1-1.48,4.24,5.18,5.18,0,0,1-2.07,2.11,5.26,5.26,0,0,1-2.34.57,5.48,5.48,0,0,1-2.37-.55,5.05,5.05,0,0,1-2.07-2.07,13.58,13.58,0,0,1-1.46-4.22,44.65,44.65,0,0,1,0-14,13.6,13.6,0,0,1,1.46-4.22,5.06,5.06,0,0,1,2.07-2.07,5.48,5.48,0,0,1,2.38-.55,5.13,5.13,0,0,1,2.34.59,5.33,5.33,0,0,1,2.07,2.13,14.17,14.17,0,0,1,1.48,4.22A34.16,34.16,0,0,1,547.29,275.23Zm-4.71,0q0-3.53-.13-5.57a21.78,21.78,0,0,0-.36-3.06,2.47,2.47,0,0,0-.55-1.29,1.06,1.06,0,0,0-1.41,0,2.48,2.48,0,0,0-.55,1.29,21.81,21.81,0,0,0-.36,3.06q-.13,2-.13,5.57t.13,5.57a21.77,21.77,0,0,0,.36,3.06,2.47,2.47,0,0,0,.55,1.29,1.06,1.06,0,0,0,1.41,0,2.46,2.46,0,0,0,.55-1.29,21.74,21.74,0,0,0,.36-3.06Q542.58,278.77,542.58,275.23Z"/><path class="cls-1" d="M555.7,275c-.05-.3-.11-.6-.17-.89a2.87,2.87,0,0,0-.29-.78,1.43,1.43,0,0,0-.55-.55,1.84,1.84,0,0,0-.93-.21,1.13,1.13,0,0,0-1,.49,2,2,0,0,0,.19,2.51,8.11,8.11,0,0,0,1.33,1.12q.8.55,1.71,1.12a10.68,10.68,0,0,1,1.71,1.33A6.59,6.59,0,0,1,559,281a5.43,5.43,0,0,1,.53,2.49,5.57,5.57,0,0,1-1.52,4.07,5.47,5.47,0,0,1-4.1,1.56,4.86,4.86,0,0,1-4-1.5,7.35,7.35,0,0,1-1.52-4l3.46-.53a5.77,5.77,0,0,0,.67,2.22,1.7,1.7,0,0,0,1.54.67,1.37,1.37,0,0,0,1.08-.46,1.62,1.62,0,0,0,.4-1.1,1.86,1.86,0,0,0-.51-1.31,8,8,0,0,0-1.27-1.08l-1.63-1.14a10.07,10.07,0,0,1-1.63-1.42,7.15,7.15,0,0,1-1.27-2,6.64,6.64,0,0,1-.51-2.74,5.74,5.74,0,0,1,.38-2.11,4.82,4.82,0,0,1,1.08-1.67,5.07,5.07,0,0,1,1.67-1.1,5.5,5.5,0,0,1,2.11-.4,4.81,4.81,0,0,1,2,.4,4.22,4.22,0,0,1,1.46,1.08,5.21,5.21,0,0,1,.93,1.62,8.33,8.33,0,0,1,.46,2Z"/><path class="cls-1" d="M568.81,261.71h4.83L578.15,276h.08V261.71h4v27.06h-3.84l-5.28-16.38H573v16.38h-4.18Z"/><path class="cls-1" d="M584.29,275.23a36.62,36.62,0,0,1,.51-6.69,13.81,13.81,0,0,1,1.46-4.33,5.87,5.87,0,0,1,2.28-2.34,6.6,6.6,0,0,1,5.93,0,5.88,5.88,0,0,1,2.28,2.34,13.84,13.84,0,0,1,1.46,4.33,43.88,43.88,0,0,1,0,13.38,13.83,13.83,0,0,1-1.46,4.33,5.88,5.88,0,0,1-2.28,2.34,6.6,6.6,0,0,1-5.93,0,5.87,5.87,0,0,1-2.28-2.34,13.8,13.8,0,0,1-1.46-4.33A36.64,36.64,0,0,1,584.29,275.23Zm5.4,2.85q0,2.2.13,3.57a12.18,12.18,0,0,0,.36,2.15,2,2,0,0,0,.57,1,1.22,1.22,0,0,0,1.52,0,2,2,0,0,0,.57-1,12.28,12.28,0,0,0,.36-2.15q.13-1.37.13-3.57v-5.7q0-2.2-.13-3.57a11.81,11.81,0,0,0-.36-2.13,2.16,2.16,0,0,0-.57-1,1.15,1.15,0,0,0-1.52,0,2.16,2.16,0,0,0-.57,1,11.71,11.71,0,0,0-.36,2.13q-.13,1.37-.13,3.57Z"/><path class="cls-1" d="M604.46,280.93c0,.38,0,.81,0,1.29a5.88,5.88,0,0,0,.23,1.37,2.48,2.48,0,0,0,.63,1.08,1.67,1.67,0,0,0,1.24.44,2,2,0,0,0,1-.25,2.09,2.09,0,0,0,.68-.65,2.71,2.71,0,0,0,.38-.86,3.59,3.59,0,0,0,.11-.87,3.69,3.69,0,0,0-.66-2.17,10.52,10.52,0,0,0-1.65-1.82q-1-.87-2.17-1.79a15,15,0,0,1-2.17-2.05,10.61,10.61,0,0,1-1.65-2.62,8.48,8.48,0,0,1-.67-3.5,9.66,9.66,0,0,1,.42-2.87,7,7,0,0,1,1.22-2.34,5.86,5.86,0,0,1,2-1.58,6.87,6.87,0,0,1,5.61,0,5.17,5.17,0,0,1,1.92,1.69,7.71,7.71,0,0,1,1.1,2.6,15.94,15.94,0,0,1,.4,3.34h-4.41q0-.57,0-1.27a6.34,6.34,0,0,0-.21-1.33,2.3,2.3,0,0,0-.59-1,1.54,1.54,0,0,0-1.14-.42,1.59,1.59,0,0,0-1.37.68,3,3,0,0,0-.49,1.79,3.57,3.57,0,0,0,.67,2.09,11,11,0,0,0,1.65,1.84q1,.89,2.17,1.84a15.64,15.64,0,0,1,2.17,2.13,11.33,11.33,0,0,1,1.65,2.66,8.38,8.38,0,0,1,.67,3.46,9.39,9.39,0,0,1-.44,2.91,6.86,6.86,0,0,1-1.29,2.36,6.11,6.11,0,0,1-2.13,1.6,7,7,0,0,1-2.95.59,5.94,5.94,0,0,1-3.21-.78,5.71,5.71,0,0,1-1.94-2,7.94,7.94,0,0,1-.95-2.7,17.4,17.4,0,0,1-.25-2.89Z"/><path class="cls-1" d="M617.54,265.89h-4.26v-4.18h13.45v4.18h-4.26v22.88h-4.94Z"/><path class="cls-1" d="M629.48,261.71h7.14L640,288.76h-4.75l-.72-6h-4l-.68,6h-4.14Zm3.15,4.18h-.08L631,278.81h3.08Z"/><path class="cls-1" d="M641.5,261.71h4.94v22.88h6.31v4.18H641.5Z"/><path class="cls-1" d="M662.68,271.36q0-.46,0-1.46a12,12,0,0,0-.13-2,5.94,5.94,0,0,0-.53-1.77,1.24,1.24,0,0,0-1.18-.76,1.34,1.34,0,0,0-.86.32,2.69,2.69,0,0,0-.68,1.35,16.53,16.53,0,0,0-.44,3q-.15,1.94-.15,5.21t.15,5.3a15.25,15.25,0,0,0,.46,3,2.45,2.45,0,0,0,.74,1.33,1.72,1.72,0,0,0,1,.3,1.28,1.28,0,0,0,1.1-.61,4.15,4.15,0,0,0,.61-1.42,10.39,10.39,0,0,0,.25-1.65q.06-.83.06-1.33h-1.82v-4h6v12.62h-2.09L664.5,287a6,6,0,0,1-1.6,1.6,3.93,3.93,0,0,1-2.32.72,5.63,5.63,0,0,1-3.32-1,6.57,6.57,0,0,1-2.17-2.75,16.07,16.07,0,0,1-1.18-4.41,43.45,43.45,0,0,1-.36-5.95,33.16,33.16,0,0,1,.55-6.55,15,15,0,0,1,1.5-4.35,6.27,6.27,0,0,1,2.22-2.41,5.38,5.38,0,0,1,2.75-.74,8.44,8.44,0,0,1,2.36.34,4.75,4.75,0,0,1,2.09,1.27,6.8,6.8,0,0,1,1.48,2.58,13.22,13.22,0,0,1,.57,4.24v1.75Z"/><path class="cls-1" d="M669.58,261.71h4.94v27.06h-4.94Z"/><path class="cls-1" d="M679.75,261.71h7.14l3.34,27.06h-4.75l-.72-6h-4l-.68,6H676Zm3.15,4.18h-.08l-1.56,12.92h3.08Z"/><path class="cls-1" d="M692.09,283.82H697v4.94h-4.94Z"/></g></g></svg>