<svg xmlns="http://www.w3.org/2000/svg" viewBox="0 0 754.07 246.06"><defs><style>.cls-1{fill:#fff;}</style></defs><title>6-Stranger Escape</title><g id="Layer_2" data-name="Layer 2"><g id="Layer_1-2" data-name="Layer 1"><rect class="cls-1" x="2.39" width="152.17" height="16.44"/><path class="cls-1" d="M1.76,37.46h8l7.5,23.69h.13V37.46h6.55V82.32H17.58L8.82,55.17H8.69V82.32H1.76Z"/><path class="cls-1" d="M28.12,37.46H46.64v6.93H36.31V55.86h7.62v7.31H36.31V75.39H47.08v6.93h-19Z"/><path class="cls-1" d="M54.66,44.39H47.6V37.46H69.9v6.93H62.85V82.32H54.66Z"/><path class="cls-1" d="M71.58,37.46H89.91v6.93H79.77v12h7.5v7.31h-7.5V82.32H71.58Z"/><path class="cls-1" d="M91.88,37.46h8.19V75.39h10.46v6.93H91.88Z"/><path class="cls-1" d="M112.78,37.46H121V82.32h-8.19Z"/><path class="cls-1" d="M129.87,59.45l-7.18-22h8.19l3.4,12h.13l3-12h7l-6.68,20.85,7.94,24h-8.25l-4-13.48h-.13l-3.78,13.48h-6.93Z"/><path class="cls-1" d="M7.69,132.34q0,.94.06,2.14a9.73,9.73,0,0,0,.38,2.27,4.12,4.12,0,0,0,1,1.8,2.77,2.77,0,0,0,2,.72,3.29,3.29,0,0,0,1.7-.41A3.49,3.49,0,0,0,14,137.79a4.54,4.54,0,0,0,.63-1.42,6,6,0,0,0,.19-1.45,6.12,6.12,0,0,0-1.1-3.59,17.39,17.39,0,0,0-2.74-3q-1.64-1.45-3.59-3a24.93,24.93,0,0,1-3.59-3.4A17.53,17.53,0,0,1,1.1,117.6,14.05,14.05,0,0,1,0,111.8,16,16,0,0,1,.69,107a11.52,11.52,0,0,1,2-3.87A9.71,9.71,0,0,1,6,100.56a10.22,10.22,0,0,1,4.57-1,10.21,10.21,0,0,1,4.72,1,8.56,8.56,0,0,1,3.18,2.8,12.85,12.85,0,0,1,1.83,4.32,26.43,26.43,0,0,1,.66,5.54H13.67c0-.63,0-1.33-.06-2.11a10.5,10.5,0,0,0-.35-2.21,3.82,3.82,0,0,0-1-1.73,2.55,2.55,0,0,0-1.89-.69,2.64,2.64,0,0,0-2.27,1.13,4.94,4.94,0,0,0-.82,3,5.91,5.91,0,0,0,1.1,3.46,18.16,18.16,0,0,0,2.74,3.06q1.64,1.48,3.59,3.06a26,26,0,0,1,3.59,3.53,18.86,18.86,0,0,1,2.74,4.41,13.91,13.91,0,0,1,1.1,5.73,15.56,15.56,0,0,1-.72,4.82,11.39,11.39,0,0,1-2.14,3.91,10.14,10.14,0,0,1-3.53,2.65,11.51,11.51,0,0,1-4.88,1,9.85,9.85,0,0,1-5.32-1.29,9.47,9.47,0,0,1-3.21-3.31,13.14,13.14,0,0,1-1.58-4.47,29,29,0,0,1-.41-4.79Z"/><path class="cls-1" d="M29,107.39H22v-6.93h22.3v6.93H37.23v37.93H29Z"/><path class="cls-1" d="M46,100.46h9.2a19.83,19.83,0,0,1,5.29.66,9.64,9.64,0,0,1,6.74,6.11,16.48,16.48,0,0,1,.95,6,21.88,21.88,0,0,1-.22,3,14.53,14.53,0,0,1-.79,3.09,11.78,11.78,0,0,1-1.48,2.77,7.54,7.54,0,0,1-2.3,2.08l4.85,21.17H59.94L56.1,126h-2v19.28H46Zm8.19,19h1.64a3.33,3.33,0,0,0,1.92-.54A4.3,4.3,0,0,0,59,117.57a6.18,6.18,0,0,0,.72-2,12.14,12.14,0,0,0,.22-2.33q0-3.65-1.23-4.95A4.35,4.35,0,0,0,55.41,107H54.15Z"/><path class="cls-1" d="M75.77,100.46H87.61l5.54,44.86H85.28l-1.2-10H77.47l-1.13,10H69.47ZM81,107.39h-.13l-2.58,21.42h5.1Z"/><path class="cls-1" d="M95.18,100.46h8l7.5,23.69h.13V100.46h6.55v44.86H111l-8.76-27.15h-.13v27.15H95.18Z"/><path class="cls-1" d="M135.62,116.47q0-.76,0-2.43a20,20,0,0,0-.22-3.34,9.83,9.83,0,0,0-.88-2.93,2.06,2.06,0,0,0-2-1.26,2.21,2.21,0,0,0-1.42.54,4.45,4.45,0,0,0-1.13,2.24,27.62,27.62,0,0,0-.72,4.91q-.25,3.21-.25,8.63t.25,8.79a25.34,25.34,0,0,0,.76,4.95,4.06,4.06,0,0,0,1.23,2.21,2.85,2.85,0,0,0,1.67.5,2.12,2.12,0,0,0,1.83-1,6.89,6.89,0,0,0,1-2.36,17.3,17.3,0,0,0,.41-2.74q.09-1.38.09-2.21h-3V124.4h10v20.92h-3.47l-1.13-3A9.86,9.86,0,0,1,136,145a6.52,6.52,0,0,1-3.84,1.2,9.33,9.33,0,0,1-5.51-1.58,10.91,10.91,0,0,1-3.59-4.57,26.61,26.61,0,0,1-2-7.31,72.2,72.2,0,0,1-.6-9.86,54.94,54.94,0,0,1,.91-10.87,24.83,24.83,0,0,1,2.49-7.21,10.41,10.41,0,0,1,3.69-4,8.93,8.93,0,0,1,4.57-1.23,14,14,0,0,1,3.91.57,7.88,7.88,0,0,1,3.46,2.11,11.28,11.28,0,0,1,2.46,4.28,21.92,21.92,0,0,1,.95,7v2.9Z"/><path class="cls-1" d="M146.85,100.46h18.52v6.93H155v11.47h7.62v7.31H155v12.22h10.77v6.93h-19Z"/><path class="cls-1" d="M168.08,100.46h9.2a19.83,19.83,0,0,1,5.29.66,9.64,9.64,0,0,1,6.74,6.11,16.48,16.48,0,0,1,.95,6,21.88,21.88,0,0,1-.22,3,14.53,14.53,0,0,1-.79,3.09,11.78,11.78,0,0,1-1.48,2.77,7.54,7.54,0,0,1-2.3,2.08l4.85,21.17h-8.25L178.22,126h-2v19.28h-8.19Zm8.19,19h1.64a3.33,3.33,0,0,0,1.92-.54,4.3,4.3,0,0,0,1.29-1.39,6.18,6.18,0,0,0,.72-2,12.14,12.14,0,0,0,.22-2.33q0-3.65-1.23-4.95a4.35,4.35,0,0,0-3.31-1.29h-1.26Z"/><path class="cls-1" d="M205.94,100.46h18.52v6.93H214.13v11.47h7.62v7.31h-7.62v12.22H224.9v6.93h-19Z"/><path class="cls-1" d="M233.45,132.34q0,.94.06,2.14a9.73,9.73,0,0,0,.38,2.27,4.12,4.12,0,0,0,1,1.8,2.77,2.77,0,0,0,2,.72,3.29,3.29,0,0,0,1.7-.41,3.49,3.49,0,0,0,1.13-1.07,4.54,4.54,0,0,0,.63-1.42,6,6,0,0,0,.19-1.45,6.12,6.12,0,0,0-1.1-3.59,17.39,17.39,0,0,0-2.74-3q-1.64-1.45-3.59-3a24.93,24.93,0,0,1-3.59-3.4,17.53,17.53,0,0,1-2.74-4.35,14.05,14.05,0,0,1-1.1-5.8,16,16,0,0,1,.69-4.76,11.52,11.52,0,0,1,2-3.87,9.71,9.71,0,0,1,3.31-2.61,11.37,11.37,0,0,1,9.29,0,8.56,8.56,0,0,1,3.18,2.8,12.85,12.85,0,0,1,1.83,4.32,26.43,26.43,0,0,1,.66,5.54h-7.31c0-.63,0-1.33-.06-2.11a10.5,10.5,0,0,0-.35-2.21,3.82,3.82,0,0,0-1-1.73,2.55,2.55,0,0,0-1.89-.69,2.64,2.64,0,0,0-2.27,1.13,4.94,4.94,0,0,0-.82,3,5.91,5.91,0,0,0,1.1,3.46,18.16,18.16,0,0,0,2.74,3.06q1.64,1.48,3.59,3.06a26,26,0,0,1,3.59,3.53,18.86,18.86,0,0,1,2.74,4.41,13.91,13.91,0,0,1,1.1,5.73,15.56,15.56,0,0,1-.72,4.82,11.39,11.39,0,0,1-2.14,3.91,10.14,10.14,0,0,1-3.53,2.65,11.51,11.51,0,0,1-4.88,1,9.85,9.85,0,0,1-5.32-1.29,9.47,9.47,0,0,1-3.21-3.31,13.14,13.14,0,0,1-1.58-4.47,29,29,0,0,1-.41-4.79Z"/><path class="cls-1" d="M264.34,116.72a29.7,29.7,0,0,0-.72-7.91q-.73-2.3-2.24-2.3a2.3,2.3,0,0,0-1.26.41,3.67,3.67,0,0,0-1.1,2,27.61,27.61,0,0,0-.76,4.91q-.28,3.28-.28,9,0,5.54.19,8.79a33.31,33.31,0,0,0,.57,4.95,3.64,3.64,0,0,0,1,2.17,2.69,2.69,0,0,0,1.61.47q2,0,2.68-2.87a40.87,40.87,0,0,0,.79-7.78l6.93.32a58.66,58.66,0,0,1-.32,6A17.68,17.68,0,0,1,270,140.5a10.56,10.56,0,0,1-3.24,4.09,9.19,9.19,0,0,1-5.7,1.61,9.33,9.33,0,0,1-5.51-1.58,10.91,10.91,0,0,1-3.59-4.57,26.61,26.61,0,0,1-2-7.31,72.2,72.2,0,0,1-.6-9.86,54.94,54.94,0,0,1,.91-10.87,24.83,24.83,0,0,1,2.49-7.21,10.41,10.41,0,0,1,3.69-4,8.93,8.93,0,0,1,4.57-1.23,9.65,9.65,0,0,1,5.64,1.48,9.5,9.5,0,0,1,3.21,3.88,17.16,17.16,0,0,1,1.42,5.42,59,59,0,0,1,.32,6.11Z"/><path class="cls-1" d="M279,100.46h11.84l5.54,44.86h-7.87l-1.2-10h-6.62l-1.13,10h-6.87Zm5.23,6.93h-.13l-2.58,21.42h5.1Z"/><path class="cls-1" d="M298.58,100.46h8.19q6.93,0,10.52,3.09t3.59,10.33a23.61,23.61,0,0,1-.6,5.51,11.46,11.46,0,0,1-1.92,4.25,9,9,0,0,1-3.37,2.74,11.41,11.41,0,0,1-4.95,1h-3.28v18h-8.19Zm8.25,20.35h.69a7.72,7.72,0,0,0,2.21-.28,3.4,3.4,0,0,0,1.61-1,5.06,5.06,0,0,0,1-2.08,13.48,13.48,0,0,0,.35-3.34,12.58,12.58,0,0,0-.44-3.78,4.62,4.62,0,0,0-1.17-2,3,3,0,0,0-1.67-.79,14.79,14.79,0,0,0-2-.13h-.63Z"/><path class="cls-1" d="M322.69,100.46h18.52v6.93H330.88v11.47h7.62v7.31h-7.62v12.22h10.77v6.93h-19Z"/><path class="cls-1" d="M6.42,175.47h7.14l3.34,27.06H12.16l-.72-6h-4l-.68,6H2.62Zm3.15,4.18H9.5L7.94,192.57H11Z"/><path class="cls-1" d="M24.66,175.47h4.83l2.32,19h.08l2.55-19h4l-4.07,27.06H28.69Z"/><path class="cls-1" d="M39.82,175.47h4.94v27.06H39.82Z"/><path class="cls-1" d="M47.5,175.47H53a12,12,0,0,1,3.19.4,6.1,6.1,0,0,1,2.47,1.31,6,6,0,0,1,1.6,2.38,9.93,9.93,0,0,1,.57,3.59,13.13,13.13,0,0,1-.13,1.82,8.77,8.77,0,0,1-.47,1.86,7.05,7.05,0,0,1-.89,1.67A4.54,4.54,0,0,1,58,189.76l2.93,12.77h-5L53.61,190.9H52.44v11.63H47.5Zm4.94,11.48h1a2,2,0,0,0,1.16-.32,2.6,2.6,0,0,0,.78-.84,3.77,3.77,0,0,0,.44-1.2,7.41,7.41,0,0,0,.13-1.41,4.42,4.42,0,0,0-.74-3,2.63,2.63,0,0,0-2-.78h-.76Z"/><path class="cls-1" d="M65.68,175.47h7.14l3.34,27.06H71.41l-.72-6h-4l-.68,6H61.88Zm3.15,4.18h-.08L67.2,192.57h3.08Z"/><path class="cls-1" d="M77.69,175.47h4.94v22.88h6.31v4.18H77.69Z"/><path class="cls-1" d="M98.44,175.47h4.94v10.87h3.12V175.47h4.94v27.06H106.5V191.05h-3.12v11.48H98.44Z"/><path class="cls-1" d="M114.15,175.47h4.94v27.06h-4.94Z"/><path class="cls-1" d="M124.49,179.65h-4.26v-4.18h13.45v4.18h-4.26v22.88h-4.94Z"/><path class="cls-1" d="M144.71,175.47h7.14l3.34,27.06h-4.75l-.72-6h-4l-.68,6h-4.14Zm3.15,4.18h-.08l-1.56,12.92h3.08Z"/><path class="cls-1" d="M164.89,185.28a17.92,17.92,0,0,0-.44-4.77q-.44-1.39-1.35-1.39a1.39,1.39,0,0,0-.76.25,2.22,2.22,0,0,0-.67,1.24,16.69,16.69,0,0,0-.46,3q-.17,2-.17,5.43t.11,5.3a20.07,20.07,0,0,0,.34,3,2.2,2.2,0,0,0,.63,1.31,1.63,1.63,0,0,0,1,.28q1.22,0,1.62-1.73a24.66,24.66,0,0,0,.47-4.69l4.18.19a35.28,35.28,0,0,1-.19,3.63,10.64,10.64,0,0,1-.87,3.34,6.37,6.37,0,0,1-2,2.47,5.55,5.55,0,0,1-3.44,1,5.63,5.63,0,0,1-3.33-1,6.58,6.58,0,0,1-2.17-2.75,16.07,16.07,0,0,1-1.18-4.41,43.6,43.6,0,0,1-.36-5.95,33.16,33.16,0,0,1,.55-6.55,15,15,0,0,1,1.5-4.35,6.26,6.26,0,0,1,2.22-2.41,5.38,5.38,0,0,1,2.75-.74,5.82,5.82,0,0,1,3.4.89,5.73,5.73,0,0,1,1.94,2.34,10.37,10.37,0,0,1,.85,3.27,35.48,35.48,0,0,1,.19,3.69Z"/><path class="cls-1" d="M174.37,179.65h-4.26v-4.18h13.45v4.18h-4.26v22.88h-4.94Z"/><path class="cls-1" d="M184.7,175.47h4.94v27.06H184.7Z"/><path class="cls-1" d="M191,175.47h4.83l2.32,19h.08l2.55-19h4l-4.07,27.06h-5.66Z"/><path class="cls-1" d="M208.17,175.47h7.14l3.34,27.06h-4.75l-.72-6h-4l-.68,6h-4.14Zm3.15,4.18h-.08l-1.56,12.92h3.08Z"/><path class="cls-1" d="M222,179.65h-4.26v-4.18h13.45v4.18H227v22.88H222Z"/><path class="cls-1" d="M232.37,175.47h4.94v27.06h-4.94Z"/><path class="cls-1" d="M239.45,189a36.63,36.63,0,0,1,.51-6.69,13.84,13.84,0,0,1,1.46-4.33,5.88,5.88,0,0,1,2.28-2.34,6.6,6.6,0,0,1,5.93,0,5.88,5.88,0,0,1,2.28,2.34,13.84,13.84,0,0,1,1.46,4.33,43.8,43.8,0,0,1,0,13.38,13.83,13.83,0,0,1-1.46,4.33,5.88,5.88,0,0,1-2.28,2.34,6.6,6.6,0,0,1-5.93,0,5.88,5.88,0,0,1-2.28-2.34,13.83,13.83,0,0,1-1.46-4.33A36.65,36.65,0,0,1,239.45,189Zm5.4,2.85q0,2.2.13,3.57a12.19,12.19,0,0,0,.36,2.15,2,2,0,0,0,.57,1,1.22,1.22,0,0,0,1.52,0,2,2,0,0,0,.57-1,12.18,12.18,0,0,0,.36-2.15q.13-1.37.13-3.57v-5.7q0-2.2-.13-3.57a11.71,11.71,0,0,0-.36-2.13,2.15,2.15,0,0,0-.57-1,1.15,1.15,0,0,0-1.52,0,2.17,2.17,0,0,0-.57,1,11.73,11.73,0,0,0-.36,2.13q-.13,1.37-.13,3.57Z"/><path class="cls-1" d="M255.94,175.47h4.83l4.52,14.29h.08V175.47h4v27.06h-3.84l-5.28-16.38h-.08v16.38h-4.18Z"/><path class="cls-1" d="M279.69,175.47h11.06v4.18h-6.12v7.22h4.52v4.41h-4.52v11.25h-4.94Z"/><path class="cls-1" d="M291.27,189a36.63,36.63,0,0,1,.51-6.69,13.84,13.84,0,0,1,1.46-4.33,5.88,5.88,0,0,1,2.28-2.34,6.6,6.6,0,0,1,5.93,0,5.88,5.88,0,0,1,2.28,2.34,13.84,13.84,0,0,1,1.46,4.33,43.8,43.8,0,0,1,0,13.38,13.83,13.83,0,0,1-1.46,4.33,5.88,5.88,0,0,1-2.28,2.34,6.6,6.6,0,0,1-5.93,0,5.88,5.88,0,0,1-2.28-2.34,13.83,13.83,0,0,1-1.46-4.33A36.65,36.65,0,0,1,291.27,189Zm5.4,2.85q0,2.2.13,3.57a12.19,12.19,0,0,0,.36,2.15,2,2,0,0,0,.57,1,1.22,1.22,0,0,0,1.52,0,2,2,0,0,0,.57-1,12.18,12.18,0,0,0,.36-2.15q.13-1.37.13-3.57v-5.7q0-2.2-.13-3.57a11.71,11.71,0,0,0-.36-2.13,2.15,2.15,0,0,0-.57-1,1.15,1.15,0,0,0-1.52,0,2.17,2.17,0,0,0-.57,1,11.73,11.73,0,0,0-.36,2.13q-.13,1.37-.13,3.57Z"/><path class="cls-1" d="M307.85,175.47h5.55a12,12,0,0,1,3.19.4,6.1,6.1,0,0,1,2.47,1.31,6,6,0,0,1,1.6,2.38,9.93,9.93,0,0,1,.57,3.59,13.13,13.13,0,0,1-.13,1.82,8.77,8.77,0,0,1-.47,1.86,7.05,7.05,0,0,1-.89,1.67,4.54,4.54,0,0,1-1.39,1.25l2.93,12.77h-5L314,190.9h-1.18v11.63h-4.94Zm4.94,11.48h1a2,2,0,0,0,1.16-.32,2.6,2.6,0,0,0,.78-.84,3.77,3.77,0,0,0,.44-1.2,7.41,7.41,0,0,0,.13-1.41,4.42,4.42,0,0,0-.74-3,2.63,2.63,0,0,0-2-.78h-.76Z"/><path class="cls-1" d="M334.07,194.7c0,.38,0,.81,0,1.29a5.93,5.93,0,0,0,.23,1.37,2.48,2.48,0,0,0,.63,1.08,1.67,1.67,0,0,0,1.24.44,2,2,0,0,0,1-.25,2.11,2.11,0,0,0,.68-.65,2.73,2.73,0,0,0,.38-.86,3.59,3.59,0,0,0,.11-.87,3.68,3.68,0,0,0-.67-2.17,10.47,10.47,0,0,0-1.65-1.82q-1-.87-2.17-1.79a15,15,0,0,1-2.17-2.05,10.61,10.61,0,0,1-1.65-2.62,8.48,8.48,0,0,1-.67-3.5,9.62,9.62,0,0,1,.42-2.87,7,7,0,0,1,1.22-2.34,5.86,5.86,0,0,1,2-1.58,6.87,6.87,0,0,1,5.61,0,5.16,5.16,0,0,1,1.92,1.69,7.73,7.73,0,0,1,1.1,2.6,15.88,15.88,0,0,1,.4,3.34h-4.41q0-.57,0-1.27a6.34,6.34,0,0,0-.21-1.33,2.31,2.31,0,0,0-.59-1,1.54,1.54,0,0,0-1.14-.42,1.59,1.59,0,0,0-1.37.68,3,3,0,0,0-.49,1.79,3.57,3.57,0,0,0,.67,2.09,11,11,0,0,0,1.65,1.84q1,.89,2.17,1.84a15.75,15.75,0,0,1,2.17,2.13,11.36,11.36,0,0,1,1.65,2.66,8.38,8.38,0,0,1,.67,3.46,9.39,9.39,0,0,1-.44,2.91,6.88,6.88,0,0,1-1.29,2.36,6.12,6.12,0,0,1-2.13,1.6,7,7,0,0,1-2.95.59,5.94,5.94,0,0,1-3.21-.78,5.71,5.71,0,0,1-1.94-2,7.94,7.94,0,0,1-.95-2.7,17.5,17.5,0,0,1-.25-2.89Z"/><path class="cls-1" d="M347.15,179.65H342.9v-4.18h13.45v4.18h-4.26v22.88h-4.94Z"/><path class="cls-1" d="M357.57,175.47h5.55a12,12,0,0,1,3.19.4,6.1,6.1,0,0,1,2.47,1.31,6,6,0,0,1,1.6,2.38,9.93,9.93,0,0,1,.57,3.59,13.13,13.13,0,0,1-.13,1.82,8.77,8.77,0,0,1-.47,1.86,7.05,7.05,0,0,1-.89,1.67,4.54,4.54,0,0,1-1.39,1.25L371,202.53h-5l-2.32-11.63h-1.18v11.63h-4.94Zm4.94,11.48h1a2,2,0,0,0,1.16-.32,2.6,2.6,0,0,0,.78-.84,3.77,3.77,0,0,0,.44-1.2,7.41,7.41,0,0,0,.13-1.41,4.42,4.42,0,0,0-.74-3,2.63,2.63,0,0,0-2-.78h-.76Z"/><path class="cls-1" d="M375.75,175.47h7.14l3.34,27.06h-4.75l-.72-6h-4l-.68,6h-4.14Zm3.15,4.18h-.08l-1.56,12.92h3.08Z"/><path class="cls-1" d="M387.67,175.47h4.83L397,189.76h.08V175.47h4v27.06h-3.84l-5.28-16.38h-.08v16.38h-4.18Z"/><path class="cls-1" d="M412.27,185.12q0-.46,0-1.46a12,12,0,0,0-.13-2,5.94,5.94,0,0,0-.53-1.77,1.24,1.24,0,0,0-1.18-.76,1.34,1.34,0,0,0-.85.32,2.68,2.68,0,0,0-.68,1.35,16.62,16.62,0,0,0-.44,3q-.15,1.94-.15,5.21t.15,5.3a15.24,15.24,0,0,0,.46,3,2.45,2.45,0,0,0,.74,1.33,1.72,1.72,0,0,0,1,.3,1.28,1.28,0,0,0,1.1-.61,4.17,4.17,0,0,0,.61-1.42,10.51,10.51,0,0,0,.25-1.65q.06-.83.06-1.33h-1.82v-4h6v12.62h-2.09l-.68-1.79a5.94,5.94,0,0,1-1.6,1.6,3.93,3.93,0,0,1-2.32.72,5.63,5.63,0,0,1-3.33-1,6.58,6.58,0,0,1-2.17-2.75,16.07,16.07,0,0,1-1.18-4.41,43.6,43.6,0,0,1-.36-5.95,33.16,33.16,0,0,1,.55-6.55,15,15,0,0,1,1.5-4.35,6.26,6.26,0,0,1,2.22-2.41,5.38,5.38,0,0,1,2.75-.74,8.43,8.43,0,0,1,2.36.34,4.75,4.75,0,0,1,2.09,1.27,6.8,6.8,0,0,1,1.48,2.58,13.22,13.22,0,0,1,.57,4.24v1.75Z"/><path class="cls-1" d="M419.26,175.47h11.17v4.18H424.2v6.92h4.6V191h-4.6v7.37h6.5v4.18H419.26Z"/><path class="cls-1" d="M432.28,175.47h5.55a12,12,0,0,1,3.19.4,6.1,6.1,0,0,1,2.47,1.31,6,6,0,0,1,1.6,2.38,9.93,9.93,0,0,1,.57,3.59,13.13,13.13,0,0,1-.13,1.82,8.77,8.77,0,0,1-.47,1.86,7.05,7.05,0,0,1-.89,1.67,4.54,4.54,0,0,1-1.39,1.25l2.93,12.77h-5L438.4,190.9h-1.18v11.63h-4.94Zm4.94,11.48h1a2,2,0,0,0,1.16-.32,2.6,2.6,0,0,0,.78-.84,3.77,3.77,0,0,0,.44-1.2,7.41,7.41,0,0,0,.13-1.41,4.42,4.42,0,0,0-.74-3,2.63,2.63,0,0,0-2-.78h-.76Z"/><path class="cls-1" d="M457.4,179.65h-4.26v-4.18H466.6v4.18h-4.26v22.88H457.4Z"/><path class="cls-1" d="M467.81,175.47h4.94v10.87h3.12V175.47h4.94v27.06h-4.94V191.05h-3.12v11.48h-4.94Z"/><path class="cls-1" d="M483.52,175.47h4.94v27.06h-4.94Z"/><path class="cls-1" d="M491.11,175.47h4.83l4.52,14.29h.08V175.47h4v27.06h-3.84l-5.28-16.38h-.08v16.38h-4.18Z"/><path class="cls-1" d="M515.71,185.12q0-.46,0-1.46a12,12,0,0,0-.13-2,5.94,5.94,0,0,0-.53-1.77,1.24,1.24,0,0,0-1.18-.76,1.34,1.34,0,0,0-.85.32,2.68,2.68,0,0,0-.68,1.35,16.62,16.62,0,0,0-.44,3q-.15,1.94-.15,5.21t.15,5.3a15.24,15.24,0,0,0,.46,3,2.45,2.45,0,0,0,.74,1.33,1.72,1.72,0,0,0,1,.3,1.28,1.28,0,0,0,1.1-.61,4.17,4.17,0,0,0,.61-1.42,10.51,10.51,0,0,0,.25-1.65q.06-.83.06-1.33H514.3v-4h6v12.62h-2.09l-.68-1.79a5.94,5.94,0,0,1-1.6,1.6,3.93,3.93,0,0,1-2.32.72,5.63,5.63,0,0,1-3.33-1,6.58,6.58,0,0,1-2.17-2.75,16.07,16.07,0,0,1-1.18-4.41,43.6,43.6,0,0,1-.36-5.95,33.16,33.16,0,0,1,.55-6.55,15,15,0,0,1,1.5-4.35,6.26,6.26,0,0,1,2.22-2.41,5.38,5.38,0,0,1,2.75-.74,8.43,8.43,0,0,1,2.36.34,4.75,4.75,0,0,1,2.09,1.27,6.8,6.8,0,0,1,1.48,2.58,13.22,13.22,0,0,1,.57,4.24v1.75Z"/><path class="cls-1" d="M526.16,194.7c0,.38,0,.81,0,1.29a5.93,5.93,0,0,0,.23,1.37,2.48,2.48,0,0,0,.63,1.08,1.67,1.67,0,0,0,1.24.44,2,2,0,0,0,1-.25A2.11,2.11,0,0,0,530,198a2.73,2.73,0,0,0,.38-.86,3.59,3.59,0,0,0,.11-.87,3.68,3.68,0,0,0-.67-2.17,10.47,10.47,0,0,0-1.65-1.82q-1-.87-2.17-1.79a15,15,0,0,1-2.17-2.05,10.61,10.61,0,0,1-1.65-2.62,8.48,8.48,0,0,1-.67-3.5,9.62,9.62,0,0,1,.42-2.87,7,7,0,0,1,1.22-2.34,5.86,5.86,0,0,1,2-1.58,6.87,6.87,0,0,1,5.61,0,5.16,5.16,0,0,1,1.92,1.69,7.73,7.73,0,0,1,1.1,2.6,15.88,15.88,0,0,1,.4,3.34h-4.41q0-.57,0-1.27a6.34,6.34,0,0,0-.21-1.33,2.31,2.31,0,0,0-.59-1,1.54,1.54,0,0,0-1.14-.42,1.59,1.59,0,0,0-1.37.68,3,3,0,0,0-.49,1.79,3.57,3.57,0,0,0,.67,2.09,11,11,0,0,0,1.65,1.84q1,.89,2.17,1.84a15.75,15.75,0,0,1,2.17,2.13,11.36,11.36,0,0,1,1.65,2.66,8.38,8.38,0,0,1,.67,3.46,9.39,9.39,0,0,1-.44,2.91,6.88,6.88,0,0,1-1.29,2.36,6.12,6.12,0,0,1-2.13,1.6,7,7,0,0,1-2.95.59,5.94,5.94,0,0,1-3.21-.78,5.71,5.71,0,0,1-1.94-2,7.94,7.94,0,0,1-.95-2.7,17.5,17.5,0,0,1-.25-2.89Z"/><path class="cls-1" d="M542.88,199q1.29-2.2,2.7-4.37t2.57-4.27a30.38,30.38,0,0,0,1.9-4.12,11.21,11.21,0,0,0,.74-3.88q0-.53,0-1.16a5.47,5.47,0,0,0-.19-1.16,2.39,2.39,0,0,0-.46-.89,1.08,1.08,0,0,0-.87-.36q-.76,0-1.25,1a10.05,10.05,0,0,0-.53,3.74l-4.18-.38a11.75,11.75,0,0,1,.4-3.1,7.85,7.85,0,0,1,1.2-2.56,5.89,5.89,0,0,1,2-1.75,5.79,5.79,0,0,1,2.79-.65,6,6,0,0,1,2.62.55,5.41,5.41,0,0,1,1.9,1.5,6.73,6.73,0,0,1,1.16,2.22,9,9,0,0,1,.4,2.72,11.27,11.27,0,0,1-.91,4.41,28.06,28.06,0,0,1-2.22,4.22,46.81,46.81,0,0,1-2.77,3.9q-1.46,1.84-2.57,3.44h7.83v4.41h-12.2Z"/><path class="cls-1" d="M567.23,179.65H563v-4.18h13.45v4.18h-4.26v22.88h-4.94Z"/><path class="cls-1" d="M577.65,175.47h4.94v10.87h3.12V175.47h4.94v27.06H585.7V191.05h-3.12v11.48h-4.94Z"/><path class="cls-1" d="M596,175.47h7.14l3.34,27.06h-4.75l-.72-6h-4l-.68,6h-4.14Zm3.15,4.18H599l-1.56,12.92h3.08Z"/><path class="cls-1" d="M609.83,179.65h-4.26v-4.18H619v4.18h-4.26v22.88h-4.94Z"/><path class="cls-1" d="M627.61,175.47h4.29a10.47,10.47,0,0,1,4.92,1,6.48,6.48,0,0,1,2.74,2.74,11.53,11.53,0,0,1,1.18,4.26q.25,2.49.25,5.57,0,2.93-.23,5.42a13,13,0,0,1-1.06,4.29,6.32,6.32,0,0,1-2.49,2.81,8.63,8.63,0,0,1-4.5,1h-5.09Zm4.94,22.88a4.16,4.16,0,0,0,1.82-.32,2.09,2.09,0,0,0,1-1.31,11.07,11.07,0,0,0,.4-2.83q.08-1.84.08-4.92t-.08-4.9a10.74,10.74,0,0,0-.4-2.79,2.08,2.08,0,0,0-1-1.29,4.17,4.17,0,0,0-1.82-.32Z"/><path class="cls-1" d="M643.35,175.47h5.55a12,12,0,0,1,3.19.4,6.1,6.1,0,0,1,2.47,1.31,6,6,0,0,1,1.6,2.38,9.93,9.93,0,0,1,.57,3.59,13.13,13.13,0,0,1-.13,1.82,8.77,8.77,0,0,1-.47,1.86,7.05,7.05,0,0,1-.89,1.67,4.54,4.54,0,0,1-1.39,1.25l2.93,12.77h-5l-2.32-11.63h-1.18v11.63h-4.94Zm4.94,11.48h1a2,2,0,0,0,1.16-.32,2.6,2.6,0,0,0,.78-.84,3.77,3.77,0,0,0,.44-1.2,7.41,7.41,0,0,0,.13-1.41,4.42,4.42,0,0,0-.74-3,2.63,2.63,0,0,0-2-.78h-.76Z"/><path class="cls-1" d="M657.94,189a36.63,36.63,0,0,1,.51-6.69,13.84,13.84,0,0,1,1.46-4.33,5.88,5.88,0,0,1,2.28-2.34,6.6,6.6,0,0,1,5.93,0A5.88,5.88,0,0,1,670.4,178a13.84,13.84,0,0,1,1.46,4.33,43.8,43.8,0,0,1,0,13.38A13.83,13.83,0,0,1,670.4,200a5.88,5.88,0,0,1-2.28,2.34,6.6,6.6,0,0,1-5.93,0,5.88,5.88,0,0,1-2.28-2.34,13.83,13.83,0,0,1-1.46-4.33A36.65,36.65,0,0,1,657.94,189Zm5.4,2.85q0,2.2.13,3.57a12.19,12.19,0,0,0,.36,2.15,2,2,0,0,0,.57,1,1.22,1.22,0,0,0,1.52,0,2,2,0,0,0,.57-1,12.18,12.18,0,0,0,.36-2.15q.13-1.37.13-3.57v-5.7q0-2.2-.13-3.57a11.71,11.71,0,0,0-.36-2.13,2.15,2.15,0,0,0-.57-1,1.15,1.15,0,0,0-1.52,0,2.17,2.17,0,0,0-.57,1,11.73,11.73,0,0,0-.36,2.13q-.13,1.37-.13,3.57Z"/><path class="cls-1" d="M674.52,175.47h4.94q4.18,0,6.35,1.86t2.17,6.23a14.2,14.2,0,0,1-.36,3.33,6.91,6.91,0,0,1-1.16,2.56,5.41,5.41,0,0,1-2,1.65,6.89,6.89,0,0,1-3,.59h-2v10.83h-4.94Zm5,12.27h.42a4.64,4.64,0,0,0,1.33-.17,2,2,0,0,0,1-.63,3.06,3.06,0,0,0,.61-1.25,8.15,8.15,0,0,0,.21-2,7.58,7.58,0,0,0-.27-2.28,2.79,2.79,0,0,0-.7-1.2,1.82,1.82,0,0,0-1-.47,8.88,8.88,0,0,0-1.18-.08h-.38Z"/><path class="cls-1" d="M689.27,175.47h4.94q4.18,0,6.35,1.86t2.17,6.23a14.2,14.2,0,0,1-.36,3.33,6.91,6.91,0,0,1-1.16,2.56,5.41,5.41,0,0,1-2,1.65,6.89,6.89,0,0,1-3,.59h-2v10.83h-4.94Zm5,12.27h.42a4.64,4.64,0,0,0,1.33-.17,2,2,0,0,0,1-.63,3.06,3.06,0,0,0,.61-1.25,8.15,8.15,0,0,0,.21-2,7.58,7.58,0,0,0-.27-2.28,2.79,2.79,0,0,0-.7-1.2,1.82,1.82,0,0,0-1-.47,8.88,8.88,0,0,0-1.18-.08h-.38Z"/><path class="cls-1" d="M704,175.47h11.17v4.18H709v6.92h4.6V191H709v7.37h6.5v4.18H704Z"/><path class="cls-1" d="M717,175.47h4.29a10.47,10.47,0,0,1,4.92,1,6.48,6.48,0,0,1,2.74,2.74,11.53,11.53,0,0,1,1.18,4.26q.25,2.49.25,5.57,0,2.93-.23,5.42a13,13,0,0,1-1.06,4.29,6.32,6.32,0,0,1-2.49,2.81,8.63,8.63,0,0,1-4.5,1H717ZM722,198.35a4.16,4.16,0,0,0,1.82-.32,2.09,2.09,0,0,0,1-1.31,11.07,11.07,0,0,0,.4-2.83q.08-1.84.08-4.92t-.08-4.9a10.74,10.74,0,0,0-.4-2.79,2.08,2.08,0,0,0-1-1.29,4.17,4.17,0,0,0-1.82-.32Z"/><path class="cls-1" d="M6.42,218.47h7.14l3.34,27.06H12.16l-.72-6h-4l-.68,6H2.62Zm3.15,4.18H9.5L7.94,235.57H11Z"/><path class="cls-1" d="M18.44,218.47H24a12,12,0,0,1,3.19.4,6.1,6.1,0,0,1,2.47,1.31,6,6,0,0,1,1.6,2.38,9.93,9.93,0,0,1,.57,3.59,13.13,13.13,0,0,1-.13,1.82,8.77,8.77,0,0,1-.47,1.86,7.05,7.05,0,0,1-.89,1.67,4.54,4.54,0,0,1-1.39,1.25l2.93,12.77h-5L24.56,233.9H23.38v11.63H18.44Zm4.94,11.48h1a2,2,0,0,0,1.16-.32,2.6,2.6,0,0,0,.78-.84,3.77,3.77,0,0,0,.44-1.2,7.41,7.41,0,0,0,.13-1.41,4.42,4.42,0,0,0-.74-3,2.63,2.63,0,0,0-2-.78h-.76Z"/><path class="cls-1" d="M36.62,218.47h7.14l3.34,27.06H42.36l-.72-6h-4l-.68,6H32.82Zm3.15,4.18H39.7l-1.56,12.92h3.08Z"/><path class="cls-1" d="M48.64,218.47h6.08a8.28,8.28,0,0,1,2.32.34A6,6,0,0,1,59.18,220a6.07,6.07,0,0,1,1.6,2.11,7.51,7.51,0,0,1,.63,3.25,7,7,0,0,1-1.06,3.91A5.06,5.06,0,0,1,57,231.35v.08a6.1,6.1,0,0,1,3.74,2.3,7.22,7.22,0,0,1,1.2,4.27,8.41,8.41,0,0,1-.59,3.27,7.08,7.08,0,0,1-1.56,2.36,6.36,6.36,0,0,1-2.22,1.43,7.35,7.35,0,0,1-2.62.47H48.64Zm4.94,11.1a2.9,2.9,0,0,0,2.49-.87,4.66,4.66,0,0,0,.63-2.7,10.58,10.58,0,0,0-.13-1.86,2.13,2.13,0,0,0-.49-1.1,1.74,1.74,0,0,0-1-.49,8.44,8.44,0,0,0-1.52-.11Zm0,12a5.8,5.8,0,0,0,1.79-.23,2.11,2.11,0,0,0,1-.7,2.67,2.67,0,0,0,.47-1.24,12.48,12.48,0,0,0,.11-1.82,9.15,9.15,0,0,0-.13-1.63,2.8,2.8,0,0,0-.51-1.22,2.29,2.29,0,0,0-1-.74,5.07,5.07,0,0,0-1.73-.25Z"/><path class="cls-1" d="M67.55,237.7c0,.38,0,.81,0,1.29a5.93,5.93,0,0,0,.23,1.37,2.48,2.48,0,0,0,.63,1.08,1.67,1.67,0,0,0,1.24.44,2,2,0,0,0,1-.25,2.11,2.11,0,0,0,.68-.65,2.73,2.73,0,0,0,.38-.86,3.59,3.59,0,0,0,.11-.87,3.68,3.68,0,0,0-.67-2.17,10.47,10.47,0,0,0-1.65-1.82q-1-.87-2.17-1.79a15,15,0,0,1-2.17-2.05,10.61,10.61,0,0,1-1.65-2.62,8.48,8.48,0,0,1-.67-3.5,9.62,9.62,0,0,1,.42-2.87,7,7,0,0,1,1.22-2.34,5.86,5.86,0,0,1,2-1.58,6.87,6.87,0,0,1,5.61,0,5.16,5.16,0,0,1,1.92,1.69,7.73,7.73,0,0,1,1.1,2.6,15.88,15.88,0,0,1,.4,3.34H71.16q0-.57,0-1.27a6.34,6.34,0,0,0-.21-1.33,2.31,2.31,0,0,0-.59-1,1.54,1.54,0,0,0-1.14-.42,1.59,1.59,0,0,0-1.37.68,3,3,0,0,0-.49,1.79,3.57,3.57,0,0,0,.67,2.09,11,11,0,0,0,1.65,1.84q1,.89,2.17,1.84A15.75,15.75,0,0,1,74,232.49a11.36,11.36,0,0,1,1.65,2.66,8.38,8.38,0,0,1,.67,3.46,9.39,9.39,0,0,1-.44,2.91,6.88,6.88,0,0,1-1.29,2.36,6.12,6.12,0,0,1-2.13,1.6,7,7,0,0,1-2.95.59,5.94,5.94,0,0,1-3.21-.78,5.71,5.71,0,0,1-1.94-2,7.94,7.94,0,0,1-.95-2.7,17.5,17.5,0,0,1-.25-2.89Z"/><path class="cls-1" d="M85.6,218.47h4.94v10.87h3.12V218.47H98.6v27.06H93.66V234.05H90.54v11.48H85.6Z"/><path class="cls-1" d="M101.41,218.47h11.17v4.18h-6.23v6.92h4.6V234h-4.6v7.37h6.5v4.18H101.41Z"/><path class="cls-1" d="M117.58,218.47h7.14l3.34,27.06h-4.75l-.72-6h-4l-.68,6h-4.14Zm3.15,4.18h-.08l-1.56,12.92h3.08Z"/><path class="cls-1" d="M129.59,218.47h4.29a10.47,10.47,0,0,1,4.92,1,6.48,6.48,0,0,1,2.74,2.74,11.53,11.53,0,0,1,1.18,4.26q.25,2.49.25,5.57,0,2.93-.23,5.42a13,13,0,0,1-1.06,4.29,6.32,6.32,0,0,1-2.49,2.81,8.63,8.63,0,0,1-4.5,1h-5.09Zm4.94,22.88a4.16,4.16,0,0,0,1.82-.32,2.09,2.09,0,0,0,1-1.31,11.07,11.07,0,0,0,.4-2.83q.08-1.84.08-4.92t-.08-4.9a10.74,10.74,0,0,0-.4-2.79,2.08,2.08,0,0,0-1-1.29,4.17,4.17,0,0,0-1.82-.32Z"/><path class="cls-1" d="M153.15,218.47h11.06v4.18h-6.12v7.22h4.52v4.41h-4.52v11.25h-4.94Z"/><path class="cls-1" d="M165.52,218.47h4.94v27.06h-4.94Z"/><path class="cls-1" d="M173.2,218.47h5.55a12,12,0,0,1,3.19.4,6.1,6.1,0,0,1,2.47,1.31,6,6,0,0,1,1.6,2.38,9.93,9.93,0,0,1,.57,3.59,13.13,13.13,0,0,1-.13,1.82,8.77,8.77,0,0,1-.47,1.86,7.05,7.05,0,0,1-.89,1.67,4.54,4.54,0,0,1-1.39,1.25l2.93,12.77h-5l-2.32-11.63h-1.18v11.63H173.2Zm4.94,11.48h1a2,2,0,0,0,1.16-.32,2.6,2.6,0,0,0,.78-.84,3.77,3.77,0,0,0,.44-1.2,7.41,7.41,0,0,0,.13-1.41,4.42,4.42,0,0,0-.74-3,2.63,2.63,0,0,0-2-.78h-.76Z"/><path class="cls-1" d="M192.26,237.7c0,.38,0,.81,0,1.29a5.93,5.93,0,0,0,.23,1.37,2.48,2.48,0,0,0,.63,1.08,1.67,1.67,0,0,0,1.24.44,2,2,0,0,0,1-.25,2.11,2.11,0,0,0,.68-.65,2.73,2.73,0,0,0,.38-.86,3.59,3.59,0,0,0,.11-.87,3.68,3.68,0,0,0-.67-2.17,10.47,10.47,0,0,0-1.65-1.82q-1-.87-2.17-1.79a15,15,0,0,1-2.17-2.05,10.61,10.61,0,0,1-1.65-2.62,8.48,8.48,0,0,1-.67-3.5,9.62,9.62,0,0,1,.42-2.87,7,7,0,0,1,1.22-2.34,5.86,5.86,0,0,1,2-1.58,6.87,6.87,0,0,1,5.61,0,5.16,5.16,0,0,1,1.92,1.69,7.73,7.73,0,0,1,1.1,2.6,15.88,15.88,0,0,1,.4,3.34h-4.41q0-.57,0-1.27a6.34,6.34,0,0,0-.21-1.33,2.31,2.31,0,0,0-.59-1,1.54,1.54,0,0,0-1.14-.42,1.59,1.59,0,0,0-1.37.68,3,3,0,0,0-.49,1.79,3.57,3.57,0,0,0,.67,2.09,11,11,0,0,0,1.65,1.84q1,.89,2.17,1.84a15.75,15.75,0,0,1,2.17,2.13,11.36,11.36,0,0,1,1.65,2.66,8.38,8.38,0,0,1,.67,3.46,9.39,9.39,0,0,1-.44,2.91,6.88,6.88,0,0,1-1.29,2.36,6.12,6.12,0,0,1-2.13,1.6,7,7,0,0,1-2.95.59,5.94,5.94,0,0,1-3.21-.78,5.71,5.71,0,0,1-1.94-2,7.94,7.94,0,0,1-.95-2.7,17.5,17.5,0,0,1-.25-2.89Z"/><path class="cls-1" d="M205.34,222.65h-4.26v-4.18h13.45v4.18h-4.26v22.88h-4.94Z"/><path class="cls-1" d="M222.94,218.47h4.94v27.06h-4.94Z"/><path class="cls-1" d="M230.52,218.47h4.83l4.52,14.29h.08V218.47h4v27.06h-3.84l-5.28-16.38h-.08v16.38h-4.18Z"/><path class="cls-1" d="M249.3,222.65H245v-4.18H258.5v4.18h-4.26v22.88H249.3Z"/><path class="cls-1" d="M258.84,232a36.63,36.63,0,0,1,.51-6.69,13.84,13.84,0,0,1,1.46-4.33,5.88,5.88,0,0,1,2.28-2.34,6.6,6.6,0,0,1,5.93,0A5.88,5.88,0,0,1,271.3,221a13.84,13.84,0,0,1,1.46,4.33,43.8,43.8,0,0,1,0,13.38A13.83,13.83,0,0,1,271.3,243a5.88,5.88,0,0,1-2.28,2.34,6.6,6.6,0,0,1-5.93,0,5.88,5.88,0,0,1-2.28-2.34,13.83,13.83,0,0,1-1.46-4.33A36.65,36.65,0,0,1,258.84,232Zm5.4,2.85q0,2.2.13,3.57a12.19,12.19,0,0,0,.36,2.15,2,2,0,0,0,.57,1,1.22,1.22,0,0,0,1.52,0,2,2,0,0,0,.57-1,12.18,12.18,0,0,0,.36-2.15q.13-1.37.13-3.57v-5.7q0-2.2-.13-3.57a11.71,11.71,0,0,0-.36-2.13,2.15,2.15,0,0,0-.57-1,1.15,1.15,0,0,0-1.52,0,2.17,2.17,0,0,0-.57,1,11.73,11.73,0,0,0-.36,2.13q-.13,1.37-.13,3.57Z"/><path class="cls-1" d="M285.4,222.65h-4.26v-4.18h13.45v4.18h-4.26v22.88H285.4Z"/><path class="cls-1" d="M295.81,218.47h4.94v10.87h3.12V218.47h4.94v27.06h-4.94V234.05h-3.12v11.48h-4.94Z"/><path class="cls-1" d="M311.61,218.47h11.17v4.18h-6.23v6.92h4.6V234h-4.6v7.37h6.5v4.18H311.61Z"/><path class="cls-1" d="M332.17,218.47h6.57l2.2,13.87H341l2.32-13.87h6.42v27.06h-4.41V225.69h-.08l-3.34,19.84H339.2l-3.31-19.84h-.08v19.84h-3.65Z"/><path class="cls-1" d="M352.39,218.47h4.94v27.06h-4.94Z"/><path class="cls-1" d="M360,218.47h4.83l4.52,14.29h.08V218.47h4v27.06h-3.84l-5.28-16.38h-.08v16.38H360Z"/><path class="cls-1" d="M376.08,218.47h4.29a10.47,10.47,0,0,1,4.92,1,6.48,6.48,0,0,1,2.74,2.74,11.53,11.53,0,0,1,1.18,4.26q.25,2.49.25,5.57,0,2.93-.23,5.42a13,13,0,0,1-1.06,4.29,6.32,6.32,0,0,1-2.49,2.81,8.63,8.63,0,0,1-4.5,1h-5.09ZM381,241.35a4.16,4.16,0,0,0,1.82-.32,2.09,2.09,0,0,0,1-1.31,11.07,11.07,0,0,0,.4-2.83q.08-1.84.08-4.92t-.08-4.9a10.74,10.74,0,0,0-.4-2.79,2.08,2.08,0,0,0-1-1.29,4.17,4.17,0,0,0-1.82-.32Z"/><path class="cls-1" d="M391.52,233.44H399v3.65h-7.52Z"/><path class="cls-1" d="M401.39,218.47h6.08a8.28,8.28,0,0,1,2.32.34,6,6,0,0,1,2.15,1.14,6.07,6.07,0,0,1,1.6,2.11,7.51,7.51,0,0,1,.63,3.25,7,7,0,0,1-1.06,3.91,5.06,5.06,0,0,1-3.34,2.13v.08a6.1,6.1,0,0,1,3.74,2.3,7.22,7.22,0,0,1,1.2,4.27,8.41,8.41,0,0,1-.59,3.27,7.08,7.08,0,0,1-1.56,2.36,6.36,6.36,0,0,1-2.22,1.43,7.35,7.35,0,0,1-2.62.47h-6.31Zm4.94,11.1a2.9,2.9,0,0,0,2.49-.87,4.66,4.66,0,0,0,.63-2.7,10.58,10.58,0,0,0-.13-1.86,2.13,2.13,0,0,0-.49-1.1,1.74,1.74,0,0,0-1-.49,8.44,8.44,0,0,0-1.52-.11Zm0,12a5.8,5.8,0,0,0,1.79-.23,2.11,2.11,0,0,0,1-.7,2.67,2.67,0,0,0,.47-1.24,12.48,12.48,0,0,0,.11-1.82,9.15,9.15,0,0,0-.13-1.63,2.8,2.8,0,0,0-.51-1.22,2.29,2.29,0,0,0-1-.74,5.07,5.07,0,0,0-1.73-.25Z"/><path class="cls-1" d="M416.52,218.47h11.17v4.18h-6.23v6.92h4.6V234h-4.6v7.37H428v4.18H416.52Z"/><path class="cls-1" d="M429.45,218.47h4.83l4.52,14.29h.08V218.47h4v27.06H439l-5.28-16.38h-.08v16.38h-4.18Z"/><path class="cls-1" d="M445.56,218.47h4.29a10.47,10.47,0,0,1,4.92,1,6.48,6.48,0,0,1,2.74,2.74,11.53,11.53,0,0,1,1.18,4.26q.25,2.49.25,5.57,0,2.93-.23,5.42a13,13,0,0,1-1.06,4.29,6.32,6.32,0,0,1-2.49,2.81,8.63,8.63,0,0,1-4.5,1h-5.09Zm4.94,22.88a4.16,4.16,0,0,0,1.82-.32,2.09,2.09,0,0,0,1-1.31,11.07,11.07,0,0,0,.4-2.83q.08-1.84.08-4.92t-.08-4.9a10.74,10.74,0,0,0-.4-2.79,2.08,2.08,0,0,0-1-1.29,4.17,4.17,0,0,0-1.82-.32Z"/><path class="cls-1" d="M461.23,218.47h4.94v27.06h-4.94Z"/><path class="cls-1" d="M468.82,218.47h4.83l4.52,14.29h.08V218.47h4v27.06h-3.84l-5.28-16.38H473v16.38h-4.18Z"/><path class="cls-1" d="M493.42,228.12q0-.46,0-1.46a12,12,0,0,0-.13-2,5.94,5.94,0,0,0-.53-1.77,1.24,1.24,0,0,0-1.18-.76,1.34,1.34,0,0,0-.85.32,2.68,2.68,0,0,0-.68,1.35,16.62,16.62,0,0,0-.44,3q-.15,1.94-.15,5.21t.15,5.3a15.24,15.24,0,0,0,.46,3,2.45,2.45,0,0,0,.74,1.33,1.72,1.72,0,0,0,1,.3,1.28,1.28,0,0,0,1.1-.61,4.17,4.17,0,0,0,.61-1.42,10.51,10.51,0,0,0,.25-1.65q.06-.83.06-1.33H492v-4h6v12.62h-2.09l-.68-1.79a5.94,5.94,0,0,1-1.6,1.6,3.93,3.93,0,0,1-2.32.72,5.63,5.63,0,0,1-3.33-1,6.58,6.58,0,0,1-2.17-2.75,16.07,16.07,0,0,1-1.18-4.41,43.6,43.6,0,0,1-.36-5.95,33.16,33.16,0,0,1,.55-6.55,15,15,0,0,1,1.5-4.35,6.26,6.26,0,0,1,2.22-2.41,5.38,5.38,0,0,1,2.75-.74,8.43,8.43,0,0,1,2.36.34,4.75,4.75,0,0,1,2.09,1.27,6.8,6.8,0,0,1,1.48,2.58,13.22,13.22,0,0,1,.57,4.24v1.75Z"/><path class="cls-1" d="M510.14,222.65h-4.26v-4.18h13.45v4.18h-4.26v22.88h-4.94Z"/><path class="cls-1" d="M519.86,218.47h4.48l1.75,15.88h.08l2.36-15.88H533l2.17,15.88h.08l1.94-15.88h3.53l-3.53,27.06h-4.48l-2.36-17.14h-.08l-2.43,17.14h-4.33Z"/><path class="cls-1" d="M542.09,218.47H547v27.06h-4.94Z"/><path class="cls-1" d="M553.39,237.7c0,.38,0,.81,0,1.29a5.93,5.93,0,0,0,.23,1.37,2.48,2.48,0,0,0,.63,1.08,1.67,1.67,0,0,0,1.24.44,2,2,0,0,0,1-.25,2.11,2.11,0,0,0,.68-.65,2.73,2.73,0,0,0,.38-.86,3.59,3.59,0,0,0,.11-.87,3.68,3.68,0,0,0-.67-2.17,10.47,10.47,0,0,0-1.65-1.82q-1-.87-2.17-1.79a15,15,0,0,1-2.17-2.05,10.61,10.61,0,0,1-1.65-2.62,8.48,8.48,0,0,1-.67-3.5,9.62,9.62,0,0,1,.42-2.87,7,7,0,0,1,1.22-2.34,5.86,5.86,0,0,1,2-1.58,6.87,6.87,0,0,1,5.61,0,5.16,5.16,0,0,1,1.92,1.69,7.73,7.73,0,0,1,1.1,2.6,15.88,15.88,0,0,1,.4,3.34H557q0-.57,0-1.27a6.34,6.34,0,0,0-.21-1.33,2.31,2.31,0,0,0-.59-1,1.54,1.54,0,0,0-1.14-.42,1.59,1.59,0,0,0-1.37.68,3,3,0,0,0-.49,1.79,3.57,3.57,0,0,0,.67,2.09,11,11,0,0,0,1.65,1.84q1,.89,2.17,1.84a15.75,15.75,0,0,1,2.17,2.13,11.36,11.36,0,0,1,1.65,2.66,8.38,8.38,0,0,1,.67,3.46,9.39,9.39,0,0,1-.44,2.91,6.88,6.88,0,0,1-1.29,2.36,6.12,6.12,0,0,1-2.13,1.6,7,7,0,0,1-2.95.59,5.94,5.94,0,0,1-3.21-.78,5.71,5.71,0,0,1-1.94-2,7.94,7.94,0,0,1-.95-2.7,17.5,17.5,0,0,1-.25-2.89Z"/><path class="cls-1" d="M566.47,222.65h-4.26v-4.18h13.45v4.18h-4.26v22.88h-4.94Z"/><path class="cls-1" d="M580.8,237.7c0,.38,0,.81,0,1.29a5.93,5.93,0,0,0,.23,1.37,2.48,2.48,0,0,0,.63,1.08,1.67,1.67,0,0,0,1.24.44,2,2,0,0,0,1-.25,2.11,2.11,0,0,0,.68-.65,2.73,2.73,0,0,0,.38-.86,3.59,3.59,0,0,0,.11-.87,3.68,3.68,0,0,0-.67-2.17,10.47,10.47,0,0,0-1.65-1.82q-1-.87-2.17-1.79a15,15,0,0,1-2.17-2.05,10.61,10.61,0,0,1-1.65-2.62,8.48,8.48,0,0,1-.67-3.5,9.62,9.62,0,0,1,.42-2.87,7,7,0,0,1,1.22-2.34,5.86,5.86,0,0,1,2-1.58,6.87,6.87,0,0,1,5.61,0,5.16,5.16,0,0,1,1.92,1.69,7.73,7.73,0,0,1,1.1,2.6,15.88,15.88,0,0,1,.4,3.34h-4.41q0-.57,0-1.27a6.34,6.34,0,0,0-.21-1.33,2.31,2.31,0,0,0-.59-1,1.54,1.54,0,0,0-1.14-.42,1.59,1.59,0,0,0-1.37.68,3,3,0,0,0-.49,1.79,3.57,3.57,0,0,0,.67,2.09,11,11,0,0,0,1.65,1.84q1,.89,2.17,1.84a15.75,15.75,0,0,1,2.17,2.13,11.36,11.36,0,0,1,1.65,2.66,8.38,8.38,0,0,1,.67,3.46,9.39,9.39,0,0,1-.44,2.91,6.88,6.88,0,0,1-1.29,2.36,6.12,6.12,0,0,1-2.13,1.6,7,7,0,0,1-2.95.59,5.94,5.94,0,0,1-3.21-.78,5.71,5.71,0,0,1-1.94-2,7.94,7.94,0,0,1-.95-2.7,17.5,17.5,0,0,1-.25-2.89Z"/><path class="cls-1" d="M598.13,232a36.63,36.63,0,0,1,.51-6.69,13.84,13.84,0,0,1,1.46-4.33,5.88,5.88,0,0,1,2.28-2.34,6.6,6.6,0,0,1,5.93,0A5.88,5.88,0,0,1,610.6,221a13.84,13.84,0,0,1,1.46,4.33,43.8,43.8,0,0,1,0,13.38A13.83,13.83,0,0,1,610.6,243a5.88,5.88,0,0,1-2.28,2.34,6.6,6.6,0,0,1-5.93,0,5.88,5.88,0,0,1-2.28-2.34,13.83,13.83,0,0,1-1.46-4.33A36.65,36.65,0,0,1,598.13,232Zm5.4,2.85q0,2.2.13,3.57a12.19,12.19,0,0,0,.36,2.15,2,2,0,0,0,.57,1,1.22,1.22,0,0,0,1.52,0,2,2,0,0,0,.57-1,12.18,12.18,0,0,0,.36-2.15q.13-1.37.13-3.57v-5.7q0-2.2-.13-3.57a11.71,11.71,0,0,0-.36-2.13,2.15,2.15,0,0,0-.57-1,1.15,1.15,0,0,0-1.52,0,2.17,2.17,0,0,0-.57,1,11.73,11.73,0,0,0-.36,2.13q-.13,1.37-.13,3.57Z"/><path class="cls-1" d="M614.72,218.47h11.06v4.18h-6.12v7.22h4.52v4.41h-4.52v11.25h-4.94Z"/><path class="cls-1" d="M637,222.65h-4.26v-4.18h13.45v4.18H642v22.88H637Z"/><path class="cls-1" d="M647.44,218.47h4.94v10.87h3.12V218.47h4.94v27.06h-4.94V234.05h-3.12v11.48h-4.94Z"/><path class="cls-1" d="M663.24,218.47h11.17v4.18h-6.23v6.92h4.6V234h-4.6v7.37h6.5v4.18H663.24Z"/><path class="cls-1" d="M687.37,237.7c0,.38,0,.81,0,1.29a5.93,5.93,0,0,0,.23,1.37,2.48,2.48,0,0,0,.63,1.08,1.67,1.67,0,0,0,1.24.44,2,2,0,0,0,1-.25,2.11,2.11,0,0,0,.68-.65,2.73,2.73,0,0,0,.38-.86,3.59,3.59,0,0,0,.11-.87,3.68,3.68,0,0,0-.67-2.17,10.47,10.47,0,0,0-1.65-1.82q-1-.87-2.17-1.79a15,15,0,0,1-2.17-2.05,10.61,10.61,0,0,1-1.65-2.62,8.48,8.48,0,0,1-.67-3.5,9.62,9.62,0,0,1,.42-2.87,7,7,0,0,1,1.22-2.34,5.86,5.86,0,0,1,2-1.58,6.87,6.87,0,0,1,5.61,0,5.16,5.16,0,0,1,1.92,1.69,7.73,7.73,0,0,1,1.1,2.6,15.88,15.88,0,0,1,.4,3.34H691q0-.57,0-1.27a6.34,6.34,0,0,0-.21-1.33,2.31,2.31,0,0,0-.59-1,1.54,1.54,0,0,0-1.14-.42,1.59,1.59,0,0,0-1.37.68,3,3,0,0,0-.49,1.79,3.57,3.57,0,0,0,.67,2.09,11,11,0,0,0,1.65,1.84q1,.89,2.17,1.84a15.75,15.75,0,0,1,2.17,2.13,11.36,11.36,0,0,1,1.65,2.66,8.38,8.38,0,0,1,.67,3.46,9.39,9.39,0,0,1-.44,2.91,6.88,6.88,0,0,1-1.29,2.36,6.12,6.12,0,0,1-2.13,1.6,7,7,0,0,1-2.95.59,5.94,5.94,0,0,1-3.21-.78,5.71,5.71,0,0,1-1.94-2,7.94,7.94,0,0,1-.95-2.7,17.5,17.5,0,0,1-.25-2.89Z"/><path class="cls-1" d="M697.76,218.47h4.94v10.87h3.12V218.47h4.94v27.06h-4.94V234.05H702.7v11.48h-4.94Z"/><path class="cls-1" d="M712.94,232a36.63,36.63,0,0,1,.51-6.69,13.84,13.84,0,0,1,1.46-4.33,5.88,5.88,0,0,1,2.28-2.34,6.6,6.6,0,0,1,5.93,0A5.88,5.88,0,0,1,725.4,221a13.84,13.84,0,0,1,1.46,4.33,43.8,43.8,0,0,1,0,13.38A13.83,13.83,0,0,1,725.4,243a5.88,5.88,0,0,1-2.28,2.34,6.6,6.6,0,0,1-5.93,0,5.88,5.88,0,0,1-2.28-2.34,13.83,13.83,0,0,1-1.46-4.33A36.65,36.65,0,0,1,712.94,232Zm5.4,2.85q0,2.2.13,3.57a12.19,12.19,0,0,0,.36,2.15,2,2,0,0,0,.57,1,1.22,1.22,0,0,0,1.52,0,2,2,0,0,0,.57-1,12.18,12.18,0,0,0,.36-2.15q.13-1.37.13-3.57v-5.7q0-2.2-.13-3.57a11.71,11.71,0,0,0-.36-2.13,2.15,2.15,0,0,0-.57-1,1.15,1.15,0,0,0-1.52,0,2.17,2.17,0,0,0-.57,1,11.73,11.73,0,0,0-.36,2.13q-.13,1.37-.13,3.57Z"/><path class="cls-1" d="M727.92,218.47h4.48l1.75,15.88h.08l2.36-15.88H741l2.17,15.88h.08l1.94-15.88h3.53l-3.53,27.06h-4.48l-2.36-17.14h-.08l-2.43,17.14h-4.33Z"/><path class="cls-1" d="M749.13,240.59h4.94v4.94h-4.94Z"/></g></g></svg>