<svg xmlns="http://www.w3.org/2000/svg" viewBox="0 0 122.39 58.56"><defs><style>.cls-1{fill:#fff;}</style></defs><title>Text_netflix_anime</title><g id="Layer_2" data-name="Layer 2"><g id="Layer_1-2" data-name="Layer 1"><rect class="cls-1" x="0.12" width="36.13" height="4"/><path class="cls-1" d="M.1,8.9H2l1.79,5.64h0V8.9H5.38V19.58H3.86L1.78,13.11h0v6.46H.1Z"/><path class="cls-1" d="M6.55,8.9H11v1.65H8.5v2.73h1.81V15H8.5v2.91h2.56v1.65H6.55Z"/><path class="cls-1" d="M13,10.55H11.34V8.9h5.31v1.65H15v9H13Z"/><path class="cls-1" d="M17.21,8.9h4.37v1.65H19.16V13.4h1.79v1.74H19.16v4.44h-2Z"/><path class="cls-1" d="M22.22,8.9h2v9h2.49v1.65H22.22Z"/><path class="cls-1" d="M27.37,8.9h2V19.58h-2Z"/><path class="cls-1" d="M31.6,14.13,29.89,8.9h2l.81,2.86h0L33.4,8.9h1.67l-1.59,5,1.89,5.71h-2l-.95-3.21h0l-.9,3.21H29.88Z"/><path class="cls-1" d="M.1,23.9H2V34.58H.1Z"/><path class="cls-1" d="M3.18,23.9H5.08l1.79,5.64h0V23.9H8.46V34.58H6.94L4.86,28.11h0v6.46H3.18Z"/><path class="cls-1" d="M9.59,23.9h1.91l1.79,5.64h0V23.9h1.56V34.58H13.35l-2.08-6.46h0v6.46H9.59Z"/><path class="cls-1" d="M16,23.9h4.41v1.65H18v2.73H19.8V30H18v2.91h2.56v1.65H16Z"/><path class="cls-1" d="M21.26,23.9h2.19a4.7,4.7,0,0,1,1.26.16,2.3,2.3,0,0,1,1.6,1.46,3.91,3.91,0,0,1,.23,1.42,5.18,5.18,0,0,1-.05.72,3.45,3.45,0,0,1-.19.73A2.79,2.79,0,0,1,26,29a1.78,1.78,0,0,1-.55.5l1.16,5h-2L23.68,30h-.46v4.59h-2Zm2,4.53h.39a.79.79,0,0,0,.46-.13,1,1,0,0,0,.31-.33,1.5,1.5,0,0,0,.17-.47,2.89,2.89,0,0,0,.05-.55,1.75,1.75,0,0,0-.29-1.18,1,1,0,0,0-.79-.31h-.3Z"/><path class="cls-1" d="M29.71,23.9h1.91l.92,7.5h0l1-7.5h1.58L33.53,34.58H31.3Z"/><path class="cls-1" d="M35.4,29.24a14.4,14.4,0,0,1,.2-2.64,5.47,5.47,0,0,1,.58-1.71,2.31,2.31,0,0,1,.9-.92,2.61,2.61,0,0,1,2.34,0,2.32,2.32,0,0,1,.9.92,5.49,5.49,0,0,1,.58,1.71,14.5,14.5,0,0,1,.2,2.64,14.48,14.48,0,0,1-.2,2.64,5.47,5.47,0,0,1-.58,1.71,2.31,2.31,0,0,1-.9.92,2.61,2.61,0,0,1-2.34,0,2.31,2.31,0,0,1-.9-.92,5.45,5.45,0,0,1-.58-1.71A14.38,14.38,0,0,1,35.4,29.24Zm2.13,1.13q0,.87.05,1.41a4.89,4.89,0,0,0,.14.85.81.81,0,0,0,.22.41.48.48,0,0,0,.6,0,.8.8,0,0,0,.22-.41,4.79,4.79,0,0,0,.14-.85q.05-.54.05-1.41V28.11q0-.87-.05-1.41a4.59,4.59,0,0,0-.14-.84.85.85,0,0,0-.22-.41.46.46,0,0,0-.6,0,.86.86,0,0,0-.22.41,4.68,4.68,0,0,0-.14.84q-.05.54-.05,1.41Z"/><path class="cls-1" d="M42,23.9h2V34.58H42Z"/><path class="cls-1" d="M48.44,27.77a7.05,7.05,0,0,0-.17-1.88q-.17-.55-.53-.55a.55.55,0,0,0-.3.1.87.87,0,0,0-.26.49A6.57,6.57,0,0,0,47,27.09q-.07.78-.07,2.15t0,2.09a7.87,7.87,0,0,0,.14,1.18.86.86,0,0,0,.25.52.64.64,0,0,0,.38.11q.48,0,.64-.68a9.65,9.65,0,0,0,.19-1.85l1.65.07a14,14,0,0,1-.08,1.43,4.2,4.2,0,0,1-.34,1.32,2.51,2.51,0,0,1-.77,1,2.19,2.19,0,0,1-1.36.38,2.22,2.22,0,0,1-1.31-.37,2.59,2.59,0,0,1-.86-1.09A6.35,6.35,0,0,1,45,31.58a17.3,17.3,0,0,1-.14-2.35,13,13,0,0,1,.22-2.59,5.89,5.89,0,0,1,.59-1.72,2.48,2.48,0,0,1,.88-1,2.12,2.12,0,0,1,1.09-.29A2.3,2.3,0,0,1,49,24a2.25,2.25,0,0,1,.76.92,4.11,4.11,0,0,1,.34,1.29,14.11,14.11,0,0,1,.07,1.46Z"/><path class="cls-1" d="M51.17,23.9h4.41v1.65H53.12v2.73h1.81V30H53.12v2.91h2.56v1.65H51.17Z"/><path class="cls-1" d="M0,41.68H1.17v2.57h.74V41.68H3.08v6.41H1.91V45.37H1.17v2.72H0Z"/><path class="cls-1" d="M3.75,44.89a8.68,8.68,0,0,1,.12-1.58,3.29,3.29,0,0,1,.35-1,1.4,1.4,0,0,1,.54-.55,1.56,1.56,0,0,1,1.4,0,1.4,1.4,0,0,1,.54.55,3.29,3.29,0,0,1,.35,1,8.68,8.68,0,0,1,.12,1.58,8.67,8.67,0,0,1-.12,1.58,3.28,3.28,0,0,1-.35,1,1.39,1.39,0,0,1-.54.55,1.56,1.56,0,0,1-1.4,0,1.39,1.39,0,0,1-.54-.55,3.28,3.28,0,0,1-.35-1A8.67,8.67,0,0,1,3.75,44.89ZM5,45.56c0,.35,0,.63,0,.85a2.94,2.94,0,0,0,.08.51.48.48,0,0,0,.14.25.29.29,0,0,0,.36,0,.48.48,0,0,0,.14-.25,2.94,2.94,0,0,0,.08-.51c0-.21,0-.5,0-.85V44.21c0-.35,0-.63,0-.85a2.79,2.79,0,0,0-.08-.5.5.5,0,0,0-.14-.25.27.27,0,0,0-.36,0,.5.5,0,0,0-.14.25,2.79,2.79,0,0,0-.08.5c0,.22,0,.5,0,.85Z"/><path class="cls-1" d="M7.47,41.68H8.53l.41,3.76H9l.56-3.76h1.05l.51,3.76h0l.46-3.76h.84l-.84,6.41H10.5L9.94,44h0l-.58,4.06h-1Z"/><path class="cls-1" d="M14.56,41.68h1a2.48,2.48,0,0,1,1.17.23,1.54,1.54,0,0,1,.65.65,2.73,2.73,0,0,1,.28,1q.06.59.06,1.32t-.05,1.28a3.09,3.09,0,0,1-.25,1,1.5,1.5,0,0,1-.59.67,2,2,0,0,1-1.07.24H14.56Zm1.17,5.42a1,1,0,0,0,.43-.08.5.5,0,0,0,.23-.31,2.62,2.62,0,0,0,.09-.67q0-.44,0-1.17t0-1.16a2.53,2.53,0,0,0-.09-.66.5.5,0,0,0-.23-.31,1,1,0,0,0-.43-.08Z"/><path class="cls-1" d="M18.3,44.89a8.68,8.68,0,0,1,.12-1.58,3.29,3.29,0,0,1,.35-1,1.4,1.4,0,0,1,.54-.55,1.56,1.56,0,0,1,1.4,0,1.4,1.4,0,0,1,.54.55,3.29,3.29,0,0,1,.35,1,10.42,10.42,0,0,1,0,3.17,3.28,3.28,0,0,1-.35,1,1.39,1.39,0,0,1-.54.55,1.56,1.56,0,0,1-1.4,0,1.39,1.39,0,0,1-.54-.55,3.28,3.28,0,0,1-.35-1A8.67,8.67,0,0,1,18.3,44.89Zm1.28.67c0,.35,0,.63,0,.85a2.94,2.94,0,0,0,.08.51.48.48,0,0,0,.14.25.29.29,0,0,0,.36,0,.48.48,0,0,0,.14-.25,2.94,2.94,0,0,0,.08-.51c0-.21,0-.5,0-.85V44.21c0-.35,0-.63,0-.85a2.79,2.79,0,0,0-.08-.5.5.5,0,0,0-.14-.25.27.27,0,0,0-.36,0,.5.5,0,0,0-.14.25,2.79,2.79,0,0,0-.08.5c0,.22,0,.5,0,.85Z"/><path class="cls-1" d="M24.59,45.62l-1.07-3.93h1.16l.56,2.51h0l.59-2.51h1l-1.07,3.83v2.58H24.59Z"/><path class="cls-1" d="M26.91,44.89A8.68,8.68,0,0,1,27,43.3a3.29,3.29,0,0,1,.35-1,1.4,1.4,0,0,1,.54-.55,1.56,1.56,0,0,1,1.4,0,1.4,1.4,0,0,1,.54.55,3.29,3.29,0,0,1,.35,1,10.42,10.42,0,0,1,0,3.17,3.28,3.28,0,0,1-.35,1,1.39,1.39,0,0,1-.54.55,1.56,1.56,0,0,1-1.4,0,1.39,1.39,0,0,1-.54-.55,3.28,3.28,0,0,1-.35-1A8.67,8.67,0,0,1,26.91,44.89Zm1.28.67c0,.35,0,.63,0,.85a2.94,2.94,0,0,0,.08.51.48.48,0,0,0,.14.25.29.29,0,0,0,.36,0,.48.48,0,0,0,.14-.25,2.94,2.94,0,0,0,.08-.51c0-.21,0-.5,0-.85V44.21c0-.35,0-.63,0-.85a2.79,2.79,0,0,0-.08-.5.5.5,0,0,0-.14-.25.27.27,0,0,0-.36,0,.5.5,0,0,0-.14.25,2.79,2.79,0,0,0-.08.5c0,.22,0,.5,0,.85Z"/><path class="cls-1" d="M31,41.68h1.17v5a1.68,1.68,0,0,0,0,.21.54.54,0,0,0,.06.19.33.33,0,0,0,.13.13.39.39,0,0,0,.21.05.35.35,0,0,0,.34-.18.85.85,0,0,0,.09-.41v-5h1v4.81a1.84,1.84,0,0,1-.4,1.34,1.49,1.49,0,0,1-1.1.39,1.87,1.87,0,0,1-.62-.09,1.19,1.19,0,0,1-.47-.3,1.34,1.34,0,0,1-.31-.53,2.59,2.59,0,0,1-.11-.8Z"/><path class="cls-1" d="M37,42.67H36v-1h3.19v1h-1v5.42H37Z"/><path class="cls-1" d="M40,41.68h1.69l.79,6.41H41.32l-.17-1.42H40.2L40,48.09h-1Zm.75,1h0l-.37,3.06H41Z"/><path class="cls-1" d="M43,41.68h1.31a2.82,2.82,0,0,1,.76.09,1.46,1.46,0,0,1,.58.31,1.42,1.42,0,0,1,.38.56,2.36,2.36,0,0,1,.13.85,3.2,3.2,0,0,1,0,.43,2.12,2.12,0,0,1-.11.44,1.73,1.73,0,0,1-.21.4,1.09,1.09,0,0,1-.33.3l.69,3H45l-.55-2.75h-.28v2.75H43Zm1.17,2.72h.23a.47.47,0,0,0,.27-.08.6.6,0,0,0,.18-.2.89.89,0,0,0,.1-.28,1.77,1.77,0,0,0,0-.33,1,1,0,0,0-.18-.71.62.62,0,0,0-.47-.19h-.18Z"/><path class="cls-1" d="M48.73,44c0-.07,0-.19,0-.35a2.79,2.79,0,0,0,0-.48,1.38,1.38,0,0,0-.13-.42.29.29,0,0,0-.28-.18.31.31,0,0,0-.2.08.63.63,0,0,0-.16.32,4,4,0,0,0-.1.7c0,.3,0,.72,0,1.23s0,.95,0,1.26a3.67,3.67,0,0,0,.11.71.58.58,0,0,0,.18.32.41.41,0,0,0,.24.07.31.31,0,0,0,.26-.14,1,1,0,0,0,.14-.34,2.42,2.42,0,0,0,.06-.39c0-.13,0-.24,0-.32H48.4V45.1h1.42v3h-.5l-.16-.42a1.4,1.4,0,0,1-.38.38.94.94,0,0,1-.55.17,1.33,1.33,0,0,1-.79-.23,1.55,1.55,0,0,1-.51-.65,3.81,3.81,0,0,1-.28-1,10.26,10.26,0,0,1-.09-1.41,7.76,7.76,0,0,1,.13-1.55,3.53,3.53,0,0,1,.36-1,1.48,1.48,0,0,1,.53-.57,1.27,1.27,0,0,1,.65-.18,2,2,0,0,1,.56.08,1.12,1.12,0,0,1,.5.3,1.62,1.62,0,0,1,.35.61,3.13,3.13,0,0,1,.13,1V44Z"/><path class="cls-1" d="M50.54,41.68h2.65v1H51.71v1.64H52.8v1H51.71V47.1h1.54v1H50.54Z"/><path class="cls-1" d="M54.52,42.67h-1v-1H56.7v1h-1v5.42H54.52Z"/><path class="cls-1" d="M58.73,41.68H60a2.82,2.82,0,0,1,.76.09,1.46,1.46,0,0,1,.58.31,1.42,1.42,0,0,1,.38.56,2.36,2.36,0,0,1,.13.85,3.2,3.2,0,0,1,0,.43,2.12,2.12,0,0,1-.11.44,1.73,1.73,0,0,1-.21.4,1.09,1.09,0,0,1-.33.3l.69,3H60.73l-.55-2.75H59.9v2.75H58.73ZM59.9,44.4h.23a.47.47,0,0,0,.27-.08.6.6,0,0,0,.18-.2.89.89,0,0,0,.1-.28,1.77,1.77,0,0,0,0-.33,1,1,0,0,0-.18-.71.62.62,0,0,0-.47-.19H59.9Z"/><path class="cls-1" d="M62.51,41.68h2.65v1H63.68v1.64h1.09v1H63.68V47.1h1.54v1H62.51Z"/><path class="cls-1" d="M66.49,41.68h1.69L69,48.09H67.85l-.17-1.42h-.94l-.16,1.42h-1Zm.75,1h0l-.37,3.06h.73Z"/><path class="cls-1" d="M69.49,41.68h1.17V47.1h1.49v1H69.49Z"/><path class="cls-1" d="M74.41,41.68H77v1H75.58v1.71h1.07v1H75.58v2.66H74.41Z"/><path class="cls-1" d="M77.9,41.68h1.69l.79,6.41H79.26l-.17-1.42h-.94L78,48.09H77Zm.75,1h0l-.37,3.06H79Z"/><path class="cls-1" d="M80.88,41.68H82l1.07,3.38h0V41.68H84v6.41h-.91l-1.25-3.88h0v3.88h-1Z"/><path class="cls-1" d="M85.7,46.24c0,.09,0,.19,0,.31a1.37,1.37,0,0,0,.05.32.59.59,0,0,0,.15.26.4.4,0,0,0,.29.1.47.47,0,0,0,.24-.06.49.49,0,0,0,.16-.15.63.63,0,0,0,.09-.2.83.83,0,0,0,0-.21.88.88,0,0,0-.16-.51,2.5,2.5,0,0,0-.39-.43l-.51-.42a3.59,3.59,0,0,1-.51-.49,2.54,2.54,0,0,1-.39-.62,2,2,0,0,1-.16-.83,2.3,2.3,0,0,1,.1-.68,1.66,1.66,0,0,1,.29-.55,1.4,1.4,0,0,1,.47-.37,1.63,1.63,0,0,1,1.33,0,1.23,1.23,0,0,1,.46.4,1.81,1.81,0,0,1,.26.62,3.78,3.78,0,0,1,.09.79h-1q0-.13,0-.3a1.52,1.52,0,0,0,0-.31.55.55,0,0,0-.14-.25.37.37,0,0,0-.27-.1.38.38,0,0,0-.32.16.71.71,0,0,0-.12.42.85.85,0,0,0,.16.5,2.63,2.63,0,0,0,.39.44l.51.44a3.63,3.63,0,0,1,.51.5,2.73,2.73,0,0,1,.39.63,2,2,0,0,1,.16.82,2.22,2.22,0,0,1-.1.69,1.64,1.64,0,0,1-.31.56,1.46,1.46,0,0,1-.5.38,1.64,1.64,0,0,1-.7.14A1.4,1.4,0,0,1,85.4,48a1.34,1.34,0,0,1-.46-.47,1.87,1.87,0,0,1-.23-.64,4.15,4.15,0,0,1-.06-.68Z"/><path class="cls-1" d="M89.8,44.89a8.68,8.68,0,0,1,.12-1.58,3.29,3.29,0,0,1,.35-1,1.4,1.4,0,0,1,.54-.55,1.56,1.56,0,0,1,1.4,0,1.4,1.4,0,0,1,.54.55,3.29,3.29,0,0,1,.35,1,10.42,10.42,0,0,1,0,3.17,3.28,3.28,0,0,1-.35,1,1.39,1.39,0,0,1-.54.55,1.56,1.56,0,0,1-1.4,0,1.39,1.39,0,0,1-.54-.55,3.28,3.28,0,0,1-.35-1A8.67,8.67,0,0,1,89.8,44.89Zm1.28.67c0,.35,0,.63,0,.85a2.94,2.94,0,0,0,.08.51.48.48,0,0,0,.14.25.29.29,0,0,0,.36,0,.48.48,0,0,0,.14-.25,2.94,2.94,0,0,0,.08-.51c0-.21,0-.5,0-.85V44.21c0-.35,0-.63,0-.85a2.79,2.79,0,0,0-.08-.5.5.5,0,0,0-.14-.25.27.27,0,0,0-.36,0,.5.5,0,0,0-.14.25,2.79,2.79,0,0,0-.08.5c0,.22,0,.5,0,.85Z"/><path class="cls-1" d="M93.89,41.68h2.62v1H95.06v1.71h1.07v1H95.06v2.66H93.89Z"/><path class="cls-1" d="M99.21,41.68h1.69l.79,6.41h-1.12l-.17-1.42h-.94l-.16,1.42h-1Zm.75,1h0l-.37,3.06h.73Z"/><path class="cls-1" d="M102.19,41.68h1.14l1.07,3.38h0V41.68h.94v6.41h-.91l-1.25-3.88h0v3.88h-1Z"/><path class="cls-1" d="M106.15,41.68h1.17v6.41h-1.17Z"/><path class="cls-1" d="M108.1,41.68h1.56l.52,3.29h0l.55-3.29h1.52v6.41h-1v-4.7h0l-.79,4.7h-.65l-.78-4.7h0v4.7h-.86Z"/><path class="cls-1" d="M113.07,41.68h2.65v1h-1.48v1.64h1.09v1h-1.09V47.1h1.54v1h-2.71Z"/><path class="cls-1" d="M117.13,45.82a3.28,3.28,0,0,1,.12-1,4.39,4.39,0,0,1,.27-.66l.14-.26c0-.08.09-.17.13-.26a1.69,1.69,0,0,0,.09-.27,1.28,1.28,0,0,0,0-.31,1,1,0,0,0-.1-.48.34.34,0,0,0-.32-.19.38.38,0,0,0-.37.29,2.18,2.18,0,0,0-.11.77l-.86-.06a3.27,3.27,0,0,1,.07-.7,1.6,1.6,0,0,1,.24-.58,1.23,1.23,0,0,1,.44-.39,1.43,1.43,0,0,1,.68-.14,1.45,1.45,0,0,1,.53.09,1.38,1.38,0,0,1,.44.27,1.27,1.27,0,0,1,.3.42,1.33,1.33,0,0,1,.11.55,2.05,2.05,0,0,1,0,.43,2.2,2.2,0,0,1-.1.35,2.65,2.65,0,0,1-.14.31l-.16.3-.16.32a2.33,2.33,0,0,0-.14.36,3.25,3.25,0,0,0-.1.45,3.45,3.45,0,0,0,0,.56v.16h-.94Zm-.12,1.1h1.17v1.17H117Z"/><path class="cls-1" d="M0,52H1.44a2,2,0,0,1,.55.08,1.43,1.43,0,0,1,.51.27,1.45,1.45,0,0,1,.38.5,1.78,1.78,0,0,1,.15.77,1.66,1.66,0,0,1-.25.93,1.2,1.2,0,0,1-.79.5v0a1.44,1.44,0,0,1,.89.54,1.71,1.71,0,0,1,.28,1,2,2,0,0,1-.14.78,1.69,1.69,0,0,1-.37.56,1.49,1.49,0,0,1-.53.34,1.74,1.74,0,0,1-.62.11H0Zm1.17,2.63a.69.69,0,0,0,.59-.21,1.11,1.11,0,0,0,.15-.64,2.56,2.56,0,0,0,0-.44.51.51,0,0,0-.12-.26A.41.41,0,0,0,1.53,53a2,2,0,0,0-.36,0Zm0,2.84a1.39,1.39,0,0,0,.42-.05.5.5,0,0,0,.25-.17A.63.63,0,0,0,2,57a3,3,0,0,0,0-.43,2.11,2.11,0,0,0,0-.39.66.66,0,0,0-.12-.29.54.54,0,0,0-.25-.18,1.19,1.19,0,0,0-.41-.06Z"/><path class="cls-1" d="M4.3,56,3.23,52H4.39l.56,2.51H5L5.56,52h1L5.47,55.86v2.58H4.3Z"/><path class="cls-1" d="M10.5,54.32c0-.07,0-.19,0-.35a2.79,2.79,0,0,0,0-.48,1.39,1.39,0,0,0-.13-.42.29.29,0,0,0-.28-.18.31.31,0,0,0-.2.08.64.64,0,0,0-.16.32,4,4,0,0,0-.1.7q0,.46,0,1.23t0,1.25a3.66,3.66,0,0,0,.11.71.58.58,0,0,0,.18.32.41.41,0,0,0,.24.07.3.3,0,0,0,.26-.14,1,1,0,0,0,.14-.34,2.41,2.41,0,0,0,.06-.39c0-.13,0-.24,0-.32h-.43v-.94h1.42v3h-.5L10.93,58a1.41,1.41,0,0,1-.38.38.93.93,0,0,1-.55.17,1.33,1.33,0,0,1-.79-.22,1.56,1.56,0,0,1-.51-.65,3.8,3.8,0,0,1-.28-1,10.24,10.24,0,0,1-.09-1.41,7.78,7.78,0,0,1,.13-1.55,3.53,3.53,0,0,1,.36-1,1.49,1.49,0,0,1,.53-.57A1.27,1.27,0,0,1,10,51.9a2,2,0,0,1,.56.08,1.12,1.12,0,0,1,.5.3,1.62,1.62,0,0,1,.35.61,3.13,3.13,0,0,1,.13,1v.41Z"/><path class="cls-1" d="M12.31,52H15v1H13.48v1.64h1.09v1H13.48v1.75H15v1H12.31Z"/><path class="cls-1" d="M16.29,53h-1V52h3.19v1h-1v5.42H16.29Z"/><path class="cls-1" d="M19.67,53h-1V52h3.19v1h-1v5.42H19.67Z"/><path class="cls-1" d="M22.27,52h1.17v6.41H22.27Z"/><path class="cls-1" d="M24.22,52h1.14l1.07,3.38h0V52h.94v6.41h-.91l-1.25-3.88h0v3.88h-1Z"/><path class="cls-1" d="M30.21,54.32c0-.07,0-.19,0-.35a2.79,2.79,0,0,0,0-.48,1.39,1.39,0,0,0-.13-.42.29.29,0,0,0-.28-.18.31.31,0,0,0-.2.08.64.64,0,0,0-.16.32,4,4,0,0,0-.1.7q0,.46,0,1.23t0,1.25a3.66,3.66,0,0,0,.11.71.58.58,0,0,0,.18.32.41.41,0,0,0,.24.07.3.3,0,0,0,.26-.14,1,1,0,0,0,.14-.34,2.41,2.41,0,0,0,.06-.39c0-.13,0-.24,0-.32h-.43v-.94h1.42v3h-.5L30.64,58a1.41,1.41,0,0,1-.38.38.93.93,0,0,1-.55.17,1.33,1.33,0,0,1-.79-.22,1.56,1.56,0,0,1-.51-.65,3.8,3.8,0,0,1-.28-1A10.24,10.24,0,0,1,28,55.23a7.78,7.78,0,0,1,.13-1.55,3.53,3.53,0,0,1,.36-1,1.49,1.49,0,0,1,.53-.57,1.27,1.27,0,0,1,.65-.18,2,2,0,0,1,.56.08,1.12,1.12,0,0,1,.5.3,1.62,1.62,0,0,1,.35.61,3.13,3.13,0,0,1,.13,1v.41Z"/><path class="cls-1" d="M33.58,52h1.17v6.41H33.58Z"/><path class="cls-1" d="M35.53,52h1.14l1.07,3.38h0V52h.94v6.41h-.91l-1.25-3.88h0v3.88h-1Z"/><path class="cls-1" d="M40.35,56.58c0,.09,0,.19,0,.31a1.38,1.38,0,0,0,.05.32.59.59,0,0,0,.15.26.39.39,0,0,0,.29.1.47.47,0,0,0,.24-.06.5.5,0,0,0,.16-.15.64.64,0,0,0,.09-.2.83.83,0,0,0,0-.21.87.87,0,0,0-.16-.51,2.5,2.5,0,0,0-.39-.43l-.51-.42a3.65,3.65,0,0,1-.51-.49,2.5,2.5,0,0,1-.39-.62,2,2,0,0,1-.16-.83,2.3,2.3,0,0,1,.1-.68,1.66,1.66,0,0,1,.29-.55,1.38,1.38,0,0,1,.47-.37,1.62,1.62,0,0,1,1.33,0,1.22,1.22,0,0,1,.46.4,1.83,1.83,0,0,1,.26.62,3.78,3.78,0,0,1,.09.79h-1c0-.09,0-.19,0-.3a1.51,1.51,0,0,0,0-.31A.55.55,0,0,0,41,53a.36.36,0,0,0-.27-.1.38.38,0,0,0-.32.16.71.71,0,0,0-.12.42.84.84,0,0,0,.16.49,2.63,2.63,0,0,0,.39.44l.51.44a3.74,3.74,0,0,1,.51.5,2.73,2.73,0,0,1,.39.63,2,2,0,0,1,.16.82,2.21,2.21,0,0,1-.1.69A1.62,1.62,0,0,1,42,58a1.46,1.46,0,0,1-.5.38,1.65,1.65,0,0,1-.7.14,1.4,1.4,0,0,1-.76-.18,1.35,1.35,0,0,1-.46-.47,1.88,1.88,0,0,1-.23-.64,4.16,4.16,0,0,1-.06-.68Z"/><path class="cls-1" d="M42.95,52h1.17v6.41H42.95Z"/><path class="cls-1" d="M44.92,52h1a2.49,2.49,0,0,1,1.17.23,1.54,1.54,0,0,1,.65.65,2.74,2.74,0,0,1,.28,1q.06.59.06,1.32T48,56.52a3.1,3.1,0,0,1-.25,1,1.51,1.51,0,0,1-.59.67,2,2,0,0,1-1.07.24H44.92Zm1.17,5.42a1,1,0,0,0,.43-.08.5.5,0,0,0,.23-.31,2.63,2.63,0,0,0,.09-.67q0-.44,0-1.17t0-1.16a2.55,2.55,0,0,0-.09-.66.49.49,0,0,0-.23-.31,1,1,0,0,0-.43-.08Z"/><path class="cls-1" d="M48.81,52h2.65v1H50v1.64h1.09v1H50v1.75h1.54v1H48.81Z"/><path class="cls-1" d="M54.27,53h-1V52h3.19v1h-1v5.42H54.27Z"/><path class="cls-1" d="M56.89,52h1.17v2.57h.74V52H60v6.41H58.79V55.72h-.74v2.72H56.89Z"/><path class="cls-1" d="M60.79,52h2.65v1H62v1.64H63v1H62v1.75H63.5v1H60.79Z"/><path class="cls-1" d="M64,52h1.17v6.41H64Z"/><path class="cls-1" d="M66,52h1.31a2.86,2.86,0,0,1,.76.09,1.46,1.46,0,0,1,.58.31A1.44,1.44,0,0,1,69,53a2.36,2.36,0,0,1,.13.85,3.21,3.21,0,0,1,0,.43,2.12,2.12,0,0,1-.11.44,1.73,1.73,0,0,1-.21.4,1.08,1.08,0,0,1-.33.3l.69,3H68l-.55-2.75h-.28v2.75H66Zm1.17,2.72h.23a.47.47,0,0,0,.27-.08.61.61,0,0,0,.18-.2.9.9,0,0,0,.1-.28,1.79,1.79,0,0,0,0-.33,1,1,0,0,0-.18-.71.62.62,0,0,0-.47-.18h-.18Z"/><path class="cls-1" d="M71.4,52h1.17v2.57h.74V52h1.17v6.41H73.31V55.72h-.74v2.72H71.4Z"/><path class="cls-1" d="M75.31,52H78v1H76.48v1.64h1.09v1H76.48v1.75H78v1H75.31Z"/><path class="cls-1" d="M79.28,52H81l.79,6.41H80.64L80.47,57h-.94l-.16,1.42h-1ZM80,53h0l-.37,3.06h.73Z"/><path class="cls-1" d="M82.29,52h1a2.49,2.49,0,0,1,1.17.23,1.54,1.54,0,0,1,.65.65,2.74,2.74,0,0,1,.28,1q.06.59.06,1.32t-.05,1.28a3.1,3.1,0,0,1-.25,1,1.51,1.51,0,0,1-.59.67,2,2,0,0,1-1.07.24H82.29Zm1.17,5.42a1,1,0,0,0,.43-.08.5.5,0,0,0,.23-.31,2.63,2.63,0,0,0,.09-.67q0-.44,0-1.17t0-1.16a2.55,2.55,0,0,0-.09-.66.49.49,0,0,0-.23-.31,1,1,0,0,0-.43-.08Z"/><path class="cls-1" d="M87,56.58c0,.09,0,.19,0,.31a1.38,1.38,0,0,0,.05.32.59.59,0,0,0,.15.26.39.39,0,0,0,.29.1.47.47,0,0,0,.24-.06.5.5,0,0,0,.16-.15.64.64,0,0,0,.09-.2A.83.83,0,0,0,88,57a.87.87,0,0,0-.16-.51,2.5,2.5,0,0,0-.39-.43L87,55.59a3.65,3.65,0,0,1-.51-.49,2.5,2.5,0,0,1-.39-.62,2,2,0,0,1-.16-.83A2.3,2.3,0,0,1,86,53a1.66,1.66,0,0,1,.29-.55,1.38,1.38,0,0,1,.47-.37,1.62,1.62,0,0,1,1.33,0,1.22,1.22,0,0,1,.46.4,1.83,1.83,0,0,1,.26.62,3.78,3.78,0,0,1,.09.79h-1c0-.09,0-.19,0-.3a1.51,1.51,0,0,0,0-.31.55.55,0,0,0-.14-.25.36.36,0,0,0-.27-.1.38.38,0,0,0-.32.16.71.71,0,0,0-.12.42.84.84,0,0,0,.16.49,2.63,2.63,0,0,0,.39.44l.51.44a3.74,3.74,0,0,1,.51.5,2.73,2.73,0,0,1,.39.63,2,2,0,0,1,.16.82,2.21,2.21,0,0,1-.1.69,1.62,1.62,0,0,1-.31.56,1.46,1.46,0,0,1-.5.38,1.65,1.65,0,0,1-.7.14,1.4,1.4,0,0,1-.76-.18,1.35,1.35,0,0,1-.46-.47,1.88,1.88,0,0,1-.23-.64,4.16,4.16,0,0,1-.06-.68Z"/><path class="cls-1" d="M91.12,55.23a8.69,8.69,0,0,1,.12-1.58,3.29,3.29,0,0,1,.35-1,1.4,1.4,0,0,1,.54-.55,1.56,1.56,0,0,1,1.4,0,1.4,1.4,0,0,1,.54.55,3.29,3.29,0,0,1,.35,1,10.42,10.42,0,0,1,0,3.17,3.28,3.28,0,0,1-.35,1,1.39,1.39,0,0,1-.54.55,1.57,1.57,0,0,1-1.4,0,1.39,1.39,0,0,1-.54-.55,3.28,3.28,0,0,1-.35-1A8.66,8.66,0,0,1,91.12,55.23Zm1.28.68c0,.35,0,.63,0,.85a2.92,2.92,0,0,0,.08.51.47.47,0,0,0,.14.25.29.29,0,0,0,.36,0,.47.47,0,0,0,.14-.25,2.92,2.92,0,0,0,.08-.51c0-.22,0-.5,0-.85V54.56c0-.35,0-.63,0-.85a2.82,2.82,0,0,0-.08-.5A.5.5,0,0,0,93,53a.27.27,0,0,0-.36,0,.5.5,0,0,0-.14.25,2.82,2.82,0,0,0-.08.5c0,.22,0,.5,0,.85Z"/><path class="cls-1" d="M95.2,52h1.44a2,2,0,0,1,.55.08,1.43,1.43,0,0,1,.51.27,1.45,1.45,0,0,1,.38.5,1.78,1.78,0,0,1,.15.77,1.66,1.66,0,0,1-.25.93,1.2,1.2,0,0,1-.79.5v0a1.44,1.44,0,0,1,.89.54,1.71,1.71,0,0,1,.28,1,2,2,0,0,1-.14.78,1.69,1.69,0,0,1-.37.56,1.49,1.49,0,0,1-.53.34,1.74,1.74,0,0,1-.62.11H95.2Zm1.17,2.63a.69.69,0,0,0,.59-.21,1.11,1.11,0,0,0,.15-.64,2.56,2.56,0,0,0,0-.44.51.51,0,0,0-.12-.26.41.41,0,0,0-.23-.12,2,2,0,0,0-.36,0Zm0,2.84a1.39,1.39,0,0,0,.42-.05.5.5,0,0,0,.25-.17.63.63,0,0,0,.11-.29,3,3,0,0,0,0-.43,2.11,2.11,0,0,0,0-.39.66.66,0,0,0-.12-.29.54.54,0,0,0-.25-.18,1.19,1.19,0,0,0-.41-.06Z"/><path class="cls-1" d="M98.59,52h1.14l.55,4.5h0l.6-4.5h.95l-1,6.41H99.54Z"/><path class="cls-1" d="M102.34,52h1.17v6.41h-1.17Z"/><path class="cls-1" d="M104.17,55.23a8.69,8.69,0,0,1,.12-1.58,3.29,3.29,0,0,1,.35-1,1.4,1.4,0,0,1,.54-.55,1.56,1.56,0,0,1,1.4,0,1.4,1.4,0,0,1,.54.55,3.29,3.29,0,0,1,.35,1,10.42,10.42,0,0,1,0,3.17,3.28,3.28,0,0,1-.35,1,1.39,1.39,0,0,1-.54.55,1.57,1.57,0,0,1-1.4,0,1.39,1.39,0,0,1-.54-.55,3.28,3.28,0,0,1-.35-1A8.66,8.66,0,0,1,104.17,55.23Zm1.28.68c0,.35,0,.63,0,.85a2.92,2.92,0,0,0,.08.51.47.47,0,0,0,.14.25.29.29,0,0,0,.36,0,.47.47,0,0,0,.14-.25,2.92,2.92,0,0,0,.08-.51c0-.22,0-.5,0-.85V54.56c0-.35,0-.63,0-.85a2.82,2.82,0,0,0-.08-.5.5.5,0,0,0-.14-.25.27.27,0,0,0-.36,0,.5.5,0,0,0-.14.25,2.82,2.82,0,0,0-.08.5c0,.22,0,.5,0,.85Z"/><path class="cls-1" d="M108.22,52h1.17v5a1.65,1.65,0,0,0,0,.21.54.54,0,0,0,.06.19.34.34,0,0,0,.13.13.39.39,0,0,0,.21,0,.35.35,0,0,0,.34-.18.84.84,0,0,0,.09-.41V52h1v4.81a1.84,1.84,0,0,1-.4,1.34,1.49,1.49,0,0,1-1.1.39,1.89,1.89,0,0,1-.62-.09,1.2,1.2,0,0,1-.47-.3,1.34,1.34,0,0,1-.31-.53,2.59,2.59,0,0,1-.11-.81Z"/><path class="cls-1" d="M112.85,56.58c0,.09,0,.19,0,.31a1.38,1.38,0,0,0,.05.32.59.59,0,0,0,.15.26.39.39,0,0,0,.29.1.47.47,0,0,0,.24-.06.5.5,0,0,0,.16-.15.64.64,0,0,0,.09-.2.83.83,0,0,0,0-.21.87.87,0,0,0-.16-.51,2.5,2.5,0,0,0-.39-.43l-.51-.42a3.65,3.65,0,0,1-.51-.49,2.5,2.5,0,0,1-.39-.62,2,2,0,0,1-.16-.83,2.3,2.3,0,0,1,.1-.68,1.66,1.66,0,0,1,.29-.55,1.38,1.38,0,0,1,.47-.37,1.62,1.62,0,0,1,1.33,0,1.22,1.22,0,0,1,.46.4,1.83,1.83,0,0,1,.26.62,3.78,3.78,0,0,1,.09.79h-1c0-.09,0-.19,0-.3a1.51,1.51,0,0,0,0-.31.55.55,0,0,0-.14-.25.36.36,0,0,0-.27-.1.38.38,0,0,0-.32.16.71.71,0,0,0-.12.42A.84.84,0,0,0,113,54a2.63,2.63,0,0,0,.39.44l.51.44a3.74,3.74,0,0,1,.51.5,2.73,2.73,0,0,1,.39.63,2,2,0,0,1,.16.82,2.21,2.21,0,0,1-.1.69,1.62,1.62,0,0,1-.31.56,1.46,1.46,0,0,1-.5.38,1.65,1.65,0,0,1-.7.14,1.4,1.4,0,0,1-.76-.18,1.35,1.35,0,0,1-.46-.47,1.88,1.88,0,0,1-.23-.64,4.16,4.16,0,0,1-.06-.68Z"/><path class="cls-1" d="M115.47,52h1.17v5.42h1.49v1h-2.66Z"/><path class="cls-1" d="M119,56,117.91,52h1.16l.56,2.51h0l.59-2.51h1l-1.07,3.82v2.58H119Z"/><path class="cls-1" d="M121.22,57.27h1.17v1.17h-1.17Z"/></g></g></svg>