<svg xmlns="http://www.w3.org/2000/svg" viewBox="0 0 648.16 687.25"><defs><style>.cls-1{fill:#da2128;}</style></defs><title>Pablo</title><g id="Layer_2" data-name="Layer 2"><g id="Layer_1-2" data-name="Layer 1"><path class="cls-1" d="M5.39,147.84H17.1q8.5,0,13.42,2.59A17.52,17.52,0,0,1,38,157.75a30.37,30.37,0,0,1,3.21,11.38A148.8,148.8,0,0,1,41.87,184q0,7.83-.62,14.48A34.26,34.26,0,0,1,38.34,210a17,17,0,0,1-6.79,7.52q-4.51,2.69-12.28,2.69H5.39ZM18.86,209a11.55,11.55,0,0,0,5-.86,5.6,5.6,0,0,0,2.64-3.51,29.11,29.11,0,0,0,1.09-7.57q.21-4.93.21-13.16t-.21-13.11a28.23,28.23,0,0,0-1.09-7.47,5.58,5.58,0,0,0-2.64-3.45,11.57,11.57,0,0,0-5-.86Z"/><path class="cls-1" d="M47.31,147.84H60.78v72.34H47.31Z"/><path class="cls-1" d="M90.67,173.65q0-1.22.05-3.91a31.51,31.51,0,0,0-.36-5.38,15.61,15.61,0,0,0-1.45-4.72,3.4,3.4,0,0,0-3.21-2,3.69,3.69,0,0,0-2.33.86,7.14,7.14,0,0,0-1.87,3.61A43.63,43.63,0,0,0,80.3,170q-.42,5.18-.41,13.92,0,8.94.41,14.17a40.13,40.13,0,0,0,1.24,8,6.53,6.53,0,0,0,2,3.56,4.75,4.75,0,0,0,2.75.81,3.51,3.51,0,0,0,3-1.63A11,11,0,0,0,91,205a27.4,27.4,0,0,0,.67-4.42q.16-2.23.16-3.56h-5V186.45H103.2v33.73H97.5l-1.87-4.78a16.07,16.07,0,0,1-4.35,4.27A10.88,10.88,0,0,1,85,221.6a15.59,15.59,0,0,1-9.07-2.54A17.67,17.67,0,0,1,70,211.69a42.29,42.29,0,0,1-3.21-11.79,114.4,114.4,0,0,1-1-15.9,86.93,86.93,0,0,1,1.5-17.53,39.51,39.51,0,0,1,4.09-11.63,16.9,16.9,0,0,1,6.06-6.45,14.89,14.89,0,0,1,7.51-2,23.4,23.4,0,0,1,6.43.91,13,13,0,0,1,5.7,3.4,18.13,18.13,0,0,1,4,6.91A34.68,34.68,0,0,1,102.69,169v4.67Z"/><path class="cls-1" d="M108.71,147.84h13.47v72.34H108.71Z"/><path class="cls-1" d="M136.16,159H124.55V147.84h36.68V159H149.63v61.16H136.16Z"/><path class="cls-1" d="M167.79,147.84h19.48l9.12,72.34h-13l-2-16.05H170.59l-1.87,16.05H157.43ZM176.4,159h-.21l-4.25,34.54h8.39Z"/><path class="cls-1" d="M199.75,147.84h13.47V209h17.2v11.18H199.75Z"/><path class="cls-1" d="M268.56,174.05q0-9-1.19-12.75t-3.68-3.71a3.83,3.83,0,0,0-2.07.66q-1,.66-1.81,3.3a43.92,43.92,0,0,0-1.24,7.92q-.47,5.28-.47,14.53,0,8.94.31,14.17a52.65,52.65,0,0,0,.93,8q.62,2.74,1.71,3.5a4.49,4.49,0,0,0,2.64.76q3.31,0,4.4-4.62a64.6,64.6,0,0,0,1.29-12.55l11.4.51a92.9,92.9,0,0,1-.52,9.7,28,28,0,0,1-2.38,8.94,17.09,17.09,0,0,1-5.34,6.6q-3.47,2.59-9.38,2.59a15.59,15.59,0,0,1-9.07-2.54,17.67,17.67,0,0,1-5.91-7.37A42.29,42.29,0,0,1,245,199.91a114.4,114.4,0,0,1-1-15.9,86.93,86.93,0,0,1,1.5-17.53,39.51,39.51,0,0,1,4.09-11.63,16.9,16.9,0,0,1,6.06-6.45,14.89,14.89,0,0,1,7.51-2q5.8,0,9.28,2.39a15.4,15.4,0,0,1,5.29,6.25,27.24,27.24,0,0,1,2.33,8.74,93.41,93.41,0,0,1,.52,9.86Z"/><path class="cls-1" d="M285.94,147.84h15.13a33.28,33.28,0,0,1,8.71,1.07,16.75,16.75,0,0,1,6.74,3.5,16.17,16.17,0,0,1,4.35,6.35,26.09,26.09,0,0,1,1.55,9.6,34.57,34.57,0,0,1-.36,4.88,23,23,0,0,1-1.3,5,18.76,18.76,0,0,1-2.44,4.47,12.32,12.32,0,0,1-3.78,3.35l8,34.14H308.94l-6.32-31.09h-3.21v31.09H285.94Zm13.47,30.68h2.69a5.57,5.57,0,0,0,3.16-.86,7,7,0,0,0,2.12-2.24,9.86,9.86,0,0,0,1.19-3.2,19.32,19.32,0,0,0,.36-3.76q0-5.89-2-8a7.24,7.24,0,0,0-5.44-2.08h-2.07Z"/><path class="cls-1" d="M326.82,147.84h30.47V159h-17v18.49h12.54v11.79H340.29V209H358v11.18H326.82Z"/><path class="cls-1" d="M370.19,147.84h19.48l9.12,72.34h-13l-2-16.05H373l-1.87,16.05H359.83Zm8.6,11.18h-.21l-4.25,34.54h8.39Z"/><path class="cls-1" d="M407.16,159H395.56V147.84h36.68V159H420.63v61.16H407.16Z"/><path class="cls-1" d="M434.55,147.84H448v72.34H434.55Z"/><path class="cls-1" d="M451,147.84h13.16l6.32,50.8h.21l6.94-50.8h10.88l-11.09,72.34H462Z"/><path class="cls-1" d="M491.83,147.84h30.47V159h-17v18.49h12.54v11.79H505.3V209H523v11.18H491.83Z"/><path class="cls-1" d="M527.63,207H541.1v13.21H527.63Z"/><path class="cls-1" d="M14.61,292.38q0,1.52.1,3.45a15.48,15.48,0,0,0,.62,3.66,6.62,6.62,0,0,0,1.71,2.9,4.6,4.6,0,0,0,3.37,1.17,5.49,5.49,0,0,0,2.8-.66,5.65,5.65,0,0,0,1.87-1.73,7.24,7.24,0,0,0,1-2.29,9.46,9.46,0,0,0,.31-2.34,9.73,9.73,0,0,0-1.81-5.79,28.32,28.32,0,0,0-4.51-4.88q-2.7-2.33-5.91-4.77a40.76,40.76,0,0,1-5.91-5.49,28.22,28.22,0,0,1-4.51-7A22.28,22.28,0,0,1,2,259.26a25.3,25.3,0,0,1,1.14-7.67,18.46,18.46,0,0,1,3.32-6.25,15.91,15.91,0,0,1,5.44-4.22,17.1,17.1,0,0,1,7.51-1.57,17.08,17.08,0,0,1,7.77,1.63,14,14,0,0,1,5.23,4.52,20.49,20.49,0,0,1,3,7,41.84,41.84,0,0,1,1.09,8.94h-12c0-1,0-2.15-.1-3.4a16.71,16.71,0,0,0-.57-3.56,6.15,6.15,0,0,0-1.61-2.79,4.26,4.26,0,0,0-3.11-1.12,4.37,4.37,0,0,0-3.73,1.83A7.86,7.86,0,0,0,14,257.33a9.4,9.4,0,0,0,1.81,5.59,29.49,29.49,0,0,0,4.51,4.93q2.69,2.39,5.91,4.93a42.38,42.38,0,0,1,5.91,5.69,30.24,30.24,0,0,1,4.51,7.11,22,22,0,0,1,1.81,9.25,24.66,24.66,0,0,1-1.19,7.77,18.22,18.22,0,0,1-3.52,6.3,16.65,16.65,0,0,1-5.8,4.27,19.29,19.29,0,0,1-8,1.58,16.45,16.45,0,0,1-8.76-2.08,15.44,15.44,0,0,1-5.29-5.33,21,21,0,0,1-2.59-7.21,45.92,45.92,0,0,1-.67-7.72Z"/><path class="cls-1" d="M42.13,241H55.61q11.4,0,17.31,5t5.91,16.66a37.33,37.33,0,0,1-1,8.89,18.32,18.32,0,0,1-3.16,6.86,14.7,14.7,0,0,1-5.54,4.42A19.08,19.08,0,0,1,61,284.35H55.61v29H42.13Zm13.58,32.82h1.14a12.92,12.92,0,0,0,3.63-.46,5.59,5.59,0,0,0,2.64-1.68,8.1,8.1,0,0,0,1.66-3.35,21.34,21.34,0,0,0,.57-5.38,19.88,19.88,0,0,0-.73-6.1,7.41,7.41,0,0,0-1.92-3.2A5,5,0,0,0,60,252.35a24.91,24.91,0,0,0-3.21-.2h-1Z"/><path class="cls-1" d="M81.57,241H112v11.18H95v18.49h12.54v11.79H95v19.71h17.72v11.18H81.57Z"/><path class="cls-1" d="M138.45,267.18q0-9-1.19-12.75t-3.68-3.71a3.83,3.83,0,0,0-2.07.66q-1,.66-1.81,3.3a43.92,43.92,0,0,0-1.24,7.92q-.47,5.28-.47,14.53,0,8.94.31,14.17a52.65,52.65,0,0,0,.93,8q.62,2.74,1.71,3.5a4.49,4.49,0,0,0,2.64.76q3.31,0,4.4-4.62a64.6,64.6,0,0,0,1.29-12.55l11.4.51a92.9,92.9,0,0,1-.52,9.7,28,28,0,0,1-2.38,8.94,17.09,17.09,0,0,1-5.34,6.6q-3.47,2.59-9.38,2.59a15.59,15.59,0,0,1-9.07-2.54,17.67,17.67,0,0,1-5.91-7.37A42.29,42.29,0,0,1,114.87,293a114.4,114.4,0,0,1-1-15.9,86.93,86.93,0,0,1,1.5-17.53A39.51,39.51,0,0,1,119.48,248a16.9,16.9,0,0,1,6.06-6.45,14.89,14.89,0,0,1,7.51-2q5.8,0,9.28,2.39a15.4,15.4,0,0,1,5.29,6.25,27.24,27.24,0,0,1,2.33,8.74,93.41,93.41,0,0,1,.52,9.86Z"/><path class="cls-1" d="M155.69,241h13.47v72.34H155.69Z"/><path class="cls-1" d="M182.64,241h19.48l9.12,72.34h-13l-2-16.05H185.44l-1.87,16.05H172.28Zm8.6,11.18H191l-4.25,34.54h8.39Z"/><path class="cls-1" d="M214.6,241h13.47v61.16h17.2v11.18H214.6Z"/><path class="cls-1" d="M248.77,241h13.47v72.34H248.77Z"/><path class="cls-1" d="M278.81,292.38q0,1.52.1,3.45a15.48,15.48,0,0,0,.62,3.66,6.62,6.62,0,0,0,1.71,2.9,4.6,4.6,0,0,0,3.37,1.17,5.49,5.49,0,0,0,2.8-.66,5.65,5.65,0,0,0,1.87-1.73,7.24,7.24,0,0,0,1-2.29,9.46,9.46,0,0,0,.31-2.34,9.73,9.73,0,0,0-1.81-5.79,28.32,28.32,0,0,0-4.51-4.88q-2.7-2.33-5.91-4.77a40.76,40.76,0,0,1-5.91-5.49,28.22,28.22,0,0,1-4.51-7,22.28,22.28,0,0,1-1.81-9.35,25.3,25.3,0,0,1,1.14-7.67,18.46,18.46,0,0,1,3.32-6.25,15.91,15.91,0,0,1,5.44-4.22,19.06,19.06,0,0,1,15.29.05,14,14,0,0,1,5.23,4.52,20.49,20.49,0,0,1,3,7,41.84,41.84,0,0,1,1.09,8.94h-12c0-1,0-2.15-.1-3.4a16.71,16.71,0,0,0-.57-3.56,6.15,6.15,0,0,0-1.61-2.79,4.26,4.26,0,0,0-3.11-1.12,4.37,4.37,0,0,0-3.73,1.83,7.86,7.86,0,0,0-1.35,4.78,9.4,9.4,0,0,0,1.81,5.59,29.49,29.49,0,0,0,4.51,4.93q2.69,2.39,5.91,4.93a42.38,42.38,0,0,1,5.91,5.69,30.24,30.24,0,0,1,4.51,7.11,22,22,0,0,1,1.81,9.25,24.66,24.66,0,0,1-1.19,7.77,18.22,18.22,0,0,1-3.52,6.3,16.65,16.65,0,0,1-5.8,4.27,19.29,19.29,0,0,1-8,1.58,16.45,16.45,0,0,1-8.76-2.08,15.44,15.44,0,0,1-5.29-5.33,21,21,0,0,1-2.59-7.21,45.92,45.92,0,0,1-.67-7.72Z"/><path class="cls-1" d="M313.73,252.15H302.13V241h36.68v11.18H327.2v61.16H313.73Z"/><path class="cls-1" d="M357.57,241H371v72.34H357.57Z"/><path class="cls-1" d="M377.44,241H390.6l12.33,38.2h.21V241h10.78v72.34H403.45L389,269.52h-.21v43.79h-11.4Z"/><path class="cls-1" d="M433.4,241h13.47v56a18.09,18.09,0,0,0,.16,2.39,6.19,6.19,0,0,0,.67,2.13,3.87,3.87,0,0,0,1.45,1.52,4.57,4.57,0,0,0,2.38.56,4,4,0,0,0,3.89-2,9.45,9.45,0,0,0,1.09-4.62V241h11.4v54.25q0,10.67-4.56,15.09t-12.64,4.42a22.12,22.12,0,0,1-7.1-1.07,13.78,13.78,0,0,1-5.44-3.35,15.13,15.13,0,0,1-3.52-6,28.84,28.84,0,0,1-1.24-9.09Z"/><path class="cls-1" d="M482.23,276.43,470.42,241h13.47l5.6,19.41h.21l5-19.41h11.5l-11,33.63,13.06,38.71H494.67l-6.53-21.74h-.21l-6.22,21.74h-11.4Z"/><path class="cls-1" d="M530.31,241h19.48l9.12,72.34H546l-2-16.05H533.11l-1.87,16.05H519.95Zm8.6,11.18h-.21l-4.25,34.54h8.39Z"/><path class="cls-1" d="M562,241h13.16l12.33,38.2h.21V241h10.78v72.34H588l-14.41-43.79h-.21v43.79H562Z"/><path class="cls-1" d="M605.15,241h11.71q8.5,0,13.42,2.59a17.52,17.52,0,0,1,7.46,7.32A30.37,30.37,0,0,1,641,262.25a148.8,148.8,0,0,1,.67,14.88q0,7.83-.62,14.48a34.26,34.26,0,0,1-2.9,11.48,17,17,0,0,1-6.79,7.52q-4.51,2.69-12.28,2.69H605.15Zm13.47,61.16a11.55,11.55,0,0,0,5-.86,5.6,5.6,0,0,0,2.64-3.51,29.11,29.11,0,0,0,1.09-7.57q.21-4.93.21-13.16t-.21-13.11a28.23,28.23,0,0,0-1.09-7.47A5.58,5.58,0,0,0,623.6,253a11.57,11.57,0,0,0-5-.86Z"/><path class="cls-1" d="M4.87,334.1H18.34v72.34H4.87Z"/><path class="cls-1" d="M24.75,334.1H37.91l12.33,38.2h.21V334.1H61.22v72.34H50.76L36.35,362.65h-.21v43.79H24.75Z"/><path class="cls-1" d="M75.21,345.28H63.61V334.1h36.68v11.18H88.68v61.16H75.21Z"/><path class="cls-1" d="M102.84,334.1h30.47v11.18h-17v18.49h12.54v11.79H116.31v19.71H134v11.18H102.84Z"/><path class="cls-1" d="M137.52,334.1h15.13a33.28,33.28,0,0,1,8.71,1.07,16.75,16.75,0,0,1,6.74,3.5,16.17,16.17,0,0,1,4.35,6.35,26.09,26.09,0,0,1,1.55,9.6,34.57,34.57,0,0,1-.36,4.88,23,23,0,0,1-1.3,5,18.76,18.76,0,0,1-2.44,4.47,12.32,12.32,0,0,1-3.78,3.35l8,34.14H160.53l-6.32-31.09H151v31.09H137.52ZM151,364.78h2.69a5.57,5.57,0,0,0,3.16-.86,7,7,0,0,0,2.12-2.24,9.86,9.86,0,0,0,1.19-3.2,19.32,19.32,0,0,0,.36-3.76q0-5.89-2-8a7.24,7.24,0,0,0-5.44-2.08H151Z"/><path class="cls-1" d="M186.36,334.1h19.48L215,406.44H202l-2-16.05H189.16l-1.87,16.05H176Zm8.6,11.18h-.21l-4.25,34.54h8.39Z"/><path class="cls-1" d="M240.55,360.31q0-9-1.19-12.75t-3.68-3.71a3.83,3.83,0,0,0-2.07.66q-1,.66-1.81,3.3a43.92,43.92,0,0,0-1.24,7.92q-.47,5.28-.47,14.53,0,8.94.31,14.17a52.65,52.65,0,0,0,.93,8q.62,2.74,1.71,3.5a4.49,4.49,0,0,0,2.64.76q3.31,0,4.4-4.62a64.6,64.6,0,0,0,1.29-12.55l11.4.51a92.9,92.9,0,0,1-.52,9.7,28,28,0,0,1-2.38,8.94,17.09,17.09,0,0,1-5.34,6.6q-3.47,2.59-9.38,2.59a15.59,15.59,0,0,1-9.07-2.54,17.67,17.67,0,0,1-5.91-7.37A42.29,42.29,0,0,1,217,386.17a114.4,114.4,0,0,1-1-15.9,86.93,86.93,0,0,1,1.5-17.53,39.51,39.51,0,0,1,4.09-11.63,16.9,16.9,0,0,1,6.06-6.45,14.89,14.89,0,0,1,7.51-2q5.8,0,9.28,2.39a15.4,15.4,0,0,1,5.29,6.25,27.24,27.24,0,0,1,2.33,8.74,93.41,93.41,0,0,1,.52,9.86Z"/><path class="cls-1" d="M265.65,345.28H254V334.1h36.68v11.18H279.12v61.16H265.65Z"/><path class="cls-1" d="M293,334.1h13.47v72.34H293Z"/><path class="cls-1" d="M311.53,370.27a96,96,0,0,1,1.4-17.88,36.48,36.48,0,0,1,4-11.58,15.85,15.85,0,0,1,6.22-6.25,18.32,18.32,0,0,1,16.17,0,15.88,15.88,0,0,1,6.22,6.25,36.53,36.53,0,0,1,4,11.58,114.94,114.94,0,0,1,0,35.76,36.51,36.51,0,0,1-4,11.58A15.86,15.86,0,0,1,339.3,406a18.32,18.32,0,0,1-16.17,0,15.84,15.84,0,0,1-6.22-6.25,36.46,36.46,0,0,1-4-11.58A96,96,0,0,1,311.53,370.27Zm14.71,7.62q0,5.89.36,9.55a31.91,31.91,0,0,0,1,5.74,5.41,5.41,0,0,0,1.55,2.79,3.37,3.37,0,0,0,4.14,0,5.41,5.41,0,0,0,1.55-2.79,32.18,32.18,0,0,0,1-5.74q.36-3.66.36-9.55V362.65q0-5.89-.36-9.55a31,31,0,0,0-1-5.69,5.74,5.74,0,0,0-1.55-2.79,3.2,3.2,0,0,0-4.14,0,5.73,5.73,0,0,0-1.55,2.79,30.73,30.73,0,0,0-1,5.69q-.36,3.66-.36,9.55Z"/><path class="cls-1" d="M355.7,334.1h13.16l12.33,38.2h.21V334.1h10.78v72.34H381.71l-14.41-43.79h-.21v43.79H355.7Z"/><path class="cls-1" d="M416.32,334.1H428q8.5,0,13.42,2.59a17.52,17.52,0,0,1,7.46,7.32,30.37,30.37,0,0,1,3.21,11.38,148.8,148.8,0,0,1,.67,14.88q0,7.83-.62,14.48a34.26,34.26,0,0,1-2.9,11.48,17,17,0,0,1-6.79,7.52q-4.51,2.69-12.28,2.69H416.32Zm13.47,61.16a11.55,11.55,0,0,0,5-.86,5.6,5.6,0,0,0,2.64-3.51,29.11,29.11,0,0,0,1.09-7.57q.21-4.93.21-13.16t-.21-13.11a28.23,28.23,0,0,0-1.09-7.47,5.58,5.58,0,0,0-2.64-3.45,11.57,11.57,0,0,0-5-.86Z"/><path class="cls-1" d="M458.4,334.1h30.47v11.18h-17v18.49h12.54v11.79H471.87v19.71h17.72v11.18H458.4Z"/><path class="cls-1" d="M503.45,385.51q0,1.52.1,3.45a15.48,15.48,0,0,0,.62,3.66,6.62,6.62,0,0,0,1.71,2.9,4.6,4.6,0,0,0,3.37,1.17,5.49,5.49,0,0,0,2.8-.66,5.65,5.65,0,0,0,1.87-1.73,7.24,7.24,0,0,0,1-2.29,9.46,9.46,0,0,0,.31-2.34,9.73,9.73,0,0,0-1.81-5.79,28.32,28.32,0,0,0-4.51-4.88q-2.7-2.33-5.91-4.77a40.76,40.76,0,0,1-5.91-5.49,28.22,28.22,0,0,1-4.51-7,22.28,22.28,0,0,1-1.81-9.35,25.3,25.3,0,0,1,1.14-7.67,18.46,18.46,0,0,1,3.32-6.25,15.91,15.91,0,0,1,5.44-4.22,19.06,19.06,0,0,1,15.29.05,14,14,0,0,1,5.23,4.52,20.49,20.49,0,0,1,3,7,41.84,41.84,0,0,1,1.09,8.94h-12c0-1,0-2.15-.1-3.4a16.71,16.71,0,0,0-.57-3.56A6.15,6.15,0,0,0,511,345a4.26,4.26,0,0,0-3.11-1.12,4.37,4.37,0,0,0-3.73,1.83,7.86,7.86,0,0,0-1.35,4.78,9.4,9.4,0,0,0,1.81,5.59,29.49,29.49,0,0,0,4.51,4.93q2.69,2.39,5.91,4.93a42.38,42.38,0,0,1,5.91,5.69,30.24,30.24,0,0,1,4.51,7.11,22,22,0,0,1,1.81,9.25,24.66,24.66,0,0,1-1.19,7.77,18.22,18.22,0,0,1-3.52,6.3,16.65,16.65,0,0,1-5.8,4.27,19.29,19.29,0,0,1-8,1.58,16.45,16.45,0,0,1-8.76-2.08,15.44,15.44,0,0,1-5.29-5.33,21,21,0,0,1-2.59-7.21,45.92,45.92,0,0,1-.67-7.72Z"/><path class="cls-1" d="M530.69,334.1h13.47v72.34H530.69Z"/><path class="cls-1" d="M574,359.91q0-1.22.05-3.91a31.51,31.51,0,0,0-.36-5.38,15.61,15.61,0,0,0-1.45-4.72,3.4,3.4,0,0,0-3.21-2,3.69,3.69,0,0,0-2.33.86,7.14,7.14,0,0,0-1.87,3.61,43.63,43.63,0,0,0-1.19,7.92q-.42,5.18-.41,13.92,0,8.94.41,14.17a40.13,40.13,0,0,0,1.24,8,6.53,6.53,0,0,0,2,3.56,4.75,4.75,0,0,0,2.75.81,3.51,3.51,0,0,0,3-1.63,11,11,0,0,0,1.66-3.81,27.4,27.4,0,0,0,.67-4.42q.16-2.23.16-3.56h-5V372.71h16.37v33.73h-5.7L579,401.66a16.07,16.07,0,0,1-4.35,4.27,10.88,10.88,0,0,1-6.32,1.93,15.59,15.59,0,0,1-9.07-2.54,17.67,17.67,0,0,1-5.91-7.37,42.29,42.29,0,0,1-3.21-11.79,114.4,114.4,0,0,1-1-15.9,86.93,86.93,0,0,1,1.5-17.53,39.51,39.51,0,0,1,4.09-11.63,16.9,16.9,0,0,1,6.06-6.45,14.89,14.89,0,0,1,7.51-2,23.4,23.4,0,0,1,6.43.91,13,13,0,0,1,5.7,3.4,18.13,18.13,0,0,1,4,6.91,34.68,34.68,0,0,1,1.55,11.33v4.67Z"/><path class="cls-1" d="M592.08,334.1h13.16l12.33,38.2h.21V334.1h10.78v72.34H618.09l-14.41-43.79h-.21v43.79h-11.4Z"/><path class="cls-1" d="M634.69,393.23h13.47v13.21H634.69Z"/><path class="cls-1" d="M11.61,438.41H0V427.23H36.68v11.18H25.08v61.16H11.61Z"/><path class="cls-1" d="M39.23,427.23H52.71v29.06h8.5V427.23H74.68v72.34H61.2V468.89h-8.5v30.68H39.23Z"/><path class="cls-1" d="M81.25,427.23H94.73v72.34H81.25Z"/><path class="cls-1" d="M101.13,427.23h13.16l12.33,38.2h.21v-38.2h10.78v72.34H127.14l-14.41-43.79h-.21v43.79h-11.4Z"/><path class="cls-1" d="M144.25,427.23h13.47v30.28h.21l11.19-30.28h12l-10.05,24.28,12.13,48.06h-13l-7.46-32.41h-.21l-4.87,11.38v21H144.25Z"/><path class="cls-1" d="M195.55,478.64q0,1.52.1,3.45a15.48,15.48,0,0,0,.62,3.66,6.62,6.62,0,0,0,1.71,2.9,4.6,4.6,0,0,0,3.37,1.17,5.49,5.49,0,0,0,2.8-.66,5.65,5.65,0,0,0,1.87-1.73,7.24,7.24,0,0,0,1-2.29,9.46,9.46,0,0,0,.31-2.34,9.73,9.73,0,0,0-1.81-5.79,28.32,28.32,0,0,0-4.51-4.88q-2.7-2.33-5.91-4.77a40.76,40.76,0,0,1-5.91-5.49,28.22,28.22,0,0,1-4.51-7,22.28,22.28,0,0,1-1.81-9.35,25.3,25.3,0,0,1,1.14-7.67,18.46,18.46,0,0,1,3.32-6.25,15.91,15.91,0,0,1,5.44-4.22,19.06,19.06,0,0,1,15.29.05,14,14,0,0,1,5.23,4.52,20.49,20.49,0,0,1,3,7,41.84,41.84,0,0,1,1.09,8.94h-12c0-1,0-2.15-.1-3.4a16.71,16.71,0,0,0-.57-3.56,6.15,6.15,0,0,0-1.61-2.79A4.26,4.26,0,0,0,200,437a4.37,4.37,0,0,0-3.73,1.83,7.86,7.86,0,0,0-1.35,4.78,9.4,9.4,0,0,0,1.81,5.59,29.49,29.49,0,0,0,4.51,4.93q2.69,2.39,5.91,4.93a42.38,42.38,0,0,1,5.91,5.69,30.24,30.24,0,0,1,4.51,7.11,22,22,0,0,1,1.81,9.25,24.66,24.66,0,0,1-1.19,7.77,18.22,18.22,0,0,1-3.52,6.3,16.65,16.65,0,0,1-5.8,4.27,19.29,19.29,0,0,1-8,1.58,16.45,16.45,0,0,1-8.76-2.08,15.44,15.44,0,0,1-5.29-5.33,21,21,0,0,1-2.59-7.21,45.92,45.92,0,0,1-.67-7.72Z"/><path class="cls-1" d="M246.84,438.41H235.23V427.23h36.68v11.18H260.31v61.16H246.84Z"/><path class="cls-1" d="M274.47,427.23h13.47v29.06h8.5V427.23h13.47v72.34H296.44V468.89h-8.5v30.68H274.47Z"/><path class="cls-1" d="M316.73,427.23H347.2v11.18h-17V456.9h12.54v11.79H330.2v19.71h17.72v11.18H316.73Z"/><path class="cls-1" d="M363.15,427.23h13.16l6.32,50.8h.21l6.94-50.8h10.88l-11.09,72.34H374.14Z"/><path class="cls-1" d="M403.69,427.23h13.47v72.34H403.69Z"/><path class="cls-1" d="M423.57,427.23h13.16l12.33,38.2h.21v-38.2H460v72.34H449.58l-14.41-43.79H435v43.79h-11.4Z"/><path class="cls-1" d="M474,438.41H462.43V427.23h36.68v11.18H487.51v61.16H474Z"/><path class="cls-1" d="M505.67,427.23h19.48l9.12,72.34h-13l-2-16.05H508.47l-1.87,16.05H495.31Zm8.6,11.18h-.21L509.82,473h8.39Z"/><path class="cls-1" d="M560.17,453q0-1.22.05-3.91a31.51,31.51,0,0,0-.36-5.38,15.61,15.61,0,0,0-1.45-4.72,3.4,3.4,0,0,0-3.21-2,3.69,3.69,0,0,0-2.33.86,7.14,7.14,0,0,0-1.87,3.61,43.63,43.63,0,0,0-1.19,7.92q-.42,5.18-.41,13.92,0,8.94.41,14.17a40.13,40.13,0,0,0,1.24,8,6.53,6.53,0,0,0,2,3.56,4.75,4.75,0,0,0,2.75.81,3.51,3.51,0,0,0,3-1.63,11,11,0,0,0,1.66-3.81,27.4,27.4,0,0,0,.67-4.42q.16-2.23.16-3.56h-5V465.84h16.37v33.73H567l-1.87-4.78a16.07,16.07,0,0,1-4.35,4.27,10.88,10.88,0,0,1-6.32,1.93,15.59,15.59,0,0,1-9.07-2.54,17.67,17.67,0,0,1-5.91-7.37,42.29,42.29,0,0,1-3.21-11.79,114.4,114.4,0,0,1-1-15.9,86.93,86.93,0,0,1,1.5-17.53,39.51,39.51,0,0,1,4.09-11.63,16.9,16.9,0,0,1,6.06-6.45,14.89,14.89,0,0,1,7.51-2,23.4,23.4,0,0,1,6.43.91,13,13,0,0,1,5.7,3.4,18.13,18.13,0,0,1,4,6.91,34.68,34.68,0,0,1,1.55,11.33V453Z"/><path class="cls-1" d="M578.44,427.23h30.47v11.18h-17V456.9h12.54v11.79H591.91v19.71h17.72v11.18H578.44Z"/><path class="cls-1" d="M4.87,520.36H22.8l6,37.08H29l6.32-37.08H52.85V592.7h-12v-53h-.21l-9.12,53H24l-9-53h-.21v53H4.87Z"/><path class="cls-1" d="M57.73,556.53a96,96,0,0,1,1.4-17.88,36.48,36.48,0,0,1,4-11.58,15.85,15.85,0,0,1,6.22-6.25,18.32,18.32,0,0,1,16.17,0,15.88,15.88,0,0,1,6.22,6.25,36.53,36.53,0,0,1,4,11.58,114.94,114.94,0,0,1,0,35.76,36.51,36.51,0,0,1-4,11.58,15.86,15.86,0,0,1-6.22,6.25,18.32,18.32,0,0,1-16.17,0A15.84,15.84,0,0,1,63.12,586a36.46,36.46,0,0,1-4-11.58A96,96,0,0,1,57.73,556.53Zm14.71,7.62q0,5.89.36,9.55a31.91,31.91,0,0,0,1,5.74,5.41,5.41,0,0,0,1.55,2.79,3.37,3.37,0,0,0,4.14,0A5.41,5.41,0,0,0,81,579.44a32.18,32.18,0,0,0,1-5.74q.36-3.66.36-9.55V548.91q0-5.89-.36-9.55a31,31,0,0,0-1-5.69,5.74,5.74,0,0,0-1.55-2.79,3.2,3.2,0,0,0-4.14,0,5.73,5.73,0,0,0-1.55,2.79,30.73,30.73,0,0,0-1,5.69q-.36,3.66-.36,9.55Z"/><path class="cls-1" d="M102.14,520.36h11.71q8.5,0,13.42,2.59a17.52,17.52,0,0,1,7.46,7.32,30.37,30.37,0,0,1,3.21,11.38,148.8,148.8,0,0,1,.67,14.88q0,7.83-.62,14.48a34.26,34.26,0,0,1-2.9,11.48A17,17,0,0,1,128.3,590q-4.51,2.69-12.28,2.69H102.14Zm13.47,61.16a11.55,11.55,0,0,0,5-.86,5.6,5.6,0,0,0,2.64-3.51,29.11,29.11,0,0,0,1.09-7.57q.21-4.93.21-13.16t-.21-13.11a28.23,28.23,0,0,0-1.09-7.47,5.58,5.58,0,0,0-2.64-3.45,11.57,11.57,0,0,0-5-.86Z"/><path class="cls-1" d="M144.21,520.36h30.47v11.18h-17V550h12.54v11.79H157.68v19.71H175.4V592.7H144.21Z"/><path class="cls-1" d="M178.66,520.36h17.93l6,37.08h.21l6.32-37.08h17.51V592.7h-12v-53h-.21l-9.12,53h-7.46l-9-53h-.21v53h-9.95Z"/><path class="cls-1" d="M257,531.54H245.4V520.36h36.68v11.18H270.48V592.7H257Z"/><path class="cls-1" d="M282.22,556.53a96,96,0,0,1,1.4-17.88,36.48,36.48,0,0,1,4-11.58,15.85,15.85,0,0,1,6.22-6.25,18.32,18.32,0,0,1,16.17,0,15.88,15.88,0,0,1,6.22,6.25,36.53,36.53,0,0,1,4,11.58,114.94,114.94,0,0,1,0,35.76,36.51,36.51,0,0,1-4,11.58,15.86,15.86,0,0,1-6.22,6.25,18.32,18.32,0,0,1-16.17,0,15.84,15.84,0,0,1-6.22-6.25,36.46,36.46,0,0,1-4-11.58A96,96,0,0,1,282.22,556.53Zm14.71,7.62q0,5.89.36,9.55a31.91,31.91,0,0,0,1,5.74,5.41,5.41,0,0,0,1.55,2.79,3.37,3.37,0,0,0,4.14,0,5.41,5.41,0,0,0,1.55-2.79,32.18,32.18,0,0,0,1-5.74q.36-3.66.36-9.55V548.91q0-5.89-.36-9.55a31,31,0,0,0-1-5.69,5.74,5.74,0,0,0-1.55-2.79,3.2,3.2,0,0,0-4.14,0,5.73,5.73,0,0,0-1.55,2.79,30.73,30.73,0,0,0-1,5.69q-.36,3.66-.36,9.55Z"/><path class="cls-1" d="M326.39,520.36h13.16l12.33,38.2h.21v-38.2h10.78V592.7H352.41L338,548.91h-.21V592.7h-11.4Z"/><path class="cls-1" d="M369.51,520.36H400v11.18H383V550h12.54v11.79H383v19.71h17.72V592.7H369.51Z"/><path class="cls-1" d="M421.43,520.36H434.9V592.7H421.43Z"/><path class="cls-1" d="M451.47,571.77q0,1.52.1,3.45a15.48,15.48,0,0,0,.62,3.66,6.62,6.62,0,0,0,1.71,2.9,4.6,4.6,0,0,0,3.37,1.17,5.49,5.49,0,0,0,2.8-.66,5.65,5.65,0,0,0,1.87-1.73,7.24,7.24,0,0,0,1-2.29,9.46,9.46,0,0,0,.31-2.34,9.73,9.73,0,0,0-1.81-5.79,28.32,28.32,0,0,0-4.51-4.88q-2.7-2.33-5.91-4.77a40.76,40.76,0,0,1-5.91-5.49,28.22,28.22,0,0,1-4.51-7,22.28,22.28,0,0,1-1.81-9.35A25.3,25.3,0,0,1,440,531a18.46,18.46,0,0,1,3.32-6.25,15.91,15.91,0,0,1,5.44-4.22,19.06,19.06,0,0,1,15.29.05,14,14,0,0,1,5.23,4.52,20.49,20.49,0,0,1,3,7,41.84,41.84,0,0,1,1.09,8.94h-12c0-1,0-2.15-.1-3.4a16.71,16.71,0,0,0-.57-3.56,6.15,6.15,0,0,0-1.61-2.79,4.26,4.26,0,0,0-3.11-1.12,4.37,4.37,0,0,0-3.73,1.83,7.86,7.86,0,0,0-1.35,4.78,9.4,9.4,0,0,0,1.81,5.59,29.49,29.49,0,0,0,4.51,4.93q2.69,2.39,5.91,4.93a42.38,42.38,0,0,1,5.91,5.69,30.24,30.24,0,0,1,4.51,7.11,22,22,0,0,1,1.81,9.25,24.66,24.66,0,0,1-1.19,7.77,18.22,18.22,0,0,1-3.52,6.3,16.65,16.65,0,0,1-5.8,4.27,19.29,19.29,0,0,1-8,1.58A16.45,16.45,0,0,1,448,592a15.44,15.44,0,0,1-5.29-5.33,21,21,0,0,1-2.59-7.21,45.92,45.92,0,0,1-.67-7.72Z"/><path class="cls-1" d="M502.77,531.54H491.16V520.36h36.68v11.18H516.24V592.7H502.77Z"/><path class="cls-1" d="M530.39,520.36h13.47v29.06h8.5V520.36h13.47V592.7H552.36V562h-8.5V592.7H530.39Z"/><path class="cls-1" d="M572.65,520.36h30.47v11.18h-17V550h12.54v11.79H586.13v19.71h17.72V592.7H572.65Z"/><path class="cls-1" d="M14.61,664.9q0,1.52.1,3.45a15.48,15.48,0,0,0,.62,3.66,6.62,6.62,0,0,0,1.71,2.9,4.6,4.6,0,0,0,3.37,1.17,5.49,5.49,0,0,0,2.8-.66,5.65,5.65,0,0,0,1.87-1.73,7.24,7.24,0,0,0,1-2.29,9.46,9.46,0,0,0,.31-2.34,9.73,9.73,0,0,0-1.81-5.79,28.32,28.32,0,0,0-4.51-4.88q-2.7-2.33-5.91-4.77a40.76,40.76,0,0,1-5.91-5.49,28.22,28.22,0,0,1-4.51-7A22.28,22.28,0,0,1,2,631.78a25.3,25.3,0,0,1,1.14-7.67,18.46,18.46,0,0,1,3.32-6.25,15.91,15.91,0,0,1,5.44-4.22,17.1,17.1,0,0,1,7.51-1.57,17.08,17.08,0,0,1,7.77,1.63,14,14,0,0,1,5.23,4.52,20.49,20.49,0,0,1,3,7,41.84,41.84,0,0,1,1.09,8.94h-12c0-1,0-2.15-.1-3.4a16.71,16.71,0,0,0-.57-3.56,6.15,6.15,0,0,0-1.61-2.79,4.26,4.26,0,0,0-3.11-1.12,4.37,4.37,0,0,0-3.73,1.83A7.86,7.86,0,0,0,14,629.85a9.4,9.4,0,0,0,1.81,5.59,29.49,29.49,0,0,0,4.51,4.93q2.69,2.39,5.91,4.93A42.38,42.38,0,0,1,32.13,651a30.24,30.24,0,0,1,4.51,7.11,22,22,0,0,1,1.81,9.25,24.66,24.66,0,0,1-1.19,7.77,18.22,18.22,0,0,1-3.52,6.3,16.65,16.65,0,0,1-5.8,4.27,19.29,19.29,0,0,1-8,1.58,16.45,16.45,0,0,1-8.76-2.08,15.44,15.44,0,0,1-5.29-5.33,21,21,0,0,1-2.59-7.21,45.92,45.92,0,0,1-.67-7.72Z"/><path class="cls-1" d="M42.13,613.49H72.6v11.18h-17v18.49H68.15v11.79H55.61v19.71H73.33v11.18H42.13Z"/><path class="cls-1" d="M86.46,649,74.64,613.49H88.11l5.6,19.41h.21l5-19.41h11.5l-11,33.63,13.06,38.71H98.89l-6.53-21.74h-.21l-6.22,21.74H74.54Z"/><path class="cls-1" d="M115,613.49h13.47v72.34H115Z"/><path class="cls-1" d="M135.09,613.49h30.47v11.18h-17v18.49H161.1v11.79H148.56v19.71h17.72v11.18H135.09Z"/><path class="cls-1" d="M180.14,664.9q0,1.52.1,3.45a15.48,15.48,0,0,0,.62,3.66,6.62,6.62,0,0,0,1.71,2.9,4.6,4.6,0,0,0,3.37,1.17,5.49,5.49,0,0,0,2.8-.66,5.65,5.65,0,0,0,1.87-1.73,7.24,7.24,0,0,0,1-2.29,9.46,9.46,0,0,0,.31-2.34,9.73,9.73,0,0,0-1.81-5.79,28.32,28.32,0,0,0-4.51-4.88q-2.7-2.33-5.91-4.77a40.76,40.76,0,0,1-5.91-5.49,28.22,28.22,0,0,1-4.51-7,22.28,22.28,0,0,1-1.81-9.35,25.3,25.3,0,0,1,1.14-7.67,18.46,18.46,0,0,1,3.32-6.25,15.91,15.91,0,0,1,5.44-4.22,19.06,19.06,0,0,1,15.29.05,14,14,0,0,1,5.23,4.52,20.49,20.49,0,0,1,3,7,41.84,41.84,0,0,1,1.09,8.94H190c0-1,0-2.15-.1-3.4a16.71,16.71,0,0,0-.57-3.56,6.15,6.15,0,0,0-1.61-2.79,4.26,4.26,0,0,0-3.11-1.12,4.37,4.37,0,0,0-3.73,1.83,7.86,7.86,0,0,0-1.35,4.78,9.4,9.4,0,0,0,1.81,5.59,29.49,29.49,0,0,0,4.51,4.93q2.69,2.39,5.91,4.93a42.38,42.38,0,0,1,5.91,5.69,30.24,30.24,0,0,1,4.51,7.11,22,22,0,0,1,1.81,9.25,24.66,24.66,0,0,1-1.19,7.77,18.22,18.22,0,0,1-3.52,6.3,16.65,16.65,0,0,1-5.8,4.27,19.29,19.29,0,0,1-8,1.58,16.45,16.45,0,0,1-8.76-2.08,15.44,15.44,0,0,1-5.29-5.33,21,21,0,0,1-2.59-7.21,45.92,45.92,0,0,1-.67-7.72Z"/><path class="cls-1" d="M215.07,624.67H203.46V613.49h36.68v11.18H228.54v61.16H215.07Z"/><path class="cls-1" d="M258.9,613.49h17.93l6,37.08H283l6.32-37.08h17.51v72.34h-12v-53h-.21l-9.12,53h-7.46l-9-53h-.21v53H258.9Z"/><path class="cls-1" d="M313.18,613.49h13.47v56a18.09,18.09,0,0,0,.16,2.39,6.19,6.19,0,0,0,.67,2.13,3.87,3.87,0,0,0,1.45,1.52,4.57,4.57,0,0,0,2.38.56,4,4,0,0,0,3.89-2,9.45,9.45,0,0,0,1.09-4.62v-56h11.4v54.25q0,10.67-4.56,15.09t-12.64,4.42a22.12,22.12,0,0,1-7.1-1.07,13.78,13.78,0,0,1-5.44-3.35,15.13,15.13,0,0,1-3.52-6,28.84,28.84,0,0,1-1.24-9.09Z"/><path class="cls-1" d="M363.92,664.9q0,1.52.1,3.45a15.48,15.48,0,0,0,.62,3.66,6.62,6.62,0,0,0,1.71,2.9,4.6,4.6,0,0,0,3.37,1.17,5.49,5.49,0,0,0,2.8-.66,5.65,5.65,0,0,0,1.87-1.73,7.24,7.24,0,0,0,1-2.29,9.46,9.46,0,0,0,.31-2.34,9.73,9.73,0,0,0-1.81-5.79,28.32,28.32,0,0,0-4.51-4.88q-2.7-2.33-5.91-4.77a40.76,40.76,0,0,1-5.91-5.49,28.22,28.22,0,0,1-4.51-7,22.28,22.28,0,0,1-1.81-9.35,25.3,25.3,0,0,1,1.14-7.67,18.46,18.46,0,0,1,3.32-6.25,15.91,15.91,0,0,1,5.44-4.22,19.06,19.06,0,0,1,15.29.05,14,14,0,0,1,5.23,4.52,20.49,20.49,0,0,1,3,7,41.84,41.84,0,0,1,1.09,8.94h-12c0-1,0-2.15-.1-3.4a16.71,16.71,0,0,0-.57-3.56,6.15,6.15,0,0,0-1.61-2.79,4.26,4.26,0,0,0-3.11-1.12,4.37,4.37,0,0,0-3.73,1.83,7.86,7.86,0,0,0-1.35,4.78,9.4,9.4,0,0,0,1.81,5.59,29.49,29.49,0,0,0,4.51,4.93q2.69,2.39,5.91,4.93a42.38,42.38,0,0,1,5.91,5.69,30.24,30.24,0,0,1,4.51,7.11,22,22,0,0,1,1.81,9.25,24.66,24.66,0,0,1-1.19,7.77,18.22,18.22,0,0,1-3.52,6.3,16.65,16.65,0,0,1-5.8,4.27,19.29,19.29,0,0,1-8,1.58,16.45,16.45,0,0,1-8.76-2.08,15.44,15.44,0,0,1-5.29-5.33,21,21,0,0,1-2.59-7.21,45.92,45.92,0,0,1-.67-7.72Z"/><path class="cls-1" d="M391.15,613.49h13.47v72.34H391.15Z"/><path class="cls-1" d="M434.2,639.71q0-9-1.19-12.75t-3.68-3.71a3.83,3.83,0,0,0-2.07.66q-1,.66-1.81,3.3a43.92,43.92,0,0,0-1.24,7.92q-.47,5.28-.47,14.53,0,8.94.31,14.17a52.65,52.65,0,0,0,.93,8q.62,2.74,1.71,3.5a4.49,4.49,0,0,0,2.64.76q3.31,0,4.4-4.62A64.6,64.6,0,0,0,435,658.91l11.4.51a92.9,92.9,0,0,1-.52,9.7,28,28,0,0,1-2.38,8.94,17.09,17.09,0,0,1-5.34,6.6q-3.47,2.59-9.38,2.59a15.59,15.59,0,0,1-9.07-2.54,17.67,17.67,0,0,1-5.91-7.37,42.29,42.29,0,0,1-3.21-11.79,114.4,114.4,0,0,1-1-15.9,86.93,86.93,0,0,1,1.5-17.53,39.51,39.51,0,0,1,4.09-11.63,16.9,16.9,0,0,1,6.06-6.45,14.89,14.89,0,0,1,7.51-2q5.8,0,9.28,2.39a15.4,15.4,0,0,1,5.29,6.25,27.24,27.24,0,0,1,2.33,8.74,93.41,93.41,0,0,1,.52,9.86Z"/><path class="cls-1" d="M465.6,613.49h30.47v11.18h-17v18.49h12.54v11.79H479.07v19.71h17.72v11.18H465.6Z"/><path class="cls-1" d="M498.11,613.49h13.16l6.32,50.8h.21l6.94-50.8h10.88l-11.09,72.34H509.1Z"/><path class="cls-1" d="M538.89,613.49h30.47v11.18h-17v18.49H564.9v11.79H552.36v19.71h17.72v11.18H538.89Z"/><path class="cls-1" d="M573.58,613.49h15.13a33.28,33.28,0,0,1,8.71,1.07,16.75,16.75,0,0,1,6.74,3.5,16.17,16.17,0,0,1,4.35,6.35,26.09,26.09,0,0,1,1.55,9.6,34.57,34.57,0,0,1-.36,4.88,23,23,0,0,1-1.3,5,18.76,18.76,0,0,1-2.44,4.47,12.32,12.32,0,0,1-3.78,3.35l8,34.14H596.58l-6.32-31.09H587v31.09H573.58ZM587,644.18h2.69a5.57,5.57,0,0,0,3.16-.86,7,7,0,0,0,2.12-2.24,9.86,9.86,0,0,0,1.19-3.2,19.32,19.32,0,0,0,.36-3.76q0-5.89-2-8a7.24,7.24,0,0,0-5.44-2.08H587Z"/><path class="cls-1" d="M614.38,672.62h13.47v13.21H614.38Z"/><rect class="cls-1" x="3.54" y="71.06" width="585.96" height="16.93"/><path class="cls-1" d="M3.72.89H12q7,0,10.67,3.13T26.34,14.5a23.94,23.94,0,0,1-.61,5.59,11.63,11.63,0,0,1-1.95,4.31,9.1,9.1,0,0,1-3.42,2.78,11.58,11.58,0,0,1-5,1H12V46.39H3.72Zm8.37,20.64h.7A7.82,7.82,0,0,0,15,21.25a3.44,3.44,0,0,0,1.63-1.05,5.13,5.13,0,0,0,1-2.11A13.69,13.69,0,0,0,18,14.7a12.72,12.72,0,0,0-.45-3.83,4.68,4.68,0,0,0-1.18-2,3.07,3.07,0,0,0-1.69-.8,15,15,0,0,0-2-.13h-.64Z"/><path class="cls-1" d="M31.3.89h12l5.62,45.49H41l-1.21-10.1H33l-1.15,10.1h-7Zm5.3,7h-.13L33.86,29.65H39Z"/><path class="cls-1" d="M51.13.89H61.35a13.93,13.93,0,0,1,3.9.58,10,10,0,0,1,3.61,1.92,10.19,10.19,0,0,1,2.68,3.55A12.61,12.61,0,0,1,72.6,12.4,11.8,11.8,0,0,1,70.81,19a8.5,8.5,0,0,1-5.62,3.58v.13a10.27,10.27,0,0,1,6.29,3.87,12.15,12.15,0,0,1,2,7.19,14.13,14.13,0,0,1-1,5.5,11.91,11.91,0,0,1-2.62,4,10.7,10.7,0,0,1-3.74,2.4,12.33,12.33,0,0,1-4.41.8H51.13Zm8.31,18.66q3.13,0,4.18-1.47a7.83,7.83,0,0,0,1.05-4.54,17.92,17.92,0,0,0-.22-3.13,3.58,3.58,0,0,0-.83-1.85A2.93,2.93,0,0,0,62,7.73a14.19,14.19,0,0,0-2.56-.19Zm0,20.19a9.71,9.71,0,0,0,3-.38,3.53,3.53,0,0,0,1.76-1.18A4.47,4.47,0,0,0,65,36.1,21,21,0,0,0,65.19,33,15.23,15.23,0,0,0,65,30.29a4.7,4.7,0,0,0-.86-2A3.87,3.87,0,0,0,62.34,27a8.52,8.52,0,0,0-2.91-.42Z"/><path class="cls-1" d="M76.18.89h8.31V39.36H95.1v7H76.18Z"/><path class="cls-1" d="M96,23.64a61.57,61.57,0,0,1,.86-11.25,23.24,23.24,0,0,1,2.46-7.28,9.88,9.88,0,0,1,3.83-3.93,11.1,11.1,0,0,1,10,0,9.89,9.89,0,0,1,3.83,3.93,23.24,23.24,0,0,1,2.46,7.28,61.56,61.56,0,0,1,.86,11.25,61.56,61.56,0,0,1-.86,11.25,23.23,23.23,0,0,1-2.46,7.28,9.88,9.88,0,0,1-3.83,3.93,11.1,11.1,0,0,1-10,0,9.87,9.87,0,0,1-3.83-3.93,23.23,23.23,0,0,1-2.46-7.28A61.57,61.57,0,0,1,96,23.64Zm9.07,4.79q0,3.71.22,6a20.53,20.53,0,0,0,.61,3.61,3.42,3.42,0,0,0,1,1.76,2,2,0,0,0,2.56,0,3.42,3.42,0,0,0,1-1.76,20.52,20.52,0,0,0,.61-3.61q.22-2.3.22-6V18.85q0-3.7-.22-6a19.74,19.74,0,0,0-.61-3.58,3.62,3.62,0,0,0-1-1.76,1.94,1.94,0,0,0-2.56,0,3.62,3.62,0,0,0-1,1.76,19.75,19.75,0,0,0-.61,3.58q-.23,2.3-.22,6Z"/><path class="cls-1" d="M142.5,33.23q0,1,.06,2.17a9.91,9.91,0,0,0,.38,2.3A4.19,4.19,0,0,0,144,39.52a2.81,2.81,0,0,0,2.08.74,3.34,3.34,0,0,0,1.73-.42A3.52,3.52,0,0,0,149,38.75a4.58,4.58,0,0,0,.64-1.44,6,6,0,0,0,.19-1.47,6.2,6.2,0,0,0-1.12-3.64,17.66,17.66,0,0,0-2.78-3.07q-1.66-1.47-3.64-3a25.32,25.32,0,0,1-3.64-3.45,17.78,17.78,0,0,1-2.78-4.41,14.25,14.25,0,0,1-1.12-5.88,16.18,16.18,0,0,1,.7-4.82,11.68,11.68,0,0,1,2-3.93A9.84,9.84,0,0,1,140.81,1a11.54,11.54,0,0,1,9.42,0,8.66,8.66,0,0,1,3.23,2.84,13,13,0,0,1,1.85,4.38,26.81,26.81,0,0,1,.67,5.62h-7.41q0-1-.06-2.14a10.71,10.71,0,0,0-.35-2.24,3.88,3.88,0,0,0-1-1.76,2.59,2.59,0,0,0-1.92-.7A2.68,2.68,0,0,0,143,8.18a5,5,0,0,0-.83,3,6,6,0,0,0,1.12,3.51,18.42,18.42,0,0,0,2.78,3.1q1.66,1.5,3.64,3.1a26.37,26.37,0,0,1,3.64,3.58,19.13,19.13,0,0,1,2.78,4.47,14.11,14.11,0,0,1,1.12,5.81,15.78,15.78,0,0,1-.74,4.89,11.54,11.54,0,0,1-2.17,4,10.29,10.29,0,0,1-3.58,2.68,11.68,11.68,0,0,1-5,1,10,10,0,0,1-5.4-1.31,9.62,9.62,0,0,1-3.26-3.35,13.36,13.36,0,0,1-1.6-4.54,29.46,29.46,0,0,1-.42-4.86Z"/><path class="cls-1" d="M164.12.89h12l5.62,45.49h-8l-1.21-10.1h-6.71l-1.15,10.1h-7Zm5.3,7h-.13l-2.62,21.72h5.17Z"/><path class="cls-1" d="M183.95.89h8.31V39.36h10.61v7H183.95Z"/><path class="cls-1" d="M219.16,17.12q0-.77,0-2.46a20.14,20.14,0,0,0-.22-3.39,9.93,9.93,0,0,0-.89-3,2.09,2.09,0,0,0-2-1.28,2.25,2.25,0,0,0-1.44.54,4.51,4.51,0,0,0-1.15,2.27,27.94,27.94,0,0,0-.73,5q-.26,3.26-.26,8.75t.26,8.91a25.66,25.66,0,0,0,.77,5,4.12,4.12,0,0,0,1.25,2.24,2.88,2.88,0,0,0,1.69.51,2.15,2.15,0,0,0,1.85-1,7,7,0,0,0,1-2.4,17.45,17.45,0,0,0,.42-2.78q.1-1.4.1-2.24h-3.07V25.17h10.1V46.39h-3.51l-1.15-3a10,10,0,0,1-2.68,2.68,6.61,6.61,0,0,1-3.9,1.21,9.47,9.47,0,0,1-5.59-1.6,11.06,11.06,0,0,1-3.64-4.63,27,27,0,0,1-2-7.41,73.36,73.36,0,0,1-.61-10,55.69,55.69,0,0,1,.93-11,25.15,25.15,0,0,1,2.52-7.32A10.55,10.55,0,0,1,211,1.25,9,9,0,0,1,215.64,0a14.14,14.14,0,0,1,4,.58,8,8,0,0,1,3.51,2.14,11.44,11.44,0,0,1,2.49,4.34,22.24,22.24,0,0,1,1,7.12v2.94Z"/><path class="cls-1" d="M234.88.89h12l5.62,45.49h-8l-1.21-10.1H236.6l-1.15,10.1h-7Zm5.3,7h-.13l-2.62,21.72h5.17Z"/><path class="cls-1" d="M254.7.89h7.22a17.62,17.62,0,0,1,8.27,1.63,10.9,10.9,0,0,1,4.6,4.6,19.39,19.39,0,0,1,2,7.16q.41,4.19.42,9.36,0,4.92-.38,9.11A21.88,21.88,0,0,1,275,40a10.63,10.63,0,0,1-4.18,4.73,14.51,14.51,0,0,1-7.57,1.69H254.7ZM263,39.36a7,7,0,0,0,3.07-.54,3.51,3.51,0,0,0,1.63-2.21,18.63,18.63,0,0,0,.67-4.76q.13-3.1.13-8.27t-.13-8.24a18.07,18.07,0,0,0-.67-4.7,3.5,3.5,0,0,0-1.63-2.17A7,7,0,0,0,263,7.92Z"/><path class="cls-1" d="M279.71,23.64a61.57,61.57,0,0,1,.86-11.25A23.24,23.24,0,0,1,283,5.11a9.88,9.88,0,0,1,3.83-3.93,11.1,11.1,0,0,1,10,0,9.89,9.89,0,0,1,3.83,3.93,23.24,23.24,0,0,1,2.46,7.28A61.56,61.56,0,0,1,304,23.64a61.56,61.56,0,0,1-.86,11.25,23.23,23.23,0,0,1-2.46,7.28,9.88,9.88,0,0,1-3.83,3.93,11.1,11.1,0,0,1-10,0A9.87,9.87,0,0,1,283,42.17a23.23,23.23,0,0,1-2.46-7.28A61.57,61.57,0,0,1,279.71,23.64Zm9.07,4.79q0,3.71.22,6a20.53,20.53,0,0,0,.61,3.61,3.42,3.42,0,0,0,1,1.76,2,2,0,0,0,2.56,0,3.42,3.42,0,0,0,1-1.76,20.52,20.52,0,0,0,.61-3.61q.22-2.3.22-6V18.85q0-3.7-.22-6a19.74,19.74,0,0,0-.61-3.58,3.62,3.62,0,0,0-1-1.76,1.94,1.94,0,0,0-2.56,0,3.62,3.62,0,0,0-1,1.76,19.75,19.75,0,0,0-.61,3.58q-.23,2.3-.22,6Z"/><path class="cls-1" d="M331.53,0h5.75L323,47.28h-5.62Z"/><path class="cls-1" d="M351.84.89h7.22a17.62,17.62,0,0,1,8.27,1.63,10.9,10.9,0,0,1,4.6,4.6,19.39,19.39,0,0,1,2,7.16q.41,4.19.42,9.36,0,4.92-.38,9.11A21.88,21.88,0,0,1,372.16,40,10.63,10.63,0,0,1,368,44.69a14.51,14.51,0,0,1-7.57,1.69h-8.56Zm8.31,38.46a7,7,0,0,0,3.07-.54,3.51,3.51,0,0,0,1.63-2.21,18.63,18.63,0,0,0,.67-4.76q.13-3.1.13-8.27t-.13-8.24a18.07,18.07,0,0,0-.67-4.7,3.5,3.5,0,0,0-1.63-2.17,7,7,0,0,0-3.07-.54Z"/><path class="cls-1" d="M377.8.89h8.31V46.39H377.8Z"/><path class="cls-1" d="M404.65,17.12q0-.77,0-2.46a20.14,20.14,0,0,0-.22-3.39,9.93,9.93,0,0,0-.89-3,2.09,2.09,0,0,0-2-1.28,2.25,2.25,0,0,0-1.44.54A4.51,4.51,0,0,0,399,9.84a27.94,27.94,0,0,0-.73,5q-.26,3.26-.26,8.75t.26,8.91a25.66,25.66,0,0,0,.77,5,4.12,4.12,0,0,0,1.25,2.24,2.88,2.88,0,0,0,1.69.51,2.15,2.15,0,0,0,1.85-1,7,7,0,0,0,1-2.4,17.45,17.45,0,0,0,.42-2.78q.1-1.4.1-2.24h-3.07V25.17h10.1V46.39h-3.51l-1.15-3A10,10,0,0,1,405,46.07a6.61,6.61,0,0,1-3.9,1.21,9.47,9.47,0,0,1-5.59-1.6,11.06,11.06,0,0,1-3.64-4.63,27,27,0,0,1-2-7.41,73.36,73.36,0,0,1-.61-10,55.69,55.69,0,0,1,.93-11,25.15,25.15,0,0,1,2.52-7.32,10.55,10.55,0,0,1,3.74-4.06A9,9,0,0,1,401.14,0a14.14,14.14,0,0,1,4,.58,8,8,0,0,1,3.51,2.14,11.44,11.44,0,0,1,2.49,4.34,22.24,22.24,0,0,1,1,7.12v2.94Z"/><path class="cls-1" d="M415.89.89h8.31V46.39h-8.31Z"/><path class="cls-1" d="M432.93,7.92h-7.16v-7h22.62v7h-7.16V46.39h-8.31Z"/><path class="cls-1" d="M452.58.89h12l5.62,45.49h-8L461,36.29h-6.71l-1.15,10.1h-7Zm5.3,7h-.13l-2.62,21.72h5.17Z"/><path class="cls-1" d="M472.41.89h8.31V39.36h10.61v7H472.41Z"/><path class="cls-1" d="M511.38.89h12L529,46.39h-8l-1.21-10.1h-6.71L512,46.39h-7Zm5.3,7h-.13l-2.62,21.72h5.17Z"/><path class="cls-1" d="M531.21.89h9.33a20.14,20.14,0,0,1,5.37.67,10.25,10.25,0,0,1,4.15,2.2,10.17,10.17,0,0,1,2.68,4,16.69,16.69,0,0,1,1,6,22.23,22.23,0,0,1-.22,3.07,14.68,14.68,0,0,1-.8,3.13,11.88,11.88,0,0,1-1.5,2.81,7.63,7.63,0,0,1-2.33,2.11l4.92,21.47h-8.37l-3.9-19.55h-2V46.39h-8.31Zm8.31,19.3h1.66a3.38,3.38,0,0,0,1.95-.54,4.37,4.37,0,0,0,1.31-1.41,6.29,6.29,0,0,0,.73-2,12.41,12.41,0,0,0,.22-2.36q0-3.7-1.25-5a4.41,4.41,0,0,0-3.35-1.31h-1.28Z"/><path class="cls-1" d="M561.35,7.92H554.2v-7h22.62v7h-7.16V46.39h-8.31Z"/></g></g></svg>