<?xml version="1.0" encoding="utf-8"?>
<!-- Generator: Adobe Illustrator 21.1.0, SVG Export Plug-In . SVG Version: 6.00 Build 0)  -->
<svg version="1.1" id="Layer_1" xmlns="http://www.w3.org/2000/svg" xmlns:xlink="http://www.w3.org/1999/xlink" x="0px" y="0px"
	 viewBox="0 0 1259 1252.6" style="enable-background:new 0 0 1259 1252.6;" xml:space="preserve">
<style type="text/css">
	.st0{fill:#DA2128;}
	.st1{fill:#231F20;}
	.st2{fill:#010101;}
	.st3{clip-path:url(#SVGID_3_);fill:#231F20;}
</style>
<title>Partners_1</title>
<rect x="33.8" y="72.5" class="st0" width="198.5" height="16.9"/>
<path class="st0" d="M33.8,0.9h8.3c9.4,0,14.3,3.8,14.3,13.6c0,8.2-3.2,13.7-11,13.7h-3.3v18.2h-8.3V0.9z M42.2,21.5h0.7
	c3.4,0,5.2-1.3,5.2-6.8c0-6.6-2.6-6.8-5.3-6.8h-0.6L42.2,21.5z"/>
<path class="st0" d="M62.8,0.9h12l5.6,45.5h-8l-1.2-10.1h-6.7l-1.1,10.1h-7L62.8,0.9z M68.1,7.9L68.1,7.9l-2.8,21.7h5.2L68.1,7.9z"
	/>
<path class="st0" d="M84,0.9h9.3c7.9,0,13.2,3.3,13.2,12.9c0,3.8-1.2,8.9-4.9,11.1l4.9,21.5h-8.4l-3.9-19.5h-2v19.6H84V0.9z
	 M92.3,20.2H94c3.1,0,4.2-3.1,4.2-6.3c0-4.9-1.8-6.3-4.6-6.3h-1.3C92.3,7.6,92.3,20.2,92.3,20.2z"/>
<path class="st0" d="M115.5,7.9h-7.2v-7H131v7h-7.2v38.5h-8.3V7.9z"/>
<path class="st0" d="M133.9,0.9h8.1l7.6,24h0.1v-24h6.6v45.5h-6.4L141,18.8h-0.1v27.5h-7V0.9z"/>
<path class="st0" d="M161.9,0.9h18.8v7h-10.5v11.6h7.7V27h-7.7v12.3h10.9v7h-19.2V0.9z"/>
<path class="st0" d="M184.8,0.9h9.3c7.9,0,13.2,3.3,13.2,12.9c0,3.8-1.1,8.9-4.9,11.1l4.9,21.5H199l-3.9-19.5h-2v19.6h-8.3V0.9z
	 M193.1,20.2h1.7c3.1,0,4.2-3.1,4.2-6.3c0-4.9-1.8-6.3-4.6-6.3h-1.3L193.1,20.2L193.1,20.2z"/>
<path class="st0" d="M217.8,33.2c0,2.5,0,7,3.6,7c2.7,0,3.7-2.5,3.7-4.4c0-8.1-15.1-10-15.1-23.5C210,5.6,213.7,0,220.7,0
	c7.5,0,10.4,5.7,10.5,13.9h-7.4c0-2.6,0-6.8-3.3-6.8c-2,0-3.1,1.7-3.1,4.2c0,7.7,15.1,10.3,15.1,23.6c0,7-4,12.5-11.4,12.5
	c-8.9,0-10.7-7.8-10.7-14h7.4V33.2z"/>
<path class="st1" d="M421.3,254.8h7.9V223h-7.9v2.6c-7.5-5.2-17.7-3.3-22.9,4.1c-5.2,7.5-3.3,17.7,4.1,22.9c5.6,3.9,13.1,3.9,18.7,0
	L421.3,254.8L421.3,254.8z M403.2,239c0-5,4.1-9.1,9.1-9.1s9.1,4.1,9.1,9.1s-4.1,9.1-9.1,9.1C407.3,248.2,403.2,244.1,403.2,239
	C403.2,239.1,403.2,239.1,403.2,239z M458.3,212.2v13.4c-7.5-5.2-17.7-3.3-22.9,4.1c-5.2,7.5-3.3,17.7,4.1,22.9
	c5.6,3.9,13.1,3.9,18.7,0v2.2h7.9v-42.6L458.3,212.2L458.3,212.2z M440.2,239c0-5,4.1-9.1,9.1-9.1s9.1,4.1,9.1,9.1s-4.1,9.1-9.1,9.1
	C444.3,248.2,440.2,244.1,440.2,239C440.2,239.1,440.2,239.1,440.2,239z M478,220.1v-7.9h-7.9v7.9H478z M478,254.8V223h-7.9v31.8
	H478z M507,212.2v13.4c-7.5-5.2-17.7-3.3-22.9,4.1c-5.2,7.5-3.3,17.7,4.1,22.9c5.6,3.9,13.1,3.9,18.7,0v2.2h7.9v-42.6L507,212.2z
	 M488.9,239c0-5,4.1-9.1,9.1-9.1s9.1,4.1,9.1,9.1s-4.1,9.1-9.1,9.1S488.9,244.1,488.9,239C488.9,239.1,488.9,239.1,488.9,239z
	 M544,254.8h7.9V223H544v2.6c-7.5-5.2-17.7-3.3-22.9,4.1c-5.2,7.5-3.3,17.7,4.1,22.9c5.6,3.9,13.1,3.9,18.7,0v2.2H544z M525.9,239
	c0-5,4.1-9.1,9.1-9.1s9.1,4.1,9.1,9.1s-4.1,9.1-9.1,9.1l0,0C529.9,248.2,525.9,244.1,525.9,239C525.9,239.1,525.9,239.1,525.9,239
	L525.9,239z M554.8,244.5c0.2,6.4,5.7,11,14.9,11c7.5,0,13.6-3.2,13.6-10.4c0-5-2.8-7.9-9.3-9.1l-5-1c-3.2-0.6-5.5-1.2-5.5-3.2
	c0-2.1,2.2-3.1,4.9-3.1c4,0,5.6,2,5.7,4.4h8c-0.4-6.2-5.4-10.4-13.4-10.4c-8.3,0-13.2,4.5-13.2,10.5c0,7.2,5.8,8.4,10.9,9.3l4.2,0.7
	c3,0.6,4.3,1.4,4.3,3.2c0,1.6-1.5,3.1-5,3.1c-5.1,0-6.8-2.7-6.9-5H554.8z"/>
<path class="st1" d="M218,250.9c2.5,0.2,5,0.4,7.6,0.6v-44.4H218V250.9z M96.3,234.4l-9.9-27.3h-7.2v48.3c2.5-0.4,5-0.7,7.6-1v-26.2
	l8.8,25.2c2.8-0.3,5.5-0.6,8.3-0.9v-45.3h-7.5v27.2H96.3z M111.2,251.7c7-0.6,14-1.2,21-1.6v-7.5c-4.5,0.3-9,0.6-13.4,0.9v-11.3
	c2.9,0,6.8-0.1,10.2-0.1v-7.5c-2.7,0-7.1,0-10.2,0.1v-10.2h13.4V207h-21V251.7z M137,214.6h7.9v34.9c2.5-0.1,5-0.2,7.6-0.2v-34.6
	h7.9v-7.5H137V214.6z M165.3,249h7.6v-17.2h10.3v-7.5h-10.3v-9.8h13.6V207h-21.1L165.3,249z M259,207.1h-8.3l-5.5,12.7l-4.9-12.7
	h-8.2l8.8,22.7l-9.6,22.3c2.7,0.3,5.3,0.5,8,0.8l5.6-12.9l5.5,14.3c2.9,0.4,5.8,0.8,8.6,1.2l0,0l-9.9-25.4L259,207.1z M198.8,207.1
	h-7.6v42.3c6.9,0.2,13.7,0.6,20.5,1V243c-4.3-0.3-8.6-0.5-13-0.7v-35.2H198.8z"/>
<path class="st1" d="M536.1,697.6c0,0,6-7.1,10.8-3.1c0,0-5.4-7.1-3.5-9.1"/>
<path class="st1" d="M515.9,657.2c0,0,24.9-18.8,49-14.1c0,0-23.1-4.5-49,15.6"/>
<path class="st1" d="M564.7,652.5c0.1-0.2,0.3-0.3,0.5-0.5c0.7-0.3,1.4-0.3,1.4,0.7c0,0.2-0.1,0.5-0.1,0.7l0.1-0.5c0,0,0,0,0,0.1
	l1.2-5.2c-9.8,7-4.5,17.1-4.5,17.1C561.7,660.3,563.1,655.7,564.7,652.5"/>
<path class="st1" d="M613.4,670.8c0.4,0.4,0.8,1,1,1.5c0,0.1,0.1,0.2,0.1,0.2l-0.3-0.2c-1.5-1.1-3.3-2.6-3.3-2.6l1,2.4
	c-2.3,2.9,1.1,6.1,1.1,6.1c-3.3-6.4-0.7-6.4,1.3-5.3c0.1,0,0.2,0,0.3,0c0.3,0.8,0.4,1.7,0.2,2.6c-0.1-0.2-0.2-0.5-0.3-0.7
	c-0.3-0.5-0.7-1-1.2-1.3c-2.1,1.7,0.1,3.5,1.1,4.1l0.2,0.2c0.3,1.2,0.3,2.4-0.2,3.5c-0.7,1.9-4,3.8-6.3,4.9c0.5,0,1,0,1,0
	c-0.9,0.6-2,0.9-3.1,1c0,0.2-1-0.5-1.2-0.7l0,0c-2.7-2.1-5.4-4-8.3-5.8c-0.7-0.3-1.4-0.7-2.1-1.1l10.5,6.9c0.3,0.3,0.7,0.5,1,0.8
	c3.3,0.6,10.2-4.7,9.7-5.8s0-2.4,0.2-6.1C616,673.5,615.1,671.7,613.4,670.8"/>
<path class="st1" d="M550.7,676.7c6.8-8.4,14.5-9.7,14.5-9.7c-3.6-0.5-7.3,0.4-10.4,2.4c0.9-2.5,3.4-4,6-3.8c0,0-5.7-1.5-5.9-0.1
	c-0.2,1-0.3,3-0.3,4.1c-5.6,3.8-19,25.2-21.1,33l8.5-14.5c1.7-4.8,5.9-7.9,8.2-10.8C550.4,677.1,550.5,676.9,550.7,676.7"/>
<path class="st1" d="M524.9,647.3l-1.1,0.2c1.5-0.7,3.1-1.3,4.7-2C531.5,645.8,531.3,646.3,524.9,647.3 M531.6,648.3
	c1.7-0.8,2.6-1.5,2.5-2.2s-1.1-1.3-2.6-1.7c11.7-4.2,24-6.5,36.4-6.8c-13.2-0.6-26.4,1.5-38.8,6.2c-4.2-0.8-8.4-1.3-12.6-1.6
	c3.1-1.5,27.4-13,52.2-7.8c-0.8,0.9-1.3,1.6-1.3,1.6l1.7-1.5l0.8,0.2c-0.2-0.1-0.5-0.1-0.7-0.2c1.9-1.6,4.5-3.8,4.5-3.6
	s-0.3,2.8-0.4,3.7c0.6-1.8,1.3-3.5,2-5.2c-1.6-0.4-4.8,2.8-6.6,4.9c-12.7-3.6-32.3-6.9-52.8-1.3v12c3.4,0.1,6.7,0.1,9.2,0.2
	c-1.9,0.8-3.8,1.7-5.7,2.6c-1.2,0.1-2.4,0.1-3.6,0.1v4.2c5.1-0.6,10.1-1.8,14.9-3.6"/>
<path class="st1" d="M573.9,635.8c1.1,0.4,2.2,0.8,3.2,1.1c-0.5,1-2.5,3.6-2.8,4.3c2.3,0.6,8,1.7,7,1.7s-2.4,0-5,0.1l-1.8-0.2
	c-2-1.2-4.5-1.4-6.7-0.4C568.9,639.7,571.5,637.4,573.9,635.8 M556.7,642.4c-1-0.7-1.8-1.5-2.6-2.4c0.6,0.9,1.2,1.7,1.9,2.4
	 M556,642.5c2.8,3.1,6.3,4.9,9.4,3.4c2.6-1.2,5.4-1.2,8.4-0.7l0,0c0.7,0.1,1.3,0.1,2,0c3.8,0,7.2-0.2,9.8-0.4
	c2.3,1.6,4.4,3.5,6.3,5.6c0.6,2.5,2.6,8.6,7.8,9.8c3.4,2.8,9,7.5,10.5,10.1c0,0-3.8-7.1-10.3-10.9l-6.1-7.4
	c-1.7-2.8-3.8-5.2-6.3-7.3c2.6-0.4,4.2-1,4.4-1.9l-8-0.6l8,0.6c0.7-3.1-8.7-5.5-14.8-5.8l0,0c-1-0.4-2-0.7-3-1.1
	c0.1-0.1,0.1-0.1,0.2-0.1c0.2-0.1,0.4-0.2,0.5-0.3c1.1-0.7,2.2-1.3,3.3-1.8l-1.2,2.6c0.1,0,0.2,0.1,0.3,0.1l0.4,0.1
	c2.3-3.4,4.5-6.1,4.5-6.1c-3.1,1.2-6.1,2.7-9,4.5c0-0.1,0-0.1,0-0.2c0,0.1,0,0.1,0,0.2l-0.8,0.5c-0.9-0.2-1.7-0.5-2.6-0.7
	c0.9,0.3,1.7,0.5,2.5,0.8c-4.3,3.2-5.1,5.9-5.2,7.5v0.1l0,0V643c-3,2-6.8,1.8-10.2-0.7"/>
<path class="st1" d="M585.4,655.2c-0.4-0.2-0.7-0.4-1.1-0.5c1.1,0.2,2.3,0.1,3.3-0.4l0.2-1.9c-1.8-1.6-5.4,0.6-5.4,0.6
	c0.2,0.6,0.7,1.1,1.3,1.5c-1.8-0.7-3.8-0.9-5.7-0.5l-0.2-0.3l-0.2,1.5c3.2-2.2,9.8,1.4,9.8,1.4c-0.3-0.3-0.7-0.5-1-0.7"/>
<path class="st1" d="M585.2,655.2c1.1,0.2,2.2,0.2,3.3-0.1c0,0,0.3,0.6-2.8,0.5"/>
<path class="st1" d="M589.3,675.5c0.6-0.4,1.2-0.9,1.8-1.3c2.2-1.9,10.4,4.1,10.4,4.1s-5-6.7-9.5-7.3c-1.3,1.4-2.7,2.6-4.3,3.5
	l-0.4,0.3H587l0,0c-0.2,0.1-0.4,0.2-0.6,0.3c-5,2.5-12.8,3.1-20.2-9.7l-1.7,0.3c9.6,15.2,18.8,13.1,23.6,10.5l0.6-0.3h0.1
	c2.2,1.4,5.1,3.1,7.8,4.9c4.2,2,7.8,3.6,7.8,3.6C604.3,683.7,595.4,678.7,589.3,675.5"/>
<path class="st1" d="M543.9,684.5c0,0,0.9,14,15.8,14.5c0,0-15.3,0-18-11"/>
<path class="st1" d="M565.2,705.3c0,0,33.8-8.8,51.4-10.1v4C616.6,699.2,614.7,692.6,565.2,705.3"/>
<polygon class="st1" points="368,684 378.5,684 378.5,685.8 370.3,685.8 370.3,691.7 378.1,691.7 378.1,693.4 370.3,693.4 
	370.3,701.1 368,701.1 "/>
<path class="st1" d="M381.9,701.1h2.2V687h-2.2V701.1z M381.8,684.6h2.4v-2.1h-2.4V684.6z"/>
<rect x="387.7" y="682.5" class="st1" width="2.2" height="18.6"/>
<path class="st1" d="M393.3,686.9h2.1v2.3c1.9-2.2,3.3-2.6,4.6-2.6c1.5-0.2,2.9,0.8,3.4,2.3c1.2-1.4,2.9-2.2,4.7-2.3
	c3,0,3.6,2.2,3.6,4V701h-2.1v-9.6c0-0.9,0-2.8-2.2-2.8c-1.1,0-2,0.2-3.8,1.9v10.6h-2.2v-9.6c0-1,0-2.8-2.2-2.8
	c-1.2,0-2.1,0.7-3.7,2.4v10.1h-2.1L393.3,686.9z"/>
<polygon class="st1" points="420.9,684 431.4,684 431.4,685.8 423.1,685.8 423.1,691.7 431,691.7 431,693.4 423.1,693.4 
	423.1,701.1 420.9,701.1 "/>
<path class="st1" d="M442.9,693c0-2.5-1.2-4.7-3.5-4.7s-3.5,1.8-3.8,4.7H442.9z M435.7,694.5c0.1,3.8,1.9,5.1,3.8,5.1
	c1.6,0.1,3-1,3.5-2.5l1.9,0.7c-0.9,2.2-3,3.6-5.4,3.5c-5.2,0-6.1-4.5-6.1-7.4s1-7.3,6.1-7.3c4.2,0,5.7,3.5,5.7,6.8v1.1L435.7,694.5z
	"/>
<path class="st1" d="M449.4,697.2c0.4,1.5,1.7,2.5,3.3,2.5c2.3,0,3-1.4,3-2.4c0-1.4-1.1-2-2.9-2.5l-1.1-0.3c-2-0.6-3.7-1.5-3.7-3.9
	c0-2.9,2.8-3.9,4.9-3.9c2.1-0.2,4,1.2,4.6,3.2l-1.9,0.7c-0.3-1.3-1.5-2.2-2.8-2.2c-1.4,0-2.7,0.7-2.7,2.1c0,1.1,0.5,1.6,2.1,2.1
	l2,0.7c2.4,0.8,3.6,1.8,3.6,4c0,1.6-1.1,4.1-5.2,4.1c-2.4,0-4.5-1.2-5.2-3.6L449.4,697.2z"/>
<path class="st1" d="M461.8,684.5l2.2-0.9v4.4h3.4v1.6H464v7.8c0,1.2,0.1,2.2,1.7,2.2c0.6,0,1.2-0.1,1.8-0.4v1.7
	c-0.6,0.2-1.3,0.4-2,0.4c-3.1,0-3.7-2.1-3.7-3.7v-8.1h-2.2v-1.6h2.2V684.5z"/>
<path class="st1" d="M469.8,701.1h2.2V687h-2.2V701.1z M469.6,684.6h2.4v-2.1h-2.4V684.6z"/>
<path class="st1" d="M477,686.9l2.5,8.1c0.4,1.2,0.6,2.1,1.2,4h0.1c0.5-1.9,0.8-2.7,1.2-4l2.7-8.1h2.2l-4.7,14.1h-2.7l-4.8-14.1H477
	z"/>
<path class="st1" d="M494.8,693.9c-3.1,0-4.9,1-4.9,3.1c-0.1,1.2,0.8,2.4,2,2.5c0.1,0,0.3,0,0.4,0c0.9,0,2-0.2,4-2.4v-3.2
	L494.8,693.9z M488.4,690.2c0.7-1.7,1.7-3.5,5.3-3.5c4.3,0,4.9,2.8,4.9,5.3v7.4c0,0.6,0,1.1,0.1,1.7h-2.3v-2.4l0,0
	c-1,1.6-2.7,2.5-4.5,2.5c-2.1,0.2-3.9-1.4-4-3.5c0-0.2,0-0.3,0-0.5c0-3.2,2.6-4.9,6.6-4.9h2.1v-0.9c0-1,0-3.2-2.8-3.2
	c-1.8,0-2.6,1-3.3,2.5L488.4,690.2z"/>
<rect x="502.6" y="682.5" class="st1" width="2.2" height="18.6"/>
<rect x="367.9" y="661.4" class="st1" width="2.2" height="17"/>
<path class="st1" d="M373.8,664.3h2.2v2.3c1.2-1,2.7-2.6,4.9-2.6s3.6,1.3,3.6,4v10.4h-2.2v-9.7c0-1.4-0.4-2.9-2.1-2.9
	c-2,0-3.3,1.4-4.2,2.5v10.1h-2.2L373.8,664.3z"/>
<path class="st1" d="M388.9,662l2.2-0.9v4.4h3.4v1.6H391v7.8c0,1.2,0.1,2.2,1.7,2.2c0.6,0,1.2-0.1,1.8-0.4v1.7
	c-0.6,0.2-1.3,0.4-2,0.4c-3.1,0-3.7-2.1-3.7-3.7V667h-2.2v-1.6h2.2L388.9,662z"/>
<path class="st1" d="M405.2,670.4c0-2.5-1.2-4.6-3.5-4.6s-3.5,1.8-3.8,4.6H405.2z M397.9,671.9c0.1,3.8,1.9,5.1,3.9,5.1
	c1.6,0.1,3-1,3.5-2.5l1.9,0.7c-0.8,2.2-3,3.6-5.4,3.5c-5.2,0-6.1-4.5-6.1-7.4s1-7.3,6.1-7.3c4.2,0,5.7,3.5,5.7,6.8v1.1L397.9,671.9z
	"/>
<path class="st1" d="M410.1,664.3h2.2v2.5l0,0c1.1-1.6,2.9-2.6,4.8-2.7v2.1c-1.9-0.1-3.8,0.8-4.8,2.4v9.8h-2.2V664.3z"/>
<path class="st1" d="M419.2,664.3h2.2v2.3c1.2-1,2.7-2.6,4.9-2.6s3.6,1.3,3.6,4v10.4h-2.2v-9.7c0-1.4-0.3-2.9-2.1-2.9
	c-2,0-3.3,1.4-4.2,2.5v10.1h-2.2L419.2,664.3L419.2,664.3z"/>
<path class="st1" d="M439.5,671.3c-3.1,0-4.9,1-4.9,3.1c-0.1,1.2,0.8,2.4,2,2.5c0.1,0,0.3,0,0.4,0c0.9,0,2.1-0.2,4-2.4v-3.2
	L439.5,671.3L439.5,671.3z M433.1,667.6c0.7-1.7,1.7-3.5,5.2-3.5c4.3,0,4.9,2.8,4.9,5.3v7.4c0,0.6,0,1.1,0.1,1.7H441v-2.4l0,0
	c-1,1.6-2.7,2.5-4.5,2.5c-2.1,0.1-3.9-1.5-4-3.5c0-0.2,0-0.3,0-0.5c0-3.2,2.6-4.8,6.6-4.8h2.1v-0.9c0-0.9,0-3.2-2.8-3.2
	c-1.8,0-2.6,1-3.3,2.5L433.1,667.6z"/>
<path class="st1" d="M447.5,662l2.2-0.9v4.4h3.4v1.6h-3.4v7.8c0,1.2,0.1,2.2,1.7,2.2c0.6,0,1.2-0.2,1.8-0.4v1.7
	c-0.6,0.2-1.3,0.4-2,0.4c-3.1,0-3.6-2.1-3.6-3.7V667h-2.2v-1.6h2.2L447.5,662z"/>
<path class="st1" d="M455.3,678.5h2.2v-14.1h-2.2V678.5z M455.2,662h2.4v-2.1h-2.4V662z"/>
<path class="st1" d="M462.5,671.4c0,2.8,0.8,5.7,3.8,5.7s3.9-2.9,3.9-5.7s-0.8-5.6-3.9-5.6S462.5,668.6,462.5,671.4 M460.3,671.4
	c0-3.6,1.7-7.3,6.1-7.3c5.2,0,6.1,4.5,6.1,7.3c0,3.7-1.7,7.4-6.1,7.4C461.2,678.7,460.3,674.2,460.3,671.4"/>
<path class="st1" d="M475.2,664.3h2.2v2.3c1.2-1,2.7-2.6,4.9-2.6s3.6,1.3,3.6,4v10.4h-2.2v-9.7c0-1.4-0.3-2.9-2.1-2.9
	c-2,0-3.3,1.4-4.2,2.5v10.1h-2.2L475.2,664.3L475.2,664.3z"/>
<path class="st1" d="M495.5,671.3c-3.1,0-4.9,1-4.9,3.1c-0.1,1.2,0.8,2.4,2,2.5c0.1,0,0.3,0,0.4,0c0.9,0,2.1-0.2,4.1-2.4v-3.2
	L495.5,671.3L495.5,671.3z M489.1,667.6c0.7-1.7,1.7-3.5,5.2-3.5c4.3,0,4.9,2.8,4.9,5.3v7.4c0,0.6,0,1.1,0.1,1.7H497v-2.4l0,0
	c-1,1.6-2.7,2.5-4.5,2.5c-2.1,0.1-3.9-1.5-4-3.5c0-0.2,0-0.3,0-0.5c0-3.2,2.5-4.8,6.5-4.8h2.1v-0.9c0-0.9,0-3.2-2.8-3.2
	c-1.8,0-2.6,1-3.3,2.5L489.1,667.6z"/>
<rect x="502.6" y="659.9" class="st1" width="2.2" height="18.6"/>
<path class="st1" d="M418.4,634.6h8.8c6.5,0,10.7,3.6,10.7,10.5c0,7.4-4.6,10.8-11.1,10.8h-8.4V634.6z M424.3,651.6h1.9
	c4.2,0,5.5-2.4,5.5-6.3c0-3.6-1.6-6.3-5.5-6.3h-1.9V651.6z"/>
<path class="st1" d="M456.9,656h-5.7v-2.1c-2.5,2-3.6,2.5-5.6,2.5c-3.5,0-4.5-2.4-4.5-5.5v-13h5.7v11.9c0,1.2,0.3,2,1.7,2
	c1,0,1.6-0.5,2.8-1.5v-12.4h5.7L456.9,656z"/>
<path class="st1" d="M460.7,632.7h5.7v7.1c1.4-1.2,2.6-2.2,4.8-2.2c5.3,0,6.3,5.2,6.3,9.2c0,4.6-1,9.7-6.2,9.7c-1.9,0-3.8-0.9-5-2.3
	v1.9h-5.6L460.7,632.7L460.7,632.7z M466.4,650.9c0.7,0.8,1.6,1.3,2.7,1.4c2.5,0,2.7-3.4,2.7-5c0-2.2-0.1-5.5-2.8-5.5
	c-1,0.1-2,0.6-2.6,1.5L466.4,650.9L466.4,650.9z"/>
<path class="st1" d="M495.3,652.8c0,1.1,0,2.3,0.1,3.2H490c0-0.8-0.1-1.7-0.1-2.3h-0.1c-1.2,1.2-3,2.8-5.1,2.8c-4,0-5.2-3.3-5.2-5.5
	c0-4.5,3.9-6.5,8.1-6.5c0.7,0,1.5,0.1,2.1,0.1V644c0-1.7-0.5-2.8-2.2-2.8s-2.2,1.3-2.5,2.4l-5-1.4c0.3-0.8,1.6-4.8,7.8-4.8
	c5.9,0,7.5,3.2,7.5,7.8L495.3,652.8z M489.8,650.6V648c-0.7-0.1-1.4-0.1-2-0.1c-1.7,0-2.8,0.9-2.8,2.4c0,0.9,0.7,1.7,1.6,1.8
	c0.1,0,0.1,0,0.2,0C487.9,652,489,651.5,489.8,650.6z"/>
<path class="st1" d="M499,632.7h5.7v3.7H499V632.7z M499,637.9h5.7V656H499V637.9z"/>
<path class="st2" d="M62.3,678.9h-3.1V655h-9.9v-3.2h22.9v3.2h-9.9C62.3,655,62.3,678.9,62.3,678.9z"/>
<path class="st2" d="M97.7,678.9h-3.2v-8H83.1v8h-3.2v-18.7h3.2v7.5h11.5v-7.5h3.2L97.7,678.9z"/>
<path class="st2" d="M124.9,678.9h-16.8v-18.7h16.4v3.2h-13.3v4.3h7.3v3.2h-7.3v4.8h13.6L124.9,678.9z"/>
<path class="st2" d="M173.2,678.9H170v-20.7l0,0l-10,18.5l-10-18.5h-0.1v20.7h-3.2v-27h3.2l10.1,18.3l10.1-18.3h3.2v27H173.2z"/>
<path class="st2" d="M193.7,679.4c-7.1,0-11.4-4.5-11.4-9.9s4.3-9.9,11.4-9.9s11.4,4.5,11.4,9.9S200.8,679.4,193.7,679.4z
	 M201.9,669.5c0-3.6-3.1-6.8-8.3-6.8s-8.3,3.1-8.3,6.8s3.1,6.8,8.3,6.8S201.9,673.1,201.9,669.5z"/>
<path class="st2" d="M223.6,660.2c4.1,0,9.5,1.5,9.5,9.3c0,6.5-4.5,9.4-9.5,9.4h-10.2v-18.7H223.6z M223.6,675.7
	c3.4,0,6.4-2,6.4-6.2c0-4.6-3.1-6.1-6.4-6.1h-7.1v12.3H223.6z"/>
<path class="st2" d="M244.7,678.9h-3.2v-18.7h3.2V678.9z"/>
<path class="st2" d="M269.9,664.9c-2.3-1.5-5-2.2-7.7-2.2c-3.5,0-5.2,0.9-5.2,2.5c0,1.8,0.6,2.4,6,2.4c8.4,0,9.4,2.6,9.4,5.5
	c0,5.4-5,6.3-9.2,6.3c-6.4,0-9.7-2.3-11-3.2l1.5-2.8c2.8,2,6.1,2.9,9.5,2.8c3.4,0,5.7-0.7,5.7-2.8c0-2.4-1.2-2.5-8.2-2.6
	c-4.3-0.1-7.2-1.3-7.2-5.2c0-3.1,2.3-6,8.6-6c3.2,0.1,6.4,0.9,9.2,2.5L269.9,664.9z"/>
<path class="st2" d="M287.5,678.9h-3.2v-15.5h-7.2v-3.2h17.5v3.2h-7.1L287.5,678.9z"/>
<polygon points="35.7,463.4 35.7,463.4 308.2,463.4 308.2,462.6 35.7,462.6 "/>
<path d="M148.1,493.5L148.1,493.5c1.4,0.1,2.9-0.4,4-1.3c1-1,1.6-2.3,1.6-3.7c0-1.4-0.6-2.8-1.6-3.8c-1.1-0.9-2.5-1.4-3.9-1.2h-1v10
	H148.1z M145.7,482.2h2.4c1.8-0.1,3.5,0.4,4.9,1.5c1.4,1.2,2.2,3,2.1,4.8c0,1.8-0.7,3.6-2.1,4.8c-1.4,1.2-3.1,1.7-4.9,1.6h-2.4
	V482.2z"/>
<path d="M160.2,489.7L160.2,489.7c-0.1,1,0.1,2,0.6,2.8c1.2,1.4,3.2,1.6,4.6,0.4c0.1-0.1,0.3-0.2,0.4-0.4c0.5-0.9,0.8-1.9,0.6-2.9
	V482h1.4v7.9c0.1,1.3-0.3,2.5-1.1,3.5c-1.8,1.9-4.7,1.9-6.6,0.2c-1.1-1.1-1.2-2.2-1.2-3.6v-7.9h1.4L160.2,489.7z"/>
<path d="M173.4,493.5h1.4c1.6,0,3.2-0.4,3.2-2.3s-1.9-2.2-3.4-2.2h-1.2V493.5z M173.4,487.8h0.5c1.6,0,2.9-0.2,2.9-2.1
	s-1.2-2.1-2.9-2.1h-0.5V487.8z M172.1,482.2h2.1c2.3,0,4.2,0.8,4.2,3.4c0,1-0.4,1.9-1.2,2.5c1.5,0.4,2.5,1.7,2.4,3.2
	c0,2.5-2,3.5-4.5,3.5H172L172.1,482.2z"/>
<path d="M188,484.9L188,484.9l2.1,5.1h-4.2L188,484.9z M182.2,494.9h1.5l1.5-3.6h5.4l1.5,3.6h1.6l-5.7-13.2L182.2,494.9z"/>
<polygon points="196.9,494.8 196.9,494.8 198.3,494.8 198.3,482.2 196.9,482.2 "/>
<path d="M47.6,432.5L47.6,432.5v-7.8h2.2v19.2h-2.2v-9.4h-9.8v9.4h-2.1v-19.2h2.1v7.8H47.6z M61.6,438.4L61.6,438.4l-2.3,5.5H57
	l8.8-20.1l8.6,20.1H72l-2.2-5.5H61.6z M65.7,428.7L65.7,428.7l-3.3,7.7h6.5L65.7,428.7z M83.6,443.9h-2.1v-19.2h2.7c3.6,0,7,1,7,5.3
	c0.2,2.8-1.9,5.1-4.7,5.3h-0.1l6.1,8.6h-2.6l-5.7-8.5h-0.5L83.6,443.9z M83.6,433.6h0.7c2.4,0,4.8-0.5,4.8-3.4
	c0-3.2-2.3-3.5-4.9-3.5h-0.6V433.6z M105.7,439.4L105.7,439.4l5.5-14.7h2.3l-7.8,20.4L98,424.7h2.3L105.7,439.4z M120.6,424.7h9.9v2
	h-7.7v5.7h7.6v2h-7.6v7.5h7.8v2h-9.9L120.6,424.7z M137.5,424.7h2.4l4.9,8.6l4.9-8.6h2.4l-6.2,10.9v8.3h-2.1v-8.3L137.5,424.7z
	 M172.2,423.9L172.2,423.9l14.9,15.7v-14.9h2.1v20.1l-14.8-15.7v14.8h-2.2V423.9z M200.4,443.9h-2.1v-19.3h2.1V443.9z M223.9,428.9
	L223.9,428.9c-1.5-1.6-3.6-2.5-5.8-2.5c-4.4,0-8,3.6-8,8s3.6,8,8,8c2.2-0.1,4.3-1,5.8-2.5v2.6c-1.6,1.2-3.6,1.9-5.7,1.9
	c-5.5,0-10-4.5-10-10s4.5-10,10-10c2.1,0,4.1,0.7,5.7,1.9V428.9z M244.6,432.5L244.6,432.5v-7.8h2.1V444h-2.1v-9.5h-9.7v9.4h-2.2
	v-19.2h2.2v7.8L244.6,432.5z M274.6,434.4L274.6,434.4c0,5.5-4.5,9.9-10,9.9s-9.9-4.5-9.9-10s4.5-9.9,9.9-9.9c5.5,0,10,4.4,10,9.9
	C274.6,434.2,274.6,434.3,274.6,434.4L274.6,434.4z M256.8,434.4L256.8,434.4c0.1,4.3,3.7,7.7,8,7.7c4.3-0.1,7.7-3.7,7.7-8
	c-0.1-4.3-3.6-7.7-7.8-7.7C260.3,426.5,256.9,430,256.8,434.4L256.8,434.4z M284.7,441.9h5.3v2h-7.4v-19.2h2.1V441.9z M305.8,428.4
	L305.8,428.4c-0.6-1.3-1.9-2.1-3.3-2.1c-1.7-0.1-3.1,1.2-3.2,2.9l0,0c0,1.7,1.7,2.4,3,3l1.3,0.6c2.4,1.1,4.5,2.3,4.5,5.4
	c0,3.3-2.8,6-6.1,5.9c-2.9,0-5.4-2.1-5.9-5l2.1-0.6c0.2,2,1.8,3.5,3.8,3.6c2.1,0,3.9-1.6,3.9-3.7c0-2.2-1.8-3-3.5-3.8l-1.1-0.5
	c-2.2-1.1-4.1-2.2-4.1-4.9c0-3,2.5-4.9,5.3-4.9c2.1,0,4.1,1.1,5,3L305.8,428.4z"/>
<rect x="810.8" y="213.6" class="st1" width="5.5" height="18.6"/>
<path class="st1" d="M869,252.8h-7.6c0.3-2.8,1.5-4.7,4.2-4.7C868,248.1,869.1,250.3,869,252.8 M874.2,255.9
	c1-8.4-3.4-11.2-8.6-11.2c-4.9,0-9.9,3-9.9,9.8c0,6.3,3.9,9.9,10.8,9.9c2,0,4-0.4,5.8-1.2l0.6-4c-1.8,0.9-3.7,1.4-5.7,1.5
	c-3.3,0-5.4-1.8-5.7-4.8L874.2,255.9z"/>
<path class="st1" d="M764.7,221.2h-7.6c0.3-2.8,1.5-4.7,4.2-4.7C763.7,216.5,764.9,218.6,764.7,221.2 M769.9,224.3
	c1-8.4-3.4-11.2-8.6-11.2c-4.9,0-9.9,3-9.9,9.8c0,6.3,3.9,9.9,10.8,9.9c2,0,4-0.4,5.8-1.2l0.6-4c-1.8,0.9-3.7,1.4-5.7,1.5
	c-3.3,0-5.4-1.8-5.7-4.8H769.9z"/>
<path class="st1" d="M765.3,252.8h-7.6c0.3-2.8,1.5-4.7,4.2-4.7C764.4,248.1,765.5,250.3,765.3,252.8 M770.6,255.9
	c1-8.4-3.4-11.2-8.6-11.2c-4.9,0-9.9,3-9.9,9.8c0,6.3,3.9,9.9,10.8,9.9c2,0,4-0.4,5.8-1.2l0.6-4c-1.8,0.9-3.7,1.4-5.7,1.5
	c-3.3,0-5.4-1.8-5.7-4.8L770.6,255.9z"/>
<path class="st1" d="M836.7,237.3v6.5c-1.7-1.8-3.8-3.1-6-4L836.7,237.3z"/>
<rect x="831.1" y="245.3" class="st1" width="5.5" height="18.6"/>
<path class="st1" d="M807.4,249.1c-1.1-0.4-2.3-0.6-3.5-0.6c-3.2,0-5.2,2.1-5.2,5.8c0,4.7,2.7,6.3,5,6.3c1.5,0,3.1-0.3,4.5-1
	l-0.6,3.9c-1.6,0.5-3.3,0.8-4.9,0.8c-5.8,0-9.8-4-9.8-9.7c0-6.2,4-9.9,10.8-9.9c1.7-0.1,3.3,0.2,4.9,0.8L807.4,249.1z"/>
<path class="st1" d="M787,217.5c-1.1-0.4-2.3-0.6-3.5-0.6c-3.2,0-5.2,2.1-5.2,5.8c0,4.7,2.7,6.3,5,6.3c1.5,0,3.1-0.3,4.5-1l-0.6,3.9
	c-1.6,0.5-3.3,0.8-4.9,0.8c-5.8,0-9.8-4-9.8-9.7c0-6.2,4-9.9,10.8-9.9c1.7-0.1,3.3,0.2,4.9,0.8L787,217.5z"/>
<path class="st1" d="M790.5,250.6c0-3.9-2.1-5.9-5.7-5.9c-2.4,0-4.7,1.2-6.2,3.1v-2.5H773v18.6h5.5v-9.7c0-2.8,1.2-4.6,3.6-4.6
	c2.1,0,2.8,1.5,2.8,3.6v10.7h5.5v-13.3L790.5,250.6L790.5,250.6z"/>
<path class="st1" d="M841,224.9v-7.8h4.4l0.6-3.5h-5v-7.9l-5.5,2.3v5.6h-7.8v-7.9L822,208v5.6h-3v3.5h3.1v9.4c0,4.3,1.8,6.2,6,6.2
	c1.2,0,2.4-0.2,3.6-0.7l0.5-3.4c-0.6,0.2-1.2,0.3-1.9,0.3c-1.5,0-2.7-0.9-2.7-4.1V217h7.8v9.4c0,4.3,1.8,6.2,6,6.2
	c1.2,0,2.4-0.2,3.6-0.7l0.5-3.4c-0.6,0.2-1.2,0.3-1.9,0.3C842.2,228.9,841,228,841,224.9"/>
<path class="st1" d="M848.9,252.7c-2.3-0.8-4.1-1.2-4.1-2.5c0-1,0.8-1.7,2.8-1.7c1.7,0,3.4,0.4,5,1.1l1.1-3.5
	c-1.9-1-4.1-1.5-6.3-1.4c-4.5,0-7.5,2.2-7.5,5.7c0,2.8,1.7,4.3,4.5,5.5c2.8,1.2,4.8,1.6,4.8,2.9c0,1.1-1.2,1.7-3.3,1.7
	c-1.7-0.1-3.4-0.6-4.9-1.5l-1.3,3.9c2,1,4.2,1.5,6.5,1.4c4.9,0,7.9-2.1,7.9-6C854.1,255.2,852.1,253.8,848.9,252.7"/>
<path class="st1" d="M887.8,249.7l1.5-4.8c-0.6-0.1-1.2-0.2-1.8-0.2c-2.3,0.2-4.3,1.5-5.4,3.5v-3h-5.5v18.6h5.5v-10.3
	C882.2,250.9,885.2,249,887.8,249.7"/>
<path class="st1" d="M739.5,218.4h-1.6v-8h1.7c3.2,0,5,1.3,5,3.9S742.8,218.4,739.5,218.4 M751.9,232.2l-7.5-10.9
	c3.5-0.8,6-3.9,6-7.5c0-6.5-6.6-7.5-10.5-7.5h-8v25.8h6v-10.8l7.5,10.8L751.9,232.2L751.9,232.2z"/>
<path class="st1" d="M739.7,259.9h-1.9v-7.4h2.1c3.6,0,4.3,2,4.3,3.7C744.3,257.6,743.7,259.9,739.7,259.9 M737.8,242h1.5
	c3.4,0,4.2,1.9,4.2,3.4c0,2.3-1.5,3.5-4.3,3.5h-1.3V242H737.8z M731.9,238v25.8h8.2c6.8,0,10.2-2.5,10.2-6.9c0-3.8-2-6.2-5.8-6.6
	c2.8-0.6,4.8-3.1,4.7-6c0-3.9-3-6.3-9-6.3L731.9,238z"/>
<path class="st1" d="M816.3,205.7v6.5c-1.7-1.8-3.8-3.1-6-4L816.3,205.7z"/>
<polygon class="st1" points="808.8,232.2 801.3,221.1 808.4,213.6 802.2,213.6 796.2,220.7 796.2,205.7 790.6,208 790.6,232.2 
	796.2,232.2 796.2,226.6 797.7,225 802.5,232.2 "/>
<polygon class="st1" points="829,263.9 821.5,252.8 828.6,245.3 822.3,245.3 816.3,252.4 816.3,237.3 810.8,239.6 810.8,263.9 
	816.3,263.9 816.3,258.3 817.9,256.6 822.7,263.9 "/>
<path class="st1" d="M718.5,190.5c-2.3,0-4.9,2.6-5.6,5.5c-0.7,3,0.8,5.5,3.2,5.5c1.4-0.1,2.6-0.8,3.5-1.9l0,0
	c0.9-1,1.5-2.3,1.8-3.7C721.9,193,720.7,190.5,718.5,190.5"/>
<path class="st1" d="M714.4,206.7c-3.8-0.2-8-3.2-6.7-10.7l3.4-19.4l-44.1-9.7c13.3,9.6,22.6,19.6,26.4,33.1l2.3-13.3h5.3l-0.6,3.2
	c1.4-2.4,4.1-3.7,6.8-3.5l-0.8,4.6c-3-0.2-6.4,0.9-7,4.5l-1.9,10.8h-2.9c1,6.8,0.7,14.5-0.9,23.4L714.4,206.7z"/>
<path class="st1" d="M716.3,177.8l-2.1,11.6c1.7-1.9,4.2-3,6.7-3c3.4,0,5.9,2.2,5.9,6.4l9.5-10.6L716.3,177.8z"/>
<path class="st1" d="M109.9,1158.6v7.5h12.4c-0.9,7.1-8.4,12.4-14.8,12.4c-9.5,0-17.8-8.8-17.8-18.8c-0.3-10,7.6-18.3,17.6-18.6
	c6-0.2,11.7,2.6,15.2,7.5l0.7,0.9l5.7-5.4l-0.6-0.7c-9.1-11.2-25.5-13-36.8-3.9c-6.2,5-9.8,12.5-9.7,20.5
	c0,14.1,11.6,26.1,25.4,26.1s23.9-10.3,23.9-24.4v-2.9L109.9,1158.6z"/>
<path class="st1" d="M258,1175.6c-2.3,0-4.1,1.9-4.1,4.1c0,2.3,1.8,4.1,4.1,4.1c2.3,0,4.1-1.8,4.1-4.1
	C262.1,1177.5,260.3,1175.7,258,1175.6z"/>
<path class="st1" d="M237.7,1155.2c-8.5,0-15.3,6.9-15.3,15.4s6.9,15.3,15.4,15.3s15.3-6.9,15.3-15.3c0.1-8.4-6.7-15.3-15.1-15.4
	C237.9,1155.2,237.8,1155.2,237.7,1155.2z M245.9,1170.6c-0.1,4.6-3.9,8.2-8.4,8.1c-4.6-0.1-8.2-3.9-8.1-8.4
	c0.1-4.5,3.8-8.1,8.3-8.1C242.3,1162.2,246,1166,245.9,1170.6L245.9,1170.6L245.9,1170.6z"/>
<path class="st1" d="M205.6,1133.5c-14.5-0.4-26.5,11-26.9,25.5s11,26.5,25.5,26.9c0.3,0,0.6,0,0.9,0c4.6,0,9.2-1.2,13.2-3.5
	l0.5-0.3v-9.9l-1.6,1.4c-3.4,3-7.7,4.7-12.2,4.8c-9.9,0-18-8.4-18-18.7s8-18.7,18-18.7c4.4,0,8.7,1.6,12.1,4.5l1.6,1.4v-9.7
	l-0.5-0.3C214.5,1134.7,210.1,1133.5,205.6,1133.5z"/>
<path class="st1" d="M170,1184.4h9.6l-9.8-11.4l4.5-4.3l-5-5.2l-4.2,4l-12-14l-10,6.8c-6.5,4.3-8.2,13.1-3.9,19.6
	c0.3,0.5,0.7,0.9,1,1.4c4.9,5.7,13.5,6.4,19.2,1.5c0.1-0.1,0.2-0.2,0.3-0.3l4.7-4.5L170,1184.4z M154.9,1177.1
	c-2.6,2.4-6.6,2.2-9-0.4c-0.1-0.1-0.1-0.1-0.2-0.2c-1-1.2-1.6-2.6-1.7-4.2c-0.1-2.4,1.1-4.8,3.1-6.1l4.6-3.2l8,9.3L154.9,1177.1z"/>
<polygon class="st1" points="162.1,1152.2 153.4,1143.4 143.5,1151.6 138.9,1146 153.8,1133.6 167.2,1147.1 "/>
<polygon class="st1" points="368,914 368,941.7 386.4,941.7 386.4,938.2 372,938.2 372,929.8 383.3,929.8 383.3,926.3 372,926.3 
	372,917.6 386.4,917.6 386.4,914 "/>
<polygon class="st1" points="396.9,914 396.9,941.7 411.7,941.7 411.7,938.2 401,938.2 401,914 "/>
<polygon class="st1" points="422.2,914 422.2,941.7 437.1,941.7 437.1,938.2 426.3,938.2 426.3,914 "/>
<rect x="447.5" y="914" class="st1" width="4.1" height="27.7"/>
<path class="st1" d="M510.8,913.6c-10.7,0-13.9,8.4-13.9,14.2c0,5.9,3.2,14.2,13.9,14.2c3.8,0.2,7.4-1.2,10.1-3.9v-9.9h-10v3.6h5.9
	v4.8c-1.7,1.2-3.8,1.8-5.9,1.8c-8.5,0-9.7-7.9-9.7-10.6s1.2-10.6,9.7-10.6c2.7,0,5.3,1.1,7.2,2.9l2.6-2.6
	C518.2,915,515.6,913.7,510.8,913.6"/>
<polygon class="st1" points="528.8,914 528.8,917.6 536.9,917.6 536.9,941.7 541.1,941.7 541.1,917.6 549.3,917.6 549.3,914 "/>
<path class="st1" d="M569.4,938.5c-8.5,0-9.7-8-9.7-10.7s1.2-10.6,9.7-10.6s9.7,8,9.7,10.6S577.9,938.5,569.4,938.5 M569.4,913.6
	c-10.7,0-13.9,8.4-13.9,14.2c0,5.9,3.2,14.2,13.9,14.2s13.9-8.3,13.9-14.2C583.3,922.1,580.1,913.6,569.4,913.6"/>
<path class="st1" d="M486,941.9l0.5-0.2V914h-4.1v18.4L461.7,912v4.9c-0.1,0.6,0.2,1.3,0.7,1.7l1.4,1.3v21.8h4.1V924L486,941.9z"/>
<path class="st1" d="M436.2,888.6l5.7,5.6l5.7-5.6l-5.7-5.6L436.2,888.6z M432,888.6l19.7-19.4v3.4c0,0.5-0.2,1.1-0.6,1.4l-7,6.9
	l7,6.9c0.4,0.3,0.6,0.9,0.6,1.4v3.4l-1.9-1.9l-5.7,5.6l7,6.9c0.4,0.3,0.6,0.9,0.6,1.4v3.4L432,888.6z"/>
<path class="st1" d="M616.1,941.9l0.5-0.2V914h-4.1v18.4l-18.2-18l-0.4,0.2c0,1.5,0,27.1,0,27.1h4.1V924L616.1,941.9z"/>
<path class="st1" d="M124.2,947.6c-2.2,0-4.4,0.1-6.5,0.5v23.4h4.2v-9.2c0.7,0.1,1.4,0.2,2.1,0.1c5.3,0,9.4-2.4,9.4-7.8
	C133.3,949.6,129.3,947.6,124.2,947.6z M124,959.2c-0.7,0-1.4,0-2.1-0.2v-7.9c0.8-0.2,1.6-0.2,2.5-0.2c2.9,0,4.7,1.4,4.7,4
	S127.1,959.2,124,959.2L124,959.2z"/>
<ellipse class="st1" cx="138.6" cy="950" rx="2.4" ry="2.3"/>
<path class="st1" d="M149.1,957.9H149l-0.2-3.2h-3.7c0.1,1.5,0.1,3.2,0.1,5.4v11.4h4.2v-8.7c0-3.2,2-5.1,5.2-4.4v-4
	C152.2,954,149.8,955.5,149.1,957.9z"/>
<path class="st1" d="M194.2,954.3c-2.2,0-4.3,1.2-5.5,3.1h-0.1c-0.7-1.9-2.6-3.2-4.7-3.1c-2.1-0.1-4.1,1-5.2,2.9h-0.1l-0.2-2.5h-3.7
	c0.1,1.5,0.1,3.1,0.1,5v11.8h4.2v-10c0-2,1.4-3.8,3.3-3.8s2.8,1.7,2.8,4v9.8h4.2v-10.1c-0.2-1.9,1.2-3.5,3.1-3.7h0.1
	c2,0,3,1.7,3,4.5v9.2h4.1v-9.8C199.8,956.2,197,954.3,194.2,954.3z"/>
<path class="st1" d="M217.7,967.5v-6.1c0-3.7-1.6-7.2-7.1-7.2c-2.1,0-4.3,0.5-6.1,1.5l0.9,2.8c1.4-0.8,3-1.3,4.6-1.3
	c3,0,3.5,1.8,3.5,3v0.3c-6.3,0-10.1,2.1-10.1,6.4c0,2.8,2.2,5.1,5,5.1c0.1,0,0.2,0,0.3,0c1.1,0,2.2-0.3,3.2-0.8l-0.1-2.7
	c-0.5,0.3-1.1,0.4-1.7,0.4c-1.2,0.1-2.3-0.8-2.4-2.1c0-0.1,0-0.3,0-0.4c0-2.6,2.9-3.2,5.9-3.2v2.5c0,3.2,0.6,6.2,3.7,6
	c0.7,0,1.1-0.2,0.8-0.7C217.7,969.9,217.6,968.7,217.7,967.5z"/>
<path class="st1" d="M170.4,967.5v-6.1c0-3.7-1.6-7.2-7.1-7.2c-2.1,0-4.3,0.5-6.1,1.5l0.8,2.8c1.4-0.8,3-1.3,4.6-1.3
	c3,0,3.5,1.8,3.5,3v0.3c-6.3,0-10.1,2.1-10.1,6.4c0,2.8,2.2,5.1,5,5.1c0.1,0,0.2,0,0.3,0c1.1,0,2.2-0.3,3.2-0.8l-0.1-2.7
	c-0.5,0.3-1.1,0.4-1.7,0.4c-1.2,0.1-2.3-0.8-2.4-2.1c0-0.1,0-0.3,0-0.4c0-2.6,2.9-3.2,5.9-3.2v2.5c0,3.2,0.6,6.2,3.7,6
	c0.7,0,1.1-0.2,0.8-0.7C170.4,969.9,170.3,968.7,170.4,967.5z"/>
<rect x="136.5" y="954.7" class="st1" width="4.2" height="16.9"/>
<path class="st1" d="M221.6,965.7c0,3.2,0.6,6.2,3.7,6c0.7,0,1.1-0.2,0.8-0.7c-0.3-1.2-0.4-2.4-0.3-3.6v-19.8h-4.2V965.7z"/>
<path class="st1" d="M192.6,847.4c0.1-0.2,0.1-0.4,0.1-0.6c0,0-0.1-0.1-0.1,0l0,0c-1,2.1-3.2,3.4-5.5,3.3c-1.1,0.1-1.3,0.4-3.7,2.1
	c-3.7,2.7-8.2,0.1-8.2,0.1c4.7,1.2,8.7-0.8,10.9-5.4c-1.3,0.6-4.3,2.9-11.1,0.1c-2.5-1.1-5.1-1.8-6.4-1c-1.2,0.7-2.1,1.9-2.5,3.2
	c0,0,0,0,0,0.1c0,0,0,0,0.1,0c1.1-0.5,2.4-1.3,4,0.9c0.6,1,1.3,2,2,2.9c1.9,2.1,4.7,3.3,7.6,3.1
	C186.9,855.6,191.7,849.5,192.6,847.4z"/>
<path class="st1" d="M131,881.2c1.6-0.3,5.2-1.2,6.9-1.2c12.9,0.4,14.1-9.1,14.2-11.5c0.1-2.1,1.1-4,2.8-5.1
	c0.1-0.1,0.1-0.1-0.1-0.1c-1.1,0-2.2,0.2-3.2,0.3c-1.5,0.4-3.3,1.8-5.1,5.3s-7.8,6.6-9.6,7l0,0l0,0c4.7,0.8,9.4-0.7,12.8-4.1
	c0,0-1.3,4.2-6.9,5.2c-2.6,0.2-5.2,0.9-7.6,2c-1.5,0.7-3.1,1.3-4.8,1.7C130.5,880.8,130.3,881.3,131,881.2z"/>
<path class="st1" d="M166.6,907.5c0,0-1.4-6-4.7-5.2c-0.1-1.6-1-2.9-2.4-3.7c-0.9-0.7-1.5-1.7-1.8-2.7c-0.3-0.8-1.1-1.2-1.8-1
	c-1.4,0.3-0.4,2.4-0.4,2.4c0.4,0.7,0.6,1.5,0.6,2.3c-0.7,1.2-1,2.7-0.7,4.1c0,0-3.4,1.6-1.4,6.5c1.8-1.5,2.8-3,2.9-4.2
	c1.4,1.4,1.8,3.6,0.9,5.4c-1.6,3.1-4.8,5-9.5,1.7s-6.4-5.8-10.2-6.5c-3.8-0.8-7.3,0.3-9.8-0.9c0,0-0.6,1.6,2.4,2.2
	c0,0-1.6,1,0.5,1.2s2.6-0.3,2.6-0.3s-2.8,3,0,10.2s13.3,14.1,16.3,14.2l0,0l0,0c-0.6-0.5-5.2-4.8-6.5-8.6c3.6,2,7.8,2.4,11.7,1.2
	c0.2,0.8,0.2,1.7-0.1,2.5c-0.8,2.2-2.3,6.8-0.3,7.1l0,0c0.3-1.4,0.9-2.7,1.7-3.9c-0.2,0.6-0.5,1.3-0.8,2s-0.2,1.6,0.4,2.2l0,0
	c6.5-8.8,8.9-19.9,6.5-30.6C162.5,905.3,164.9,907.7,166.6,907.5z M142.2,910.3c0.6-0.6,1.9,0.3,1.9,0.3c0.7,0.6,1.1,1.4,0.8,1.8
	c-0.4,0.5-1.3,0.2-1.9-0.1S141.6,910.9,142.2,910.3z M146.3,915.5c-0.7,0.6-1.9,0.1-1.9,0.1s-1.9-0.6-1.1-1.6
	c0.5-0.6,1.3-0.7,1.9-0.3C145.3,913.7,147,914.9,146.3,915.5L146.3,915.5z M151.3,918.9c-0.3,0.8-1.6,0.9-2.6,0.8
	c-1-0.2-2.5-1.1-2-2.3s2.6-0.7,2.6-0.7C150.6,916.9,151.6,918.1,151.3,918.9L151.3,918.9z M152.9,920c0,0-1.1,0.3-1-0.5
	c0.1-0.4,0.4-0.7,0.9-0.7c0,0,1.2,0,1.1,0.6C153.7,920,152.9,920,152.9,920L152.9,920z M155,918.2c-0.7,0.3-2,0.3-2.2-0.6
	s1.4-1.4,1.4-1.4c1-0.2,1.9-0.2,2.1,0.5S155.7,917.8,155,918.2L155,918.2z M158.1,914.7c0,0-0.5,0.9-0.9,0.4c-0.3-0.3-0.3-0.7,0-1
	c0,0,0.8-0.8,1-0.3S158.1,914.8,158.1,914.7L158.1,914.7z"/>
<path class="st1" d="M225,879.8c0,0-12.1,4-13,24.8c-0.2,4.8-1.3,5.6-3.1,7.5c-0.7,5.2-4,11.5-7.6,14.8c-3.4,3-12.2,7.6-15.5,1
	c-0.9-1.9-1-4.1-0.2-6c-0.6-0.8-1.6-2.8,0.8-6.4c0,0,3.6,0.8,5.7-4c0,0,3.5-0.8,4.3-3.3l0,0l0,0c-0.4,0.3-2.7,1.9-4.3,1.4
	c-1.3-0.5-2.7-0.6-4-0.3c-1.6-0.5-2.7-1.8-3-3.4l0,0l0,0c-0.2,0.2-0.9,1.3-0.7,3.9l0,0c0.7,0.2,1.5,0.2,2.3,0
	c-0.9,0.5-1.7,1.2-2.4,2c-2,2.3-3.3,5.1-3.7,8.2c-0.3,2.5,0.1,5.1,1.2,7.4c-0.2,3.4,0.9,6.8,3.1,9.5c0.1,0.1,0.2,0.2,0.2-0.1
	c-0.6-1.9-0.8-3.9-0.7-5.9c2.4,2.4,5.3,4.2,8.5,5.5c0.2,0.1,0.4,0.1,0.1-0.2c-1-0.9-1.6-2-1.9-3.2
	C206.2,932.6,230.6,909.8,225,879.8z"/>
<path class="st1" d="M188.1,928.6c4.8,3.3,16.1-1.6,19-15.5c0-0.1,0-0.1-0.1,0c-4.9,6.8-14.4,2.2-19.4,7.4
	C185.7,922.4,185.6,926.9,188.1,928.6z"/>
<path class="st1" d="M196,860.6c-0.1,0.6-0.1,1.2-0.1,1.8c0,0,0,0.3,0,0.7c0,0.1,0.1,0.2,0.2,0.2c0.1,0,0.1,0,0.1-0.1
	c0.2-0.2,0.3-0.5,0.2-0.8c0-0.7,0-1.4,0.2-2.1c0.9-1.4,2.1-2.6,3.6-3.5c5.9-4.1,5.9-11.3,5.7-14.1c0-0.5-0.1-0.3-0.1,0
	c-0.1,1.2-1.3,3.5-5.5,7.3C194.9,854.6,195.6,859.1,196,860.6z"/>
<path class="st1" d="M131.7,864.2c1.7,2.9,3.8,3,4.4,3c0.2,0.1,0.4,0.2,0.7,0.2c0,0,0.2,0,0.2-0.1c0.1-0.1-0.2-0.2-0.2-0.2
	c-0.4-0.1-0.8-0.2-1.1-0.5c-0.6-1.1-2.1-10-8.5-7.1c0,0,0,0,0,0.1l0,0C129.6,860.2,129.7,860.8,131.7,864.2z"/>
<path class="st1" d="M131.5,871.7c2.4,2.2,4.5,2.6,5.8,2.5c0.5,0.1,1.1,0.2,1.6,0.1c0.3-0.1,0.4-0.2,0.4-0.2c0-0.4,0-0.9,0-1.3
	c0.7-1.3,3.3-1.7,6.8-5.7s0.5-8.1-0.2-8.8c0,0,0,0-0.1,0c0,0,0,0,0,0.1c0.2,3.5-0.7,3.8-4.4,7.8c-2.6,2.8-2.7,5.2-2.5,6.4
	c-0.1,0.5-0.1,0.9-0.1,1.4c-0.4,0-0.9-0.1-1.2-0.4c-1-1-1.7-3.3-5.1-6.2c-3.9-3.4-8.3-0.7-9.1-0.2l0,0l0,0
	C126.7,866.9,127.7,868.1,131.5,871.7z"/>
<path class="st1" d="M195.1,852.2c-0.2,0.2-0.3,0.5-0.4,0.7c-0.5,0.8-0.5,1.4-0.3,1.5s0.4-0.2,0.4-0.2c0.8-1.1,1.5-2.3,2.1-3.6
	c1.5-1.3,2.8-2.8,3.8-4.5c1.5-2.2,1.9-5,1.2-7.5l0,0l0,0c-0.5,1.9-2.7,2.4-4.4,4.3C195.2,845.4,194.4,848.9,195.1,852.2z"/>
<path class="st1" d="M184.9,846c0.5,0.3,1,0.5,1.6,0.6c0.1,0,0.2,0,0.2-0.1c0.1-0.1,0.1-0.2,0-0.2l0,0c-0.5-0.1-1.1-0.3-1.6-0.6
	c-0.9-0.8-1.7-4.3-1.8-7.2c-0.1-1.9-0.5-3.8-1.3-5.6c-0.3,3-4.1,5.3-1.3,10.3C181.6,844.6,183.2,845.6,184.9,846z"/>
<path class="st1" d="M149.9,849c0.5,0.3,1,0.7,1.3,1.2c0.2,0.7,0.3,1.5,0.4,2.2c0,0.2,0.1,0.3,0.2,0.4c0.1,0.1,0.2,0.1,0.3,0.1
	c0.2,0,0.1-0.4,0.1-0.4c-0.1-0.6-0.2-1.3-0.4-1.9c0-2.5-0.6-8.2-4.5-11.5l0,0l0,0c-0.4,1.6-0.5,3.3-0.4,5
	C147.3,846.1,148.3,847.9,149.9,849z"/>
<path class="st1" d="M139.3,862.6c0.4,0.9,1.1,1.7,1.9,2.2c0.1,0.1,0.3,0,0.4-0.1l0,0c0.1-0.1,0-0.3-0.1-0.4l0,0
	c-0.7-0.5-1.2-1.2-1.6-1.9c4.6-2.2,0.1-9.3-1.1-11.7c-0.7-1.2-0.8-2.6-0.2-3.9c0.1-0.1,0-0.1-0.1-0.1c-6.5,2.8-6,7.8-5.2,10.7
	C133.8,859.4,136,864,139.3,862.6z"/>
<path class="st1" d="M177.1,886c-0.1,0.8-0.3,2.6-0.3,2.9l0,0l0,0c2-1.4,3.5-3.4,4.1-5.8c0.7-2.2,0.4-8.3-1.1-10.3
	c-0.7,2.5-1.6,5-2.8,7.3c-1.1,2-1.5,4.3-1.1,6.5c0,0.1,0.1,0,0.1,0c0.3-1.8,0.9-3.6,1.7-5.3c0.9-1.6,1.6-3.4,2-5.2
	c-0.2,2.4-0.8,4.7-1.8,6.8C177.5,883.9,177.2,884.9,177.1,886z"/>
<path class="st1" d="M164.4,861.9L164.4,861.9L164.4,861.9c5.1-8.1-0.9-11.1-0.8-16.2c0-0.1,0-0.2-0.1,0c-3.5,8.8-1.3,10.8-0.4,16.2
	c0.1,0.7,0.1,1.3,0.2,1.5l0,0l0,0c1-5.5,1.4-4,0.6-12.6C165.6,855.4,165,858.3,164.4,861.9z"/>
<path class="st1" d="M180.2,846.2C180.2,846.2,180.2,846.1,180.2,846.2C180.2,846.1,180.2,846.1,180.2,846.2c-1.5-1.2-4.2-4.8-4-8.4
	c0.2-1.3,0.2-2.5,0.1-3.8c0,0,0.3,0.2,0.1,3.9c-0.1,1.4,0.2,2.7,0.9,3.9c-0.2-0.8-0.3-1.6-0.2-2.5c0.4-4.2-0.6-7-1.3-7.4l0,0l0,0
	c0.3,2.1,0,4.3-0.7,6.3C174,841.8,174.5,845.9,180.2,846.2z"/>
<path class="st1" d="M124.5,873.8c1.8-1,3.9-1.3,5.9-0.9l0,0l0,0c-3.9-3-9.1,1.3-9.1,1.3s5.1-5,9.2-1.5l0,0l0,0
	c-5.2-6-8.6,1.5-10.5,1.7C118.4,874.5,121.6,875.4,124.5,873.8z"/>
<path class="st1" d="M147.6,858.8c0.1-1.2-0.2-3.1-2.5-5.6c-4.5-5-3.4-8.3-3.3-8.5l0.2-0.3c0,0-1.4,3.3,3.4,8.5
	c2.2,2.2,2.7,4.2,2.7,5.5c2.5-7.4-5.8-11.9-6.1-14.9l0,0c0,0,0,0-0.1,0c-1.5,2.8-1.2,6.2,0.8,8.7C145.9,856.4,146,855.6,147.6,858.8
	z"/>
<path class="st1" d="M187.9,847.6c0.6-1.8,0.5-3.7-0.4-5.4c-1.8-3.4-1.1-5.8-0.7-6.7c0.1-0.3,0.2-0.3,0,0c-0.3,0.9-0.7,3,1,6.4
	c1,1.8,1.2,3.8,0.6,5.8c4.4-4.3-1.7-10.7-1.2-13.1C183,840.2,188,844.6,187.9,847.6z"/>
<path class="st1" d="M160.3,859c0.6,1.9,0.9,3.9,1,5.9l-0.5-0.5c-0.8-4.2-5.4-7.8-9.4-10.5c-0.9-0.7-1.5-1.7-1.7-2.8
	c0-0.2-0.1-0.1-0.1,0c-0.6,4.4,0.6,9.7,4.5,11.2c3,1.1,5.4,2.1,6.4,2.5c1.2,1.1,2.1,2.4,2.8,3.9c0,0.1,0.1,0.1,0.2,0.1
	c0.1,0,0.1-0.1,0.1-0.2c-0.3-1.1-0.7-2-1.4-2.9c-0.2-2.5-0.7-5-1.5-7.4c0.7-4.3-1.2-10-5.1-14c-1.1-1.4-1.7-3.1-2-4.8l0,0l0,0
	c-2.2,4-0.8,11.3,2.3,14.3C157.5,855.3,159,857.1,160.3,859z"/>
<path class="st1" d="M220.4,864.6c0,0-0.1-0.1-0.1,0.1c0.2,1.3-0.3,2.7-1.4,3.5c-2,1.9-7.8,5.3-3.9,9.9l0.1,0.1
	c-0.3,0.6-0.8,1-1.3,1.4l0,0c-0.1,0.1-0.2,0.3-0.1,0.4c0.1,0.1,0.2,0.2,0.4,0.1l0,0c0.6-0.4,1.1-0.9,1.4-1.5
	c2.8,1.9,5.3-1.3,6.3-2.7C223.3,873.6,225.1,869.3,220.4,864.6z"/>
<path class="st1" d="M197.4,834.8L197.4,834.8L197.4,834.8c-0.7,0.2-6.8,2.7-5.4,8.5c0.4,1.1,0.2,2.4-0.4,3.4
	C191.2,847.2,197.9,841.5,197.4,834.8z"/>
<path class="st1" d="M195.4,868c-0.3,0.4-0.6,0.7-1,1c0,0-0.4,0.3-0.2,0.6s0.6-0.1,0.6-0.1c0.4-0.3,0.7-0.6,1-1
	c0.9,0,3.2-0.5,5.9-4.1c3.1-4,4.3-9.6,4.6-10.8c0-0.2,0-0.2-0.1-0.1c-0.5,0.5-2.2,1.8-2.7,2.3C202.6,856.6,195.8,860.6,195.4,868z"
	/>
<path class="st1" d="M156.4,866.2c2.1,0.9,2.9,1.8,4,3.8c0.9,1.5,4.6,10.3,5.1,11c-0.6-3.5-1.5-7.3-1.5-7.3
	c-1.8-7.3-9.2-8.2-9.2-8.2c3.3,2.3,4.3,6.5,5.3,11.2c0.6,2.7,2.8,4.8,5.6,5.2C162.4,877.6,161.2,868.9,156.4,866.2
	C155.9,866,156.2,866.1,156.4,866.2z"/>
<path class="st1" d="M125.3,898.4c1.6-0.1,3.2-0.4,4.8-0.9c1.4-0.5,2.8-1.2,3.9-2.2l0,0c0,0-3-0.7-4.8,0.4s-5.6,2.6-7,2.4
	c-0.1,0-0.3,0,0,0.1c1.6,0.8,9.8,3.8,12.1-2.6c-1.2,1-2.6,1.7-4.1,2.3C128.7,898.4,127,898.6,125.3,898.4z"/>
<path class="st1" d="M168.5,938.8c9.3-6.5,10.1-28.6,10.4-29.9s1.1-8.6,13.5-9.5c0.5,0,5.2,0.1,7.7,2.8c-0.7-0.4-1.5-0.5-2.2-0.2
	l0,0l0,0c0.7,0.1,1.3,0.3,1.8,0.7c0,0-2.2,1.6-0.5,4.3c2.1,3.4,4.9,1.4,4.9,1.4c0.1,0.3,1.2,0.7,0.8,0.4c-0.2-0.2-0.3-0.5-0.3-0.8
	c0.3,0.3,0.6,0.6,0.7,0.4c-0.2-0.2-0.3-0.6-0.1-0.9c1-0.9,2.6-2.5,0.8-5.1c-2-2.9-4.2-1.4-4.2-1.4c-0.9-0.4-1.2-1.9-1.3-2.2l0,0l0,0
	c-0.3,0.3,0.4,2.6,0.4,2.6c-0.4-0.3-0.8-0.7-1.1-1.1l0,0l0,0c-0.1,0.2,0,0.7,0.2,1.1c-1.5-1.3-3.2-2.2-5.1-2.6
	c1.5-0.4,2.9-1,4.3-1.6c4.3-1.2,7.5-1.9,10.3-5c-0.1,0.2-1.8,3.7-10.2,5.7c8.1,3.9,12.3-8.7,11.6-7.4s-5.4,3.1-7.7,3.6
	c-1.8,0.4-3.4,2.2-4,3c-5.9,2.7-17.2-0.2-20.7,9.5c0.9-3.7,4.2-6.7,7.3-8.9c9.7,1.3,16-6.6,16.5-7.2l0,0l0,0
	c-6.4-0.7-12.8,2-16.7,7.2c-2.4,1.2-4.5,2.8-6.4,4.8c0,0,0.7-4,6.7-7.4c2.6-1.3,5.1-3,7.2-5c0.4-0.2,4.3-2,6.3-2.6
	c2.8,0.4,3.6,1.6,7.3,1.3c6.5-0.5,8.8-6.2,8-5.5s-2.9,1-7.7,1.2c-2.6,0.1-5.1,0.9-7.2,2.3c-1.9,0.6-3.8,1.3-5.7,2.2
	c1.2-1.4,2-3.2,2.4-5c1.6-2,3.7-3.5,6.2-4.3c-2.3,1.1-4.3,2.8-5.8,4.9c4.6-2.7,12-1.5,14.7-8.5l0.2-0.4c0.2-0.6,0.1-0.4-0.1-0.2
	c-2.3,2.4-10.7-0.9-14.4,6.6c0.3-0.9,1.8-4.8,2.6-5.3c4.7-3.4,16.9-1.4,17.8-13.7c0-0.2-0.1-0.1-0.1,0c-0.7,1.1-5,3.5-12.2,6.5
	c-2.9,1.2-4.6,4.3-5.1,5.2c-1.5,2.1-3,6.1-3.9,8.6c-0.4,1.6-1.1,3.1-2,4.5c-4.5,6.3-13.5,7.7-15.4,13.3c0-1.1,0-2.1,0.1-3.2
	c0.5-1.1,1.2-2.1,2.2-2.8c0.5-0.2,1.7-0.8,4-1.7c3.3-1.3,8.2-5.5,10.4-13.3c0.1-0.3-3.9,3-6.8,4.5s-5.4,3.5-7.4,9.3
	c-0.8,0.7-1.5,1.6-2.1,2.4c0.6-3.8,2.3-9,6.7-12.5l0.7-0.6c5-2,7.2-3,9.8-5.4c3.1-3.1,3-8.3,3-8.3c-7.8,2.3-10.2,9.4-12.8,13.2
	c-4.3,2.5-8.4,8.9-9.6,14.1c0,0-0.1-0.5-0.2-1.4c3-9.3,6.5-11,8.4-14.9c5.3-7.4,1.5-12.7,2.8-17.4c0,0-5.4,3.7-6,7.8
	s2.4,8.8,1.6,10.9c-1.3,1.7-5.8,7.3-7,12.2c-0.4-2.3-0.6-4.7-0.6-7c0-0.2-0.1-0.3-0.1,0c-1.2,7.7,0.5,11,0.4,22
	c-0.2-10.2-2.3-16.3-1.9-21.4c0.2-3,2.6-11.4,2.9-12.7c0.1-0.3,0.2-1.1,0.4-2.2l0,0c5.8-6.8-2.5-15.3-4.4-17.1
	c-0.2-0.2-0.2,0-0.1,0.1c1.7,3.4-0.3,10.5,1.6,14.5c0.6,1.5,1.3,2.9,2.1,4.3c0,0.2-0.1,0.3-0.1,0.5c-2,7.7-3.5,12.1-3.8,17.1
	c-0.6-1.2-1.1-2.5-1.5-3.8c0.2-1.5,0.6-3,1.2-4.4c1-2.5,3.5-5.8,1.9-10.8c-1.4-4.7-2.8-4.5-2.8-4.5s1.2,1-1.4,6.3
	c-2.7,5.5,0.8,16.4,2.5,18.1c-0.1,5,1.9,12.3,0.9,22.5c0.4-6,0.1-11.9-1.1-17.8c-0.6-3.4-3.5-8.2-4.6-14.3
	c-0.6-3.4-0.7-6.8-0.3-10.3c0.4-1.4,1.3-3.9,2.9-7.8c2.1-5.2-0.3-10.8-1-12.3c-0.1-0.2-0.1-0.1-0.1,0c0.2,2.5-1.2,5.8-3.8,10.9
	s0.8,10.9,1.1,11.4c-0.1,1.7-0.1,3.4,0.1,5.1c0.4,6.2,2.9,12.5,3,13.2c0.2,1.1,8,26.7-6.8,44.2C164.8,938.3,166.6,938.6,168.5,938.8
	z M185.6,897.8L185.6,897.8z"/>
<path class="st1" d="M182.4,863.4c-0.6,1.4-1.1,2.8-1.4,4.3c0-0.1,0,0.2,0,0.2l0.1,0.2h0.2c0.1,0,0.2-0.1,0.2-0.3
	c0.3-1.5,0.7-2.9,1.3-4.2c1.1-0.9,3.7-0.9,7.6-4.1c3-2.5,3-6.1,2.7-8.3c-0.1-0.4-0.3-1.4-0.4-1.9c0-0.1-0.1,0-0.2,0
	c-1.9,3.5-2.7,3.3-6.7,6.4C182.7,858,182.4,861.8,182.4,863.4z"/>
<path class="st1" d="M134,876.6c0.5-0.1,0.9-0.1,1.4-0.1c0,0,0.4,0,0.4-0.3s-0.4-0.2-0.4-0.2c-0.4,0-0.7,0-1.1,0.1
	c-10.5-5.8-13.7,3.9-16.5,3.9C116.3,880,125.9,883.8,134,876.6z"/>
<path class="st1" d="M169.9,897.6c-1.1-4.5-1.2-5.3-2.6-7.2c-0.7-2.6-1.1-4.4-2.2-5.8c-1-1.3-2.3-2.3-3.8-2.9
	c-0.6-0.4-1.2-1-1.9-1.6c0,0-0.4-3.9-2.6-6.2c-1.3-1.5-2.2-3.3-2.5-5.2c-1.3,1.3-2,8.2,4.4,11.1c0.6,0.6,1.2,1.1,1.8,1.6
	c-2.4-0.7-3,0.2-6.6-2.9c-0.1-0.1-0.2-0.1-0.1,0c3,8.4,11.6,7,13.7,13.5c-3.8-1.5-7.7-2.4-11.7-2.8c-0.1-0.3-0.2-0.5-0.2-0.8
	c1.2-5.5-4.7-10.2-5.8-11c-0.1-0.1-0.1,0-0.1,0.1c1.4,3.3,0,4.5,2.2,7.8c-0.8-0.4-2.3-1-2.4-1c-3.8-4.8-11.3-3.3-10.1-3
	c1.8,0.4,6.5,7.3,10.5,3.5c0.8,0.3,1.6,0.7,2.4,1.2c0.8,1.1,1.8,2,3,2.7c0.1,0.2,0.1,0.4,0.1,0.5c-1.8-0.1-3.6-0.1-5.4,0.1
	c-0.5-0.4-1.1-0.7-1.8-1c-0.4-0.9-3.1-2.8-6.6-2.8c-0.2-0.2-0.4-0.5-0.6-0.7c-1-1.1-5.5-3.2-10.3-2.5c-1.9-0.6-3.9-0.2-5.4,1
	c-3.3,2.6-1.4,5-4.8,6.6l0,0l0,0c0.3,0.1,1.7,0.3,4.6-0.7c3.2-1.1,3.7-5,5.4-6.3l-0.3,0.1c-2.6,1.1-2.9,1.8-5,3.8
	c-2.9,2.8-3.8,2.8-3.8,2.8s1.2-0.3,5.5-5.1c0.9-1.1,2.2-1.8,3.5-2.2c2.5-0.1,5.1,0.4,7.4,1.3c-1,0.1-1.9,0.4-2.8,0.9
	c-4.8,2.6-5,8-10,9l0,0l0,0c2.6,0.5,5.4,0.2,7.9-0.8c3.7-1.4,4.9-5.4,7-6.8c2.4-0.4,4.9,0.2,6.8,1.7c-1.5-0.2-3.1,0.1-4.4,0.9
	c-4.9,2.6-2.7,6.6-7.7,7.6l0,0l0,0c0.4,0.2,2.7,1.2,6.9-0.3c3.7-1.4,5.1-4.9,7.3-6c2-0.3,4-0.4,6-0.3c-1.7,1.4-3.2,3.1-4.5,4.9
	c-2.1-1.1-4.2,0.5-5.8,2.4c-0.8,1-1.9,1.6-3.2,1.6l0,0l0,0c0.5,1,1.5,1.6,2.6,1.5c-0.4,0.6-0.7,1.2-0.9,1.8l0,0l0,0
	c0.7-0.1,1.4-0.3,2-0.6c-0.2,0.6-0.4,1.2-0.4,1.9l0,0l0,0c0.7-0.3,1.4-0.7,1.9-1.2c-0.1,0.7,0,1.4,0.1,2.1l0,0l0,0
	c0.5-0.4,1-0.9,1.3-1.5c0,1.1,0.7,2,1.7,2.3c0.3,0.1,0.1-0.1,0.1-0.2c-0.9-1.2,0-1.9,0.8-3.6c0.9-2,2.2-5-0.2-6.6
	c1.5-1.9,3.2-3.6,5.3-5c3.3,0.3,8.9,1.4,11.7,5c0.3,0.4,0.5,0.9,0.6,1.3c7.5,25.8-6.9,41.1-6.9,41.1l1.4,0.3
	C167,933.6,175,917.4,169.9,897.6z"/>
<path class="st1" d="M189.9,872.8c0.2,0.1,0.4-0.2,0.4-0.2c0.2-0.4,0.5-0.9,0.7-1.4c3.9-3.5,5.2-9,3.4-13.8c-0.5,2.3-1.7,3-3.8,6.6
	c-1.9,3.3-0.6,6.9-0.3,7.6c-0.1,0.2-0.3,0.5-0.4,0.7C189.8,872.3,189.6,872.6,189.9,872.8z"/>
<path class="st1" d="M166.3,847.2L166.3,847.2C166.4,847.2,166.4,847.2,166.3,847.2c0.5-0.5,0.2-0.8,0.1-1.9c0.6-1.5,8.6-4,4.9-13.7
	l0,0l0,0c-1.9,6.9-7,7.1-5.2,13.2C166.1,845.5,166.2,846.4,166.3,847.2z"/>
<path class="st1" d="M158.2,846.6C158.3,846.6,158.3,846.6,158.2,846.6L158.2,846.6c0.1-0.2,0.1-0.4-0.1-0.5c-0.4-0.5-0.7-1-0.9-1.5
	c0.3-1.6,3-6,1.3-9.1c-1.1-2.1-1.5-2.5-1.6-2.5l0,0l0,0c-0.4,1.8-1,3.5-1.8,5.2c-1.2,2.7,1.1,5.8,1.8,6.6
	C157.4,845.4,157.8,846.1,158.2,846.6z"/>
<path class="st1" d="M202.8,867.6c-0.4,0.5-0.8,1.1-1.1,1.7c0-0.1,0,0.1,0,0.1v0.2h0.2c0.1,0,0.3,0,0.3-0.2c0.3-0.6,0.7-1.2,1.1-1.8
	c1.4-0.9,2.9-1.5,4.6-1.7c2.3-0.3,5.3-0.1,8-3.9c2.1-2.8,2.3-4.1,2.3-4.6c0-0.2-0.1-0.2-0.1-0.1c-0.4,0.5-2,2.1-6.3,2.7
	C207,860.8,203.5,865.9,202.8,867.6z"/>
<path class="st1" d="M160.7,849.8L160.7,849.8L160.7,849.8c0.4-0.5,0.1-1,0-1.5c0.3-1.4,1.9-3.5,4-7.1s-0.2-7.7-0.7-8.5l0,0l0,0
	c-0.9,6.3-6.5,6.1-3.8,14.6C160.2,848.1,160.4,848.9,160.7,849.8z"/>
<path class="st1" d="M207.4,857.7c-0.5,1-1.1,1.9-1.7,2.8c0,0-0.1,0.1-0.1,0.2v0.2c0,0.1,0,0.1,0.1,0.1h0.1c0.6-0.8,1.4-2.2,1.9-3
	c1.9,1.3,4,0,5.7-1.7c0.8-0.9,2-1.3,3.1-1.2l0,0l0,0c-0.3-1-1.3-1.7-2.4-1.7c0.4-0.5,0.8-1,1-1.6l0,0l0,0c-0.7,0-1.3,0.1-1.9,0.4
	c0.3-0.5,0.5-1.1,0.6-1.7l0,0l0,0c-0.7,0.2-1.4,0.5-1.9,1c0.1-0.7,0.2-1.3,0.1-2l0,0l0,0c-0.5,0.3-1,0.7-1.4,1.2
	c0-1.2-0.5-2.2-1.4-2.4c-0.1,0-0.1,0.1-0.1,0.1c0.7,1.3-0.3,2-1.1,3.6s-2.5,4.2-0.5,6L207.4,857.7z"/>
<path class="st1" d="M464.5,440c0,1.2-1.9,2.1-4.3,2.1s-4.3-1-4.3-2.1c0-1.2,1.9-2.1,4.3-2.1S464.5,438.8,464.5,440z M524.3,437.9
	c-2.4,0-4.3,1-4.3,2.1c0,1.2,1.9,2.1,4.3,2.1c2.4,0,4.3-1,4.3-2.1C528.6,438.8,526.7,437.9,524.3,437.9z M606.1,451.2h-58
	c-6.8,0-12.3-3.4-12.3-7.5c0-4,5.5-7.5,12.3-7.5h58c1.8,0,3.2-1.1,3.2-2.4s-1.4-2.4-3.2-2.4h-58c-9.7,0-17.4,5.4-17.4,12.3
	c0,2.1,0.7,4.1,2.2,6.1l-37.3-18.1c-1.1-0.5-2.1-0.8-3.4-0.8c-1.2,0-2.3,0.3-3.4,0.8l-38.3,18.6v-16.7c0-1.3-1.8-2.4-4-2.4
	c-1.5,0-2.4,0.4-2.4,0.4l-37.4,15.9l3.2,1.4c1,0.4,1.9,0.6,3,0.6l0,0c1.1,0,2-0.2,3-0.6l29.9-12.7v18.6c0,0.9,1.1,1.6,2.4,1.6h0.2
	c0.6,0,1.1-0.1,1.6-0.3l42.3-20.5l19.4,9.4h-35.2l-9.6,4.6h54.4l13.2,6.4c0.4,0.2,1,0.3,1.6,0.3c1.4,0,2.6-0.7,2.6-1.6
	c0-0.1,0-0.4-0.2-0.7c2.6,1.1,5.8,2,9.6,2h58c1.8,0,3.2-1.1,3.2-2.4C609.3,452.3,607.8,451.2,606.1,451.2z M411,444.1l-29.3-12.4
	c0,0-0.9-0.4-2.4-0.4c-2.2,0-4,1.1-4,2.4v21.1c0,0.9,1.1,1.6,2.4,1.6s2.4-0.7,2.4-1.6v-18.6l24.7,10.5L411,444.1z"/>
<path class="st1" d="M506.6,1161.3c0,9.9,8,17.9,17.9,17.9s17.9-8,17.9-17.9v-24.6h-8.6v9.3c-2.8-1.7-6-2.6-9.3-2.6
	C514.6,1143.4,506.6,1151.4,506.6,1161.3L506.6,1161.3z M515.1,1161.3c0-5.2,4.2-9.3,9.3-9.3c5.2,0,9.3,4.2,9.3,9.3
	c0,5.2-4.2,9.3-9.3,9.3l0,0C519.3,1170.7,515.1,1166.5,515.1,1161.3L515.1,1161.3z"/>
<circle class="st1" cx="406.2" cy="1144.7" r="6.3"/>
<circle class="st1" cx="406.2" cy="1171.8" r="6.3"/>
<path class="st1" d="M437,1138.4c0-6.5-5.3-11.7-11.8-11.7h-39.3c-6.5,0-11.8,5.3-11.8,11.8v40.2c0,6.5,5.3,11.8,11.8,11.8h39.3
	c6.5,0,11.8-5.3,11.8-11.8V1138.4z M399.9,1161.5c5.7-3.4,13.1-1.5,16.5,4.2s1.5,13.1-4.2,16.5s-13.1,1.5-16.5-4.2
	c-1.1-1.9-1.7-4-1.7-6.1v-27c0-6.7,5.4-12.2,12.1-12.2s12.2,5.4,12.2,12.1s-5.4,12.2-12.1,12.2c-2.3,0-4.5-0.6-6.4-1.8L399.9,1161.5
	z"/>
<path class="st1" d="M470.2,1143.4c-3.3,0-6.5,0.9-9.3,2.6v-9.3h-8.6v24.6c0,9.9,8.1,18,18,18s18-8.1,18-18
	S480.2,1143.3,470.2,1143.4L470.2,1143.4z M470.3,1170.7c-5.2,0-9.3-4.2-9.3-9.3c0-5.2,4.2-9.3,9.3-9.3c5.2,0,9.3,4.2,9.3,9.3l0,0
	C479.7,1166.5,475.5,1170.7,470.3,1170.7L470.3,1170.7z"/>
<rect x="493" y="1150.5" class="st1" width="8.6" height="28.1"/>
<rect x="493" y="1136.7" class="st1" width="8.6" height="8.6"/>
<path class="st1" d="M547.5,1161.3c0,9.9,8,17.9,17.9,17.9s17.9-8,17.9-17.9v-24.6h-8.6v9.3c-2.8-1.7-6-2.6-9.3-2.6
	C555.5,1143.4,547.5,1151.4,547.5,1161.3L547.5,1161.3z M555.9,1161.3c0-5.2,4.2-9.3,9.3-9.3c5.2,0,9.3,4.2,9.3,9.3
	c0,5.2-4.2,9.3-9.3,9.3l0,0C560.1,1170.7,555.9,1166.5,555.9,1161.3L555.9,1161.3z"/>
<rect x="589.3" y="1150.5" class="st1" width="8.6" height="28.1"/>
<rect x="589.3" y="1136.7" class="st1" width="8.6" height="8.6"/>
<path class="st1" d="M604.7,1172.8h1.9c0.8,0.1,1.4,0.8,1.3,1.6c0,0.5-0.4,1-0.8,1.2l1,1.7h-0.8l-0.9-1.6h-0.7v1.6h-1V1172.8z
	 M606.5,1175c0.4,0,0.6-0.4,0.6-0.8s-0.2-0.7-0.6-0.8h-0.9v1.6L606.5,1175z"/>
<path class="st1" d="M606.2,1179.1c-2.3,0-4.1-1.8-4.1-4.1s1.8-4.1,4.1-4.1s4.1,1.8,4.1,4.1l0,0
	C610.3,1177.3,608.5,1179.1,606.2,1179.1z M606.2,1171.8c-1.7,0-3.1,1.4-3.1,3.1s1.4,3.1,3.1,3.1c1.7,0,3.1-1.4,3.1-3.1
	C609.4,1173.3,607.9,1171.9,606.2,1171.8z"/>
<path class="st1" d="M729.1,495.8c-0.9,0-1.4-0.5-1.5-1.1c-0.1-0.7-0.2-1.3-0.3-1.8h-4.4c-0.2,0.9-0.4,1.9-0.6,2.8h-0.9
	c-0.7,0-1-0.4-1-1.1c0-1.6,2.1-8.1,3.8-10h0.9c0.9,0,1.5,0.5,1.8,1c1,1.8,2.7,6.6,3.1,10.1h-0.9L729.1,495.8L729.1,495.8z
	 M725.1,486.7c-0.6,1.1-1.3,2.9-1.7,4.4h3.4C726.4,489.6,725.7,487.8,725.1,486.7"/>
<path class="st1" d="M741,495.8c-0.9,0-1.8-0.3-3.2-2.9l-2-3.9c-0.3-0.6-0.5-1-0.7-1.3v8.1h-0.9c-0.6,0-1.3-0.5-1.3-1.5v-9.6h1.1
	c1.5,0,2.4,0.8,3.1,2.3l1.9,3.9c0.2,0.5,0.5,1.1,0.6,1.5v-7.6h1c0.6,0,1.2,0.6,1.2,1.3v9.8L741,495.8L741,495.8z"/>
<path class="st1" d="M748.9,495.9H748c-1.9,0-3.1-0.7-3.1-2.5v-8.3c0.5-0.2,1.9-0.4,2.7-0.4h1.1c2.5,0,5.2,1.7,5.2,5.4
	C754,493.4,751.8,495.9,748.9,495.9 M748.5,486.5H748c-0.3,0-0.8,0.1-0.8,0.1v6.4c0,0.6,0.3,0.9,1.1,0.9h0.4c1.8,0,3.1-1.6,3.1-3.6
	C751.8,487.9,750.4,486.5,748.5,486.5"/>
<path class="st1" d="M769.8,495.9c-0.7,0-1.3-0.3-1.6-1l-0.8-2c-0.5-1.2-1-1.3-1.6-1.4c-0.5-0.1-0.9-0.1-1.1-0.1v4.5H764
	c-1,0-1.5-0.6-1.5-1.5V485c0.5-0.2,2-0.4,2.8-0.4h1.2c2.2,0,3.6,1.3,3.6,3.2c0,1.5-1,2.7-2.3,2.9c0.6,0.2,1.1,0.9,1.4,1.6l0.9,2.1
	c0.3,0.6,0.6,1,0.7,1.1C770.6,495.8,770.4,495.9,769.8,495.9 M765.7,486.5c-0.2,0-0.7,0-1,0.1v2.9c0.5,0.1,1,0.1,1.6,0.1
	c0.9,0,1.7-0.5,1.7-1.5c0-1.3-0.7-1.6-1.6-1.6H765.7z"/>
<path class="st1" d="M781.2,494.5c0,0.9-0.5,1.4-2.4,1.4h-1.2c-2.7,0-4.1-1.5-4.1-4.3v-2.1c0-1.1,0.1-2.2,0.2-3.1
	c0.2-1.3,0.8-1.7,1.7-1.7h5.8v0.7c0,0.8-0.5,1.2-1.5,1.2h-3.8c-0.1,0.8-0.2,1.9-0.2,2.6h4.3v0.8c0,0.7-0.5,1-1.3,1h-2.9v0.6
	c0,1.9,0.6,2.3,2.3,2.3h0.7c0.8,0,1.6-0.1,2.4-0.2V494.5z"/>
<path class="st1" d="M787.5,496c-2.2,0-3.4-0.9-3.4-2.2v-1l0,0c0.7,0.7,1.7,1.2,3.1,1.2c1.7,0,2.2-0.6,2.2-1.5
	c0-0.8-0.3-1.1-2.6-1.6c-1.9-0.4-2.9-1.3-2.9-2.8c0-1.8,1.6-3.6,4.2-3.6c2.6,0,3.3,1.1,3.3,2v1h-0.1c-0.7-0.7-1.7-1.1-2.9-1.1
	c-1.7,0-2.3,0.6-2.3,1.4c0,0.7,0.5,1.1,2.6,1.5c2,0.4,3,1.5,3,3C791.7,494.5,790.2,496,787.5,496"/>
<path class="st1" d="M799.1,496c-2.8,0-5.1-2.2-5.1-5.6s1.9-5.9,5.3-5.9c2.7,0,5.1,2.1,5.1,5.6C804.4,493.4,802.5,496,799.1,496
	 M799.2,486.5c-1.6,0-2.8,1.3-2.8,3.6c0,2.7,1,4,3,4c1.7,0,2.8-1.2,2.8-3.7C802.2,487.8,801.1,486.5,799.2,486.5"/>
<path class="st1" d="M814.5,495.9c-0.7,0-1.3-0.3-1.6-1l-0.8-2c-0.5-1.2-1-1.3-1.6-1.4c-0.5-0.1-0.9-0.1-1.1-0.1v4.5h-0.7
	c-1,0-1.5-0.6-1.5-1.5V485c0.5-0.2,2-0.4,2.8-0.4h1.2c2.2,0,3.6,1.3,3.6,3.2c0,1.5-1,2.7-2.3,2.9c0.6,0.2,1.1,0.9,1.4,1.6l0.9,2.1
	c0.3,0.6,0.6,1,0.7,1.1C815.3,495.8,815.1,495.9,814.5,495.9 M810.4,486.5c-0.2,0-0.7,0-1,0.1v2.9c0.5,0.1,1,0.1,1.6,0.1
	c0.9,0,1.7-0.5,1.7-1.5c0-1.3-0.7-1.6-1.6-1.6H810.4z"/>
<path class="st1" d="M824.5,486.6h-2v9.1h-0.9c-0.8,0-1.3-0.5-1.3-1.5v-7.7h-3.2v-0.7c0-0.5,0.4-1.2,1.3-1.2h7.4v0.7
	C825.8,485.9,825.3,486.6,824.5,486.6"/>
<path class="st1" d="M830.6,496c-2.2,0-3.4-0.9-3.4-2.2v-1l0,0c0.7,0.7,1.7,1.2,3.1,1.2c1.7,0,2.2-0.6,2.2-1.5
	c0-0.8-0.3-1.1-2.6-1.6c-1.9-0.4-2.9-1.3-2.9-2.8c0-1.8,1.6-3.6,4.2-3.6c2.6,0,3.3,1.1,3.3,2v1h-0.1c-0.7-0.7-1.7-1.1-2.9-1.1
	c-1.7,0-2.3,0.6-2.3,1.4c0,0.7,0.5,1.1,2.6,1.5c2,0.4,3,1.5,3,3C834.8,494.5,833.3,496,830.6,496"/>
<g>
	<g>
		<path id="SVGID_1_" class="st1" d="M859.3,469.4v0.7h1.4v3.7h0.8v-3.7h1.4v-0.7H859.3z M866.7,469.4l-1.2,3.4l0,0l-1.2-3.4h-1.1
			v4.3h0.7v-3.3l0,0l1.2,3.3h0.6l1.2-3.3l0,0v3.3h0.7v-4.3H866.7z M746.2,460.8c0-4.8,2.7-7.3,5.2-7.3c2.4,0,4.9,2.2,5,7.2
			c0,4.1-1.8,7.6-4.9,9.6C748.5,468.1,746.2,463.5,746.2,460.8 M738.3,468.8c-3.2-2.7-4.1-8-2.3-13c2.3-6.5,8.3-10.3,15.8-10.3h0.2
			c5.3,0,9.3,1.7,11.9,4.8c5,6,3.8,15.5,3.4,17.4c-0.4,2.7-1.2,3.7-1.7,3.7c-1,0-2.6-1.9-3.3-3.3c-0.2-0.3-0.4-0.4-0.7-0.5
			c-0.3,0-0.6,0.1-0.8,0.4c-2.4,3.1-4.9,4.2-7.5,3.2c3.1-2.4,5-6.2,4.9-10.6c0-6.2-3.5-9-6.8-9c-3.5,0-7,3.1-7.1,9.2
			c0,3,2.1,7.6,5.3,10.4c-1.2,0.4-2.4,0.7-3.6,0.7C743.3,471.9,740.6,470.8,738.3,468.8 M751.8,443.6c-8.4,0-14.9,4.3-17.6,11.5
			c-2.1,5.8-1,11.8,2.9,15c2.7,2.3,5.8,3.5,9,3.5c1.9,0,3.7-0.4,5.4-1.3c1.2,0.7,2.4,1,3.6,1c2.2,0,4.4-1.1,6.3-3.3
			c0.9,1.3,2.5,3.1,4.2,3.1c2.7,0,3.3-3.9,3.5-5.2c0.3-2,1.7-12.3-3.8-18.9c-3-3.6-7.5-5.4-13.3-5.5L751.8,443.6L751.8,443.6z
			 M841.2,463.7c-1.8-0.8-3.2-2-4.2-3.5c1.4-0.4,3.2-0.5,4.8,0c2.2,0.6,3.1,1.9,3,2.9c-0.1,0.7-0.7,1.1-1.7,1.1
			C842.6,464.2,841.9,464,841.2,463.7 M848,455.7c-2.2,0-3.4-1.1-3.4-2c0-0.8,0.9-1.3,2.2-1.3c0.9,0,2.1,0.3,3.3,0.8
			c1,0.4,1.9,1,2.6,1.6c-1.2,0.6-2.7,1-4.4,1L848,455.7z M837,449.9c1.8-2.8,4.8-4.4,8.6-4.4h0.4c5.5,0.1,8.3,2.4,9,4.4
			c0.4,1.3,0.2,2.6-0.7,3.6c-1-0.9-2.1-1.6-3.4-2.2c-1.5-0.6-2.8-0.9-4-0.9c-2.7,0-4,1.6-4,3.1c0,1.9,1.8,3.8,5.2,3.9h0.3
			c2.2,0,4.2-0.5,5.7-1.4c1.7,2.3,2.3,5.4,1.4,8.2c-1,3.4-3.7,5.9-7.5,7c-1.3,0.3-2.6,0.5-3.9,0.5c-5.8,0-10.3-3.3-10.3-7.5
			c0-1.4,0.5-2.5,1.6-3.3c1.2,2,3,3.5,5.1,4.4c0.9,0.4,1.8,0.6,2.6,0.6c1.9,0,3.3-1.1,3.5-2.8c0.2-1.7-1-4-4.3-4.9
			c-2-0.5-4.3-0.5-6.1,0.1C835.1,455.7,835.4,452.4,837,449.9 M835.4,448.9c-1.9,3.1-2.3,7-0.9,10.4c-1.7,1.1-2.6,2.9-2.6,5
			c0,5.3,5.2,9.4,12.1,9.4c1.5,0,3-0.2,4.4-0.6c4.4-1.2,7.6-4.2,8.8-8.2c1-3.4,0.3-7.2-1.8-9.9c1.4-1.6,1.9-3.6,1.2-5.6
			c-1.2-3.4-5.2-5.6-10.7-5.7h-0.4C841.1,443.6,837.5,445.5,835.4,448.9 M775,460.7c0-2.3,0-4.4,0.2-6.3c0.8,1.3,2,2.3,3.8,2.9
			c3,1,6,1.1,8.9,0.5c1.5,3.6,1.7,7.3,0.4,10s-3.2,4.2-5.5,4.2C778.9,471.9,775,467.7,775,460.7 M779.6,455.5
			c-2.6-0.8-3.7-3.1-3.4-4.8c0.1-0.6,0.5-1.9,2.2-1.9c1,0,2.2,0.5,3.6,1.4c2.1,1.5,3.9,3.5,5.2,5.9c-0.9,0.2-1.8,0.3-2.7,0.3
			C782.8,456.3,781.2,456,779.6,455.5 M782.9,448.6c-1.3-0.9-2.6-1.5-3.7-1.7c1.6-0.8,4-1.5,7.8-1.5c1,0,2,0,3.1,0.1
			c3.5,0.2,5.8,1.3,6.3,2.7c0.4,1.2-0.5,2.8-2.5,4.5c-1.1,0.9-2.7,2-5,2.8C787.4,452.7,785.4,450.4,782.9,448.6 M774.9,448.7
			c-1.7,3.1-1.7,7.2-1.7,12c0,8.1,4.9,13,9.6,13c3,0,5.6-1.9,7.2-5.2c1.5-3.1,1.3-7.3-0.3-11.3c2.4-0.8,4.3-2.1,5.4-3.1
			c3.4-2.8,3.5-5.1,3.1-6.4c-0.7-2.2-3.5-3.7-7.9-4c-1.2-0.1-2.2-0.1-3.3-0.1C780.6,443.6,776.8,445.2,774.9,448.7 M815.6,466.3
			c2.5-2.8,5-5.9,6.9-8.3c1.3,2.6,2.4,4.7,3.4,6.6c2.3,4.3,2,5.8,1.7,6.3c-0.2,0.4-0.8,0.6-1.6,0.6
			C823.5,471.4,819.2,469.3,815.6,466.3 M809.2,456.2c-0.1-2.7,2.9-6.1,7.9-9.1c0.9,1.8,1.8,3.7,2.8,5.6c0.6,1.1,1.1,2.3,1.7,3.5
			c-1.9,2.5-4.6,5.9-7.4,8.9C811.1,462.1,809.3,458.9,809.2,456.2 M821.6,451.9c-1-2-1.9-3.9-2.9-5.7c3.5-1.9,7-3.1,9.2-3.1
			c0.8,0,1.4,0.2,1.5,0.4c0.1,0.1,0.3,0.7-0.6,2.3c-0.6,1.1-2.8,4.5-6,8.7C822.4,453.6,822,452.7,821.6,451.9 M805.2,471.8
			c-2.6-1.6-3.3-10.4-1.8-22.5c1.6-12.8,3.7-14.7,4.8-14.7c2.4,0,6.3,7.2,8.1,10.8c-2.8,1.7-9,6-8.9,10.8c0.1,4.2,3.3,8,5.6,10.2
			c-4.5,4.7-6.5,5.4-7.4,5.4l0,0C805.4,471.9,805.3,471.8,805.2,471.8 M801.5,449.1c-1,7.8-1.9,21.4,2.7,24.2
			c0.4,0.3,0.9,0.4,1.4,0.4l0,0c2,0,4.8-2,8.7-6c4,3.3,8.7,5.6,11.7,5.6c1.9,0,2.8-0.8,3.2-1.5c1-1.7,0.4-4.3-1.6-8.1
			c-1.1-2.1-2.3-4.3-3.8-7.3c3.2-4.3,5.9-8.2,6.7-9.6c1-1.7,1.1-3.1,0.6-4.1c-0.5-0.9-1.6-1.4-3.1-1.4c-2.5,0-6.3,1.2-10,3.3
			c-3.8-7.3-6.8-11.8-9.7-11.8C804.9,432.7,802.9,437.6,801.5,449.1 M708.4,453.7c-2-0.9-3.8-2.4-5.2-4.1c2.1-2.1,5-3.1,8.6-2.9
			c4.5,0.3,6.1,2.2,6.1,3.9c-0.1,2-2.1,4.1-5.4,4.1C711.2,454.6,709.8,454.3,708.4,453.7 M701.7,439.8c1.5-3.2,5.2-5.1,10.6-5.5
			c0.7-0.1,1.4-0.1,2-0.1c11,0,17,7.6,17,14.8c0,3.1-1.2,6-3.3,8.1c-2.9,2.7-7.4,4-12.8,3.5c-0.3,0-0.5,0.1-0.7,0.2
			c-0.2,0.2-0.3,0.4-0.3,0.7v0.6c0,0.1,0,0.1,0,0.2c0.4,1.7,1,6.7-0.6,8.7c-0.8,1-2.2,1.1-4.1,0.4c-4.3-1.6-7.4-5.2-8.7-9.9
			c-1-3.8-0.5-7.6,1.3-10.4c1.5,1.9,3.4,3.4,5.6,4.3c1.6,0.7,3.3,1.1,4.8,1.1c4.4,0,7.2-3,7.3-5.9c0.1-2.5-1.9-5.5-7.8-5.8
			c-4-0.2-7.3,0.9-9.7,3.2C700.7,445.2,700.5,442.2,701.7,439.8 M712.1,432.4c-7.7,0.6-10.8,3.9-12.1,6.5c-1.5,3.1-1.2,7,0.9,10.4
			c-2.4,3.3-3.2,7.9-1.9,12.5c1.4,5.2,5,9.3,9.8,11.1c1,0.4,2,0.6,2.8,0.6c1.4,0,2.5-0.5,3.3-1.5c2.1-2.6,1.4-7.9,1.1-9.7
			c5.6,0.3,10.1-1.1,13.2-4.1c2.5-2.4,3.9-5.7,3.9-9.4c0-8.1-6.6-16.6-18.8-16.6C713.6,432.3,712.9,432.4,712.1,432.4 M748.5,428.3
			c-4.5-0.2-12.4-1.6-14.7-9.4c-1.7-5.9,0.4-10.1,1.9-12c1.5-2,4.7-4.2,7-4.2c0.8,0,1.5,0.3,2,0.9c0.2,0.2,1.1,1.8-1.3,8.2
			c-0.1,0.3-0.2,0.6-0.2,0.6c-0.7,2.8-0.4,5.1,1,6.8c1.3,1.7,3.5,2.7,5.7,2.7c2,0,3.8-0.8,5.1-2.2c2.7-2.8,1.3-7.5,0.7-9.5l-0.1-0.3
			c-0.8-2.6-0.8-4.4-0.2-5.3c0.4-0.6,1.2-1,2.4-1.1c0.1,0,0.2,0,0.3,0c1.6,0,3.5,1.6,5,4.1c1.8,3.2,2.8,8.2,0,13
			c-2.9,5-7.6,7.6-13.8,7.6C749.1,428.4,748.8,428.3,748.5,428.3 M734.2,405.9c-1.7,2.2-4.1,6.9-2.2,13.6
			c3,10.2,14.2,10.7,16.4,10.7c4.5,0.2,11.8-0.8,16.2-8.5c3.1-5.4,2-11.2,0-14.8c-1.8-3.2-4.5-5.3-7.1-5c-5.7,0.7-4.7,5.7-3.8,8.9
			c0.4,1.5,2,5.8-0.1,8c-2.4,2.4-6.3,1.9-8-0.4c-1-1.3-1.2-3-0.6-5.2c0.1-0.5,3.3-7.9,1.2-10.5c-0.9-1.1-2.1-1.6-3.4-1.6
			C739.6,401,735.8,403.7,734.2,405.9 M818.7,417.6c0-4.8,2.7-7.3,5.2-7.3c2.4,0,4.9,2.2,5,7.2c0,4.1-1.8,7.6-4.9,9.6
			C820.9,424.8,818.6,420.2,818.7,417.6 M810.7,425.5c-3.2-2.7-4.1-8-2.3-13c2.3-6.5,8.3-10.3,15.8-10.3h0.2c5.3,0,9.3,1.7,12,4.8
			c5,6,3.7,15.5,3.4,17.4c-0.5,2.7-1.2,3.7-1.7,3.7c-1,0-2.6-1.9-3.3-3.3c-0.2-0.3-0.4-0.4-0.7-0.5c-0.3,0-0.6,0.1-0.8,0.4
			c-1.8,2.4-3.7,3.6-5.7,3.6c-0.6,0-1.2-0.1-1.8-0.3c3.1-2.4,5-6.2,4.9-10.6c0-6.2-3.5-9-6.8-9c-3.5,0-7,3.1-7.1,9.2
			c0,3,2.1,7.6,5.3,10.4c-1.2,0.4-2.4,0.7-3.6,0.7C815.8,428.6,813.1,427.5,810.7,425.5 M824.2,400.4c-8.4,0-14.9,4.3-17.6,11.5
			c-2.1,5.8-1,11.8,2.9,15c2.7,2.3,5.8,3.5,9,3.5c1.9,0,3.7-0.4,5.4-1.3c1.2,0.7,2.4,1,3.7,1c2.2,0,4.4-1.1,6.3-3.3
			c0.9,1.3,2.5,3.1,4.2,3.1c2.7,0,3.3-3.9,3.5-5.2c0.3-2,1.7-12.3-3.8-18.9c-3-3.6-7.5-5.4-13.3-5.5L824.2,400.4L824.2,400.4z
			 M847.4,420.4c0-8,2.7-12.2,5.9-15.4c2.6,2.9,5.2,6.9,5.2,15.4c0,5.6-2.7,8.1-5.4,8.1C850.3,428.5,847.4,425.7,847.4,420.4
			 M853.1,402.2c-1.8-1.8-3.1-3.2-3.2-5.2c0-1.2,0.3-2.2,1-2.9c0.7-0.7,1.7-1.1,2.8-1.1c1.8,0,3.6,1.1,3.7,3.6
			c0,2.1-1.5,3.5-3.6,5.5c-0.1,0.1-0.3,0.3-0.4,0.4C853.2,402.4,853.1,402.3,853.1,402.2 M849.6,392.8c-1,1.1-1.6,2.5-1.5,4.2
			c0.1,2.8,1.8,4.5,3.7,6.5c0.1,0.1,0.1,0.1,0.2,0.2c-3.5,3.5-6.5,8-6.4,16.7c0,6.5,3.8,9.9,7.6,9.9c3.5,0,7.2-3.1,7.2-9.9
			c0-8.8-2.7-13.3-5.7-16.7c0.1-0.1,0.3-0.2,0.4-0.4c2.3-2.1,4.2-3.9,4.2-6.8c0-3.6-2.8-5.4-5.5-5.4
			C852.1,391.1,850.6,391.8,849.6,392.8 M773.2,415c1.8-2.8,4.8-5,8.3-6.1c0.9-0.3,1.9-0.5,2.7-0.5c2.7,0,4.8,1.6,5.1,3.9
			c0.3,2.2-1.1,5.2-6.2,6.6c-1.1,0.3-2.1,0.4-3,0.4C776.4,419.3,774.3,417.1,773.2,415 M774.2,395.7c1.6-2.6,4.5-5.7,9.4-5.7
			c0.5,0,1.1,0,1.6,0.1c2,0.3,3.2,1,3.7,2.1c1.2,3-2.2,8.5-3.6,10.3c-0.3,0.3-0.2,0.8,0,1.2c0.3,0.3,0.8,0.4,1.1,0.2
			c0,0,3.4-1.9,7.2-1.9c0.8,0,1.5,0.1,2.2,0.2c4.6,1,7,4.5,6.4,9.4c-0.9,8-8.8,16.6-19.1,16.6l0,0c-1.4,0-2.8-0.2-4.2-0.4
			c-3.6-0.8-6-2.4-7.1-4.8c-0.8-1.8-0.7-4,0.1-6.1c2.5,3.7,6.6,5,11.4,3.7c6.2-1.7,7.9-5.7,7.5-8.6c-0.4-3.2-3.3-5.5-6.9-5.5
			c-1.1,0-2.2,0.2-3.3,0.5c-3.5,1.1-6.5,3.2-8.6,5.9C770.5,407.9,771.2,400.6,774.2,395.7 M772.7,394.7c-3.6,5.9-4.3,14.5-1.6,20.3
			c-1.6,3-1.9,6.2-0.7,8.8c0.9,2.1,3.1,4.7,8.4,5.9c1.5,0.3,3,0.5,4.5,0.5l0,0c11.3,0,20-9.5,21-18.3c0.7-5.9-2.3-10.2-7.9-11.4
			c-0.8-0.2-1.7-0.3-2.6-0.3c-2,0-3.8,0.4-5.2,0.9c1.5-2.6,3.3-6.6,2.1-9.5c-0.8-1.8-2.5-2.9-5.1-3.3c-0.6-0.1-1.2-0.1-1.8-0.1
			C779.2,388.1,775.3,390.4,772.7,394.7 M710.8,416.6c-1.6-0.7-2.4-2.3-2.2-3.9c0.2-1.5,1.4-3.2,4.1-3.6c0.7-0.1,1.5-0.2,2.2-0.2
			c3.7,0,6.8,1.4,8.7,4c-2.6,3.1-5.5,4.6-8.6,4.6C713.7,417.6,712.2,417.3,710.8,416.6 M712.1,401.6c0.2-0.3,0.3-0.7,0-1.1
			c0-0.1-3.9-6.2-2.4-10.5c0.6-1.6,1.8-2.8,3.9-3.5c1-0.4,2.1-0.5,3.1-0.5c3.6,0,7.2,2.3,9.5,6c3,4.8,3.3,10.9,0.8,15.8
			c-0.7,1.3-1.4,2.6-2.2,3.6c-2.8-3.3-7.3-4.9-12.4-4.2c-3.1,0.4-5.3,2.4-5.7,5.1c-0.4,2.5,0.9,4.7,3.2,5.8c1.6,0.8,3.4,1.2,5.1,1.2
			c2.5,0,6.1-0.9,9.6-4.8c1.3,2.7,1.3,5.8-0.1,8.3c-2.4,4.5-8.5,6.4-16.4,5c-9.2-1.6-11.9-9-11.4-14.8c0.5-5.9,4.3-11.9,10.6-11.9
			c1.2,0,2.4,0.2,3.6,0.6c0.1,0,0.2,0,0.3,0C711.7,402,711.9,401.8,712.1,401.6 M713,384.8c-2.6,0.9-4.3,2.5-5,4.6
			c-1.2,3.5,0.4,7.8,1.6,10.2c-0.7-0.1-1.4-0.2-2.1-0.2c-7.4,0-11.9,6.8-12.5,13.5c-0.6,7.2,3.1,15.1,12.9,16.8
			c1.8,0.3,3.6,0.5,5.2,0.5c8.4,0,11.8-4,13.1-6.4c1.8-3.3,1.7-7.4-0.2-10.8c1-1.3,1.9-2.8,2.7-4.4c2.8-5.5,2.4-12.2-0.9-17.6
			c-2.7-4.3-6.8-6.9-11.1-6.9C715.5,384.2,714.2,384.4,713,384.8"/>
	</g>
	<g>
		<g>
			<defs>
				<path id="SVGID_2_" d="M859.3,469.4v0.7h1.4v3.7h0.8v-3.7h1.4v-0.7H859.3z M866.7,469.4l-1.2,3.4l0,0l-1.2-3.4h-1.1v4.3h0.7
					v-3.3l0,0l1.2,3.3h0.6l1.2-3.3l0,0v3.3h0.7v-4.3H866.7z M746.2,460.8c0-4.8,2.7-7.3,5.2-7.3c2.4,0,4.9,2.2,5,7.2
					c0,4.1-1.8,7.6-4.9,9.6C748.5,468.1,746.2,463.5,746.2,460.8 M738.3,468.8c-3.2-2.7-4.1-8-2.3-13c2.3-6.5,8.3-10.3,15.8-10.3
					h0.2c5.3,0,9.3,1.7,11.9,4.8c5,6,3.8,15.5,3.4,17.4c-0.4,2.7-1.2,3.7-1.7,3.7c-1,0-2.6-1.9-3.3-3.3c-0.2-0.3-0.4-0.4-0.7-0.5
					c-0.3,0-0.6,0.1-0.8,0.4c-2.4,3.1-4.9,4.2-7.5,3.2c3.1-2.4,5-6.2,4.9-10.6c0-6.2-3.5-9-6.8-9c-3.5,0-7,3.1-7.1,9.2
					c0,3,2.1,7.6,5.3,10.4c-1.2,0.4-2.4,0.7-3.6,0.7C743.3,471.9,740.6,470.8,738.3,468.8 M751.8,443.6c-8.4,0-14.9,4.3-17.6,11.5
					c-2.1,5.8-1,11.8,2.9,15c2.7,2.3,5.8,3.5,9,3.5c1.9,0,3.7-0.4,5.4-1.3c1.2,0.7,2.4,1,3.6,1c2.2,0,4.4-1.1,6.3-3.3
					c0.9,1.3,2.5,3.1,4.2,3.1c2.7,0,3.3-3.9,3.5-5.2c0.3-2,1.7-12.3-3.8-18.9c-3-3.6-7.5-5.4-13.3-5.5L751.8,443.6L751.8,443.6z
					 M841.2,463.7c-1.8-0.8-3.2-2-4.2-3.5c1.4-0.4,3.2-0.5,4.8,0c2.2,0.6,3.1,1.9,3,2.9c-0.1,0.7-0.7,1.1-1.7,1.1
					C842.6,464.2,841.9,464,841.2,463.7 M848,455.7c-2.2,0-3.4-1.1-3.4-2c0-0.8,0.9-1.3,2.2-1.3c0.9,0,2.1,0.3,3.3,0.8
					c1,0.4,1.9,1,2.6,1.6c-1.2,0.6-2.7,1-4.4,1L848,455.7z M837,449.9c1.8-2.8,4.8-4.4,8.6-4.4h0.4c5.5,0.1,8.3,2.4,9,4.4
					c0.4,1.3,0.2,2.6-0.7,3.6c-1-0.9-2.1-1.6-3.4-2.2c-1.5-0.6-2.8-0.9-4-0.9c-2.7,0-4,1.6-4,3.1c0,1.9,1.8,3.8,5.2,3.9h0.3
					c2.2,0,4.2-0.5,5.7-1.4c1.7,2.3,2.3,5.4,1.4,8.2c-1,3.4-3.7,5.9-7.5,7c-1.3,0.3-2.6,0.5-3.9,0.5c-5.8,0-10.3-3.3-10.3-7.5
					c0-1.4,0.5-2.5,1.6-3.3c1.2,2,3,3.5,5.1,4.4c0.9,0.4,1.8,0.6,2.6,0.6c1.9,0,3.3-1.1,3.5-2.8c0.2-1.7-1-4-4.3-4.9
					c-2-0.5-4.3-0.5-6.1,0.1C835.1,455.7,835.4,452.4,837,449.9 M835.4,448.9c-1.9,3.1-2.3,7-0.9,10.4c-1.7,1.1-2.6,2.9-2.6,5
					c0,5.3,5.2,9.4,12.1,9.4c1.5,0,3-0.2,4.4-0.6c4.4-1.2,7.6-4.2,8.8-8.2c1-3.4,0.3-7.2-1.8-9.9c1.4-1.6,1.9-3.6,1.2-5.6
					c-1.2-3.4-5.2-5.6-10.7-5.7h-0.4C841.1,443.6,837.5,445.5,835.4,448.9 M775,460.7c0-2.3,0-4.4,0.2-6.3c0.8,1.3,2,2.3,3.8,2.9
					c3,1,6,1.1,8.9,0.5c1.5,3.6,1.7,7.3,0.4,10s-3.2,4.2-5.5,4.2C778.9,471.9,775,467.7,775,460.7 M779.6,455.5
					c-2.6-0.8-3.7-3.1-3.4-4.8c0.1-0.6,0.5-1.9,2.2-1.9c1,0,2.2,0.5,3.6,1.4c2.1,1.5,3.9,3.5,5.2,5.9c-0.9,0.2-1.8,0.3-2.7,0.3
					C782.8,456.3,781.2,456,779.6,455.5 M782.9,448.6c-1.3-0.9-2.6-1.5-3.7-1.7c1.6-0.8,4-1.5,7.8-1.5c1,0,2,0,3.1,0.1
					c3.5,0.2,5.8,1.3,6.3,2.7c0.4,1.2-0.5,2.8-2.5,4.5c-1.1,0.9-2.7,2-5,2.8C787.4,452.7,785.4,450.4,782.9,448.6 M774.9,448.7
					c-1.7,3.1-1.7,7.2-1.7,12c0,8.1,4.9,13,9.6,13c3,0,5.6-1.9,7.2-5.2c1.5-3.1,1.3-7.3-0.3-11.3c2.4-0.8,4.3-2.1,5.4-3.1
					c3.4-2.8,3.5-5.1,3.1-6.4c-0.7-2.2-3.5-3.7-7.9-4c-1.2-0.1-2.2-0.1-3.3-0.1C780.6,443.6,776.8,445.2,774.9,448.7 M815.6,466.3
					c2.5-2.8,5-5.9,6.9-8.3c1.3,2.6,2.4,4.7,3.4,6.6c2.3,4.3,2,5.8,1.7,6.3c-0.2,0.4-0.8,0.6-1.6,0.6
					C823.5,471.4,819.2,469.3,815.6,466.3 M809.2,456.2c-0.1-2.7,2.9-6.1,7.9-9.1c0.9,1.8,1.8,3.7,2.8,5.6c0.6,1.1,1.1,2.3,1.7,3.5
					c-1.9,2.5-4.6,5.9-7.4,8.9C811.1,462.1,809.3,458.9,809.2,456.2 M821.6,451.9c-1-2-1.9-3.9-2.9-5.7c3.5-1.9,7-3.1,9.2-3.1
					c0.8,0,1.4,0.2,1.5,0.4c0.1,0.1,0.3,0.7-0.6,2.3c-0.6,1.1-2.8,4.5-6,8.7C822.4,453.6,822,452.7,821.6,451.9 M805.2,471.8
					c-2.6-1.6-3.3-10.4-1.8-22.5c1.6-12.8,3.7-14.7,4.8-14.7c2.4,0,6.3,7.2,8.1,10.8c-2.8,1.7-9,6-8.9,10.8c0.1,4.2,3.3,8,5.6,10.2
					c-4.5,4.7-6.5,5.4-7.4,5.4l0,0C805.4,471.9,805.3,471.8,805.2,471.8 M801.5,449.1c-1,7.8-1.9,21.4,2.7,24.2
					c0.4,0.3,0.9,0.4,1.4,0.4l0,0c2,0,4.8-2,8.7-6c4,3.3,8.7,5.6,11.7,5.6c1.9,0,2.8-0.8,3.2-1.5c1-1.7,0.4-4.3-1.6-8.1
					c-1.1-2.1-2.3-4.3-3.8-7.3c3.2-4.3,5.9-8.2,6.7-9.6c1-1.7,1.1-3.1,0.6-4.1c-0.5-0.9-1.6-1.4-3.1-1.4c-2.5,0-6.3,1.2-10,3.3
					c-3.8-7.3-6.8-11.8-9.7-11.8C804.9,432.7,802.9,437.6,801.5,449.1 M708.4,453.7c-2-0.9-3.8-2.4-5.2-4.1c2.1-2.1,5-3.1,8.6-2.9
					c4.5,0.3,6.1,2.2,6.1,3.9c-0.1,2-2.1,4.1-5.4,4.1C711.2,454.6,709.8,454.3,708.4,453.7 M701.7,439.8c1.5-3.2,5.2-5.1,10.6-5.5
					c0.7-0.1,1.4-0.1,2-0.1c11,0,17,7.6,17,14.8c0,3.1-1.2,6-3.3,8.1c-2.9,2.7-7.4,4-12.8,3.5c-0.3,0-0.5,0.1-0.7,0.2
					c-0.2,0.2-0.3,0.4-0.3,0.7v0.6c0,0.1,0,0.1,0,0.2c0.4,1.7,1,6.7-0.6,8.7c-0.8,1-2.2,1.1-4.1,0.4c-4.3-1.6-7.4-5.2-8.7-9.9
					c-1-3.8-0.5-7.6,1.3-10.4c1.5,1.9,3.4,3.4,5.6,4.3c1.6,0.7,3.3,1.1,4.8,1.1c4.4,0,7.2-3,7.3-5.9c0.1-2.5-1.9-5.5-7.8-5.8
					c-4-0.2-7.3,0.9-9.7,3.2C700.7,445.2,700.5,442.2,701.7,439.8 M712.1,432.4c-7.7,0.6-10.8,3.9-12.1,6.5c-1.5,3.1-1.2,7,0.9,10.4
					c-2.4,3.3-3.2,7.9-1.9,12.5c1.4,5.2,5,9.3,9.8,11.1c1,0.4,2,0.6,2.8,0.6c1.4,0,2.5-0.5,3.3-1.5c2.1-2.6,1.4-7.9,1.1-9.7
					c5.6,0.3,10.1-1.1,13.2-4.1c2.5-2.4,3.9-5.7,3.9-9.4c0-8.1-6.6-16.6-18.8-16.6C713.6,432.3,712.9,432.4,712.1,432.4
					 M748.5,428.3c-4.5-0.2-12.4-1.6-14.7-9.4c-1.7-5.9,0.4-10.1,1.9-12c1.5-2,4.7-4.2,7-4.2c0.8,0,1.5,0.3,2,0.9
					c0.2,0.2,1.1,1.8-1.3,8.2c-0.1,0.3-0.2,0.6-0.2,0.6c-0.7,2.8-0.4,5.1,1,6.8c1.3,1.7,3.5,2.7,5.7,2.7c2,0,3.8-0.8,5.1-2.2
					c2.7-2.8,1.3-7.5,0.7-9.5l-0.1-0.3c-0.8-2.6-0.8-4.4-0.2-5.3c0.4-0.6,1.2-1,2.4-1.1c0.1,0,0.2,0,0.3,0c1.6,0,3.5,1.6,5,4.1
					c1.8,3.2,2.8,8.2,0,13c-2.9,5-7.6,7.6-13.8,7.6C749.1,428.4,748.8,428.3,748.5,428.3 M734.2,405.9c-1.7,2.2-4.1,6.9-2.2,13.6
					c3,10.2,14.2,10.7,16.4,10.7c4.5,0.2,11.8-0.8,16.2-8.5c3.1-5.4,2-11.2,0-14.8c-1.8-3.2-4.5-5.3-7.1-5c-5.7,0.7-4.7,5.7-3.8,8.9
					c0.4,1.5,2,5.8-0.1,8c-2.4,2.4-6.3,1.9-8-0.4c-1-1.3-1.2-3-0.6-5.2c0.1-0.5,3.3-7.9,1.2-10.5c-0.9-1.1-2.1-1.6-3.4-1.6
					C739.6,401,735.8,403.7,734.2,405.9 M818.7,417.6c0-4.8,2.7-7.3,5.2-7.3c2.4,0,4.9,2.2,5,7.2c0,4.1-1.8,7.6-4.9,9.6
					C820.9,424.8,818.6,420.2,818.7,417.6 M810.7,425.5c-3.2-2.7-4.1-8-2.3-13c2.3-6.5,8.3-10.3,15.8-10.3h0.2c5.3,0,9.3,1.7,12,4.8
					c5,6,3.7,15.5,3.4,17.4c-0.5,2.7-1.2,3.7-1.7,3.7c-1,0-2.6-1.9-3.3-3.3c-0.2-0.3-0.4-0.4-0.7-0.5c-0.3,0-0.6,0.1-0.8,0.4
					c-1.8,2.4-3.7,3.6-5.7,3.6c-0.6,0-1.2-0.1-1.8-0.3c3.1-2.4,5-6.2,4.9-10.6c0-6.2-3.5-9-6.8-9c-3.5,0-7,3.1-7.1,9.2
					c0,3,2.1,7.6,5.3,10.4c-1.2,0.4-2.4,0.7-3.6,0.7C815.8,428.6,813.1,427.5,810.7,425.5 M824.2,400.4c-8.4,0-14.9,4.3-17.6,11.5
					c-2.1,5.8-1,11.8,2.9,15c2.7,2.3,5.8,3.5,9,3.5c1.9,0,3.7-0.4,5.4-1.3c1.2,0.7,2.4,1,3.7,1c2.2,0,4.4-1.1,6.3-3.3
					c0.9,1.3,2.5,3.1,4.2,3.1c2.7,0,3.3-3.9,3.5-5.2c0.3-2,1.7-12.3-3.8-18.9c-3-3.6-7.5-5.4-13.3-5.5L824.2,400.4L824.2,400.4z
					 M847.4,420.4c0-8,2.7-12.2,5.9-15.4c2.6,2.9,5.2,6.9,5.2,15.4c0,5.6-2.7,8.1-5.4,8.1C850.3,428.5,847.4,425.7,847.4,420.4
					 M853.1,402.2c-1.8-1.8-3.1-3.2-3.2-5.2c0-1.2,0.3-2.2,1-2.9c0.7-0.7,1.7-1.1,2.8-1.1c1.8,0,3.6,1.1,3.7,3.6
					c0,2.1-1.5,3.5-3.6,5.5c-0.1,0.1-0.3,0.3-0.4,0.4C853.2,402.4,853.1,402.3,853.1,402.2 M849.6,392.8c-1,1.1-1.6,2.5-1.5,4.2
					c0.1,2.8,1.8,4.5,3.7,6.5c0.1,0.1,0.1,0.1,0.2,0.2c-3.5,3.5-6.5,8-6.4,16.7c0,6.5,3.8,9.9,7.6,9.9c3.5,0,7.2-3.1,7.2-9.9
					c0-8.8-2.7-13.3-5.7-16.7c0.1-0.1,0.3-0.2,0.4-0.4c2.3-2.1,4.2-3.9,4.2-6.8c0-3.6-2.8-5.4-5.5-5.4
					C852.1,391.1,850.6,391.8,849.6,392.8 M773.2,415c1.8-2.8,4.8-5,8.3-6.1c0.9-0.3,1.9-0.5,2.7-0.5c2.7,0,4.8,1.6,5.1,3.9
					c0.3,2.2-1.1,5.2-6.2,6.6c-1.1,0.3-2.1,0.4-3,0.4C776.4,419.3,774.3,417.1,773.2,415 M774.2,395.7c1.6-2.6,4.5-5.7,9.4-5.7
					c0.5,0,1.1,0,1.6,0.1c2,0.3,3.2,1,3.7,2.1c1.2,3-2.2,8.5-3.6,10.3c-0.3,0.3-0.2,0.8,0,1.2c0.3,0.3,0.8,0.4,1.1,0.2
					c0,0,3.4-1.9,7.2-1.9c0.8,0,1.5,0.1,2.2,0.2c4.6,1,7,4.5,6.4,9.4c-0.9,8-8.8,16.6-19.1,16.6l0,0c-1.4,0-2.8-0.2-4.2-0.4
					c-3.6-0.8-6-2.4-7.1-4.8c-0.8-1.8-0.7-4,0.1-6.1c2.5,3.7,6.6,5,11.4,3.7c6.2-1.7,7.9-5.7,7.5-8.6c-0.4-3.2-3.3-5.5-6.9-5.5
					c-1.1,0-2.2,0.2-3.3,0.5c-3.5,1.1-6.5,3.2-8.6,5.9C770.5,407.9,771.2,400.6,774.2,395.7 M772.7,394.7
					c-3.6,5.9-4.3,14.5-1.6,20.3c-1.6,3-1.9,6.2-0.7,8.8c0.9,2.1,3.1,4.7,8.4,5.9c1.5,0.3,3,0.5,4.5,0.5l0,0c11.3,0,20-9.5,21-18.3
					c0.7-5.9-2.3-10.2-7.9-11.4c-0.8-0.2-1.7-0.3-2.6-0.3c-2,0-3.8,0.4-5.2,0.9c1.5-2.6,3.3-6.6,2.1-9.5c-0.8-1.8-2.5-2.9-5.1-3.3
					c-0.6-0.1-1.2-0.1-1.8-0.1C779.2,388.1,775.3,390.4,772.7,394.7 M710.8,416.6c-1.6-0.7-2.4-2.3-2.2-3.9c0.2-1.5,1.4-3.2,4.1-3.6
					c0.7-0.1,1.5-0.2,2.2-0.2c3.7,0,6.8,1.4,8.7,4c-2.6,3.1-5.5,4.6-8.6,4.6C713.7,417.6,712.2,417.3,710.8,416.6 M712.1,401.6
					c0.2-0.3,0.3-0.7,0-1.1c0-0.1-3.9-6.2-2.4-10.5c0.6-1.6,1.8-2.8,3.9-3.5c1-0.4,2.1-0.5,3.1-0.5c3.6,0,7.2,2.3,9.5,6
					c3,4.8,3.3,10.9,0.8,15.8c-0.7,1.3-1.4,2.6-2.2,3.6c-2.8-3.3-7.3-4.9-12.4-4.2c-3.1,0.4-5.3,2.4-5.7,5.1
					c-0.4,2.5,0.9,4.7,3.2,5.8c1.6,0.8,3.4,1.2,5.1,1.2c2.5,0,6.1-0.9,9.6-4.8c1.3,2.7,1.3,5.8-0.1,8.3c-2.4,4.5-8.5,6.4-16.4,5
					c-9.2-1.6-11.9-9-11.4-14.8c0.5-5.9,4.3-11.9,10.6-11.9c1.2,0,2.4,0.2,3.6,0.6c0.1,0,0.2,0,0.3,0
					C711.7,402,711.9,401.8,712.1,401.6 M713,384.8c-2.6,0.9-4.3,2.5-5,4.6c-1.2,3.5,0.4,7.8,1.6,10.2c-0.7-0.1-1.4-0.2-2.1-0.2
					c-7.4,0-11.9,6.8-12.5,13.5c-0.6,7.2,3.1,15.1,12.9,16.8c1.8,0.3,3.6,0.5,5.2,0.5c8.4,0,11.8-4,13.1-6.4
					c1.8-3.3,1.7-7.4-0.2-10.8c1-1.3,1.9-2.8,2.7-4.4c2.8-5.5,2.4-12.2-0.9-17.6c-2.7-4.3-6.8-6.9-11.1-6.9
					C715.5,384.2,714.2,384.4,713,384.8"/>
			</defs>
			<clipPath id="SVGID_3_">
				<use xlink:href="#SVGID_2_"  style="overflow:visible;"/>
			</clipPath>
			<rect x="694.4" y="384.2" class="st3" width="173.4" height="89.5"/>
		</g>
	</g>
</g>
<path class="st1" d="M832.2,683.1c0,1.3-0.6,3.4-2.2,3.4c-2.9,0-2.1-2.4-5.2-7.2c-2.6-4-7.7-4.9-9.6-5c3.4-0.3,15.2-0.2,15.2-8.1
	c0-7.9-11.8-8.3-15-8.3s-23.9,0-23.9,0v1.8h3.2c4.1,0,3.7,2.8,3.7,2.8V684c0,3.3-0.9,4.5-3.6,4.5c-1.1,0-0.2,0-2.2,0
	c-2.8,0-4.6-3.7-4.6-3.7l-15.5-27.5h-3.2c0,0-13.1,24.1-14.9,27.3c-1.8,3.2-4.5,4-6.2,4c-0.9,0,0,0,0,0h-1.4c-3.9,0-3.6-4.2-3.6-4.2
	v-21.1c0-3.7,3.7-3.5,3.7-3.5h2.3V658h-17.7l-8.9,22l-8.7-22H696v1.8h2.3c2.9,0,3.3,2.2,3.3,2.8c0,0.2,0,21.8,0,21.8
	c0,3.9-5.9,4.2-5.9,4.2v1.7h15.6v-1.7c-6.6,0-6.4-4.2-6.4-4.2v-23.2l11.5,29.1h5.3l11.8-28.8v22.9c0,2.8-0.9,4.2-3.8,4.2
	c-0.3,0-1.8,0-1.8,0v1.7h36.7v-1.7h-3c-5,0-3.2-4.1-3.2-4.1l2.4-4.9h13.6l3.2,5.6c0,0,2,3.4-2.2,3.4H772v1.7h42.1v-1.7h-2.2
	c-4.1,0-4-3.2-4-4.2s0-9.5,0-9.5c2.7,0,7.1,0.1,7.6,5.8s0.9,10.3,9.7,10.3c6.5,0,9.4-3,9.4-7.7C833.5,683.1,833,683.1,832.2,683.1z
	 M762.2,677l5.2-9.8l5.5,9.8H762.2z M811.8,672.9c-1,0-3.8,0-3.8,0v-9.8c0,0-0.5-3.2,4.4-3.2s7.1,3.2,7.1,6.6
	C819.4,672.5,812.8,672.9,811.8,672.9z M851,669.4c-5.3-1-7.7-3.3-7.3-5.8c0.3-1.9,2.2-4.2,6.9-4.2c9.6,0,12.5,9.6,12.5,9.6h2.2
	v-11.2h-2.7c0,1.2-1.2,1.8-2.3,1.9c-1.9,0-4.2-2.5-10.3-2.5c-9.3,0-14.4,5.1-14.4,10.2c0,5.1,3.7,8.1,14.7,10.5
	c5.5,1.2,8.7,2.4,9,5.4c0.3,2.9-2.7,5.5-7.6,5.5c-10.9,0-13.9-10.8-13.9-10.8h-2.4v12.3c0,0,1.2,0,2.5,0c0-1.6,2.4-2.4,4.6-1.5
	c2.5,1.1,5.4,2.1,9.3,2.1c7.9,0,15.9-4,15.9-10.5C867.8,673.2,860.5,671.2,851,669.4z"/>
<g id="Dettol_3_">
	<rect id="XMLID_36_" x="838.2" y="904.3" class="st1" width="7.4" height="37.8"/>
	<path id="XMLID_33_" class="st1" d="M822.8,936.7c3.7,0,6.4-4,6.4-8.8s-2.7-8.9-6.3-8.9c-4.1,0.2-6.6,4.1-6.6,8.9
		C816.3,932.7,819.1,936.7,822.8,936.7 M822.8,912.9c7.7,0,13.9,6.6,13.9,14.8s-6.3,14.8-13.9,14.8c-7.7,0-13.9-6.6-13.9-14.8
		C808.9,919.5,815.2,912.9,822.8,912.9"/>
	<path id="XMLID_32_" class="st1" d="M808.8,913.9v5.6h-3.6v13.9c0.1,2.2,1.2,2.8,2.3,2.9h2.8v5.8H810c-1.5,0-4.6-0.1-5.7,0
		c-0.6,0-1.1-0.1-1.7-0.2c-0.6-0.2-1.1-0.4-1.7-0.5c-2-0.6-3.3-2.2-3.5-5.5v-16.2h-3.8V914h3.8v-8.1h7.4v8.1L808.8,913.9"/>
	<path id="XMLID_31_" class="st1" d="M792,913.9v5.6h-4v13.9c0.2,2.3,1.6,2.9,2.6,2.9h3.1v5.8h-0.3c-1.5,0-4.9-0.1-5.9,0
		c-0.6,0-1.1-0.1-1.7-0.2c-0.6-0.2-1.1-0.4-1.7-0.5c-2-0.6-3.2-2.2-3.6-5.5v-16.2h-3.8V914h3.8v-8.1h7.4v8.1L792,913.9"/>
	<path id="XMLID_28_" class="st1" d="M765,919.3c-4.4-0.2-5.4,4.1-5.5,5.1l10.7,0.3l-0.1-0.2c0-0.2-0.1-0.5-0.3-1
		c-0.1-0.5-0.4-1.1-0.7-1.7C768.5,920.5,767.2,919.4,765,919.3 M770.1,933.1h8l-0.1,0.4c-1.9,6.1-8.5,9.5-13.3,9.2
		c-2.7-0.2-5.1-1-7-2.2c-2.5-1.7-4.8-4-6.2-9.9c-0.4-1.5-0.2-3.7,0.2-5.8c2.1-10.4,10.3-11.5,13.5-11.4c5.3,0.2,8.4,3,10.1,5.8
		c2.3,3.8,2.9,7.2,2.8,10.3v0.3h-19c-0.2,1.7,0.4,3.4,1.5,4.7c1.8,2.1,3.9,2.3,6,2c2-0.4,2.9-1.7,3.4-3.1L770.1,933.1z"/>
	<path id="XMLID_25_" class="st1" d="M739,914.7c-2-2.9-5.2-3.5-8-3.5h-2.4V936h1.6c3.5,0.2,8.3-1,10-4.8c0.9-1.8,1.4-5.2,1.3-8.3
		C741.6,919.7,740.4,916.6,739,914.7 M746.8,935.7c-3.1,4.4-9.8,7-14.3,6.7h-11.9v-38h12.9c5.2-0.3,11.5,2.9,14.7,9.6
		c0.8,1.5,2,4.6,2,8.4C750.2,928.8,748.7,933.1,746.8,935.7"/>
</g>
</svg>
