<svg xmlns="http://www.w3.org/2000/svg" viewBox="0 0 768.43 991.87"><defs><style>.cls-1{fill:#da2128;}</style></defs><title>People 1</title><g id="Layer_2" data-name="Layer 2"><g id="Layer_1-2" data-name="Layer 1"><path class="cls-1" d="M6.94,152.73H32.86l24.29,76.75h.41V152.73H78.79V298.06H58.18l-28.37-88h-.41v88H6.94Z"/><path class="cls-1" d="M128.18,149.87c23.47,0,38.78,18.17,38.78,75.52s-15.31,75.52-38.78,75.52-38.78-18.17-38.78-75.52S104.7,149.87,128.18,149.87Zm-9.8,90.83c0,31.43,3.67,37.76,9.8,37.76s9.8-6.33,9.8-37.76V210.08c0-31.43-3.68-37.76-9.8-37.76s-9.8,6.33-9.8,37.76Z"/><path class="cls-1" d="M177.57,152.73h25.92l24.29,76.75h.41V152.73h21.23V298.06H228.8l-28.37-88H200v88H177.57Z"/><path class="cls-1" d="M263.4,152.73h60v22.45H289.94v37.15h24.7V236h-24.7v39.6h34.91v22.45H263.4Z"/><path class="cls-1" d="M393.44,149.87c23.47,0,38.78,18.17,38.78,75.52s-15.31,75.52-38.78,75.52-38.78-18.17-38.78-75.52S370,149.87,393.44,149.87Zm-9.8,90.83c0,31.43,3.67,37.76,9.8,37.76s9.8-6.33,9.8-37.76V210.08c0-31.43-3.68-37.76-9.8-37.76s-9.8,6.33-9.8,37.76Z"/><path class="cls-1" d="M443.31,152.73h59.4v22.45H469.85V214h24.29v23.68H469.85v60.42H443.31Z"/><path class="cls-1" d="M565.38,149.87c23.47,0,38.78,18.17,38.78,75.52s-15.31,75.52-38.78,75.52-38.78-18.17-38.78-75.52S541.9,149.87,565.38,149.87Zm-9.8,90.83c0,31.43,3.67,37.76,9.8,37.76s9.8-6.33,9.8-37.76V210.08c0-31.43-3.68-37.76-9.8-37.76s-9.8,6.33-9.8,37.76Z"/><path class="cls-1" d="M614.5,152.73H641V265.2c0,6.53,1.43,13.27,9.18,13.27,7.35,0,9.8-6.33,9.8-13.27V152.73h22.45v109c0,28.58-12.66,39.19-33.88,39.19-20.41,0-34.09-10.61-34.09-39.19Z"/><path class="cls-1" d="M696.38,152.73h29.81c25.31,0,42,10.61,42,41.23,0,12.25-3.67,28.57-15.51,35.52l15.71,68.59H741.7L729.24,235.6h-6.32v62.46H696.38Zm26.54,61.64h5.31c9.8,0,13.47-9.8,13.47-20.21C741.7,178.44,736,174,727,174h-4.08Z"/><path class="cls-1" d="M8,325.46H34.5v58.38H51.24V325.46H77.77V470.8H51.24V409.15H34.5V470.8H8Z"/><path class="cls-1" d="M91.68,325.46h26.53V437.93c0,6.53,1.43,13.27,9.18,13.27,7.35,0,9.8-6.33,9.8-13.27V325.46h22.45v109c0,28.58-12.66,39.19-33.88,39.19-20.41,0-34.09-10.61-34.09-39.19Z"/><path class="cls-1" d="M173.07,325.46h35.31L220.23,400h.41l12.45-74.5h34.5V470.8H243.9V364.24h-.41l-18,106.55h-14.7L193.08,364.24h-.41V470.8h-19.6Z"/><path class="cls-1" d="M295.51,325.46h38.38l18,145.34H326.33l-3.88-32.25H301l-3.68,32.25H275.1Zm16.94,22.45H312l-8.37,69.4h16.53Z"/><path class="cls-1" d="M359.27,325.46h25.92l24.29,76.75h.41V325.46h21.23V470.8H410.5l-28.37-88h-.41v88H359.27Z"/><path class="cls-1" d="M464.42,428.75c0,8.16,0,22.45,11.43,22.45,8.78,0,11.84-8.16,11.84-14.08,0-25.92-48.18-31.84-48.18-74.91,0-21.84,11.84-39.6,34.29-39.6,23.88,0,33.07,18.17,33.68,44.29H483.81c0-8.16,0-21.84-10.61-21.84-6.33,0-10,5.31-10,13.27,0,24.7,48.17,33.07,48.17,75.32,0,22.25-12.66,40-36.54,40-28.38,0-34.09-24.9-34.09-44.9Z"/><path class="cls-1" d="M561.14,325.46h38.38l18,145.34H592l-3.88-32.25H566.66L563,470.8H540.73Zm16.94,22.45h-.41l-8.37,69.4h16.53Z"/><path class="cls-1" d="M625.36,325.46h29.81c25.31,0,42,10.61,42,41.23,0,12.25-3.67,28.57-15.51,35.52l15.71,68.59H670.68l-12.45-62.46H651.9V470.8H625.36Zm26.54,61.64h5.31c9.8,0,13.47-9.8,13.47-20.21,0-15.72-5.71-20.21-14.7-20.21H651.9Z"/><path class="cls-1" d="M706.59,325.46h60v22.45H733.13v37.15h24.7v23.68h-24.7v39.6H768V470.8H706.59Z"/><path class="cls-1" d="M8,498.2H37.77c25.31,0,42,10.61,42,41.23,0,12.25-3.67,28.58-15.51,35.52L80,643.53H53.28L40.82,581.07H34.5v62.46H8ZM34.5,559.84h5.31c9.8,0,13.47-9.8,13.47-20.21,0-15.72-5.71-20.21-14.7-20.21H34.5Z"/><path class="cls-1" d="M124.79,495.34c23.47,0,38.78,18.17,38.78,75.53s-15.31,75.53-38.78,75.53S86,628.22,86,570.87,101.32,495.34,124.79,495.34ZM115,586.18c0,31.43,3.67,37.76,9.8,37.76s9.8-6.33,9.8-37.76V555.56c0-31.43-3.68-37.76-9.8-37.76s-9.8,6.33-9.8,37.76Z"/><path class="cls-1" d="M174.66,498.2h32.66c16.33,0,35.93,9,35.93,36.74,0,16.33-7.35,29-23.68,32.46v.41c18.17,4.29,26.53,16.94,26.53,35.31,0,26.54-18,40.42-37.56,40.42H174.66Zm26.53,59.6c13.27,0,16.74-6.12,16.74-19.19,0-16.54-3.47-19.39-16.74-19.19Zm0,64.5c15.92,0,18.37-6.33,18.37-21.43,0-13.27-3.27-20.82-18.37-20.62Z"/><path class="cls-1" d="M291.29,495.34c23.47,0,38.78,18.17,38.78,75.53s-15.31,75.53-38.78,75.53-38.78-18.17-38.78-75.53S267.81,495.34,291.29,495.34Zm-9.8,90.84c0,31.43,3.67,37.76,9.8,37.76s9.8-6.33,9.8-37.76V555.56c0-31.43-3.68-37.76-9.8-37.76s-9.8,6.33-9.8,37.76Z"/><path class="cls-1" d="M354.76,520.65H331.9V498.2h72.26v22.45H381.29V643.53H354.76Z"/><path class="cls-1" d="M431.7,601.48c0,8.16,0,22.45,11.43,22.45,8.78,0,11.84-8.16,11.84-14.08,0-25.92-48.18-31.84-48.18-74.91,0-21.84,11.84-39.6,34.29-39.6,23.88,0,33.07,18.17,33.68,44.3H451.09c0-8.16,0-21.84-10.61-21.84-6.33,0-10,5.31-10,13.27,0,24.7,48.17,33.07,48.17,75.32,0,22.25-12.66,40-36.54,40-28.38,0-34.09-24.9-34.09-44.91Z"/><path class="cls-1" d="M486.76,617h26.53v26.53H486.76Z"/><path class="cls-1" d="M529.09,498.2h24.09l9.39,85.32H563l12.66-85.32h23.88l11.63,85.32h.41L622,498.2h19L622,643.53H597.89l-12.66-92.06h-.41l-13.06,92.06H548.48Z"/><path class="cls-1" d="M648.76,498.2h60v22.45H675.3V557.8H700v23.68H675.3v39.6h34.9v22.45H648.76Z"/><path class="cls-1" d="M21,670.94H59.4l18,145.34H51.85L48,784H26.54l-3.68,32.25H.62ZM38,693.39h-.41l-8.37,69.4H45.72Z"/><path class="cls-1" d="M85.25,670.94h29.81c25.31,0,42,10.61,42,41.23,0,12.25-3.67,28.58-15.51,35.52l15.71,68.59H130.56l-12.45-62.46h-6.32v62.46H85.25Zm26.54,61.65h5.31c9.8,0,13.47-9.8,13.47-20.21,0-15.72-5.71-20.21-14.7-20.21h-4.08Z"/><path class="cls-1" d="M166.48,670.94h60v22.45H193v37.15h24.7v23.68H193v39.6h34.91v22.45H166.48Z"/><path class="cls-1" d="M282.83,670.94h38.38l18,145.34H313.65L309.78,784H288.34l-3.68,32.25H262.42Zm16.94,22.45h-.41L291,762.79h16.53Z"/><path class="cls-1" d="M347.05,670.94h26.53V793.82h33.89v22.45H347.05Z"/><path class="cls-1" d="M415.67,670.94H451l11.84,74.5h.41l12.45-74.5h34.5V816.27H486.5V709.72h-.41l-18,106.55h-14.7L435.67,709.72h-.41V816.27h-19.6Z"/><path class="cls-1" d="M559.66,668.08c23.47,0,38.78,18.17,38.78,75.53s-15.31,75.53-38.78,75.53S520.88,801,520.88,743.6,536.18,668.08,559.66,668.08Zm-9.8,90.84c0,31.43,3.67,37.76,9.8,37.76s9.8-6.33,9.8-37.76V728.29c0-31.43-3.68-37.76-9.8-37.76s-9.8,6.33-9.8,37.76Z"/><path class="cls-1" d="M628.95,774.22c0,8.16,0,22.45,11.43,22.45,8.78,0,11.84-8.16,11.84-14.08,0-25.92-48.18-31.84-48.18-74.91,0-21.84,11.84-39.6,34.29-39.6,23.88,0,33.07,18.17,33.68,44.3H648.34c0-8.16,0-21.84-10.61-21.84-6.33,0-10,5.31-10,13.27,0,24.7,48.17,33.07,48.17,75.32,0,22.25-12.66,40-36.54,40-28.38,0-34.09-24.9-34.09-44.91Z"/><path class="cls-1" d="M699.13,693.39H676.27V670.94h72.26v22.45H725.67V816.27H699.13Z"/><path class="cls-1" d="M0,969.41H15.92V872.86L0,875.52V859.39c8.58-3.67,20.62-9.39,28-15.72H39.6V969.41H55.52V989H0Z"/><path class="cls-1" d="M92.64,990.64c-17.14,0-34.7-12.66-34.7-74.3S75.49,842,92.64,842c16.74,0,34.7,13.88,34.7,74.3S109.38,990.64,92.64,990.64Zm0-129c-5.31,0-9.39,4.29-9.39,54.7S87.33,971,92.64,971s9.39-4.29,9.39-54.7S97.94,861.64,92.64,861.64Z"/><path class="cls-1" d="M169.92,990.64c-17.14,0-34.7-12.66-34.7-74.3s17.56-74.3,34.7-74.3c16.74,0,34.7,13.88,34.7,74.3S186.66,990.64,169.92,990.64Zm0-129c-5.31,0-9.39,4.29-9.39,54.7s4.08,54.7,9.39,54.7,9.39-4.29,9.39-54.7S175.23,861.64,169.92,861.64Z"/><path class="cls-1" d="M211.41,874.7c0-12,1-32,17.15-32.66,16.13.61,17.14,20.62,17.14,32.66v9.18c0,12-1,32-17.14,32.66-16.13-.61-17.15-20.62-17.15-32.66ZM271,843.88h15.1L239,989H223.45Zm-47.36,35.52c.2,19.6,1.63,26.13,4.9,26.13s4.7-6.53,4.9-26.13c0-19.8-1.43-26.33-5.1-26.33C225.09,853.06,223.66,859.6,223.66,879.39Zm40.82,69.4c0-12,1-32,17.14-32.66,16.13.61,17.15,20.62,17.15,32.66V958c0,12-1,32-17.15,32.66C265.5,990,264.48,970,264.48,958Zm12.25,4.69c.2,19.6,1.63,26.13,4.9,26.13s4.7-6.53,4.9-26.13c0-19.8-1.43-26.33-5.1-26.33C278.16,927.16,276.73,933.69,276.73,953.49Z"/><path class="cls-1" d="M360.63,947c0,8.16,0,22.45,11.43,22.45,8.78,0,11.84-8.16,11.84-14.08,0-25.92-48.18-31.84-48.18-74.91,0-21.84,11.84-39.6,34.29-39.6,23.88,0,33.07,18.17,33.68,44.3H380c0-8.16,0-21.84-10.61-21.84-6.33,0-10,5.31-10,13.27,0,24.7,48.17,33.07,48.17,75.32,0,22.25-12.66,40-36.54,40C342.66,991.87,337,967,337,947Z"/><path class="cls-1" d="M415.28,843.67h26.53V956.14c0,6.53,1.43,13.27,9.18,13.27,7.35,0,9.8-6.33,9.8-13.27V843.67h22.45v109c0,28.57-12.66,39.19-33.88,39.19-20.41,0-34.09-10.62-34.09-39.19Z"/><path class="cls-1" d="M497.16,843.67H527c25.31,0,42,10.61,42,41.23,0,12.25-3.67,28.58-15.51,35.52L569.21,989H542.47L530,926.55H523.7V989H497.16Zm26.54,61.65H529c9.8,0,13.47-9.8,13.47-20.21,0-15.72-5.71-20.21-14.7-20.21H523.7Z"/><path class="cls-1" d="M578.38,843.67h60v22.45H604.92v37.15h24.7V927h-24.7v39.6h34.91V989H578.38Z"/><path class="cls-1" d="M650,962.47h26.53V989H650Z"/><path class="cls-1" d="M6.73.93h8.63c9.76,0,14.87,3.92,14.87,14.14,0,8.5-3.32,14.21-11.42,14.21H15.36V48.2H6.73Zm8.7,21.45h.73c3.52,0,5.45-1.39,5.45-7.1,0-6.84-2.66-7-5.51-7h-.67Z"/><path class="cls-1" d="M33.52.93H53v7.3H42.15V20.32h8V28h-8V40.9H53.5v7.3h-20Z"/><path class="cls-1" d="M68.48,0c7.64,0,12.61,5.91,12.61,24.57s-5,24.57-12.61,24.57S55.86,43.22,55.86,24.57,60.84,0,68.48,0ZM65.29,29.55c0,10.22,1.19,12.28,3.19,12.28s3.18-2.06,3.18-12.28v-10c0-10.22-1.19-12.28-3.18-12.28s-3.19,2.06-3.19,12.28Z"/><path class="cls-1" d="M85.85.93h8.63c9.76,0,14.87,3.92,14.87,14.14,0,8.5-3.32,14.21-11.42,14.21H94.48V48.2H85.85Zm8.7,21.45h.73c3.52,0,5.45-1.39,5.45-7.1,0-6.84-2.66-7-5.51-7h-.67Z"/><path class="cls-1" d="M114,.93h8.63v40h11v7.3H114Z"/><path class="cls-1" d="M137.62.93h19.52v7.3H146.25V20.32h8V28h-8V40.9H157.6v7.3h-20Z"/><rect class="cls-1" x="6.73" y="71.35" width="150.88" height="17.6"/></g></g></svg>