<svg xmlns="http://www.w3.org/2000/svg" viewBox="0 0 763.77 1209.5"><defs><style>.philosophy-fill{fill:#da2128;}</style></defs><title>Philosophy</title><g id="Layer_2" data-name="Layer 2"><g id="Layer_1-2" data-name="Layer 1"><path class="philosophy-fill" d="M32.37,152.69H93.24l28.49,230.5H81.26L75.11,332h-34L35.29,383.2H0ZM59.24,188.3H58.6L45.32,298.38H71.55Z"/><path class="philosophy-fill" d="M132.24,152.69h42.09V347.59h53.74V383.2H132.24Z"/><path class="philosophy-fill" d="M220.32,152.69h38.2L273.42,288h.64l20.07-135.32H332L350.47,288h.64l16.51-135.32h30.11L367.62,383.2h-38.2l-20.07-146h-.64L288,383.2H251.08Z"/><path class="philosophy-fill" d="M424.34,152.69H485.2l28.49,230.5H473.22L467.07,332h-34l-5.83,51.15H392Zm26.87,35.61h-.65L437.29,298.38h26.22Z"/><path class="philosophy-fill" d="M538.83,294.17,500.31,152.69h41.76L562.14,243h.65l21.37-90.32h35.29L580.92,290.28V383.2H538.83Z"/><path class="philosophy-fill" d="M661.85,316.51c0,12.95,0,35.61,18.13,35.61,13.92,0,18.78-12.95,18.78-22.34,0-41.12-76.4-50.5-76.4-118.81,0-34.64,18.78-62.81,54.39-62.81,37.88,0,52.45,28.81,53.42,70.25H692.61c0-12.95,0-34.64-16.84-34.64-10,0-15.86,8.42-15.86,21,0,39.17,76.4,52.45,76.4,119.46,0,35.29-20.07,63.45-58,63.45-45,0-54.06-39.5-54.06-71.22Z"/><path class="philosophy-fill" d="M10,426.62H51.15L89.67,548.34h.65V426.62H124v230.5H91.29l-45-139.53h-.65V657.12H10Z"/><path class="philosophy-fill" d="M144.15,426.62h95.18v35.61H186.24v58.92h39.17V558.7H186.24v62.81H241.6v35.61H144.15Z"/><path class="philosophy-fill" d="M252.28,426.62h41.12l19.75,161.87h.65l21.69-161.87h34l-34.64,230.5H286.59Z"/><path class="philosophy-fill" d="M379.69,426.62h95.18v35.61H421.78v58.92H461V558.7H421.78v62.81h55.36v35.61H379.69Z"/><path class="philosophy-fill" d="M488.07,426.62h47.27c40.15,0,66.69,16.83,66.69,65.4,0,19.42-5.82,45.32-24.61,56.33l24.93,108.78H559.94L540.2,558.06h-10v99.07H488.07Zm42.09,97.77h8.42c15.54,0,21.36-15.54,21.36-32,0-24.93-9.06-32.05-23.31-32.05h-6.47Z"/><path class="philosophy-fill" d="M11.65,700.54h51.8c25.9,0,57,14.24,57,58.27,0,25.9-11.65,46-37.55,51.48v.65c28.81,6.8,42.09,26.87,42.09,56C125,909,96.47,931,65.4,931H11.65Zm42.09,94.53c21,0,26.54-9.71,26.54-30.43,0-26.22-5.5-30.76-26.54-30.43Zm0,102.3c25.25,0,29.14-10,29.14-34,0-21-5.18-33-29.14-32.7Z"/><path class="philosophy-fill" d="M137.91,700.54h95.18v35.61H180v58.92h39.17v37.55H180v62.81h55.36V931H137.91Z"/><path class="philosophy-fill" d="M11.65,974.46h51.8c25.9,0,57,14.24,57,58.27,0,25.9-11.65,46-37.55,51.48v.65c28.81,6.8,42.09,26.87,42.09,56C125,1183,96.47,1205,65.4,1205H11.65ZM53.74,1069c21,0,26.54-9.71,26.54-30.43,0-26.22-5.5-30.76-26.54-30.43Zm0,102.3c25.25,0,29.14-10,29.14-34,0-21-5.18-33-29.14-32.7Z"/><path class="philosophy-fill" d="M194.66,969.93c37.23,0,61.51,28.81,61.51,119.79s-24.28,119.79-61.51,119.79-61.51-28.81-61.51-119.79S157.43,969.93,194.66,969.93ZM179.12,1114c0,49.86,5.82,59.89,15.54,59.89s15.54-10,15.54-59.89v-48.56c0-49.86-5.83-59.89-15.54-59.89s-15.54,10-15.54,59.89Z"/><path class="philosophy-fill" d="M271.73,974.46H319c40.15,0,66.69,16.83,66.69,65.4,0,19.43-5.82,45.32-24.61,56.33L386,1205H343.6l-19.75-99.06h-10V1205H271.73Zm42.09,97.77h8.42c15.54,0,21.36-15.54,21.36-32.05,0-24.93-9.06-32.05-23.31-32.05h-6.47Z"/><path class="philosophy-fill" d="M398.15,974.46h42.08V1205H398.15Z"/><path class="philosophy-fill" d="M459.5,974.46h41.11l38.52,121.73h.65V974.46h33.67V1205h-32.7l-45-139.53h-.65V1205H459.5Z"/><path class="philosophy-fill" d="M666,1056.7c0-10.68,2.59-51.15-15.54-51.15-10.36,0-18.13,9.71-18.13,83.85,0,75.76,7.12,84.5,20.07,84.5,15.86,0,17.16-31.73,17.16-42.73H654v-33.67h51.15V1205H687.37l-5.83-15.22c-6.47,9.71-18.78,19.75-33.34,19.75-45,0-59.89-44-59.89-119.79,0-88.06,26.55-119.79,59.89-119.79,27.19,0,55.36,12.95,55.36,71.87v14.89Z"/><path class="philosophy-fill" d="M721.68,1162.88h42.09V1205H721.68Z"/><path class="philosophy-fill" d="M10,.9h8.31c9.39,0,14.3,3.77,14.3,13.61,0,8.18-3.19,13.67-11,13.67H18.33V46.38H10Zm8.37,20.63h.7c3.39,0,5.24-1.34,5.24-6.84,0-6.58-2.55-6.77-5.3-6.77h-.64Z"/><path class="philosophy-fill" d="M35.8.9h8.3V19.17h5.24V.9h8.3V46.38h-8.3V27.09H44.1V46.38H35.8Z"/><path class="philosophy-fill" d="M64.41.9h8.3V46.38h-8.3Z"/><path class="philosophy-fill" d="M79.47.9h8.31V39.35h10.6v7H79.47Z"/><path class="philosophy-fill" d="M112.95,0c7.34,0,12.14,5.69,12.14,23.64s-4.8,23.64-12.14,23.64S100.8,41.59,100.8,23.64,105.6,0,112.95,0Zm-3.07,28.43c0,9.84,1.15,11.82,3.07,11.82s3.06-2,3.06-11.82V18.85C116,9,114.86,7,112.95,7s-3.07,2-3.07,11.82Z"/><path class="philosophy-fill" d="M137,33.22c0,2.55,0,7,3.58,7,2.74,0,3.7-2.55,3.7-4.41,0-8.11-15.08-10-15.08-23.44C129.22,5.56,132.93,0,140,0c7.47,0,10.35,5.69,10.54,13.86h-7.41c0-2.55,0-6.83-3.32-6.83-2,0-3.13,1.66-3.13,4.15,0,7.73,15.07,10.35,15.07,23.57,0,7-4,12.52-11.43,12.52-8.88,0-10.67-7.79-10.67-14.05Z"/><path class="philosophy-fill" d="M168,0c7.34,0,12.14,5.69,12.14,23.64S175.33,47.27,168,47.27s-12.15-5.69-12.15-23.64S160.64,0,168,0Zm-3.07,28.43c0,9.84,1.15,11.82,3.07,11.82s3.06-2,3.06-11.82V18.85C171,9,169.9,7,168,7s-3.07,2-3.07,11.82Z"/><path class="philosophy-fill" d="M184.71.9H193c9.39,0,14.31,3.77,14.31,13.61,0,8.18-3.19,13.67-11,13.67H193V46.38h-8.3Zm8.37,20.63h.7c3.38,0,5.24-1.34,5.24-6.84,0-6.58-2.56-6.77-5.31-6.77h-.64Z"/><path class="philosophy-fill" d="M210.48.9h8.31V19.17H224V.9h8.31V46.38H224V27.09h-5.23V46.38h-8.31Z"/><path class="philosophy-fill" d="M242.81,28.81,235.2.9h8.24l4,17.82h.13L251.75.9h7L251.11,28V46.38h-8.3Z"/><rect class="philosophy-fill" x="10.02" y="72.51" width="248.69" height="16.93"/></g></g></svg>
