<?xml version="1.0" encoding="utf-8"?>
<!-- Generator: Adobe Illustrator 22.0.1, SVG Export Plug-In . SVG Version: 6.00 Build 0)  -->
<svg version="1.1" id="Layer_1" xmlns="http://www.w3.org/2000/svg" xmlns:xlink="http://www.w3.org/1999/xlink" x="0px" y="0px"
	 viewBox="0 0 255 124" style="enable-background:new 0 0 255 124;" xml:space="preserve">
<style type="text/css">
	.st0{fill:#FFFFFF;}
</style>
<path id="Logowith_sale" class="st0" d="M0,90.1h255v-0.7H0V90.1z M105.2,118.3L105.2,118.3c1.4,0.1,2.7-0.3,3.7-1.2
	c0.9-0.9,1.5-2.2,1.5-3.5c0-1.3-0.5-2.6-1.5-3.5c-1-0.9-2.3-1.3-3.6-1.2h-0.9v9.4L105.2,118.3L105.2,118.3z M102.9,107.7h2.2
	c1.7-0.1,3.3,0.4,4.6,1.4c1.3,1.1,2,2.8,2,4.5c0,1.7-0.7,3.3-1.9,4.5c-1.3,1.1-2.9,1.6-4.6,1.5h-2.2V107.7L102.9,107.7z
	 M116.5,114.8L116.5,114.8c-0.1,0.9,0.1,1.8,0.5,2.6c1.1,1.3,3,1.5,4.3,0.4c0.1-0.1,0.2-0.2,0.3-0.3c0.5-0.8,0.7-1.8,0.6-2.7v-7.1
	h1.3v7.4c0.1,1.2-0.2,2.4-1,3.3c-1.7,1.7-4.4,1.8-6.2,0.2c-0.9-0.9-1.3-2.2-1.2-3.4v-7.4h1.3L116.5,114.8L116.5,114.8z M128.9,118.3
	h1.3c1.5,0,3-0.4,3-2.1c0-1.9-1.8-2.1-3.2-2.1h-1.1L128.9,118.3L128.9,118.3z M128.9,112.9h0.5c1.5,0,2.7-0.2,2.7-2s-1.1-2-2.7-2
	h-0.5V112.9z M127.6,107.7h1.9c2.1,0,3.9,0.8,3.9,3.2c0,0.9-0.4,1.8-1.2,2.3c1.4,0.3,2.3,1.6,2.2,3c0,2.3-1.9,3.3-4.2,3.3h-2.7
	V107.7L127.6,107.7z M142.5,110.2L142.5,110.2l1.9,4.8h-4L142.5,110.2z M137.1,119.6h1.4l1.4-3.3h5l1.4,3.3h1.5l-5.3-12.4
	L137.1,119.6z M150.8,119.6h1.3v-11.8h-1.3V119.6L150.8,119.6z M11.1,61.2L11.1,61.2v-7.3h2v18h-2V63H2v8.8H0v-18h2v7.3L11.1,61.2
	L11.1,61.2z M24.2,66.7L24.2,66.7L22,71.9h-2.2L28.1,53l8,18.8H34l-2.1-5.1L24.2,66.7L24.2,66.7z M28.1,57.7L28.1,57.7L25,64.9h6.1
	L28.1,57.7z M44.8,71.9h-2v-18h2.6c3.4,0,6.6,0.9,6.6,5c0.2,2.6-1.8,4.8-4.4,5c0,0-0.1,0-0.1,0l5.7,8.1h-2.4l-5.4-7.9h-0.5V71.9
	L44.8,71.9z M44.8,62.2h0.6c2.3,0,4.5-0.4,4.5-3.2c0-3-2.1-3.3-4.5-3.3h-0.6V62.2L44.8,62.2z M65.5,67.6L65.5,67.6l5.1-13.8h2.2
	l-7.3,19.1l-7.2-19.1h2.1L65.5,67.6z M79.5,53.8h9.2v1.9h-7.3v5.4h7.1v1.8h-7.1V70h7.3v1.9h-9.2V53.8L79.5,53.8z M95.2,53.8h2.3
	l4.5,8l4.6-8h2.3l-5.8,10.3v7.8h-2v-7.8L95.2,53.8z M127.8,53.1L127.8,53.1l13.9,14.7v-14h2v18.8L129.8,58v13.9h-2L127.8,53.1
	L127.8,53.1z M154.2,71.9h-2v-18h2V71.9L154.2,71.9z M176.2,57.8L176.2,57.8c-1.4-1.5-3.4-2.4-5.5-2.4c-4.1,0.2-7.3,3.6-7.2,7.7
	c0.1,3.9,3.3,7.1,7.2,7.2c2-0.1,4-0.9,5.4-2.4v2.5c-1.5,1.2-3.4,1.8-5.3,1.8c-5.1,0.1-9.4-4.1-9.4-9.2c-0.1-5.1,4.1-9.4,9.2-9.4
	c0.1,0,0.1,0,0.2,0c1.9,0,3.8,0.6,5.3,1.8L176.2,57.8L176.2,57.8z M195.5,61.2L195.5,61.2v-7.3h2v18h-2V63h-9.1v8.8h-2v-18h2v7.3
	L195.5,61.2L195.5,61.2z M223.6,62.9L223.6,62.9c0,5.1-4.2,9.3-9.3,9.3c-5.1,0-9.3-4.2-9.3-9.3c0-5.1,4.2-9.3,9.3-9.3
	C219.4,53.5,223.6,57.7,223.6,62.9C223.6,62.8,223.6,62.8,223.6,62.9L223.6,62.9z M207,62.9L207,62.9c0.1,4,3.4,7.2,7.5,7.1
	c4-0.1,7.2-3.4,7.1-7.5c-0.1-4-3.3-7.1-7.3-7.1C210.2,55.4,207,58.8,207,62.9L207,62.9z M233,70h4.9v1.9h-6.9v-18h2L233,70L233,70z
	 M252.8,57.3L252.8,57.3c-0.5-1.2-1.8-2-3.1-2c-1.6-0.1-2.9,1.2-3,2.7c0,0,0,0,0,0.1c0,1.5,1.6,2.3,2.8,2.8l1.2,0.6
	c2.3,1,4.3,2.2,4.3,5c0,3.1-2.6,5.6-5.7,5.6c-2.7,0-5-2-5.5-4.7l1.9-0.6c0.2,1.9,1.7,3.3,3.6,3.3c2,0,3.6-1.5,3.7-3.5
	c0-2.1-1.7-2.8-3.3-3.6l-1.1-0.5c-2.1-1-3.9-2.1-3.9-4.6c0-2.6,2.2-4.7,4.8-4.6c0.1,0,0.1,0,0.2,0c2,0,3.7,1.1,4.6,2.8L252.8,57.3z
	 M89.6,11.7c-0.4-0.8-1-1.6-1.7-2.2c-1-0.7-2.1-1.1-3.3-1c-2.9,0-5,1.8-5,4.6c-0.1,1,0.4,1.9,1.1,2.6c0.9,0.8,2,1.4,3.1,1.9l2.8,1.2
	c1.7,0.6,3.2,1.6,4.6,2.8c1.4,1.4,2.2,3.4,2.1,5.4c0,5.5-4.1,9.1-9.4,9.1c-2.4,0.1-4.7-0.8-6.4-2.4c-1.4-1.5-2.4-3.3-2.8-5.2
	l3.2-0.9c0.2,1.4,0.8,2.7,1.8,3.8c2.4,2.3,6.3,2.2,8.6-0.3c1-1.1,1.6-2.5,1.6-4c0.1-1.3-0.5-2.6-1.5-3.5c-1.1-0.9-2.3-1.6-3.6-2
	l-2.7-1.2c-1.5-0.6-2.8-1.4-3.9-2.4c-1.4-1.2-2.1-3-2.1-4.9c0-4.6,3.5-7.7,8.3-7.7c1.7-0.1,3.4,0.4,4.8,1.3c1.2,0.8,2.2,2,2.9,3.3
	L89.6,11.7z M120.2,27.1h-12.6l-3.6,8.4h-3.7L114,4.4l13.3,31.1h-3.6L120.2,27.1z M118.9,24l-5-11.9L108.9,24H118.9L118.9,24z
	 M139.7,5.8v26.6h8.2v3.1h-11.5V5.8L139.7,5.8L139.7,5.8z M172.4,8.9h-12.1v8.8h11.7v3.1h-11.7v11.5h12.1v3.1h-15.4V5.8h15.4V8.9
	L172.4,8.9z"/>
</svg>
