<svg xmlns="http://www.w3.org/2000/svg" viewBox="0 0 772.08 688.73"><defs><style>.cls-1{fill:#da2128;}</style></defs><title>Asset 4</title><g id="Layer_2" data-name="Layer 2"><g id="Layer_1-2" data-name="Layer 1"><rect class="cls-1" x="1.93" y="71.06" width="419.54" height="16.93"/><path class="cls-1" d="M7.8,33.23q0,1,.06,2.17a9.91,9.91,0,0,0,.38,2.3A4.18,4.18,0,0,0,9.3,39.52a2.81,2.81,0,0,0,2.08.74,3.34,3.34,0,0,0,1.73-.42,3.52,3.52,0,0,0,1.15-1.09,4.61,4.61,0,0,0,.64-1.44,6.09,6.09,0,0,0,.19-1.47A6.21,6.21,0,0,0,14,32.2a17.73,17.73,0,0,0-2.78-3.07q-1.66-1.47-3.64-3A25.29,25.29,0,0,1,3.9,22.68a17.76,17.76,0,0,1-2.78-4.41A14.24,14.24,0,0,1,0,12.4,16.19,16.19,0,0,1,.7,7.57a11.68,11.68,0,0,1,2-3.93A9.82,9.82,0,0,1,6.1,1a10.36,10.36,0,0,1,4.63-1,10.37,10.37,0,0,1,4.79,1,8.68,8.68,0,0,1,3.23,2.84,13,13,0,0,1,1.85,4.38,26.82,26.82,0,0,1,.67,5.62H13.87q0-1-.06-2.14a10.69,10.69,0,0,0-.35-2.24,3.88,3.88,0,0,0-1-1.76A2.6,2.6,0,0,0,10.54,7a2.68,2.68,0,0,0-2.3,1.15,5,5,0,0,0-.83,3A6,6,0,0,0,8.53,14.7a18.39,18.39,0,0,0,2.78,3.1Q13,19.3,15,20.89a26.31,26.31,0,0,1,3.64,3.58,19,19,0,0,1,2.78,4.47,14.11,14.11,0,0,1,1.12,5.81,15.79,15.79,0,0,1-.73,4.89,11.55,11.55,0,0,1-2.17,4A10.29,10.29,0,0,1,16,46.29a11.68,11.68,0,0,1-5,1A10,10,0,0,1,5.65,46,9.62,9.62,0,0,1,2.4,42.62,13.35,13.35,0,0,1,.8,38.08a29.4,29.4,0,0,1-.42-4.86Z"/><path class="cls-1" d="M29.41.89h12L47,46.39h-8l-1.21-10.1H31.14L30,46.39H23Zm5.3,7h-.13L32,29.65h5.18Z"/><path class="cls-1" d="M49.24.89h8.31V39.36H68.15v7H49.24Z"/><path class="cls-1" d="M70.57.89H89.36v7H78.88V19.55h7.73V27H78.88v12.4H89.81v7H70.57Z"/><path class="cls-1" d="M92.08.89h8.31V19.17h5.24V.89h8.31V46.39h-8.31V27.09h-5.24v19.3H92.08Z"/><path class="cls-1" d="M129.14.89h18.79v7H137.45V19.55h7.73V27h-7.73v12.4h10.93v7H129.14Z"/><path class="cls-1" d="M150.65.89H159V39.36h10.61v7H150.65Z"/><path class="cls-1" d="M195.82,17.13q0-.77,0-2.46a20.19,20.19,0,0,0-.22-3.39,10,10,0,0,0-.89-3,2.09,2.09,0,0,0-2-1.28,2.25,2.25,0,0,0-1.44.54,4.51,4.51,0,0,0-1.15,2.27,28,28,0,0,0-.73,5q-.26,3.26-.26,8.75t.26,8.91a25.68,25.68,0,0,0,.77,5,4.12,4.12,0,0,0,1.25,2.24,2.88,2.88,0,0,0,1.69.51,2.15,2.15,0,0,0,1.85-1,7,7,0,0,0,1-2.4,17.49,17.49,0,0,0,.42-2.78q.1-1.4.1-2.24h-3.07V25.18h10.1V46.39H200l-1.15-3a10,10,0,0,1-2.68,2.68,6.62,6.62,0,0,1-3.9,1.21,9.47,9.47,0,0,1-5.59-1.6,11.07,11.07,0,0,1-3.64-4.63,27,27,0,0,1-2-7.41,73.38,73.38,0,0,1-.61-10,55.76,55.76,0,0,1,.93-11,25.2,25.2,0,0,1,2.52-7.32,10.55,10.55,0,0,1,3.74-4.06A9.06,9.06,0,0,1,192.31,0a14.18,14.18,0,0,1,4,.57,8,8,0,0,1,3.51,2.14,11.46,11.46,0,0,1,2.49,4.35,22.24,22.24,0,0,1,1,7.13v2.94Z"/><path class="cls-1" d="M207.2.89h8.31V19.17h5.24V.89h8.31V46.39h-8.31V27.09h-5.24v19.3H207.2Z"/><path class="cls-1" d="M237.6.89h12l5.62,45.49h-8L246,36.29h-6.71l-1.15,10.1h-7Zm5.3,7h-.13l-2.62,21.72h5.18Z"/><path class="cls-1" d="M260.53,7.92h-7.16v-7H276v7h-7.16V46.39h-8.31Z"/><path class="cls-1" d="M278.8.89h8.31V46.39H278.8Z"/><path class="cls-1" d="M297.14,7.92H290v-7H312.6v7h-7.16V46.39h-8.31Z"/><path class="cls-1" d="M335.48,0h5.75L326.92,47.28h-5.62Z"/><path class="cls-1" d="M357.33.89h12L375,46.39h-8l-1.21-10.1h-6.71l-1.15,10.1h-7Zm5.3,7h-.13l-2.62,21.72h5.18Z"/><path class="cls-1" d="M377.15.89h9.33a20.13,20.13,0,0,1,5.37.67A10.27,10.27,0,0,1,396,3.77a10.18,10.18,0,0,1,2.68,4,16.7,16.7,0,0,1,1,6,22.17,22.17,0,0,1-.22,3.07,14.74,14.74,0,0,1-.8,3.13,11.87,11.87,0,0,1-1.5,2.81,7.62,7.62,0,0,1-2.33,2.11l4.92,21.47h-8.37l-3.9-19.55h-2V46.39h-8.31Zm8.31,19.3h1.66a3.39,3.39,0,0,0,1.95-.54,4.36,4.36,0,0,0,1.31-1.41,6.28,6.28,0,0,0,.73-2,12.38,12.38,0,0,0,.22-2.37q0-3.71-1.25-5a4.41,4.41,0,0,0-3.35-1.31h-1.28Z"/><path class="cls-1" d="M407.3,7.92h-7.16v-7h22.62v7h-7.16V46.39H407.3Z"/><path class="cls-1" d="M11.7,149.3H31.18l9.12,72.34h-13l-2-16.05H14.5l-1.87,16.05H1.34Zm8.6,11.18h-.21L15.85,195h8.39Z"/><path class="cls-1" d="M43.42,149.3H56.58l12.33,38.2h.21V149.3H79.9v72.34H69.43L55,177.85h-.21v43.79H43.42Z"/><path class="cls-1" d="M106.53,149.3H126l9.12,72.34h-13l-2-16.05H109.33l-1.87,16.05H96.17Zm8.6,11.18h-.21L110.68,195h8.39Z"/><path class="cls-1" d="M138.49,149.3H152v61.16h17.2v11.18H138.49Z"/><path class="cls-1" d="M172.43,149.3H185.9v56a18,18,0,0,0,.16,2.39,6.16,6.16,0,0,0,.67,2.13,3.87,3.87,0,0,0,1.45,1.53,4.58,4.58,0,0,0,2.38.56,4,4,0,0,0,3.89-2,9.44,9.44,0,0,0,1.09-4.62v-56h11.4v54.25q0,10.67-4.56,15.09t-12.64,4.42a22.12,22.12,0,0,1-7.1-1.07,13.79,13.79,0,0,1-5.44-3.35,15.13,15.13,0,0,1-3.52-6,28.85,28.85,0,0,1-1.24-9.09Z"/><path class="cls-1" d="M213.27,149.3H231.2l6,37.08h.21l6.32-37.08h17.51v72.34h-12v-53H249l-9.12,53h-7.46l-9-53h-.21v53h-9.95Z"/><path class="cls-1" d="M267.6,149.3h13.16l12.33,38.2h.21V149.3h10.78v72.34H293.62l-14.4-43.79H279v43.79H267.6Z"/><path class="cls-1" d="M310.45,149.3h13.47v56a18,18,0,0,0,.16,2.39,6.16,6.16,0,0,0,.67,2.13,3.87,3.87,0,0,0,1.45,1.53,4.58,4.58,0,0,0,2.38.56,4,4,0,0,0,3.89-2,9.44,9.44,0,0,0,1.09-4.62v-56H345v54.25q0,10.67-4.56,15.09t-12.64,4.42a22.12,22.12,0,0,1-7.1-1.07,13.79,13.79,0,0,1-5.44-3.35,15.13,15.13,0,0,1-3.52-6,28.85,28.85,0,0,1-1.24-9.09Z"/><path class="cls-1" d="M361.18,200.71q0,1.52.1,3.45a15.47,15.47,0,0,0,.62,3.66,6.64,6.64,0,0,0,1.71,2.9,4.61,4.61,0,0,0,3.37,1.17,5.49,5.49,0,0,0,2.8-.66,5.63,5.63,0,0,0,1.87-1.73,7.22,7.22,0,0,0,1-2.29,9.43,9.43,0,0,0,.31-2.34,9.73,9.73,0,0,0-1.81-5.79,28.39,28.39,0,0,0-4.51-4.88q-2.7-2.33-5.91-4.78a40.59,40.59,0,0,1-5.91-5.49,28.17,28.17,0,0,1-4.51-7,22.27,22.27,0,0,1-1.81-9.35,25.27,25.27,0,0,1,1.14-7.67,18.44,18.44,0,0,1,3.32-6.25,15.88,15.88,0,0,1,5.44-4.22,19,19,0,0,1,15.29.05A14,14,0,0,1,379,154a20.47,20.47,0,0,1,3,7,41.81,41.81,0,0,1,1.09,8.94H371q0-1.52-.1-3.4a16.7,16.7,0,0,0-.57-3.56,6.14,6.14,0,0,0-1.61-2.79,4.26,4.26,0,0,0-3.11-1.12,4.37,4.37,0,0,0-3.73,1.83,7.85,7.85,0,0,0-1.35,4.78,9.4,9.4,0,0,0,1.81,5.59,29.59,29.59,0,0,0,4.51,4.93q2.69,2.39,5.91,4.93a42.32,42.32,0,0,1,5.91,5.69,30.26,30.26,0,0,1,4.51,7.11,22,22,0,0,1,1.81,9.25,24.65,24.65,0,0,1-1.19,7.77,18.26,18.26,0,0,1-3.52,6.3,16.68,16.68,0,0,1-5.8,4.27,19.29,19.29,0,0,1-8,1.57,16.46,16.46,0,0,1-8.76-2.08,15.44,15.44,0,0,1-5.29-5.33,21,21,0,0,1-2.59-7.21,45.91,45.91,0,0,1-.67-7.72Z"/><path class="cls-1" d="M400.15,185.47a96.05,96.05,0,0,1,1.4-17.88,36.49,36.49,0,0,1,4-11.58,15.85,15.85,0,0,1,6.22-6.25,18.31,18.31,0,0,1,16.17,0,15.87,15.87,0,0,1,6.22,6.25,36.51,36.51,0,0,1,4,11.58,96.05,96.05,0,0,1,1.4,17.88,96,96,0,0,1-1.4,17.88,36.46,36.46,0,0,1-4,11.58,15.87,15.87,0,0,1-6.22,6.25,18.33,18.33,0,0,1-16.17,0,15.85,15.85,0,0,1-6.22-6.25,36.44,36.44,0,0,1-4-11.58A96,96,0,0,1,400.15,185.47Zm14.72,7.62q0,5.89.36,9.55a31.94,31.94,0,0,0,1,5.74,5.42,5.42,0,0,0,1.55,2.79,3.38,3.38,0,0,0,4.15,0,5.42,5.42,0,0,0,1.55-2.79,32.11,32.11,0,0,0,1-5.74q.36-3.66.36-9.55V177.85q0-5.89-.36-9.55a31,31,0,0,0-1-5.69,5.74,5.74,0,0,0-1.55-2.79,3.2,3.2,0,0,0-4.15,0,5.74,5.74,0,0,0-1.55,2.79,30.78,30.78,0,0,0-1,5.69q-.36,3.66-.36,9.55Z"/><path class="cls-1" d="M444.55,149.3h30.16v11.18H458v19.3h12.33v11.79H458v30.07H444.55Z"/><path class="cls-1" d="M517.61,175.51q0-9-1.19-12.75t-3.68-3.71a3.83,3.83,0,0,0-2.07.66q-1,.66-1.81,3.3a43.93,43.93,0,0,0-1.24,7.93q-.47,5.29-.47,14.53,0,8.94.31,14.17a52.7,52.7,0,0,0,.93,8q.62,2.74,1.71,3.51a4.49,4.49,0,0,0,2.64.76q3.32,0,4.4-4.62a64.63,64.63,0,0,0,1.3-12.55l11.4.51a93,93,0,0,1-.52,9.7,28,28,0,0,1-2.38,8.94,17.09,17.09,0,0,1-5.34,6.61q-3.47,2.59-9.38,2.59a15.59,15.59,0,0,1-9.07-2.54,17.67,17.67,0,0,1-5.91-7.37A42.31,42.31,0,0,1,494,201.37a114.33,114.33,0,0,1-1-15.9,86.9,86.9,0,0,1,1.5-17.53,39.5,39.5,0,0,1,4.09-11.63,16.89,16.89,0,0,1,6.06-6.45,14.91,14.91,0,0,1,7.51-2q5.8,0,9.28,2.39a15.4,15.4,0,0,1,5.29,6.25,27.22,27.22,0,0,1,2.33,8.74,93.27,93.27,0,0,1,.52,9.86Z"/><path class="cls-1" d="M535,149.3h15.13a33.28,33.28,0,0,1,8.71,1.07,16.73,16.73,0,0,1,6.74,3.51,16.15,16.15,0,0,1,4.35,6.35,26.08,26.08,0,0,1,1.55,9.6,34.6,34.6,0,0,1-.36,4.88,23.11,23.11,0,0,1-1.3,5,18.75,18.75,0,0,1-2.44,4.47,12.29,12.29,0,0,1-3.78,3.35l8,34.14H558l-6.32-31.09h-3.21v31.09H535ZM548.46,180h2.69a5.55,5.55,0,0,0,3.16-.87,7,7,0,0,0,2.12-2.23,9.86,9.86,0,0,0,1.19-3.2,19.31,19.31,0,0,0,.36-3.76q0-5.89-2-8a7.24,7.24,0,0,0-5.44-2.08h-2.07Z"/><path class="cls-1" d="M575.88,149.3h30.47v11.18h-17V179h12.54v11.79H589.35v19.71h17.72v11.18H575.88Z"/><path class="cls-1" d="M619.24,149.3h19.48l9.12,72.34h-13l-2-16.05H622l-1.87,16.05h-11.3Zm8.6,11.18h-.21L623.39,195h8.39Z"/><path class="cls-1" d="M656.22,160.47H644.61V149.3H681.3v11.18H669.69v61.16H656.22Z"/><path class="cls-1" d="M683.61,149.3h13.47v72.34H683.61Z"/><path class="cls-1" d="M700.11,149.3h13.16l6.32,50.8h.21l6.94-50.8h10.88l-11.09,72.34H711.09Z"/><path class="cls-1" d="M740.89,149.3h30.47v11.18h-17V179H766.9v11.79H754.36v19.71h17.72v11.18H740.89Z"/><path class="cls-1" d="M27.66,268.64q0-9-1.19-12.75t-3.68-3.71a3.83,3.83,0,0,0-2.07.66q-1,.66-1.81,3.3a43.9,43.9,0,0,0-1.24,7.92q-.47,5.29-.47,14.53,0,8.94.31,14.17a52.73,52.73,0,0,0,.93,8q.62,2.74,1.71,3.5a4.49,4.49,0,0,0,2.64.76q3.32,0,4.4-4.62a64.61,64.61,0,0,0,1.3-12.55l11.4.51a92.92,92.92,0,0,1-.52,9.7A28,28,0,0,1,37,307a17.08,17.08,0,0,1-5.34,6.6q-3.47,2.59-9.38,2.59a15.59,15.59,0,0,1-9.07-2.54,17.66,17.66,0,0,1-5.91-7.37A42.33,42.33,0,0,1,4.08,294.5a114.33,114.33,0,0,1-1-15.9,86.89,86.89,0,0,1,1.5-17.53A39.47,39.47,0,0,1,8.7,249.44,16.91,16.91,0,0,1,14.76,243a14.91,14.91,0,0,1,7.51-2q5.8,0,9.28,2.39a15.41,15.41,0,0,1,5.29,6.25,27.22,27.22,0,0,1,2.33,8.74,93.3,93.3,0,0,1,.52,9.86Z"/><path class="cls-1" d="M44.9,242.43H58.38v72.34H44.9Z"/><path class="cls-1" d="M65,242.43H80.15a33.28,33.28,0,0,1,8.71,1.07A16.78,16.78,0,0,1,95.59,247a16.17,16.17,0,0,1,4.35,6.35,26.08,26.08,0,0,1,1.55,9.6,34.58,34.58,0,0,1-.36,4.88,23.08,23.08,0,0,1-1.3,5,18.76,18.76,0,0,1-2.44,4.47,12.34,12.34,0,0,1-3.78,3.35l8,34.14H88L81.7,283.68H78.49v31.09H65Zm13.47,30.68h2.69a5.57,5.57,0,0,0,3.16-.86A7,7,0,0,0,86.47,270a9.9,9.9,0,0,0,1.19-3.2,19.33,19.33,0,0,0,.36-3.76q0-5.89-2-8A7.23,7.23,0,0,0,80.56,253H78.49Z"/><path class="cls-1" d="M128.51,268.64q0-9-1.19-12.75t-3.68-3.71a3.83,3.83,0,0,0-2.07.66q-1,.66-1.81,3.3a43.9,43.9,0,0,0-1.24,7.92q-.47,5.29-.47,14.53,0,8.94.31,14.17a52.73,52.73,0,0,0,.93,8q.62,2.74,1.71,3.5a4.49,4.49,0,0,0,2.64.76q3.32,0,4.4-4.62a64.61,64.61,0,0,0,1.3-12.55l11.4.51a92.92,92.92,0,0,1-.52,9.7,28,28,0,0,1-2.38,8.94,17.08,17.08,0,0,1-5.34,6.6q-3.47,2.59-9.38,2.59a15.59,15.59,0,0,1-9.07-2.54,17.66,17.66,0,0,1-5.91-7.37,42.33,42.33,0,0,1-3.21-11.79,114.33,114.33,0,0,1-1-15.9,86.89,86.89,0,0,1,1.5-17.53,39.47,39.47,0,0,1,4.09-11.63,16.91,16.91,0,0,1,6.06-6.45,14.91,14.91,0,0,1,7.51-2q5.8,0,9.28,2.39a15.41,15.41,0,0,1,5.29,6.25,27.22,27.22,0,0,1,2.33,8.74,93.3,93.3,0,0,1,.52,9.86Z"/><path class="cls-1" d="M145.5,242.43H159v56a18,18,0,0,0,.16,2.39,6.16,6.16,0,0,0,.67,2.13,3.86,3.86,0,0,0,1.45,1.52,4.58,4.58,0,0,0,2.38.56,4,4,0,0,0,3.89-2,9.45,9.45,0,0,0,1.09-4.62v-56H180v54.26q0,10.67-4.56,15.09t-12.64,4.42a22.12,22.12,0,0,1-7.1-1.07,13.79,13.79,0,0,1-5.44-3.35,15.14,15.14,0,0,1-3.52-6,28.86,28.86,0,0,1-1.24-9.09Z"/><path class="cls-1" d="M196.24,293.84q0,1.52.1,3.46A15.51,15.51,0,0,0,197,301a6.62,6.62,0,0,0,1.71,2.89A4.61,4.61,0,0,0,202,305a5.49,5.49,0,0,0,2.8-.66,5.65,5.65,0,0,0,1.87-1.73,7.21,7.21,0,0,0,1-2.29,9.43,9.43,0,0,0,.31-2.34,9.73,9.73,0,0,0-1.81-5.79,28.25,28.25,0,0,0-4.51-4.88q-2.7-2.33-5.91-4.78a40.7,40.7,0,0,1-5.91-5.49,28.2,28.2,0,0,1-4.51-7,22.29,22.29,0,0,1-1.81-9.35,25.29,25.29,0,0,1,1.14-7.67,18.46,18.46,0,0,1,3.32-6.25,15.9,15.9,0,0,1,5.44-4.22,19.06,19.06,0,0,1,15.29.05,14,14,0,0,1,5.23,4.52,20.49,20.49,0,0,1,3,7,41.84,41.84,0,0,1,1.09,8.94h-12q0-1.52-.1-3.4a16.66,16.66,0,0,0-.57-3.56,6.14,6.14,0,0,0-1.61-2.79,4.26,4.26,0,0,0-3.11-1.12A4.37,4.37,0,0,0,197,254a7.86,7.86,0,0,0-1.35,4.78,9.4,9.4,0,0,0,1.81,5.59,29.44,29.44,0,0,0,4.51,4.93q2.69,2.39,5.91,4.93a42.54,42.54,0,0,1,5.91,5.69,30.28,30.28,0,0,1,4.51,7.11,22,22,0,0,1,1.81,9.25,24.64,24.64,0,0,1-1.19,7.77,18.22,18.22,0,0,1-3.52,6.3,16.63,16.63,0,0,1-5.8,4.27,19.29,19.29,0,0,1-8,1.58,16.45,16.45,0,0,1-8.76-2.08,15.42,15.42,0,0,1-5.29-5.33,21,21,0,0,1-2.59-7.21,45.93,45.93,0,0,1-.67-7.72Z"/><path class="cls-1" d="M238.73,242.43H252.2v72.34H238.73Z"/><path class="cls-1" d="M258.6,242.43h13.16l12.33,38.2h.21v-38.2h10.78v72.34H284.61L270.21,271H270v43.79H258.6Z"/><path class="cls-1" d="M323.78,242.43h19.48l9.12,72.34h-13l-2-16.05H326.58l-1.87,16.05h-11.3Zm8.6,11.18h-.21l-4.25,34.54h8.39Z"/><path class="cls-1" d="M360.76,253.61H349.15V242.43h36.69v11.18H374.23v61.16H360.76Z"/><path class="cls-1" d="M388.39,242.43h13.47V303.6h17.2v11.18H388.39Z"/><path class="cls-1" d="M431.48,242.43H451l9.12,72.34h-13l-2-16.05H434.28l-1.87,16.05h-11.3Zm8.6,11.18h-.21l-4.25,34.54H444Z"/><path class="cls-1" d="M463.2,242.43h13.16l12.33,38.2h.21v-38.2h10.78v72.34H489.21L474.81,271h-.21v43.79H463.2Z"/><path class="cls-1" d="M513.67,253.61H502.06V242.43h36.69v11.18H527.14v61.16H513.67Z"/><path class="cls-1" d="M545.31,242.43h19.48l9.12,72.34H561l-2-16.05H548.1l-1.87,16.05h-11.3Zm8.6,11.18h-.21l-4.25,34.54h8.39Z"/><path class="cls-1" d="M588.83,242.43h12.23l4.77,42.47H606l6.43-42.47h12.13l5.91,42.47h.21L636,242.43h9.64L636,314.77H623.75l-6.43-45.82h-.21l-6.63,45.82H598.67Z"/><path class="cls-1" d="M648.88,242.43h13.47v29.06h8.5V242.43h13.47v72.34H670.85V284.09h-8.5v30.68H648.88Z"/><path class="cls-1" d="M689.45,278.6a96,96,0,0,1,1.4-17.88,36.47,36.47,0,0,1,4-11.58,15.86,15.86,0,0,1,6.22-6.25,18.33,18.33,0,0,1,16.17,0,15.88,15.88,0,0,1,6.22,6.25,36.49,36.49,0,0,1,4,11.58,96,96,0,0,1,1.4,17.88,96,96,0,0,1-1.4,17.88,36.48,36.48,0,0,1-4,11.58,15.86,15.86,0,0,1-6.22,6.25,18.31,18.31,0,0,1-16.17,0,15.84,15.84,0,0,1-6.22-6.25,36.45,36.45,0,0,1-4-11.58A96,96,0,0,1,689.45,278.6Zm14.72,7.62q0,5.89.36,9.55a32,32,0,0,0,1,5.74,5.41,5.41,0,0,0,1.55,2.79,3.38,3.38,0,0,0,4.15,0,5.41,5.41,0,0,0,1.55-2.79,32.18,32.18,0,0,0,1-5.74q.36-3.66.36-9.55V271q0-5.89-.36-9.55a30.92,30.92,0,0,0-1-5.69,5.74,5.74,0,0,0-1.55-2.79,3.2,3.2,0,0,0-4.15,0,5.74,5.74,0,0,0-1.55,2.79,30.75,30.75,0,0,0-1,5.69q-.36,3.66-.36,9.55Z"/><path class="cls-1" d="M5.07,335.57H21.65a23,23,0,0,1,6.32.91,16,16,0,0,1,10.21,8.69,19.73,19.73,0,0,1,1.71,8.69A18.48,18.48,0,0,1,37,364.32q-2.9,4.37-9.12,5.69v.2q6.94,1.63,10.21,6.15a19,19,0,0,1,3.26,11.43,22.1,22.1,0,0,1-1.61,8.74,18.91,18.91,0,0,1-4.25,6.3,17.36,17.36,0,0,1-6.06,3.81,20.35,20.35,0,0,1-7.15,1.27H5.07Zm13.47,29.67q5.08,0,6.79-2.34T27,355.68a27.91,27.91,0,0,0-.36-5,5.64,5.64,0,0,0-1.35-2.95,4.77,4.77,0,0,0-2.64-1.32,23.52,23.52,0,0,0-4.15-.3Zm0,32.11a16.06,16.06,0,0,0,4.87-.61,5.73,5.73,0,0,0,2.85-1.88,7,7,0,0,0,1.3-3.3,32.77,32.77,0,0,0,.31-4.88,23.86,23.86,0,0,0-.36-4.37,7.41,7.41,0,0,0-1.4-3.25,6.24,6.24,0,0,0-2.85-2,14.06,14.06,0,0,0-4.72-.66Z"/><path class="cls-1" d="M45.5,335.57H59v61.16h17.2v11.18H45.5Z"/><path class="cls-1" d="M79.9,335.57h30.47v11.18h-17v18.49h12.54V377H93.37v19.71h17.72v11.18H79.9Z"/><path class="cls-1" d="M114.36,335.57h13.16l12.33,38.2h.21v-38.2h10.78v72.34H140.37L126,364.12h-.21v43.79h-11.4Z"/><path class="cls-1" d="M157.48,335.57h11.71q8.5,0,13.42,2.59a17.51,17.51,0,0,1,7.46,7.31,30.37,30.37,0,0,1,3.21,11.38,149,149,0,0,1,.67,14.88q0,7.83-.62,14.48a34.26,34.26,0,0,1-2.9,11.48,17,17,0,0,1-6.79,7.52q-4.51,2.69-12.28,2.69H157.48ZM171,396.73a11.55,11.55,0,0,0,5-.86,5.6,5.6,0,0,0,2.64-3.51,29.09,29.09,0,0,0,1.09-7.57q.21-4.93.21-13.16t-.21-13.11a28.23,28.23,0,0,0-1.09-7.47,5.58,5.58,0,0,0-2.64-3.45,11.55,11.55,0,0,0-5-.87Z"/><path class="cls-1" d="M209.28,387q0,1.52.1,3.46a15.51,15.51,0,0,0,.62,3.66,6.62,6.62,0,0,0,1.71,2.89,4.61,4.61,0,0,0,3.37,1.17,5.49,5.49,0,0,0,2.8-.66,5.65,5.65,0,0,0,1.87-1.73,7.21,7.21,0,0,0,1-2.29,9.43,9.43,0,0,0,.31-2.34,9.73,9.73,0,0,0-1.81-5.79,28.25,28.25,0,0,0-4.51-4.88q-2.7-2.33-5.91-4.78a40.7,40.7,0,0,1-5.91-5.49,28.2,28.2,0,0,1-4.51-7,22.29,22.29,0,0,1-1.81-9.35,25.29,25.29,0,0,1,1.14-7.67,18.46,18.46,0,0,1,3.32-6.25,15.9,15.9,0,0,1,5.44-4.22,19.06,19.06,0,0,1,15.29.05,14,14,0,0,1,5.23,4.52,20.49,20.49,0,0,1,3,7,41.84,41.84,0,0,1,1.09,8.94h-12q0-1.52-.1-3.4a16.66,16.66,0,0,0-.57-3.56,6.14,6.14,0,0,0-1.61-2.79,4.26,4.26,0,0,0-3.11-1.12,4.37,4.37,0,0,0-3.73,1.83,7.86,7.86,0,0,0-1.35,4.78,9.4,9.4,0,0,0,1.81,5.59,29.44,29.44,0,0,0,4.51,4.93q2.69,2.39,5.91,4.93a42.54,42.54,0,0,1,5.91,5.69,30.28,30.28,0,0,1,4.51,7.11,22,22,0,0,1,1.81,9.25,24.64,24.64,0,0,1-1.19,7.77,18.22,18.22,0,0,1-3.52,6.3,16.63,16.63,0,0,1-5.8,4.27,19.29,19.29,0,0,1-8,1.58,16.45,16.45,0,0,1-8.76-2.08,15.42,15.42,0,0,1-5.29-5.33,21,21,0,0,1-2.59-7.21,45.93,45.93,0,0,1-.67-7.72Z"/><path class="cls-1" d="M265.14,335.57h19.48l9.12,72.34h-13l-2-16.05H267.94l-1.87,16.05h-11.3Zm8.6,11.18h-.21l-4.25,34.54h8.39Z"/><path class="cls-1" d="M318.3,335.57h17.93l6,37.08h.21l6.32-37.08h17.51v72.34h-12v-53h-.21l-9.12,53h-7.46l-9-53h-.21v53H318.3Z"/><path class="cls-1" d="M371.16,371.74a96,96,0,0,1,1.4-17.88,36.47,36.47,0,0,1,4-11.58,15.86,15.86,0,0,1,6.22-6.25,18.33,18.33,0,0,1,16.17,0,15.88,15.88,0,0,1,6.22,6.25,36.49,36.49,0,0,1,4,11.58,115,115,0,0,1,0,35.76,36.48,36.48,0,0,1-4,11.58,15.86,15.86,0,0,1-6.22,6.25,18.31,18.31,0,0,1-16.17,0,15.84,15.84,0,0,1-6.22-6.25,36.45,36.45,0,0,1-4-11.58A96,96,0,0,1,371.16,371.74Zm14.72,7.62q0,5.89.36,9.55a32,32,0,0,0,1,5.74,5.41,5.41,0,0,0,1.55,2.79,3.38,3.38,0,0,0,4.15,0,5.41,5.41,0,0,0,1.55-2.79,32.18,32.18,0,0,0,1-5.74q.36-3.66.36-9.55V364.12q0-5.89-.36-9.55a30.92,30.92,0,0,0-1-5.69,5.74,5.74,0,0,0-1.55-2.79,3.2,3.2,0,0,0-4.15,0,5.74,5.74,0,0,0-1.55,2.79,30.75,30.75,0,0,0-1,5.69q-.36,3.66-.36,9.55Z"/><path class="cls-1" d="M415.57,335.57h11.71q8.5,0,13.42,2.59a17.51,17.51,0,0,1,7.46,7.31,30.37,30.37,0,0,1,3.21,11.38,149,149,0,0,1,.67,14.88q0,7.83-.62,14.48a34.26,34.26,0,0,1-2.9,11.48,17,17,0,0,1-6.79,7.52q-4.51,2.69-12.28,2.69H415.57ZM429,396.73a11.55,11.55,0,0,0,5-.86,5.6,5.6,0,0,0,2.64-3.51,29.09,29.09,0,0,0,1.09-7.57q.21-4.93.21-13.16t-.21-13.11a28.23,28.23,0,0,0-1.09-7.47,5.58,5.58,0,0,0-2.64-3.45,11.55,11.55,0,0,0-5-.87Z"/><path class="cls-1" d="M457.64,335.57h30.47v11.18h-17v18.49h12.54V377H471.12v19.71h17.72v11.18H457.64Z"/><path class="cls-1" d="M492.33,335.57h15.13a33.28,33.28,0,0,1,8.71,1.07,16.78,16.78,0,0,1,6.74,3.51,16.17,16.17,0,0,1,4.35,6.35,26.08,26.08,0,0,1,1.55,9.6,34.58,34.58,0,0,1-.36,4.88,23.08,23.08,0,0,1-1.3,5,18.76,18.76,0,0,1-2.44,4.47,12.34,12.34,0,0,1-3.78,3.35l8,34.14H515.33L509,376.82H505.8v31.09H492.33Zm13.47,30.68h2.69a5.57,5.57,0,0,0,3.16-.86,7,7,0,0,0,2.12-2.23A9.9,9.9,0,0,0,515,360a19.33,19.33,0,0,0,.36-3.76q0-5.89-2-8a7.23,7.23,0,0,0-5.44-2.08H505.8Z"/><path class="cls-1" d="M533,335.57h13.16l12.33,38.2h.21v-38.2h10.78v72.34H559l-14.4-43.79h-.21v43.79H533Z"/><path class="cls-1" d="M604,346.74H592.36V335.57H629v11.18H617.44v61.16H604Z"/><path class="cls-1" d="M635.61,335.57h19.48l9.12,72.34h-13l-2-16.05H638.41l-1.87,16.05h-11.3Zm8.6,11.18H644l-4.25,34.54h8.39Z"/><path class="cls-1" d="M667.57,335.57H681v30.28h.21l11.19-30.28h12l-10.05,24.28,12.13,48.06h-13l-7.46-32.41h-.21L681,386.88v21H667.57Z"/><path class="cls-1" d="M709.92,335.57h30.47v11.18h-17v18.49h12.54V377H723.39v19.71h17.72v11.18H709.92Z"/><path class="cls-1" d="M3.1,464.87A96.05,96.05,0,0,1,4.5,447a36.49,36.49,0,0,1,4-11.58,15.85,15.85,0,0,1,6.22-6.25,17.29,17.29,0,0,1,8.08-1.88,17.3,17.3,0,0,1,8.08,1.88,15.87,15.87,0,0,1,6.22,6.25,36.51,36.51,0,0,1,4,11.58,96.05,96.05,0,0,1,1.4,17.88,96,96,0,0,1-1.4,17.88,36.46,36.46,0,0,1-4,11.58,15.87,15.87,0,0,1-6.22,6.25,17.32,17.32,0,0,1-8.08,1.88,17.32,17.32,0,0,1-8.08-1.88,15.85,15.85,0,0,1-6.22-6.25,36.44,36.44,0,0,1-4-11.58A96,96,0,0,1,3.1,464.87Zm14.72,7.62q0,5.89.36,9.55a31.94,31.94,0,0,0,1,5.74,5.42,5.42,0,0,0,1.55,2.79,3.38,3.38,0,0,0,4.15,0,5.42,5.42,0,0,0,1.55-2.79,32.11,32.11,0,0,0,1-5.74q.36-3.66.36-9.55V457.25q0-5.89-.36-9.55a31,31,0,0,0-1-5.69,5.74,5.74,0,0,0-1.55-2.79,3.2,3.2,0,0,0-4.15,0A5.74,5.74,0,0,0,19.16,442a30.78,30.78,0,0,0-1,5.69q-.36,3.66-.36,9.55Z"/><path class="cls-1" d="M47.28,428.7H60.44l12.33,38.2H73V428.7H83.76V501H73.29l-14.4-43.79h-.21V501H47.28Z"/><path class="cls-1" d="M112,428.7h16.58a23,23,0,0,1,6.32.91,15.95,15.95,0,0,1,10.21,8.69,19.72,19.72,0,0,1,1.71,8.69,18.48,18.48,0,0,1-2.9,10.46q-2.9,4.37-9.12,5.69v.2q6.94,1.63,10.21,6.15a19,19,0,0,1,3.26,11.43,22.1,22.1,0,0,1-1.61,8.74,18.93,18.93,0,0,1-4.25,6.3,17.42,17.42,0,0,1-6.06,3.81,20.35,20.35,0,0,1-7.15,1.27H112Zm13.47,29.67q5.08,0,6.79-2.34t1.71-7.21a27.9,27.9,0,0,0-.36-5,5.64,5.64,0,0,0-1.35-2.95,4.78,4.78,0,0,0-2.64-1.32,23.52,23.52,0,0,0-4.15-.3Zm0,32.11a16.06,16.06,0,0,0,4.87-.61,5.73,5.73,0,0,0,2.85-1.88,7,7,0,0,0,1.3-3.3,32.79,32.79,0,0,0,.31-4.88,23.84,23.84,0,0,0-.36-4.37,7.41,7.41,0,0,0-1.4-3.25,6.25,6.25,0,0,0-2.85-2,14.06,14.06,0,0,0-4.72-.66Z"/><path class="cls-1" d="M152.47,428.7H167.6a33.28,33.28,0,0,1,8.71,1.07,16.73,16.73,0,0,1,6.74,3.51,16.15,16.15,0,0,1,4.35,6.35,26.08,26.08,0,0,1,1.55,9.6,34.6,34.6,0,0,1-.36,4.88,23.11,23.11,0,0,1-1.3,5,18.75,18.75,0,0,1-2.44,4.47,12.29,12.29,0,0,1-3.78,3.35l8,34.14H175.48L169.16,470h-3.21V501H152.47Zm13.47,30.68h2.69a5.55,5.55,0,0,0,3.16-.87,7,7,0,0,0,2.12-2.23,9.86,9.86,0,0,0,1.19-3.2,19.31,19.31,0,0,0,.36-3.76q0-5.89-2-8a7.24,7.24,0,0,0-5.44-2.08h-2.07Z"/><path class="cls-1" d="M193.07,428.7h13.47V501H193.07Z"/><path class="cls-1" d="M213.18,428.7h30.47v11.18h-17v18.49h12.54v11.79H226.65v19.71h17.72V501H213.18Z"/><path class="cls-1" d="M247.86,428.7H278v11.18H261.34v19.3h12.33V471H261.34V501H247.86Z"/><path class="cls-1" d="M291.8,480.11q0,1.52.1,3.45a15.47,15.47,0,0,0,.62,3.66,6.64,6.64,0,0,0,1.71,2.9,4.61,4.61,0,0,0,3.37,1.17,5.49,5.49,0,0,0,2.8-.66,5.63,5.63,0,0,0,1.87-1.73,7.22,7.22,0,0,0,1-2.29,9.43,9.43,0,0,0,.31-2.34,9.73,9.73,0,0,0-1.81-5.79,28.39,28.39,0,0,0-4.51-4.88q-2.7-2.33-5.91-4.78a40.59,40.59,0,0,1-5.91-5.49,28.17,28.17,0,0,1-4.51-7,22.27,22.27,0,0,1-1.81-9.35,25.27,25.27,0,0,1,1.14-7.67,18.44,18.44,0,0,1,3.32-6.25,15.88,15.88,0,0,1,5.44-4.22,19,19,0,0,1,15.29.05,14,14,0,0,1,5.23,4.52,20.47,20.47,0,0,1,3,7,41.81,41.81,0,0,1,1.09,8.94h-12q0-1.52-.1-3.4a16.7,16.7,0,0,0-.57-3.56,6.14,6.14,0,0,0-1.61-2.79,4.26,4.26,0,0,0-3.11-1.12,4.37,4.37,0,0,0-3.73,1.83,7.85,7.85,0,0,0-1.35,4.78,9.4,9.4,0,0,0,1.81,5.59,29.59,29.59,0,0,0,4.51,4.93q2.69,2.39,5.91,4.93a42.32,42.32,0,0,1,5.91,5.69,30.26,30.26,0,0,1,4.51,7.11,22,22,0,0,1,1.81,9.25,24.65,24.65,0,0,1-1.19,7.77,18.26,18.26,0,0,1-3.52,6.3,16.68,16.68,0,0,1-5.8,4.27,19.29,19.29,0,0,1-8,1.57,16.46,16.46,0,0,1-8.76-2.08A15.44,15.44,0,0,1,283,495a21,21,0,0,1-2.59-7.21,45.91,45.91,0,0,1-.67-7.72Z"/><path class="cls-1" d="M337.09,428.7h12.23l4.77,42.47h.21l6.43-42.47h12.13l5.91,42.47H379l5.29-42.47h9.64L384.24,501H372l-6.43-45.82h-.21L358.75,501H346.94Z"/><path class="cls-1" d="M396.91,428.7h13.47V501H396.91Z"/><path class="cls-1" d="M424.36,439.88H412.75V428.7h36.69v11.18H437.83V501H424.36Z"/><path class="cls-1" d="M452,428.7h13.47v29.06H474V428.7h13.47V501H474V470.36h-8.5V501H452Z"/><path class="cls-1" d="M522.87,428.7h19.48L551.47,501h-13l-2-16.05H525.67L523.8,501h-11.3Zm8.6,11.18h-.21L527,474.42h8.39Z"/><path class="cls-1" d="M576.55,428.7h11.71q8.5,0,13.42,2.59a17.52,17.52,0,0,1,7.46,7.32A30.36,30.36,0,0,1,612.35,450a149,149,0,0,1,.67,14.88q0,7.83-.62,14.48a34.29,34.29,0,0,1-2.9,11.48,17,17,0,0,1-6.79,7.52q-4.51,2.7-12.28,2.69H576.55ZM590,489.87a11.55,11.55,0,0,0,5-.87,5.6,5.6,0,0,0,2.64-3.5,29.11,29.11,0,0,0,1.09-7.57q.21-4.92.21-13.16t-.21-13.11a28.22,28.22,0,0,0-1.09-7.47,5.58,5.58,0,0,0-2.64-3.46,11.58,11.58,0,0,0-5-.86Z"/><path class="cls-1" d="M618.62,428.7h30.47v11.18h-17v18.49h12.54v11.79H632.1v19.71h17.72V501H618.62Z"/><path class="cls-1" d="M653.31,428.7h30.47v11.18h-17v18.49h12.54v11.79H666.78v19.71H684.5V501H653.31Z"/><path class="cls-1" d="M688,428.7h13.47q11.4,0,17.31,5t5.91,16.66a37.36,37.36,0,0,1-1,8.89,18.33,18.33,0,0,1-3.16,6.86,14.7,14.7,0,0,1-5.54,4.42,19.09,19.09,0,0,1-8.14,1.57h-5.39v29H688Zm13.58,32.82h1.14a12.92,12.92,0,0,0,3.63-.46,5.6,5.6,0,0,0,2.64-1.68,8.12,8.12,0,0,0,1.66-3.35,21.35,21.35,0,0,0,.57-5.38,19.86,19.86,0,0,0-.73-6.1,7.42,7.42,0,0,0-1.92-3.2,5,5,0,0,0-2.75-1.27,24.9,24.9,0,0,0-3.21-.2h-1Z"/><path class="cls-1" d="M721.19,501h-5V487.83h13.47V500l-8,16.26h-5.39Z"/><path class="cls-1" d="M4.55,521.84H22.48l6,37.08h.21L35,521.84H52.53v72.34h-12v-53H40.3l-9.12,53H23.72l-9-53H14.5v53H4.55Z"/><path class="cls-1" d="M58.88,521.84H72.36v72.34H58.88Z"/><path class="cls-1" d="M79,521.84H90.71q8.5,0,13.42,2.59a17.52,17.52,0,0,1,7.46,7.32,30.36,30.36,0,0,1,3.21,11.38,149,149,0,0,1,.67,14.88q0,7.83-.62,14.48A34.29,34.29,0,0,1,112,584a17,17,0,0,1-6.79,7.52q-4.51,2.7-12.28,2.69H79ZM92.47,583a11.55,11.55,0,0,0,5-.87,5.6,5.6,0,0,0,2.64-3.5,29.11,29.11,0,0,0,1.09-7.57q.21-4.92.21-13.16t-.21-13.11a28.22,28.22,0,0,0-1.09-7.47,5.58,5.58,0,0,0-2.64-3.46,11.58,11.58,0,0,0-5-.86Z"/><path class="cls-1" d="M121.07,521.84h11.71q8.5,0,13.42,2.59a17.52,17.52,0,0,1,7.46,7.32,30.36,30.36,0,0,1,3.21,11.38,149,149,0,0,1,.67,14.88q0,7.83-.62,14.48A34.29,34.29,0,0,1,154,584a17,17,0,0,1-6.79,7.52q-4.51,2.7-12.28,2.69H121.07ZM134.54,583a11.55,11.55,0,0,0,5-.87,5.6,5.6,0,0,0,2.64-3.5,29.11,29.11,0,0,0,1.09-7.57q.21-4.92.21-13.16t-.21-13.11a28.22,28.22,0,0,0-1.09-7.47,5.58,5.58,0,0,0-2.64-3.46,11.58,11.58,0,0,0-5-.86Z"/><path class="cls-1" d="M163.15,521.84h13.47V583h17.2v11.18H163.15Z"/><path class="cls-1" d="M197.55,521.84H228V533H211V551.5h12.54v11.79H211V583h17.72v11.18H197.55Z"/><path class="cls-1" d="M254.13,521.84H284.6V533h-17V551.5h12.54v11.79H267.6V583h17.72v11.18H254.13Z"/><path class="cls-1" d="M297.5,521.84H317l9.12,72.34h-13l-2-16.05H300.3l-1.87,16.05h-11.3ZM306.1,533h-.21l-4.25,34.54H310Z"/><path class="cls-1" d="M339.14,573.25q0,1.52.1,3.45a15.47,15.47,0,0,0,.62,3.66,6.64,6.64,0,0,0,1.71,2.9,4.61,4.61,0,0,0,3.37,1.17,5.49,5.49,0,0,0,2.8-.66,5.63,5.63,0,0,0,1.87-1.73,7.22,7.22,0,0,0,1-2.29,9.43,9.43,0,0,0,.31-2.34,9.73,9.73,0,0,0-1.81-5.79,28.39,28.39,0,0,0-4.51-4.88q-2.7-2.33-5.91-4.78a40.59,40.59,0,0,1-5.91-5.49,28.17,28.17,0,0,1-4.51-7,22.27,22.27,0,0,1-1.81-9.35,25.27,25.27,0,0,1,1.14-7.67,18.44,18.44,0,0,1,3.32-6.25,15.88,15.88,0,0,1,5.44-4.22,19,19,0,0,1,15.29.05,14,14,0,0,1,5.23,4.52,20.47,20.47,0,0,1,3,7,41.81,41.81,0,0,1,1.09,8.94H349q0-1.52-.1-3.4a16.7,16.7,0,0,0-.57-3.56,6.14,6.14,0,0,0-1.61-2.79,4.26,4.26,0,0,0-3.11-1.12,4.37,4.37,0,0,0-3.73,1.83,7.85,7.85,0,0,0-1.35,4.78,9.4,9.4,0,0,0,1.81,5.59,29.59,29.59,0,0,0,4.51,4.93q2.69,2.39,5.91,4.93a42.32,42.32,0,0,1,5.91,5.69,30.26,30.26,0,0,1,4.51,7.11,22,22,0,0,1,1.81,9.25,24.65,24.65,0,0,1-1.19,7.77,18.26,18.26,0,0,1-3.52,6.3,16.68,16.68,0,0,1-5.8,4.27,19.29,19.29,0,0,1-8,1.57,16.46,16.46,0,0,1-8.76-2.08,15.44,15.44,0,0,1-5.29-5.33,21,21,0,0,1-2.59-7.21,45.91,45.91,0,0,1-.67-7.72Z"/><path class="cls-1" d="M374.06,533H362.46V521.84h36.69V533H387.54v61.16H374.06Z"/><path class="cls-1" d="M401.69,521.84h30.47V533h-17V551.5H427.7v11.79H415.17V583h17.72v11.18H401.69Z"/><path class="cls-1" d="M436.38,521.84h15.13a33.28,33.28,0,0,1,8.71,1.07,16.73,16.73,0,0,1,6.74,3.51,16.15,16.15,0,0,1,4.35,6.35,26.08,26.08,0,0,1,1.55,9.6,34.6,34.6,0,0,1-.36,4.88,23.11,23.11,0,0,1-1.3,5,18.75,18.75,0,0,1-2.44,4.47A12.29,12.29,0,0,1,465,560l8,34.14H459.38l-6.32-31.09h-3.21v31.09H436.38Zm13.47,30.68h2.69a5.55,5.55,0,0,0,3.16-.87,7,7,0,0,0,2.12-2.23,9.86,9.86,0,0,0,1.19-3.2,19.31,19.31,0,0,0,.36-3.76q0-5.89-2-8a7.24,7.24,0,0,0-5.44-2.08h-2.07Z"/><path class="cls-1" d="M477,521.84h13.16L502.53,560h.21v-38.2h10.78v72.34H503l-14.4-43.79h-.21v43.79H477Z"/><path class="cls-1" d="M537.86,521.84H551l6.32,50.8h.21l6.94-50.8h10.88l-11.09,72.34H548.85Z"/><path class="cls-1" d="M578.4,521.84h13.47v72.34H578.4Z"/><path class="cls-1" d="M598.52,521.84H615.1a23,23,0,0,1,6.32.91,15.95,15.95,0,0,1,10.21,8.69,19.72,19.72,0,0,1,1.71,8.69,18.48,18.48,0,0,1-2.9,10.46q-2.9,4.37-9.12,5.69v.2q6.94,1.63,10.21,6.15a19,19,0,0,1,3.26,11.43,22.1,22.1,0,0,1-1.61,8.74,18.93,18.93,0,0,1-4.25,6.3,17.42,17.42,0,0,1-6.06,3.81,20.35,20.35,0,0,1-7.15,1.27h-17.2ZM612,551.5q5.08,0,6.79-2.34t1.71-7.21a27.9,27.9,0,0,0-.36-5,5.64,5.64,0,0,0-1.35-2.95,4.78,4.78,0,0,0-2.64-1.32,23.52,23.52,0,0,0-4.15-.3Zm0,32.11a16.06,16.06,0,0,0,4.87-.61,5.73,5.73,0,0,0,2.85-1.88,7,7,0,0,0,1.3-3.3,32.79,32.79,0,0,0,.31-4.88,23.84,23.84,0,0,0-.36-4.37,7.41,7.41,0,0,0-1.4-3.25,6.25,6.25,0,0,0-2.85-2,14.06,14.06,0,0,0-4.72-.66Z"/><path class="cls-1" d="M638.95,521.84h30.47V533h-17V551.5H665v11.79H652.42V583h17.72v11.18H638.95Z"/><path class="cls-1" d="M674.75,581h13.47v13.21H674.75Z"/><path class="cls-1" d="M14.29,666.38q0,1.52.1,3.46a15.51,15.51,0,0,0,.62,3.66,6.62,6.62,0,0,0,1.71,2.89,4.61,4.61,0,0,0,3.37,1.17,5.49,5.49,0,0,0,2.8-.66,5.65,5.65,0,0,0,1.87-1.73,7.21,7.21,0,0,0,1-2.29,9.43,9.43,0,0,0,.31-2.34,9.73,9.73,0,0,0-1.81-5.79,28.25,28.25,0,0,0-4.51-4.88q-2.7-2.33-5.91-4.78A40.7,40.7,0,0,1,8,649.62a28.2,28.2,0,0,1-4.51-7,22.29,22.29,0,0,1-1.81-9.35,25.29,25.29,0,0,1,1.14-7.67,18.46,18.46,0,0,1,3.32-6.25,15.9,15.9,0,0,1,5.44-4.22,17.1,17.1,0,0,1,7.51-1.57,17.08,17.08,0,0,1,7.77,1.63,14,14,0,0,1,5.23,4.52,20.49,20.49,0,0,1,3,7,41.84,41.84,0,0,1,1.09,8.94h-12q0-1.52-.1-3.4a16.66,16.66,0,0,0-.57-3.56,6.14,6.14,0,0,0-1.61-2.79,4.26,4.26,0,0,0-3.11-1.12A4.37,4.37,0,0,0,15,626.55a7.86,7.86,0,0,0-1.35,4.78,9.4,9.4,0,0,0,1.81,5.59A29.44,29.44,0,0,0,20,641.84q2.69,2.39,5.91,4.93a42.54,42.54,0,0,1,5.91,5.69,30.28,30.28,0,0,1,4.51,7.11,22,22,0,0,1,1.81,9.25,24.64,24.64,0,0,1-1.19,7.77,18.22,18.22,0,0,1-3.52,6.3,16.63,16.63,0,0,1-5.8,4.27,19.29,19.29,0,0,1-8,1.58,16.45,16.45,0,0,1-8.76-2.08,15.42,15.42,0,0,1-5.29-5.33,21,21,0,0,1-2.59-7.21,45.93,45.93,0,0,1-.67-7.72Z"/><path class="cls-1" d="M49.16,615H68.65l9.12,72.34h-13l-2-16.05H52L50.1,687.31H38.8Zm8.6,11.18h-.21l-4.25,34.54H61.7Z"/><path class="cls-1" d="M81.12,615H94.59v61.16h17.2v11.18H81.12Z"/><path class="cls-1" d="M154.39,640.78q0-1.22.05-3.91a31.57,31.57,0,0,0-.36-5.38,15.66,15.66,0,0,0-1.45-4.72,3.4,3.4,0,0,0-3.21-2,3.69,3.69,0,0,0-2.33.86,7.14,7.14,0,0,0-1.87,3.61,43.56,43.56,0,0,0-1.19,7.93q-.42,5.18-.41,13.92,0,8.94.41,14.17a40.13,40.13,0,0,0,1.24,8,6.53,6.53,0,0,0,2,3.55,4.75,4.75,0,0,0,2.75.81,3.51,3.51,0,0,0,3-1.62,11,11,0,0,0,1.66-3.81,27.4,27.4,0,0,0,.67-4.42q.16-2.23.16-3.55h-5V653.58h16.37v33.73h-5.7l-1.87-4.78A16.05,16.05,0,0,1,155,686.8a10.87,10.87,0,0,1-6.32,1.93,15.59,15.59,0,0,1-9.07-2.54,17.66,17.66,0,0,1-5.91-7.37A42.33,42.33,0,0,1,130.5,667a114.33,114.33,0,0,1-1-15.9,86.89,86.89,0,0,1,1.5-17.53A39.47,39.47,0,0,1,135.11,622a16.91,16.91,0,0,1,6.06-6.45,14.91,14.91,0,0,1,7.51-2,23.39,23.39,0,0,1,6.43.91,13,13,0,0,1,5.7,3.4,18.14,18.14,0,0,1,4,6.91,34.71,34.71,0,0,1,1.55,11.33v4.67Z"/><path class="cls-1" d="M172.66,615h15.13a33.28,33.28,0,0,1,8.71,1.07,16.78,16.78,0,0,1,6.74,3.51,16.17,16.17,0,0,1,4.35,6.35,26.08,26.08,0,0,1,1.55,9.6,34.58,34.58,0,0,1-.36,4.88,23.08,23.08,0,0,1-1.3,5,18.76,18.76,0,0,1-2.44,4.47,12.34,12.34,0,0,1-3.78,3.35l8,34.14H195.66l-6.32-31.09h-3.21v31.09H172.66Zm13.47,30.68h2.69a5.57,5.57,0,0,0,3.16-.86,7,7,0,0,0,2.12-2.23,9.9,9.9,0,0,0,1.19-3.2,19.33,19.33,0,0,0,.36-3.76q0-5.89-2-8a7.23,7.23,0,0,0-5.44-2.08h-2.07Z"/><path class="cls-1" d="M213.54,615H244v11.18H227v18.49h12.54v11.79H227v19.71h17.72v11.18H213.54Z"/><path class="cls-1" d="M248.15,615h12.23l4.77,42.47h.21L271.78,615h12.13l5.91,42.47H290L295.31,615h9.64l-9.64,72.34H283.08l-6.43-45.82h-.21l-6.63,45.82H258Z"/><path class="cls-1" d="M323.08,615h13.47v56a18,18,0,0,0,.16,2.39,6.16,6.16,0,0,0,.67,2.13,3.86,3.86,0,0,0,1.45,1.52,4.58,4.58,0,0,0,2.38.56,4,4,0,0,0,3.89-2,9.45,9.45,0,0,0,1.09-4.62V615h11.4v54.26q0,10.67-4.56,15.09t-12.64,4.42a22.12,22.12,0,0,1-7.1-1.07,13.79,13.79,0,0,1-5.44-3.35,15.14,15.14,0,0,1-3.52-6,28.86,28.86,0,0,1-1.24-9.09Z"/><path class="cls-1" d="M364.16,615h13.47q11.4,0,17.31,5t5.91,16.66a37.35,37.35,0,0,1-1,8.89,18.3,18.3,0,0,1-3.16,6.86,14.68,14.68,0,0,1-5.54,4.42,19.09,19.09,0,0,1-8.14,1.58h-5.39v29H364.16Zm13.58,32.82h1.14a12.84,12.84,0,0,0,3.63-.46,5.6,5.6,0,0,0,2.64-1.68,8.11,8.11,0,0,0,1.66-3.35,21.37,21.37,0,0,0,.57-5.39,19.87,19.87,0,0,0-.73-6.1,7.41,7.41,0,0,0-1.92-3.2,5,5,0,0,0-2.75-1.27,24.9,24.9,0,0,0-3.21-.2h-1Z"/><path class="cls-1" d="M417.84,615h13.47v72.34H417.84Z"/><path class="cls-1" d="M437.71,615h13.16l12.33,38.2h.21V615h10.78v72.34H463.73l-14.4-43.79h-.21v43.79h-11.4Z"/><path class="cls-1" d="M517,673.39a24,24,0,0,1-.88,7,10.43,10.43,0,0,1-2.69,4.57,10.17,10.17,0,0,1-4.66,2.44,28.92,28.92,0,0,1-6.89.71,33.73,33.73,0,0,1-3.83-.2l-3.42-.41V676a32.87,32.87,0,0,0,4.56.3,3.66,3.66,0,0,0,3.21-1.68,8.13,8.13,0,0,0,1.14-4.62V615H517Z"/><path class="cls-1" d="M523.61,615h30.47v11.18h-17v18.49h12.54v11.79H537.08v19.71h17.72v11.18H523.61Z"/><path class="cls-1" d="M558.3,615H570q8.5,0,13.42,2.59a17.51,17.51,0,0,1,7.46,7.31,30.37,30.37,0,0,1,3.21,11.38,149,149,0,0,1,.67,14.88q0,7.83-.62,14.48a34.26,34.26,0,0,1-2.9,11.48,17,17,0,0,1-6.79,7.52q-4.51,2.69-12.28,2.69H558.3Zm13.47,61.16a11.55,11.55,0,0,0,5-.86,5.6,5.6,0,0,0,2.64-3.51,29.09,29.09,0,0,0,1.09-7.57q.21-4.93.21-13.16t-.21-13.11a28.23,28.23,0,0,0-1.09-7.47,5.58,5.58,0,0,0-2.64-3.45,11.55,11.55,0,0,0-5-.87Z"/><path class="cls-1" d="M600.37,615h11.71q8.5,0,13.42,2.59a17.51,17.51,0,0,1,7.46,7.31,30.37,30.37,0,0,1,3.21,11.38,149,149,0,0,1,.67,14.88q0,7.83-.62,14.48a34.26,34.26,0,0,1-2.9,11.48,17,17,0,0,1-6.79,7.52q-4.51,2.69-12.28,2.69H600.37Zm13.47,61.16a11.55,11.55,0,0,0,5-.86,5.6,5.6,0,0,0,2.64-3.51,29.09,29.09,0,0,0,1.09-7.57q.21-4.93.21-13.16t-.21-13.11a28.23,28.23,0,0,0-1.09-7.47,5.58,5.58,0,0,0-2.64-3.45,11.55,11.55,0,0,0-5-.87Z"/><path class="cls-1" d="M648.28,615h19.48l9.12,72.34h-13l-2-16.05H651.08l-1.87,16.05h-11.3Zm8.6,11.18h-.21l-4.25,34.54h8.39Z"/><path class="cls-1" d="M680.24,615h13.47V644h8.5V615h13.47v72.34H702.21V656.63h-8.5v30.68H680.24Z"/><path class="cls-1" d="M722,674.1h13.47v13.21H722Z"/></g></g></svg>