<svg xmlns="http://www.w3.org/2000/svg" viewBox="0 0 761.83 1219.74"><defs><style>.ss-fill{fill:#da2128;}</style></defs><title>ScienceSunshine</title><g id="Layer_2" data-name="Layer 2"><g id="Layer_1-2" data-name="Layer 1"><path class="ss-fill" d="M15.61,33.22c0,2.55,0,7,3.58,7,2.74,0,3.7-2.55,3.7-4.41,0-8.11-15.08-10-15.08-23.44C7.81,5.56,11.52,0,18.54,0,26,0,28.9,5.68,29.09,13.86H21.67c0-2.55,0-6.83-3.32-6.83-2,0-3.13,1.66-3.13,4.15,0,7.73,15.08,10.35,15.08,23.57,0,7-4,12.52-11.44,12.52C10,47.27,8.2,39.48,8.2,33.22Z"/><path class="ss-fill" d="M48.28,17.38c0-7.54-1-10.35-3-10.35-1.73,0-3.45,1.15-3.45,16.61,0,14.95.89,16.61,3.45,16.61,2.74,0,3.39-4.22,3.51-10.8l7,.32c0,7.92-1.15,17.5-10.86,17.5-8.88,0-11.82-8.69-11.82-23.63C33.14,6.26,38.38,0,45,0c9.58,0,10.73,8.82,10.73,17.12Z"/><path class="ss-fill" d="M60.32.89h8.3V46.38h-8.3Z"/><path class="ss-fill" d="M74.08.89H92.86v7H82.39V19.55h7.73V27H82.39V39.35H93.31v7H74.08Z"/><path class="ss-fill" d="M96.82.89h8.11l7.6,24h.13V.89h6.64V46.38h-6.45L104,18.84h-.13V46.38h-7Z"/><path class="ss-fill" d="M138.85,17.38c0-7.54-1-10.35-3-10.35-1.73,0-3.45,1.15-3.45,16.61,0,14.95.89,16.61,3.45,16.61,2.74,0,3.39-4.22,3.51-10.8l7,.32c0,7.92-1.15,17.5-10.86,17.5-8.88,0-11.82-8.69-11.82-23.63C123.7,6.26,128.95,0,135.52,0c9.58,0,10.73,8.82,10.73,17.12Z"/><path class="ss-fill" d="M151,.89h18.78v7H159.3V19.55H167V27H159.3V39.35h10.92v7H151Z"/><path class="ss-fill" d="M202.91,46.38c-3.7,0-6.45-1.09-8.69-3.7a11.05,11.05,0,0,1-8.76,4.6c-6.83,0-10-6.13-10-11.18,0-5.37,2.74-10,6.83-14.5-2-4.22-3.58-7.54-3.58-12.2,0-5.69,3.83-9.39,9.39-9.39s8.69,4.6,8.69,9.2c0,5.88-2.74,8-6.39,12.33a64.15,64.15,0,0,0,4.09,8.11,40.74,40.74,0,0,0,1.6-7.35l5.49,1.21a43.07,43.07,0,0,1-3.51,12.78,6.84,6.84,0,0,0,4.79,3.45ZM185.22,28a7.65,7.65,0,0,0-2.3,5.62c0,2.68,1.34,6.64,4.6,6.64,1.41,0,2.36-1.28,3.13-2.3Zm2.43-11.75c1.41-1.85,2.94-3.77,2.94-6.45,0-2-.64-3.64-2.49-3.64s-2.3,1.6-2.3,3.26A19.4,19.4,0,0,0,187.64,16.23Z"/><path class="ss-fill" d="M215.16,33.22c0,2.55,0,7,3.58,7,2.74,0,3.7-2.55,3.7-4.41,0-8.11-15.08-10-15.08-23.44C207.37,5.56,211.07,0,218.1,0c7.47,0,10.35,5.68,10.54,13.86h-7.41c0-2.55,0-6.83-3.32-6.83-2,0-3.13,1.66-3.13,4.15,0,7.73,15.08,10.35,15.08,23.57,0,7-4,12.52-11.44,12.52-8.88,0-10.67-7.79-10.67-14.05Z"/><path class="ss-fill" d="M233.36.89h8.3v35.2c0,2,.45,4.15,2.87,4.15s3.07-2,3.07-4.15V.89h7V35c0,8.94-4,12.26-10.61,12.26-6.39,0-10.67-3.32-10.67-12.26Z"/><path class="ss-fill" d="M259.93.89H268l7.6,24h.13V.89h6.64V46.38H276l-8.88-27.53H267V46.38h-7Z"/><path class="ss-fill" d="M293.92,33.22c0,2.55,0,7,3.58,7,2.74,0,3.7-2.55,3.7-4.41,0-8.11-15.08-10-15.08-23.44,0-6.84,3.7-12.39,10.73-12.39,7.47,0,10.35,5.68,10.54,13.86H300c0-2.55,0-6.83-3.32-6.83-2,0-3.13,1.66-3.13,4.15,0,7.73,15.08,10.35,15.08,23.57,0,7-4,12.52-11.44,12.52-8.88,0-10.67-7.79-10.67-14.05Z"/><path class="ss-fill" d="M312.28.89h8.3V19.16h5.24V.89h8.3V46.38h-8.3V27.09h-5.24V46.38h-8.3Z"/><path class="ss-fill" d="M339.61.89h8.3V46.38h-8.3Z"/><path class="ss-fill" d="M353.22.89h8.11l7.6,24h.13V.89h6.64V46.38h-6.45l-8.88-27.53h-.13V46.38h-7Z"/><path class="ss-fill" d="M381.19.89H400v7H389.5V19.55h7.73V27H389.5V39.35h10.92v7H381.19Z"/><path class="ss-fill" d="M2.46,152.7H23.15L31.21,226h.35l10.87-73.3H63l10,73.3h.35l8.95-73.3H98.55L82.25,277.56H61.55L50.68,198.47h-.35L39.11,277.56h-20Z"/><path class="ss-fill" d="M105.42,152.7H157V172H128.22V203.9h21.22v20.34H128.22v34h30v19.29H105.42Z"/><path class="ss-fill" d="M206.61,152.7h33L255,277.56H233.09l-3.33-27.71H211.34l-3.15,27.71H189.07ZM221.17,172h-.35l-7.19,59.62h14.2Z"/><path class="ss-fill" d="M262,152.7h25.6c21.75,0,36.13,9.12,36.13,35.42,0,10.52-3.15,24.55-13.33,30.51l13.51,58.92H301L290.26,223.9h-5.44v53.66H262Zm22.8,53h4.56c8.42,0,11.57-8.42,11.57-17.36,0-13.5-4.91-17.36-12.62-17.36h-3.51Z"/><path class="ss-fill" d="M332,152.7h51.56V172H354.8V203.9H376v20.34H354.8v34h30v19.29H332Z"/><path class="ss-fill" d="M428.46,152.7h33l15.43,124.86H454.93l-3.33-27.71H433.19L430,277.56H410.92ZM443,172h-.35l-7.19,59.62h14.2Z"/><path class="ss-fill" d="M24.72,398.05c0,7,0,19.29,9.82,19.29,7.54,0,10.17-7,10.17-12.1,0-22.27-41.38-27.36-41.38-64.36,0-18.76,10.17-34,29.46-34,20.52,0,28.41,15.61,28.93,38.05H41.38c0-7,0-18.76-9.12-18.76-5.44,0-8.59,4.56-8.59,11.4,0,21.22,41.38,28.41,41.38,64.71,0,19.11-10.87,34.37-31.39,34.37-24.38,0-29.29-21.39-29.29-38.58Z"/><path class="ss-fill" d="M85.23,328.61H65.59V309.32h62.08v19.29H108V434.18H85.23Z"/><path class="ss-fill" d="M162.57,306.86c20.16,0,33.32,15.61,33.32,64.88s-13.15,64.88-33.32,64.88S129.25,421,129.25,371.75,142.4,306.86,162.57,306.86Zm-8.42,78c0,27,3.15,32.44,8.42,32.44S171,411.91,171,384.9V358.6c0-27-3.15-32.44-8.42-32.44s-8.42,5.44-8.42,32.44Z"/><path class="ss-fill" d="M205.54,309.32h25.6c21.75,0,36.13,9.12,36.13,35.42,0,10.52-3.15,24.55-13.33,30.51l13.51,58.92h-23l-10.69-53.66h-5.44v53.66h-22.8Zm22.8,53h4.56c8.42,0,11.57-8.42,11.57-17.36,0-13.5-4.91-17.36-12.62-17.36h-3.51Z"/><path class="ss-fill" d="M287.27,386,266.4,309.32H289l10.87,48.93h.35l11.57-48.93h19.11l-20.87,74.53v50.33h-22.8Z"/><path class="ss-fill" d="M320.94,378.41h34.72v16.83H320.94Z"/><path class="ss-fill" d="M365.14,309.32h19.81c38.23,0,41.91,24.55,41.91,62.43,0,36.13-3,62.43-38.23,62.43h-23.5Zm22.8,105.57c14.38-.17,15.08-5.44,15.08-43.31,0-37.7-.7-42.79-15.08-43Z"/><path class="ss-fill" d="M437.22,309.32h25.6c21.75,0,36.13,9.12,36.13,35.42,0,10.52-3.15,24.55-13.33,30.51l13.51,58.92h-23l-10.69-53.66H460v53.66h-22.8Zm22.8,53h4.56c8.42,0,11.57-8.42,11.57-17.36,0-13.5-4.91-17.36-12.62-17.36H460Z"/><path class="ss-fill" d="M510.35,309.32h22.79V434.18H510.35Z"/><path class="ss-fill" d="M539.46,309.32h22.27L572.43,397h.35l11.75-87.68h18.41L584.18,434.18H558Z"/><path class="ss-fill" d="M609.79,309.32h51.56v19.29H632.59v31.92h21.22v20.34H632.59v34h30v19.29H609.79Z"/><path class="ss-fill" d="M669.42,309.32h22.27l20.87,65.94h.35V309.32h18.24V434.18H713.43L689.05,358.6h-.35v75.58H669.42Z"/><path class="ss-fill" d="M747.46,434.18H739v-22.8h22.79v21l-13.5,28.06h-9.12Z"/><path class="ss-fill" d="M9.12,465.94h51v19.29H31.92v33.32H52.78v20.34H31.92V590.8H9.12Z"/><path class="ss-fill" d="M68.92,465.94h51.56v19.29H91.72v31.92h21.22v20.34H91.72v34h30V590.8H68.92Z"/><path class="ss-fill" d="M147,465.94h33L195.36,590.8H173.44l-3.33-27.71H151.7l-3.15,27.71H129.43Zm14.56,19.29h-.35L154,544.85h14.2Z"/><path class="ss-fill" d="M202.38,465.94H228c21.75,0,36.13,9.12,36.13,35.42,0,10.52-3.15,24.55-13.33,30.51l13.51,58.92h-23l-10.69-53.66h-5.44V590.8h-22.8Zm22.8,53h4.56c8.42,0,11.57-8.42,11.57-17.36,0-13.5-4.91-17.36-12.62-17.36h-3.51Z"/><path class="ss-fill" d="M275.87,465.94h22.8V571.51h29.11V590.8H275.87Z"/><path class="ss-fill" d="M335.32,465.94h51.56v19.29H358.12v31.92h21.22v20.34H358.12v34h30V590.8H335.32Z"/><path class="ss-fill" d="M415.11,554.67c0,7,0,19.29,9.82,19.29,7.54,0,10.17-7,10.17-12.1,0-22.27-41.38-27.36-41.38-64.36,0-18.76,10.17-34,29.46-34,20.52,0,28.41,15.61,28.93,38.05H431.77c0-7,0-18.76-9.12-18.76-5.44,0-8.59,4.56-8.59,11.4,0,21.22,41.38,28.41,41.38,64.71,0,19.11-10.87,34.37-31.39,34.37-24.38,0-29.29-21.39-29.29-38.58Z"/><path class="ss-fill" d="M483.16,554.67c0,7,0,19.29,9.82,19.29,7.54,0,10.17-7,10.17-12.1,0-22.27-41.38-27.36-41.38-64.36,0-18.76,10.17-34,29.46-34,20.52,0,28.41,15.61,28.93,38.05H499.81c0-7,0-18.76-9.12-18.76-5.44,0-8.59,4.56-8.59,11.4,0,21.22,41.38,28.41,41.38,64.71,0,19.11-10.87,34.37-31.39,34.37-24.38,0-29.29-21.39-29.29-38.58Z"/><path class="ss-fill" d="M530.69,465.94h22.8V571.51H582.6V590.8H530.69Z"/><path class="ss-fill" d="M595.22,542.57l-20.87-76.63H597l10.87,48.93h.35l11.57-48.93h19.11L618,540.47V590.8h-22.8Z"/><path class="ss-fill" d="M47.35,667.8c0-20.69-2.63-28.41-8.24-28.41-4.74,0-9.47,3.16-9.47,45.59,0,41,2.46,45.59,9.47,45.59,7.54,0,9.29-11.57,9.64-29.64l19.29.88c0,21.75-3.15,48-29.81,48C13.85,749.87,5.79,726,5.79,685c0-47.7,14.38-64.88,32.44-64.88,26.3,0,29.46,24.2,29.46,47Z"/><path class="ss-fill" d="M77.76,622.56h25.6c21.75,0,36.13,9.12,36.13,35.42,0,10.52-3.15,24.55-13.33,30.51l13.51,58.92h-23L106,693.76h-5.44v53.66H77.76Zm22.8,53h4.56c8.42,0,11.57-8.42,11.57-17.36,0-13.5-4.91-17.36-12.62-17.36h-3.51Z"/><path class="ss-fill" d="M147.7,622.56h51.56v19.29H170.5v31.92h21.22v20.34H170.5v34h30v19.29H147.7Z"/><path class="ss-fill" d="M222.22,622.56h33l15.43,124.86H248.7l-3.33-27.71H227l-3.15,27.71H204.68Zm14.56,19.29h-.35l-7.19,59.62h14.2Z"/><path class="ss-fill" d="M286.25,641.85H266.61V622.56h62.08v19.29H309V747.42h-22.8Z"/><path class="ss-fill" d="M336.23,622.56H359V747.42H336.23Z"/><path class="ss-fill" d="M365.29,622.56h22.27l10.7,87.68h.35l11.75-87.68h18.41L410,747.42H383.88Z"/><path class="ss-fill" d="M435.55,622.56H487.1v19.29H458.34v31.92h21.22v20.34H458.34v34h30v19.29H435.55Z"/><path class="ss-fill" d="M20.34,779.18h33L68.74,904H46.82l-3.33-27.71H25.08L21.92,904H2.81ZM34.9,798.47h-.35l-7.19,59.62h14.2Z"/><path class="ss-fill" d="M75.69,779.18H95.5c38.23,0,41.91,24.55,41.91,62.43,0,36.13-3,62.43-38.23,62.43H75.69Zm22.8,105.57c14.38-.17,15.08-5.44,15.08-43.31,0-37.7-.7-42.79-15.08-43Z"/><path class="ss-fill" d="M181.62,779.18h33L230,904H208.09l-3.33-27.71H186.35L183.2,904H164.08Zm14.56,19.29h-.35l-7.19,59.62h14.2Z"/><path class="ss-fill" d="M274.59,823.72c0-5.79,1.4-27.71-8.42-27.71-5.61,0-9.82,5.26-9.82,45.42,0,41,3.86,45.77,10.87,45.77,8.59,0,9.3-17.19,9.3-23.15H268.1V845.82h27.71V904h-9.64L283,895.8c-3.51,5.26-10.17,10.7-18.06,10.7-24.38,0-32.44-23.85-32.44-64.88,0-47.7,14.38-64.88,32.44-64.88,14.73,0,30,7,30,38.93v8.07Z"/><path class="ss-fill" d="M306.4,779.18H358v19.29H329.19v31.92h21.22v20.34H329.19v34h30V904H306.4Z"/><path class="ss-fill" d="M369.53,779.18H391.8l20.87,65.94H413V779.18h18.24V904H413.55l-24.38-75.58h-.35V904H369.53Z"/><path class="ss-fill" d="M482.11,824.42c0-20.69-2.63-28.41-8.24-28.41-4.74,0-9.47,3.16-9.47,45.59,0,41,2.46,45.59,9.47,45.59,7.54,0,9.29-11.57,9.64-29.64l19.29.88c0,21.75-3.15,48-29.81,48-24.38,0-32.44-23.85-32.44-64.88,0-47.7,14.38-64.88,32.44-64.88,26.3,0,29.46,24.2,29.46,47Z"/><path class="ss-fill" d="M527.35,855.81l-20.87-76.63h22.62L540,828.11h.35l11.57-48.93H571l-20.87,74.53V904h-22.8Z"/><path class="ss-fill" d="M19.64,955.09H0V935.8H62.08v19.29H42.44v105.57H19.64Z"/><path class="ss-fill" d="M67.69,935.8h22.8V986h14.38V935.8h22.8v124.86h-22.8v-53H90.49v53H67.69Z"/><path class="ss-fill" d="M152.16,935.8h33l15.43,124.86H178.63L175.3,1033H156.89l-3.15,27.71H134.62Zm14.56,19.29h-.35l-7.19,59.62h14.2Z"/><path class="ss-fill" d="M216.18,955.09H196.54V935.8h62.08v19.29H239v105.57h-22.8Z"/><path class="ss-fill" d="M306.85,1024.53c0,7,0,19.29,9.82,19.29,7.54,0,10.17-7,10.17-12.1,0-22.27-41.38-27.36-41.38-64.36,0-18.76,10.17-34,29.46-34,20.52,0,28.41,15.61,28.93,38.05H323.51c0-7,0-18.76-9.12-18.76-5.44,0-8.59,4.56-8.59,11.4,0,21.22,41.38,28.41,41.38,64.71,0,19.11-10.87,34.37-31.39,34.37-24.38,0-29.29-21.39-29.29-38.58Z"/><path class="ss-fill" d="M354,935.8H384.3l10.17,64h.35l10.7-64h29.64v124.86H414.81V969.12h-.35L399,1060.66H386.4l-15.26-91.54h-.35v91.54H354Z"/><path class="ss-fill" d="M447.44,935.8H499v19.29H470.23V987h21.22v20.34H470.23v34h30v19.29H447.44Z"/><path class="ss-fill" d="M510.92,935.8h22.8v105.57h29.11v19.29H510.92Z"/><path class="ss-fill" d="M570.44,935.8h22.8v105.57h29.11v19.29H570.44Z"/><path class="ss-fill" d="M647.5,1024.53c0,7,0,19.29,9.82,19.29,7.54,0,10.17-7,10.17-12.1,0-22.27-41.38-27.36-41.38-64.36,0-18.76,10.17-34,29.46-34,20.52,0,28.41,15.61,28.93,38.05H664.16c0-7,0-18.76-9.12-18.76-5.44,0-8.59,4.56-8.59,11.4,0,21.22,41.38,28.41,41.38,64.71,0,19.11-10.87,34.37-31.39,34.37-24.38,0-29.29-21.39-29.29-38.58Z"/><path class="ss-fill" d="M2.46,1092.42H23.15l8.07,73.3h.35l10.87-73.3H63l10,73.3h.35l8.95-73.3H98.55L82.25,1217.28H61.55l-10.87-79.09h-.35l-11.22,79.09h-20Z"/><path class="ss-fill" d="M134.12,1090c20.16,0,33.32,15.61,33.32,64.88s-13.15,64.88-33.32,64.88-33.32-15.61-33.32-64.88S114,1090,134.12,1090Zm-8.42,78c0,27,3.15,32.44,8.42,32.44s8.42-5.44,8.42-32.44v-26.3c0-27-3.15-32.44-8.42-32.44s-8.42,5.44-8.42,32.44Z"/><path class="ss-fill" d="M176.73,1092.42H199l20.87,65.94h.35v-65.94h18.24v124.86H220.75l-24.38-75.58H196v75.58H176.73Z"/><path class="ss-fill" d="M250.65,1092.42h19.81c38.23,0,41.91,24.55,41.91,62.43,0,36.13-3,62.43-38.23,62.43h-23.5ZM273.45,1198c14.38-.17,15.08-5.44,15.08-43.31,0-37.7-.7-42.79-15.08-43Z"/><path class="ss-fill" d="M322.82,1092.42h51.56v19.29H345.62v31.92h21.22V1164H345.62v34h30v19.29H322.82Z"/><path class="ss-fill" d="M386.31,1092.42h25.6c21.75,0,36.13,9.12,36.13,35.42,0,10.52-3.15,24.55-13.33,30.51l13.51,58.92h-23l-10.69-53.66H409.1v53.66h-22.8Zm22.8,53h4.56c8.42,0,11.57-8.42,11.57-17.36,0-13.5-4.91-17.36-12.62-17.36H409.1Z"/><path class="ss-fill" d="M459.79,1092.42h51v19.29H482.59V1145h20.87v20.34H482.59v51.91h-22.8Z"/><path class="ss-fill" d="M520.29,1092.42h22.79V1189c0,5.61,1.23,11.4,7.89,11.4,6.32,0,8.42-5.44,8.42-11.4v-96.62h19.29v93.64c0,24.55-10.87,33.67-29.11,33.67-17.54,0-29.28-9.12-29.28-33.67Z"/><path class="ss-fill" d="M590.79,1092.42h22.8V1198H642.7v19.29H590.79Z"/><path class="ss-fill" d="M652,1194.48h22.8v22.8H652Z"/><rect class="ss-fill" x="9.1" y="72.51" width="392.61" height="16.93"/></g></g></svg>
