<svg xmlns="http://www.w3.org/2000/svg" viewBox="0 0 757.23 687.76"><defs><style>.cls-1{fill:#da2128;}</style></defs><title>Shahir</title><g id="Layer_2" data-name="Layer 2"><g id="Layer_1-2" data-name="Layer 1"><path class="cls-1" d="M1.45,148.52H13.67L18.44,191h.21l6.42-42.45H37.19L43.1,191h.21l5.28-42.45h9.63l-9.63,72.31H36.36L29.94,175h-.21l-6.63,45.8H11.29Z"/><path class="cls-1" d="M61.25,148.52H74.71v72.31H61.25Z"/><path class="cls-1" d="M90.77,159.7H79.17V148.52h36.67V159.7h-11.6v61.14H90.77Z"/><path class="cls-1" d="M120.5,148.52H134v29h8.49v-29h13.47v72.31H142.46V190.17H134v30.67H120.5Z"/><path class="cls-1" d="M185,179.2a11.33,11.33,0,0,0,5.54-.81,8.65,8.65,0,0,0,3.37-2.74,10.33,10.33,0,0,0,1.71-4.11,26.75,26.75,0,0,0,.47-5.13q0-1.73-.16-3.35a9.62,9.62,0,0,0-.67-2.84,5.07,5.07,0,0,0-1.45-2,4.17,4.17,0,0,0-4.09-.41,3.43,3.43,0,0,0-1.4,1.32,9.81,9.81,0,0,0-1.09,2.64,19.31,19.31,0,0,0-.57,4.32l-10.57-1a28,28,0,0,1,1.4-6.8,16.57,16.57,0,0,1,3.11-5.48,14.63,14.63,0,0,1,5-3.71,16.47,16.47,0,0,1,7-1.37,14.94,14.94,0,0,1,6.84,1.47,14.52,14.52,0,0,1,4.87,4,16.49,16.49,0,0,1,2.9,5.74,24.57,24.57,0,0,1,.93,6.8A24.06,24.06,0,0,1,206,176.15q-2.18,4.57-8.08,6.8v.2q6.73,1.73,9.48,6.7a23.39,23.39,0,0,1,2.75,11.48q0,9.85-5.28,15.08t-14.19,5.23a16.83,16.83,0,0,1-7-1.37,13.69,13.69,0,0,1-5-3.76,16,16,0,0,1-3-5.64,24,24,0,0,1-1-7l11.4-.71a25.76,25.76,0,0,0,.16,2.69,11.34,11.34,0,0,0,.67,2.84,6.22,6.22,0,0,0,1.45,2.29,3.54,3.54,0,0,0,2.59.91,4.55,4.55,0,0,0,4.3-3,20,20,0,0,0,1.4-8.28q0-6.5-2.43-9.09T185,188.95Z"/><path class="cls-1" d="M224.29,201.95a51.68,51.68,0,0,0,1,7.41q.62,2.54,2.9,2.54a3.26,3.26,0,0,0,2.9-1.62,13.45,13.45,0,0,0,1.61-4.67,60.78,60.78,0,0,0,.83-7.36q.26-4.32.57-9.8h-.21a12.54,12.54,0,0,1-3.83,3.76,10.21,10.21,0,0,1-5.39,1.32,10.34,10.34,0,0,1-4.51-1.07,11.2,11.2,0,0,1-4-3.45,19.26,19.26,0,0,1-3-6.3,34.71,34.71,0,0,1-1.14-9.6,41.56,41.56,0,0,1,1.29-10.87,24.17,24.17,0,0,1,3.63-8,16.15,16.15,0,0,1,5.49-4.87,14.47,14.47,0,0,1,6.89-1.68A17.57,17.57,0,0,1,236.1,149a13,13,0,0,1,5.7,5,31.1,31.1,0,0,1,4,10.36,81.25,81.25,0,0,1,1.5,17.32,101.3,101.3,0,0,1-1.45,18.59,42.45,42.45,0,0,1-4,12.34,17.66,17.66,0,0,1-6.11,6.86,14.53,14.53,0,0,1-7.67,2.13,12.82,12.82,0,0,1-11.4-5.94,20.36,20.36,0,0,1-2.64-6,34.87,34.87,0,0,1-1.09-6.8Zm9.53-30.16a57,57,0,0,0-.93-10.36q-.83-4-3.52-4a3.22,3.22,0,0,0-2.07.66,4.94,4.94,0,0,0-1.4,2.23,16.83,16.83,0,0,0-.78,4.32q-.21,2.74-.21,6.91a37.06,37.06,0,0,0,.41,6.14,15,15,0,0,0,1,3.71,4,4,0,0,0,1.5,1.83,3.58,3.58,0,0,0,1.81.51,4.67,4.67,0,0,0,2.69-.71,7.21,7.21,0,0,0,1.45-1.22Z"/><path class="cls-1" d="M290.59,174.73q0-9-1.19-12.75t-3.68-3.71a3.83,3.83,0,0,0-2.07.66q-1,.66-1.81,3.3a43.86,43.86,0,0,0-1.24,7.92q-.47,5.28-.47,14.52,0,8.94.31,14.17a52.74,52.74,0,0,0,.93,8q.62,2.74,1.71,3.5a4.49,4.49,0,0,0,2.64.76q3.31,0,4.4-4.62a64.63,64.63,0,0,0,1.29-12.54l11.4.51a92.84,92.84,0,0,1-.52,9.7,28,28,0,0,1-2.38,8.94,17.08,17.08,0,0,1-5.33,6.6q-3.47,2.59-9.38,2.59a15.58,15.58,0,0,1-9.06-2.54,17.65,17.65,0,0,1-5.9-7.36A42.28,42.28,0,0,1,267,200.58a114.32,114.32,0,0,1-1-15.89,86.89,86.89,0,0,1,1.5-17.52,39.5,39.5,0,0,1,4.09-11.63,16.9,16.9,0,0,1,6.06-6.45,14.9,14.9,0,0,1,7.51-2q5.8,0,9.27,2.39a15.39,15.39,0,0,1,5.28,6.25,27.23,27.23,0,0,1,2.33,8.73,93.37,93.37,0,0,1,.52,9.85Z"/><path class="cls-1" d="M314.5,148.52H334l9.12,72.31H330.14l-2-16H317.29l-1.86,16H304.14Zm8.6,11.17h-.21l-4.25,34.53H327Z"/><path class="cls-1" d="M346.2,148.52h13.16l12.33,38.19h.21V148.52h10.77v72.31H372.21l-14.4-43.77h-.21v43.77H346.2Z"/><path class="cls-1" d="M389.08,148.52h13.16l12.33,38.19h.21V148.52h10.77v72.31H415.08l-14.4-43.77h-.21v43.77h-11.4Z"/><path class="cls-1" d="M432.19,148.52h30.46V159.7h-17v18.49h12.53V190H445.65v19.7h17.71v11.17H432.19Z"/><path class="cls-1" d="M477.23,199.92q0,1.52.1,3.45A15.46,15.46,0,0,0,478,207a6.62,6.62,0,0,0,1.71,2.89,4.6,4.6,0,0,0,3.37,1.17,5.49,5.49,0,0,0,2.8-.66,5.64,5.64,0,0,0,1.86-1.73,7.22,7.22,0,0,0,1-2.29,9.44,9.44,0,0,0,.31-2.34,9.72,9.72,0,0,0-1.81-5.79,28.3,28.3,0,0,0-4.51-4.87q-2.7-2.33-5.91-4.77a40.68,40.68,0,0,1-5.9-5.48,28.18,28.18,0,0,1-4.51-7,22.27,22.27,0,0,1-1.81-9.34,25.28,25.28,0,0,1,1.14-7.67,18.46,18.46,0,0,1,3.32-6.25,15.89,15.89,0,0,1,5.44-4.21,19,19,0,0,1,15.28.05,14,14,0,0,1,5.23,4.52,20.47,20.47,0,0,1,3,7,41.81,41.81,0,0,1,1.09,8.94h-12q0-1.52-.1-3.4a16.69,16.69,0,0,0-.57-3.55,6.13,6.13,0,0,0-1.61-2.79,4.25,4.25,0,0,0-3.11-1.12A4.37,4.37,0,0,0,478,160.1a7.85,7.85,0,0,0-1.35,4.77,9.4,9.4,0,0,0,1.81,5.59,29.58,29.58,0,0,0,4.51,4.93q2.69,2.39,5.91,4.93a42.37,42.37,0,0,1,5.9,5.69,30.24,30.24,0,0,1,4.51,7.11,22,22,0,0,1,1.81,9.24,24.64,24.64,0,0,1-1.19,7.77,18.23,18.23,0,0,1-3.52,6.3,16.64,16.64,0,0,1-5.8,4.27,19.27,19.27,0,0,1-8,1.57,16.45,16.45,0,0,1-8.75-2.08,15.41,15.41,0,0,1-5.28-5.33,20.94,20.94,0,0,1-2.59-7.21,45.91,45.91,0,0,1-.67-7.72Z"/><path class="cls-1" d="M520.22,148.52h13.47v61.14h17.2v11.17H520.22Z"/><path class="cls-1" d="M554.37,148.52h13.47v72.31H554.37Z"/><path class="cls-1" d="M572.85,184.68a96,96,0,0,1,1.4-17.88,36.47,36.47,0,0,1,4-11.58,15.86,15.86,0,0,1,6.22-6.25,18.31,18.31,0,0,1,16.16,0,15.88,15.88,0,0,1,6.22,6.25,36.51,36.51,0,0,1,4,11.58,96,96,0,0,1,1.4,17.88,96,96,0,0,1-1.4,17.88,36.48,36.48,0,0,1-4,11.58,15.85,15.85,0,0,1-6.22,6.25,18.31,18.31,0,0,1-16.16,0,15.83,15.83,0,0,1-6.22-6.25,36.43,36.43,0,0,1-4-11.58A96,96,0,0,1,572.85,184.68Zm14.71,7.62q0,5.89.36,9.55a31.93,31.93,0,0,0,1,5.74,5.41,5.41,0,0,0,1.55,2.79,3.37,3.37,0,0,0,4.14,0,5.41,5.41,0,0,0,1.55-2.79,32.08,32.08,0,0,0,1-5.74q.36-3.66.36-9.55V177.06q0-5.89-.36-9.55a30.88,30.88,0,0,0-1-5.69,5.74,5.74,0,0,0-1.55-2.79,3.2,3.2,0,0,0-4.14,0,5.74,5.74,0,0,0-1.55,2.79,30.74,30.74,0,0,0-1,5.69q-.36,3.66-.36,9.55Z"/><path class="cls-1" d="M617,148.52h13.16l12.33,38.19h.21V148.52h10.77v72.31H643l-14.4-43.77h-.21v43.77H617Z"/><path class="cls-1" d="M669.94,199.92q0,1.52.1,3.45a15.46,15.46,0,0,0,.62,3.66,6.62,6.62,0,0,0,1.71,2.89,4.6,4.6,0,0,0,3.37,1.17,5.49,5.49,0,0,0,2.8-.66,5.64,5.64,0,0,0,1.86-1.73,7.22,7.22,0,0,0,1-2.29,9.44,9.44,0,0,0,.31-2.34,9.72,9.72,0,0,0-1.81-5.79,28.3,28.3,0,0,0-4.51-4.87q-2.7-2.33-5.91-4.77a40.68,40.68,0,0,1-5.9-5.48,28.18,28.18,0,0,1-4.51-7,22.27,22.27,0,0,1-1.81-9.34,25.28,25.28,0,0,1,1.14-7.67,18.46,18.46,0,0,1,3.32-6.25,15.89,15.89,0,0,1,5.44-4.21,19,19,0,0,1,15.28.05,14,14,0,0,1,5.23,4.52,20.47,20.47,0,0,1,3,7,41.81,41.81,0,0,1,1.09,8.94h-12q0-1.52-.1-3.4a16.69,16.69,0,0,0-.57-3.55,6.13,6.13,0,0,0-1.61-2.79,4.25,4.25,0,0,0-3.11-1.12,4.37,4.37,0,0,0-3.73,1.83,7.85,7.85,0,0,0-1.35,4.77,9.4,9.4,0,0,0,1.81,5.59,29.58,29.58,0,0,0,4.51,4.93q2.69,2.39,5.91,4.93a42.37,42.37,0,0,1,5.9,5.69,30.24,30.24,0,0,1,4.51,7.11,22,22,0,0,1,1.81,9.24,24.64,24.64,0,0,1-1.19,7.77,18.23,18.23,0,0,1-3.52,6.3,16.64,16.64,0,0,1-5.8,4.27,19.27,19.27,0,0,1-8,1.57,16.45,16.45,0,0,1-8.75-2.08,15.41,15.41,0,0,1-5.28-5.33,20.94,20.94,0,0,1-2.59-7.21,45.91,45.91,0,0,1-.67-7.72Z"/><path class="cls-1" d="M11.6,252.8H0V241.62H36.67V252.8H25.07v61.14H11.6Z"/><path class="cls-1" d="M41.33,241.62H56.46a33.26,33.26,0,0,1,8.7,1.07,16.75,16.75,0,0,1,6.73,3.5,16.16,16.16,0,0,1,4.35,6.35,26.08,26.08,0,0,1,1.55,9.6,34.58,34.58,0,0,1-.36,4.88,23,23,0,0,1-1.29,5,18.75,18.75,0,0,1-2.43,4.47,12.33,12.33,0,0,1-3.78,3.35l8,34.13H64.33L58,282.86H54.8v31.08H41.33ZM54.8,272.3h2.69a5.57,5.57,0,0,0,3.16-.86,7,7,0,0,0,2.12-2.23A9.86,9.86,0,0,0,64,266a19.31,19.31,0,0,0,.36-3.76q0-5.89-2-8a7.23,7.23,0,0,0-5.44-2.08H54.8Z"/><path class="cls-1" d="M80.32,277.78a96,96,0,0,1,1.4-17.88,36.47,36.47,0,0,1,4-11.58,15.86,15.86,0,0,1,6.22-6.25,18.31,18.31,0,0,1,16.16,0,15.88,15.88,0,0,1,6.22,6.25,36.51,36.51,0,0,1,4,11.58,96,96,0,0,1,1.4,17.88,96,96,0,0,1-1.4,17.88,36.48,36.48,0,0,1-4,11.58,15.85,15.85,0,0,1-6.22,6.25,18.31,18.31,0,0,1-16.16,0,15.83,15.83,0,0,1-6.22-6.25,36.43,36.43,0,0,1-4-11.58A96,96,0,0,1,80.32,277.78ZM95,285.4q0,5.89.36,9.55a31.93,31.93,0,0,0,1,5.74,5.41,5.41,0,0,0,1.55,2.79,3.37,3.37,0,0,0,4.14,0,5.41,5.41,0,0,0,1.55-2.79,32.08,32.08,0,0,0,1-5.74q.36-3.66.36-9.55V270.16q0-5.89-.36-9.55a30.88,30.88,0,0,0-1-5.69,5.74,5.74,0,0,0-1.55-2.79,3.2,3.2,0,0,0-4.14,0,5.74,5.74,0,0,0-1.55,2.79,30.74,30.74,0,0,0-1,5.69q-.36,3.66-.36,9.55Z"/><path class="cls-1" d="M124.71,241.62h13.47q11.39,0,17.3,5t5.9,16.66a37.35,37.35,0,0,1-1,8.89,18.32,18.32,0,0,1-3.16,6.86,14.69,14.69,0,0,1-5.54,4.42,19.09,19.09,0,0,1-8.13,1.57h-5.39v28.95H124.71Zm13.57,32.81h1.14A12.9,12.9,0,0,0,143,274a5.59,5.59,0,0,0,2.64-1.68,8.11,8.11,0,0,0,1.66-3.35,21.34,21.34,0,0,0,.57-5.38,19.88,19.88,0,0,0-.73-6.09,7.41,7.41,0,0,0-1.92-3.2,5,5,0,0,0-2.75-1.27,24.89,24.89,0,0,0-3.21-.2h-1Z"/><path class="cls-1" d="M164.12,241.62h13.47v29h8.49v-29h13.47v72.31H186.09V283.27h-8.49v30.67H164.12Z"/><path class="cls-1" d="M206.13,241.62H219.6v72.31H206.13Z"/><path class="cls-1" d="M226.24,241.62h30.46V252.8h-17v18.49h12.53v11.78H239.71v19.7h17.71v11.17H226.24Z"/><path class="cls-1" d="M271.28,293q0,1.52.1,3.45a15.46,15.46,0,0,0,.62,3.66,6.62,6.62,0,0,0,1.71,2.89,4.6,4.6,0,0,0,3.37,1.17,5.49,5.49,0,0,0,2.8-.66,5.64,5.64,0,0,0,1.86-1.73,7.22,7.22,0,0,0,1-2.29,9.44,9.44,0,0,0,.31-2.34,9.72,9.72,0,0,0-1.81-5.79,28.3,28.3,0,0,0-4.51-4.87q-2.7-2.33-5.91-4.77a40.68,40.68,0,0,1-5.9-5.48,28.18,28.18,0,0,1-4.51-7,22.27,22.27,0,0,1-1.81-9.34,25.28,25.28,0,0,1,1.14-7.67A18.46,18.46,0,0,1,263.1,246a15.89,15.89,0,0,1,5.44-4.21,19,19,0,0,1,15.28.05,14,14,0,0,1,5.23,4.52,20.47,20.47,0,0,1,3,7,41.81,41.81,0,0,1,1.09,8.94h-12q0-1.52-.1-3.4a16.69,16.69,0,0,0-.57-3.55,6.13,6.13,0,0,0-1.61-2.79,4.25,4.25,0,0,0-3.11-1.12A4.37,4.37,0,0,0,272,253.2a7.85,7.85,0,0,0-1.35,4.77,9.4,9.4,0,0,0,1.81,5.59,29.58,29.58,0,0,0,4.51,4.93q2.69,2.39,5.91,4.93a42.37,42.37,0,0,1,5.9,5.69,30.24,30.24,0,0,1,4.51,7.11,22,22,0,0,1,1.81,9.24,24.64,24.64,0,0,1-1.19,7.77,18.23,18.23,0,0,1-3.52,6.3,16.64,16.64,0,0,1-5.8,4.27,19.27,19.27,0,0,1-8,1.57,16.45,16.45,0,0,1-8.75-2.08,15.41,15.41,0,0,1-5.28-5.33,20.94,20.94,0,0,1-2.59-7.21,45.91,45.91,0,0,1-.67-7.72Z"/><path class="cls-1" d="M320.49,241.62h30.15V252.8H334v19.3h12.33v11.78H334v30.06H320.49Z"/><path class="cls-1" d="M351.23,277.78a96,96,0,0,1,1.4-17.88,36.47,36.47,0,0,1,4-11.58,15.86,15.86,0,0,1,6.22-6.25,18.31,18.31,0,0,1,16.16,0,15.88,15.88,0,0,1,6.22,6.25,36.51,36.51,0,0,1,4,11.58,96,96,0,0,1,1.4,17.88,96,96,0,0,1-1.4,17.88,36.48,36.48,0,0,1-4,11.58,15.85,15.85,0,0,1-6.22,6.25,18.31,18.31,0,0,1-16.16,0,15.83,15.83,0,0,1-6.22-6.25,36.43,36.43,0,0,1-4-11.58A96,96,0,0,1,351.23,277.78Zm14.71,7.62q0,5.89.36,9.55a31.93,31.93,0,0,0,1,5.74,5.41,5.41,0,0,0,1.55,2.79,3.37,3.37,0,0,0,4.14,0,5.41,5.41,0,0,0,1.55-2.79,32.08,32.08,0,0,0,1-5.74q.36-3.66.36-9.55V270.16q0-5.89-.36-9.55a30.88,30.88,0,0,0-1-5.69,5.74,5.74,0,0,0-1.55-2.79,3.2,3.2,0,0,0-4.14,0,5.74,5.74,0,0,0-1.55,2.79,30.74,30.74,0,0,0-1,5.69q-.36,3.66-.36,9.55Z"/><path class="cls-1" d="M395.62,241.62h15.12a33.26,33.26,0,0,1,8.7,1.07,16.75,16.75,0,0,1,6.73,3.5,16.16,16.16,0,0,1,4.35,6.35,26.08,26.08,0,0,1,1.55,9.6,34.58,34.58,0,0,1-.36,4.88,23,23,0,0,1-1.29,5,18.75,18.75,0,0,1-2.43,4.47,12.33,12.33,0,0,1-3.78,3.35l8,34.13H418.62l-6.32-31.08h-3.21v31.08H395.62Zm13.47,30.67h2.69a5.57,5.57,0,0,0,3.16-.86,7,7,0,0,0,2.12-2.23,9.86,9.86,0,0,0,1.19-3.2,19.31,19.31,0,0,0,.36-3.76q0-5.89-2-8a7.23,7.23,0,0,0-5.44-2.08h-2.07Z"/><path class="cls-1" d="M449.8,241.62H462l4.77,42.45H467l6.42-42.45h12.12l5.91,42.45h.21l5.28-42.45h9.63l-9.63,72.31H484.71l-6.42-45.8h-.21l-6.63,45.8H459.64Z"/><path class="cls-1" d="M509.83,241.62H525a33.26,33.26,0,0,1,8.7,1.07,16.75,16.75,0,0,1,6.73,3.5,16.16,16.16,0,0,1,4.35,6.35,26.08,26.08,0,0,1,1.55,9.6,34.58,34.58,0,0,1-.36,4.88,23,23,0,0,1-1.29,5,18.75,18.75,0,0,1-2.43,4.47,12.33,12.33,0,0,1-3.78,3.35l8,34.13H532.83l-6.32-31.08H523.3v31.08H509.83ZM523.3,272.3H526a5.57,5.57,0,0,0,3.16-.86,7,7,0,0,0,2.12-2.23,9.86,9.86,0,0,0,1.19-3.2,19.31,19.31,0,0,0,.36-3.76q0-5.89-2-8a7.23,7.23,0,0,0-5.44-2.08H523.3Z"/><path class="cls-1" d="M550.41,241.62h13.47v72.31H550.41Z"/><path class="cls-1" d="M579.93,252.8h-11.6V241.62H605V252.8H593.4v61.14H579.93Z"/><path class="cls-1" d="M609.35,241.62h13.47v72.31H609.35Z"/><path class="cls-1" d="M629.22,241.62h13.16l12.33,38.19h.21V241.62h10.77v72.31H655.23l-14.4-43.77h-.21v43.77h-11.4Z"/><path class="cls-1" d="M695.49,267.42q0-1.22.05-3.91a31.51,31.51,0,0,0-.36-5.38,15.63,15.63,0,0,0-1.45-4.72,3.4,3.4,0,0,0-3.21-2,3.69,3.69,0,0,0-2.33.86,7.13,7.13,0,0,0-1.86,3.61,43.52,43.52,0,0,0-1.19,7.92q-.42,5.18-.41,13.91,0,8.94.41,14.17a40.07,40.07,0,0,0,1.24,8,6.53,6.53,0,0,0,2,3.55,4.74,4.74,0,0,0,2.75.81,3.51,3.51,0,0,0,3-1.62,11,11,0,0,0,1.66-3.81,27.36,27.36,0,0,0,.67-4.42q.16-2.23.16-3.55h-5V280.22H708v33.72h-5.7l-1.86-4.77a16.07,16.07,0,0,1-4.35,4.27,10.88,10.88,0,0,1-6.32,1.93,15.58,15.58,0,0,1-9.06-2.54,17.65,17.65,0,0,1-5.9-7.36,42.28,42.28,0,0,1-3.21-11.78,114.32,114.32,0,0,1-1-15.89,86.89,86.89,0,0,1,1.5-17.52,39.5,39.5,0,0,1,4.09-11.63,16.9,16.9,0,0,1,6.06-6.45,14.9,14.9,0,0,1,7.51-2,23.37,23.37,0,0,1,6.42.91,13,13,0,0,1,5.7,3.4,18.13,18.13,0,0,1,4,6.91,34.7,34.7,0,0,1,1.55,11.33v4.67Z"/><path class="cls-1" d="M718.42,304.7h-5V291.5h13.47v12.19l-8,16.25h-5.39Z"/><path class="cls-1" d="M5.39,334.72H17.09q8.49,0,13.42,2.59A17.5,17.5,0,0,1,38,344.63,30.35,30.35,0,0,1,41.18,356q.67,6.65.67,14.88,0,7.82-.62,14.47a34.26,34.26,0,0,1-2.9,11.48,17,17,0,0,1-6.79,7.52Q27,407,19.27,407H5.39Zm13.47,61.14a11.54,11.54,0,0,0,5-.86,5.6,5.6,0,0,0,2.64-3.5,29.08,29.08,0,0,0,1.09-7.57q.21-4.92.21-13.15t-.21-13.1a28.21,28.21,0,0,0-1.09-7.47,5.58,5.58,0,0,0-2.64-3.45,11.57,11.57,0,0,0-5-.86Z"/><path class="cls-1" d="M47.45,334.72H77.9V345.9h-17v18.49H73.45v11.78H60.91v19.7H78.63V407H47.45Z"/><path class="cls-1" d="M92.49,386.12q0,1.52.1,3.45a15.46,15.46,0,0,0,.62,3.66,6.62,6.62,0,0,0,1.71,2.89,4.6,4.6,0,0,0,3.37,1.17,5.49,5.49,0,0,0,2.8-.66A5.64,5.64,0,0,0,103,394.9a7.22,7.22,0,0,0,1-2.29,9.44,9.44,0,0,0,.31-2.34,9.72,9.72,0,0,0-1.81-5.79A28.3,28.3,0,0,0,98,379.62q-2.7-2.33-5.91-4.77a40.68,40.68,0,0,1-5.9-5.48,28.18,28.18,0,0,1-4.51-7A22.27,22.27,0,0,1,79.85,353,25.28,25.28,0,0,1,81,345.34a18.46,18.46,0,0,1,3.32-6.25,15.89,15.89,0,0,1,5.44-4.21,19,19,0,0,1,15.28.05,14,14,0,0,1,5.23,4.52,20.47,20.47,0,0,1,3,7,41.81,41.81,0,0,1,1.09,8.94h-12q0-1.52-.1-3.4a16.69,16.69,0,0,0-.57-3.55,6.13,6.13,0,0,0-1.61-2.79,4.25,4.25,0,0,0-3.11-1.12,4.37,4.37,0,0,0-3.73,1.83,7.85,7.85,0,0,0-1.35,4.77,9.4,9.4,0,0,0,1.81,5.59,29.58,29.58,0,0,0,4.51,4.93q2.69,2.39,5.91,4.93a42.37,42.37,0,0,1,5.9,5.69,30.24,30.24,0,0,1,4.51,7.11,22,22,0,0,1,1.81,9.24,24.64,24.64,0,0,1-1.19,7.77,18.23,18.23,0,0,1-3.52,6.3,16.64,16.64,0,0,1-5.8,4.27,19.27,19.27,0,0,1-8,1.57A16.45,16.45,0,0,1,89,406.38,15.41,15.41,0,0,1,83.73,401a20.94,20.94,0,0,1-2.59-7.21,45.91,45.91,0,0,1-.67-7.72Z"/><path class="cls-1" d="M119.71,334.72h13.47V407H119.71Z"/><path class="cls-1" d="M163.06,360.52q0-1.22.05-3.91a31.51,31.51,0,0,0-.36-5.38,15.63,15.63,0,0,0-1.45-4.72,3.4,3.4,0,0,0-3.21-2,3.69,3.69,0,0,0-2.33.86,7.13,7.13,0,0,0-1.86,3.61,43.52,43.52,0,0,0-1.19,7.92q-.42,5.18-.41,13.91,0,8.94.41,14.17a40.07,40.07,0,0,0,1.24,8,6.53,6.53,0,0,0,2,3.55,4.74,4.74,0,0,0,2.75.81,3.51,3.51,0,0,0,3-1.62,11,11,0,0,0,1.66-3.81,27.36,27.36,0,0,0,.67-4.42q.16-2.23.16-3.55h-5V373.32h16.37V407h-5.7L168,402.26a16.07,16.07,0,0,1-4.35,4.27,10.88,10.88,0,0,1-6.32,1.93,15.58,15.58,0,0,1-9.06-2.54,17.65,17.65,0,0,1-5.9-7.36,42.28,42.28,0,0,1-3.21-11.78,114.32,114.32,0,0,1-1-15.89,86.89,86.89,0,0,1,1.5-17.52,39.5,39.5,0,0,1,4.09-11.63,16.9,16.9,0,0,1,6.06-6.45,14.9,14.9,0,0,1,7.51-2,23.37,23.37,0,0,1,6.42.91,13,13,0,0,1,5.7,3.4,18.13,18.13,0,0,1,4,6.91,34.7,34.7,0,0,1,1.55,11.33v4.67Z"/><path class="cls-1" d="M181.08,334.72h13.16l12.33,38.19h.21V334.72h10.77V407H207.08l-14.4-43.77h-.21V407h-11.4Z"/><path class="cls-1" d="M279.18,407a21.34,21.34,0,0,1-8-1.37,15.74,15.74,0,0,1-6.11-4.52,19.57,19.57,0,0,1-6.16,5.28,16.34,16.34,0,0,1-8,2,14.78,14.78,0,0,1-12.22-5.84,18.53,18.53,0,0,1-3-5.74,20.65,20.65,0,0,1-1-6.2,24.58,24.58,0,0,1,3.06-12,58.12,58.12,0,0,1,8-11.07q-1.24-2.54-2.28-4.82a47.28,47.28,0,0,1-1.81-4.62,37.29,37.29,0,0,1-1.24-4.77,27.55,27.55,0,0,1-.47-5.18q0-6.8,4.2-10.87t11-4.06a13.84,13.84,0,0,1,6.06,1.27,13.48,13.48,0,0,1,4.4,3.3,14.38,14.38,0,0,1,2.69,4.67,16.06,16.06,0,0,1,.93,5.38,21,21,0,0,1-.78,6.09,18.17,18.17,0,0,1-2.18,4.67,32.83,32.83,0,0,1-3.32,4.21q-1.92,2.08-4.09,4.62a39.18,39.18,0,0,0,3.06,6.55q1.81,3.1,3.57,6.35a55,55,0,0,0,1.55-5.79q.62-2.94,1-5.89l8.91,1.93A90.71,90.71,0,0,1,275,381.14a52.67,52.67,0,0,1-3.63,9.85,13.19,13.19,0,0,0,3.11,3.5,10.36,10.36,0,0,0,4.66,2Zm-28.7-29.25a14.36,14.36,0,0,0-2.75,4,11.76,11.76,0,0,0-1,5,15.61,15.61,0,0,0,.41,3.45,11.67,11.67,0,0,0,1.35,3.4,9.12,9.12,0,0,0,2.33,2.64,5.39,5.39,0,0,0,3.37,1.07,4,4,0,0,0,3-1.22,26.93,26.93,0,0,0,2.12-2.44Zm.93-29.56a17.61,17.61,0,0,0,1,5.59q1,2.95,2,5.28a53.7,53.7,0,0,0,3.26-4.62,10.37,10.37,0,0,0,1.5-5.64,8.85,8.85,0,0,0-.88-4.06,3.23,3.23,0,0,0-3.16-1.73,3,3,0,0,0-2.9,1.57A7.62,7.62,0,0,0,251.42,348.23Z"/><path class="cls-1" d="M302,334.72h19.48L330.56,407H317.61l-2-16H304.77l-1.86,16H291.61Zm8.6,11.17h-.21l-4.25,34.53h8.39Z"/><path class="cls-1" d="M333.92,334.72H349a33.26,33.26,0,0,1,8.7,1.07,16.75,16.75,0,0,1,6.73,3.5,16.16,16.16,0,0,1,4.35,6.35,26.08,26.08,0,0,1,1.55,9.6,34.58,34.58,0,0,1-.36,4.88,23,23,0,0,1-1.29,5,18.75,18.75,0,0,1-2.43,4.47,12.33,12.33,0,0,1-3.78,3.35l8,34.13H356.92L350.6,376h-3.21V407H333.92Zm13.47,30.67h2.69a5.57,5.57,0,0,0,3.16-.86,7,7,0,0,0,2.12-2.23,9.86,9.86,0,0,0,1.19-3.2,19.31,19.31,0,0,0,.36-3.76q0-5.89-2-8a7.23,7.23,0,0,0-5.44-2.08h-2.07Z"/><path class="cls-1" d="M382.62,345.9H371V334.72h36.67V345.9h-11.6V407H382.62Z"/><path class="cls-1" d="M422.81,334.72h11.71q8.49,0,13.42,2.59a17.5,17.5,0,0,1,7.46,7.31A30.35,30.35,0,0,1,458.6,356q.67,6.65.67,14.88,0,7.82-.62,14.47a34.26,34.26,0,0,1-2.9,11.48,17,17,0,0,1-6.79,7.52Q444.46,407,436.69,407H422.81Zm13.47,61.14a11.54,11.54,0,0,0,5-.86,5.6,5.6,0,0,0,2.64-3.5,29.08,29.08,0,0,0,1.09-7.57q.21-4.92.21-13.15t-.21-13.1a28.21,28.21,0,0,0-1.09-7.47,5.58,5.58,0,0,0-2.64-3.45,11.57,11.57,0,0,0-5-.86Z"/><path class="cls-1" d="M464.71,334.72h13.47V407H464.71Z"/><path class="cls-1" d="M484.82,334.72h15.12a33.26,33.26,0,0,1,8.7,1.07,16.75,16.75,0,0,1,6.73,3.5,16.16,16.16,0,0,1,4.35,6.35,26.08,26.08,0,0,1,1.55,9.6,34.58,34.58,0,0,1-.36,4.88,23,23,0,0,1-1.29,5,18.75,18.75,0,0,1-2.43,4.47,12.33,12.33,0,0,1-3.78,3.35l8,34.13H507.82L501.5,376h-3.21V407H484.82Zm13.47,30.67H501a5.57,5.57,0,0,0,3.16-.86,7,7,0,0,0,2.12-2.23,9.86,9.86,0,0,0,1.19-3.2,19.31,19.31,0,0,0,.36-3.76q0-5.89-2-8a7.23,7.23,0,0,0-5.44-2.08h-2.07Z"/><path class="cls-1" d="M525.69,334.72h30.46V345.9h-17v18.49h12.53v11.78H539.16v19.7h17.71V407H525.69Z"/><path class="cls-1" d="M582.55,360.93q0-9-1.19-12.75t-3.68-3.71a3.83,3.83,0,0,0-2.07.66q-1,.66-1.81,3.3a43.86,43.86,0,0,0-1.24,7.92q-.47,5.28-.47,14.52,0,8.94.31,14.17a52.74,52.74,0,0,0,.93,8q.62,2.74,1.71,3.5a4.49,4.49,0,0,0,2.64.76q3.31,0,4.4-4.62a64.63,64.63,0,0,0,1.29-12.54l11.4.51a92.84,92.84,0,0,1-.52,9.7,28,28,0,0,1-2.38,8.94,17.08,17.08,0,0,1-5.33,6.6q-3.47,2.59-9.38,2.59a15.58,15.58,0,0,1-9.06-2.54,17.65,17.65,0,0,1-5.9-7.36A42.28,42.28,0,0,1,559,386.78a114.32,114.32,0,0,1-1-15.89,86.89,86.89,0,0,1,1.5-17.52,39.5,39.5,0,0,1,4.09-11.63,16.9,16.9,0,0,1,6.06-6.45,14.9,14.9,0,0,1,7.51-2q5.8,0,9.27,2.39a15.39,15.39,0,0,1,5.28,6.25,27.23,27.23,0,0,1,2.33,8.73,93.37,93.37,0,0,1,.52,9.85Z"/><path class="cls-1" d="M607.64,345.9H596V334.72h36.67V345.9h-11.6V407H607.64Z"/><path class="cls-1" d="M637.06,334.72h13.47V407H637.06Z"/><path class="cls-1" d="M655.54,370.88a96,96,0,0,1,1.4-17.88,36.47,36.47,0,0,1,4-11.58,15.86,15.86,0,0,1,6.22-6.25,18.31,18.31,0,0,1,16.16,0,15.88,15.88,0,0,1,6.22,6.25,36.51,36.51,0,0,1,4,11.58,114.93,114.93,0,0,1,0,35.75,36.48,36.48,0,0,1-4,11.58,15.85,15.85,0,0,1-6.22,6.25,18.31,18.31,0,0,1-16.16,0,15.83,15.83,0,0,1-6.22-6.25,36.43,36.43,0,0,1-4-11.58A96,96,0,0,1,655.54,370.88Zm14.71,7.62q0,5.89.36,9.55a31.93,31.93,0,0,0,1,5.74,5.41,5.41,0,0,0,1.55,2.79,3.37,3.37,0,0,0,4.14,0,5.41,5.41,0,0,0,1.55-2.79,32.08,32.08,0,0,0,1-5.74q.36-3.66.36-9.55V363.26q0-5.89-.36-9.55a30.88,30.88,0,0,0-1-5.69,5.74,5.74,0,0,0-1.55-2.79,3.2,3.2,0,0,0-4.14,0A5.74,5.74,0,0,0,671.6,348a30.74,30.74,0,0,0-1,5.69q-.36,3.66-.36,9.55Z"/><path class="cls-1" d="M699.7,334.72h13.16l12.33,38.19h.21V334.72h10.77V407H725.71l-14.4-43.77h-.21V407H699.7Z"/><path class="cls-1" d="M747.17,397.8h-5V384.6h13.47v12.19l-8,16.25H742.3Z"/><path class="cls-1" d="M11.6,439H0V427.82H36.67V439H25.07v61.14H11.6Z"/><path class="cls-1" d="M41.33,427.82H54.8v29H63.3v-29H76.76v72.31H63.3V469.47H54.8v30.67H41.33Z"/><path class="cls-1" d="M83.58,427.82H114V439H97v18.49h12.53v11.78H97V489h17.71v11.17H83.58Z"/><path class="cls-1" d="M139.62,427.82h17.92l6,37.07h.21l6.32-37.07h17.51v72.31h-12v-53h-.21l-9.12,53h-7.46l-9-53h-.21v53h-9.95Z"/><path class="cls-1" d="M192.46,464a96,96,0,0,1,1.4-17.88,36.47,36.47,0,0,1,4-11.58,15.86,15.86,0,0,1,6.22-6.25,18.31,18.31,0,0,1,16.16,0,15.88,15.88,0,0,1,6.22,6.25,36.51,36.51,0,0,1,4,11.58,114.93,114.93,0,0,1,0,35.75,36.48,36.48,0,0,1-4,11.58,15.85,15.85,0,0,1-6.22,6.25,18.31,18.31,0,0,1-16.16,0,15.83,15.83,0,0,1-6.22-6.25,36.43,36.43,0,0,1-4-11.58A96,96,0,0,1,192.46,464Zm14.71,7.62q0,5.89.36,9.55a31.93,31.93,0,0,0,1,5.74,5.41,5.41,0,0,0,1.55,2.79,3.37,3.37,0,0,0,4.14,0,5.41,5.41,0,0,0,1.55-2.79,32.08,32.08,0,0,0,1-5.74q.36-3.66.36-9.55V456.36q0-5.89-.36-9.55a30.88,30.88,0,0,0-1-5.69,5.74,5.74,0,0,0-1.55-2.79,3.2,3.2,0,0,0-4.14,0,5.74,5.74,0,0,0-1.55,2.79,30.74,30.74,0,0,0-1,5.69q-.36,3.66-.36,9.55Z"/><path class="cls-1" d="M246.68,479.22q0,1.52.1,3.45a15.46,15.46,0,0,0,.62,3.66,6.62,6.62,0,0,0,1.71,2.89,4.6,4.6,0,0,0,3.37,1.17,5.49,5.49,0,0,0,2.8-.66,5.64,5.64,0,0,0,1.86-1.73,7.22,7.22,0,0,0,1-2.29,9.44,9.44,0,0,0,.31-2.34,9.72,9.72,0,0,0-1.81-5.79,28.3,28.3,0,0,0-4.51-4.87q-2.7-2.33-5.91-4.77a40.68,40.68,0,0,1-5.9-5.48,28.18,28.18,0,0,1-4.51-7,22.27,22.27,0,0,1-1.81-9.34,25.28,25.28,0,0,1,1.14-7.67,18.46,18.46,0,0,1,3.32-6.25,15.89,15.89,0,0,1,5.44-4.21,19,19,0,0,1,15.28.05,14,14,0,0,1,5.23,4.52,20.47,20.47,0,0,1,3,7,41.81,41.81,0,0,1,1.09,8.94h-12q0-1.52-.1-3.4a16.69,16.69,0,0,0-.57-3.55,6.13,6.13,0,0,0-1.61-2.79,4.25,4.25,0,0,0-3.11-1.12,4.37,4.37,0,0,0-3.73,1.83,7.85,7.85,0,0,0-1.35,4.77,9.4,9.4,0,0,0,1.81,5.59,29.58,29.58,0,0,0,4.51,4.93q2.69,2.39,5.91,4.93a42.37,42.37,0,0,1,5.9,5.69,30.24,30.24,0,0,1,4.51,7.11,22,22,0,0,1,1.81,9.24,24.64,24.64,0,0,1-1.19,7.77,18.23,18.23,0,0,1-3.52,6.3A16.64,16.64,0,0,1,260,500a19.27,19.27,0,0,1-8,1.57,16.45,16.45,0,0,1-8.75-2.08,15.41,15.41,0,0,1-5.28-5.33,20.94,20.94,0,0,1-2.59-7.21,45.91,45.91,0,0,1-.67-7.72Z"/><path class="cls-1" d="M281.6,439H270V427.82h36.67V439h-11.6v61.14H281.6Z"/><path class="cls-1" d="M333.08,479.22q0,1.52.1,3.45a15.46,15.46,0,0,0,.62,3.66,6.62,6.62,0,0,0,1.71,2.89,4.6,4.6,0,0,0,3.37,1.17,5.49,5.49,0,0,0,2.8-.66,5.64,5.64,0,0,0,1.86-1.73,7.22,7.22,0,0,0,1-2.29,9.44,9.44,0,0,0,.31-2.34,9.72,9.72,0,0,0-1.81-5.79,28.3,28.3,0,0,0-4.51-4.87q-2.7-2.33-5.91-4.77a40.68,40.68,0,0,1-5.9-5.48,28.18,28.18,0,0,1-4.51-7,22.27,22.27,0,0,1-1.81-9.34,25.28,25.28,0,0,1,1.14-7.67,18.46,18.46,0,0,1,3.32-6.25,15.89,15.89,0,0,1,5.44-4.21,19,19,0,0,1,15.28.05,14,14,0,0,1,5.23,4.52,20.47,20.47,0,0,1,3,7,41.81,41.81,0,0,1,1.09,8.94h-12q0-1.52-.1-3.4a16.69,16.69,0,0,0-.57-3.55,6.13,6.13,0,0,0-1.61-2.79,4.25,4.25,0,0,0-3.11-1.12,4.37,4.37,0,0,0-3.73,1.83,7.85,7.85,0,0,0-1.35,4.77,9.4,9.4,0,0,0,1.81,5.59,29.58,29.58,0,0,0,4.51,4.93q2.69,2.39,5.91,4.93a42.37,42.37,0,0,1,5.9,5.69,30.24,30.24,0,0,1,4.51,7.11,22,22,0,0,1,1.81,9.24,24.64,24.64,0,0,1-1.19,7.77,18.23,18.23,0,0,1-3.52,6.3,16.64,16.64,0,0,1-5.8,4.27,19.27,19.27,0,0,1-8,1.57,16.45,16.45,0,0,1-8.75-2.08,15.41,15.41,0,0,1-5.28-5.33,20.94,20.94,0,0,1-2.59-7.21,45.91,45.91,0,0,1-.67-7.72Z"/><path class="cls-1" d="M360.17,427.82h13.47v56a18,18,0,0,0,.16,2.39,6.16,6.16,0,0,0,.67,2.13,3.86,3.86,0,0,0,1.45,1.52,4.57,4.57,0,0,0,2.38.56,4,4,0,0,0,3.88-2,9.45,9.45,0,0,0,1.09-4.62v-56h11.4v54.24q0,10.66-4.56,15.08t-12.64,4.42a22.11,22.11,0,0,1-7.1-1.07,13.78,13.78,0,0,1-5.44-3.35,15.12,15.12,0,0,1-3.52-6,28.83,28.83,0,0,1-1.24-9.09Z"/><path class="cls-1" d="M424,454q0-9-1.19-12.75t-3.68-3.71a3.83,3.83,0,0,0-2.07.66q-1,.66-1.81,3.3a43.86,43.86,0,0,0-1.24,7.92q-.47,5.28-.47,14.52,0,8.94.31,14.17a52.74,52.74,0,0,0,.93,8q.62,2.74,1.71,3.5a4.49,4.49,0,0,0,2.64.76q3.31,0,4.4-4.62a64.63,64.63,0,0,0,1.29-12.54l11.4.51a92.84,92.84,0,0,1-.52,9.7,28,28,0,0,1-2.38,8.94,17.08,17.08,0,0,1-5.33,6.6q-3.47,2.59-9.38,2.59A15.58,15.58,0,0,1,409.5,499a17.65,17.65,0,0,1-5.9-7.36,42.28,42.28,0,0,1-3.21-11.78,114.32,114.32,0,0,1-1-15.89,86.89,86.89,0,0,1,1.5-17.52A39.5,39.5,0,0,1,405,434.83a16.9,16.9,0,0,1,6.06-6.45,14.9,14.9,0,0,1,7.51-2q5.8,0,9.27,2.39a15.39,15.39,0,0,1,5.28,6.25,27.23,27.23,0,0,1,2.33,8.73,93.37,93.37,0,0,1,.52,9.85Z"/><path class="cls-1" d="M464.16,454q0-9-1.19-12.75t-3.68-3.71a3.83,3.83,0,0,0-2.07.66q-1,.66-1.81,3.3a43.86,43.86,0,0,0-1.24,7.92q-.47,5.28-.47,14.52,0,8.94.31,14.17a52.74,52.74,0,0,0,.93,8q.62,2.74,1.71,3.5a4.49,4.49,0,0,0,2.64.76q3.31,0,4.4-4.62A64.63,64.63,0,0,0,465,473.22l11.4.51a92.84,92.84,0,0,1-.52,9.7,28,28,0,0,1-2.38,8.94,17.08,17.08,0,0,1-5.33,6.6q-3.47,2.59-9.38,2.59a15.58,15.58,0,0,1-9.06-2.54,17.65,17.65,0,0,1-5.9-7.36,42.28,42.28,0,0,1-3.21-11.78,114.32,114.32,0,0,1-1-15.89,86.89,86.89,0,0,1,1.5-17.52,39.5,39.5,0,0,1,4.09-11.63,16.9,16.9,0,0,1,6.06-6.45,14.9,14.9,0,0,1,7.51-2q5.8,0,9.27,2.39a15.39,15.39,0,0,1,5.28,6.25,27.23,27.23,0,0,1,2.33,8.73,93.37,93.37,0,0,1,.52,9.85Z"/><path class="cls-1" d="M481.53,427.82H512V439H495v18.49h12.53v11.78H495V489h17.71v11.17H481.53Z"/><path class="cls-1" d="M526.57,479.22q0,1.52.1,3.45a15.46,15.46,0,0,0,.62,3.66,6.62,6.62,0,0,0,1.71,2.89,4.6,4.6,0,0,0,3.37,1.17,5.49,5.49,0,0,0,2.8-.66A5.64,5.64,0,0,0,537,488a7.22,7.22,0,0,0,1-2.29,9.44,9.44,0,0,0,.31-2.34,9.72,9.72,0,0,0-1.81-5.79,28.3,28.3,0,0,0-4.51-4.87q-2.7-2.33-5.91-4.77a40.68,40.68,0,0,1-5.9-5.48,28.18,28.18,0,0,1-4.51-7,22.27,22.27,0,0,1-1.81-9.34,25.28,25.28,0,0,1,1.14-7.67,18.46,18.46,0,0,1,3.32-6.25,15.89,15.89,0,0,1,5.44-4.21,19,19,0,0,1,15.28.05,14,14,0,0,1,5.23,4.52,20.47,20.47,0,0,1,3,7,41.81,41.81,0,0,1,1.09,8.94h-12q0-1.52-.1-3.4a16.69,16.69,0,0,0-.57-3.55,6.13,6.13,0,0,0-1.61-2.79,4.25,4.25,0,0,0-3.11-1.12,4.37,4.37,0,0,0-3.73,1.83,7.85,7.85,0,0,0-1.35,4.77,9.4,9.4,0,0,0,1.81,5.59,29.58,29.58,0,0,0,4.51,4.93q2.69,2.39,5.91,4.93a42.37,42.37,0,0,1,5.9,5.69,30.24,30.24,0,0,1,4.51,7.11,22,22,0,0,1,1.81,9.24,24.64,24.64,0,0,1-1.19,7.77,18.23,18.23,0,0,1-3.52,6.3,16.64,16.64,0,0,1-5.8,4.27,19.27,19.27,0,0,1-8,1.57,16.45,16.45,0,0,1-8.75-2.08,15.41,15.41,0,0,1-5.28-5.33,20.94,20.94,0,0,1-2.59-7.21,45.91,45.91,0,0,1-.67-7.72Z"/><path class="cls-1" d="M564.65,479.22q0,1.52.1,3.45a15.46,15.46,0,0,0,.62,3.66,6.62,6.62,0,0,0,1.71,2.89,4.6,4.6,0,0,0,3.37,1.17,5.49,5.49,0,0,0,2.8-.66,5.64,5.64,0,0,0,1.86-1.73,7.22,7.22,0,0,0,1-2.29,9.44,9.44,0,0,0,.31-2.34,9.72,9.72,0,0,0-1.81-5.79,28.3,28.3,0,0,0-4.51-4.87q-2.7-2.33-5.91-4.77a40.68,40.68,0,0,1-5.9-5.48,28.18,28.18,0,0,1-4.51-7,22.27,22.27,0,0,1-1.81-9.34,25.28,25.28,0,0,1,1.14-7.67,18.46,18.46,0,0,1,3.32-6.25,15.89,15.89,0,0,1,5.44-4.21,19,19,0,0,1,15.28.05,14,14,0,0,1,5.23,4.52,20.47,20.47,0,0,1,3,7,41.81,41.81,0,0,1,1.09,8.94h-12q0-1.52-.1-3.4a16.69,16.69,0,0,0-.57-3.55,6.13,6.13,0,0,0-1.61-2.79,4.25,4.25,0,0,0-3.11-1.12,4.37,4.37,0,0,0-3.73,1.83,7.85,7.85,0,0,0-1.35,4.77,9.4,9.4,0,0,0,1.81,5.59,29.58,29.58,0,0,0,4.51,4.93q2.69,2.39,5.91,4.93a42.37,42.37,0,0,1,5.9,5.69,30.24,30.24,0,0,1,4.51,7.11,22,22,0,0,1,1.81,9.24,24.64,24.64,0,0,1-1.19,7.77,18.23,18.23,0,0,1-3.52,6.3A16.64,16.64,0,0,1,578,500a19.27,19.27,0,0,1-8,1.57,16.45,16.45,0,0,1-8.75-2.08,15.41,15.41,0,0,1-5.28-5.33,20.94,20.94,0,0,1-2.59-7.21,45.91,45.91,0,0,1-.67-7.72Z"/><path class="cls-1" d="M592.17,427.82h30.15V439H605.64v19.3H618v11.78H605.64v30.06H592.17Z"/><path class="cls-1" d="M627.18,427.82h13.47v56a18,18,0,0,0,.16,2.39,6.16,6.16,0,0,0,.67,2.13,3.86,3.86,0,0,0,1.45,1.52,4.57,4.57,0,0,0,2.38.56,4,4,0,0,0,3.88-2,9.45,9.45,0,0,0,1.09-4.62v-56h11.4v54.24q0,10.66-4.56,15.08t-12.64,4.42a22.11,22.11,0,0,1-7.1-1.07,13.78,13.78,0,0,1-5.44-3.35,15.12,15.12,0,0,1-3.52-6,28.83,28.83,0,0,1-1.24-9.09Z"/><path class="cls-1" d="M668.25,427.82h13.47V489h17.2v11.17H668.25Z"/><path class="cls-1" d="M28,547.13q0-9-1.19-12.75t-3.68-3.71a3.83,3.83,0,0,0-2.07.66q-1,.66-1.81,3.3A43.86,43.86,0,0,0,18,542.56q-.47,5.28-.47,14.52,0,8.94.31,14.17a52.74,52.74,0,0,0,.93,8q.62,2.74,1.71,3.5a4.49,4.49,0,0,0,2.64.76q3.31,0,4.4-4.62a64.63,64.63,0,0,0,1.29-12.54l11.4.51a92.84,92.84,0,0,1-.52,9.7,28,28,0,0,1-2.38,8.94,17.08,17.08,0,0,1-5.33,6.6q-3.47,2.59-9.38,2.59a15.58,15.58,0,0,1-9.06-2.54,17.65,17.65,0,0,1-5.9-7.36A42.28,42.28,0,0,1,4.4,573a114.32,114.32,0,0,1-1-15.89,86.89,86.89,0,0,1,1.5-17.52A39.5,39.5,0,0,1,9,527.93a16.9,16.9,0,0,1,6.06-6.45,14.9,14.9,0,0,1,7.51-2q5.8,0,9.27,2.39a15.39,15.39,0,0,1,5.28,6.25,27.23,27.23,0,0,1,2.33,8.73,93.37,93.37,0,0,1,.52,9.85Z"/><path class="cls-1" d="M45.34,520.92H60.47a33.26,33.26,0,0,1,8.7,1.07,16.75,16.75,0,0,1,6.73,3.5,16.16,16.16,0,0,1,4.35,6.35,26.08,26.08,0,0,1,1.55,9.6,34.58,34.58,0,0,1-.36,4.88,23,23,0,0,1-1.29,5,18.75,18.75,0,0,1-2.43,4.47,12.33,12.33,0,0,1-3.78,3.35l8,34.13H68.34L62,562.16H58.81v31.08H45.34ZM58.81,551.6H61.5a5.57,5.57,0,0,0,3.16-.86,7,7,0,0,0,2.12-2.23A9.86,9.86,0,0,0,68,545.3a19.31,19.31,0,0,0,.36-3.76q0-5.89-2-8a7.23,7.23,0,0,0-5.44-2.08H58.81Z"/><path class="cls-1" d="M86.21,520.92h30.46V532.1h-17v18.49h12.53v11.78H99.68v19.7h17.71v11.17H86.21Z"/><path class="cls-1" d="M131.69,520.92h19.48l9.12,72.31H147.33l-2-16H134.49l-1.86,16H121.33Zm8.6,11.17h-.21l-4.25,34.53h8.39Z"/><path class="cls-1" d="M168.65,532.1H157V520.92h36.67V532.1h-11.6v61.14H168.65Z"/><path class="cls-1" d="M198.07,520.92h13.47v72.31H198.07Z"/><path class="cls-1" d="M214.56,520.92h13.16L234,571.71h.21l6.94-50.78h10.88L241,593.24H225.54Z"/><path class="cls-1" d="M255.33,520.92h30.46V532.1h-17v18.49h12.53v11.78H268.79v19.7h17.71v11.17H255.33Z"/><path class="cls-1" d="M311.37,520.92h13.47v72.31H311.37Z"/><path class="cls-1" d="M331.24,520.92h13.16l12.33,38.19h.21V520.92H367.7v72.31H357.24l-14.4-43.77h-.21v43.77h-11.4Z"/><path class="cls-1" d="M398.05,532.1h-11.6V520.92h36.67V532.1h-11.6v61.14H398.05Z"/><path class="cls-1" d="M427.78,520.92h13.47v29h8.49v-29h13.47v72.31H449.75V562.57h-8.49v30.67H427.78Z"/><path class="cls-1" d="M470,520.92h30.46V532.1h-17v18.49H496v11.78H483.5v19.7h17.71v11.17H470Z"/><path class="cls-1" d="M522.45,520.92h15.12a33.26,33.26,0,0,1,8.7,1.07,16.75,16.75,0,0,1,6.73,3.5,16.16,16.16,0,0,1,4.35,6.35,26.08,26.08,0,0,1,1.55,9.6,34.58,34.58,0,0,1-.36,4.88,23,23,0,0,1-1.29,5,18.75,18.75,0,0,1-2.43,4.47,12.33,12.33,0,0,1-3.78,3.35l8,34.13H545.44l-6.32-31.08h-3.21v31.08H522.45Zm13.47,30.67h2.69a5.57,5.57,0,0,0,3.16-.86,7,7,0,0,0,2.12-2.23,9.86,9.86,0,0,0,1.19-3.2,19.31,19.31,0,0,0,.36-3.76q0-5.89-2-8a7.23,7.23,0,0,0-5.44-2.08h-2.07Z"/><path class="cls-1" d="M563.31,520.92h30.46V532.1h-17v18.49h12.53v11.78H576.78v19.7H594.5v11.17H563.31Z"/><path class="cls-1" d="M620.49,546.72q0-1.22.05-3.91a31.51,31.51,0,0,0-.36-5.38,15.63,15.63,0,0,0-1.45-4.72,3.4,3.4,0,0,0-3.21-2,3.69,3.69,0,0,0-2.33.86,7.13,7.13,0,0,0-1.86,3.61,43.52,43.52,0,0,0-1.19,7.92q-.42,5.18-.41,13.91,0,8.94.41,14.17a40.07,40.07,0,0,0,1.24,8,6.53,6.53,0,0,0,2,3.55,4.74,4.74,0,0,0,2.75.81,3.51,3.51,0,0,0,3-1.62,11,11,0,0,0,1.66-3.81,27.36,27.36,0,0,0,.67-4.42q.16-2.23.16-3.55h-5V559.52H633v33.72h-5.7l-1.86-4.77a16.07,16.07,0,0,1-4.35,4.27,10.88,10.88,0,0,1-6.32,1.93,15.58,15.58,0,0,1-9.06-2.54,17.65,17.65,0,0,1-5.9-7.36A42.28,42.28,0,0,1,596.61,573a114.32,114.32,0,0,1-1-15.89,86.89,86.89,0,0,1,1.5-17.52,39.5,39.5,0,0,1,4.09-11.63,16.9,16.9,0,0,1,6.06-6.45,14.9,14.9,0,0,1,7.51-2,23.37,23.37,0,0,1,6.42.91,13,13,0,0,1,5.7,3.4,18.13,18.13,0,0,1,4,6.91,34.7,34.7,0,0,1,1.55,11.33v4.67Z"/><path class="cls-1" d="M638.52,520.92H652v72.31H638.52Z"/><path class="cls-1" d="M657,557.08a96,96,0,0,1,1.4-17.88,36.47,36.47,0,0,1,4-11.58,15.86,15.86,0,0,1,6.22-6.25,18.31,18.31,0,0,1,16.16,0,15.88,15.88,0,0,1,6.22,6.25,36.51,36.51,0,0,1,4,11.58A114.93,114.93,0,0,1,695,575a36.48,36.48,0,0,1-4,11.58,15.85,15.85,0,0,1-6.22,6.25,18.31,18.31,0,0,1-16.16,0,15.83,15.83,0,0,1-6.22-6.25,36.43,36.43,0,0,1-4-11.58A96,96,0,0,1,657,557.08Zm14.71,7.62q0,5.89.36,9.55a31.93,31.93,0,0,0,1,5.74,5.41,5.41,0,0,0,1.55,2.79,3.37,3.37,0,0,0,4.14,0,5.41,5.41,0,0,0,1.55-2.79,32.08,32.08,0,0,0,1-5.74q.36-3.66.36-9.55V549.46q0-5.89-.36-9.55a30.88,30.88,0,0,0-1-5.69,5.74,5.74,0,0,0-1.55-2.79,3.2,3.2,0,0,0-4.14,0,5.74,5.74,0,0,0-1.55,2.79,30.74,30.74,0,0,0-1,5.69q-.36,3.66-.36,9.55Z"/><path class="cls-1" d="M701.17,520.92h13.16l12.33,38.19h.21V520.92h10.77v72.31H727.17l-14.4-43.77h-.21v43.77h-11.4Z"/><path class="cls-1" d="M743.76,580h13.47v13.2H743.76Z"/><path class="cls-1" d="M1.24,678.92l17-53.73H2.69V614H33.46v6.7L16,675.17h17v11.17H1.24Z"/><path class="cls-1" d="M47.13,614H66.61l9.12,72.31H62.78l-2-16H49.93l-1.86,16H36.77Zm8.6,11.17h-.21l-4.25,34.53h8.39Z"/><path class="cls-1" d="M101.61,639.82q0-1.22.05-3.91a31.51,31.51,0,0,0-.36-5.38,15.63,15.63,0,0,0-1.45-4.72,3.4,3.4,0,0,0-3.21-2,3.69,3.69,0,0,0-2.33.86,7.13,7.13,0,0,0-1.86,3.61,43.52,43.52,0,0,0-1.19,7.92q-.42,5.18-.41,13.91,0,8.94.41,14.17a40.07,40.07,0,0,0,1.24,8,6.53,6.53,0,0,0,2,3.55,4.74,4.74,0,0,0,2.75.81,3.51,3.51,0,0,0,3-1.62,11,11,0,0,0,1.66-3.81,27.36,27.36,0,0,0,.67-4.42q.16-2.23.16-3.55h-5V652.62h16.37v33.72h-5.7l-1.86-4.77a16.07,16.07,0,0,1-4.35,4.27,10.88,10.88,0,0,1-6.32,1.93,15.58,15.58,0,0,1-9.06-2.54,17.65,17.65,0,0,1-5.9-7.36,42.28,42.28,0,0,1-3.21-11.78,114.32,114.32,0,0,1-1-15.89,86.89,86.89,0,0,1,1.5-17.52A39.5,39.5,0,0,1,82.34,621a16.9,16.9,0,0,1,6.06-6.45,14.9,14.9,0,0,1,7.51-2,23.37,23.37,0,0,1,6.42.91,13,13,0,0,1,5.7,3.4,18.13,18.13,0,0,1,4,6.91,34.7,34.7,0,0,1,1.55,11.33v4.67Z"/><path class="cls-1" d="M159.73,639.82q0-1.22.05-3.91a31.51,31.51,0,0,0-.36-5.38,15.63,15.63,0,0,0-1.45-4.72,3.4,3.4,0,0,0-3.21-2,3.69,3.69,0,0,0-2.33.86,7.13,7.13,0,0,0-1.86,3.61,43.52,43.52,0,0,0-1.19,7.92q-.42,5.18-.41,13.91,0,8.94.41,14.17a40.07,40.07,0,0,0,1.24,8,6.53,6.53,0,0,0,2,3.55,4.74,4.74,0,0,0,2.75.81,3.51,3.51,0,0,0,3-1.62,11,11,0,0,0,1.66-3.81,27.36,27.36,0,0,0,.67-4.42q.16-2.23.16-3.55h-5V652.62h16.37v33.72h-5.7l-1.86-4.77a16.07,16.07,0,0,1-4.35,4.27,10.88,10.88,0,0,1-6.32,1.93,15.58,15.58,0,0,1-9.06-2.54,17.65,17.65,0,0,1-5.9-7.36,42.28,42.28,0,0,1-3.21-11.78,114.32,114.32,0,0,1-1-15.89,86.89,86.89,0,0,1,1.5-17.52A39.5,39.5,0,0,1,140.46,621a16.9,16.9,0,0,1,6.06-6.45,14.9,14.9,0,0,1,7.51-2,23.37,23.37,0,0,1,6.42.91,13,13,0,0,1,5.7,3.4,18.13,18.13,0,0,1,4,6.91,34.7,34.7,0,0,1,1.55,11.33v4.67Z"/><path class="cls-1" d="M178,614h15.12a33.26,33.26,0,0,1,8.7,1.07,16.75,16.75,0,0,1,6.73,3.5,16.16,16.16,0,0,1,4.35,6.35,26.08,26.08,0,0,1,1.55,9.6,34.58,34.58,0,0,1-.36,4.88,23,23,0,0,1-1.29,5,18.75,18.75,0,0,1-2.43,4.47,12.33,12.33,0,0,1-3.78,3.35l8,34.13H201l-6.32-31.08h-3.21v31.08H178Zm13.47,30.67h2.69a5.57,5.57,0,0,0,3.16-.86,7,7,0,0,0,2.12-2.23,9.86,9.86,0,0,0,1.19-3.2,19.31,19.31,0,0,0,.36-3.76q0-5.89-2-8a7.23,7.23,0,0,0-5.44-2.08h-2.07Z"/><path class="cls-1" d="M218.86,614h30.46V625.2h-17v18.49h12.53v11.78H232.33v19.7H250v11.17H218.86Z"/><path class="cls-1" d="M253.46,614h12.22l4.77,42.45h.21L277.08,614H289.2l5.91,42.45h.21L300.59,614h9.63l-9.63,72.31H288.37l-6.42-45.8h-.21l-6.63,45.8H263.3Z"/><path class="cls-1" d="M328.36,614h13.47v56a18,18,0,0,0,.16,2.39,6.16,6.16,0,0,0,.67,2.13A3.86,3.86,0,0,0,344.1,676a4.57,4.57,0,0,0,2.38.56,4,4,0,0,0,3.88-2,9.45,9.45,0,0,0,1.09-4.62V614h11.4v54.24q0,10.66-4.56,15.08t-12.64,4.42a22.11,22.11,0,0,1-7.1-1.07,13.78,13.78,0,0,1-5.44-3.35,15.12,15.12,0,0,1-3.52-6,28.83,28.83,0,0,1-1.24-9.09Z"/><path class="cls-1" d="M369.42,614h13.47q11.39,0,17.3,5t5.9,16.66a37.35,37.35,0,0,1-1,8.89,18.32,18.32,0,0,1-3.16,6.86,14.69,14.69,0,0,1-5.54,4.42,19.09,19.09,0,0,1-8.13,1.57h-5.39v28.95H369.42ZM383,646.83h1.14a12.9,12.9,0,0,0,3.63-.46,5.59,5.59,0,0,0,2.64-1.68,8.11,8.11,0,0,0,1.66-3.35,21.34,21.34,0,0,0,.57-5.38,19.88,19.88,0,0,0-.73-6.09,7.41,7.41,0,0,0-1.92-3.2,5,5,0,0,0-2.75-1.27,24.89,24.89,0,0,0-3.21-.2h-1Z"/><path class="cls-1" d="M423.08,614h13.47v72.31H423.08Z"/><path class="cls-1" d="M442.95,614h13.16l12.33,38.19h.21V614h10.77v72.31H469l-14.4-43.77h-.21v43.77h-11.4Z"/><path class="cls-1" d="M503.55,614h11.71q8.49,0,13.42,2.59a17.5,17.5,0,0,1,7.46,7.31,30.35,30.35,0,0,1,3.21,11.38q.67,6.65.67,14.88,0,7.82-.62,14.47a34.26,34.26,0,0,1-2.9,11.48,17,17,0,0,1-6.79,7.52q-4.51,2.69-12.28,2.69H503.55ZM517,675.17a11.54,11.54,0,0,0,5-.86,5.6,5.6,0,0,0,2.64-3.5,29.08,29.08,0,0,0,1.09-7.57q.21-4.92.21-13.15t-.21-13.1a28.21,28.21,0,0,0-1.09-7.47,5.58,5.58,0,0,0-2.64-3.45,11.57,11.57,0,0,0-5-.86Z"/><path class="cls-1" d="M545.23,614h13.47v56a18,18,0,0,0,.16,2.39,6.16,6.16,0,0,0,.67,2.13A3.86,3.86,0,0,0,561,676a4.57,4.57,0,0,0,2.38.56,4,4,0,0,0,3.88-2,9.45,9.45,0,0,0,1.09-4.62V614h11.4v54.24q0,10.66-4.56,15.08t-12.64,4.42a22.11,22.11,0,0,1-7.1-1.07,13.78,13.78,0,0,1-5.44-3.35,15.12,15.12,0,0,1-3.52-6,28.83,28.83,0,0,1-1.24-9.09Z"/><path class="cls-1" d="M586.29,614h16.57a23,23,0,0,1,6.32.91,16,16,0,0,1,10.2,8.68,19.72,19.72,0,0,1,1.71,8.68,18.48,18.48,0,0,1-2.9,10.46q-2.9,4.37-9.12,5.69v.2q6.94,1.63,10.2,6.14a19,19,0,0,1,3.26,11.43,22.09,22.09,0,0,1-1.61,8.73,18.9,18.9,0,0,1-4.25,6.3,17.38,17.38,0,0,1-6.06,3.81,20.34,20.34,0,0,1-7.15,1.27h-17.2Zm13.47,29.66q5.07,0,6.79-2.34t1.71-7.21a27.89,27.89,0,0,0-.36-5,5.64,5.64,0,0,0-1.35-2.95,4.78,4.78,0,0,0-2.64-1.32,23.5,23.5,0,0,0-4.14-.3Zm0,32.09a16,16,0,0,0,4.87-.61,5.73,5.73,0,0,0,2.85-1.88,7,7,0,0,0,1.29-3.3,32.78,32.78,0,0,0,.31-4.87,23.84,23.84,0,0,0-.36-4.37,7.41,7.41,0,0,0-1.4-3.25,6.24,6.24,0,0,0-2.85-2,14.05,14.05,0,0,0-4.71-.66Z"/><path class="cls-1" d="M633.75,614h19.48l9.12,72.31H649.39l-2-16H636.54l-1.86,16H623.39Zm8.6,11.17h-.21l-4.25,34.53h8.39Z"/><path class="cls-1" d="M665.46,614h13.47v72.31H665.46Z"/><path class="cls-1" d="M685,673.13h13.47v13.2H685Z"/><path class="cls-1" d="M7.81,33.21c0,2.55,0,7,3.58,7,2.74,0,3.7-2.55,3.7-4.41C15.09,27.72,0,25.86,0,12.39,0,5.56,3.72,0,10.75,0,18.22,0,21.1,5.68,21.29,13.86H13.88c0-2.55,0-6.83-3.32-6.83-2,0-3.13,1.66-3.13,4.15,0,7.73,15.07,10.35,15.07,23.57,0,7-4,12.52-11.43,12.52-8.88,0-10.66-7.79-10.66-14Z"/><path class="cls-1" d="M26.17.89h8.3V19.16h5.24V.89H48V46.36h-8.3V27.08H34.47V46.36h-8.3Z"/><path class="cls-1" d="M58,.89H70l5.62,45.47h-8L66.4,36.27H59.69L58.54,46.36h-7Zm5.3,7h-.13L60.52,29.63h5.17Z"/><path class="cls-1" d="M79.16.89h8.3V19.16H92.7V.89H101V46.36H92.7V27.08H87.46V46.36h-8.3Z"/><path class="cls-1" d="M106.49.89h8.3V46.36h-8.3Z"/><path class="cls-1" d="M120.25.89h9.32c7.92,0,13.16,3.32,13.16,12.9,0,3.83-1.15,8.94-4.86,11.11l4.92,21.46h-8.36l-3.9-19.54h-2V46.36h-8.3Zm8.3,19.28h1.66c3.06,0,4.22-3.06,4.22-6.32,0-4.92-1.79-6.32-4.6-6.32h-1.28Z"/><path class="cls-1" d="M157.33,41.7,167.81,7.92h-9.58v-7h19V5.11L166.4,39.34h10.48v7H157.33Z"/><path class="cls-1" d="M185.72.89h12l5.62,45.47h-8l-1.21-10.09h-6.71L186.3,46.36h-7Zm5.3,7h-.13l-2.62,21.71h5.17Z"/><path class="cls-1" d="M220.65,17.12c0-2.11.51-10.09-3.07-10.09-2,0-3.57,1.92-3.57,16.54,0,14.94,1.41,16.67,4,16.67,3.13,0,3.38-6.26,3.38-8.43h-3.07V25.16h10.09v21.2h-3.51l-1.15-3a8.37,8.37,0,0,1-6.58,3.89c-8.88,0-11.82-8.68-11.82-23.63C205.32,6.26,210.56,0,217.13,0c5.36,0,10.92,2.55,10.92,14.18v2.94Z"/><path class="cls-1" d="M257.16,0h5.75L248.6,47.26H243Z"/><path class="cls-1" d="M292.65,17.37c0-7.53-1-10.34-3-10.34-1.73,0-3.45,1.15-3.45,16.6,0,14.94.89,16.6,3.45,16.6,2.74,0,3.38-4.22,3.51-10.79l7,.32c0,7.92-1.15,17.5-10.86,17.5-8.88,0-11.82-8.68-11.82-23.63C277.51,6.26,282.75,0,289.33,0c9.58,0,10.73,8.81,10.73,17.12Z"/><path class="cls-1" d="M319,17.37C319,9.84,318,7,316,7c-1.73,0-3.45,1.15-3.45,16.6,0,14.94.89,16.6,3.45,16.6,2.74,0,3.38-4.22,3.51-10.79l7,.32c0,7.92-1.15,17.5-10.86,17.5-8.88,0-11.82-8.68-11.82-23.63C303.81,6.26,309.05,0,315.63,0c9.58,0,10.73,8.81,10.73,17.12Z"/><path class="cls-1" d="M342.26,0c7.34,0,12.13,5.68,12.13,23.63s-4.79,23.63-12.13,23.63-12.14-5.68-12.14-23.63S334.91,0,342.26,0Zm-3.07,28.42c0,9.83,1.15,11.81,3.07,11.81s3.06-2,3.06-11.81V18.84C345.32,9,344.17,7,342.26,7s-3.07,2-3.07,11.82Z"/><rect class="cls-1" x="1.23" y="71.02" width="353.16" height="16.93"/></g></g></svg>