<svg xmlns="http://www.w3.org/2000/svg" viewBox="0 0 746.6 676.6"><defs><style>.cls-1{fill:#da2128;}</style></defs><title>Steven</title><g id="Layer_2" data-name="Layer 2"><g id="Layer_1-2" data-name="Layer 1"><rect class="cls-1" x="1.92" y="71.05" width="397.87" height="16.93"/><path class="cls-1" d="M7.79,33.23q0,1,.06,2.17a9.92,9.92,0,0,0,.38,2.3A4.19,4.19,0,0,0,9.3,39.52a2.8,2.8,0,0,0,2.08.73,3.34,3.34,0,0,0,1.73-.41,3.52,3.52,0,0,0,1.15-1.09,4.58,4.58,0,0,0,.64-1.44,6,6,0,0,0,.19-1.47A6.2,6.2,0,0,0,14,32.2a17.67,17.67,0,0,0-2.78-3.07q-1.66-1.47-3.64-3A25.32,25.32,0,0,1,3.9,22.68a17.75,17.75,0,0,1-2.78-4.41A14.25,14.25,0,0,1,0,12.39,16.18,16.18,0,0,1,.7,7.57a11.69,11.69,0,0,1,2-3.93A9.84,9.84,0,0,1,6.1,1a10.36,10.36,0,0,1,4.63-1,10.34,10.34,0,0,1,4.79,1,8.66,8.66,0,0,1,3.23,2.84,13,13,0,0,1,1.85,4.38,26.81,26.81,0,0,1,.67,5.62H13.87q0-1-.06-2.14a10.7,10.7,0,0,0-.35-2.24,3.88,3.88,0,0,0-1-1.76A2.59,2.59,0,0,0,10.54,7a2.68,2.68,0,0,0-2.3,1.15,5,5,0,0,0-.83,3A6,6,0,0,0,8.53,14.7a18.5,18.5,0,0,0,2.78,3.1Q13,19.29,15,20.89a26.49,26.49,0,0,1,3.64,3.58,19.17,19.17,0,0,1,2.78,4.47,14.12,14.12,0,0,1,1.12,5.82,15.78,15.78,0,0,1-.74,4.89,11.55,11.55,0,0,1-2.17,4A10.29,10.29,0,0,1,16,46.29a11.68,11.68,0,0,1-5,1A10,10,0,0,1,5.65,46,9.61,9.61,0,0,1,2.4,42.62,13.37,13.37,0,0,1,.8,38.08a29.47,29.47,0,0,1-.42-4.86Z"/><path class="cls-1" d="M29.43,7.92H22.27v-7H44.89v7H37.74V46.39H29.43Z"/><path class="cls-1" d="M46.58.89H65.37v7H54.89V19.55h7.73V27H54.89v12.4H65.81v7H46.58Z"/><path class="cls-1" d="M66.74.89h8.11l3.9,31.95h.13L83.16.89h6.71L83,46.39H73.51Z"/><path class="cls-1" d="M92,.89h18.79v7H100.31V19.55H108V27h-7.73v12.4h10.93v7H92Z"/><path class="cls-1" d="M113.37.89h8.12l7.6,24h.13V.89h6.65V46.39h-6.45l-8.88-27.54h-.13V46.39h-7Z"/><path class="cls-1" d="M153.3.89h8.31v19h.13l6.9-19H176l-6.2,15.27,7.48,30.22h-8L164.74,26h-.13l-3,7.16V46.39H153.3Z"/><path class="cls-1" d="M179.54.89h8.31V19.17h5.24V.89h8.31V46.39h-8.31V27.09h-5.24v19.3h-8.31Z"/><path class="cls-1" d="M204.67,23.64a61.58,61.58,0,0,1,.86-11.25A23.24,23.24,0,0,1,208,5.11a9.88,9.88,0,0,1,3.83-3.93,11.1,11.1,0,0,1,10,0,9.88,9.88,0,0,1,3.83,3.93,23.24,23.24,0,0,1,2.46,7.28,61.57,61.57,0,0,1,.86,11.25,61.57,61.57,0,0,1-.86,11.25,23.24,23.24,0,0,1-2.46,7.29,9.88,9.88,0,0,1-3.83,3.93,11.1,11.1,0,0,1-10,0A9.88,9.88,0,0,1,208,42.17a23.24,23.24,0,0,1-2.46-7.29A61.58,61.58,0,0,1,204.67,23.64Zm9.07,4.79q0,3.71.22,6a20.55,20.55,0,0,0,.61,3.61,3.42,3.42,0,0,0,1,1.76,2,2,0,0,0,2.56,0,3.42,3.42,0,0,0,1-1.76,20.53,20.53,0,0,0,.61-3.61q.22-2.3.22-6V18.85q0-3.7-.22-6A19.75,19.75,0,0,0,219,9.26a3.61,3.61,0,0,0-1-1.76,1.94,1.94,0,0,0-2.56,0,3.61,3.61,0,0,0-1,1.76,19.77,19.77,0,0,0-.61,3.58q-.23,2.3-.22,6Z"/><path class="cls-1" d="M231.93.89h8.31V36.1a11.53,11.53,0,0,0,.1,1.5,3.92,3.92,0,0,0,.42,1.34,2.41,2.41,0,0,0,.89,1,2.78,2.78,0,0,0,1.47.35,2.48,2.48,0,0,0,2.4-1.25,6,6,0,0,0,.67-2.91V.89h7V35q0,6.71-2.81,9.49t-7.8,2.78a13.38,13.38,0,0,1-4.38-.67,8.49,8.49,0,0,1-3.35-2.11,9.56,9.56,0,0,1-2.17-3.77,18.5,18.5,0,0,1-.77-5.72Z"/><path class="cls-1" d="M257.38.89h9.33a20.14,20.14,0,0,1,5.37.67,10.24,10.24,0,0,1,4.15,2.21,10.16,10.16,0,0,1,2.68,4,16.69,16.69,0,0,1,1,6,22.21,22.21,0,0,1-.22,3.07,14.65,14.65,0,0,1-.8,3.13,11.87,11.87,0,0,1-1.5,2.81A7.64,7.64,0,0,1,275,24.92l4.92,21.47h-8.37l-3.9-19.55h-2V46.39h-8.31Zm8.31,19.29h1.66a3.37,3.37,0,0,0,1.95-.54,4.38,4.38,0,0,0,1.31-1.4,6.3,6.3,0,0,0,.73-2,12.4,12.4,0,0,0,.22-2.36q0-3.71-1.25-5A4.41,4.41,0,0,0,267,7.54h-1.28Z"/><path class="cls-1" d="M286.83,28.82,279.23.89h8.24l4,17.83h.13L295.78.89h7L295.14,28V46.39h-8.31Z"/><path class="cls-1" d="M327.72,0h5.75L319.16,47.28h-5.62Z"/><path class="cls-1" d="M352.13.89h12l5.62,45.49h-8l-1.21-10.1h-6.71l-1.15,10.1h-7Zm5.3,7h-.13l-2.62,21.72h5.17Z"/><path class="cls-1" d="M372,.89h18.79v7H380.26V19.55H388V27h-7.73v12.4h10.93v7H372Z"/><path class="cls-1" d="M15,137.18H34.51l9.12,72.34h-13l-2-16.05H17.82L16,209.51H4.66Zm8.6,11.18h-.21l-4.25,34.54h8.39Z"/><path class="cls-1" d="M70.78,148.35H59.17V137.18H95.85v11.18H84.25v61.16H70.78Z"/><path class="cls-1" d="M98.4,137.18h30.47v11.18h-17v18.49h12.54v11.79H111.88v19.71H129.6v11.18H98.4Z"/><path class="cls-1" d="M155.29,163.39q0-9-1.19-12.75t-3.68-3.71a3.83,3.83,0,0,0-2.07.66q-1,.66-1.81,3.3a43.94,43.94,0,0,0-1.24,7.93q-.47,5.28-.47,14.53,0,8.94.31,14.17a52.63,52.63,0,0,0,.93,8q.62,2.75,1.71,3.51a4.49,4.49,0,0,0,2.64.76q3.31,0,4.4-4.62a64.58,64.58,0,0,0,1.29-12.55l11.4.51a92.91,92.91,0,0,1-.52,9.7,28,28,0,0,1-2.38,8.94,17.1,17.1,0,0,1-5.34,6.61q-3.47,2.59-9.38,2.59a15.59,15.59,0,0,1-9.07-2.54,17.67,17.67,0,0,1-5.91-7.37,42.28,42.28,0,0,1-3.21-11.79,114.4,114.4,0,0,1-1-15.9,86.93,86.93,0,0,1,1.5-17.53,39.52,39.52,0,0,1,4.09-11.63,16.91,16.91,0,0,1,6.06-6.45,14.9,14.9,0,0,1,7.51-2q5.8,0,9.28,2.39a15.4,15.4,0,0,1,5.29,6.25,27.24,27.24,0,0,1,2.33,8.74,93.4,93.4,0,0,1,.52,9.86Z"/><path class="cls-1" d="M172.67,137.18h13.47v29.06h8.5V137.18h13.47v72.34H194.63V178.83h-8.5v30.68H172.67Z"/><path class="cls-1" d="M213.66,177.21h20.52V187H213.66Z"/><path class="cls-1" d="M239.79,137.18h30.47v11.18h-17v18.49H265.8v11.79H253.26v19.71H271v11.18H239.79Z"/><path class="cls-1" d="M272.3,137.18h13.16l6.32,50.8H292l6.94-50.8h10.88l-11.09,72.34H283.29Z"/><path class="cls-1" d="M318.13,137.18h19.48l9.12,72.34h-13l-2-16.05H320.93l-1.87,16.05h-11.3Zm8.6,11.18h-.21l-4.25,34.54h8.39Z"/><path class="cls-1" d="M349.85,137.18H363l12.33,38.2h.21v-38.2h10.78v72.34H375.86l-14.41-43.79h-.21v43.79h-11.4Z"/><path class="cls-1" d="M416.14,163q0-1.22.05-3.91a31.49,31.49,0,0,0-.36-5.38,15.61,15.61,0,0,0-1.45-4.72,3.4,3.4,0,0,0-3.21-2,3.69,3.69,0,0,0-2.33.86A7.13,7.13,0,0,0,407,151.4a43.64,43.64,0,0,0-1.19,7.93q-.42,5.18-.41,13.92,0,8.94.41,14.17a40.12,40.12,0,0,0,1.24,8,6.52,6.52,0,0,0,2,3.56,4.74,4.74,0,0,0,2.75.81,3.51,3.51,0,0,0,3-1.62,11,11,0,0,0,1.66-3.81,27.38,27.38,0,0,0,.67-4.42q.16-2.23.16-3.55h-5V175.78h16.37v33.73H423l-1.87-4.78a16.1,16.1,0,0,1-4.35,4.27,10.88,10.88,0,0,1-6.32,1.93,15.59,15.59,0,0,1-9.07-2.54,17.67,17.67,0,0,1-5.91-7.37,42.28,42.28,0,0,1-3.21-11.79,114.4,114.4,0,0,1-1-15.9,86.93,86.93,0,0,1,1.5-17.53,39.52,39.52,0,0,1,4.09-11.63,16.91,16.91,0,0,1,6.06-6.45,14.9,14.9,0,0,1,7.51-2,23.4,23.4,0,0,1,6.43.91,13,13,0,0,1,5.7,3.4,18.14,18.14,0,0,1,4,6.91,34.68,34.68,0,0,1,1.55,11.33V163Z"/><path class="cls-1" d="M434.41,137.18h30.47v11.18h-17v18.49h12.54v11.79H447.88v19.71H465.6v11.18H434.41Z"/><path class="cls-1" d="M469.09,137.18h13.47v61.16h17.2v11.18H469.09Z"/><path class="cls-1" d="M503.26,137.18h13.47v72.34H503.26Z"/><path class="cls-1" d="M533.3,188.58q0,1.52.1,3.46a15.47,15.47,0,0,0,.62,3.66,6.63,6.63,0,0,0,1.71,2.9,4.6,4.6,0,0,0,3.37,1.17,5.49,5.49,0,0,0,2.8-.66,5.65,5.65,0,0,0,1.87-1.73,7.25,7.25,0,0,0,1-2.29,9.45,9.45,0,0,0,.31-2.34A9.73,9.73,0,0,0,543.3,187a28.25,28.25,0,0,0-4.51-4.88q-2.7-2.33-5.91-4.78a40.7,40.7,0,0,1-5.91-5.49,28.21,28.21,0,0,1-4.51-7,22.29,22.29,0,0,1-1.81-9.35,25.29,25.29,0,0,1,1.14-7.67,18.45,18.45,0,0,1,3.32-6.25,15.89,15.89,0,0,1,5.44-4.22,19.06,19.06,0,0,1,15.29.05,14,14,0,0,1,5.23,4.52,20.45,20.45,0,0,1,3,7,41.84,41.84,0,0,1,1.09,8.94h-12c0-1,0-2.15-.1-3.4a16.73,16.73,0,0,0-.57-3.56,6.15,6.15,0,0,0-1.61-2.79,4.26,4.26,0,0,0-3.11-1.12,4.37,4.37,0,0,0-3.73,1.83,7.85,7.85,0,0,0-1.35,4.78,9.4,9.4,0,0,0,1.81,5.59A29.57,29.57,0,0,0,539,164q2.69,2.39,5.91,4.93a42.32,42.32,0,0,1,5.91,5.69,30.19,30.19,0,0,1,4.51,7.11,22,22,0,0,1,1.81,9.24,24.67,24.67,0,0,1-1.19,7.77,18.23,18.23,0,0,1-3.52,6.3,16.67,16.67,0,0,1-5.8,4.27,19.29,19.29,0,0,1-8,1.57,16.46,16.46,0,0,1-8.76-2.08,15.44,15.44,0,0,1-5.29-5.33A21,21,0,0,1,522,196.3a45.91,45.91,0,0,1-.67-7.72Z"/><path class="cls-1" d="M568.22,148.35H556.62V137.18H593.3v11.18H581.7v61.16H568.22Z"/><path class="cls-1" d="M615.06,137.18h19.48l9.12,72.34h-13l-2-16.05H617.86L616,209.51H604.7Zm8.6,11.18h-.21l-4.25,34.54h8.39Z"/><path class="cls-1" d="M652,148.35H640.43V137.18h36.68v11.18H665.51v61.16H652Z"/><path class="cls-1" d="M8.39,230.31H21.87v29.06h8.5V230.31H43.84v72.34H30.36V272h-8.5v30.68H8.39Z"/><path class="cls-1" d="M50.65,230.31H81.12v11.18h-17V260H76.67v11.79H64.13v19.71H81.85v11.18H50.65Z"/><path class="cls-1" d="M94,230.31H113.5l9.12,72.34h-13l-2-16.05H96.82L95,302.64H83.66Zm8.6,11.18h-.21L98.17,276h8.39Z"/><path class="cls-1" d="M126,230.31h15.13a33.28,33.28,0,0,1,8.71,1.07,16.76,16.76,0,0,1,6.74,3.5,16.18,16.18,0,0,1,4.35,6.35,26.09,26.09,0,0,1,1.55,9.6,34.58,34.58,0,0,1-.36,4.88,23.05,23.05,0,0,1-1.3,5,18.8,18.8,0,0,1-2.44,4.47,12.3,12.3,0,0,1-3.78,3.35l8,34.14H149l-6.32-31.09h-3.21v31.09H126ZM139.45,261h2.69a5.57,5.57,0,0,0,3.16-.86,7,7,0,0,0,2.12-2.24,9.86,9.86,0,0,0,1.19-3.2,19.33,19.33,0,0,0,.36-3.76q0-5.89-2-8a7.23,7.23,0,0,0-5.44-2.08h-2.07Z"/><path class="cls-1" d="M174.7,241.48H163.09V230.31h36.68v11.18H188.17v61.16H174.7Z"/><path class="cls-1" d="M223.61,230.31h19.48l9.12,72.34h-13l-2-16.05H226.41l-1.87,16.05H213.25Zm8.6,11.18H232L227.75,276h8.39Z"/><path class="cls-1" d="M255.33,230.31h13.16l12.33,38.2H281v-38.2h10.78v72.34H281.34l-14.41-43.79h-.21v43.79h-11.4Z"/><path class="cls-1" d="M298.45,230.31h11.71q8.5,0,13.42,2.59a17.52,17.52,0,0,1,7.46,7.31,30.38,30.38,0,0,1,3.21,11.38,148.84,148.84,0,0,1,.67,14.88q0,7.83-.62,14.48a34.25,34.25,0,0,1-2.9,11.48,17,17,0,0,1-6.79,7.52q-4.51,2.69-12.28,2.69H298.45Zm13.47,61.16a11.55,11.55,0,0,0,5-.86,5.6,5.6,0,0,0,2.64-3.51,29.1,29.1,0,0,0,1.09-7.57q.21-4.92.21-13.16t-.21-13.11a28.24,28.24,0,0,0-1.09-7.47,5.58,5.58,0,0,0-2.64-3.45,11.55,11.55,0,0,0-5-.87Z"/><path class="cls-1" d="M361,230.31h19.48l9.12,72.34h-13l-2-16.05H363.84L362,302.64H350.68Zm8.6,11.18h-.21L365.18,276h8.39Z"/><path class="cls-1" d="M408,230.31h13.16l12.33,38.2h.21v-38.2h10.78v72.34H434l-14.41-43.79h-.21v43.79H408Z"/><path class="cls-1" d="M457.94,230.31h19.48l9.12,72.34h-13l-2-16.05H460.74l-1.87,16.05H447.58Zm8.6,11.18h-.21L462.09,276h8.39Z"/><path class="cls-1" d="M494.92,241.48H483.31V230.31H520v11.18H508.39v61.16H494.92Z"/><path class="cls-1" d="M522.31,230.31h13.47v56a18.11,18.11,0,0,0,.16,2.39,6.18,6.18,0,0,0,.67,2.13,3.87,3.87,0,0,0,1.45,1.52,4.57,4.57,0,0,0,2.38.56,4,4,0,0,0,3.89-2,9.44,9.44,0,0,0,1.09-4.62v-56h11.4v54.25q0,10.67-4.56,15.09t-12.64,4.42a22.12,22.12,0,0,1-7.1-1.07,13.78,13.78,0,0,1-5.44-3.35,15.14,15.14,0,0,1-3.52-6,28.85,28.85,0,0,1-1.24-9.09Z"/><path class="cls-1" d="M563.39,230.31h15.13a33.28,33.28,0,0,1,8.71,1.07,16.76,16.76,0,0,1,6.74,3.5,16.18,16.18,0,0,1,4.35,6.35,26.09,26.09,0,0,1,1.55,9.6,34.58,34.58,0,0,1-.36,4.88,23.05,23.05,0,0,1-1.3,5,18.8,18.8,0,0,1-2.44,4.47,12.3,12.3,0,0,1-3.78,3.35l8,34.14H586.4l-6.32-31.09h-3.21v31.09H563.39ZM576.87,261h2.69a5.57,5.57,0,0,0,3.16-.86,7,7,0,0,0,2.12-2.24,9.86,9.86,0,0,0,1.19-3.2,19.33,19.33,0,0,0,.36-3.76q0-5.89-2-8a7.23,7.23,0,0,0-5.44-2.08h-2.07Z"/><path class="cls-1" d="M612.23,230.31h19.48l9.12,72.34h-13l-2-16.05H615l-1.87,16.05h-11.3Zm8.6,11.18h-.21L616.38,276h8.39Z"/><path class="cls-1" d="M644.19,230.31h13.47v61.16h17.2v11.18H644.19Z"/><path class="cls-1" d="M8.39,323.44H25a23,23,0,0,1,6.32.91A16,16,0,0,1,41.5,333a19.74,19.74,0,0,1,1.71,8.69,18.49,18.49,0,0,1-2.9,10.46q-2.9,4.37-9.12,5.69v.2q6.94,1.63,10.21,6.15a19,19,0,0,1,3.26,11.43,22.09,22.09,0,0,1-1.61,8.74,18.89,18.89,0,0,1-4.25,6.3,17.36,17.36,0,0,1-6.06,3.81,20.35,20.35,0,0,1-7.15,1.27H8.39Zm13.47,29.67q5.08,0,6.79-2.34t1.71-7.21a27.9,27.9,0,0,0-.36-5,5.64,5.64,0,0,0-1.35-2.95A4.77,4.77,0,0,0,26,334.31a23.52,23.52,0,0,0-4.15-.3Zm0,32.1a16.06,16.06,0,0,0,4.87-.61,5.73,5.73,0,0,0,2.85-1.88,7,7,0,0,0,1.29-3.3,32.81,32.81,0,0,0,.31-4.88,23.83,23.83,0,0,0-.36-4.37,7.42,7.42,0,0,0-1.4-3.25,6.25,6.25,0,0,0-2.85-2,14.06,14.06,0,0,0-4.71-.66Z"/><path class="cls-1" d="M47.21,359.61a96,96,0,0,1,1.4-17.88,36.47,36.47,0,0,1,4-11.58,15.86,15.86,0,0,1,6.22-6.25,18.33,18.33,0,0,1,16.17,0,15.88,15.88,0,0,1,6.22,6.25,36.52,36.52,0,0,1,4,11.58,95.94,95.94,0,0,1,1.4,17.88,95.94,95.94,0,0,1-1.4,17.88,36.5,36.5,0,0,1-4,11.58A15.85,15.85,0,0,1,75,395.32a18.31,18.31,0,0,1-16.17,0,15.83,15.83,0,0,1-6.22-6.25,36.45,36.45,0,0,1-4-11.58A96,96,0,0,1,47.21,359.61Zm14.71,7.62q0,5.89.36,9.55a31.93,31.93,0,0,0,1,5.74,5.41,5.41,0,0,0,1.55,2.79,3.37,3.37,0,0,0,4.14,0,5.41,5.41,0,0,0,1.55-2.79,32.19,32.19,0,0,0,1-5.74q.36-3.66.36-9.55V352q0-5.89-.36-9.55a31,31,0,0,0-1-5.69A5.74,5.74,0,0,0,69,334a3.2,3.2,0,0,0-4.14,0,5.73,5.73,0,0,0-1.55,2.79,30.71,30.71,0,0,0-1,5.69q-.36,3.66-.36,9.55Z"/><path class="cls-1" d="M91.62,323.44h15.13a33.28,33.28,0,0,1,8.71,1.07,16.76,16.76,0,0,1,6.74,3.51,16.18,16.18,0,0,1,4.35,6.35,26.09,26.09,0,0,1,1.55,9.6,34.58,34.58,0,0,1-.36,4.88,23.05,23.05,0,0,1-1.3,5,18.8,18.8,0,0,1-2.44,4.47,12.3,12.3,0,0,1-3.78,3.35l8,34.14H114.63l-6.32-31.09h-3.21v31.09H91.62Zm13.47,30.68h2.69a5.57,5.57,0,0,0,3.16-.86,7,7,0,0,0,2.12-2.24,9.86,9.86,0,0,0,1.19-3.2,19.33,19.33,0,0,0,.36-3.76q0-5.89-2-8a7.23,7.23,0,0,0-5.44-2.08h-2.07Z"/><path class="cls-1" d="M132.27,323.44h13.16l12.33,38.2H158v-38.2h10.78v72.34H158.28L143.88,352h-.21v43.79h-11.4Z"/><path class="cls-1" d="M199.11,334.62H187.51V323.44h36.69v11.18H212.58v61.16H199.11Z"/><path class="cls-1" d="M226.74,323.44h30.47v11.18h-17v18.49h12.54v11.79H240.21V384.6h17.72v11.18H226.74Z"/><path class="cls-1" d="M270.11,323.44h19.48l9.12,72.34h-13l-2-16.05H272.91L271,395.78H259.75Zm8.6,11.18h-.21l-4.25,34.54h8.39Z"/><path class="cls-1" d="M301.83,323.44h17.93l6,37.08H326l6.32-37.08h17.51v72.34h-12v-53h-.21l-9.12,53H321l-9-53h-.21v53h-10Z"/><path class="cls-1" d="M369.81,323.44h13.47q11.4,0,17.31,5t5.91,16.66a37.34,37.34,0,0,1-1,8.89,18.32,18.32,0,0,1-3.16,6.86,14.7,14.7,0,0,1-5.54,4.42,19.08,19.08,0,0,1-8.13,1.57h-5.39v29H369.81Zm13.58,32.82h1.14a12.92,12.92,0,0,0,3.63-.46,5.6,5.6,0,0,0,2.64-1.68,8.1,8.1,0,0,0,1.66-3.35,21.34,21.34,0,0,0,.57-5.38,19.88,19.88,0,0,0-.73-6.1,7.41,7.41,0,0,0-1.92-3.2,5,5,0,0,0-2.75-1.27,24.91,24.91,0,0,0-3.21-.2h-1Z"/><path class="cls-1" d="M409.24,323.44h13.47V384.6h17.2v11.18H409.24Z"/><path class="cls-1" d="M452.33,323.44h19.48l9.12,72.34H468l-2-16.05H455.13l-1.87,16.05H442Zm8.6,11.18h-.21l-4.25,34.54h8.39Z"/><path class="cls-1" d="M489,367.84l-12.33-44.4H490l6.42,28.35h.21l6.84-28.35h11.3l-12.33,43.18v29.16H489Z"/><path class="cls-1" d="M517,323.44h30.47v11.18h-17v18.49H543v11.79H530.46V384.6h17.72v11.18H517Z"/><path class="cls-1" d="M551.67,323.44H566.8a33.28,33.28,0,0,1,8.71,1.07,16.76,16.76,0,0,1,6.74,3.51,16.18,16.18,0,0,1,4.35,6.35,26.09,26.09,0,0,1,1.55,9.6,34.58,34.58,0,0,1-.36,4.88,23.05,23.05,0,0,1-1.3,5,18.8,18.8,0,0,1-2.44,4.47,12.3,12.3,0,0,1-3.78,3.35l8,34.14H574.68l-6.32-31.09h-3.21v31.09H551.67Zm13.47,30.68h2.69a5.57,5.57,0,0,0,3.16-.86,7,7,0,0,0,2.12-2.24,9.86,9.86,0,0,0,1.19-3.2,19.33,19.33,0,0,0,.36-3.76q0-5.89-2-8a7.23,7.23,0,0,0-5.44-2.08h-2.07Z"/><path class="cls-1" d="M592.47,382.57h13.47v13.21H592.47Z"/><path class="cls-1" d="M618.69,323.44h13.47v72.34H618.69Z"/><path class="cls-1" d="M638.56,323.44h13.16l12.33,38.2h.21v-38.2H675v72.34H664.58L650.17,352H650v43.79h-11.4Z"/><path class="cls-1" d="M8.39,416.57H21.87v29.06h8.5V416.57H43.84v72.34H30.36V458.23h-8.5v30.68H8.39Z"/><path class="cls-1" d="M50.42,416.57H63.89v72.34H50.42Z"/><path class="cls-1" d="M80.46,468q0,1.52.1,3.46a15.47,15.47,0,0,0,.62,3.66,6.63,6.63,0,0,0,1.71,2.9,4.6,4.6,0,0,0,3.37,1.17,5.49,5.49,0,0,0,2.8-.66,5.65,5.65,0,0,0,1.87-1.73,7.25,7.25,0,0,0,1-2.29,9.45,9.45,0,0,0,.31-2.34,9.73,9.73,0,0,0-1.81-5.79,28.25,28.25,0,0,0-4.51-4.88q-2.7-2.33-5.91-4.78a40.7,40.7,0,0,1-5.91-5.49,28.21,28.21,0,0,1-4.51-7,22.29,22.29,0,0,1-1.81-9.35A25.29,25.29,0,0,1,69,427.19a18.46,18.46,0,0,1,3.32-6.25,15.93,15.93,0,0,1,5.44-4.22,19.06,19.06,0,0,1,15.29.05,14,14,0,0,1,5.23,4.52,20.48,20.48,0,0,1,3,7,41.84,41.84,0,0,1,1.09,8.94h-12c0-1,0-2.15-.1-3.4a16.73,16.73,0,0,0-.57-3.56A6.15,6.15,0,0,0,88,427.44a4.26,4.26,0,0,0-3.11-1.12,4.37,4.37,0,0,0-3.73,1.83,7.85,7.85,0,0,0-1.35,4.78,9.4,9.4,0,0,0,1.81,5.59,29.57,29.57,0,0,0,4.51,4.93q2.69,2.39,5.91,4.93A42.32,42.32,0,0,1,98,454.06a30.19,30.19,0,0,1,4.51,7.11,22,22,0,0,1,1.81,9.24,24.67,24.67,0,0,1-1.19,7.77,18.23,18.23,0,0,1-3.52,6.3,16.67,16.67,0,0,1-5.8,4.27,19.29,19.29,0,0,1-8,1.57A16.46,16.46,0,0,1,77,488.25a15.44,15.44,0,0,1-5.29-5.33,21,21,0,0,1-2.59-7.21,45.91,45.91,0,0,1-.67-7.72Z"/><path class="cls-1" d="M130.61,468q0,1.52.1,3.46a15.47,15.47,0,0,0,.62,3.66A6.63,6.63,0,0,0,133,478a4.6,4.6,0,0,0,3.37,1.17,5.49,5.49,0,0,0,2.8-.66,5.65,5.65,0,0,0,1.87-1.73,7.25,7.25,0,0,0,1-2.29,9.45,9.45,0,0,0,.31-2.34,9.73,9.73,0,0,0-1.81-5.79,28.25,28.25,0,0,0-4.51-4.88q-2.7-2.33-5.91-4.78a40.7,40.7,0,0,1-5.91-5.49,28.21,28.21,0,0,1-4.51-7,22.29,22.29,0,0,1-1.81-9.35,25.29,25.29,0,0,1,1.14-7.67,18.46,18.46,0,0,1,3.32-6.25,15.93,15.93,0,0,1,5.44-4.22,19.06,19.06,0,0,1,15.29.05,14,14,0,0,1,5.23,4.52,20.48,20.48,0,0,1,3,7,41.84,41.84,0,0,1,1.09,8.94h-12c0-1,0-2.15-.1-3.4a16.73,16.73,0,0,0-.57-3.56,6.15,6.15,0,0,0-1.61-2.79,4.26,4.26,0,0,0-3.11-1.12,4.37,4.37,0,0,0-3.73,1.83,7.85,7.85,0,0,0-1.35,4.78,9.4,9.4,0,0,0,1.81,5.59,29.57,29.57,0,0,0,4.51,4.93q2.69,2.39,5.91,4.93a42.32,42.32,0,0,1,5.91,5.69,30.19,30.19,0,0,1,4.51,7.11,22,22,0,0,1,1.81,9.24,24.67,24.67,0,0,1-1.19,7.77,18.23,18.23,0,0,1-3.52,6.3,16.67,16.67,0,0,1-5.8,4.27,19.29,19.29,0,0,1-8,1.57,16.46,16.46,0,0,1-8.76-2.08,15.44,15.44,0,0,1-5.29-5.33,21,21,0,0,1-2.59-7.21,45.91,45.91,0,0,1-.67-7.72Z"/><path class="cls-1" d="M158.14,416.57h13.47q11.4,0,17.31,5t5.91,16.66a37.32,37.32,0,0,1-1,8.89,18.33,18.33,0,0,1-3.16,6.86,14.7,14.7,0,0,1-5.54,4.42A19.08,19.08,0,0,1,177,460h-5.39v29H158.14Zm13.58,32.82h1.14a12.92,12.92,0,0,0,3.63-.46,5.58,5.58,0,0,0,2.64-1.68,8.11,8.11,0,0,0,1.66-3.35,21.35,21.35,0,0,0,.57-5.38,19.87,19.87,0,0,0-.73-6.1,7.4,7.4,0,0,0-1.92-3.2A5,5,0,0,0,176,428a24.91,24.91,0,0,0-3.21-.2h-1Z"/><path class="cls-1" d="M202.67,416.57h19.48l9.12,72.34h-13l-2-16.05H205.46l-1.87,16.05H192.3Zm8.6,11.18h-.21l-4.25,34.54h8.39Z"/><path class="cls-1" d="M234.62,416.57h15.13a33.28,33.28,0,0,1,8.71,1.07,16.76,16.76,0,0,1,6.74,3.5,16.18,16.18,0,0,1,4.35,6.35,26.09,26.09,0,0,1,1.55,9.6,34.55,34.55,0,0,1-.36,4.88,23,23,0,0,1-1.3,5,18.72,18.72,0,0,1-2.44,4.47,12.33,12.33,0,0,1-3.78,3.35l8,34.14H257.63l-6.32-31.09H248.1v31.09H234.62Zm13.47,30.68h2.69a5.57,5.57,0,0,0,3.16-.86,7,7,0,0,0,2.12-2.23,9.87,9.87,0,0,0,1.19-3.2,19.31,19.31,0,0,0,.36-3.76q0-5.89-2-8a7.24,7.24,0,0,0-5.44-2.08H248.1Z"/><path class="cls-1" d="M275.51,416.57H306v11.18H289v18.49h12.54V458H289v19.71H306.7v11.18H275.51Z"/><path class="cls-1" d="M334.16,427.75H322.55V416.57h36.68v11.18H347.63v61.16H334.16Z"/><path class="cls-1" d="M361.55,416.57H375v72.34H361.55Z"/><path class="cls-1" d="M381.42,416.57h17.93l6,37.09h.21l6.32-37.09H429.4v72.34h-12v-53h-.21l-9.12,53h-7.46l-9-53h-.21v53h-9.95Z"/><path class="cls-1" d="M436,416.57h30.47v11.18h-17v18.49H462V458H449.47v19.71h17.72v11.18H436Z"/><path class="cls-1" d="M476.57,488.91h-5V475.7h13.47v12.19l-8,16.25H471.7Z"/><path class="cls-1" d="M505.48,468q0,1.52.1,3.46a15.47,15.47,0,0,0,.62,3.66,6.63,6.63,0,0,0,1.71,2.9,4.6,4.6,0,0,0,3.37,1.17,5.49,5.49,0,0,0,2.8-.66,5.65,5.65,0,0,0,1.87-1.73,7.25,7.25,0,0,0,1-2.29,9.45,9.45,0,0,0,.31-2.34,9.73,9.73,0,0,0-1.81-5.79,28.25,28.25,0,0,0-4.51-4.88q-2.7-2.33-5.91-4.78a40.7,40.7,0,0,1-5.91-5.49,28.21,28.21,0,0,1-4.51-7,22.29,22.29,0,0,1-1.81-9.35,25.29,25.29,0,0,1,1.14-7.67,18.46,18.46,0,0,1,3.32-6.25,15.93,15.93,0,0,1,5.44-4.22,19.06,19.06,0,0,1,15.29.05,14,14,0,0,1,5.23,4.52,20.48,20.48,0,0,1,3,7,41.84,41.84,0,0,1,1.09,8.94h-12c0-1,0-2.15-.1-3.4a16.73,16.73,0,0,0-.57-3.56,6.15,6.15,0,0,0-1.61-2.79,4.26,4.26,0,0,0-3.11-1.12,4.37,4.37,0,0,0-3.73,1.83,7.85,7.85,0,0,0-1.35,4.78,9.39,9.39,0,0,0,1.81,5.59,29.57,29.57,0,0,0,4.51,4.93q2.69,2.39,5.91,4.93a42.32,42.32,0,0,1,5.91,5.69,30.19,30.19,0,0,1,4.51,7.11,22,22,0,0,1,1.81,9.24,24.67,24.67,0,0,1-1.19,7.77,18.23,18.23,0,0,1-3.52,6.3,16.67,16.67,0,0,1-5.8,4.27,19.29,19.29,0,0,1-8,1.57,16.47,16.47,0,0,1-8.76-2.08,15.44,15.44,0,0,1-5.29-5.33,21,21,0,0,1-2.59-7.21,45.91,45.91,0,0,1-.67-7.72Z"/><path class="cls-1" d="M540.41,427.75H528.8V416.57h36.68v11.18H553.88v61.16H540.41Z"/><path class="cls-1" d="M568,416.57H598.5v11.18h-17v18.49H594V458H581.51v19.71h17.72v11.18H568Z"/><path class="cls-1" d="M600.55,416.57h13.16l6.32,50.8h.21l6.94-50.8h10.88L627,488.91H611.54Z"/><path class="cls-1" d="M641.33,416.57H671.8v11.18h-17v18.49h12.54V458H654.8v19.71h17.72v11.18H641.33Z"/><path class="cls-1" d="M675.79,416.57h13.16l12.33,38.2h.21v-38.2h10.78v72.34H701.8l-14.41-43.79h-.21v43.79h-11.4Z"/><path class="cls-1" d="M31,535.92q0-9-1.19-12.75t-3.68-3.71a3.83,3.83,0,0,0-2.07.66q-1,.66-1.81,3.3A43.91,43.91,0,0,0,21,531.34q-.47,5.29-.47,14.53,0,8.94.31,14.17a52.67,52.67,0,0,0,.93,8q.62,2.74,1.71,3.5a4.49,4.49,0,0,0,2.64.76q3.31,0,4.4-4.62a64.62,64.62,0,0,0,1.29-12.55l11.4.51a92.88,92.88,0,0,1-.52,9.7,28.05,28.05,0,0,1-2.38,8.94,17.09,17.09,0,0,1-5.34,6.6q-3.47,2.59-9.38,2.59a15.59,15.59,0,0,1-9.07-2.54,17.67,17.67,0,0,1-5.91-7.37,42.31,42.31,0,0,1-3.21-11.79,114.4,114.4,0,0,1-1-15.9,86.93,86.93,0,0,1,1.5-17.53A39.54,39.54,0,0,1,12,516.71a16.91,16.91,0,0,1,6.06-6.45,14.91,14.91,0,0,1,7.51-2q5.8,0,9.28,2.39a15.4,15.4,0,0,1,5.29,6.25,27.26,27.26,0,0,1,2.33,8.74,93.43,93.43,0,0,1,.52,9.86Z"/><path class="cls-1" d="M54.9,509.7H74.38L83.5,582h-13l-2-16.05H57.7L55.83,582H44.54Zm8.6,11.18H63.3L59,555.42h8.39Z"/><path class="cls-1" d="M86.62,509.7H99.78l12.33,38.2h.21V509.7H123.1V582H112.63L98.23,538.25H98V582H86.62Z"/><path class="cls-1" d="M141,509.7h16.58a23,23,0,0,1,6.32.91,16,16,0,0,1,10.21,8.69,19.74,19.74,0,0,1,1.71,8.69,18.49,18.49,0,0,1-2.9,10.46q-2.9,4.37-9.12,5.69v.2Q170.77,546,174,550.5a19,19,0,0,1,3.26,11.43,22.09,22.09,0,0,1-1.61,8.74,18.89,18.89,0,0,1-4.25,6.3,17.36,17.36,0,0,1-6.06,3.81,20.35,20.35,0,0,1-7.15,1.27H141Zm13.47,29.67q5.08,0,6.79-2.34t1.71-7.21a27.9,27.9,0,0,0-.36-5,5.64,5.64,0,0,0-1.35-2.95,4.77,4.77,0,0,0-2.64-1.32,23.52,23.52,0,0,0-4.15-.3Zm0,32.1a16.06,16.06,0,0,0,4.87-.61,5.73,5.73,0,0,0,2.85-1.88,7,7,0,0,0,1.29-3.3,32.81,32.81,0,0,0,.31-4.88,23.83,23.83,0,0,0-.36-4.37,7.42,7.42,0,0,0-1.4-3.25,6.25,6.25,0,0,0-2.85-2,14.06,14.06,0,0,0-4.71-.66Z"/><path class="cls-1" d="M181.45,509.7h30.47v11.18h-17v18.49h12.54v11.79H194.92v19.71h17.72V582H181.45Z"/><path class="cls-1" d="M231.82,509.7H262v11.18H245.29v19.3h12.33V552H245.29V582H231.82Z"/><path class="cls-1" d="M262.57,545.87A96,96,0,0,1,264,528a36.5,36.5,0,0,1,4-11.58,15.85,15.85,0,0,1,6.22-6.25,18.33,18.33,0,0,1,16.17,0,15.88,15.88,0,0,1,6.22,6.25,36.55,36.55,0,0,1,4,11.58,114.94,114.94,0,0,1,0,35.76,36.5,36.5,0,0,1-4,11.58,15.85,15.85,0,0,1-6.22,6.25,18.31,18.31,0,0,1-16.17,0,15.83,15.83,0,0,1-6.22-6.25,36.45,36.45,0,0,1-4-11.58A96,96,0,0,1,262.57,545.87Zm14.71,7.62q0,5.89.36,9.55a31.93,31.93,0,0,0,1,5.74,5.41,5.41,0,0,0,1.55,2.79,3.37,3.37,0,0,0,4.14,0,5.41,5.41,0,0,0,1.55-2.79,32.19,32.19,0,0,0,1-5.74q.36-3.66.36-9.55V538.25q0-5.89-.36-9.55a31,31,0,0,0-1-5.69,5.74,5.74,0,0,0-1.55-2.79,3.2,3.2,0,0,0-4.14,0,5.73,5.73,0,0,0-1.55,2.79,30.71,30.71,0,0,0-1,5.69q-.36,3.66-.36,9.55Z"/><path class="cls-1" d="M306.59,509.7h13.47v56a18.11,18.11,0,0,0,.16,2.39,6.18,6.18,0,0,0,.67,2.13,3.87,3.87,0,0,0,1.45,1.52,4.57,4.57,0,0,0,2.38.56,4,4,0,0,0,3.89-2,9.44,9.44,0,0,0,1.09-4.62v-56h11.4V564q0,10.67-4.56,15.09t-12.64,4.42a22.12,22.12,0,0,1-7.1-1.07,13.78,13.78,0,0,1-5.44-3.35,15.13,15.13,0,0,1-3.52-6,28.85,28.85,0,0,1-1.24-9.09Z"/><path class="cls-1" d="M347.43,509.7h13.16l12.33,38.2h.21V509.7h10.78V582H373.45L359,538.25h-.21V582h-11.4Z"/><path class="cls-1" d="M390.55,509.7h11.71q8.5,0,13.42,2.59a17.52,17.52,0,0,1,7.46,7.32A30.38,30.38,0,0,1,426.36,531a148.84,148.84,0,0,1,.67,14.88q0,7.83-.62,14.48a34.25,34.25,0,0,1-2.9,11.48,17,17,0,0,1-6.79,7.52Q412.21,582,404.44,582H390.55ZM404,570.87a11.56,11.56,0,0,0,5-.86,5.6,5.6,0,0,0,2.64-3.51,29.1,29.1,0,0,0,1.09-7.57q.21-4.92.21-13.16t-.21-13.11a28.24,28.24,0,0,0-1.09-7.47,5.58,5.58,0,0,0-2.64-3.45,11.56,11.56,0,0,0-5-.87Z"/><path class="cls-1" d="M440.4,545.87A96,96,0,0,1,441.8,528a36.5,36.5,0,0,1,4-11.58,15.85,15.85,0,0,1,6.22-6.25,18.33,18.33,0,0,1,16.17,0,15.88,15.88,0,0,1,6.22,6.25,36.55,36.55,0,0,1,4,11.58,114.94,114.94,0,0,1,0,35.76,36.5,36.5,0,0,1-4,11.58,15.85,15.85,0,0,1-6.22,6.25,18.31,18.31,0,0,1-16.17,0,15.83,15.83,0,0,1-6.22-6.25,36.45,36.45,0,0,1-4-11.58A96,96,0,0,1,440.4,545.87Zm14.71,7.62q0,5.89.36,9.55a31.93,31.93,0,0,0,1,5.74,5.41,5.41,0,0,0,1.55,2.79,3.37,3.37,0,0,0,4.14,0,5.41,5.41,0,0,0,1.55-2.79,32.19,32.19,0,0,0,1-5.74q.36-3.66.36-9.55V538.25q0-5.89-.36-9.55a31,31,0,0,0-1-5.69,5.74,5.74,0,0,0-1.55-2.79,3.2,3.2,0,0,0-4.14,0,5.73,5.73,0,0,0-1.55,2.79,30.71,30.71,0,0,0-1,5.69q-.36,3.66-.36,9.55Z"/><path class="cls-1" d="M484.58,509.7h13.16l12.33,38.2h.21V509.7h10.78V582H510.59l-14.41-43.79H496V582h-11.4Z"/><path class="cls-1" d="M542.61,509.7h13.47V582H542.61Z"/><path class="cls-1" d="M562.48,509.7h13.16L588,547.9h.21V509.7H599V582H588.49l-14.41-43.79h-.21V582h-11.4Z"/><path class="cls-1" d="M615.43,561.11q0,1.52.1,3.45a15.49,15.49,0,0,0,.62,3.66,6.62,6.62,0,0,0,1.71,2.89,4.61,4.61,0,0,0,3.37,1.17,5.49,5.49,0,0,0,2.8-.66,5.65,5.65,0,0,0,1.87-1.73,7.22,7.22,0,0,0,1-2.29,9.47,9.47,0,0,0,.31-2.34,9.73,9.73,0,0,0-1.81-5.79,28.39,28.39,0,0,0-4.51-4.88q-2.7-2.33-5.91-4.77a40.81,40.81,0,0,1-5.91-5.49,28.23,28.23,0,0,1-4.51-7,22.28,22.28,0,0,1-1.81-9.35,25.27,25.27,0,0,1,1.14-7.67,18.45,18.45,0,0,1,3.32-6.25,15.89,15.89,0,0,1,5.44-4.22,19.06,19.06,0,0,1,15.29.05,14,14,0,0,1,5.23,4.52,20.45,20.45,0,0,1,3,7,41.84,41.84,0,0,1,1.09,8.94h-12c0-1,0-2.15-.1-3.4a16.69,16.69,0,0,0-.57-3.55,6.15,6.15,0,0,0-1.61-2.79,4.26,4.26,0,0,0-3.11-1.12,4.37,4.37,0,0,0-3.73,1.83,7.86,7.86,0,0,0-1.35,4.78,9.39,9.39,0,0,0,1.81,5.59,29.42,29.42,0,0,0,4.51,4.93q2.69,2.39,5.91,4.93a42.43,42.43,0,0,1,5.91,5.69,30.23,30.23,0,0,1,4.51,7.11,22,22,0,0,1,1.81,9.25,24.66,24.66,0,0,1-1.19,7.77,18.22,18.22,0,0,1-3.52,6.3,16.62,16.62,0,0,1-5.8,4.27,19.29,19.29,0,0,1-8,1.58,16.44,16.44,0,0,1-8.76-2.08,15.43,15.43,0,0,1-5.29-5.33,21,21,0,0,1-2.59-7.21,45.93,45.93,0,0,1-.67-7.72Z"/><path class="cls-1" d="M650.35,520.88H638.74V509.7h36.68v11.18H663.82V582H650.35Z"/><path class="cls-1" d="M682,509.7h19.48L710.59,582h-13l-2-16.05H684.79L682.92,582H671.63Zm8.6,11.18h-.21l-4.25,34.54h8.39Z"/><path class="cls-1" d="M6.42,639a96,96,0,0,1,1.4-17.88,36.48,36.48,0,0,1,4-11.58A15.85,15.85,0,0,1,18,603.29a17.32,17.32,0,0,1,8.08-1.88,17.32,17.32,0,0,1,8.08,1.88,15.88,15.88,0,0,1,6.22,6.25,36.53,36.53,0,0,1,4,11.58A95.94,95.94,0,0,1,45.8,639a95.94,95.94,0,0,1-1.4,17.88,36.5,36.5,0,0,1-4,11.58,15.85,15.85,0,0,1-6.22,6.25,17.32,17.32,0,0,1-8.08,1.88A17.32,17.32,0,0,1,18,674.72a15.83,15.83,0,0,1-6.22-6.25,36.45,36.45,0,0,1-4-11.58A96,96,0,0,1,6.42,639Zm14.72,7.62q0,5.89.36,9.55a31.93,31.93,0,0,0,1,5.74A5.41,5.41,0,0,0,24,664.71a3.37,3.37,0,0,0,4.14,0,5.41,5.41,0,0,0,1.55-2.79,32.19,32.19,0,0,0,1-5.74q.36-3.66.36-9.55V631.38q0-5.89-.36-9.55a31,31,0,0,0-1-5.69,5.74,5.74,0,0,0-1.55-2.79,3.2,3.2,0,0,0-4.14,0,5.73,5.73,0,0,0-1.55,2.79,30.74,30.74,0,0,0-1,5.69q-.36,3.66-.36,9.55Z"/><path class="cls-1" d="M50.83,602.84H66a33.28,33.28,0,0,1,8.71,1.07,16.74,16.74,0,0,1,6.74,3.51,16.15,16.15,0,0,1,4.35,6.35,26.09,26.09,0,0,1,1.55,9.6,34.58,34.58,0,0,1-.36,4.88,23.05,23.05,0,0,1-1.3,5,18.8,18.8,0,0,1-2.44,4.47A12.3,12.3,0,0,1,79.43,641l8,34.14H73.84l-6.32-31.09H64.3v31.09H50.83ZM64.3,633.52H67a5.57,5.57,0,0,0,3.16-.86,7,7,0,0,0,2.12-2.24,9.86,9.86,0,0,0,1.19-3.2,19.33,19.33,0,0,0,.36-3.76q0-5.89-2-8a7.24,7.24,0,0,0-5.44-2.08H64.3Z"/><path class="cls-1" d="M100.88,602.84h12.23l4.77,42.47h.21l6.42-42.47h12.13l5.91,42.47h.21L148,602.84h9.64L148,675.17H135.81l-6.42-45.82h-.21l-6.63,45.82H110.73Z"/><path class="cls-1" d="M166.33,602.84h19.48l9.12,72.34H182l-2-16.05H169.13l-1.87,16.05H156Zm8.6,11.18h-.21l-4.25,34.54h8.39Z"/><path class="cls-1" d="M203.31,614H191.7V602.84h36.69V614H216.78v61.16H203.31Z"/><path class="cls-1" d="M252.91,629q0-9-1.19-12.75T248,612.59a3.83,3.83,0,0,0-2.07.66q-1,.66-1.81,3.3a44,44,0,0,0-1.24,7.93q-.47,5.29-.47,14.53,0,8.94.31,14.17a52.67,52.67,0,0,0,.93,8q.62,2.74,1.71,3.5a4.49,4.49,0,0,0,2.64.76q3.31,0,4.4-4.62a64.62,64.62,0,0,0,1.29-12.55l11.4.51a92.88,92.88,0,0,1-.52,9.7,28.05,28.05,0,0,1-2.38,8.94,17.09,17.09,0,0,1-5.34,6.6q-3.47,2.59-9.38,2.59a15.59,15.59,0,0,1-9.07-2.54,17.67,17.67,0,0,1-5.91-7.37,42.31,42.31,0,0,1-3.21-11.79,114.4,114.4,0,0,1-1-15.9,86.93,86.93,0,0,1,1.5-17.53,39.52,39.52,0,0,1,4.09-11.63,16.91,16.91,0,0,1,6.06-6.45,14.9,14.9,0,0,1,7.51-2q5.8,0,9.28,2.39a15.4,15.4,0,0,1,5.29,6.25,27.24,27.24,0,0,1,2.33,8.74,93.43,93.43,0,0,1,.52,9.86Z"/><path class="cls-1" d="M270.29,602.84h13.47v29.06h8.5V602.84h13.47v72.34H292.25V644.49h-8.5v30.68H270.29Z"/><path class="cls-1" d="M312.31,602.84h13.47v72.34H312.31Z"/><path class="cls-1" d="M332.18,602.84h13.16L357.68,641h.21v-38.2h10.78v72.34H358.19l-14.41-43.79h-.21v43.79h-11.4Z"/><path class="cls-1" d="M398.47,628.64q0-1.22.05-3.91a31.52,31.52,0,0,0-.36-5.38,15.61,15.61,0,0,0-1.45-4.72,3.4,3.4,0,0,0-3.21-2,3.69,3.69,0,0,0-2.33.86,7.14,7.14,0,0,0-1.87,3.61,43.67,43.67,0,0,0-1.19,7.93q-.42,5.18-.41,13.92,0,8.94.41,14.17a40.14,40.14,0,0,0,1.24,8,6.53,6.53,0,0,0,2,3.55,4.75,4.75,0,0,0,2.75.81,3.51,3.51,0,0,0,3-1.63,11,11,0,0,0,1.66-3.81,27.41,27.41,0,0,0,.67-4.42q.16-2.24.16-3.56h-5V641.44H411v33.73h-5.7l-1.87-4.78a16,16,0,0,1-4.35,4.27,10.87,10.87,0,0,1-6.32,1.93,15.59,15.59,0,0,1-9.07-2.54,17.67,17.67,0,0,1-5.91-7.37,42.31,42.31,0,0,1-3.21-11.79,114.4,114.4,0,0,1-1-15.9,86.93,86.93,0,0,1,1.5-17.53,39.52,39.52,0,0,1,4.09-11.63,16.91,16.91,0,0,1,6.06-6.45,14.9,14.9,0,0,1,7.51-2,23.4,23.4,0,0,1,6.43.91,13,13,0,0,1,5.7,3.4,18.15,18.15,0,0,1,4,6.91A34.68,34.68,0,0,1,410.5,624v4.67Z"/><path class="cls-1" d="M431.63,602.84h30.16V614H445.11v19.3h12.33V645.1H445.11v30.07H431.63Z"/><path class="cls-1" d="M462.39,639a96,96,0,0,1,1.4-17.88,36.48,36.48,0,0,1,4-11.58,15.85,15.85,0,0,1,6.22-6.25,18.33,18.33,0,0,1,16.17,0,15.88,15.88,0,0,1,6.22,6.25,36.53,36.53,0,0,1,4,11.58,114.94,114.94,0,0,1,0,35.76,36.5,36.5,0,0,1-4,11.58,15.85,15.85,0,0,1-6.22,6.25,18.31,18.31,0,0,1-16.17,0,15.83,15.83,0,0,1-6.22-6.25,36.45,36.45,0,0,1-4-11.58A96,96,0,0,1,462.39,639Zm14.71,7.62q0,5.89.36,9.55a31.93,31.93,0,0,0,1,5.74,5.41,5.41,0,0,0,1.55,2.79,3.37,3.37,0,0,0,4.14,0,5.41,5.41,0,0,0,1.55-2.79,32.19,32.19,0,0,0,1-5.74q.36-3.66.36-9.55V631.38q0-5.89-.36-9.55a31,31,0,0,0-1-5.69,5.74,5.74,0,0,0-1.55-2.79,3.2,3.2,0,0,0-4.14,0,5.73,5.73,0,0,0-1.55,2.79,30.74,30.74,0,0,0-1,5.69q-.36,3.66-.36,9.55Z"/><path class="cls-1" d="M505,639a95.94,95.94,0,0,1,1.4-17.88,36.48,36.48,0,0,1,4-11.58,15.85,15.85,0,0,1,6.22-6.25,18.33,18.33,0,0,1,16.17,0,15.88,15.88,0,0,1,6.22,6.25,36.53,36.53,0,0,1,4,11.58,114.94,114.94,0,0,1,0,35.76,36.5,36.5,0,0,1-4,11.58,15.85,15.85,0,0,1-6.22,6.25,18.31,18.31,0,0,1-16.17,0,15.83,15.83,0,0,1-6.22-6.25,36.45,36.45,0,0,1-4-11.58A95.94,95.94,0,0,1,505,639Zm14.72,7.62q0,5.89.36,9.55a31.93,31.93,0,0,0,1,5.74,5.41,5.41,0,0,0,1.55,2.79,3.37,3.37,0,0,0,4.14,0,5.41,5.41,0,0,0,1.55-2.79,32.19,32.19,0,0,0,1-5.74q.36-3.66.36-9.55V631.38q0-5.89-.36-9.55a31,31,0,0,0-1-5.69,5.74,5.74,0,0,0-1.55-2.79,3.2,3.2,0,0,0-4.14,0,5.73,5.73,0,0,0-1.55,2.79,30.74,30.74,0,0,0-1,5.69q-.36,3.66-.36,9.55Z"/><path class="cls-1" d="M556.16,614H544.55V602.84h36.68V614H569.63v61.16H556.16Z"/><path class="cls-1" d="M583.78,602.84h16.58a23,23,0,0,1,6.32.91,16,16,0,0,1,10.21,8.69,19.73,19.73,0,0,1,1.71,8.69,18.49,18.49,0,0,1-2.9,10.46q-2.9,4.37-9.12,5.69v.2q6.94,1.63,10.21,6.15a19,19,0,0,1,3.26,11.43,22.09,22.09,0,0,1-1.61,8.74,18.89,18.89,0,0,1-4.25,6.3,17.36,17.36,0,0,1-6.06,3.81,20.35,20.35,0,0,1-7.15,1.27h-17.2Zm13.47,29.67q5.08,0,6.79-2.34t1.71-7.21a27.9,27.9,0,0,0-.36-5A5.64,5.64,0,0,0,604,615a4.78,4.78,0,0,0-2.64-1.32,23.52,23.52,0,0,0-4.15-.3Zm0,32.1a16.06,16.06,0,0,0,4.87-.61,5.73,5.73,0,0,0,2.85-1.88,7,7,0,0,0,1.29-3.3,32.81,32.81,0,0,0,.31-4.88,23.83,23.83,0,0,0-.36-4.37,7.42,7.42,0,0,0-1.4-3.25,6.26,6.26,0,0,0-2.85-2,14.06,14.06,0,0,0-4.71-.66Z"/><path class="cls-1" d="M631.26,602.84h19.48l9.12,72.34h-13l-2-16.05H634.05l-1.87,16.05H620.89Zm8.6,11.18h-.21l-4.25,34.54h8.39Z"/><path class="cls-1" d="M663.21,602.84h13.47V664h17.2v11.18H663.21Z"/><path class="cls-1" d="M697.62,602.84h13.47V664h17.2v11.18H697.62Z"/><path class="cls-1" d="M733.13,662H746.6v13.21H733.13Z"/></g></g></svg>