<svg xmlns="http://www.w3.org/2000/svg" viewBox="0 0 641.38 246.25"><defs><style>.cls-1{fill:#fff;}</style></defs><title>2-TheModits</title><g id="Layer_2" data-name="Layer 2"><g id="Layer_1-2" data-name="Layer 1"><rect class="cls-1" x="3.04" width="151.92" height="16.82"/><path class="cls-1" d="M7.06,44.39H0V37.46H22.3v6.93H15.25V82.31H7.06Z"/><path class="cls-1" d="M24,37.46h8.19v18h5.17v-18h8.19V82.31H37.33v-19H32.17v19H24Z"/><path class="cls-1" d="M49.81,37.46H68.33v6.93H58V55.85h7.62v7.31H58V75.38H68.77v6.93h-19Z"/><path class="cls-1" d="M83.89,37.46h10.9l3.65,23h.13l3.84-23h10.65V82.31h-7.31V49.43h-.13l-5.54,32.89H95.54L90.06,49.43h-.13V82.31h-6Z"/><path class="cls-1" d="M116.16,59.89A60.77,60.77,0,0,1,117,48.8a22.94,22.94,0,0,1,2.43-7.18,9.74,9.74,0,0,1,3.78-3.87,10.94,10.94,0,0,1,9.83,0,9.75,9.75,0,0,1,3.78,3.87,22.92,22.92,0,0,1,2.43,7.18,60.68,60.68,0,0,1,.85,11.09A60.67,60.67,0,0,1,139.25,71a22.89,22.89,0,0,1-2.43,7.18A9.74,9.74,0,0,1,133,82a10.95,10.95,0,0,1-9.83,0,9.73,9.73,0,0,1-3.78-3.87A22.92,22.92,0,0,1,117,71,60.77,60.77,0,0,1,116.16,59.89Zm8.95,4.72q0,3.65.22,5.92a20.16,20.16,0,0,0,.6,3.56,3.37,3.37,0,0,0,.95,1.73,2,2,0,0,0,2.52,0,3.37,3.37,0,0,0,.95-1.73,20.35,20.35,0,0,0,.6-3.56q.22-2.27.22-5.92V55.16q0-3.65-.22-5.92a19.57,19.57,0,0,0-.6-3.53,3.58,3.58,0,0,0-.95-1.73,1.92,1.92,0,0,0-2.52,0,3.57,3.57,0,0,0-.95,1.73,19.4,19.4,0,0,0-.6,3.53q-.22,2.27-.22,5.92Z"/><path class="cls-1" d="M143.29,37.46h7.12a17.36,17.36,0,0,1,8.16,1.61,10.75,10.75,0,0,1,4.54,4.54,19.14,19.14,0,0,1,2,7.06q.41,4.13.41,9.23,0,4.85-.38,9A21.61,21.61,0,0,1,163.33,76a10.48,10.48,0,0,1-4.13,4.66,14.3,14.3,0,0,1-7.47,1.67h-8.44Zm8.19,37.93a6.9,6.9,0,0,0,3-.54,3.46,3.46,0,0,0,1.61-2.17,18.35,18.35,0,0,0,.66-4.69q.13-3.06.13-8.16t-.13-8.13a17.78,17.78,0,0,0-.66-4.63,3.45,3.45,0,0,0-1.61-2.14,6.92,6.92,0,0,0-3-.54Z"/><path class="cls-1" d="M168.91,37.46h8.19V82.31h-8.19Z"/><path class="cls-1" d="M187.29,69.34q0,.94.06,2.14a9.73,9.73,0,0,0,.38,2.27,4.13,4.13,0,0,0,1,1.8,2.77,2.77,0,0,0,2,.72,3.29,3.29,0,0,0,1.7-.41,3.47,3.47,0,0,0,1.13-1.07,4.54,4.54,0,0,0,.63-1.42,6,6,0,0,0,.19-1.45,6.12,6.12,0,0,0-1.1-3.59,17.44,17.44,0,0,0-2.74-3q-1.64-1.45-3.59-3a25,25,0,0,1-3.59-3.4,17.53,17.53,0,0,1-2.74-4.35,14.05,14.05,0,0,1-1.1-5.8A16,16,0,0,1,180.3,44a11.54,11.54,0,0,1,2-3.87,9.71,9.71,0,0,1,3.31-2.61,11.37,11.37,0,0,1,9.29,0,8.56,8.56,0,0,1,3.18,2.8,12.83,12.83,0,0,1,1.83,4.32,26.43,26.43,0,0,1,.66,5.54h-7.31c0-.63,0-1.33-.06-2.11a10.56,10.56,0,0,0-.35-2.21,3.84,3.84,0,0,0-1-1.73,2.56,2.56,0,0,0-1.89-.69,2.64,2.64,0,0,0-2.27,1.13,4.94,4.94,0,0,0-.82,3,5.91,5.91,0,0,0,1.1,3.46,18.2,18.2,0,0,0,2.74,3.06q1.64,1.48,3.59,3.06a26.06,26.06,0,0,1,3.59,3.53,18.83,18.83,0,0,1,2.74,4.41,13.91,13.91,0,0,1,1.1,5.73,15.56,15.56,0,0,1-.72,4.82,11.39,11.39,0,0,1-2.14,3.91,10.13,10.13,0,0,1-3.53,2.65,11.51,11.51,0,0,1-4.88,1,9.85,9.85,0,0,1-5.32-1.29A9.47,9.47,0,0,1,182,78.6a13.16,13.16,0,0,1-1.58-4.47,29,29,0,0,1-.41-4.79Z"/><path class="cls-1" d="M208.65,44.39h-7.06V37.46h22.3v6.93h-7.06V82.31h-8.19Z"/><path class="cls-1" d="M3.28,100.46H10.4a17.36,17.36,0,0,1,8.16,1.61,10.75,10.75,0,0,1,4.54,4.54,19.14,19.14,0,0,1,2,7.06q.41,4.13.41,9.23,0,4.85-.38,9A21.61,21.61,0,0,1,23.31,139a10.48,10.48,0,0,1-4.13,4.66,14.3,14.3,0,0,1-7.47,1.67H3.28Zm8.19,37.93a6.9,6.9,0,0,0,3-.54,3.46,3.46,0,0,0,1.61-2.17,18.35,18.35,0,0,0,.66-4.69q.13-3.06.13-8.16t-.13-8.13a17.78,17.78,0,0,0-.66-4.63,3.45,3.45,0,0,0-1.61-2.14,6.92,6.92,0,0,0-3-.54Z"/><path class="cls-1" d="M27.95,122.89a60.77,60.77,0,0,1,.85-11.09,22.94,22.94,0,0,1,2.43-7.18A9.74,9.74,0,0,1,35,100.74a10.94,10.94,0,0,1,9.83,0,9.75,9.75,0,0,1,3.78,3.87A22.92,22.92,0,0,1,51,111.8a60.68,60.68,0,0,1,.85,11.09A60.67,60.67,0,0,1,51,134a22.89,22.89,0,0,1-2.43,7.18A9.74,9.74,0,0,1,44.83,145,10.95,10.95,0,0,1,35,145a9.73,9.73,0,0,1-3.78-3.87A22.92,22.92,0,0,1,28.8,134,60.77,60.77,0,0,1,27.95,122.89Zm8.95,4.72q0,3.65.22,5.92a20.16,20.16,0,0,0,.6,3.56,3.37,3.37,0,0,0,.95,1.73,2,2,0,0,0,2.52,0,3.37,3.37,0,0,0,.95-1.73,20.35,20.35,0,0,0,.6-3.56q.22-2.27.22-5.92v-9.45q0-3.65-.22-5.92a19.57,19.57,0,0,0-.6-3.53,3.58,3.58,0,0,0-.95-1.73,1.92,1.92,0,0,0-2.52,0,3.57,3.57,0,0,0-.95,1.73,19.4,19.4,0,0,0-.6,3.53q-.22,2.27-.22,5.92Z"/><path class="cls-1" d="M67.89,100.46h8l7.5,23.69h.13V100.46h6.55v44.86H83.7l-8.76-27.15h-.13v27.15H67.89Z"/><path class="cls-1" d="M93.2,122.89a60.68,60.68,0,0,1,.85-11.09,22.92,22.92,0,0,1,2.43-7.18,9.73,9.73,0,0,1,3.78-3.87,10.94,10.94,0,0,1,9.83,0,9.76,9.76,0,0,1,3.78,3.87,23,23,0,0,1,2.43,7.18,60.76,60.76,0,0,1,.85,11.09,60.76,60.76,0,0,1-.85,11.09,22.94,22.94,0,0,1-2.43,7.18,9.75,9.75,0,0,1-3.78,3.88,10.95,10.95,0,0,1-9.83,0,9.73,9.73,0,0,1-3.78-3.87A22.89,22.89,0,0,1,94.05,134,60.67,60.67,0,0,1,93.2,122.89Zm8.95,4.72q0,3.65.22,5.92a20.18,20.18,0,0,0,.6,3.56,3.37,3.37,0,0,0,.95,1.73,2,2,0,0,0,2.52,0,3.37,3.37,0,0,0,.94-1.73,20.25,20.25,0,0,0,.6-3.56q.22-2.27.22-5.92v-9.45q0-3.65-.22-5.92a19.49,19.49,0,0,0-.6-3.53,3.58,3.58,0,0,0-.94-1.73,1.92,1.92,0,0,0-2.52,0,3.58,3.58,0,0,0-.95,1.73,19.41,19.41,0,0,0-.6,3.53q-.22,2.27-.22,5.92Z"/><path class="cls-1" d="M124.4,107.39h-7.06v-6.93h22.3v6.93h-7.06v37.93H124.4Z"/><path class="cls-1" d="M157.67,107.39h-7.06v-6.93h22.3v6.93h-7.06v37.93h-8.19Z"/><path class="cls-1" d="M174.59,100.46h18.52v6.93H182.78v11.47h7.62v7.31h-7.62v12.22h10.77v6.93h-19Z"/><path class="cls-1" d="M195.81,100.46H204v37.93h10.46v6.93H195.81Z"/><path class="cls-1" d="M216.87,100.46h8.19v37.93h10.46v6.93H216.87Z"/><path class="cls-1" d="M250.95,100.46h10.9l3.65,23h.13l3.84-23h10.65v44.86h-7.31V112.43h-.13l-5.54,32.89H262.6l-5.48-32.89H257v32.89h-6Z"/><path class="cls-1" d="M284.26,100.46h18.52v6.93H292.45v11.47h7.62v7.31h-7.62v12.22h10.77v6.93h-19Z"/><path class="cls-1" d="M4.83,179.84H.58v-4.18H14v4.18H9.77v22.88H4.83Z"/><path class="cls-1" d="M15.25,175.66h4.94v10.87H23.3V175.66h4.94v27.06H23.3V191.24H20.19v11.48H15.25Z"/><path class="cls-1" d="M31.05,175.66H42.22v4.18H36v6.92h4.6v4.41H36v7.37h6.5v4.18H31.05Z"/><path class="cls-1" d="M51.8,175.66h4.94v22.88H63v4.18H51.8Z"/><path class="cls-1" d="M67.87,175.66H75l3.34,27.06H73.61l-.72-6h-4l-.68,6H64.07ZM71,179.84h-.08l-1.56,12.92h3.08Z"/><path class="cls-1" d="M79.56,175.66H84.5V196.6a7.07,7.07,0,0,0,.06.89,2.35,2.35,0,0,0,.25.8,1.44,1.44,0,0,0,.53.57,1.65,1.65,0,0,0,.87.21,1.47,1.47,0,0,0,1.42-.74,3.59,3.59,0,0,0,.4-1.73V175.66h4.18V196q0,4-1.67,5.64a6.31,6.31,0,0,1-4.64,1.65,8,8,0,0,1-2.6-.4,5,5,0,0,1-2-1.25A5.7,5.7,0,0,1,80,199.35a11,11,0,0,1-.46-3.4Z"/><path class="cls-1" d="M94.83,175.66h4.83L104.18,190h.08V175.66h4v27.06h-3.84l-5.28-16.38H99v16.38H94.83Z"/><path class="cls-1" d="M119.32,185.47a17.91,17.91,0,0,0-.44-4.77q-.44-1.39-1.35-1.39a1.39,1.39,0,0,0-.76.25,2.21,2.21,0,0,0-.67,1.24,16.69,16.69,0,0,0-.46,3q-.17,2-.17,5.43t.11,5.3a20,20,0,0,0,.34,3,2.19,2.19,0,0,0,.63,1.31,1.63,1.63,0,0,0,1,.28q1.22,0,1.62-1.73a24.66,24.66,0,0,0,.47-4.69l4.18.19a35.55,35.55,0,0,1-.19,3.63,10.64,10.64,0,0,1-.87,3.34,6.37,6.37,0,0,1-2,2.47,5.55,5.55,0,0,1-3.44,1,5.63,5.63,0,0,1-3.32-1,6.58,6.58,0,0,1-2.17-2.75,16.11,16.11,0,0,1-1.18-4.41,43.77,43.77,0,0,1-.36-5.95,33.16,33.16,0,0,1,.55-6.55,15,15,0,0,1,1.5-4.35,6.27,6.27,0,0,1,2.22-2.41,5.38,5.38,0,0,1,2.75-.74,5.82,5.82,0,0,1,3.4.89,5.74,5.74,0,0,1,1.94,2.34,10.37,10.37,0,0,1,.85,3.27,35.48,35.48,0,0,1,.19,3.69Z"/><path class="cls-1" d="M126,175.66h4.94v10.87h3.12V175.66H139v27.06h-4.94V191.24h-3.12v11.48H126Z"/><path class="cls-1" d="M148.84,189.19a36.63,36.63,0,0,1,.51-6.69,13.81,13.81,0,0,1,1.46-4.33,5.87,5.87,0,0,1,2.28-2.34,6.6,6.6,0,0,1,5.93,0,5.88,5.88,0,0,1,2.28,2.34,13.84,13.84,0,0,1,1.46,4.33,43.88,43.88,0,0,1,0,13.38,13.83,13.83,0,0,1-1.46,4.33,5.88,5.88,0,0,1-2.28,2.34,6.6,6.6,0,0,1-5.93,0,5.87,5.87,0,0,1-2.28-2.34,13.8,13.8,0,0,1-1.46-4.33A36.65,36.65,0,0,1,148.84,189.19Zm5.4,2.85q0,2.2.13,3.57a12.18,12.18,0,0,0,.36,2.15,2,2,0,0,0,.57,1,1.22,1.22,0,0,0,1.52,0,2,2,0,0,0,.57-1,12.27,12.27,0,0,0,.36-2.15q.13-1.37.13-3.57v-5.7q0-2.2-.13-3.57a11.8,11.8,0,0,0-.36-2.13,2.16,2.16,0,0,0-.57-1,1.15,1.15,0,0,0-1.52,0,2.16,2.16,0,0,0-.57,1,11.71,11.71,0,0,0-.36,2.13q-.13,1.37-.13,3.57Z"/><path class="cls-1" d="M165.43,175.66h11.06v4.18h-6.12v7.22h4.52v4.41h-4.52v11.25h-4.94Z"/><path class="cls-1" d="M187.74,179.84h-4.26v-4.18h13.45v4.18h-4.26v22.88h-4.94Z"/><path class="cls-1" d="M198.15,175.66h4.94v10.87h3.12V175.66h4.94v27.06H206.2V191.24h-3.12v11.48h-4.94Z"/><path class="cls-1" d="M214,175.66h11.17v4.18h-6.23v6.92h4.6v4.41h-4.6v7.37h6.5v4.18H214Z"/><path class="cls-1" d="M233.25,175.66h4.48l1.75,15.88h.08l2.36-15.88h4.45l2.17,15.88h.08l1.94-15.88h3.53l-3.53,27.06h-4.48l-2.36-17.14h-.08l-2.43,17.14h-4.33Z"/><path class="cls-1" d="M254.63,189.19a36.63,36.63,0,0,1,.51-6.69,13.81,13.81,0,0,1,1.46-4.33,5.87,5.87,0,0,1,2.28-2.34,6.6,6.6,0,0,1,5.93,0,5.88,5.88,0,0,1,2.28,2.34,13.84,13.84,0,0,1,1.46,4.33,43.88,43.88,0,0,1,0,13.38,13.83,13.83,0,0,1-1.46,4.33,5.88,5.88,0,0,1-2.28,2.34,6.6,6.6,0,0,1-5.93,0,5.87,5.87,0,0,1-2.28-2.34,13.8,13.8,0,0,1-1.46-4.33A36.65,36.65,0,0,1,254.63,189.19ZM260,192q0,2.2.13,3.57a12.18,12.18,0,0,0,.36,2.15,2,2,0,0,0,.57,1,1.22,1.22,0,0,0,1.52,0,2,2,0,0,0,.57-1,12.27,12.27,0,0,0,.36-2.15q.13-1.37.13-3.57v-5.7q0-2.2-.13-3.57a11.8,11.8,0,0,0-.36-2.13,2.16,2.16,0,0,0-.57-1,1.15,1.15,0,0,0-1.52,0,2.16,2.16,0,0,0-.57,1,11.71,11.71,0,0,0-.36,2.13q-.13,1.37-.13,3.57Z"/><path class="cls-1" d="M271.21,175.66h5.55a12,12,0,0,1,3.19.4,6.11,6.11,0,0,1,2.47,1.31,6,6,0,0,1,1.6,2.38,9.93,9.93,0,0,1,.57,3.59,13.13,13.13,0,0,1-.13,1.82A8.77,8.77,0,0,1,284,187a7,7,0,0,1-.89,1.67A4.54,4.54,0,0,1,281.7,190l2.93,12.77h-5l-2.32-11.63h-1.18v11.63h-4.94Zm4.94,11.48h1a2,2,0,0,0,1.16-.32,2.6,2.6,0,0,0,.78-.84,3.72,3.72,0,0,0,.44-1.2,7.41,7.41,0,0,0,.13-1.41,4.42,4.42,0,0,0-.74-3,2.63,2.63,0,0,0-2-.78h-.76Z"/><path class="cls-1" d="M286.5,175.66h4.94v22.88h6.31v4.18H286.5Z"/><path class="cls-1" d="M299.42,175.66h4.29a10.47,10.47,0,0,1,4.92,1,6.48,6.48,0,0,1,2.74,2.74,11.53,11.53,0,0,1,1.18,4.26q.25,2.49.25,5.57,0,2.93-.23,5.42a13,13,0,0,1-1.06,4.29,6.32,6.32,0,0,1-2.49,2.81,8.63,8.63,0,0,1-4.5,1h-5.09Zm4.94,22.88a4.15,4.15,0,0,0,1.82-.32,2.09,2.09,0,0,0,1-1.31,11.07,11.07,0,0,0,.4-2.83q.08-1.84.08-4.92t-.08-4.9a10.74,10.74,0,0,0-.4-2.79,2.08,2.08,0,0,0-1-1.29,4.17,4.17,0,0,0-1.82-.32Z"/><path class="cls-1" d="M314.49,175.66h4.94v4.56l-2.93,6.08h-2l1.79-5.7h-1.82Z"/><path class="cls-1" d="M325.37,194.89c0,.38,0,.81,0,1.29a5.88,5.88,0,0,0,.23,1.37,2.5,2.5,0,0,0,.63,1.08,1.67,1.67,0,0,0,1.24.44,2,2,0,0,0,1-.25,2.1,2.1,0,0,0,.68-.65,2.73,2.73,0,0,0,.38-.86,3.59,3.59,0,0,0,.11-.87,3.69,3.69,0,0,0-.67-2.17,10.48,10.48,0,0,0-1.65-1.82q-1-.87-2.17-1.79a15.08,15.08,0,0,1-2.17-2.05A10.61,10.61,0,0,1,321.4,186a8.48,8.48,0,0,1-.67-3.5,9.66,9.66,0,0,1,.42-2.87,7,7,0,0,1,1.22-2.34,5.84,5.84,0,0,1,2-1.58,6.86,6.86,0,0,1,5.6,0,5.16,5.16,0,0,1,1.92,1.69A7.73,7.73,0,0,1,333,180a15.94,15.94,0,0,1,.4,3.34H329q0-.57,0-1.27a6.34,6.34,0,0,0-.21-1.33,2.3,2.3,0,0,0-.59-1,1.54,1.54,0,0,0-1.14-.42,1.59,1.59,0,0,0-1.37.68,3,3,0,0,0-.49,1.79,3.57,3.57,0,0,0,.67,2.09,11,11,0,0,0,1.65,1.84q1,.89,2.17,1.84a15.7,15.7,0,0,1,2.17,2.13,11.39,11.39,0,0,1,1.65,2.66,8.4,8.4,0,0,1,.66,3.46,9.39,9.39,0,0,1-.44,2.91,6.86,6.86,0,0,1-1.29,2.36,6.11,6.11,0,0,1-2.13,1.6,7,7,0,0,1-2.95.59,5.94,5.94,0,0,1-3.21-.78,5.7,5.7,0,0,1-1.94-2,7.92,7.92,0,0,1-1-2.7,17.5,17.5,0,0,1-.25-2.89Z"/><path class="cls-1" d="M343.42,175.66h4.94v22.88h6.31v4.18H343.42Z"/><path class="cls-1" d="M359.49,175.66h7.14L370,202.72h-4.75l-.72-6h-4l-.68,6h-4.14Zm3.15,4.18h-.08L361,192.76h3.08Z"/><path class="cls-1" d="M371.51,175.66h5.55a12,12,0,0,1,3.19.4,6.11,6.11,0,0,1,2.47,1.31,6,6,0,0,1,1.6,2.38,9.91,9.91,0,0,1,.57,3.59,13.28,13.28,0,0,1-.13,1.82,8.72,8.72,0,0,1-.48,1.86,7,7,0,0,1-.89,1.67A4.54,4.54,0,0,1,382,190l2.93,12.77h-5l-2.32-11.63h-1.18v11.63h-4.94Zm4.94,11.48h1a2,2,0,0,0,1.16-.32,2.6,2.6,0,0,0,.78-.84,3.74,3.74,0,0,0,.44-1.2,7.34,7.34,0,0,0,.13-1.41,4.42,4.42,0,0,0-.74-3,2.63,2.63,0,0,0-2-.78h-.76Z"/><path class="cls-1" d="M395.2,185.31q0-.46,0-1.46a12,12,0,0,0-.13-2,5.94,5.94,0,0,0-.53-1.77,1.24,1.24,0,0,0-1.18-.76,1.34,1.34,0,0,0-.86.32,2.69,2.69,0,0,0-.68,1.35,16.61,16.61,0,0,0-.44,3q-.15,1.94-.15,5.21t.15,5.3a15.31,15.31,0,0,0,.46,3,2.46,2.46,0,0,0,.74,1.33,1.72,1.72,0,0,0,1,.3,1.28,1.28,0,0,0,1.1-.61,4.15,4.15,0,0,0,.61-1.42,10.39,10.39,0,0,0,.25-1.65q.06-.83.06-1.33h-1.82v-4h6v12.62h-2.09l-.68-1.79a6,6,0,0,1-1.6,1.6,3.93,3.93,0,0,1-2.32.72,5.63,5.63,0,0,1-3.32-1,6.58,6.58,0,0,1-2.17-2.75,16.11,16.11,0,0,1-1.18-4.41,43.77,43.77,0,0,1-.36-5.95,33.16,33.16,0,0,1,.55-6.55,15,15,0,0,1,1.5-4.35,6.27,6.27,0,0,1,2.22-2.41,5.38,5.38,0,0,1,2.75-.74,8.43,8.43,0,0,1,2.36.34,4.75,4.75,0,0,1,2.09,1.27,6.8,6.8,0,0,1,1.48,2.58,13.22,13.22,0,0,1,.57,4.24v1.75Z"/><path class="cls-1" d="M402.19,175.66h11.17v4.18h-6.23v6.92h4.6v4.41h-4.6v7.37h6.5v4.18H402.19Z"/><path class="cls-1" d="M419,194.89c0,.38,0,.81,0,1.29a5.88,5.88,0,0,0,.23,1.37,2.5,2.5,0,0,0,.63,1.08,1.67,1.67,0,0,0,1.24.44,2,2,0,0,0,1-.25,2.1,2.1,0,0,0,.68-.65,2.73,2.73,0,0,0,.38-.86,3.59,3.59,0,0,0,.11-.87,3.69,3.69,0,0,0-.67-2.17,10.48,10.48,0,0,0-1.65-1.82q-1-.87-2.17-1.79a15.08,15.08,0,0,1-2.17-2.05A10.61,10.61,0,0,1,415,186a8.48,8.48,0,0,1-.67-3.5,9.66,9.66,0,0,1,.42-2.87A7,7,0,0,1,416,177.3a5.84,5.84,0,0,1,2-1.58,6.86,6.86,0,0,1,5.6,0,5.16,5.16,0,0,1,1.92,1.69,7.73,7.73,0,0,1,1.1,2.6,15.94,15.94,0,0,1,.4,3.34H422.6q0-.57,0-1.27a6.34,6.34,0,0,0-.21-1.33,2.3,2.3,0,0,0-.59-1,1.54,1.54,0,0,0-1.14-.42,1.59,1.59,0,0,0-1.37.68,3,3,0,0,0-.49,1.79,3.57,3.57,0,0,0,.67,2.09,11,11,0,0,0,1.65,1.84q1,.89,2.17,1.84a15.7,15.7,0,0,1,2.17,2.13,11.39,11.39,0,0,1,1.65,2.66,8.4,8.4,0,0,1,.66,3.46,9.39,9.39,0,0,1-.44,2.91,6.86,6.86,0,0,1-1.29,2.36,6.11,6.11,0,0,1-2.13,1.6,7,7,0,0,1-2.95.59,5.94,5.94,0,0,1-3.21-.78,5.7,5.7,0,0,1-1.94-2,7.92,7.92,0,0,1-1-2.7,17.5,17.5,0,0,1-.25-2.89Z"/><path class="cls-1" d="M432.07,179.84h-4.26v-4.18h13.45v4.18H437v22.88h-4.94Z"/><path class="cls-1" d="M449.13,189.19a36.54,36.54,0,0,1,.51-6.69,13.81,13.81,0,0,1,1.46-4.33,5.87,5.87,0,0,1,2.28-2.34,6.6,6.6,0,0,1,5.93,0,5.88,5.88,0,0,1,2.28,2.34,13.84,13.84,0,0,1,1.46,4.33,43.8,43.8,0,0,1,0,13.38,13.83,13.83,0,0,1-1.46,4.33,5.88,5.88,0,0,1-2.28,2.34,6.6,6.6,0,0,1-5.93,0,5.87,5.87,0,0,1-2.28-2.34,13.8,13.8,0,0,1-1.46-4.33A36.55,36.55,0,0,1,449.13,189.19Zm5.4,2.85q0,2.2.13,3.57a12.18,12.18,0,0,0,.36,2.15,2,2,0,0,0,.57,1,1.22,1.22,0,0,0,1.52,0,2,2,0,0,0,.57-1,12.18,12.18,0,0,0,.36-2.15q.13-1.37.13-3.57v-5.7q0-2.2-.13-3.57a11.71,11.71,0,0,0-.36-2.13,2.16,2.16,0,0,0-.57-1,1.16,1.16,0,0,0-1.52,0,2.16,2.16,0,0,0-.57,1,11.71,11.71,0,0,0-.36,2.13q-.13,1.37-.13,3.57Z"/><path class="cls-1" d="M465.62,175.66h4.83L475,190H475V175.66h4v27.06h-3.84l-5.28-16.38h-.08v16.38h-4.18Z"/><path class="cls-1" d="M481.74,175.66h4.94v22.88H493v4.18H481.74Z"/><path class="cls-1" d="M494.57,175.66h4.94v27.06h-4.94Z"/><path class="cls-1" d="M502.15,175.66H507L511.5,190h.08V175.66h4v27.06h-3.84l-5.28-16.38h-.08v16.38h-4.18Z"/><path class="cls-1" d="M518.26,175.66h11.17v4.18H523.2v6.92h4.6v4.41h-4.6v7.37h6.5v4.18H518.26Z"/><path class="cls-1" d="M539,175.66h5.55a12,12,0,0,1,3.19.4,6.11,6.11,0,0,1,2.47,1.31,6,6,0,0,1,1.6,2.38,9.93,9.93,0,0,1,.57,3.59,13.13,13.13,0,0,1-.13,1.82,8.77,8.77,0,0,1-.47,1.86,7,7,0,0,1-.89,1.67A4.54,4.54,0,0,1,549.5,190l2.93,12.77h-5l-2.32-11.63H544v11.63H539ZM544,187.14h1a2,2,0,0,0,1.16-.32,2.6,2.6,0,0,0,.78-.84,3.72,3.72,0,0,0,.44-1.2,7.41,7.41,0,0,0,.13-1.41,4.42,4.42,0,0,0-.74-3,2.63,2.63,0,0,0-2-.78H544Z"/><path class="cls-1" d="M554.3,175.66h11.17v4.18h-6.23v6.92h4.6v4.41h-4.6v7.37h6.5v4.18H554.3Z"/><path class="cls-1" d="M570.49,179.84h-4.26v-4.18h13.45v4.18h-4.26v22.88h-4.94Z"/><path class="cls-1" d="M582.43,175.66h7.14l3.34,27.06h-4.75l-.72-6h-4l-.68,6h-4.14Zm3.15,4.18h-.08l-1.56,12.92H587Z"/><path class="cls-1" d="M594.35,175.66h4.94v27.06h-4.94Z"/><path class="cls-1" d="M602,175.66H607v22.88h6.31v4.18H602Z"/><path class="cls-1" d="M614.95,175.66h11.17v4.18h-6.23v6.92h4.6v4.41h-4.6v7.37h6.5v4.18H614.95Z"/><path class="cls-1" d="M628,175.66h5.55a12,12,0,0,1,3.19.4,6.11,6.11,0,0,1,2.47,1.31,6,6,0,0,1,1.6,2.38,9.91,9.91,0,0,1,.57,3.59,13.28,13.28,0,0,1-.13,1.82,8.72,8.72,0,0,1-.48,1.86,7,7,0,0,1-.89,1.67,4.54,4.54,0,0,1-1.39,1.25l2.93,12.77h-5l-2.32-11.63h-1.18v11.63H628Zm4.94,11.48h1a2,2,0,0,0,1.16-.32,2.6,2.6,0,0,0,.78-.84,3.74,3.74,0,0,0,.44-1.2,7.34,7.34,0,0,0,.13-1.41,4.42,4.42,0,0,0-.74-3,2.63,2.63,0,0,0-2-.78h-.76Z"/><path class="cls-1" d="M1.83,232.19a36.54,36.54,0,0,1,.51-6.69,13.81,13.81,0,0,1,1.46-4.33,5.87,5.87,0,0,1,2.28-2.34,6.24,6.24,0,0,1,3-.7,6.25,6.25,0,0,1,3,.7,5.88,5.88,0,0,1,2.28,2.34,13.84,13.84,0,0,1,1.46,4.33,36.54,36.54,0,0,1,.51,6.69,36.55,36.55,0,0,1-.51,6.69,13.83,13.83,0,0,1-1.46,4.33A5.88,5.88,0,0,1,12,245.55a6.25,6.25,0,0,1-3,.7,6.24,6.24,0,0,1-3-.7,5.87,5.87,0,0,1-2.28-2.34,13.8,13.8,0,0,1-1.46-4.33A36.55,36.55,0,0,1,1.83,232.19ZM7.23,235q0,2.2.13,3.57a12.18,12.18,0,0,0,.36,2.15,2,2,0,0,0,.57,1,1.22,1.22,0,0,0,1.52,0,2,2,0,0,0,.57-1,12.18,12.18,0,0,0,.36-2.15q.13-1.37.13-3.57v-5.7q0-2.2-.13-3.57a11.71,11.71,0,0,0-.36-2.13,2.16,2.16,0,0,0-.57-1,1.16,1.16,0,0,0-1.52,0,2.16,2.16,0,0,0-.57,1,11.71,11.71,0,0,0-.36,2.13q-.13,1.37-.13,3.57Z"/><path class="cls-1" d="M18.42,218.66H29.48v4.18H23.36v7.22h4.52v4.41H23.36v11.25H18.42Z"/><path class="cls-1" d="M38.44,218.66h4.94v10.87H46.5V218.66h4.94v27.06H46.5V234.24H43.38v11.48H38.44Z"/><path class="cls-1" d="M54.15,218.66h4.94v27.06H54.15Z"/><path class="cls-1" d="M70.34,228.31q0-.46,0-1.46a12,12,0,0,0-.13-2,5.94,5.94,0,0,0-.53-1.77,1.25,1.25,0,0,0-1.18-.76,1.34,1.34,0,0,0-.85.32A2.68,2.68,0,0,0,67,224a16.62,16.62,0,0,0-.44,3q-.15,1.94-.15,5.21t.15,5.3a15.24,15.24,0,0,0,.46,3,2.44,2.44,0,0,0,.74,1.33,1.72,1.72,0,0,0,1,.3,1.28,1.28,0,0,0,1.1-.61,4.15,4.15,0,0,0,.61-1.42,10.51,10.51,0,0,0,.25-1.65q.06-.83.06-1.33H68.94v-4h6v12.62H72.85l-.68-1.79a6,6,0,0,1-1.6,1.6,3.93,3.93,0,0,1-2.32.72,5.63,5.63,0,0,1-3.33-1,6.59,6.59,0,0,1-2.17-2.75,16.07,16.07,0,0,1-1.18-4.41,43.6,43.6,0,0,1-.36-5.95,33.16,33.16,0,0,1,.55-6.55,15,15,0,0,1,1.5-4.35,6.27,6.27,0,0,1,2.22-2.41,5.38,5.38,0,0,1,2.75-.74,8.43,8.43,0,0,1,2.36.34,4.75,4.75,0,0,1,2.09,1.27,6.81,6.81,0,0,1,1.48,2.58,13.22,13.22,0,0,1,.57,4.24v1.75Z"/><path class="cls-1" d="M77.33,218.66h4.94v10.87h3.12V218.66h4.94v27.06H85.39V234.24H82.27v11.48H77.33Z"/><path class="cls-1" d="M100.89,218.66H112v4.18h-6.12v7.22h4.52v4.41h-4.52v11.25h-4.94Z"/><path class="cls-1" d="M114.89,218.66H122l3.34,27.06h-4.75l-.72-6h-4l-.68,6h-4.14Zm3.15,4.18H118l-1.56,12.92h3.08Z"/><path class="cls-1" d="M130.45,237.89c0,.38,0,.81,0,1.29a5.88,5.88,0,0,0,.23,1.37,2.48,2.48,0,0,0,.63,1.08,1.67,1.67,0,0,0,1.23.44,2,2,0,0,0,1-.25,2.09,2.09,0,0,0,.68-.65,2.69,2.69,0,0,0,.38-.86,3.59,3.59,0,0,0,.11-.87,3.68,3.68,0,0,0-.67-2.17,10.47,10.47,0,0,0-1.65-1.82q-1-.87-2.17-1.79a15,15,0,0,1-2.17-2.05,10.58,10.58,0,0,1-1.65-2.62,8.48,8.48,0,0,1-.67-3.5,9.62,9.62,0,0,1,.42-2.87,6.94,6.94,0,0,1,1.22-2.34,5.86,5.86,0,0,1,2-1.58,6.87,6.87,0,0,1,5.61,0,5.17,5.17,0,0,1,1.92,1.69,7.75,7.75,0,0,1,1.1,2.6,15.94,15.94,0,0,1,.4,3.34h-4.41c0-.38,0-.8,0-1.27a6.34,6.34,0,0,0-.21-1.33,2.31,2.31,0,0,0-.59-1,1.54,1.54,0,0,0-1.14-.42,1.59,1.59,0,0,0-1.37.68,3,3,0,0,0-.49,1.79,3.57,3.57,0,0,0,.67,2.09,11,11,0,0,0,1.65,1.84q1,.89,2.17,1.84a15.7,15.7,0,0,1,2.17,2.13,11.33,11.33,0,0,1,1.65,2.66,8.38,8.38,0,0,1,.67,3.46,9.39,9.39,0,0,1-.44,2.91,6.85,6.85,0,0,1-1.29,2.36,6.11,6.11,0,0,1-2.13,1.6,6.94,6.94,0,0,1-2.94.59,5.94,5.94,0,0,1-3.21-.78,5.7,5.7,0,0,1-1.94-2,8,8,0,0,1-1-2.7,17.5,17.5,0,0,1-.25-2.89Z"/><path class="cls-1" d="M140.84,218.66h4.94v10.87h3.12V218.66h4.94v27.06H148.9V234.24h-3.12v11.48h-4.94Z"/><path class="cls-1" d="M156.55,218.66h4.94v27.06h-4.94Z"/><path class="cls-1" d="M163.63,232.19a36.63,36.63,0,0,1,.51-6.69,13.81,13.81,0,0,1,1.46-4.33,5.87,5.87,0,0,1,2.28-2.34,6.6,6.6,0,0,1,5.93,0,5.88,5.88,0,0,1,2.28,2.34,13.84,13.84,0,0,1,1.46,4.33,43.88,43.88,0,0,1,0,13.38,13.83,13.83,0,0,1-1.46,4.33,5.88,5.88,0,0,1-2.28,2.34,6.6,6.6,0,0,1-5.93,0,5.87,5.87,0,0,1-2.28-2.34,13.8,13.8,0,0,1-1.46-4.33A36.65,36.65,0,0,1,163.63,232.19ZM169,235q0,2.2.13,3.57a12.18,12.18,0,0,0,.36,2.15,2,2,0,0,0,.57,1,1.22,1.22,0,0,0,1.52,0,2,2,0,0,0,.57-1,12.27,12.27,0,0,0,.36-2.15q.13-1.37.13-3.57v-5.7q0-2.2-.13-3.57a11.8,11.8,0,0,0-.36-2.13,2.16,2.16,0,0,0-.57-1,1.15,1.15,0,0,0-1.52,0,2.16,2.16,0,0,0-.57,1,11.71,11.71,0,0,0-.36,2.13q-.13,1.37-.13,3.57Z"/><path class="cls-1" d="M180.12,218.66h4.83L189.47,233h.08V218.66h4v27.06h-3.84l-5.28-16.38h-.08v16.38h-4.18Z"/><path class="cls-1" d="M212.15,228.47a17.92,17.92,0,0,0-.44-4.77q-.44-1.39-1.35-1.39a1.39,1.39,0,0,0-.76.25,2.22,2.22,0,0,0-.67,1.24,16.78,16.78,0,0,0-.46,3q-.17,2-.17,5.43t.11,5.3a20.21,20.21,0,0,0,.34,3,2.2,2.2,0,0,0,.63,1.31,1.63,1.63,0,0,0,1,.28q1.21,0,1.61-1.73a24.64,24.64,0,0,0,.48-4.69l4.18.19a35.28,35.28,0,0,1-.19,3.63,10.64,10.64,0,0,1-.87,3.34,6.36,6.36,0,0,1-2,2.47,5.54,5.54,0,0,1-3.44,1,5.63,5.63,0,0,1-3.33-1,6.59,6.59,0,0,1-2.17-2.75,16.07,16.07,0,0,1-1.18-4.41,43.6,43.6,0,0,1-.36-5.95,33.16,33.16,0,0,1,.55-6.55,15,15,0,0,1,1.5-4.35,6.27,6.27,0,0,1,2.22-2.41,5.38,5.38,0,0,1,2.75-.74,5.82,5.82,0,0,1,3.4.89,5.74,5.74,0,0,1,1.94,2.34,10.37,10.37,0,0,1,.86,3.27,35.75,35.75,0,0,1,.19,3.69Z"/><path class="cls-1" d="M218.84,218.66h4.94v22.88h6.31v4.18H218.84Z"/><path class="cls-1" d="M230.86,232.19a36.54,36.54,0,0,1,.51-6.69,13.81,13.81,0,0,1,1.46-4.33,5.87,5.87,0,0,1,2.28-2.34,6.6,6.6,0,0,1,5.93,0,5.88,5.88,0,0,1,2.28,2.34,13.84,13.84,0,0,1,1.46,4.33,43.8,43.8,0,0,1,0,13.38,13.83,13.83,0,0,1-1.46,4.33,5.88,5.88,0,0,1-2.28,2.34,6.6,6.6,0,0,1-5.93,0,5.87,5.87,0,0,1-2.28-2.34,13.8,13.8,0,0,1-1.46-4.33A36.55,36.55,0,0,1,230.86,232.19Zm5.4,2.85q0,2.2.13,3.57a12.18,12.18,0,0,0,.36,2.15,2,2,0,0,0,.57,1,1.22,1.22,0,0,0,1.52,0,2,2,0,0,0,.57-1,12.18,12.18,0,0,0,.36-2.15q.13-1.37.13-3.57v-5.7q0-2.2-.13-3.57a11.71,11.71,0,0,0-.36-2.13,2.16,2.16,0,0,0-.57-1,1.16,1.16,0,0,0-1.52,0,2.16,2.16,0,0,0-.57,1,11.71,11.71,0,0,0-.36,2.13q-.13,1.37-.13,3.57Z"/><path class="cls-1" d="M249.9,222.84h-4.26v-4.18h13.45v4.18h-4.26v22.88H249.9Z"/><path class="cls-1" d="M260.31,218.66h4.94v10.87h3.12V218.66h4.94v27.06h-4.94V234.24h-3.12v11.48h-4.94Z"/><path class="cls-1" d="M276,218.66H281v27.06H276Z"/><path class="cls-1" d="M283.6,218.66h4.83L293,233H293V218.66h4v27.06h-3.84l-5.28-16.38h-.08v16.38H283.6Z"/><path class="cls-1" d="M308.21,228.31q0-.46,0-1.46a12,12,0,0,0-.13-2,5.94,5.94,0,0,0-.53-1.77,1.25,1.25,0,0,0-1.18-.76,1.34,1.34,0,0,0-.85.32,2.68,2.68,0,0,0-.68,1.35,16.62,16.62,0,0,0-.44,3q-.15,1.94-.15,5.21t.15,5.3a15.24,15.24,0,0,0,.46,3,2.44,2.44,0,0,0,.74,1.33,1.72,1.72,0,0,0,1,.3,1.28,1.28,0,0,0,1.1-.61,4.15,4.15,0,0,0,.61-1.42,10.51,10.51,0,0,0,.25-1.65q.06-.83.06-1.33H306.8v-4h6v12.62h-2.09l-.68-1.79a6,6,0,0,1-1.6,1.6,3.93,3.93,0,0,1-2.32.72,5.63,5.63,0,0,1-3.33-1,6.59,6.59,0,0,1-2.17-2.75,16.07,16.07,0,0,1-1.18-4.41,43.6,43.6,0,0,1-.36-5.95,33.16,33.16,0,0,1,.55-6.55,15,15,0,0,1,1.5-4.35,6.27,6.27,0,0,1,2.22-2.41,5.38,5.38,0,0,1,2.75-.74,8.43,8.43,0,0,1,2.36.34,4.75,4.75,0,0,1,2.09,1.27,6.81,6.81,0,0,1,1.48,2.58,13.22,13.22,0,0,1,.57,4.24v1.75Z"/><path class="cls-1" d="M322.64,218.66H333.7v4.18h-6.12v7.22h4.52v4.41h-4.52v11.25h-4.94Z"/><path class="cls-1" d="M334.22,232.19a36.54,36.54,0,0,1,.51-6.69,13.81,13.81,0,0,1,1.46-4.33,5.87,5.87,0,0,1,2.28-2.34,6.6,6.6,0,0,1,5.93,0,5.88,5.88,0,0,1,2.28,2.34,13.84,13.84,0,0,1,1.46,4.33,43.8,43.8,0,0,1,0,13.38,13.83,13.83,0,0,1-1.46,4.33,5.88,5.88,0,0,1-2.28,2.34,6.6,6.6,0,0,1-5.93,0,5.87,5.87,0,0,1-2.28-2.34,13.8,13.8,0,0,1-1.46-4.33A36.55,36.55,0,0,1,334.22,232.19Zm5.4,2.85q0,2.2.13,3.57a12.18,12.18,0,0,0,.36,2.15,2,2,0,0,0,.57,1,1.22,1.22,0,0,0,1.52,0,2,2,0,0,0,.57-1,12.18,12.18,0,0,0,.36-2.15q.13-1.37.13-3.57v-5.7q0-2.2-.13-3.57a11.71,11.71,0,0,0-.36-2.13,2.16,2.16,0,0,0-.57-1,1.16,1.16,0,0,0-1.52,0,2.16,2.16,0,0,0-.57,1,11.71,11.71,0,0,0-.36,2.13q-.13,1.37-.13,3.57Z"/><path class="cls-1" d="M350.81,218.66h5.55a12,12,0,0,1,3.19.4,6.11,6.11,0,0,1,2.47,1.31,6,6,0,0,1,1.6,2.38,9.91,9.91,0,0,1,.57,3.59,13.28,13.28,0,0,1-.13,1.82,8.72,8.72,0,0,1-.48,1.86,7,7,0,0,1-.89,1.67A4.54,4.54,0,0,1,361.3,233l2.93,12.77h-5l-2.32-11.63h-1.18v11.63h-4.94Zm4.94,11.48h1a2,2,0,0,0,1.16-.32,2.6,2.6,0,0,0,.78-.84,3.74,3.74,0,0,0,.44-1.2,7.34,7.34,0,0,0,.13-1.41,4.42,4.42,0,0,0-.74-3,2.63,2.63,0,0,0-2-.78h-.76Z"/><path class="cls-1" d="M375.93,222.84h-4.26v-4.18h13.45v4.18h-4.26v22.88h-4.94Z"/><path class="cls-1" d="M386.34,218.66h4.94v10.87h3.12V218.66h4.94v27.06h-4.94V234.24h-3.12v11.48h-4.94Z"/><path class="cls-1" d="M402.14,218.66h11.17v4.18h-6.23v6.92h4.6v4.41h-4.6v7.37h6.5v4.18H402.14Z"/><path class="cls-1" d="M422.7,218.66h6.57l2.2,13.87h.08l2.32-13.87h6.42v27.06h-4.41V225.88h-.08l-3.34,19.84h-2.74l-3.31-19.84h-.08v19.84H422.7Z"/><path class="cls-1" d="M442.38,232.19a36.63,36.63,0,0,1,.51-6.69,13.81,13.81,0,0,1,1.46-4.33,5.87,5.87,0,0,1,2.28-2.34,6.6,6.6,0,0,1,5.93,0,5.88,5.88,0,0,1,2.28,2.34,13.84,13.84,0,0,1,1.46,4.33,43.88,43.88,0,0,1,0,13.38,13.83,13.83,0,0,1-1.46,4.33,5.88,5.88,0,0,1-2.28,2.34,6.6,6.6,0,0,1-5.93,0,5.87,5.87,0,0,1-2.28-2.34,13.8,13.8,0,0,1-1.46-4.33A36.65,36.65,0,0,1,442.38,232.19Zm5.4,2.85q0,2.2.13,3.57a12.18,12.18,0,0,0,.36,2.15,2,2,0,0,0,.57,1,1.22,1.22,0,0,0,1.52,0,2,2,0,0,0,.57-1,12.27,12.27,0,0,0,.36-2.15q.13-1.37.13-3.57v-5.7q0-2.2-.13-3.57a11.8,11.8,0,0,0-.36-2.13,2.16,2.16,0,0,0-.57-1,1.15,1.15,0,0,0-1.52,0,2.16,2.16,0,0,0-.57,1,11.71,11.71,0,0,0-.36,2.13q-.13,1.37-.13,3.57Z"/><path class="cls-1" d="M459,218.66h4.29a10.47,10.47,0,0,1,4.92,1,6.48,6.48,0,0,1,2.74,2.74,11.51,11.51,0,0,1,1.18,4.26q.25,2.49.25,5.57,0,2.93-.23,5.42a13,13,0,0,1-1.06,4.29,6.32,6.32,0,0,1-2.49,2.81,8.63,8.63,0,0,1-4.5,1H459Zm4.94,22.88a4.16,4.16,0,0,0,1.82-.32,2.09,2.09,0,0,0,1-1.31,11.11,11.11,0,0,0,.4-2.83q.07-1.84.08-4.92t-.08-4.9a10.78,10.78,0,0,0-.4-2.79,2.08,2.08,0,0,0-1-1.29,4.17,4.17,0,0,0-1.82-.32Z"/><path class="cls-1" d="M474.7,218.66h11.17v4.18h-6.23v6.92h4.6v4.41h-4.6v7.37h6.5v4.18H474.7Z"/><path class="cls-1" d="M491.5,237.89c0,.38,0,.81,0,1.29a5.88,5.88,0,0,0,.23,1.37,2.5,2.5,0,0,0,.63,1.08,1.67,1.67,0,0,0,1.24.44,2,2,0,0,0,1-.25,2.1,2.1,0,0,0,.68-.65,2.73,2.73,0,0,0,.38-.86,3.59,3.59,0,0,0,.11-.87,3.69,3.69,0,0,0-.67-2.17,10.48,10.48,0,0,0-1.65-1.82q-1-.87-2.17-1.79a15.08,15.08,0,0,1-2.17-2.05,10.61,10.61,0,0,1-1.65-2.62,8.48,8.48,0,0,1-.67-3.5,9.66,9.66,0,0,1,.42-2.87,7,7,0,0,1,1.22-2.34,5.84,5.84,0,0,1,2-1.58,6.86,6.86,0,0,1,5.6,0,5.16,5.16,0,0,1,1.92,1.69,7.73,7.73,0,0,1,1.1,2.6,15.94,15.94,0,0,1,.4,3.34h-4.41q0-.57,0-1.27a6.34,6.34,0,0,0-.21-1.33,2.3,2.3,0,0,0-.59-1,1.54,1.54,0,0,0-1.14-.42,1.59,1.59,0,0,0-1.37.68,3,3,0,0,0-.49,1.79,3.57,3.57,0,0,0,.67,2.09,11,11,0,0,0,1.65,1.84q1,.89,2.17,1.84a15.7,15.7,0,0,1,2.17,2.13,11.39,11.39,0,0,1,1.65,2.66,8.4,8.4,0,0,1,.66,3.46,9.39,9.39,0,0,1-.44,2.91,6.86,6.86,0,0,1-1.29,2.36,6.11,6.11,0,0,1-2.13,1.6,7,7,0,0,1-2.95.59,5.94,5.94,0,0,1-3.21-.78,5.7,5.7,0,0,1-1.94-2,7.92,7.92,0,0,1-1-2.7,17.5,17.5,0,0,1-.25-2.89Z"/><path class="cls-1" d="M504.58,222.84h-4.26v-4.18h13.45v4.18h-4.26v22.88h-4.94Z"/><path class="cls-1" d="M520.92,218.66h4.48l1.75,15.88h.08l2.36-15.88H534l2.17,15.88h.08l1.94-15.88h3.53l-3.53,27.06h-4.48l-2.36-17.14h-.08l-2.43,17.14h-4.33Z"/><path class="cls-1" d="M542.29,232.19a36.63,36.63,0,0,1,.51-6.69,13.81,13.81,0,0,1,1.46-4.33,5.87,5.87,0,0,1,2.28-2.34,6.6,6.6,0,0,1,5.93,0,5.88,5.88,0,0,1,2.28,2.34,13.84,13.84,0,0,1,1.46,4.33,43.88,43.88,0,0,1,0,13.38,13.83,13.83,0,0,1-1.46,4.33,5.88,5.88,0,0,1-2.28,2.34,6.6,6.6,0,0,1-5.93,0,5.87,5.87,0,0,1-2.28-2.34,13.8,13.8,0,0,1-1.46-4.33A36.65,36.65,0,0,1,542.29,232.19Zm5.4,2.85q0,2.2.13,3.57a12.18,12.18,0,0,0,.36,2.15,2,2,0,0,0,.57,1,1.22,1.22,0,0,0,1.52,0,2,2,0,0,0,.57-1,12.27,12.27,0,0,0,.36-2.15q.13-1.37.13-3.57v-5.7q0-2.2-.13-3.57a11.8,11.8,0,0,0-.36-2.13,2.16,2.16,0,0,0-.57-1,1.15,1.15,0,0,0-1.52,0,2.16,2.16,0,0,0-.57,1,11.71,11.71,0,0,0-.36,2.13q-.13,1.37-.13,3.57Z"/><path class="cls-1" d="M558.79,218.66h6.57l2.2,13.87h.08L570,218.66h6.42v27.06H572V225.88h-.08l-3.34,19.84h-2.74l-3.31-19.84h-.08v19.84h-3.65Z"/><path class="cls-1" d="M581.6,218.66h7.14l3.34,27.06h-4.75l-.72-6h-4l-.68,6H577.8Zm3.15,4.18h-.08l-1.56,12.92h3.08Z"/><path class="cls-1" d="M593.53,218.66h4.83L602.87,233h.08V218.66h4v27.06h-3.84l-5.28-16.38h-.08v16.38h-4.18Z"/><path class="cls-1" d="M609.44,240.78h4.94v4.94h-4.94Z"/></g></g></svg>