<svg xmlns="http://www.w3.org/2000/svg" viewBox="0 0 726.13 1046.24"><defs><style>.the-work-fill{fill:#da2128;}</style></defs><title>Thework</title><g id="Layer_2" data-name="Layer 2"><g id="Layer_1-2" data-name="Layer 1"><path class="the-work-fill" d="M7.16,7.92H0V.9H22.62v7H15.46V46.38H7.16Z"/><path class="the-work-fill" d="M25.68.9H34V19.17h5.24V.9h8.31V46.38H39.23V27.09H34V46.38H25.68Z"/><path class="the-work-fill" d="M53.18.9H72v7H61.48V19.55h7.73V27H61.48V39.35H72.4v7H53.18Z"/><path class="the-work-fill" d="M86.89.9h7.54l2.94,26.7h.13l4-26.7h7.47l3.64,26.7h.13L116,.9h5.94L116,46.38h-7.54l-4-28.81h-.12l-4.09,28.81H93Z"/><path class="the-work-fill" d="M135.91,0C143.25,0,148,5.69,148,23.64s-4.79,23.64-12.14,23.64-12.14-5.69-12.14-23.64S128.56,0,135.91,0Zm-3.07,28.43c0,9.84,1.15,11.82,3.07,11.82s3.06-2,3.06-11.82V18.85C139,9,137.82,7,135.91,7s-3.07,2-3.07,11.82Z"/><path class="the-work-fill" d="M152.62.9h9.33c7.92,0,13.16,3.32,13.16,12.9,0,3.83-1.15,8.94-4.86,11.12l4.92,21.46h-8.37l-3.9-19.55h-2V46.38h-8.31Zm8.31,19.29h1.66c3.06,0,4.22-3.07,4.22-6.32,0-4.92-1.79-6.32-4.6-6.32h-1.28Z"/><path class="the-work-fill" d="M179.14.9h8.31v19h.13l6.9-19h7.41l-6.2,15.27,7.47,30.22h-8L190.58,26h-.13l-3,7.16V46.38h-8.31Z"/><path class="the-work-fill" d="M1.05,153H33.34L45.92,267.36h.55L63.43,153h32L111,267.36h.55l14-114.37H151L125.55,347.8H93.26l-17-123.4h-.55L58.24,347.8H27Z"/><path class="the-work-fill" d="M160.25,153H240.7v30.1H195.82v49.8h33.11v31.74H195.82V317.7h46.79v30.1H160.25Z"/><path class="the-work-fill" d="M287.76,153h35.57V317.7h45.42v30.1h-81Z"/><path class="the-work-fill" d="M425,149.16c31.47,0,52,24.35,52,101.24s-20.52,101.24-52,101.24-52-24.35-52-101.24S393.51,149.16,425,149.16ZM411.84,270.92c0,42.14,4.92,50.62,13.13,50.62s13.13-8.48,13.13-50.62v-41c0-42.14-4.92-50.62-13.13-50.62s-13.13,8.48-13.13,50.62Z"/><path class="the-work-fill" d="M478.31,153h34.75L529.75,289.8h.55L548.63,153h28.73L548.09,347.8H507.32Z"/><path class="the-work-fill" d="M586.45,153h80.44v30.1H622v49.8h33.11v31.74H622V317.7h46.79v30.1H586.45Z"/><path class="the-work-fill" d="M1.05,384.52H33.34L45.92,498.89h.55l17-114.37h32L111,498.89h.55l14-114.37H151L125.55,579.34H93.26l-17-123.4h-.55L58.24,579.34H27Z"/><path class="the-work-fill" d="M160.25,384.52h35.57v78.25h22.44V384.52h35.57V579.34H218.26V496.71H195.82v82.63H160.25Z"/><path class="the-work-fill" d="M290.53,384.52H342L366,579.34h-34.2l-5.2-43.23H297.91L293,579.34H263.16Zm22.71,30.1h-.55l-11.22,93h22.17Z"/><path class="the-work-fill" d="M388.81,414.62H358.16v-30.1H455v30.1H424.38V579.34H388.81Z"/><path class="the-work-fill" d="M484.58,384.52h32.29l12.58,114.37H530l17-114.37h32l15.6,114.37h.55l14-114.37h25.44L609.08,579.34H576.79l-17-123.4h-.55l-17.51,123.4H510.57Z"/><path class="the-work-fill" d="M643.78,384.52h80.44v30.1H679.34v49.8h33.11v31.74H679.34v53.08h46.79v30.1H643.78Z"/><path class="the-work-fill" d="M11.45,616.06H42.37c59.65,0,65.4,38.31,65.4,97.41,0,56.37-4.65,97.41-59.65,97.41H11.45ZM47,780.77c22.44-.27,23.53-8.48,23.53-67.58,0-58.83-1.09-66.76-23.53-67Z"/><path class="the-work-fill" d="M170,612.23c31.47,0,52,24.35,52,101.24S201.43,814.7,170,814.7s-52-24.35-52-101.24S138.49,612.23,170,612.23ZM156.83,734c0,42.14,4.92,50.62,13.13,50.62s13.13-8.48,13.13-50.62v-41c0-42.14-4.92-50.62-13.13-50.62s-13.13,8.48-13.13,50.62Z"/><path class="the-work-fill" d="M260.53,616.06h32.29l12.59,114.37H306l17-114.37h32l15.6,114.37h.55l14-114.37h25.45L385,810.87H352.74l-17-123.4h-.55l-17.51,123.4H286.53Z"/><path class="the-work-fill" d="M419.73,616.06H455.3v78.25h22.44V616.06h35.57V810.87H477.74V728.24H455.3v82.63H419.73Z"/><path class="the-work-fill" d="M550,616.06h51.44l24.08,194.82h-34.2l-5.2-43.23H557.39l-4.92,43.23H522.64Zm22.71,30.1h-.55l-11.22,93h22.17Z"/><path class="the-work-fill" d="M648.29,646.15H617.65v-30.1H714.5v30.1H683.86V810.87H648.29Z"/><path class="the-work-fill" d="M1.05,847.59H33.34L45.92,962h.55l17-114.37h32L111,962h.55l14-114.37H151l-25.44,194.82H93.26L76.3,919h-.55l-17.51,123.4H27Z"/><path class="the-work-fill" d="M160.25,847.59H240.7v30.1H195.82v49.8h33.11v31.74H195.82v53.08h46.79v30.1H160.25Z"/><path class="the-work-fill" d="M287.76,847.59h35.57v164.72h45.42v30.1h-81Z"/><path class="the-work-fill" d="M425,843.76c31.47,0,52,24.35,52,101.24s-20.52,101.24-52,101.24S373,1021.89,373,945,393.51,843.76,425,843.76ZM411.84,965.52c0,42.14,4.92,50.62,13.13,50.62s13.13-8.48,13.13-50.62v-41c0-42.14-4.92-50.62-13.13-50.62s-13.13,8.48-13.13,50.62Z"/><path class="the-work-fill" d="M478.31,847.59h34.75L529.75,984.4h.55l18.33-136.81h28.73l-29.28,194.82H507.32Z"/><path class="the-work-fill" d="M586.45,847.59h80.44v30.1H622v49.8h33.11v31.74H622v53.08h46.79v30.1H586.45Z"/><path class="the-work-fill" d="M681.37,1006.84h35.57v35.57H681.37Z"/><rect class="the-work-fill" x="3.08" y="72.51" width="200.08" height="16.93"/></g></g></svg>
