<svg xmlns="http://www.w3.org/2000/svg" viewBox="0 0 756.51 688.71"><defs><style>.cls-1{fill:#da2128;}</style></defs><title>Wael</title><g id="Layer_2" data-name="Layer 2"><g id="Layer_1-2" data-name="Layer 1"><rect class="cls-1" x="2.26" y="71.06" width="480.25" height="16.93"/><path class="cls-1" d="M0,.89H7.54L10.48,27.6h.13l4-26.71H22L25.69,27.6h.13L29.07.89H35L29.07,46.39H21.54l-4-28.82h-.13L13.36,46.39H6.07Z"/><path class="cls-1" d="M40.49.89h12l5.62,45.49h-8l-1.21-10.1H42.21l-1.15,10.1h-7Zm5.3,7h-.13L43,29.65h5.18Z"/><path class="cls-1" d="M60.31.89H79.1v7H68.62V19.55h7.73V27H68.62v12.4H79.54v7H60.31Z"/><path class="cls-1" d="M81.82.89h8.31V39.36h10.61v7H81.82Z"/><path class="cls-1" d="M116.7.89h10.22a13.93,13.93,0,0,1,3.9.58,10,10,0,0,1,3.61,1.92,10.19,10.19,0,0,1,2.68,3.55,12.61,12.61,0,0,1,1.05,5.46A11.8,11.8,0,0,1,136.38,19a8.5,8.5,0,0,1-5.62,3.58v.13a10.27,10.27,0,0,1,6.29,3.87,12.15,12.15,0,0,1,2,7.19,14.13,14.13,0,0,1-1,5.5,11.91,11.91,0,0,1-2.62,4,10.7,10.7,0,0,1-3.74,2.4,12.33,12.33,0,0,1-4.41.8H116.7ZM125,19.55q3.13,0,4.18-1.47a7.83,7.83,0,0,0,1.05-4.54,17.92,17.92,0,0,0-.22-3.13,3.58,3.58,0,0,0-.83-1.85,2.93,2.93,0,0,0-1.63-.83A14.19,14.19,0,0,0,125,7.54Zm0,20.19a9.71,9.71,0,0,0,3-.38,3.53,3.53,0,0,0,1.76-1.18,4.47,4.47,0,0,0,.8-2.08,21,21,0,0,0,.19-3.07,15.23,15.23,0,0,0-.22-2.75,4.7,4.7,0,0,0-.86-2A3.87,3.87,0,0,0,127.92,27a8.52,8.52,0,0,0-2.91-.42Z"/><path class="cls-1" d="M146.09.89h12l5.62,45.49h-8l-1.21-10.1h-6.71l-1.15,10.1h-7Zm5.3,7h-.13l-2.62,21.72h5.17Z"/><path class="cls-1" d="M168.81,28.82,161.21.89h8.24l4,17.83h.13L177.75.89h7L177.12,28V46.39h-8.31Z"/><path class="cls-1" d="M191.84,7.92h-7.16v-7h22.62v7h-7.16V46.39h-8.31Z"/><path class="cls-1" d="M211.49.89h12l5.62,45.49h-8l-1.21-10.1h-6.71l-1.15,10.1h-7Zm5.3,7h-.13L214,29.65h5.17Z"/><path class="cls-1" d="M231.17.89h11.05l3.71,23.32h.13L250,.89h10.8V46.39h-7.41V13h-.13l-5.62,33.35H243L237.43,13h-.13V46.39h-6.13Z"/><path class="cls-1" d="M263.88,23.64a61.57,61.57,0,0,1,.86-11.25,23.24,23.24,0,0,1,2.46-7.28A9.88,9.88,0,0,1,271,1.18a11.1,11.1,0,0,1,10,0,9.89,9.89,0,0,1,3.83,3.93,23.24,23.24,0,0,1,2.46,7.28,61.56,61.56,0,0,1,.86,11.25,61.56,61.56,0,0,1-.86,11.25,23.23,23.23,0,0,1-2.46,7.28A9.88,9.88,0,0,1,281,46.1a11.1,11.1,0,0,1-10,0,9.87,9.87,0,0,1-3.83-3.93,23.23,23.23,0,0,1-2.46-7.28A61.57,61.57,0,0,1,263.88,23.64ZM273,28.43q0,3.71.22,6a20.53,20.53,0,0,0,.61,3.61,3.42,3.42,0,0,0,1,1.76,2,2,0,0,0,2.56,0,3.42,3.42,0,0,0,1-1.76,20.52,20.52,0,0,0,.61-3.61q.22-2.3.22-6V18.85q0-3.7-.22-6a19.74,19.74,0,0,0-.61-3.58,3.62,3.62,0,0,0-1-1.76,1.94,1.94,0,0,0-2.56,0,3.62,3.62,0,0,0-1,1.76,19.75,19.75,0,0,0-.61,3.58q-.23,2.3-.22,6Z"/><path class="cls-1" d="M291.15.89h8.31V36.1a11.51,11.51,0,0,0,.1,1.5,3.92,3.92,0,0,0,.42,1.34,2.41,2.41,0,0,0,.89,1,2.78,2.78,0,0,0,1.47.35,2.48,2.48,0,0,0,2.4-1.25,6,6,0,0,0,.67-2.91V.89h7V35q0,6.71-2.81,9.49t-7.8,2.78a13.38,13.38,0,0,1-4.38-.67,8.48,8.48,0,0,1-3.35-2.11,9.56,9.56,0,0,1-2.17-3.77,18.5,18.5,0,0,1-.77-5.72Z"/><path class="cls-1" d="M316.45.89h8.11l7.6,24h.13V.89h6.65V46.39h-6.45l-8.88-27.54h-.13V46.39h-7Z"/><path class="cls-1" d="M343,.89h8.31V46.39H343Z"/><path class="cls-1" d="M379.75,0h5.75L371.19,47.28h-5.62Z"/><path class="cls-1" d="M404.15.89h12l5.62,45.49h-8l-1.21-10.1h-6.71l-1.15,10.1h-7Zm5.3,7h-.13l-2.62,21.72h5.17Z"/><path class="cls-1" d="M424,.89h9.33a20.14,20.14,0,0,1,5.37.67,10.25,10.25,0,0,1,4.15,2.2,10.17,10.17,0,0,1,2.68,4,16.69,16.69,0,0,1,1,6,22.23,22.23,0,0,1-.22,3.07,14.68,14.68,0,0,1-.8,3.13,11.88,11.88,0,0,1-1.5,2.81,7.63,7.63,0,0,1-2.33,2.11l4.92,21.47h-8.37l-3.9-19.55h-2V46.39H424Zm8.31,19.3h1.66a3.38,3.38,0,0,0,1.95-.54,4.37,4.37,0,0,0,1.31-1.41,6.29,6.29,0,0,0,.73-2,12.41,12.41,0,0,0,.22-2.36q0-3.7-1.25-5a4.41,4.41,0,0,0-3.35-1.31h-1.28Z"/><path class="cls-1" d="M454.13,7.92H447v-7h22.62v7h-7.16V46.39h-8.31Z"/><path class="cls-1" d="M11.61,160.47H0V149.3H36.68v11.18H25.08v61.16H11.61Z"/><path class="cls-1" d="M39.23,149.3H52.71v29.06h8.5V149.3H74.68v72.34H61.2V191h-8.5v30.68H39.23Z"/><path class="cls-1" d="M81.49,149.3H112v11.18H95V179H107.5v11.79H95v19.71h17.72v11.18H81.49Z"/><path class="cls-1" d="M141.08,200.71q0,1.52.1,3.45a15.48,15.48,0,0,0,.62,3.66,6.62,6.62,0,0,0,1.71,2.9,4.6,4.6,0,0,0,3.37,1.17,5.49,5.49,0,0,0,2.8-.66,5.65,5.65,0,0,0,1.87-1.73,7.24,7.24,0,0,0,1-2.29,9.46,9.46,0,0,0,.31-2.34,9.73,9.73,0,0,0-1.81-5.79,28.32,28.32,0,0,0-4.51-4.88q-2.7-2.33-5.91-4.77a40.76,40.76,0,0,1-5.91-5.49,28.22,28.22,0,0,1-4.51-7,22.28,22.28,0,0,1-1.81-9.35,25.3,25.3,0,0,1,1.14-7.67,18.46,18.46,0,0,1,3.32-6.25,15.91,15.91,0,0,1,5.44-4.22,19.06,19.06,0,0,1,15.29.05,14,14,0,0,1,5.23,4.52,20.49,20.49,0,0,1,3,7,41.84,41.84,0,0,1,1.09,8.94h-12c0-1,0-2.15-.1-3.4a16.71,16.71,0,0,0-.57-3.56,6.15,6.15,0,0,0-1.61-2.79,4.26,4.26,0,0,0-3.11-1.12,4.37,4.37,0,0,0-3.73,1.83,7.85,7.85,0,0,0-1.35,4.77,9.4,9.4,0,0,0,1.81,5.59,29.49,29.49,0,0,0,4.51,4.93q2.69,2.39,5.91,4.93a42.38,42.38,0,0,1,5.91,5.69,30.24,30.24,0,0,1,4.51,7.11,22,22,0,0,1,1.81,9.25,24.66,24.66,0,0,1-1.19,7.77,18.22,18.22,0,0,1-3.52,6.3,16.65,16.65,0,0,1-5.8,4.27,19.29,19.29,0,0,1-8,1.58,16.45,16.45,0,0,1-8.76-2.08,15.44,15.44,0,0,1-5.29-5.33,21,21,0,0,1-2.59-7.21,45.92,45.92,0,0,1-.67-7.72Z"/><path class="cls-1" d="M164.35,149.3h12.23l4.77,42.47h.21L188,149.3h12.13L206,191.76h.21l5.29-42.47h9.64l-9.64,72.34H199.28l-6.42-45.82h-.21L186,221.63H174.2Z"/><path class="cls-1" d="M224.17,149.3h13.47v72.34H224.17Z"/><path class="cls-1" d="M254.21,200.71q0,1.52.1,3.45a15.48,15.48,0,0,0,.62,3.66,6.62,6.62,0,0,0,1.71,2.9,4.6,4.6,0,0,0,3.37,1.17,5.49,5.49,0,0,0,2.8-.66,5.65,5.65,0,0,0,1.87-1.73,7.24,7.24,0,0,0,1-2.29,9.46,9.46,0,0,0,.31-2.34,9.73,9.73,0,0,0-1.81-5.79,28.32,28.32,0,0,0-4.51-4.88q-2.7-2.33-5.91-4.77a40.76,40.76,0,0,1-5.91-5.49,28.22,28.22,0,0,1-4.51-7,22.28,22.28,0,0,1-1.81-9.35,25.3,25.3,0,0,1,1.14-7.67,18.46,18.46,0,0,1,3.32-6.25,15.91,15.91,0,0,1,5.44-4.22,19.06,19.06,0,0,1,15.29.05A14,14,0,0,1,272,154a20.49,20.49,0,0,1,3,7,41.84,41.84,0,0,1,1.09,8.94h-12c0-1,0-2.15-.1-3.4a16.71,16.71,0,0,0-.57-3.56,6.15,6.15,0,0,0-1.61-2.79,4.26,4.26,0,0,0-3.11-1.12,4.37,4.37,0,0,0-3.73,1.83,7.85,7.85,0,0,0-1.35,4.77,9.4,9.4,0,0,0,1.81,5.59,29.49,29.49,0,0,0,4.51,4.93q2.69,2.39,5.91,4.93a42.38,42.38,0,0,1,5.91,5.69,30.24,30.24,0,0,1,4.51,7.11,22,22,0,0,1,1.81,9.25,24.66,24.66,0,0,1-1.19,7.77,18.22,18.22,0,0,1-3.52,6.3,16.65,16.65,0,0,1-5.8,4.27,19.29,19.29,0,0,1-8,1.58,16.45,16.45,0,0,1-8.76-2.08,15.44,15.44,0,0,1-5.29-5.33,21,21,0,0,1-2.59-7.21,45.92,45.92,0,0,1-.67-7.72Z"/><path class="cls-1" d="M292.3,200.71q0,1.52.1,3.45a15.48,15.48,0,0,0,.62,3.66,6.62,6.62,0,0,0,1.71,2.9,4.6,4.6,0,0,0,3.37,1.17,5.49,5.49,0,0,0,2.8-.66,5.65,5.65,0,0,0,1.87-1.73,7.24,7.24,0,0,0,1-2.29,9.46,9.46,0,0,0,.31-2.34,9.73,9.73,0,0,0-1.81-5.79,28.32,28.32,0,0,0-4.51-4.88q-2.7-2.33-5.91-4.77a40.76,40.76,0,0,1-5.91-5.49,28.22,28.22,0,0,1-4.51-7,22.28,22.28,0,0,1-1.81-9.35,25.3,25.3,0,0,1,1.14-7.67,18.46,18.46,0,0,1,3.32-6.25,15.91,15.91,0,0,1,5.44-4.22,19.06,19.06,0,0,1,15.29.05,14,14,0,0,1,5.23,4.52,20.49,20.49,0,0,1,3,7,41.84,41.84,0,0,1,1.09,8.94h-12c0-1,0-2.15-.1-3.4a16.71,16.71,0,0,0-.57-3.56,6.15,6.15,0,0,0-1.61-2.79,4.26,4.26,0,0,0-3.11-1.12,4.37,4.37,0,0,0-3.73,1.83,7.85,7.85,0,0,0-1.35,4.77,9.4,9.4,0,0,0,1.81,5.59,29.49,29.49,0,0,0,4.51,4.93q2.69,2.39,5.91,4.93a42.38,42.38,0,0,1,5.91,5.69,30.24,30.24,0,0,1,4.51,7.11,22,22,0,0,1,1.81,9.25,24.66,24.66,0,0,1-1.19,7.77,18.22,18.22,0,0,1-3.52,6.3,16.65,16.65,0,0,1-5.8,4.27,19.29,19.29,0,0,1-8,1.58,16.45,16.45,0,0,1-8.76-2.08,15.44,15.44,0,0,1-5.29-5.33,21,21,0,0,1-2.59-7.21,45.92,45.92,0,0,1-.67-7.72Z"/><path class="cls-1" d="M339.87,149.3h19.48l9.12,72.34h-13l-2-16.05H342.67l-1.87,16.05H329.5Zm8.6,11.18h-.21L344,195h8.39Z"/><path class="cls-1" d="M371.83,149.3H387a33.28,33.28,0,0,1,8.71,1.07,16.75,16.75,0,0,1,6.74,3.5,16.17,16.17,0,0,1,4.35,6.35,26.09,26.09,0,0,1,1.55,9.6,34.57,34.57,0,0,1-.36,4.88,23,23,0,0,1-1.3,5,18.76,18.76,0,0,1-2.44,4.47,12.32,12.32,0,0,1-3.78,3.35l8,34.14H394.83l-6.32-31.09H385.3v31.09H371.83ZM385.3,180H388a5.57,5.57,0,0,0,3.16-.86,7,7,0,0,0,2.12-2.24,9.86,9.86,0,0,0,1.19-3.2,19.32,19.32,0,0,0,.36-3.76q0-5.89-2-8a7.24,7.24,0,0,0-5.44-2.08H385.3Z"/><path class="cls-1" d="M412.48,149.3h17.93l6,37.08h.21l6.32-37.08h17.51v72.34h-12v-53h-.21l-9.12,53h-7.46l-9-53h-.21v53h-9.95Z"/><path class="cls-1" d="M474.78,193.7l-12.33-44.4h13.37l6.42,28.35h.21l6.84-28.35h11.3l-12.33,43.18v29.16H474.78Z"/><path class="cls-1" d="M517.06,149.3h13.47v30.28h.21l11.19-30.28h12L543.9,173.58,556,221.63h-13l-7.46-32.41h-.21l-4.87,11.38v21H517.06Z"/><path class="cls-1" d="M559.18,149.3h13.16l12.33,38.2h.21V149.3h10.78v72.34H585.19l-14.41-43.79h-.21v43.79h-11.4Z"/><path class="cls-1" d="M602.06,149.3h13.47v72.34H602.06Z"/><path class="cls-1" d="M622.18,149.3h30.16v11.18H635.65v19.3H648v11.79H635.65v30.07H622.18Z"/><path class="cls-1" d="M655.35,149.3h30.47v11.18h-17V179h12.54v11.79H668.82v19.71h17.72v11.18H655.35Z"/><path class="cls-1" d="M3.42,278.6a96,96,0,0,1,1.4-17.88,36.48,36.48,0,0,1,4-11.58A15.86,15.86,0,0,1,15,242.89,17.3,17.3,0,0,1,23.11,241a17.31,17.31,0,0,1,8.08,1.88,15.88,15.88,0,0,1,6.22,6.25,36.52,36.52,0,0,1,4,11.58,96,96,0,0,1,1.4,17.88,96,96,0,0,1-1.4,17.88,36.5,36.5,0,0,1-4,11.58,15.86,15.86,0,0,1-6.22,6.25,17.32,17.32,0,0,1-8.08,1.88A17.32,17.32,0,0,1,15,314.31a15.85,15.85,0,0,1-6.22-6.25,36.46,36.46,0,0,1-4-11.58A96,96,0,0,1,3.42,278.6Zm14.72,7.62q0,5.89.36,9.55a32,32,0,0,0,1,5.74A5.41,5.41,0,0,0,21,304.3a3.37,3.37,0,0,0,4.15,0,5.41,5.41,0,0,0,1.55-2.79,32.09,32.09,0,0,0,1-5.74q.36-3.66.36-9.55V271q0-5.89-.36-9.55a30.89,30.89,0,0,0-1-5.69,5.74,5.74,0,0,0-1.55-2.79,3.2,3.2,0,0,0-4.15,0,5.74,5.74,0,0,0-1.55,2.79,30.76,30.76,0,0,0-1,5.69q-.36,3.66-.36,9.55Z"/><path class="cls-1" d="M47.82,242.43H78V253.6H61.3v19.3H73.63v11.79H61.3v30.07H47.82Z"/><path class="cls-1" d="M100.78,242.43h19.48l9.12,72.34h-13l-2-16.05H103.57l-1.87,16.05H90.41Zm8.6,11.18h-.21l-4.25,34.54h8.39Z"/><path class="cls-1" d="M132.73,242.43h15.13a33.28,33.28,0,0,1,8.71,1.07,16.75,16.75,0,0,1,6.74,3.5,16.17,16.17,0,0,1,4.35,6.35,26.09,26.09,0,0,1,1.55,9.6,34.57,34.57,0,0,1-.36,4.88,23,23,0,0,1-1.3,5,18.76,18.76,0,0,1-2.44,4.47,12.32,12.32,0,0,1-3.78,3.35l8,34.14H155.74l-6.32-31.09h-3.21v31.09H132.73Zm13.47,30.68h2.69a5.57,5.57,0,0,0,3.16-.86,7,7,0,0,0,2.12-2.24,9.86,9.86,0,0,0,1.19-3.2,19.32,19.32,0,0,0,.36-3.76q0-5.89-2-8a7.24,7.24,0,0,0-5.44-2.08h-2.07Z"/><path class="cls-1" d="M181.45,253.6H169.84V242.43h36.68V253.6H194.92v61.16H181.45Z"/><path class="cls-1" d="M205.49,310.53h-5V297.32H214v12.19l-8,16.25h-5.39Z"/><path class="cls-1" d="M227.25,242.43H239q8.5,0,13.42,2.59a17.52,17.52,0,0,1,7.46,7.32,30.37,30.37,0,0,1,3.21,11.38q.67,6.65.67,14.88,0,7.83-.62,14.48a34.26,34.26,0,0,1-2.9,11.48,17,17,0,0,1-6.79,7.52q-4.51,2.69-12.28,2.69H227.25Zm13.47,61.16a11.55,11.55,0,0,0,5-.86,5.6,5.6,0,0,0,2.64-3.5,29.12,29.12,0,0,0,1.09-7.57q.21-4.93.21-13.16t-.21-13.11a28.23,28.23,0,0,0-1.09-7.47,5.58,5.58,0,0,0-2.64-3.45,11.57,11.57,0,0,0-5-.86Z"/><path class="cls-1" d="M269.33,242.43h30.47V253.6h-17v18.49h12.54v11.79H282.8v19.71h17.72v11.18H269.33Z"/><path class="cls-1" d="M314.38,293.84q0,1.52.1,3.45a15.48,15.48,0,0,0,.62,3.66,6.62,6.62,0,0,0,1.71,2.9,4.6,4.6,0,0,0,3.37,1.17,5.49,5.49,0,0,0,2.8-.66,5.65,5.65,0,0,0,1.87-1.73,7.24,7.24,0,0,0,1-2.29,9.46,9.46,0,0,0,.31-2.34,9.73,9.73,0,0,0-1.81-5.79,28.32,28.32,0,0,0-4.51-4.88q-2.7-2.33-5.91-4.77a40.76,40.76,0,0,1-5.91-5.49,28.22,28.22,0,0,1-4.51-7,22.28,22.28,0,0,1-1.81-9.35,25.3,25.3,0,0,1,1.14-7.67,18.46,18.46,0,0,1,3.32-6.25,15.91,15.91,0,0,1,5.44-4.22,19.06,19.06,0,0,1,15.29.05,14,14,0,0,1,5.23,4.52,20.49,20.49,0,0,1,3,7,41.84,41.84,0,0,1,1.09,8.94h-12c0-1,0-2.15-.1-3.4a16.71,16.71,0,0,0-.57-3.56,6.15,6.15,0,0,0-1.61-2.79,4.26,4.26,0,0,0-3.11-1.12,4.37,4.37,0,0,0-3.73,1.83,7.85,7.85,0,0,0-1.35,4.77,9.4,9.4,0,0,0,1.81,5.59,29.49,29.49,0,0,0,4.51,4.93q2.69,2.39,5.91,4.93a42.38,42.38,0,0,1,5.91,5.69A30.24,30.24,0,0,1,336.4,287a22,22,0,0,1,1.81,9.25A24.66,24.66,0,0,1,337,304a18.22,18.22,0,0,1-3.52,6.3,16.65,16.65,0,0,1-5.8,4.27,19.29,19.29,0,0,1-8,1.58,16.45,16.45,0,0,1-8.76-2.08,15.44,15.44,0,0,1-5.29-5.33,21,21,0,0,1-2.59-7.21,45.92,45.92,0,0,1-.67-7.72Z"/><path class="cls-1" d="M341.62,242.43h13.47v72.34H341.62Z"/><path class="cls-1" d="M385,268.23q0-1.22.05-3.91a31.51,31.51,0,0,0-.36-5.38,15.61,15.61,0,0,0-1.45-4.72,3.4,3.4,0,0,0-3.21-2,3.69,3.69,0,0,0-2.33.86,7.14,7.14,0,0,0-1.87,3.61,43.63,43.63,0,0,0-1.19,7.92q-.42,5.18-.41,13.92,0,8.94.41,14.17a40.13,40.13,0,0,0,1.24,8,6.53,6.53,0,0,0,2,3.56,4.75,4.75,0,0,0,2.75.81,3.51,3.51,0,0,0,3-1.63,11,11,0,0,0,1.66-3.81,27.4,27.4,0,0,0,.67-4.42q.16-2.23.16-3.56h-5V281h16.37v33.73h-5.7L389.95,310a16.07,16.07,0,0,1-4.35,4.27,10.88,10.88,0,0,1-6.32,1.93,15.59,15.59,0,0,1-9.07-2.54,17.67,17.67,0,0,1-5.91-7.37,42.29,42.29,0,0,1-3.21-11.79,114.4,114.4,0,0,1-1-15.9,86.93,86.93,0,0,1,1.5-17.53,39.51,39.51,0,0,1,4.09-11.63,16.9,16.9,0,0,1,6.06-6.45,14.89,14.89,0,0,1,7.51-2,23.38,23.38,0,0,1,6.42.91,13,13,0,0,1,5.7,3.4,18.13,18.13,0,0,1,4,6.91A34.68,34.68,0,0,1,397,263.56v4.67Z"/><path class="cls-1" d="M403,242.43h13.16l12.33,38.2h.21v-38.2h10.78v72.34H429L414.61,271h-.21v43.79H403Z"/><path class="cls-1" d="M499.07,314.77a21.35,21.35,0,0,1-8-1.37,15.75,15.75,0,0,1-6.11-4.52,19.6,19.6,0,0,1-6.17,5.28,16.35,16.35,0,0,1-8,2,14.79,14.79,0,0,1-12.23-5.84,18.51,18.51,0,0,1-3-5.74,20.66,20.66,0,0,1-1-6.2,24.59,24.59,0,0,1,3.06-12,58.14,58.14,0,0,1,8-11.07q-1.24-2.54-2.28-4.83a47.08,47.08,0,0,1-1.81-4.62,37.35,37.35,0,0,1-1.24-4.78,27.59,27.59,0,0,1-.47-5.18q0-6.81,4.2-10.87t11-4.06a13.85,13.85,0,0,1,6.06,1.27,13.48,13.48,0,0,1,4.4,3.3,14.38,14.38,0,0,1,2.69,4.67,16.09,16.09,0,0,1,.93,5.38,21,21,0,0,1-.78,6.1,18.17,18.17,0,0,1-2.18,4.67,32.79,32.79,0,0,1-3.32,4.22q-1.92,2.08-4.09,4.62a39.24,39.24,0,0,0,3.06,6.55q1.81,3.1,3.58,6.35a55,55,0,0,0,1.55-5.79q.62-2.95,1-5.89l8.91,1.93a90.52,90.52,0,0,1-2.07,10.46,52.69,52.69,0,0,1-3.63,9.85,13.19,13.19,0,0,0,3.11,3.51,10.36,10.36,0,0,0,4.66,2Zm-28.71-29.26a14.39,14.39,0,0,0-2.75,4,11.77,11.77,0,0,0-1,5,15.59,15.59,0,0,0,.42,3.45,11.7,11.7,0,0,0,1.35,3.4,9.13,9.13,0,0,0,2.33,2.64,5.39,5.39,0,0,0,3.37,1.07,4,4,0,0,0,3-1.22,26.77,26.77,0,0,0,2.12-2.44Zm.93-29.57a17.58,17.58,0,0,0,1,5.59q1,2.95,2,5.28a53.61,53.61,0,0,0,3.26-4.62,10.37,10.37,0,0,0,1.5-5.64,8.84,8.84,0,0,0-.88-4.06,3.23,3.23,0,0,0-3.16-1.73,3,3,0,0,0-2.9,1.58A7.62,7.62,0,0,0,471.29,255.94Z"/><path class="cls-1" d="M513.16,242.43h11.71q8.5,0,13.42,2.59a17.52,17.52,0,0,1,7.46,7.32A30.37,30.37,0,0,1,549,263.71q.67,6.65.67,14.88,0,7.83-.62,14.48a34.26,34.26,0,0,1-2.9,11.48,17,17,0,0,1-6.79,7.52q-4.51,2.69-12.28,2.69H513.16Zm13.47,61.16a11.55,11.55,0,0,0,5-.86,5.6,5.6,0,0,0,2.64-3.5,29.12,29.12,0,0,0,1.09-7.57q.21-4.93.21-13.16t-.21-13.11a28.23,28.23,0,0,0-1.09-7.47,5.58,5.58,0,0,0-2.64-3.45,11.57,11.57,0,0,0-5-.86Z"/><path class="cls-1" d="M555.08,242.43h13.47v72.34H555.08Z"/><path class="cls-1" d="M598.43,268.23q0-1.22.05-3.91a31.51,31.51,0,0,0-.36-5.38,15.61,15.61,0,0,0-1.45-4.72,3.4,3.4,0,0,0-3.21-2,3.69,3.69,0,0,0-2.33.86,7.14,7.14,0,0,0-1.87,3.61,43.63,43.63,0,0,0-1.19,7.92q-.42,5.18-.41,13.92,0,8.94.41,14.17a40.13,40.13,0,0,0,1.24,8,6.53,6.53,0,0,0,2,3.56,4.75,4.75,0,0,0,2.75.81,3.51,3.51,0,0,0,3-1.63,11,11,0,0,0,1.66-3.81,27.4,27.4,0,0,0,.67-4.42q.16-2.23.16-3.56h-5V281H611v33.73h-5.7L603.41,310a16.07,16.07,0,0,1-4.35,4.27,10.88,10.88,0,0,1-6.32,1.93,15.59,15.59,0,0,1-9.07-2.54,17.67,17.67,0,0,1-5.91-7.37,42.29,42.29,0,0,1-3.21-11.79,114.4,114.4,0,0,1-1-15.9,86.93,86.93,0,0,1,1.5-17.53,39.51,39.51,0,0,1,4.09-11.63,16.9,16.9,0,0,1,6.06-6.45,14.89,14.89,0,0,1,7.51-2,23.38,23.38,0,0,1,6.42.91,13,13,0,0,1,5.7,3.4,18.13,18.13,0,0,1,4,6.91,34.68,34.68,0,0,1,1.55,11.33v4.67Z"/><path class="cls-1" d="M616.47,242.43h13.47v72.34H616.47Z"/><path class="cls-1" d="M643.93,253.6H632.32V242.43H669V253.6H657.4v61.16H643.93Z"/><path class="cls-1" d="M675.56,242.43H695l9.12,72.34h-13l-2-16.05H678.36l-1.87,16.05H665.2Zm8.6,11.18H684l-4.25,34.54h8.39Z"/><path class="cls-1" d="M707.52,242.43H721v61.16h17.2v11.18H707.52Z"/><path class="cls-1" d="M743,301.56h13.47v13.21H743Z"/><path class="cls-1" d="M4.87,335.56H18.34V407.9H4.87Z"/><path class="cls-1" d="M24.75,335.56H37.91l12.33,38.2h.21v-38.2H61.22V407.9H50.76l-14.4-43.79h-.21V407.9H24.75Z"/><path class="cls-1" d="M83.29,335.56H96.77v29.06h8.5V335.56h13.47V407.9H105.26V377.21h-8.5V407.9H83.29Z"/><path class="cls-1" d="M125.32,335.56h13.47V407.9H125.32Z"/><path class="cls-1" d="M155.36,387q0,1.52.1,3.45a15.48,15.48,0,0,0,.62,3.66,6.62,6.62,0,0,0,1.71,2.9,4.6,4.6,0,0,0,3.37,1.17,5.49,5.49,0,0,0,2.8-.66,5.65,5.65,0,0,0,1.87-1.73,7.24,7.24,0,0,0,1-2.29,9.46,9.46,0,0,0,.31-2.34,9.73,9.73,0,0,0-1.81-5.79,28.32,28.32,0,0,0-4.51-4.88q-2.7-2.33-5.91-4.77a40.76,40.76,0,0,1-5.91-5.49,28.22,28.22,0,0,1-4.51-7,22.28,22.28,0,0,1-1.81-9.35,25.3,25.3,0,0,1,1.14-7.67,18.46,18.46,0,0,1,3.32-6.25,15.91,15.91,0,0,1,5.44-4.22,19.06,19.06,0,0,1,15.29.05,14,14,0,0,1,5.23,4.52,20.49,20.49,0,0,1,3,7,41.84,41.84,0,0,1,1.09,8.94h-12c0-1,0-2.15-.1-3.4a16.71,16.71,0,0,0-.57-3.56,6.15,6.15,0,0,0-1.61-2.79,4.26,4.26,0,0,0-3.11-1.12,4.37,4.37,0,0,0-3.73,1.83,7.85,7.85,0,0,0-1.35,4.77,9.4,9.4,0,0,0,1.81,5.59,29.49,29.49,0,0,0,4.51,4.93q2.69,2.39,5.91,4.93a42.38,42.38,0,0,1,5.91,5.69,30.24,30.24,0,0,1,4.51,7.11,22,22,0,0,1,1.81,9.25,24.66,24.66,0,0,1-1.19,7.77,18.22,18.22,0,0,1-3.52,6.3,16.65,16.65,0,0,1-5.8,4.27,19.29,19.29,0,0,1-8,1.58,16.45,16.45,0,0,1-8.76-2.08,15.44,15.44,0,0,1-5.29-5.33,21,21,0,0,1-2.59-7.21,45.92,45.92,0,0,1-.67-7.72Z"/><path class="cls-1" d="M207.58,387q0,1.52.1,3.45a15.48,15.48,0,0,0,.62,3.66A6.62,6.62,0,0,0,210,397a4.6,4.6,0,0,0,3.37,1.17,5.49,5.49,0,0,0,2.8-.66,5.65,5.65,0,0,0,1.87-1.73,7.24,7.24,0,0,0,1-2.29,9.46,9.46,0,0,0,.31-2.34,9.73,9.73,0,0,0-1.81-5.79,28.32,28.32,0,0,0-4.51-4.88q-2.7-2.33-5.91-4.77a40.76,40.76,0,0,1-5.91-5.49,28.22,28.22,0,0,1-4.51-7,22.28,22.28,0,0,1-1.81-9.35,25.3,25.3,0,0,1,1.14-7.67,18.46,18.46,0,0,1,3.32-6.25,15.91,15.91,0,0,1,5.44-4.22,19.06,19.06,0,0,1,15.29.05,14,14,0,0,1,5.23,4.52,20.49,20.49,0,0,1,3,7,41.84,41.84,0,0,1,1.09,8.94h-12c0-1,0-2.15-.1-3.4a16.71,16.71,0,0,0-.57-3.56,6.15,6.15,0,0,0-1.61-2.79,4.26,4.26,0,0,0-3.11-1.12,4.37,4.37,0,0,0-3.73,1.83,7.85,7.85,0,0,0-1.35,4.77,9.4,9.4,0,0,0,1.81,5.59,29.49,29.49,0,0,0,4.51,4.93q2.69,2.39,5.91,4.93A42.38,42.38,0,0,1,225.1,373a30.24,30.24,0,0,1,4.51,7.11,22,22,0,0,1,1.81,9.25,24.66,24.66,0,0,1-1.19,7.77,18.22,18.22,0,0,1-3.52,6.3,16.65,16.65,0,0,1-5.8,4.27,19.29,19.29,0,0,1-8,1.58,16.45,16.45,0,0,1-8.76-2.08,15.44,15.44,0,0,1-5.29-5.33,21,21,0,0,1-2.59-7.21,45.92,45.92,0,0,1-.67-7.72Z"/><path class="cls-1" d="M235.11,335.56h13.47q11.4,0,17.31,5t5.91,16.66a37.33,37.33,0,0,1-1,8.89,18.32,18.32,0,0,1-3.16,6.86,14.7,14.7,0,0,1-5.54,4.42,19.08,19.08,0,0,1-8.13,1.58h-5.39v29H235.11Zm13.58,32.82h1.14a12.92,12.92,0,0,0,3.63-.46,5.59,5.59,0,0,0,2.64-1.68,8.1,8.1,0,0,0,1.66-3.35,21.34,21.34,0,0,0,.57-5.38,19.88,19.88,0,0,0-.73-6.1,7.41,7.41,0,0,0-1.92-3.2,5,5,0,0,0-2.75-1.27,24.91,24.91,0,0,0-3.21-.2h-1Z"/><path class="cls-1" d="M279.64,335.56h19.48l9.12,72.34h-13l-2-16.05H282.44l-1.87,16.05H269.27Zm8.6,11.18H288l-4.25,34.54h8.39Z"/><path class="cls-1" d="M311.59,335.56h15.13a33.28,33.28,0,0,1,8.71,1.07,16.75,16.75,0,0,1,6.74,3.5,16.17,16.17,0,0,1,4.35,6.35,26.09,26.09,0,0,1,1.55,9.6,34.57,34.57,0,0,1-.36,4.88,23,23,0,0,1-1.3,5,18.76,18.76,0,0,1-2.44,4.47,12.32,12.32,0,0,1-3.78,3.35l8,34.14H334.6l-6.32-31.09h-3.21V407.9H311.59Zm13.47,30.68h2.69a5.57,5.57,0,0,0,3.16-.86,7,7,0,0,0,2.12-2.24,9.86,9.86,0,0,0,1.19-3.2,19.32,19.32,0,0,0,.36-3.76q0-5.89-2-8a7.24,7.24,0,0,0-5.44-2.08h-2.07Z"/><path class="cls-1" d="M352.48,335.56h30.47v11.18h-17v18.49h12.54V377H365.95v19.71h17.72V407.9H352.48Z"/><path class="cls-1" d="M411.13,346.74H399.52V335.56h36.68v11.18H424.6V407.9H411.13Z"/><path class="cls-1" d="M438.52,335.56H452V407.9H438.52Z"/><path class="cls-1" d="M458.39,335.56h17.93l6,37.08h.21l6.32-37.08h17.51V407.9h-12v-53h-.21l-9.12,53h-7.46l-9-53h-.21v53h-9.95Z"/><path class="cls-1" d="M513,335.56h30.47v11.18h-17v18.49H539V377H526.43v19.71h17.72V407.9H513Z"/><path class="cls-1" d="M559.39,335.56h12.23L576.38,378h.21L583,335.56h12.13L601,378h.21l5.29-42.47h9.64l-9.64,72.34H594.31l-6.42-45.82h-.21L581,407.9H569.23Z"/><path class="cls-1" d="M624.84,335.56h19.48l9.12,72.34h-13l-2-16.05H627.64l-1.87,16.05H614.48Zm8.6,11.18h-.21L629,381.28h8.39Z"/><path class="cls-1" d="M656.8,335.56h30.47v11.18h-17v18.49h12.54V377H670.27v19.71H688V407.9H656.8Z"/><path class="cls-1" d="M691.48,335.56H705v61.16h17.2V407.9H691.48Z"/><path class="cls-1" d="M5.39,428.69H35.86v11.18h-17v18.49H31.4v11.79H18.86v19.71H36.58V501H5.39Z"/><path class="cls-1" d="M40.07,428.69H51.78q8.5,0,13.42,2.59a17.51,17.51,0,0,1,7.46,7.32A30.35,30.35,0,0,1,75.88,450a149,149,0,0,1,.67,14.88q0,7.83-.62,14.48A34.26,34.26,0,0,1,73,490.82a17,17,0,0,1-6.79,7.52Q61.73,501,54,501H40.07Zm13.47,61.16a11.55,11.55,0,0,0,5-.86,5.6,5.6,0,0,0,2.64-3.5,29.08,29.08,0,0,0,1.09-7.57q.21-4.93.21-13.16t-.21-13.11a28.19,28.19,0,0,0-1.09-7.47,5.58,5.58,0,0,0-2.64-3.45,11.56,11.56,0,0,0-5-.86Z"/><path class="cls-1" d="M82,428.69H95.46V501H82Z"/><path class="cls-1" d="M109.44,439.87H97.83V428.69h36.68v11.18H122.91V501H109.44Z"/><path class="cls-1" d="M147.83,480.1q0,1.52.1,3.45a15.48,15.48,0,0,0,.62,3.66,6.62,6.62,0,0,0,1.71,2.9,4.6,4.6,0,0,0,3.37,1.17,5.49,5.49,0,0,0,2.8-.66,5.65,5.65,0,0,0,1.87-1.73,7.24,7.24,0,0,0,1-2.29,9.46,9.46,0,0,0,.31-2.34,9.73,9.73,0,0,0-1.81-5.79,28.32,28.32,0,0,0-4.51-4.88q-2.7-2.33-5.91-4.77a40.76,40.76,0,0,1-5.91-5.49,28.22,28.22,0,0,1-4.51-7,22.28,22.28,0,0,1-1.81-9.35,25.3,25.3,0,0,1,1.14-7.67,18.46,18.46,0,0,1,3.32-6.25,15.91,15.91,0,0,1,5.44-4.22,19.06,19.06,0,0,1,15.29.05,14,14,0,0,1,5.23,4.52,20.49,20.49,0,0,1,3,7,41.84,41.84,0,0,1,1.09,8.94h-12c0-1,0-2.15-.1-3.4a16.71,16.71,0,0,0-.57-3.56,6.15,6.15,0,0,0-1.61-2.79,4.26,4.26,0,0,0-3.11-1.12,4.37,4.37,0,0,0-3.73,1.83,7.85,7.85,0,0,0-1.35,4.77,9.4,9.4,0,0,0,1.81,5.59,29.49,29.49,0,0,0,4.51,4.93q2.69,2.39,5.91,4.93a42.38,42.38,0,0,1,5.91,5.69,30.24,30.24,0,0,1,4.51,7.11,22,22,0,0,1,1.81,9.25,24.66,24.66,0,0,1-1.19,7.77,18.22,18.22,0,0,1-3.52,6.3,16.65,16.65,0,0,1-5.8,4.27,19.29,19.29,0,0,1-8,1.58,16.45,16.45,0,0,1-8.76-2.08,15.44,15.44,0,0,1-5.29-5.33,21,21,0,0,1-2.59-7.21,45.92,45.92,0,0,1-.67-7.72Z"/><path class="cls-1" d="M184.83,428.69H198l6.32,50.8h.21l6.94-50.8h10.88L211.25,501H195.81Z"/><path class="cls-1" d="M225.37,428.69h13.47V501H225.37Z"/><path class="cls-1" d="M245.48,428.69h11.71q8.5,0,13.42,2.59a17.52,17.52,0,0,1,7.46,7.32A30.37,30.37,0,0,1,281.29,450q.67,6.65.67,14.88,0,7.83-.62,14.48a34.26,34.26,0,0,1-2.9,11.48,17,17,0,0,1-6.79,7.52Q267.14,501,259.37,501H245.48ZM259,489.85a11.55,11.55,0,0,0,5-.86,5.6,5.6,0,0,0,2.64-3.5,29.12,29.12,0,0,0,1.09-7.57q.21-4.93.21-13.16t-.21-13.11a28.23,28.23,0,0,0-1.09-7.47,5.58,5.58,0,0,0-2.64-3.45,11.57,11.57,0,0,0-5-.86Z"/><path class="cls-1" d="M287.56,428.69H318v11.18H301v18.49h12.54v11.79H301v19.71h17.72V501H287.56Z"/><path class="cls-1" d="M319.76,464.86a96,96,0,0,1,1.4-17.88,36.48,36.48,0,0,1,4-11.58,15.86,15.86,0,0,1,6.22-6.25,18.32,18.32,0,0,1,16.17,0,15.88,15.88,0,0,1,6.22,6.25,36.53,36.53,0,0,1,4,11.58,114.94,114.94,0,0,1,0,35.76,36.51,36.51,0,0,1-4,11.58,15.86,15.86,0,0,1-6.22,6.25,18.32,18.32,0,0,1-16.17,0,15.84,15.84,0,0,1-6.22-6.25,36.46,36.46,0,0,1-4-11.58A96,96,0,0,1,319.76,464.86Zm14.71,7.62q0,5.89.36,9.55a31.91,31.91,0,0,0,1,5.74,5.41,5.41,0,0,0,1.55,2.79,3.37,3.37,0,0,0,4.14,0,5.41,5.41,0,0,0,1.55-2.79,32.18,32.18,0,0,0,1-5.74q.36-3.66.36-9.55V457.24q0-5.89-.36-9.55a31,31,0,0,0-1-5.69,5.74,5.74,0,0,0-1.55-2.79,3.2,3.2,0,0,0-4.14,0,5.73,5.73,0,0,0-1.55,2.79,30.73,30.73,0,0,0-1,5.69q-.36,3.66-.36,9.55Z"/><path class="cls-1" d="M374,480.1q0,1.52.1,3.45a15.48,15.48,0,0,0,.62,3.66,6.62,6.62,0,0,0,1.71,2.9,4.6,4.6,0,0,0,3.37,1.17,5.49,5.49,0,0,0,2.8-.66,5.65,5.65,0,0,0,1.87-1.73,7.24,7.24,0,0,0,1-2.29,9.46,9.46,0,0,0,.31-2.34,9.73,9.73,0,0,0-1.81-5.79,28.32,28.32,0,0,0-4.51-4.88q-2.7-2.33-5.91-4.77a40.76,40.76,0,0,1-5.91-5.49,28.22,28.22,0,0,1-4.51-7,22.28,22.28,0,0,1-1.81-9.35,25.3,25.3,0,0,1,1.14-7.67,18.46,18.46,0,0,1,3.32-6.25,15.91,15.91,0,0,1,5.44-4.22,19.06,19.06,0,0,1,15.29.05,14,14,0,0,1,5.23,4.52,20.49,20.49,0,0,1,3,7,41.84,41.84,0,0,1,1.09,8.94h-12c0-1,0-2.15-.1-3.4a16.71,16.71,0,0,0-.57-3.56,6.15,6.15,0,0,0-1.61-2.79,4.26,4.26,0,0,0-3.11-1.12,4.37,4.37,0,0,0-3.73,1.83,7.85,7.85,0,0,0-1.35,4.77,9.4,9.4,0,0,0,1.81,5.59,29.49,29.49,0,0,0,4.51,4.93q2.69,2.39,5.91,4.93a42.38,42.38,0,0,1,5.91,5.69,30.24,30.24,0,0,1,4.51,7.11,22,22,0,0,1,1.81,9.25,24.66,24.66,0,0,1-1.19,7.77,18.22,18.22,0,0,1-3.52,6.3,16.65,16.65,0,0,1-5.8,4.27,19.29,19.29,0,0,1-8,1.58,16.45,16.45,0,0,1-8.76-2.08,15.44,15.44,0,0,1-5.29-5.33,21,21,0,0,1-2.59-7.21,45.92,45.92,0,0,1-.67-7.72Z"/><path class="cls-1" d="M405.3,496.79h-5V483.59h13.47v12.19l-8,16.25h-5.39Z"/><path class="cls-1" d="M447.58,454.9q0-9-1.19-12.75t-3.68-3.71a3.83,3.83,0,0,0-2.07.66q-1,.66-1.81,3.3a43.92,43.92,0,0,0-1.24,7.92q-.47,5.28-.47,14.53,0,8.94.31,14.17a52.65,52.65,0,0,0,.93,8q.62,2.74,1.71,3.5a4.49,4.49,0,0,0,2.64.76q3.31,0,4.4-4.62a64.6,64.6,0,0,0,1.29-12.55l11.4.51a92.9,92.9,0,0,1-.52,9.7,28,28,0,0,1-2.38,8.94,17.09,17.09,0,0,1-5.34,6.6q-3.47,2.59-9.38,2.59a15.59,15.59,0,0,1-9.07-2.54,17.67,17.67,0,0,1-5.91-7.37A42.29,42.29,0,0,1,424,480.76a114.4,114.4,0,0,1-1-15.9,86.93,86.93,0,0,1,1.5-17.53,39.51,39.51,0,0,1,4.09-11.63,16.9,16.9,0,0,1,6.06-6.45,14.89,14.89,0,0,1,7.51-2q5.8,0,9.28,2.39a15.4,15.4,0,0,1,5.29,6.25,27.24,27.24,0,0,1,2.33,8.74,93.41,93.41,0,0,1,.52,9.86Z"/><path class="cls-1" d="M463.23,464.86a96,96,0,0,1,1.4-17.88,36.48,36.48,0,0,1,4-11.58,15.86,15.86,0,0,1,6.22-6.25,18.32,18.32,0,0,1,16.17,0,15.88,15.88,0,0,1,6.22,6.25,36.53,36.53,0,0,1,4,11.58,114.94,114.94,0,0,1,0,35.76,36.51,36.51,0,0,1-4,11.58,15.86,15.86,0,0,1-6.22,6.25,18.32,18.32,0,0,1-16.17,0,15.84,15.84,0,0,1-6.22-6.25,36.46,36.46,0,0,1-4-11.58A96,96,0,0,1,463.23,464.86Zm14.71,7.62q0,5.89.36,9.55a31.91,31.91,0,0,0,1,5.74,5.41,5.41,0,0,0,1.55,2.79,3.37,3.37,0,0,0,4.14,0,5.41,5.41,0,0,0,1.55-2.79,32.18,32.18,0,0,0,1-5.74q.36-3.66.36-9.55V457.24q0-5.89-.36-9.55a31,31,0,0,0-1-5.69,5.74,5.74,0,0,0-1.55-2.79,3.2,3.2,0,0,0-4.14,0A5.73,5.73,0,0,0,479.3,442a30.73,30.73,0,0,0-1,5.69q-.36,3.66-.36,9.55Z"/><path class="cls-1" d="M507.41,428.69h17.93l6,37.08h.21l6.32-37.08h17.51V501h-12V448h-.21L534,501h-7.46l-9-53h-.21v53h-9.95Z"/><path class="cls-1" d="M562,428.69h13.47q11.4,0,17.31,5t5.91,16.66a37.33,37.33,0,0,1-1,8.89,18.32,18.32,0,0,1-3.16,6.86A14.7,14.7,0,0,1,589,470.5a19.08,19.08,0,0,1-8.13,1.58h-5.39v29H562Zm13.58,32.82h1.14a12.92,12.92,0,0,0,3.63-.46,5.59,5.59,0,0,0,2.64-1.68,8.1,8.1,0,0,0,1.66-3.35,21.34,21.34,0,0,0,.57-5.38,19.88,19.88,0,0,0-.73-6.1,7.41,7.41,0,0,0-1.92-3.2,5,5,0,0,0-2.75-1.27,24.91,24.91,0,0,0-3.21-.2h-1Z"/><path class="cls-1" d="M600.3,464.86A96,96,0,0,1,601.7,447a36.48,36.48,0,0,1,4-11.58,15.86,15.86,0,0,1,6.22-6.25,18.32,18.32,0,0,1,16.17,0,15.88,15.88,0,0,1,6.22,6.25,36.53,36.53,0,0,1,4,11.58,114.94,114.94,0,0,1,0,35.76,36.51,36.51,0,0,1-4,11.58,15.86,15.86,0,0,1-6.22,6.25,18.32,18.32,0,0,1-16.17,0,15.84,15.84,0,0,1-6.22-6.25,36.46,36.46,0,0,1-4-11.58A96,96,0,0,1,600.3,464.86ZM615,472.48q0,5.89.36,9.55a31.91,31.91,0,0,0,1,5.74,5.41,5.41,0,0,0,1.55,2.79,3.37,3.37,0,0,0,4.14,0,5.41,5.41,0,0,0,1.55-2.79,32.18,32.18,0,0,0,1-5.74q.36-3.66.36-9.55V457.24q0-5.89-.36-9.55a31,31,0,0,0-1-5.69,5.74,5.74,0,0,0-1.55-2.79,3.2,3.2,0,0,0-4.14,0,5.73,5.73,0,0,0-1.55,2.79,30.73,30.73,0,0,0-1,5.69q-.36,3.66-.36,9.55Z"/><path class="cls-1" d="M654.54,480.1q0,1.52.1,3.45a15.48,15.48,0,0,0,.62,3.66,6.62,6.62,0,0,0,1.71,2.9,4.6,4.6,0,0,0,3.37,1.17,5.49,5.49,0,0,0,2.8-.66,5.65,5.65,0,0,0,1.87-1.73,7.24,7.24,0,0,0,1-2.29,9.46,9.46,0,0,0,.31-2.34,9.73,9.73,0,0,0-1.81-5.79A28.32,28.32,0,0,0,660,473.6q-2.7-2.33-5.91-4.77a40.76,40.76,0,0,1-5.91-5.49,28.22,28.22,0,0,1-4.51-7A22.28,22.28,0,0,1,641.9,447a25.3,25.3,0,0,1,1.14-7.67,18.46,18.46,0,0,1,3.32-6.25,15.91,15.91,0,0,1,5.44-4.22,19.06,19.06,0,0,1,15.29.05,14,14,0,0,1,5.23,4.52,20.49,20.49,0,0,1,3,7,41.84,41.84,0,0,1,1.09,8.94h-12c0-1,0-2.15-.1-3.4a16.71,16.71,0,0,0-.57-3.56,6.15,6.15,0,0,0-1.61-2.79,4.26,4.26,0,0,0-3.11-1.12,4.37,4.37,0,0,0-3.73,1.83,7.85,7.85,0,0,0-1.35,4.77,9.4,9.4,0,0,0,1.81,5.59,29.49,29.49,0,0,0,4.51,4.93q2.69,2.39,5.91,4.93a42.38,42.38,0,0,1,5.91,5.69,30.24,30.24,0,0,1,4.51,7.11,22,22,0,0,1,1.81,9.25,24.66,24.66,0,0,1-1.19,7.77,18.22,18.22,0,0,1-3.52,6.3,16.65,16.65,0,0,1-5.8,4.27,19.29,19.29,0,0,1-8,1.58,16.45,16.45,0,0,1-8.76-2.08,15.44,15.44,0,0,1-5.29-5.33,21,21,0,0,1-2.59-7.21,45.92,45.92,0,0,1-.67-7.72Z"/><path class="cls-1" d="M682.06,428.69h30.47v11.18h-17v18.49h12.54v11.79H695.54v19.71h17.72V501H682.06Z"/><path class="cls-1" d="M727.12,480.1q0,1.52.1,3.45a15.48,15.48,0,0,0,.62,3.66,6.62,6.62,0,0,0,1.71,2.9,4.6,4.6,0,0,0,3.37,1.17,5.49,5.49,0,0,0,2.8-.66,5.65,5.65,0,0,0,1.87-1.73,7.24,7.24,0,0,0,1-2.29,9.46,9.46,0,0,0,.31-2.34,9.73,9.73,0,0,0-1.81-5.79,28.32,28.32,0,0,0-4.51-4.88q-2.7-2.33-5.91-4.77a40.76,40.76,0,0,1-5.91-5.49,28.22,28.22,0,0,1-4.51-7,22.28,22.28,0,0,1-1.81-9.35,25.3,25.3,0,0,1,1.14-7.67,18.46,18.46,0,0,1,3.32-6.25,15.91,15.91,0,0,1,5.44-4.22,19.06,19.06,0,0,1,15.29.05,14,14,0,0,1,5.23,4.52,20.49,20.49,0,0,1,3,7,41.84,41.84,0,0,1,1.09,8.94H737c0-1,0-2.15-.1-3.4a16.71,16.71,0,0,0-.57-3.56,6.15,6.15,0,0,0-1.61-2.79,4.26,4.26,0,0,0-3.11-1.12,4.37,4.37,0,0,0-3.73,1.83A7.85,7.85,0,0,0,726.5,445a9.4,9.4,0,0,0,1.81,5.59,29.49,29.49,0,0,0,4.51,4.93q2.69,2.39,5.91,4.93a42.38,42.38,0,0,1,5.91,5.69,30.24,30.24,0,0,1,4.51,7.11,22,22,0,0,1,1.81,9.25,24.66,24.66,0,0,1-1.19,7.77,18.22,18.22,0,0,1-3.52,6.3,16.65,16.65,0,0,1-5.8,4.27,19.29,19.29,0,0,1-8,1.58,16.45,16.45,0,0,1-8.76-2.08,15.44,15.44,0,0,1-5.29-5.33,21,21,0,0,1-2.59-7.21,45.92,45.92,0,0,1-.67-7.72Z"/><path class="cls-1" d="M4.87,521.82H22.8l6,37.08H29l6.32-37.08H52.85v72.34h-12v-53h-.21l-9.12,53H24l-9-53h-.21v53H4.87Z"/><path class="cls-1" d="M59.15,521.82H72.62v56a18.08,18.08,0,0,0,.16,2.39,6.18,6.18,0,0,0,.67,2.13,3.86,3.86,0,0,0,1.45,1.52,4.57,4.57,0,0,0,2.38.56,4,4,0,0,0,3.89-2,9.45,9.45,0,0,0,1.09-4.62v-56h11.4v54.25q0,10.67-4.56,15.09t-12.64,4.42a22.12,22.12,0,0,1-7.1-1.07,13.79,13.79,0,0,1-5.44-3.35,15.14,15.14,0,0,1-3.52-6,28.86,28.86,0,0,1-1.24-9.09Z"/><path class="cls-1" d="M109.89,573.23q0,1.52.1,3.45a15.48,15.48,0,0,0,.62,3.66,6.62,6.62,0,0,0,1.71,2.9,4.6,4.6,0,0,0,3.37,1.17,5.49,5.49,0,0,0,2.8-.66,5.65,5.65,0,0,0,1.87-1.73,7.24,7.24,0,0,0,1-2.29,9.46,9.46,0,0,0,.31-2.34,9.73,9.73,0,0,0-1.81-5.79,28.32,28.32,0,0,0-4.51-4.88q-2.7-2.33-5.91-4.77a40.76,40.76,0,0,1-5.91-5.49,28.21,28.21,0,0,1-4.51-7,22.28,22.28,0,0,1-1.81-9.35,25.28,25.28,0,0,1,1.14-7.67,18.46,18.46,0,0,1,3.32-6.25,15.9,15.9,0,0,1,5.44-4.22,19.06,19.06,0,0,1,15.29.05,14,14,0,0,1,5.23,4.52,20.49,20.49,0,0,1,3,7,41.84,41.84,0,0,1,1.09,8.94h-12c0-1,0-2.15-.1-3.4a16.71,16.71,0,0,0-.57-3.56,6.15,6.15,0,0,0-1.61-2.79,4.26,4.26,0,0,0-3.11-1.12,4.37,4.37,0,0,0-3.73,1.83,7.85,7.85,0,0,0-1.35,4.77,9.4,9.4,0,0,0,1.81,5.59,29.49,29.49,0,0,0,4.51,4.93q2.69,2.39,5.91,4.93a42.38,42.38,0,0,1,5.91,5.69,30.24,30.24,0,0,1,4.51,7.11,22,22,0,0,1,1.81,9.25,24.66,24.66,0,0,1-1.19,7.77,18.22,18.22,0,0,1-3.52,6.3,16.65,16.65,0,0,1-5.8,4.27,19.29,19.29,0,0,1-8,1.58,16.45,16.45,0,0,1-8.76-2.08,15.42,15.42,0,0,1-5.29-5.33A21,21,0,0,1,98.54,581a45.92,45.92,0,0,1-.67-7.72Z"/><path class="cls-1" d="M137.12,521.82h13.47v72.34H137.12Z"/><path class="cls-1" d="M180.17,548q0-9-1.19-12.75t-3.68-3.71a3.83,3.83,0,0,0-2.07.66q-1,.66-1.81,3.3a43.92,43.92,0,0,0-1.24,7.92q-.47,5.28-.47,14.53,0,8.94.31,14.17a52.65,52.65,0,0,0,.93,8q.62,2.74,1.71,3.5a4.49,4.49,0,0,0,2.64.76q3.31,0,4.4-4.62A64.6,64.6,0,0,0,181,567.24l11.4.51a92.9,92.9,0,0,1-.52,9.7,28,28,0,0,1-2.38,8.94,17.09,17.09,0,0,1-5.34,6.6q-3.47,2.59-9.38,2.59a15.59,15.59,0,0,1-9.07-2.54,17.67,17.67,0,0,1-5.91-7.37,42.29,42.29,0,0,1-3.21-11.79,114.4,114.4,0,0,1-1-15.9,86.93,86.93,0,0,1,1.5-17.53,39.51,39.51,0,0,1,4.09-11.63,16.9,16.9,0,0,1,6.06-6.45,14.89,14.89,0,0,1,7.51-2q5.8,0,9.28,2.39a15.4,15.4,0,0,1,5.29,6.25,27.24,27.24,0,0,1,2.33,8.74,93.41,93.41,0,0,1,.52,9.86Z"/><path class="cls-1" d="M217.26,521.82h19.48l9.12,72.34h-13l-2-16.05H220.06l-1.87,16.05H206.9Zm8.6,11.18h-.21l-4.25,34.54h8.39Z"/><path class="cls-1" d="M249,521.82h13.16L274.48,560h.21v-38.2h10.78v72.34H275l-14.41-43.79h-.21v43.79H249Z"/><path class="cls-1" d="M292.1,521.82h11.71q8.5,0,13.42,2.59a17.52,17.52,0,0,1,7.46,7.32,30.37,30.37,0,0,1,3.21,11.38q.67,6.65.67,14.88,0,7.83-.62,14.48a34.26,34.26,0,0,1-2.9,11.48,17,17,0,0,1-6.79,7.52q-4.51,2.69-12.28,2.69H292.1ZM305.58,583a11.55,11.55,0,0,0,5-.86,5.6,5.6,0,0,0,2.64-3.5,29.12,29.12,0,0,0,1.09-7.57q.21-4.93.21-13.16t-.21-13.11a28.23,28.23,0,0,0-1.09-7.47,5.58,5.58,0,0,0-2.64-3.45,11.57,11.57,0,0,0-5-.86Z"/><path class="cls-1" d="M346,521.82h13.47q11.4,0,17.31,5t5.91,16.66a37.33,37.33,0,0,1-1,8.89,18.32,18.32,0,0,1-3.16,6.86,14.7,14.7,0,0,1-5.54,4.42,19.08,19.08,0,0,1-8.13,1.58h-5.39v29H346Zm13.58,32.82h1.14a12.92,12.92,0,0,0,3.63-.46A5.59,5.59,0,0,0,367,552.5a8.1,8.1,0,0,0,1.66-3.35,21.34,21.34,0,0,0,.57-5.38,19.88,19.88,0,0,0-.73-6.1,7.41,7.41,0,0,0-1.92-3.2,5,5,0,0,0-2.75-1.27,24.91,24.91,0,0,0-3.21-.2h-1Z"/><path class="cls-1" d="M385.42,521.82h15.13a33.28,33.28,0,0,1,8.71,1.07,16.75,16.75,0,0,1,6.74,3.5,16.17,16.17,0,0,1,4.35,6.35,26.09,26.09,0,0,1,1.55,9.6,34.57,34.57,0,0,1-.36,4.88,23,23,0,0,1-1.3,5,18.76,18.76,0,0,1-2.44,4.47A12.32,12.32,0,0,1,414,560l8,34.14H408.43l-6.32-31.09h-3.21v31.09H385.42Zm13.47,30.68h2.69a5.57,5.57,0,0,0,3.16-.86,7,7,0,0,0,2.12-2.24,9.86,9.86,0,0,0,1.19-3.2,19.32,19.32,0,0,0,.36-3.76q0-5.89-2-8a7.24,7.24,0,0,0-5.44-2.08h-2.07Z"/><path class="cls-1" d="M434.26,521.82h19.48l9.12,72.34h-13l-2-16.05H437.06l-1.87,16.05H423.9Zm8.6,11.18h-.21l-4.25,34.54h8.39Z"/><path class="cls-1" d="M488.45,548q0-9-1.19-12.75t-3.68-3.71a3.83,3.83,0,0,0-2.07.66q-1,.66-1.81,3.3a43.92,43.92,0,0,0-1.24,7.92Q478,548.75,478,558q0,8.94.31,14.17a52.65,52.65,0,0,0,.93,8q.62,2.74,1.71,3.5a4.49,4.49,0,0,0,2.64.76q3.31,0,4.4-4.62a64.6,64.6,0,0,0,1.29-12.55l11.4.51a92.9,92.9,0,0,1-.52,9.7,28,28,0,0,1-2.38,8.94,17.09,17.09,0,0,1-5.34,6.6q-3.47,2.59-9.38,2.59A15.59,15.59,0,0,1,474,593a17.67,17.67,0,0,1-5.91-7.37,42.29,42.29,0,0,1-3.21-11.79,114.4,114.4,0,0,1-1-15.9,86.93,86.93,0,0,1,1.5-17.53,39.51,39.51,0,0,1,4.09-11.63,16.9,16.9,0,0,1,6.06-6.45,14.89,14.89,0,0,1,7.51-2q5.8,0,9.28,2.39a15.4,15.4,0,0,1,5.29,6.25,27.24,27.24,0,0,1,2.33,8.74,93.41,93.41,0,0,1,.52,9.86Z"/><path class="cls-1" d="M513.55,533H501.94V521.82h36.68V533H527v61.16H513.55Z"/><path class="cls-1" d="M540.93,521.82h13.47v72.34H540.93Z"/><path class="cls-1" d="M584,548q0-9-1.19-12.75t-3.68-3.71a3.83,3.83,0,0,0-2.07.66q-1,.66-1.81,3.3a43.92,43.92,0,0,0-1.24,7.92q-.47,5.28-.47,14.53,0,8.94.31,14.17a52.65,52.65,0,0,0,.93,8q.62,2.74,1.71,3.5a4.49,4.49,0,0,0,2.64.76q3.31,0,4.4-4.62a64.6,64.6,0,0,0,1.29-12.55l11.4.51a92.9,92.9,0,0,1-.52,9.7,28,28,0,0,1-2.38,8.94A17.09,17.09,0,0,1,588,593q-3.47,2.59-9.38,2.59a15.59,15.59,0,0,1-9.07-2.54,17.67,17.67,0,0,1-5.91-7.37,42.29,42.29,0,0,1-3.21-11.79,114.4,114.4,0,0,1-1-15.9,86.93,86.93,0,0,1,1.5-17.53A39.51,39.51,0,0,1,565,528.83a16.9,16.9,0,0,1,6.06-6.45,14.89,14.89,0,0,1,7.51-2q5.8,0,9.28,2.39a15.4,15.4,0,0,1,5.29,6.25,27.24,27.24,0,0,1,2.33,8.74,93.41,93.41,0,0,1,.52,9.86Z"/><path class="cls-1" d="M601.36,521.82h30.47V533h-17v18.49h12.54v11.79H614.83V583h17.72v11.18H601.36Z"/><path class="cls-1" d="M646.42,573.23q0,1.52.1,3.45a15.48,15.48,0,0,0,.62,3.66,6.62,6.62,0,0,0,1.71,2.9,4.6,4.6,0,0,0,3.37,1.17,5.49,5.49,0,0,0,2.8-.66,5.65,5.65,0,0,0,1.87-1.73,7.24,7.24,0,0,0,1-2.29,9.46,9.46,0,0,0,.31-2.34,9.73,9.73,0,0,0-1.81-5.79,28.32,28.32,0,0,0-4.51-4.88q-2.7-2.33-5.91-4.77a40.76,40.76,0,0,1-5.91-5.49,28.22,28.22,0,0,1-4.51-7,22.28,22.28,0,0,1-1.81-9.35,25.3,25.3,0,0,1,1.14-7.67,18.46,18.46,0,0,1,3.32-6.25,15.91,15.91,0,0,1,5.44-4.22A19.06,19.06,0,0,1,659,522a14,14,0,0,1,5.23,4.52,20.49,20.49,0,0,1,3,7,41.84,41.84,0,0,1,1.09,8.94h-12c0-1,0-2.15-.1-3.4a16.71,16.71,0,0,0-.57-3.56,6.15,6.15,0,0,0-1.61-2.79,4.26,4.26,0,0,0-3.11-1.12,4.37,4.37,0,0,0-3.73,1.83,7.85,7.85,0,0,0-1.35,4.77,9.4,9.4,0,0,0,1.81,5.59,29.49,29.49,0,0,0,4.51,4.93q2.69,2.39,5.91,4.93a42.38,42.38,0,0,1,5.91,5.69,30.24,30.24,0,0,1,4.51,7.11,22,22,0,0,1,1.81,9.25,24.66,24.66,0,0,1-1.19,7.77,18.22,18.22,0,0,1-3.52,6.3,16.65,16.65,0,0,1-5.8,4.27,19.29,19.29,0,0,1-8,1.58,16.45,16.45,0,0,1-8.76-2.08,15.44,15.44,0,0,1-5.29-5.33,21,21,0,0,1-2.59-7.21,45.92,45.92,0,0,1-.67-7.72Z"/><path class="cls-1" d="M28,641.17q0-9-1.19-12.75t-3.68-3.71a3.83,3.83,0,0,0-2.07.66q-1,.66-1.81,3.3A43.92,43.92,0,0,0,18,636.59q-.47,5.28-.47,14.53,0,8.94.31,14.17a52.71,52.71,0,0,0,.93,8q.62,2.74,1.71,3.5a4.49,4.49,0,0,0,2.64.76q3.31,0,4.4-4.62a64.71,64.71,0,0,0,1.3-12.55l11.4.51a92.9,92.9,0,0,1-.52,9.7,28,28,0,0,1-2.38,8.94,17.09,17.09,0,0,1-5.34,6.6q-3.47,2.59-9.38,2.59a15.59,15.59,0,0,1-9.07-2.54,17.67,17.67,0,0,1-5.91-7.37A42.31,42.31,0,0,1,4.4,667a114.32,114.32,0,0,1-1-15.9,86.89,86.89,0,0,1,1.5-17.53A39.5,39.5,0,0,1,9,622a16.9,16.9,0,0,1,6.06-6.45,14.9,14.9,0,0,1,7.51-2q5.8,0,9.27,2.39a15.39,15.39,0,0,1,5.29,6.25,27.24,27.24,0,0,1,2.33,8.74,93.41,93.41,0,0,1,.52,9.86Z"/><path class="cls-1" d="M43.64,651.12A96,96,0,0,1,45,633.24a36.48,36.48,0,0,1,4-11.58,15.86,15.86,0,0,1,6.22-6.25,18.32,18.32,0,0,1,16.17,0,15.88,15.88,0,0,1,6.22,6.25,36.52,36.52,0,0,1,4,11.58A96,96,0,0,1,83,651.12,96,96,0,0,1,81.62,669a36.5,36.5,0,0,1-4,11.58,15.86,15.86,0,0,1-6.22,6.25,18.32,18.32,0,0,1-16.17,0A15.85,15.85,0,0,1,49,680.58,36.46,36.46,0,0,1,45,669,96,96,0,0,1,43.64,651.12Zm14.72,7.62q0,5.89.36,9.55a32,32,0,0,0,1,5.74,5.41,5.41,0,0,0,1.55,2.79,3.37,3.37,0,0,0,4.15,0A5.41,5.41,0,0,0,67,674a32.09,32.09,0,0,0,1-5.74q.36-3.66.36-9.55V643.5q0-5.89-.36-9.55a30.89,30.89,0,0,0-1-5.69,5.74,5.74,0,0,0-1.55-2.79,3.2,3.2,0,0,0-4.15,0,5.74,5.74,0,0,0-1.55,2.79,30.76,30.76,0,0,0-1,5.69q-.36,3.66-.36,9.55Z"/><path class="cls-1" d="M87.81,615h17.93l6,37.08H112L118.28,615h17.51v72.34h-12v-53h-.21l-9.12,53H107l-9-53h-.21v53H87.81Z"/><path class="cls-1" d="M142.38,615h13.47q11.4,0,17.31,5t5.91,16.66a37.33,37.33,0,0,1-1,8.89,18.32,18.32,0,0,1-3.16,6.86,14.7,14.7,0,0,1-5.54,4.42,19.08,19.08,0,0,1-8.13,1.58h-5.39v29H142.38ZM156,647.77h1.14a12.92,12.92,0,0,0,3.63-.46,5.59,5.59,0,0,0,2.64-1.68,8.1,8.1,0,0,0,1.66-3.35,21.34,21.34,0,0,0,.57-5.38,19.88,19.88,0,0,0-.73-6.1,7.41,7.41,0,0,0-1.92-3.2,5,5,0,0,0-2.75-1.27,24.91,24.91,0,0,0-3.21-.2h-1Z"/><path class="cls-1" d="M181.82,615h13.47v61.16h17.2v11.18H181.82Z"/><path class="cls-1" d="M216.22,615h30.47v11.18h-17v18.49h12.54V656.4H229.69v19.71h17.72v11.18H216.22Z"/><path class="cls-1" d="M260.54,650.41,248.73,615H262.2l5.6,19.41H268L273,615h11.5l-11,33.63,13.06,38.71H273l-6.53-21.74h-.21L260,687.29h-11.4Z"/><path class="cls-1" d="M326.65,641.17q0-9-1.19-12.75t-3.68-3.71a3.83,3.83,0,0,0-2.07.66q-1,.66-1.81,3.3a43.92,43.92,0,0,0-1.24,7.92q-.47,5.28-.47,14.53,0,8.94.31,14.17a52.65,52.65,0,0,0,.93,8q.62,2.74,1.71,3.5a4.49,4.49,0,0,0,2.64.76q3.31,0,4.4-4.62a64.6,64.6,0,0,0,1.29-12.55l11.4.51a92.9,92.9,0,0,1-.52,9.7,28,28,0,0,1-2.38,8.94,17.09,17.09,0,0,1-5.34,6.6q-3.47,2.59-9.38,2.59a15.59,15.59,0,0,1-9.07-2.54,17.67,17.67,0,0,1-5.91-7.37A42.29,42.29,0,0,1,303.08,667a114.4,114.4,0,0,1-1-15.9,86.93,86.93,0,0,1,1.5-17.53A39.51,39.51,0,0,1,307.69,622a16.9,16.9,0,0,1,6.06-6.45,14.89,14.89,0,0,1,7.51-2q5.8,0,9.28,2.39a15.4,15.4,0,0,1,5.29,6.25,27.24,27.24,0,0,1,2.33,8.74,93.41,93.41,0,0,1,.52,9.86Z"/><path class="cls-1" d="M350.57,615h19.48l9.12,72.34h-13l-2-16.05H353.37l-1.87,16.05H340.21Zm8.6,11.18H359l-4.25,34.54h8.39Z"/><path class="cls-1" d="M382.53,615h15.13a33.28,33.28,0,0,1,8.71,1.07,16.75,16.75,0,0,1,6.74,3.5,16.17,16.17,0,0,1,4.35,6.35,26.09,26.09,0,0,1,1.55,9.6,34.57,34.57,0,0,1-.36,4.88,23,23,0,0,1-1.3,5,18.76,18.76,0,0,1-2.44,4.47,12.32,12.32,0,0,1-3.78,3.35l8,34.14H405.53l-6.32-31.09H396v31.09H382.53ZM396,645.63h2.69a5.57,5.57,0,0,0,3.16-.86,7,7,0,0,0,2.12-2.24,9.86,9.86,0,0,0,1.19-3.2,19.32,19.32,0,0,0,.36-3.76q0-5.89-2-8a7.24,7.24,0,0,0-5.44-2.08H396Z"/><path class="cls-1" d="M423.41,615h11.71q8.5,0,13.42,2.59a17.52,17.52,0,0,1,7.46,7.32,30.37,30.37,0,0,1,3.21,11.38q.67,6.65.67,14.88,0,7.83-.62,14.48a34.26,34.26,0,0,1-2.9,11.48,17,17,0,0,1-6.79,7.52q-4.51,2.69-12.28,2.69H423.41Zm13.47,61.16a11.55,11.55,0,0,0,5-.86,5.6,5.6,0,0,0,2.64-3.5,29.12,29.12,0,0,0,1.09-7.57q.21-4.93.21-13.16t-.21-13.11a28.23,28.23,0,0,0-1.09-7.47,5.58,5.58,0,0,0-2.64-3.45,11.57,11.57,0,0,0-5-.86Z"/><path class="cls-1" d="M478.85,615h17.93l6,37.08H503L509.32,615h17.51v72.34h-12v-53h-.21l-9.12,53H498l-9-53h-.21v53h-9.95Z"/><path class="cls-1" d="M540.26,615h19.48l9.12,72.34h-13l-2-16.05H543.06l-1.87,16.05H529.9Zm8.6,11.18h-.21l-4.25,34.54h8.39Z"/><path class="cls-1" d="M594.76,640.76q0-1.22.05-3.91a31.51,31.51,0,0,0-.36-5.38,15.61,15.61,0,0,0-1.45-4.72,3.4,3.4,0,0,0-3.21-2,3.69,3.69,0,0,0-2.33.86,7.14,7.14,0,0,0-1.87,3.61,43.63,43.63,0,0,0-1.19,7.92Q584,642.28,584,651q0,8.94.41,14.17a40.13,40.13,0,0,0,1.24,8,6.53,6.53,0,0,0,2,3.56,4.75,4.75,0,0,0,2.75.81,3.51,3.51,0,0,0,3-1.63,11,11,0,0,0,1.66-3.81,27.4,27.4,0,0,0,.67-4.42q.16-2.23.16-3.56h-5V653.56H607.3v33.73h-5.7l-1.87-4.78a16.07,16.07,0,0,1-4.35,4.27,10.88,10.88,0,0,1-6.32,1.93,15.59,15.59,0,0,1-9.07-2.54,17.67,17.67,0,0,1-5.91-7.37A42.29,42.29,0,0,1,570.87,667a114.4,114.4,0,0,1-1-15.9,86.93,86.93,0,0,1,1.5-17.53A39.51,39.51,0,0,1,575.48,622a16.9,16.9,0,0,1,6.06-6.45,14.89,14.89,0,0,1,7.51-2,23.38,23.38,0,0,1,6.42.91,13,13,0,0,1,5.7,3.4,18.13,18.13,0,0,1,4,6.91,34.68,34.68,0,0,1,1.55,11.33v4.67Z"/><path class="cls-1" d="M612.8,615h13.47v72.34H612.8Z"/><path class="cls-1" d="M655.84,641.17q0-9-1.19-12.75T651,624.71a3.83,3.83,0,0,0-2.07.66q-1,.66-1.81,3.3a43.92,43.92,0,0,0-1.24,7.92q-.47,5.28-.47,14.53,0,8.94.31,14.17a52.65,52.65,0,0,0,.93,8q.62,2.74,1.71,3.5a4.49,4.49,0,0,0,2.64.76q3.31,0,4.4-4.62a64.6,64.6,0,0,0,1.29-12.55l11.4.51a92.9,92.9,0,0,1-.52,9.7,28,28,0,0,1-2.38,8.94,17.09,17.09,0,0,1-5.34,6.6q-3.47,2.59-9.38,2.59a15.59,15.59,0,0,1-9.07-2.54,17.67,17.67,0,0,1-5.91-7.37A42.29,42.29,0,0,1,632.27,667a114.4,114.4,0,0,1-1-15.9,86.93,86.93,0,0,1,1.5-17.53A39.51,39.51,0,0,1,636.88,622a16.9,16.9,0,0,1,6.06-6.45,14.89,14.89,0,0,1,7.51-2q5.8,0,9.28,2.39a15.4,15.4,0,0,1,5.29,6.25,27.24,27.24,0,0,1,2.33,8.74,93.41,93.41,0,0,1,.52,9.86Z"/><path class="cls-1" d="M672.36,674.08h13.47v13.21H672.36Z"/></g></g></svg>