<svg version="1.1" id="Layer_1" xmlns="http://www.w3.org/2000/svg" xmlns:xlink="http://www.w3.org/1999/xlink" x="0px" y="0px"
	 width="360px" height="120px" viewBox="0 0 360 120" style="enable-background:new 0 0 360 120;" xml:space="preserve">
<style type="text/css">
	.st0{fill:#3A3A3A;}
	.st1{fill:#ADC9B5;}
	.st2{fill:#282928;}
	.st3{fill:#B6D4BE;}
	.st4{fill:#2C2C2C;}
	.st5{fill:#BFDEC7;}
	.st6{fill:#313131;}
	.st7{fill:#C6E7D0;}
	.st8{fill:#353535;}
	.st9{fill:#D0F0D9;}
	.st10{fill:#393939;}
	.st11{fill:#676767;}
</style>
<g>
	<path class="st0" d="M279.2,68.1c-0.1,0-0.2,0-0.3,0c-4.4,0-8.1-3.6-8.1-8.1s3.6-8.1,8.1-8.1c1.3,0,2.5,0.3,3.6,0.9l0.3,0.2
		l-0.3,0.7l-0.3-0.2c-1-0.5-2.1-0.8-3.3-0.8c-4,0-7.3,3.3-7.3,7.3c0,4,3.3,7.3,7.3,7.3c0.5,0,1,0,1.4-0.1L279.2,68.1z"/>
	<path class="st0" d="M89.4,68.1c-4.4,0-8.1-3.6-8.1-8.1s3.6-8.1,8.1-8.1c4.4,0,8.1,3.6,8.1,8.1S93.8,68.1,89.4,68.1 M89.4,52.7
		c-4,0-7.3,3.3-7.3,7.3c0,4,3.3,7.3,7.3,7.3c4,0,7.3-3.3,7.3-7.3C96.7,56,93.4,52.7,89.4,52.7"/>
	<polyline class="st0" points="96.7,39.7 97.4,39.7 97.4,80.3 96.7,80.3 96.7,39.7 	"/>
	<rect x="99.7" y="39.7" class="st0" width="0.8" height="40.7"/>
	<rect x="102.8" y="39.7" class="st0" width="0.8" height="40.7"/>
	<rect x="105.9" y="39.7" class="st0" width="0.8" height="40.7"/>
	<rect x="109" y="39.7" class="st0" width="0.8" height="40.7"/>
	<path class="st0" d="M278.9,71.1c-6.1,0-11.1-5-11.1-11.1c0-6.1,5-11.1,11.1-11.1c2.2,0,4.4,0.7,6.3,1.9l0.3,0.2l-0.4,0.6l-0.3-0.2
		c-1.7-1.2-3.7-1.8-5.8-1.8c-5.7,0-10.4,4.6-10.4,10.4c0,5.7,4.6,10.4,10.4,10.4c3.2,0,6.2-1.5,8.2-4l0.2-0.3l0.6,0.5l-0.2,0.3
		C285.6,69.6,282.4,71.1,278.9,71.1"/>
	<path class="st0" d="M278.9,74.2c-7.8,0-14.2-6.4-14.2-14.2c0-7.8,6.4-14.2,14.2-14.2c3.2,0,6.3,1.1,8.8,3.1l0.3,0.2l-0.5,0.6
		l-0.3-0.2c-2.4-1.9-5.3-2.9-8.3-2.9c-7.4,0-13.4,6-13.4,13.4s6,13.4,13.4,13.4c4.2,0,8-1.9,10.6-5.2l0.2-0.3l0.6,0.5l-0.2,0.3
		C287.4,72.2,283.3,74.2,278.9,74.2"/>
	<path class="st0" d="M278.9,77.3c-9.5,0-17.3-7.7-17.3-17.3c0-9.5,7.7-17.3,17.3-17.3c4.1,0,8.2,1.5,11.3,4.2l0.3,0.3l-0.5,0.6
		l-0.3-0.3c-3-2.6-6.8-4-10.8-4c-9.1,0-16.5,7.4-16.5,16.5c0,9.1,7.4,16.5,16.5,16.5c5.1,0,9.8-2.3,13-6.3l0.2-0.3l0.6,0.5l-0.2,0.3
		C289.2,74.8,284.3,77.3,278.9,77.3"/>
	<path class="st0" d="M292,45.4c-3.6-3.2-8.2-5-13-5c-10.8,0-19.6,8.8-19.6,19.6c0,10.8,8.8,19.6,19.6,19.6c6.1,0,11.7-2.7,15.4-7.5
		l0.2-0.3l0.6,0.5l-0.2,0.3c-3.9,5-9.7,7.8-16,7.8c-11.2,0-20.3-9.1-20.3-20.3c0-11.2,9.1-20.3,20.3-20.3c5.2,0,10.1,2,13.9,5.5
		l0.3,0.3l-21.5,16.8l-0.5-0.6L292,45.4"/>
	<rect y="24.3" class="st0" width="0.8" height="56"/>
	<rect x="3.1" y="24.3" class="st0" width="0.8" height="56"/>
	<rect x="6.1" y="24.3" class="st0" width="0.8" height="56"/>
	<rect x="9.2" y="24.3" class="st0" width="0.8" height="56"/>
	<rect x="12.3" y="24.3" class="st0" width="0.8" height="56"/>
	<polyline class="st0" points="53.7,39.7 54.5,39.7 54.5,80.3 53.7,80.3 53.7,39.7 	"/>
	<rect x="50.6" y="39.7" class="st0" width="0.8" height="40.7"/>
	<rect x="47.6" y="39.7" class="st0" width="0.8" height="40.7"/>
	<rect x="44.5" y="39.7" class="st0" width="0.8" height="40.7"/>
	<rect x="41.4" y="39.7" class="st0" width="0.8" height="40.7"/>
	<polyline class="st0" points="294.7,47.2 295.2,47.8 273,65.2 272.5,64.6 294.7,47.2 	"/>
	<polyline class="st0" points="296.4,49.7 296.9,50.4 275.4,67.2 274.9,66.6 296.4,49.7 	"/>
	<path class="st0" d="M89.4,71.1c-6.1,0-11.1-5-11.1-11.1c0-6.1,5-11.1,11.1-11.1c3,0,5.8,1.2,7.9,3.3l-0.5,0.5c-2-2-4.6-3-7.3-3
		C83.7,49.6,79,54.3,79,60c0,5.7,4.6,10.4,10.4,10.4c2.8,0,5.4-1.1,7.4-3.1l0.5,0.5C95.2,69.9,92.4,71.1,89.4,71.1"/>
	<path class="st0" d="M89.4,74.2c-7.8,0-14.2-6.4-14.2-14.2c0-7.8,6.4-14.2,14.2-14.2c2.8,0,5.5,0.8,7.9,2.4l-0.4,0.6
		c-2.2-1.5-4.8-2.3-7.5-2.3C82,46.6,76,52.6,76,60s6,13.4,13.4,13.4c2.7,0,5.3-0.8,7.5-2.3l0.4,0.6C95,73.4,92.2,74.2,89.4,74.2"/>
	<path class="st0" d="M89.4,77.3c-9.5,0-17.3-7.7-17.3-17.3c0-9.5,7.7-17.3,17.3-17.3c2.8,0,5.4,0.6,7.8,1.9l-0.3,0.7
		c-2.3-1.2-4.9-1.8-7.5-1.8c-9.1,0-16.5,7.4-16.5,16.5c0,9.1,7.4,16.5,16.5,16.5c2.6,0,5.2-0.6,7.5-1.8l0.3,0.7
		C94.8,76.6,92.2,77.3,89.4,77.3"/>
	<path class="st0" d="M89.4,80.3c-11.2,0-20.3-9.1-20.3-20.3c0-11.2,9.1-20.3,20.3-20.3c2.7,0,5.3,0.5,7.8,1.6l-0.3,0.7
		c-2.4-1-4.9-1.5-7.5-1.5c-10.8,0-19.6,8.8-19.6,19.6c0,10.8,8.8,19.6,19.6,19.6c2.6,0,5.2-0.5,7.6-1.5l0.3,0.7
		C94.8,79.8,92.1,80.3,89.4,80.3"/>
	<path class="st0" d="M179.9,68.1c-4.4,0-8.1-3.6-8.1-8.1s3.6-8.1,8.1-8.1c4.4,0,8.1,3.6,8.1,8.1S184.4,68.1,179.9,68.1 M179.9,52.7
		c-4,0-7.3,3.3-7.3,7.3c0,4,3.3,7.3,7.3,7.3c4,0,7.3-3.3,7.3-7.3C187.2,56,184,52.7,179.9,52.7"/>
	<polyline class="st0" points="187.2,24.3 188,24.3 188,80.3 187.2,80.3 187.2,24.3 	"/>
	<rect x="190.3" y="24.3" class="st0" width="0.8" height="56"/>
	<rect x="193.4" y="24.3" class="st0" width="0.8" height="56"/>
	<rect x="196.4" y="24.3" class="st0" width="0.8" height="56"/>
	<rect x="199.5" y="24.3" class="st0" width="0.8" height="56"/>
	<path class="st0" d="M179.9,71.1c-6.1,0-11.1-5-11.1-11.1c0-6.1,5-11.1,11.1-11.1c3,0,5.8,1.2,7.9,3.3l-0.5,0.5c-2-2-4.6-3-7.3-3
		c-5.7,0-10.4,4.6-10.4,10.4c0,5.7,4.6,10.4,10.4,10.4c2.8,0,5.4-1.1,7.4-3.1l0.5,0.5C185.8,69.9,182.9,71.1,179.9,71.1"/>
	<path class="st0" d="M179.9,74.2c-7.8,0-14.2-6.4-14.2-14.2c0-7.8,6.4-14.2,14.2-14.2c2.8,0,5.5,0.8,7.9,2.4l-0.4,0.6
		c-2.2-1.5-4.8-2.3-7.5-2.3c-7.4,0-13.4,6-13.4,13.4s6,13.4,13.4,13.4c2.7,0,5.3-0.8,7.5-2.3l0.4,0.6
		C185.5,73.4,182.8,74.2,179.9,74.2"/>
	<path class="st0" d="M179.9,77.3c-9.5,0-17.3-7.7-17.3-17.3c0-9.5,7.7-17.3,17.3-17.3c2.8,0,5.4,0.6,7.8,1.9l-0.3,0.7
		c-2.3-1.2-4.9-1.8-7.5-1.8c-9.1,0-16.5,7.4-16.5,16.5c0,9.1,7.4,16.5,16.5,16.5c2.6,0,5.2-0.6,7.5-1.8l0.3,0.7
		C185.3,76.6,182.7,77.3,179.9,77.3"/>
	<path class="st0" d="M179.9,80.3c-11.2,0-20.3-9.1-20.3-20.3c0-11.2,9.1-20.3,20.3-20.3c2.7,0,5.3,0.5,7.8,1.6l-0.3,0.7
		c-2.4-1-4.9-1.5-7.5-1.5c-10.8,0-19.6,8.8-19.6,19.6c0,10.8,8.8,19.6,19.6,19.6c2.6,0,5.2-0.5,7.6-1.5l0.3,0.7
		C185.3,79.8,182.7,80.3,179.9,80.3"/>
	<polyline class="st0" points="127.4,39.7 128.1,39.7 128.1,80.3 127.4,80.3 127.4,39.7 	"/>
	<rect x="124.3" y="39.7" class="st0" width="0.8" height="40.7"/>
	<rect x="121.2" y="39.7" class="st0" width="0.8" height="40.7"/>
	<rect x="118.2" y="39.7" class="st0" width="0.8" height="40.7"/>
	<rect x="115.1" y="39.7" class="st0" width="0.8" height="40.7"/>
	<path class="st0" d="M143.5,80h-0.8V60c0-4-3.3-7.3-7.3-7.3c-4,0-7.3,3.3-7.3,7.3h-0.8c0-4.4,3.6-8.1,8.1-8.1
		c4.4,0,8.1,3.6,8.1,8.1V80"/>
	<path class="st0" d="M146.6,80h-0.8V60c0-5.7-4.6-10.4-10.4-10.4c-2.8,0-5.4,1.1-7.4,3.1l-0.5-0.5c2.1-2.2,4.9-3.3,7.9-3.3
		c6.1,0,11.1,5,11.1,11.1V80"/>
	<path class="st0" d="M149.6,80h-0.8V60c0-7.4-6-13.4-13.4-13.4c-2.7,0-5.3,0.8-7.5,2.3l-0.4-0.6c2.3-1.6,5.1-2.4,7.9-2.4
		c7.8,0,14.2,6.4,14.2,14.2V80"/>
	<path class="st0" d="M152.7,80h-0.8V60c0-9.1-7.4-16.5-16.5-16.5c-2.6,0-5.2,0.6-7.5,1.8l-0.3-0.7c2.4-1.2,5.1-1.9,7.8-1.9
		c9.5,0,17.3,7.7,17.3,17.3V80"/>
	<path class="st0" d="M155.8,80H155V60c0-10.8-8.8-19.6-19.6-19.6c-2.6,0-5.2,0.5-7.6,1.5l-0.3-0.7c2.5-1.1,5.2-1.6,7.9-1.6
		c11.2,0,20.3,9.1,20.3,20.3V80"/>
	<polyline class="st0" points="254.7,78.5 252.4,74.3 252.4,24.3 251.7,24.3 251.7,72.9 249.4,68.8 249.4,24.3 248.6,24.3 
		248.6,67.4 246.3,63.3 246.3,24.3 245.5,24.3 245.5,61.9 243.2,57.8 243.2,24.3 242.5,24.3 242.5,56.4 224.7,24.3 223.8,24.3 
		254.9,80.3 255.5,80.3 255.5,24.3 254.7,24.3 254.7,78.5 	"/>
	<polygon class="st0" points="246.6,80.3 215.5,24.3 214.6,24.3 245.7,80.3 	"/>
	<polygon class="st0" points="252.7,80.3 221.6,24.3 220.7,24.3 251.8,80.3 	"/>
	<polygon class="st0" points="249.6,80.3 218.5,24.3 217.6,24.3 248.8,80.3 	"/>
	<path class="st0" d="M61.8,52.7c2,0,3.9,0.8,5.2,2.2c0.1-0.3,0.1-0.6,0.2-0.9c-1.4-1.3-3.3-2.1-5.4-2.1c-4.4,0-8.1,3.6-8.1,8.1h0.8
		C54.5,56,57.7,52.7,61.8,52.7"/>
	<path class="st0" d="M53.9,44.6l0.3,0.7c2.3-1.2,4.9-1.8,7.5-1.8c3.4,0,6.5,1,9.1,2.8c0.2-0.2,0.3-0.4,0.5-0.6
		c-2.8-1.9-6.1-2.9-9.6-2.9C59,42.7,56.4,43.4,53.9,44.6"/>
	<path class="st0" d="M61.8,40.4c4.1,0,8,1.3,11.1,3.5c0.2-0.2,0.4-0.4,0.6-0.5c-3.3-2.3-7.3-3.7-11.7-3.7c-2.7,0-5.4,0.5-7.9,1.6
		l0.3,0.7C56.6,41,59.1,40.4,61.8,40.4"/>
	<path class="st0" d="M61.8,49.6c2.3,0,4.4,0.8,6.2,2c0.1-0.2,0.2-0.5,0.3-0.7c-1.8-1.3-4-2.1-6.5-2.1c-3,0-5.8,1.2-7.9,3.3l0.5,0.5
		C56.3,50.7,59,49.6,61.8,49.6"/>
	<path class="st0" d="M61.8,46.6c2.8,0,5.3,0.8,7.5,2.3c0.1-0.2,0.3-0.4,0.4-0.7c-2.3-1.5-5-2.4-7.9-2.4c-2.8,0-5.6,0.8-7.9,2.4
		l0.4,0.6C56.5,47.4,59.1,46.6,61.8,46.6"/>
	<path class="st0" d="M28.4,63.1c0-4.4-3.6-8.1-8.1-8.1h-7.7v0.8h7.7c4,0,7.3,3.3,7.3,7.3c0,4-3.3,7.3-7.3,7.3h-7.7v0.8h7.7
		C24.8,71.1,28.4,67.5,28.4,63.1"/>
	<path class="st0" d="M25.3,63.1c0-2.8-2.2-5-5-5h-7.7v0.8h7.7c2.3,0,4.2,1.9,4.2,4.2c0,2.3-1.9,4.2-4.2,4.2h-7.7v0.8h7.7
		C23.1,68.1,25.3,65.8,25.3,63.1"/>
	<path class="st0" d="M31.5,63.1c0-6.1-5-11.1-11.1-11.1h-7.7v0.8h7.7c5.7,0,10.4,4.6,10.4,10.4c0,5.7-4.6,10.4-10.4,10.4h-7.7v0.8
		h7.7C26.5,74.2,31.5,69.2,31.5,63.1"/>
	<path class="st0" d="M34.5,63.1c0-7.8-6.4-14.2-14.2-14.2h-7.7v0.8h7.7c7.4,0,13.4,6,13.4,13.4c0,7.4-6,13.4-13.4,13.4h-7.7v0.8
		h7.7C28.2,77.3,34.5,70.9,34.5,63.1"/>
	<path class="st0" d="M37.6,41.6c0-9.5-7.7-17.3-17.3-17.3h-7.7v0.8h7.7c9.1,0,16.5,7.4,16.5,16.5c0,3.7-1.2,7.3-3.5,10.1
		c-0.5-0.6-1.1-1.1-1.6-1.6c1.9-2.5,2.8-5.4,2.8-8.5c0-7.8-6.4-14.2-14.2-14.2h-7.7v0.8h7.7c7.4,0,13.4,6,13.4,13.4
		c0,2.9-0.9,5.7-2.7,8c-0.6-0.5-1.2-0.9-1.9-1.3c1.4-1.9,2.2-4.3,2.2-6.7c0-6.1-5-11.1-11.1-11.1h-7.7v0.8h7.7
		c5.7,0,10.4,4.6,10.4,10.4c0,2.3-0.8,4.5-2.1,6.3c-0.7-0.4-1.4-0.7-2.2-1c1.3-1.5,2-3.3,2-5.3c0-4.4-3.6-8.1-8.1-8.1h-7.7v0.8h7.7
		c4,0,7.3,3.3,7.3,7.3c0,1.9-0.7,3.7-2,5c-0.9-0.3-1.9-0.5-2.9-0.7c1.6-0.8,2.6-2.5,2.6-4.4c0-2.7-2.2-5-5-5h-7.7v0.8h7.7
		c2.3,0,4.2,1.9,4.2,4.2c0,2.3-1.9,4.2-4.2,4.2h-7.7v0.8h7.7c9.1,0,16.5,7.4,16.5,16.5c0,9.1-7.4,16.5-16.5,16.5h-7.7v0.8h7.7
		c9.5,0,17.3-7.7,17.3-17.3c0-4.1-1.4-7.8-3.8-10.7C36.3,49.3,37.6,45.5,37.6,41.6"/>
	<polyline class="st0" points="243.5,80.3 212.4,24.3 211.8,24.3 211.8,80.3 212.5,80.3 212.5,26.2 214.8,30.3 214.8,80.3 
		215.6,80.3 215.6,31.7 217.9,35.9 217.9,80.3 218.7,80.3 218.7,37.2 221,41.4 221,80.3 221.8,80.3 221.8,42.8 224.1,46.9 
		224.1,80.3 224.8,80.3 224.8,48.3 242.6,80.3 243.5,80.3 	"/>
	<polyline class="st0" points="271.1,61.7 292,45.4 271.1,61.7 	"/>
	<polygon class="st0" points="317,80.3 304.5,39.7 303.7,39.7 316.2,80.3 	"/>
	<polygon class="st0" points="314,80.3 301.4,39.7 300.6,39.7 313.2,80.3 	"/>
	<polygon class="st0" points="310.9,80.3 298.4,39.7 297.6,39.7 310.1,80.3 	"/>
	<polyline class="st0" points="279.3,68 278.8,67.4 297.7,52.6 298.2,53.2 279.3,68 	"/>
	<polygon class="st0" points="320.1,80.3 307.6,39.7 306.8,39.7 319.3,80.3 	"/>
	<polyline class="st0" points="359.2,39.7 347.2,78.6 346.1,75 356.9,39.7 356.1,39.7 345.7,73.7 344.5,70 353.9,39.7 353.1,39.7 
		344.1,68.7 343,65 350.8,39.7 350,39.7 342.6,63.7 341.5,60 347.7,39.7 346.9,39.7 341.1,58.7 335.2,39.7 334.6,39.7 322.6,78.6 
		321.5,75 332.4,39.7 331.6,39.7 321.1,73.7 320,70 329.3,39.7 328.5,39.7 319.6,68.7 318.4,65 326.2,39.7 325.4,39.7 318,63.7 
		316.9,60 323.2,39.7 322.4,39.7 316.5,58.7 310.7,39.7 309.9,39.7 322.4,80.3 322.9,80.3 328.8,61.3 334.6,80.3 335.4,80.3 
		329.2,60 330.3,56.3 337.7,80.3 338.5,80.3 330.7,55 331.9,51.3 340.8,80.3 341.6,80.3 332.3,50 333.4,46.3 343.9,80.3 344.7,80.3 
		333.8,45 334.9,41.4 346.9,80.3 347.5,80.3 360,39.7 359.2,39.7 	"/>
	<path class="st1" d="M328.8,61.3L328.8,61.3l0.3,0.9L328.8,61.3 M330.3,56.3l-1.1,3.7l0.4,1.3l1.1-3.7L330.3,56.3 M331.9,51.3
		l-1.1,3.7l0.4,1.3l1.1-3.7L331.9,51.3 M333.4,46.3l-1.1,3.7l0.4,1.3l1.1-3.7L333.4,46.3 M334.9,41.4l-1.1,3.7l0.4,1.3l1.1-3.7
		L334.9,41.4 M335.3,40.1L335.3,40.1l0.4,1.3v0L335.3,40.1"/>
	<path class="st2" d="M329.2,60l-0.4,1.3l0.3,0.9l0.1,0.4l0.4-1.3L329.2,60 M330.7,55l-0.4,1.3l0.4,1.3l0.4-1.3L330.7,55 M332.3,50
		l-0.4,1.3l0.4,1.3l0.4-1.3L332.3,50 M333.8,45l-0.4,1.3l0.4,1.3l0.4-1.3L333.8,45 M335.3,40.1l-0.4,1.3l0.4,1.3l0.4-1.3L335.3,40.1
		"/>
	<path class="st3" d="M329.2,62.6L329.2,62.6l0.3,0.9L329.2,62.6 M330.7,57.6l-1.1,3.7l0.4,1.3l1.1-3.7L330.7,57.6 M332.3,52.6
		l-1.1,3.7l0.4,1.3l1.1-3.7L332.3,52.6 M333.8,47.7l-1.1,3.7l0.4,1.3l1.1-3.7L333.8,47.7 M335.3,42.7l-1.1,3.7l0.4,1.3l1.1-3.7
		L335.3,42.7 M335.7,41.4L335.7,41.4l0.4,1.3l0,0L335.7,41.4"/>
	<path class="st4" d="M329.6,61.3l-0.4,1.3l0.3,0.9l0.1,0.4l0.4-1.3L329.6,61.3 M331.1,56.3l-0.4,1.3l0.4,1.3l0.4-1.3L331.1,56.3
		 M332.7,51.3l-0.4,1.3l0.4,1.3l0.4-1.3L332.7,51.3 M334.2,46.4l-0.4,1.3l0.4,1.3l0.4-1.3L334.2,46.4 M335.7,41.4l-0.4,1.3l0.4,1.3
		l0.4-1.3L335.7,41.4"/>
	<path class="st5" d="M329.6,63.9L329.6,63.9l0.4,1.3L329.6,63.9 M331.1,58.9l-1.1,3.7l0.4,1.3l1.1-3.7L331.1,58.9 M332.7,54
		l-1.1,3.7l0.4,1.3l1.1-3.7L332.7,54 M334.2,49l-1.1,3.7l0.4,1.3l1.1-3.7L334.2,49 M335.7,44l-1.1,3.7L335,49l1.1-3.7L335.7,44
		 M336.1,42.7L336.1,42.7l0.4,1.3v0L336.1,42.7"/>
	<path class="st6" d="M330,62.6l-0.4,1.3l0.4,1.3l0.4-1.3L330,62.6 M331.5,57.6l-0.4,1.3l0.4,1.3l0.4-1.3L331.5,57.6 M333.1,52.6
		l-0.4,1.3l0.4,1.3l0.4-1.3L333.1,52.6 M334.6,47.7l-0.4,1.3l0.4,1.3L335,49L334.6,47.7 M336.1,42.7l-0.4,1.3l0.4,1.3l0.4-1.3
		L336.1,42.7"/>
	<path class="st7" d="M331.5,60.3l-1.1,3.7l0.4,1.3l1.1-3.7L331.5,60.3 M333.1,55.3l-1.1,3.7l0.4,1.3l1.1-3.7L333.1,55.3
		 M334.6,50.3l-1.1,3.7l0.4,1.3l1.1-3.7L334.6,50.3 M336.1,45.3L335,49l0.4,1.3l1.1-3.7L336.1,45.3 M336.5,44L336.5,44l0.4,1.3l0,0
		L336.5,44"/>
	<path class="st8" d="M330.4,63.9l-0.4,1.3l0.4,1.3l0.4-1.3L330.4,63.9 M331.9,58.9l-0.4,1.3l0.4,1.3l0.4-1.3L331.9,58.9 M333.5,54
		l-0.4,1.3l0.4,1.3l0.4-1.3L333.5,54 M335,49l-0.4,1.3l0.4,1.3l0.4-1.3L335,49 M336.5,44l-0.4,1.3l0.4,1.3l0.4-1.3L336.5,44"/>
	<path class="st9" d="M331.9,61.6l-1.1,3.7l0.4,1.3l0.3-1l0.8-2.7L331.9,61.6 M333.5,56.6l-1.1,3.7l0.4,1.3l1.1-3.7L333.5,56.6
		 M335,51.6l-1.1,3.7l0.4,1.3l1.1-3.7L335,51.6 M336.5,46.6l-1.1,3.7l0.4,1.3l1.1-3.7L336.5,46.6 M336.9,45.3L336.9,45.3l0.4,1.3v0
		L336.9,45.3"/>
	<path class="st10" d="M330.8,65.2l-0.4,1.3l0.4,1.3l0.4-1.3L330.8,65.2 M332.3,60.3l-0.4,1.3l0.4,1.3l0.4-1.3L332.3,60.3
		 M333.9,55.3l-0.4,1.3l0.4,1.3l0.4-1.3L333.9,55.3 M335.4,50.3l-0.4,1.3l0.4,1.3l0.4-1.3L335.4,50.3 M336.9,45.3l-0.4,1.3l0.4,1.3
		l0.4-1.3L336.9,45.3"/>
	<path class="st1" d="M281,53L281,53c0.3,0.1,0.6,0.2,0.8,0.3h0C281.6,53.2,281.3,53.1,281,53 M283.8,50.9l-2,1.6
		c0.3,0.1,0.5,0.2,0.8,0.3l2-1.5C284.3,51.1,284,51,283.8,50.9 M286.4,48.8l-1.9,1.5c0.2,0.1,0.5,0.3,0.7,0.4l1.9-1.5
		C286.8,49.1,286.6,49,286.4,48.8 M288.9,46.9l-1.9,1.5c0.2,0.2,0.4,0.3,0.6,0.5l1.9-1.5C289.3,47.2,289.1,47,288.9,46.9
		 M291.4,44.9l-1.9,1.5c0.2,0.2,0.4,0.3,0.6,0.5l1.8-1.4C291.8,45.2,291.6,45.1,291.4,44.9 M292.5,44.9
		C292.5,44.9,292.5,44.9,292.5,44.9L292.5,44.9C292.5,44.9,292.5,44.9,292.5,44.9"/>
	<path class="st2" d="M281.7,52.4L281,53c0.3,0.1,0.6,0.2,0.8,0.3l0.7-0.5C282.3,52.7,282,52.6,281.7,52.4"/>
	<path class="st2" d="M284.4,50.3l-0.7,0.5c0.2,0.1,0.5,0.3,0.7,0.4l0.6-0.5C284.9,50.6,284.7,50.5,284.4,50.3"/>
	<path class="st2" d="M287,48.3l-0.6,0.5c0.2,0.1,0.4,0.3,0.6,0.5l0.6-0.5C287.4,48.6,287.2,48.5,287,48.3"/>
	<path class="st2" d="M289.5,46.4l-0.6,0.5c0.2,0.2,0.4,0.3,0.6,0.5l0.6-0.5C289.9,46.7,289.7,46.5,289.5,46.4"/>
	<path class="st2" d="M292,44.4l-0.6,0.5c0.2,0.2,0.4,0.3,0.6,0.5l0,0l0,0l-10.1,7.9c0,0,0,0,0,0l10.7-8.3l0.1-0.1
		c0,0-0.1-0.1-0.1-0.1C292.3,44.7,292.2,44.6,292,44.4"/>
	<polyline class="st2" points="292,45.4 292,45.4 290.1,46.9 289.5,47.3 287.6,48.8 287,49.3 285.1,50.8 284.5,51.3 282.5,52.8 
		281.8,53.3 281.8,53.3 281.8,53.3 292,45.4 	"/>
	<path class="st3" d="M280,52.8L280,52.8c0.3,0.1,0.6,0.1,1,0.2l0,0C280.7,52.9,280.4,52.8,280,52.8 M283,50.5l-2.2,1.7
		c0.3,0.1,0.6,0.2,0.9,0.3l2-1.6C283.5,50.7,283.3,50.6,283,50.5 M285.7,48.4l-2,1.6c0.3,0.1,0.5,0.3,0.7,0.4l1.9-1.5
		C286.1,48.7,285.9,48.5,285.7,48.4 M288.2,46.4l-1.9,1.5c0.2,0.1,0.5,0.3,0.7,0.4l1.9-1.5C288.7,46.7,288.5,46.5,288.2,46.4
		 M290.8,44.4l-1.9,1.5c0.2,0.2,0.4,0.3,0.6,0.5l1.9-1.5C291.2,44.7,291,44.6,290.8,44.4"/>
	<path class="st4" d="M280.8,52.2l-0.8,0.6c0.3,0.1,0.7,0.1,1,0.2l0.7-0.6C281.4,52.3,281.1,52.2,280.8,52.2"/>
	<path class="st4" d="M283.7,49.9l-0.7,0.5c0.3,0.1,0.5,0.2,0.8,0.4l0.7-0.5C284.2,50.2,283.9,50.1,283.7,49.9"/>
	<path class="st4" d="M286.3,47.9l-0.6,0.5c0.2,0.1,0.5,0.3,0.7,0.4l0.6-0.5C286.8,48.2,286.6,48,286.3,47.9"/>
	<path class="st4" d="M288.9,45.9l-0.6,0.5c0.2,0.2,0.4,0.3,0.6,0.5l0.6-0.5C289.3,46.2,289.1,46,288.9,45.9"/>
	<path class="st4" d="M291.4,43.9l-0.6,0.5c0.2,0.2,0.4,0.3,0.6,0.5l0.6-0.5C291.8,44.3,291.6,44.1,291.4,43.9"/>
	<path class="st5" d="M278.9,52.7c0.4,0,0.7,0,1.1,0.1l0,0C279.7,52.7,279.3,52.7,278.9,52.7 M278.9,52.7
		C278.9,52.7,278.9,52.7,278.9,52.7L278.9,52.7L278.9,52.7 M282.2,50.2l-2.3,1.8c0.3,0,0.7,0.1,1,0.2l2.2-1.7
		C282.7,50.4,282.4,50.3,282.2,50.2 M284.9,48l-2.1,1.6c0.3,0.1,0.5,0.2,0.8,0.3l2-1.6C285.4,48.2,285.2,48.1,284.9,48 M287.6,45.9
		l-2,1.5c0.2,0.1,0.5,0.3,0.7,0.4l1.9-1.5C288,46.2,287.8,46.1,287.6,45.9 M290.1,43.9l-1.9,1.5c0.2,0.1,0.5,0.3,0.7,0.4l1.9-1.5
		C290.5,44.3,290.3,44.1,290.1,43.9"/>
	<path class="st6" d="M279.8,52l-0.9,0.7c0,0,0,0,0,0l0,0l0,0c0.4,0,0.8,0,1.1,0.1l0.8-0.6C280.5,52.1,280.2,52,279.8,52"/>
	<path class="st6" d="M282.9,49.6l-0.7,0.6c0.3,0.1,0.6,0.2,0.8,0.3l0.7-0.5C283.4,49.8,283.1,49.7,282.9,49.6"/>
	<path class="st6" d="M285.6,47.5l-0.7,0.5c0.2,0.1,0.5,0.3,0.7,0.4l0.6-0.5C286.1,47.7,285.8,47.6,285.6,47.5"/>
	<path class="st6" d="M288.2,45.4l-0.6,0.5c0.2,0.1,0.5,0.3,0.7,0.4l0.6-0.5C288.6,45.7,288.4,45.6,288.2,45.4"/>
	<path class="st6" d="M290.7,43.5l-0.6,0.5c0.2,0.2,0.4,0.3,0.6,0.5l0.6-0.5C291.2,43.8,290.9,43.6,290.7,43.5"/>
	<path class="st7" d="M278.9,52.7c-0.5,0-1,0.1-1.4,0.1l0,0C277.9,52.8,278.4,52.7,278.9,52.7L278.9,52.7 M281.2,49.9l-2.6,2
		c0.1,0,0.2,0,0.3,0c0.3,0,0.6,0,0.9,0l2.3-1.8C281.9,50.1,281.5,50,281.2,49.9 M284.1,47.6l-2.2,1.7c0.3,0.1,0.6,0.2,0.9,0.3
		l2.1-1.6C284.7,47.9,284.4,47.7,284.1,47.6 M286.8,45.5l-2,1.6c0.3,0.1,0.5,0.2,0.8,0.4l2-1.5C287.3,45.8,287.1,45.7,286.8,45.5
		 M289.4,43.5l-1.9,1.5c0.2,0.1,0.5,0.3,0.7,0.4l1.9-1.5C289.9,43.8,289.7,43.6,289.4,43.5"/>
	<path class="st8" d="M278.9,51.9c-0.1,0-0.2,0-0.3,0l-1.2,0.9c0.5-0.1,0.9-0.1,1.4-0.1l0.9-0.7C279.5,52,279.2,51.9,278.9,51.9"/>
	<path class="st8" d="M282,49.3l-0.8,0.6c0.3,0.1,0.6,0.2,0.9,0.3l0.7-0.6C282.6,49.5,282.3,49.4,282,49.3"/>
	<path class="st8" d="M284.8,47.1l-0.7,0.5c0.3,0.1,0.5,0.2,0.8,0.4l0.7-0.5C285.3,47.3,285.1,47.2,284.8,47.1"/>
	<path class="st8" d="M287.5,45l-0.7,0.5c0.2,0.1,0.5,0.3,0.7,0.4l0.6-0.5C288,45.3,287.7,45.1,287.5,45"/>
	<path class="st8" d="M290.1,43l-0.6,0.5c0.2,0.1,0.4,0.3,0.7,0.4l0.6-0.5C290.5,43.3,290.3,43.1,290.1,43"/>
	<path class="st9" d="M277.5,52.9c-0.2,0-0.4,0.1-0.7,0.2C277,53,277.2,52.9,277.5,52.9L277.5,52.9 M280.2,49.7l-3.1,2.4
		c0.5-0.1,1-0.2,1.5-0.2l2.6-2C280.9,49.8,280.6,49.8,280.2,49.7 M283.3,47.3l-2.3,1.8c0.3,0.1,0.6,0.1,1,0.2l2.2-1.7
		C283.9,47.5,283.6,47.4,283.3,47.3 M286.1,45.1l-2.1,1.6c0.3,0.1,0.5,0.2,0.8,0.3l2-1.6C286.6,45.4,286.3,45.3,286.1,45.1
		 M288.7,43.1l-2,1.5c0.2,0.1,0.5,0.3,0.7,0.4l1.9-1.5C289.2,43.3,289,43.2,288.7,43.1"/>
	<path class="st10" d="M278.6,51.9c-0.5,0-1,0.1-1.5,0.2l-0.3,0.2l-0.1,0.7c0,0,0,0,0,0c0.2-0.1,0.4-0.1,0.7-0.2L278.6,51.9"/>
	<path class="st10" d="M281,49.1l-0.8,0.6c0.3,0,0.7,0.1,1,0.2l0.8-0.6C281.7,49.2,281.4,49.1,281,49.1"/>
	<path class="st10" d="M284,46.7l-0.7,0.6c0.3,0.1,0.6,0.2,0.8,0.3l0.7-0.5C284.6,47,284.3,46.9,284,46.7"/>
	<path class="st10" d="M286.7,44.6l-0.7,0.5c0.3,0.1,0.5,0.3,0.8,0.4l0.7-0.5C287.2,44.9,287,44.7,286.7,44.6"/>
	<path class="st10" d="M289.4,42.6l-0.6,0.5c0.2,0.1,0.5,0.3,0.7,0.4l0.6-0.5C289.8,42.8,289.6,42.7,289.4,42.6"/>
	<path class="st1" d="M13.8,34.3H13v2.3h0.8V34.3 M13.8,31.2H13v2.3h0.8V31.2 M13.8,28.2H13v2.3h0.8V28.2 M13.8,25.1H13v2.3h0.8
		V25.1"/>
	<path class="st2" d="M13.8,36.6H13v0.8h0.8V36.6 M13.8,33.5H13v0.8h0.8V33.5 M13.8,30.5H13v0.8h0.8V30.5 M13.8,27.4H13v0.8h0.8
		V27.4 M13.8,24.3H13v0.8h0.8V24.3"/>
	<path class="st3" d="M14.6,34.3h-0.8v2.3h0.8V34.3 M14.6,31.2h-0.8v2.3h0.8V31.2 M14.6,28.2h-0.8v2.3h0.8V28.2 M14.6,25.1h-0.8v2.3
		h0.8V25.1"/>
	<path class="st4" d="M14.6,36.6h-0.8v0.8h0.8V36.6 M14.6,33.5h-0.8v0.8h0.8V33.5 M14.6,30.5h-0.8v0.8h0.8V30.5 M14.6,27.4h-0.8v0.8
		h0.8V27.4 M14.6,24.3h-0.8v0.8h0.8V24.3"/>
	<path class="st5" d="M15.3,34.3h-0.8v2.3h0.8V34.3 M15.3,31.2h-0.8v2.3h0.8V31.2 M15.3,28.2h-0.8v2.3h0.8V28.2 M15.3,25.1h-0.8v2.3
		h0.8V25.1"/>
	<path class="st6" d="M15.3,36.6h-0.8v0.8h0.8V36.6 M15.3,33.5h-0.8v0.8h0.8V33.5 M15.3,30.5h-0.8v0.8h0.8V30.5 M15.3,27.4h-0.8v0.8
		h0.8V27.4 M15.3,24.3h-0.8v0.8h0.8V24.3"/>
	<path class="st7" d="M16.1,34.3h-0.8v2.3h0.8V34.3 M16.1,31.2h-0.8v2.3h0.8V31.2 M16.1,28.2h-0.8v2.3h0.8V28.2 M16.1,25.1h-0.8v2.3
		h0.8V25.1"/>
	<path class="st8" d="M16.1,36.6h-0.8v0.8h0.8V36.6 M16.1,33.5h-0.8v0.8h0.8V33.5 M16.1,30.5h-0.8v0.8h0.8V30.5 M16.1,27.4h-0.8v0.8
		h0.8V27.4 M16.1,24.3h-0.8v0.8h0.8V24.3"/>
	<path class="st9" d="M16.9,34.3h-0.8v2.3h0.8V34.3 M16.9,31.2h-0.8v2.3h0.8V31.2 M16.9,28.2h-0.8v2.3h0.8V28.2 M16.9,25.1h-0.8v2.3
		h0.8V25.1"/>
	<path class="st10" d="M16.9,36.6h-0.8v0.8h0.8V36.6 M16.9,33.5h-0.8v0.8h0.8V33.5 M16.9,30.5h-0.8v0.8h0.8V30.5 M16.9,27.4h-0.8
		v0.8h0.8V27.4 M16.9,24.3h-0.8v0.8h0.8V24.3"/>
	<path class="st1" d="M13.8,55.8H13v2.3h0.8V55.8 M13.8,52.7H13V55h0.8V52.7 M13.8,49.6H13v2.3h0.8V49.6 M13.8,46.6H13v2.3h0.8V46.6
		"/>
	<polyline class="st2" points="13.8,55 13,55 13,55.8 13.8,55.8 13.8,55 	"/>
	<polyline class="st2" points="13.8,58.1 13,58.1 13,58.8 13.8,58.8 13.8,58.1 	"/>
	<polyline class="st2" points="13.8,51.9 13,51.9 13,52.7 13.8,52.7 13.8,51.9 	"/>
	<polyline class="st2" points="13.8,48.9 13,48.9 13,49.6 13.8,49.6 13.8,48.9 	"/>
	<polyline class="st2" points="13.8,45.8 13,45.8 13,46.6 13.8,46.6 13.8,45.8 	"/>
	<path class="st3" d="M14.6,55.8h-0.8v2.3h0.8V55.8 M14.6,52.7h-0.8V55h0.8V52.7 M14.6,49.6h-0.8v2.3h0.8V49.6 M14.6,46.6h-0.8v2.3
		h0.8V46.6"/>
	<polyline class="st4" points="14.6,55 13.8,55 13.8,55.8 14.6,55.8 14.6,55 	"/>
	<polyline class="st4" points="14.6,58.1 13.8,58.1 13.8,58.8 14.6,58.8 14.6,58.1 	"/>
	<polyline class="st4" points="14.6,51.9 13.8,51.9 13.8,52.7 14.6,52.7 14.6,51.9 	"/>
	<polyline class="st4" points="14.6,48.9 13.8,48.9 13.8,49.6 14.6,49.6 14.6,48.9 	"/>
	<polyline class="st4" points="14.6,45.8 13.8,45.8 13.8,46.6 14.6,46.6 14.6,45.8 	"/>
	<path class="st5" d="M15.3,55.8h-0.8v2.3h0.8V55.8 M15.3,52.7h-0.8V55h0.8V52.7 M15.3,49.6h-0.8v2.3h0.8V49.6 M15.3,46.6h-0.8v2.3
		h0.8V46.6"/>
	<polyline class="st6" points="15.3,55 14.6,55 14.6,55.8 15.3,55.8 15.3,55 	"/>
	<polyline class="st6" points="15.3,58.1 14.6,58.1 14.6,58.8 15.3,58.8 15.3,58.1 	"/>
	<polyline class="st6" points="15.3,51.9 14.6,51.9 14.6,52.7 15.3,52.7 15.3,51.9 	"/>
	<polyline class="st6" points="15.3,48.9 14.6,48.9 14.6,49.6 15.3,49.6 15.3,48.9 	"/>
	<polyline class="st6" points="15.3,45.8 14.6,45.8 14.6,46.6 15.3,46.6 15.3,45.8 	"/>
	<path class="st7" d="M16.1,55.8h-0.8v2.3h0.8V55.8 M16.1,52.7h-0.8V55h0.8V52.7 M16.1,49.6h-0.8v2.3h0.8V49.6 M16.1,46.6h-0.8v2.3
		h0.8V46.6"/>
	<polyline class="st8" points="16.1,55 15.3,55 15.3,55.8 16.1,55.8 16.1,55 	"/>
	<polyline class="st8" points="16.1,58.1 15.3,58.1 15.3,58.8 16.1,58.8 16.1,58.1 	"/>
	<polyline class="st8" points="16.1,51.9 15.3,51.9 15.3,52.7 16.1,52.7 16.1,51.9 	"/>
	<polyline class="st8" points="16.1,48.9 15.3,48.9 15.3,49.6 16.1,49.6 16.1,48.9 	"/>
	<polyline class="st8" points="16.1,45.8 15.3,45.8 15.3,46.6 16.1,46.6 16.1,45.8 	"/>
	<path class="st9" d="M16.9,55.8h-0.8v2.3h0.8V55.8 M16.9,52.7h-0.8V55h0.8V52.7 M16.9,49.6h-0.8v2.3h0.8V49.6 M16.9,46.6h-0.8v2.3
		h0.8V46.6"/>
	<polyline class="st10" points="16.9,55 16.1,55 16.1,55.8 16.9,55.8 16.9,55 	"/>
	<polyline class="st10" points="16.9,58.1 16.1,58.1 16.1,58.8 16.9,58.8 16.9,58.1 	"/>
	<polyline class="st10" points="16.9,51.9 16.1,51.9 16.1,52.7 16.9,52.7 16.9,51.9 	"/>
	<polyline class="st10" points="16.9,48.9 16.1,48.9 16.1,49.6 16.9,49.6 16.9,48.9 	"/>
	<polyline class="st10" points="16.9,45.8 16.1,45.8 16.1,46.6 16.9,46.6 16.9,45.8 	"/>
	<path class="st1" d="M13.8,77.3H13v2.3h0.8V77.3 M13.8,74.2H13v2.3h0.8V74.2 M13.8,71.1H13v2.3h0.8V71.1 M13.8,68.1H13v2.3h0.8
		V68.1"/>
	<polyline class="st2" points="13.8,70.4 13,70.4 13,71.1 13.8,71.1 13.8,70.4 	"/>
	<polyline class="st2" points="13.8,67.3 13,67.3 13,68.1 13.8,68.1 13.8,67.3 	"/>
	<polyline class="st2" points="13.8,73.4 13,73.4 13,74.2 13.8,74.2 13.8,73.4 	"/>
	<polyline class="st2" points="13.8,76.5 13,76.5 13,77.3 13.8,77.3 13.8,76.5 	"/>
	<polyline class="st2" points="13.8,79.6 13,79.6 13,80.3 13.8,80.3 13.8,79.6 	"/>
	<path class="st3" d="M14.6,77.3h-0.8v2.3h0.8V77.3 M14.6,74.2h-0.8v2.3h0.8V74.2 M14.6,71.1h-0.8v2.3h0.8V71.1 M14.6,68.1h-0.8v2.3
		h0.8V68.1"/>
	<polyline class="st4" points="14.6,70.4 13.8,70.4 13.8,71.1 14.6,71.1 14.6,70.4 	"/>
	<polyline class="st4" points="14.6,67.3 13.8,67.3 13.8,68.1 14.6,68.1 14.6,67.3 	"/>
	<polyline class="st4" points="14.6,73.4 13.8,73.4 13.8,74.2 14.6,74.2 14.6,73.4 	"/>
	<polyline class="st4" points="14.6,76.5 13.8,76.5 13.8,77.3 14.6,77.3 14.6,76.5 	"/>
	<polyline class="st4" points="14.6,79.6 13.8,79.6 13.8,80.3 14.6,80.3 14.6,79.6 	"/>
	<path class="st5" d="M15.3,77.3h-0.8v2.3h0.8V77.3 M15.3,74.2h-0.8v2.3h0.8V74.2 M15.3,71.1h-0.8v2.3h0.8V71.1 M15.3,68.1h-0.8v2.3
		h0.8V68.1"/>
	<polyline class="st6" points="15.3,70.4 14.6,70.4 14.6,71.1 15.3,71.1 15.3,70.4 	"/>
	<polyline class="st6" points="15.3,67.3 14.6,67.3 14.6,68.1 15.3,68.1 15.3,67.3 	"/>
	<polyline class="st6" points="15.3,73.4 14.6,73.4 14.6,74.2 15.3,74.2 15.3,73.4 	"/>
	<polyline class="st6" points="15.3,76.5 14.6,76.5 14.6,77.3 15.3,77.3 15.3,76.5 	"/>
	<polyline class="st6" points="15.3,79.6 14.6,79.6 14.6,80.3 15.3,80.3 15.3,79.6 	"/>
	<path class="st7" d="M16.1,77.3h-0.8v2.3h0.8V77.3 M16.1,74.2h-0.8v2.3h0.8V74.2 M16.1,71.1h-0.8v2.3h0.8V71.1 M16.1,68.1h-0.8v2.3
		h0.8V68.1"/>
	<polyline class="st8" points="16.1,70.4 15.3,70.4 15.3,71.1 16.1,71.1 16.1,70.4 	"/>
	<polyline class="st8" points="16.1,67.3 15.3,67.3 15.3,68.1 16.1,68.1 16.1,67.3 	"/>
	<polyline class="st8" points="16.1,73.4 15.3,73.4 15.3,74.2 16.1,74.2 16.1,73.4 	"/>
	<polyline class="st8" points="16.1,76.5 15.3,76.5 15.3,77.3 16.1,77.3 16.1,76.5 	"/>
	<polyline class="st8" points="16.1,79.6 15.3,79.6 15.3,80.3 16.1,80.3 16.1,79.6 	"/>
	<path class="st9" d="M16.9,77.3h-0.8v2.3h0.8V77.3 M16.9,74.2h-0.8v2.3h0.8V74.2 M16.9,71.1h-0.8v2.3h0.8V71.1 M16.9,68.1h-0.8v2.3
		h0.8V68.1"/>
	<polyline class="st10" points="16.9,70.4 16.1,70.4 16.1,71.1 16.9,71.1 16.9,70.4 	"/>
	<polyline class="st10" points="16.9,67.3 16.1,67.3 16.1,68.1 16.9,68.1 16.9,67.3 	"/>
	<polyline class="st10" points="16.9,73.4 16.1,73.4 16.1,74.2 16.9,74.2 16.9,73.4 	"/>
	<polyline class="st10" points="16.9,76.5 16.1,76.5 16.1,77.3 16.9,77.3 16.9,76.5 	"/>
	<polyline class="st10" points="16.9,79.6 16.1,79.6 16.1,80.3 16.9,80.3 16.9,79.6 	"/>
	<path class="st1" d="M32.1,49.5c-0.1,0.2-0.3,0.4-0.4,0.6c0.4,0.4,0.9,0.8,1.3,1.3c0.1,0.1,0.2,0.3,0.4,0.4
		c0.2-0.2,0.3-0.4,0.5-0.6C33.3,50.5,32.7,50,32.1,49.5 M29.7,47.6c-0.1,0.2-0.3,0.4-0.4,0.6c0.7,0.4,1.3,0.8,1.9,1.3
		c0.2-0.2,0.3-0.4,0.4-0.6C30.9,48.5,30.3,48,29.7,47.6 M26.9,46.3c-0.2,0.2-0.3,0.4-0.5,0.6c0.2,0.1,0.4,0.2,0.6,0.2
		c0.5,0.2,1.1,0.5,1.6,0.7c0.2-0.2,0.3-0.4,0.4-0.6C28.3,46.9,27.6,46.6,26.9,46.3 M20.3,45.8C20.3,45.8,20.3,45.8,20.3,45.8
		L20.3,45.8C20.3,45.8,20.3,45.8,20.3,45.8 M20.4,45.8C20.4,45.8,20.4,45.8,20.4,45.8C20.4,45.8,20.4,45.8,20.4,45.8 M23.6,45.3
		c-0.3,0.2-0.6,0.5-0.9,0.6c0.2,0,0.3,0,0.5,0.1c0,0,0,0,0,0c0,0,0,0,0,0c0.8,0.1,1.6,0.3,2.4,0.6c0.2-0.2,0.4-0.4,0.5-0.6
		C25.3,45.7,24.5,45.5,23.6,45.3 M22.5,45.2c-0.6,0.4-1.4,0.6-2.2,0.6C21.2,45.8,21.9,45.6,22.5,45.2C22.5,45.2,22.5,45.2,22.5,45.2
		"/>
	<path class="st2" d="M33.8,51.1c-0.2,0.2-0.3,0.4-0.5,0.6c-0.1-0.1-0.2-0.3-0.4-0.4c0.3,0.3,0.6,0.7,0.9,1l0,0
		c0.2-0.2,0.3-0.4,0.5-0.6C34.1,51.5,34,51.3,33.8,51.1 M27,47.1c0.3,0.1,0.6,0.3,0.9,0.4l0.1,0c0.3,0.1,0.5,0.3,0.7,0.4l0.1,0.1
		c0.2,0.1,0.5,0.3,0.7,0.4l0.1,0.1c0.2,0.1,0.5,0.3,0.7,0.5l0.1,0.1c0.4,0.3,0.9,0.7,1.3,1c0.2-0.2,0.3-0.4,0.4-0.6
		c-0.2-0.2-0.4-0.3-0.6-0.5c-0.1,0.2-0.3,0.4-0.4,0.6c-0.6-0.5-1.2-0.9-1.9-1.3c0.2-0.2,0.3-0.4,0.4-0.6c-0.2-0.1-0.4-0.3-0.7-0.4
		c-0.1,0.2-0.3,0.4-0.4,0.6C28,47.6,27.5,47.4,27,47.1 M26.1,46c-0.2,0.2-0.3,0.4-0.5,0.6c-0.8-0.2-1.6-0.4-2.4-0.6
		c0.1,0,0.2,0,0.3,0.1c0.2,0,0.4,0.1,0.6,0.1c0.1,0,0.2,0,0.3,0.1c0.2,0.1,0.4,0.1,0.6,0.2c0.1,0,0.2,0,0.3,0.1
		c0.3,0.1,0.5,0.2,0.8,0.2l0.1,0c0.1,0,0.1,0,0.2,0.1c0.2-0.2,0.3-0.4,0.5-0.6C26.6,46.2,26.4,46.1,26.1,46 M22.5,45.2
		c-0.6,0.4-1.4,0.6-2.2,0.6l0,0c0,0,0,0,0,0c0,0,0,0,0,0c0,0,0,0,0,0c0.3,0,0.6,0,1,0c0.1,0,0.2,0,0.3,0c0.2,0,0.4,0,0.6,0.1
		c0.1,0,0.2,0,0.3,0c0.2,0,0.4,0.1,0.6,0.1c-0.2,0-0.3,0-0.5-0.1c0.3-0.2,0.6-0.4,0.9-0.6C23.3,45.3,22.9,45.2,22.5,45.2"/>
	<path class="st3" d="M32.6,48.8c-0.1,0.2-0.3,0.4-0.4,0.7c0.6,0.5,1.1,1.1,1.7,1.6c0.2-0.2,0.3-0.4,0.4-0.7
		C33.7,49.9,33.1,49.3,32.6,48.8 M30.1,47c-0.1,0.2-0.3,0.4-0.4,0.7c0.7,0.4,1.3,0.8,1.9,1.3c0.1-0.2,0.3-0.4,0.4-0.7
		C31.3,47.8,30.7,47.4,30.1,47 M27.3,45.6c-0.1,0.2-0.3,0.4-0.4,0.7c0.7,0.3,1.4,0.6,2.1,1c0.1-0.2,0.3-0.4,0.4-0.7
		C28.7,46.2,28,45.9,27.3,45.6 M24.2,44.7c-0.2,0.2-0.4,0.5-0.6,0.7c0.9,0.2,1.7,0.4,2.5,0.7c0.2-0.2,0.3-0.4,0.4-0.7
		C25.8,45.1,25,44.9,24.2,44.7 M23.4,44.5c-0.2,0.3-0.5,0.5-0.8,0.7c0,0,0,0,0,0C22.8,45,23.1,44.8,23.4,44.5
		C23.4,44.5,23.4,44.5,23.4,44.5"/>
	<path class="st4" d="M34.2,50.4c-0.1,0.2-0.3,0.4-0.4,0.7c0.2,0.2,0.3,0.4,0.5,0.6c0.2-0.2,0.3-0.4,0.5-0.6
		C34.6,50.8,34.4,50.6,34.2,50.4 M32,48.3c-0.1,0.2-0.3,0.4-0.4,0.7c0.2,0.2,0.4,0.3,0.6,0.5c0.1-0.2,0.3-0.4,0.4-0.7
		C32.4,48.6,32.2,48.5,32,48.3 M29.4,46.6c-0.1,0.2-0.3,0.4-0.4,0.7c0.2,0.1,0.4,0.3,0.7,0.4c0.1-0.2,0.3-0.4,0.4-0.7
		C29.8,46.9,29.6,46.7,29.4,46.6 M26.6,45.3c-0.1,0.2-0.3,0.4-0.4,0.7c0.3,0.1,0.5,0.2,0.7,0.3c0.2-0.2,0.3-0.4,0.4-0.7
		C27.1,45.5,26.8,45.4,26.6,45.3 M23.4,44.5c-0.2,0.3-0.5,0.5-0.8,0.7c0.4,0,0.7,0.1,1.1,0.2c0.2-0.2,0.4-0.4,0.6-0.7
		C23.9,44.6,23.7,44.6,23.4,44.5"/>
	<path class="st5" d="M32.9,48.1c-0.1,0.2-0.2,0.5-0.4,0.7c0.6,0.5,1.2,1.1,1.7,1.6c0.1-0.2,0.3-0.5,0.4-0.7
		C34.1,49.2,33.5,48.6,32.9,48.1 M30.4,46.3c-0.1,0.2-0.2,0.5-0.3,0.7c0.7,0.4,1.3,0.8,1.9,1.3c0.1-0.2,0.3-0.5,0.4-0.7
		C31.7,47.1,31.1,46.7,30.4,46.3 M27.7,44.9c-0.1,0.2-0.2,0.5-0.4,0.7c0.7,0.3,1.4,0.6,2.1,1c0.1-0.2,0.2-0.5,0.3-0.7
		C29.1,45.6,28.4,45.2,27.7,44.9 M24.7,44c-0.1,0.2-0.3,0.5-0.5,0.7c0.8,0.2,1.6,0.4,2.3,0.7c0.1-0.2,0.3-0.4,0.4-0.7
		C26.2,44.4,25.5,44.2,24.7,44 M23.9,43.8c-0.2,0.2-0.3,0.5-0.5,0.7c0,0,0,0,0,0C23.6,44.3,23.7,44.1,23.9,43.8
		C23.9,43.8,23.9,43.8,23.9,43.8"/>
	<path class="st6" d="M34.7,49.8c-0.1,0.2-0.3,0.5-0.4,0.7c0.2,0.2,0.4,0.4,0.5,0.6c0.1-0.2,0.3-0.5,0.4-0.7
		C35,50.1,34.8,49.9,34.7,49.8 M32.3,47.6c-0.1,0.2-0.2,0.5-0.4,0.7c0.2,0.2,0.4,0.3,0.6,0.5c0.1-0.2,0.3-0.5,0.4-0.7
		C32.7,47.9,32.5,47.8,32.3,47.6 M29.7,45.9c-0.1,0.2-0.2,0.5-0.3,0.7c0.2,0.1,0.4,0.3,0.7,0.4c0.1-0.2,0.2-0.5,0.3-0.7
		C30.2,46.2,30,46,29.7,45.9 M26.9,44.7c-0.1,0.2-0.2,0.5-0.4,0.7c0.2,0.1,0.5,0.2,0.7,0.3c0.1-0.2,0.2-0.4,0.4-0.7
		C27.4,44.8,27.2,44.7,26.9,44.7 M23.9,43.8c-0.2,0.2-0.3,0.5-0.5,0.7c0.3,0,0.6,0.1,0.9,0.2c0.2-0.2,0.3-0.4,0.5-0.7
		C24.4,43.9,24.2,43.9,23.9,43.8"/>
	<path class="st7" d="M33.3,47.4c-0.1,0.2-0.2,0.5-0.3,0.7c0.6,0.5,1.2,1.1,1.7,1.6c0.1-0.2,0.3-0.5,0.4-0.7
		C34.5,48.5,33.9,47.9,33.3,47.4 M30.7,45.6c-0.1,0.2-0.2,0.5-0.3,0.7c0.7,0.4,1.3,0.8,1.9,1.3c0.1-0.2,0.2-0.5,0.3-0.7
		C32,46.4,31.4,46,30.7,45.6 M27.9,44.2c-0.1,0.2-0.2,0.5-0.3,0.7c0.7,0.3,1.4,0.6,2.1,1c0.1-0.2,0.2-0.5,0.3-0.7
		C29.4,44.8,28.7,44.5,27.9,44.2 M25,43.3c-0.1,0.2-0.2,0.5-0.3,0.7c0.8,0.2,1.5,0.4,2.2,0.7c0.1-0.2,0.2-0.5,0.3-0.7
		C26.5,43.7,25.8,43.5,25,43.3 M24.3,43.1c-0.1,0.3-0.2,0.5-0.4,0.7c0,0,0,0,0,0C24,43.6,24.2,43.4,24.3,43.1
		C24.3,43.1,24.3,43.1,24.3,43.1"/>
	<path class="st8" d="M35,49c-0.1,0.2-0.3,0.5-0.4,0.7c0.2,0.2,0.4,0.4,0.5,0.6c0.1-0.2,0.3-0.5,0.4-0.7C35.4,49.4,35.2,49.2,35,49
		 M32.7,46.9c-0.1,0.2-0.2,0.5-0.3,0.7c0.2,0.2,0.4,0.3,0.6,0.5c0.1-0.2,0.2-0.5,0.3-0.7C33.1,47.2,32.9,47.1,32.7,46.9 M30,45.2
		c-0.1,0.2-0.2,0.5-0.3,0.7c0.2,0.1,0.4,0.3,0.7,0.4c0.1-0.2,0.2-0.5,0.3-0.7C30.5,45.5,30.3,45.3,30,45.2 M27.2,43.9
		c-0.1,0.2-0.2,0.5-0.3,0.7c0.2,0.1,0.5,0.2,0.7,0.3c0.1-0.2,0.2-0.5,0.3-0.7C27.7,44.1,27.5,44,27.2,43.9 M24.3,43.1
		c-0.1,0.3-0.2,0.5-0.4,0.7c0.3,0,0.5,0.1,0.8,0.2c0.1-0.2,0.2-0.5,0.3-0.7C24.8,43.2,24.5,43.2,24.3,43.1"/>
	<path class="st9" d="M33.6,46.7c-0.1,0.3-0.2,0.5-0.3,0.7c0.6,0.5,1.2,1.1,1.8,1.6c0.1-0.2,0.2-0.5,0.4-0.7
		C34.8,47.7,34.2,47.2,33.6,46.7 M31,44.8c-0.1,0.2-0.2,0.5-0.3,0.7c0.7,0.4,1.3,0.8,2,1.3c0.1-0.2,0.2-0.5,0.3-0.7
		C32.3,45.7,31.7,45.3,31,44.8 M28.2,43.5c-0.1,0.3-0.1,0.5-0.2,0.7c0.7,0.3,1.4,0.6,2.1,1c0.1-0.2,0.2-0.5,0.2-0.7
		C29.6,44.1,28.9,43.8,28.2,43.5 M25.2,42.5c0,0.3-0.1,0.5-0.2,0.7c0.8,0.2,1.5,0.4,2.2,0.7c0.1-0.2,0.2-0.5,0.2-0.7
		C26.7,42.9,26,42.7,25.2,42.5 M24.5,42.4c0,0.3-0.1,0.5-0.2,0.7c0,0,0,0,0,0C24.4,42.9,24.4,42.6,24.5,42.4
		C24.5,42.4,24.5,42.4,24.5,42.4"/>
	<path class="st10" d="M35.4,48.3c-0.1,0.3-0.2,0.5-0.4,0.7c0.2,0.2,0.4,0.4,0.5,0.6c0.1-0.2,0.3-0.5,0.4-0.7
		C35.8,48.7,35.6,48.5,35.4,48.3 M33,46.2c-0.1,0.2-0.2,0.5-0.3,0.7c0.2,0.2,0.4,0.3,0.6,0.5c0.1-0.2,0.2-0.5,0.3-0.7
		C33.4,46.5,33.2,46.3,33,46.2 M30.3,44.5c-0.1,0.3-0.2,0.5-0.2,0.7c0.2,0.1,0.5,0.3,0.7,0.4c0.1-0.2,0.2-0.5,0.3-0.7
		C30.7,44.7,30.5,44.6,30.3,44.5 M27.4,43.2c-0.1,0.3-0.1,0.5-0.2,0.7c0.2,0.1,0.5,0.2,0.7,0.3c0.1-0.2,0.2-0.5,0.2-0.7
		C27.9,43.4,27.7,43.3,27.4,43.2 M24.5,42.4c0,0.3-0.1,0.5-0.2,0.7c0.3,0,0.5,0.1,0.8,0.2c0.1-0.2,0.2-0.5,0.2-0.7
		C25,42.5,24.7,42.4,24.5,42.4"/>
	<path class="st1" d="M54.5,60C54.5,60,54.5,60,54.5,60C54.5,60,54.5,60,54.5,60 M54.5,59.9C54.5,60,54.5,60,54.5,59.9
		C54.5,60,54.5,60,54.5,59.9 M55.2,56.7c-0.5,1-0.8,2-0.8,3.2C54.5,58.8,54.8,57.7,55.2,56.7L55.2,56.7 M55.2,52
		c-0.3,0.2-0.5,0.4-0.8,0.7v3.9c0.2-0.5,0.5-0.9,0.8-1.3V52 M55.2,48.3c-0.3,0.1-0.5,0.3-0.8,0.5v2.9c0.2-0.2,0.5-0.4,0.8-0.6V48.3
		 M55.2,44.8c-0.3,0.1-0.5,0.2-0.8,0.4v2.6c0.3-0.2,0.5-0.3,0.8-0.4V44.8 M55.2,41.5c-0.3,0.1-0.5,0.2-0.8,0.3v2.5
		c0.3-0.1,0.5-0.2,0.8-0.3V41.5 M54.5,41C54.5,41,54.5,41,54.5,41L54.5,41C54.5,41,54.5,41,54.5,41"/>
	<path class="st2" d="M55.2,55.3c-0.3,0.4-0.6,0.8-0.8,1.3V60c0,0,0,0,0,0c0,0,0,0,0,0c0,0,0,0,0,0c0,0,0,0,0,0c0,0,0,0,0,0
		c0-1.1,0.3-2.2,0.8-3.2V55.3"/>
	<path class="st2" d="M55.2,44c-0.3,0.1-0.5,0.2-0.8,0.3v0.9c0.3-0.1,0.5-0.2,0.8-0.4V44"/>
	<path class="st2" d="M55.2,40.8c-0.2,0.1-0.5,0.1-0.7,0.2c0,0,0,0,0,0v0.8c0.3-0.1,0.5-0.2,0.8-0.3V40.8"/>
	<path class="st2" d="M55.2,51c-0.3,0.2-0.5,0.4-0.8,0.6v1c0.2-0.2,0.5-0.5,0.8-0.7V51"/>
	<path class="st2" d="M55.2,47.4c-0.3,0.1-0.5,0.3-0.8,0.4v0.9c0.3-0.2,0.5-0.3,0.8-0.5V47.4"/>
	<path class="st3" d="M56,55.5c-0.3,0.4-0.6,0.8-0.8,1.2v0C55.5,56.3,55.7,55.9,56,55.5L56,55.5 M56,51.4c-0.3,0.2-0.5,0.4-0.8,0.6
		v3.3c0.2-0.3,0.5-0.6,0.8-0.9V51.4 M56,47.9c-0.3,0.1-0.5,0.3-0.8,0.4V51c0.2-0.2,0.5-0.4,0.8-0.5V47.9 M56,44.5
		c-0.3,0.1-0.5,0.2-0.8,0.3v2.5c0.3-0.1,0.5-0.3,0.8-0.4V44.5 M56,41.3c-0.3,0.1-0.5,0.2-0.8,0.3V44c0.3-0.1,0.5-0.2,0.8-0.3V41.3"
		/>
	<path class="st4" d="M56,54.4c-0.3,0.3-0.5,0.6-0.8,0.9v1.5c0.2-0.4,0.5-0.8,0.8-1.2V54.4"/>
	<path class="st4" d="M56,43.7c-0.3,0.1-0.5,0.2-0.8,0.3v0.8c0.3-0.1,0.5-0.2,0.8-0.3V43.7"/>
	<path class="st4" d="M56,40.5c-0.3,0.1-0.5,0.2-0.8,0.3v0.8c0.3-0.1,0.5-0.2,0.8-0.3V40.5"/>
	<path class="st4" d="M56,50.5c-0.3,0.2-0.5,0.3-0.8,0.5v1c0.2-0.2,0.5-0.4,0.8-0.6V50.5"/>
	<path class="st4" d="M56,47c-0.3,0.1-0.5,0.2-0.8,0.4v0.9c0.3-0.1,0.5-0.3,0.8-0.4V47"/>
	<path class="st5" d="M56.8,54.7c-0.3,0.3-0.5,0.5-0.8,0.8v0C56.2,55.2,56.5,55,56.8,54.7L56.8,54.7 M56.8,50.9
		c-0.3,0.1-0.5,0.3-0.8,0.5v3c0.2-0.2,0.5-0.5,0.8-0.7V50.9 M56.8,47.5c-0.3,0.1-0.5,0.2-0.8,0.3v2.6c0.3-0.2,0.5-0.3,0.8-0.4V47.5
		 M56.8,44.3c-0.3,0.1-0.5,0.2-0.8,0.3V47c0.3-0.1,0.5-0.2,0.8-0.3V44.3 M56.8,41.1c-0.3,0.1-0.5,0.1-0.8,0.2v2.4
		c0.3-0.1,0.5-0.2,0.8-0.3V41.1"/>
	<path class="st6" d="M56.8,53.7c-0.3,0.2-0.5,0.4-0.8,0.7v1.2c0.2-0.3,0.5-0.6,0.8-0.8V53.7"/>
	<path class="st6" d="M56.8,43.5c-0.3,0.1-0.5,0.2-0.8,0.3v0.8c0.3-0.1,0.5-0.2,0.8-0.3V43.5"/>
	<path class="st6" d="M56.8,40.3c-0.3,0.1-0.5,0.1-0.8,0.2v0.8c0.3-0.1,0.5-0.2,0.8-0.2V40.3"/>
	<path class="st6" d="M56.8,50c-0.3,0.1-0.5,0.3-0.8,0.4v0.9c0.2-0.2,0.5-0.3,0.8-0.5V50"/>
	<path class="st6" d="M56.8,46.7c-0.3,0.1-0.5,0.2-0.8,0.3v0.8c0.3-0.1,0.5-0.2,0.8-0.3V46.7"/>
	<path class="st7" d="M57.5,54.1c-0.3,0.2-0.5,0.4-0.8,0.6v0C57,54.5,57.3,54.3,57.5,54.1L57.5,54.1 M57.5,50.5
		c-0.3,0.1-0.5,0.2-0.8,0.4v2.8c0.2-0.2,0.5-0.4,0.8-0.5V50.5 M57.5,47.2c-0.3,0.1-0.5,0.2-0.8,0.3V50c0.3-0.1,0.5-0.2,0.8-0.3V47.2
		 M57.5,44c-0.3,0.1-0.5,0.1-0.8,0.2v2.4c0.3-0.1,0.5-0.2,0.8-0.3V44 M57.5,40.9c-0.3,0.1-0.5,0.1-0.8,0.2v2.4
		c0.3-0.1,0.5-0.1,0.8-0.2V40.9"/>
	<path class="st8" d="M57.5,53.1c-0.3,0.2-0.5,0.3-0.8,0.5v1c0.2-0.2,0.5-0.4,0.8-0.6V53.1"/>
	<path class="st8" d="M57.5,43.3c-0.3,0.1-0.5,0.1-0.8,0.2v0.8c0.3-0.1,0.5-0.2,0.8-0.2V43.3"/>
	<path class="st8" d="M57.5,40.1c-0.3,0.1-0.5,0.1-0.8,0.2v0.8c0.3-0.1,0.5-0.1,0.8-0.2V40.1"/>
	<path class="st8" d="M57.5,49.7c-0.3,0.1-0.5,0.2-0.8,0.3v0.9c0.3-0.1,0.5-0.3,0.8-0.4V49.7"/>
	<path class="st8" d="M57.5,46.4c-0.3,0.1-0.5,0.2-0.8,0.3v0.8c0.3-0.1,0.5-0.2,0.8-0.3V46.4"/>
	<path class="st9" d="M58.3,53.6c-0.3,0.1-0.5,0.3-0.8,0.5v0C57.8,53.9,58,53.7,58.3,53.6L58.3,53.6 M58.3,50.2
		c-0.3,0.1-0.5,0.2-0.8,0.3v2.6c0.2-0.2,0.5-0.3,0.8-0.4V50.2 M58.3,47c-0.3,0.1-0.5,0.1-0.8,0.2v2.4c0.3-0.1,0.5-0.2,0.8-0.3V47
		 M58.3,43.9c-0.3,0.1-0.5,0.1-0.8,0.2v2.4c0.3-0.1,0.5-0.2,0.8-0.2V43.9 M58.3,40.7c-0.3,0-0.5,0.1-0.8,0.2v2.4
		c0.3-0.1,0.5-0.1,0.8-0.2V40.7"/>
	<path class="st10" d="M58.3,52.7c-0.3,0.1-0.5,0.3-0.8,0.4v0.9c0.2-0.2,0.5-0.3,0.8-0.5V52.7"/>
	<path class="st10" d="M58.3,43.1c-0.3,0.1-0.5,0.1-0.8,0.2V44c0.3-0.1,0.5-0.1,0.8-0.2V43.1"/>
	<path class="st10" d="M58.3,40c-0.3,0-0.5,0.1-0.8,0.2v0.8c0.3-0.1,0.5-0.1,0.8-0.2V40"/>
	<path class="st10" d="M58.3,49.4c-0.3,0.1-0.5,0.2-0.8,0.3v0.8c0.3-0.1,0.5-0.2,0.8-0.3V49.4"/>
	<path class="st10" d="M58.3,46.2c-0.3,0.1-0.5,0.1-0.8,0.2v0.8c0.3-0.1,0.5-0.2,0.8-0.2V46.2"/>
	<path class="st1" d="M96.7,60C96.7,60,96.7,60,96.7,60C96.7,60,96.7,60,96.7,60 M96.7,59.9C96.7,60,96.7,60,96.7,59.9
		C96.7,60,96.7,60,96.7,59.9 M95.9,56.7L95.9,56.7L95.9,56.7c0.5,1,0.8,2.1,0.8,3.2C96.7,58.8,96.4,57.7,95.9,56.7 M95.9,52v3.3
		c0.3,0.4,0.6,0.8,0.8,1.3v-3.9C96.4,52.4,96.2,52.2,95.9,52 M95.9,48.3V51c0.3,0.2,0.5,0.4,0.8,0.6v-2.9
		C96.4,48.6,96.2,48.4,95.9,48.3 M95.9,44.8v2.5c0.3,0.1,0.5,0.3,0.8,0.4v-2.6C96.4,45.1,96.2,45,95.9,44.8 M95.9,41.5V44
		c0.3,0.1,0.5,0.2,0.8,0.3v-2.5C96.4,41.7,96.2,41.6,95.9,41.5 M96.6,41C96.6,41,96.7,41,96.6,41L96.6,41C96.7,41,96.6,41,96.6,41"
		/>
	<path class="st2" d="M95.9,55.3v1.5c0.5,1,0.8,2,0.8,3.2c0,0,0,0,0,0c0,0,0,0,0,0c0,0,0,0,0,0c0,0,0,0,0,0c0,0,0,0,0,0l0,0v-3.4
		C96.5,56.1,96.2,55.7,95.9,55.3"/>
	<path class="st2" d="M96.7,52.6v3.9V60l0,0V52.6L96.7,52.6 M96.7,48.7v2.9l0,0V48.7L96.7,48.7 M96.7,45.2v2.6l0,0V45.2L96.7,45.2
		 M96.7,41.8v2.5l0,0V41.8L96.7,41.8 M96.7,41L96.7,41L96.7,41L96.7,41L96.7,41"/>
	<path class="st2" d="M95.9,51v1c0.3,0.2,0.5,0.4,0.8,0.7l0,0v-1l0,0C96.4,51.4,96.2,51.2,95.9,51"/>
	<path class="st2" d="M95.9,47.4v0.9c0.3,0.1,0.5,0.3,0.8,0.5l0,0v-0.9l0,0C96.4,47.7,96.2,47.5,95.9,47.4"/>
	<path class="st2" d="M95.9,44v0.8c0.3,0.1,0.5,0.2,0.8,0.4l0,0v-0.9l0,0C96.4,44.2,96.2,44.1,95.9,44"/>
	<path class="st2" d="M95.9,40.8v0.8c0.3,0.1,0.5,0.2,0.8,0.3l0,0V41l0,0c0,0,0,0-0.1,0C96.4,40.9,96.1,40.8,95.9,40.8"/>
	<path class="st3" d="M95.1,55.5L95.1,55.5L95.1,55.5c0.3,0.4,0.6,0.8,0.8,1.2v0C95.7,56.3,95.4,55.9,95.1,55.5 M95.1,51.4v3
		c0.3,0.3,0.5,0.6,0.8,0.9V52C95.7,51.7,95.4,51.6,95.1,51.4 M95.1,47.9v2.6c0.3,0.2,0.5,0.3,0.8,0.5v-2.7
		C95.7,48.1,95.4,48,95.1,47.9 M95.1,44.5V47c0.3,0.1,0.5,0.2,0.8,0.4v-2.5C95.7,44.7,95.4,44.6,95.1,44.5 M95.1,41.3v2.4
		c0.3,0.1,0.5,0.2,0.8,0.3v-2.5C95.7,41.5,95.4,41.4,95.1,41.3"/>
	<path class="st4" d="M95.1,54.4v1.2c0.3,0.4,0.6,0.8,0.8,1.2v-1.5C95.7,55,95.4,54.6,95.1,54.4"/>
	<path class="st4" d="M95.1,50.5v0.9c0.3,0.2,0.5,0.4,0.8,0.6v-1C95.7,50.8,95.4,50.6,95.1,50.5"/>
	<path class="st4" d="M95.1,47v0.8c0.3,0.1,0.5,0.3,0.8,0.4v-0.9C95.7,47.3,95.4,47.1,95.1,47"/>
	<path class="st4" d="M95.1,43.7v0.8c0.3,0.1,0.5,0.2,0.8,0.3V44C95.7,43.9,95.4,43.8,95.1,43.7"/>
	<path class="st4" d="M95.1,40.5v0.8c0.3,0.1,0.5,0.2,0.8,0.3v-0.8l0,0C95.7,40.7,95.4,40.6,95.1,40.5"/>
	<path class="st5" d="M94.4,54.7L94.4,54.7L94.4,54.7c0.3,0.3,0.5,0.6,0.8,0.9v0C94.9,55.2,94.7,54.9,94.4,54.7 M94.4,50.9v2.8
		c0.3,0.2,0.5,0.4,0.8,0.7v-3C94.9,51.2,94.6,51.1,94.4,50.9 M94.4,47.5V50c0.3,0.1,0.5,0.3,0.8,0.4v-2.6
		C94.9,47.7,94.6,47.6,94.4,47.5 M94.4,44.3v2.4c0.3,0.1,0.5,0.2,0.8,0.3v-2.5C94.9,44.4,94.6,44.4,94.4,44.3 M94.4,41.1v2.4
		c0.3,0.1,0.5,0.2,0.8,0.3v-2.4C94.9,41.2,94.6,41.1,94.4,41.1"/>
	<path class="st6" d="M94.4,53.7v1c0.3,0.3,0.5,0.5,0.8,0.8v-1.2C94.9,54.1,94.6,53.9,94.4,53.7"/>
	<path class="st6" d="M94.4,50v0.9c0.3,0.1,0.5,0.3,0.8,0.5v-0.9C94.9,50.3,94.6,50.2,94.4,50"/>
	<path class="st6" d="M94.4,46.7v0.8c0.3,0.1,0.5,0.2,0.8,0.3V47C94.9,46.9,94.6,46.8,94.4,46.7"/>
	<path class="st6" d="M94.4,43.5v0.8c0.3,0.1,0.5,0.2,0.8,0.3v-0.8C94.9,43.6,94.6,43.5,94.4,43.5"/>
	<path class="st6" d="M94.4,40.3v0.8c0.3,0.1,0.5,0.1,0.8,0.2v-0.8l0,0C94.9,40.4,94.6,40.4,94.4,40.3"/>
	<path class="st7" d="M93.6,54.1L93.6,54.1L93.6,54.1c0.3,0.2,0.5,0.4,0.8,0.6v0C94.1,54.5,93.9,54.3,93.6,54.1 M93.6,50.5v2.6
		c0.3,0.2,0.5,0.3,0.8,0.5v-2.8C94.1,50.8,93.9,50.6,93.6,50.5 M93.6,47.2v2.5c0.3,0.1,0.5,0.2,0.8,0.3v-2.5
		C94.1,47.4,93.9,47.3,93.6,47.2 M93.6,44v2.4c0.3,0.1,0.5,0.2,0.8,0.3v-2.4C94.1,44.2,93.9,44.1,93.6,44 M93.6,40.9v2.4
		c0.3,0.1,0.5,0.1,0.8,0.2v-2.4C94.1,41,93.9,40.9,93.6,40.9"/>
	<path class="st8" d="M93.6,53.1v0.9c0.3,0.2,0.5,0.4,0.8,0.6v-1C94.1,53.5,93.9,53.3,93.6,53.1"/>
	<path class="st8" d="M93.6,49.7v0.8c0.3,0.1,0.5,0.2,0.8,0.4V50C94.1,49.9,93.9,49.8,93.6,49.7"/>
	<path class="st8" d="M93.6,46.4v0.8c0.3,0.1,0.5,0.2,0.8,0.3v-0.8C94.1,46.6,93.9,46.5,93.6,46.4"/>
	<path class="st8" d="M93.6,43.3V44c0.3,0.1,0.5,0.1,0.8,0.2v-0.8C94.1,43.4,93.9,43.3,93.6,43.3"/>
	<path class="st8" d="M93.6,40.1v0.8c0.3,0.1,0.5,0.1,0.8,0.2v-0.8l0,0C94.1,40.2,93.9,40.2,93.6,40.1"/>
	<path class="st9" d="M92.8,53.6L92.8,53.6c0.3,0.1,0.5,0.3,0.8,0.5v0C93.4,53.9,93.1,53.7,92.8,53.6 M92.8,50.2v2.5
		c0.3,0.1,0.5,0.3,0.8,0.4v-2.6C93.4,50.4,93.1,50.3,92.8,50.2 M92.8,47v2.4c0.3,0.1,0.5,0.2,0.8,0.3v-2.5
		C93.4,47.2,93.1,47.1,92.8,47 M92.8,43.9v2.4c0.3,0.1,0.5,0.1,0.8,0.2V44C93.4,44,93.1,43.9,92.8,43.9 M92.8,40.7v2.3
		c0.3,0.1,0.5,0.1,0.8,0.2v-2.4C93.4,40.8,93.1,40.8,92.8,40.7"/>
	<path class="st10" d="M92.8,52.7v0.9c0.3,0.1,0.5,0.3,0.8,0.5v-0.9C93.4,53,93.1,52.8,92.8,52.7"/>
	<path class="st10" d="M92.8,49.4v0.8c0.3,0.1,0.5,0.2,0.8,0.3v-0.8C93.4,49.6,93.1,49.5,92.8,49.4"/>
	<path class="st10" d="M92.8,46.2V47c0.3,0.1,0.5,0.1,0.8,0.2v-0.8C93.4,46.4,93.1,46.3,92.8,46.2"/>
	<path class="st10" d="M92.8,43.1v0.8c0.3,0.1,0.5,0.1,0.8,0.2v-0.8C93.4,43.2,93.1,43.1,92.8,43.1"/>
	<path class="st10" d="M92.8,40v0.8c0.3,0,0.5,0.1,0.8,0.2v-0.8l0,0C93.4,40.1,93.1,40,92.8,40"/>
	<path class="st1" d="M96.7,79C96.7,79,96.6,79,96.7,79C96.7,79,96.7,79,96.7,79L96.7,79 M96.7,75.7c-0.3,0.1-0.5,0.2-0.8,0.3v2.5
		c0.3-0.1,0.5-0.2,0.8-0.3V75.7 M96.7,72.2c-0.3,0.2-0.5,0.3-0.8,0.4v2.5c0.3-0.1,0.5-0.2,0.8-0.4V72.2 M96.7,68.4
		c-0.2,0.2-0.5,0.4-0.8,0.6v2.7c0.3-0.1,0.5-0.3,0.8-0.5V68.4 M96.7,63.4c-0.2,0.5-0.5,0.9-0.8,1.3v3.3c0.3-0.2,0.5-0.4,0.8-0.7
		V63.4 M96.7,60.1c0,1.1-0.3,2.2-0.8,3.2v0C96.4,62.3,96.7,61.2,96.7,60.1 M96.7,60C96.7,60,96.7,60,96.7,60
		C96.7,60,96.7,60,96.7,60 M96.7,60C96.7,60,96.7,60,96.7,60C96.7,60,96.7,60,96.7,60"/>
	<path class="st2" d="M96.7,60L96.7,60L96.7,60L96.7,60C96.7,60,96.7,60,96.7,60C96.7,60,96.7,60,96.7,60C96.7,60,96.7,60,96.7,60
		C96.7,60,96.7,60,96.7,60C96.7,60.1,96.7,60.1,96.7,60c0,1.2-0.3,2.3-0.8,3.3v1.5c0.3-0.4,0.6-0.8,0.8-1.3V60L96.7,60"/>
	<path class="st2" d="M96.7,79L96.7,79L96.7,79L96.7,79 M96.7,75.7L96.7,75.7v2.5l0,0V75.7 M96.7,72.2L96.7,72.2v2.6l0,0V72.2
		 M96.7,68.4L96.7,68.4v2.9l0,0V68.4 M96.7,60L96.7,60L96.7,60v3.4v3.9l0,0V60"/>
	<path class="st2" d="M96.7,67.4L96.7,67.4c-0.2,0.2-0.5,0.5-0.8,0.7v1c0.3-0.2,0.5-0.4,0.8-0.6l0,0V67.4"/>
	<path class="st2" d="M96.7,71.3L96.7,71.3c-0.3,0.2-0.5,0.3-0.8,0.5v0.9c0.3-0.1,0.5-0.3,0.8-0.4l0,0V71.3"/>
	<path class="st2" d="M96.7,74.8L96.7,74.8c-0.3,0.1-0.5,0.2-0.8,0.4V76c0.3-0.1,0.5-0.2,0.8-0.3l0,0V74.8"/>
	<path class="st2" d="M96.7,78.2L96.7,78.2c-0.3,0.1-0.5,0.2-0.8,0.3v0.8l0,0c0.2-0.1,0.5-0.1,0.7-0.2c0,0,0,0,0,0l0,0V78.2"/>
	<path class="st3" d="M95.9,76c-0.3,0.1-0.5,0.2-0.8,0.3v2.4c0.3-0.1,0.5-0.2,0.8-0.3V76 M95.9,72.6c-0.3,0.1-0.5,0.3-0.8,0.4v2.5
		c0.3-0.1,0.5-0.2,0.8-0.3V72.6 M95.9,69c-0.2,0.2-0.5,0.4-0.8,0.5v2.6c0.3-0.1,0.5-0.3,0.8-0.4V69 M95.9,64.7
		c-0.2,0.3-0.5,0.6-0.8,0.9v3c0.3-0.2,0.5-0.4,0.8-0.6V64.7 M95.9,63.2c-0.2,0.4-0.5,0.8-0.8,1.2v0C95.4,64.1,95.7,63.7,95.9,63.2
		L95.9,63.2L95.9,63.2"/>
	<path class="st4" d="M95.9,63.3c-0.2,0.4-0.5,0.8-0.8,1.2v1.2c0.3-0.3,0.5-0.6,0.8-0.9V63.3"/>
	<path class="st4" d="M95.9,68c-0.2,0.2-0.5,0.4-0.8,0.6v0.9c0.3-0.2,0.5-0.3,0.8-0.5V68"/>
	<path class="st4" d="M95.9,71.7c-0.3,0.1-0.5,0.3-0.8,0.4V73c0.3-0.1,0.5-0.2,0.8-0.4V71.7"/>
	<path class="st4" d="M95.9,75.2c-0.3,0.1-0.5,0.2-0.8,0.3v0.8c0.3-0.1,0.5-0.2,0.8-0.3V75.2"/>
	<path class="st4" d="M95.9,78.5c-0.3,0.1-0.5,0.2-0.8,0.3v0.8l0,0c0.3-0.1,0.5-0.2,0.8-0.3V78.5"/>
	<path class="st5" d="M95.1,76.3c-0.3,0.1-0.5,0.2-0.8,0.3v2.4c0.3-0.1,0.5-0.1,0.8-0.2V76.3 M95.1,73c-0.3,0.1-0.5,0.2-0.8,0.3v2.4
		c0.3-0.1,0.5-0.2,0.8-0.3V73 M95.1,69.5c-0.3,0.2-0.5,0.3-0.8,0.4v2.5c0.3-0.1,0.5-0.2,0.8-0.3V69.5 M95.1,65.6
		c-0.2,0.2-0.5,0.5-0.8,0.7v2.8c0.3-0.1,0.5-0.3,0.8-0.5V65.6 M95.1,64.5c-0.2,0.3-0.5,0.6-0.8,0.8v0C94.7,65.1,94.9,64.8,95.1,64.5
		L95.1,64.5L95.1,64.5"/>
	<path class="st6" d="M95.1,64.5c-0.2,0.3-0.5,0.6-0.8,0.8v1c0.3-0.2,0.5-0.4,0.8-0.7V64.5"/>
	<path class="st6" d="M95.1,68.6c-0.2,0.2-0.5,0.3-0.8,0.5V70c0.3-0.1,0.5-0.3,0.8-0.4V68.6"/>
	<path class="st6" d="M95.1,72.1c-0.3,0.1-0.5,0.2-0.8,0.3v0.8c0.3-0.1,0.5-0.2,0.8-0.3V72.1"/>
	<path class="st6" d="M95.1,75.5c-0.3,0.1-0.5,0.2-0.8,0.3v0.8c0.3-0.1,0.5-0.2,0.8-0.3V75.5"/>
	<path class="st6" d="M95.1,78.7c-0.3,0.1-0.5,0.2-0.8,0.2v0.8l0,0c0.3-0.1,0.5-0.1,0.8-0.2V78.7"/>
	<path class="st7" d="M94.4,76.5c-0.3,0.1-0.5,0.1-0.8,0.2v2.4c0.3-0.1,0.5-0.1,0.8-0.2V76.5 M94.4,73.3c-0.3,0.1-0.5,0.2-0.8,0.3
		V76c0.3-0.1,0.5-0.1,0.8-0.2V73.3 M94.4,70c-0.3,0.1-0.5,0.2-0.8,0.3v2.5c0.3-0.1,0.5-0.2,0.8-0.3V70 M94.4,66.3
		c-0.2,0.2-0.5,0.4-0.8,0.5v2.6c0.3-0.1,0.5-0.2,0.8-0.4V66.3 M94.4,65.3c-0.2,0.2-0.5,0.4-0.8,0.6v0C93.9,65.7,94.1,65.5,94.4,65.3
		L94.4,65.3L94.4,65.3"/>
	<path class="st8" d="M94.4,65.3c-0.2,0.2-0.5,0.4-0.8,0.6v0.9c0.3-0.2,0.5-0.3,0.8-0.5V65.3"/>
	<path class="st8" d="M94.4,69.1c-0.3,0.1-0.5,0.3-0.8,0.4v0.8c0.3-0.1,0.5-0.2,0.8-0.3V69.1"/>
	<path class="st8" d="M94.4,72.5c-0.3,0.1-0.5,0.2-0.8,0.3v0.8c0.3-0.1,0.5-0.2,0.8-0.3V72.5"/>
	<path class="st8" d="M94.4,75.7c-0.3,0.1-0.5,0.2-0.8,0.2v0.8c0.3-0.1,0.5-0.1,0.8-0.2V75.7"/>
	<path class="st8" d="M94.4,78.9c-0.3,0.1-0.5,0.1-0.8,0.2v0.8l0,0c0.3-0.1,0.5-0.1,0.8-0.2V78.9"/>
	<path class="st9" d="M93.6,76.7c-0.3,0.1-0.5,0.1-0.8,0.2v2.3c0.3,0,0.5-0.1,0.8-0.2V76.7 M93.6,73.6c-0.3,0.1-0.5,0.2-0.8,0.2v2.4
		c0.3-0.1,0.5-0.1,0.8-0.2V73.6 M93.6,70.3c-0.3,0.1-0.5,0.2-0.8,0.3V73c0.3-0.1,0.5-0.1,0.8-0.2V70.3 M93.6,66.9
		c-0.2,0.2-0.5,0.3-0.8,0.4v2.5c0.3-0.1,0.5-0.2,0.8-0.3V66.9 M93.6,65.9c-0.2,0.2-0.5,0.3-0.8,0.5v0C93.1,66.3,93.4,66.1,93.6,65.9
		L93.6,65.9L93.6,65.9"/>
	<path class="st10" d="M93.6,65.9c-0.2,0.2-0.5,0.3-0.8,0.5v0.9c0.3-0.1,0.5-0.3,0.8-0.4V65.9"/>
	<path class="st10" d="M93.6,69.5c-0.3,0.1-0.5,0.2-0.8,0.3v0.8c0.3-0.1,0.5-0.2,0.8-0.3V69.5"/>
	<path class="st10" d="M93.6,72.8c-0.3,0.1-0.5,0.2-0.8,0.2v0.8c0.3-0.1,0.5-0.1,0.8-0.2V72.8"/>
	<path class="st10" d="M93.6,76c-0.3,0.1-0.5,0.1-0.8,0.2v0.8c0.3-0.1,0.5-0.1,0.8-0.2V76"/>
	<path class="st10" d="M93.6,79.1c-0.3,0.1-0.5,0.1-0.8,0.2V80c0.3,0,0.5-0.1,0.8-0.2V79.1"/>
	<path class="st1" d="M128.1,60C128.1,60,128.1,60,128.1,60C128.1,60,128.1,60,128.1,60 M128.1,59.9C128.1,60,128.1,60,128.1,59.9
		C128.1,60,128.1,60,128.1,59.9 M128.9,56.7c-0.5,1-0.8,2-0.8,3.2C128.1,58.8,128.4,57.7,128.9,56.7L128.9,56.7 M128.9,52
		c-0.3,0.2-0.5,0.4-0.8,0.7v3.9c0.2-0.5,0.5-0.9,0.8-1.3V52 M128.9,48.3c-0.3,0.1-0.5,0.3-0.8,0.5v2.9c0.2-0.2,0.5-0.4,0.8-0.6V48.3
		 M128.9,44.8c-0.3,0.1-0.5,0.2-0.8,0.4v2.6c0.3-0.2,0.5-0.3,0.8-0.4V44.8 M128.9,41.5c-0.3,0.1-0.5,0.2-0.8,0.3v2.5
		c0.3-0.1,0.5-0.2,0.8-0.3V41.5"/>
	<path class="st2" d="M128.9,55.3c-0.3,0.4-0.6,0.8-0.8,1.3V60c0,0,0,0,0,0c0,0,0,0,0,0c0,0,0,0,0,0c0,0,0,0,0,0c0,0,0,0,0,0
		c0-1.1,0.3-2.2,0.8-3.2V55.3"/>
	<path class="st2" d="M128.9,51c-0.3,0.2-0.5,0.4-0.8,0.6v1c0.2-0.2,0.5-0.5,0.8-0.7V51"/>
	<path class="st2" d="M128.9,47.4c-0.3,0.1-0.5,0.3-0.8,0.4v0.9c0.3-0.2,0.5-0.3,0.8-0.5V47.4"/>
	<path class="st2" d="M128.9,44c-0.3,0.1-0.5,0.2-0.8,0.3v0.9c0.3-0.1,0.5-0.2,0.8-0.4V44"/>
	<path class="st2" d="M128.9,40.8c-0.3,0.1-0.5,0.2-0.8,0.3v0.8c0.3-0.1,0.5-0.2,0.8-0.3V40.8"/>
	<path class="st3" d="M129.7,55.5c-0.3,0.4-0.6,0.8-0.8,1.2v0C129.1,56.3,129.4,55.9,129.7,55.5L129.7,55.5 M129.7,51.4
		c-0.3,0.2-0.5,0.4-0.8,0.6v3.3c0.2-0.3,0.5-0.6,0.8-0.9V51.4 M129.7,47.9c-0.3,0.1-0.5,0.3-0.8,0.4V51c0.2-0.2,0.5-0.4,0.8-0.5
		V47.9 M129.7,44.5c-0.3,0.1-0.5,0.2-0.8,0.3v2.5c0.3-0.1,0.5-0.3,0.8-0.4V44.5 M129.7,41.3c-0.3,0.1-0.5,0.2-0.8,0.3V44
		c0.3-0.1,0.5-0.2,0.8-0.3V41.3"/>
	<path class="st4" d="M129.7,54.4c-0.3,0.3-0.5,0.6-0.8,0.9v1.5c0.2-0.4,0.5-0.8,0.8-1.2V54.4"/>
	<path class="st4" d="M129.7,50.5c-0.3,0.2-0.5,0.3-0.8,0.5v1c0.2-0.2,0.5-0.4,0.8-0.6V50.5"/>
	<path class="st4" d="M129.7,47c-0.3,0.1-0.5,0.2-0.8,0.4v0.9c0.3-0.1,0.5-0.3,0.8-0.4V47"/>
	<path class="st4" d="M129.7,43.7c-0.3,0.1-0.5,0.2-0.8,0.3v0.8c0.3-0.1,0.5-0.2,0.8-0.3V43.7"/>
	<path class="st4" d="M129.7,40.5c-0.3,0.1-0.5,0.2-0.8,0.3v0.8c0.3-0.1,0.5-0.2,0.8-0.3V40.5"/>
	<path class="st5" d="M130.4,54.7c-0.3,0.3-0.5,0.5-0.8,0.8v0C129.9,55.2,130.2,55,130.4,54.7L130.4,54.7 M130.4,50.9
		c-0.3,0.1-0.5,0.3-0.8,0.5v3c0.2-0.2,0.5-0.5,0.8-0.7V50.9 M130.4,47.5c-0.3,0.1-0.5,0.2-0.8,0.3v2.6c0.3-0.2,0.5-0.3,0.8-0.4V47.5
		 M130.4,44.3c-0.3,0.1-0.5,0.2-0.8,0.3V47c0.3-0.1,0.5-0.2,0.8-0.3V44.3 M130.4,41.1c-0.3,0.1-0.5,0.1-0.8,0.2v2.4
		c0.3-0.1,0.5-0.2,0.8-0.3V41.1"/>
	<path class="st6" d="M130.4,53.7c-0.3,0.2-0.5,0.4-0.8,0.7v1.2c0.2-0.3,0.5-0.6,0.8-0.8V53.7"/>
	<path class="st6" d="M130.4,50c-0.3,0.1-0.5,0.3-0.8,0.4v0.9c0.2-0.2,0.5-0.3,0.8-0.5V50"/>
	<path class="st6" d="M130.4,46.7c-0.3,0.1-0.5,0.2-0.8,0.3v0.8c0.3-0.1,0.5-0.2,0.8-0.3V46.7"/>
	<path class="st6" d="M130.4,43.5c-0.3,0.1-0.5,0.2-0.8,0.3v0.8c0.3-0.1,0.5-0.2,0.8-0.3V43.5"/>
	<path class="st6" d="M130.4,40.3c-0.3,0.1-0.5,0.1-0.8,0.2v0.8c0.3-0.1,0.5-0.2,0.8-0.2V40.3"/>
	<path class="st7" d="M131.2,54.1c-0.3,0.2-0.5,0.4-0.8,0.6v0C130.7,54.5,130.9,54.3,131.2,54.1L131.2,54.1 M131.2,50.5
		c-0.3,0.1-0.5,0.2-0.8,0.4v2.8c0.2-0.2,0.5-0.4,0.8-0.5V50.5 M131.2,47.2c-0.3,0.1-0.5,0.2-0.8,0.3V50c0.3-0.1,0.5-0.2,0.8-0.3
		V47.2 M131.2,44c-0.3,0.1-0.5,0.1-0.8,0.2v2.4c0.3-0.1,0.5-0.2,0.8-0.3V44 M131.2,40.9c-0.3,0.1-0.5,0.1-0.8,0.2v2.4
		c0.3-0.1,0.5-0.1,0.8-0.2V40.9"/>
	<path class="st8" d="M131.2,53.1c-0.3,0.2-0.5,0.3-0.8,0.5v1c0.2-0.2,0.5-0.4,0.8-0.6V53.1"/>
	<path class="st8" d="M131.2,49.7c-0.3,0.1-0.5,0.2-0.8,0.3v0.9c0.3-0.1,0.5-0.3,0.8-0.4V49.7"/>
	<path class="st8" d="M131.2,46.4c-0.3,0.1-0.5,0.2-0.8,0.3v0.8c0.3-0.1,0.5-0.2,0.8-0.3V46.4"/>
	<path class="st8" d="M131.2,43.3c-0.3,0.1-0.5,0.1-0.8,0.2v0.8c0.3-0.1,0.5-0.2,0.8-0.2V43.3"/>
	<path class="st8" d="M131.2,40.1c-0.3,0.1-0.5,0.1-0.8,0.2v0.8c0.3-0.1,0.5-0.1,0.8-0.2V40.1"/>
	<path class="st9" d="M132,53.6c-0.3,0.1-0.5,0.3-0.8,0.5v0C131.5,53.9,131.7,53.7,132,53.6L132,53.6 M132,50.2
		c-0.3,0.1-0.5,0.2-0.8,0.3v2.6c0.2-0.2,0.5-0.3,0.8-0.4V50.2 M132,47c-0.3,0.1-0.5,0.1-0.8,0.2v2.4c0.3-0.1,0.5-0.2,0.8-0.3V47
		 M132,43.9c-0.3,0.1-0.5,0.1-0.8,0.2v2.4c0.3-0.1,0.5-0.2,0.8-0.2V43.9 M132,40.7c-0.3,0-0.5,0.1-0.8,0.2v2.4
		c0.3-0.1,0.5-0.1,0.8-0.2V40.7"/>
	<path class="st10" d="M132,52.7c-0.3,0.1-0.5,0.3-0.8,0.4v0.9c0.2-0.2,0.5-0.3,0.8-0.5V52.7"/>
	<path class="st10" d="M132,49.4c-0.3,0.1-0.5,0.2-0.8,0.3v0.8c0.3-0.1,0.5-0.2,0.8-0.3V49.4"/>
	<path class="st10" d="M132,46.2c-0.3,0.1-0.5,0.1-0.8,0.2v0.8c0.3-0.1,0.5-0.2,0.8-0.2V46.2"/>
	<path class="st10" d="M132,43.1c-0.3,0.1-0.5,0.1-0.8,0.2V44c0.3-0.1,0.5-0.1,0.8-0.2V43.1"/>
	<path class="st10" d="M132,40c-0.3,0-0.5,0.1-0.8,0.2v0.8c0.3-0.1,0.5-0.1,0.8-0.2V40"/>
	<path class="st1" d="M187.2,60C187.2,60,187.2,60,187.2,60C187.2,60,187.2,60,187.2,60 M187.2,59.9C187.2,60,187.2,60,187.2,59.9
		C187.2,60,187.2,60,187.2,59.9 M186.5,56.7L186.5,56.7L186.5,56.7c0.5,1,0.8,2.1,0.8,3.2C187.2,58.8,186.9,57.7,186.5,56.7
		 M186.5,52v3.3c0.3,0.4,0.6,0.8,0.8,1.3v-3.9C187,52.4,186.7,52.2,186.5,52 M186.5,48.3V51c0.3,0.2,0.5,0.4,0.8,0.6v-2.9
		C187,48.6,186.7,48.4,186.5,48.3 M186.5,44.8v2.5c0.3,0.1,0.5,0.3,0.8,0.4v-2.6C187,45.1,186.7,45,186.5,44.8 M186.5,41.5V44
		c0.3,0.1,0.5,0.2,0.8,0.3v-2.5C187,41.7,186.7,41.6,186.5,41.5 M187.1,41C187.2,41,187.2,41,187.1,41L187.1,41
		C187.2,41,187.2,41,187.1,41"/>
	<path class="st2" d="M186.5,55.3v1.5c0.5,1,0.8,2,0.8,3.2c0,0,0,0,0,0c0,0,0,0,0,0c0,0,0,0,0,0c0,0,0,0,0,0c0,0,0,0,0,0l0,0v-3.4
		C187,56.1,186.7,55.7,186.5,55.3"/>
	<path class="st2" d="M187.2,52.6v3.9V60l0,0V52.6L187.2,52.6 M187.2,48.7v2.9l0,0V48.7L187.2,48.7 M187.2,45.2v2.6l0,0V45.2
		L187.2,45.2 M187.2,41.8v2.5l0,0V41.8L187.2,41.8 M187.2,41L187.2,41L187.2,41L187.2,41L187.2,41"/>
	<path class="st2" d="M186.5,51v1c0.3,0.2,0.5,0.4,0.8,0.7l0,0v-1l0,0C187,51.4,186.7,51.2,186.5,51"/>
	<path class="st2" d="M186.5,47.4v0.9c0.3,0.1,0.5,0.3,0.8,0.5l0,0v-0.9l0,0C187,47.7,186.7,47.5,186.5,47.4"/>
	<path class="st2" d="M186.5,44v0.8c0.3,0.1,0.5,0.2,0.8,0.4l0,0v-0.9l0,0C187,44.2,186.7,44.1,186.5,44"/>
	<path class="st2" d="M186.5,40.8v0.8c0.3,0.1,0.5,0.2,0.8,0.3l0,0V41l0,0c0,0-0.1,0-0.1,0C186.9,40.9,186.7,40.8,186.5,40.8"/>
	<path class="st3" d="M185.7,55.5L185.7,55.5L185.7,55.5c0.3,0.4,0.6,0.8,0.8,1.2v0C186.2,56.3,186,55.9,185.7,55.5 M185.7,51.4v3
		c0.3,0.3,0.5,0.6,0.8,0.9V52C186.2,51.7,185.9,51.6,185.7,51.4 M185.7,47.9v2.6c0.3,0.2,0.5,0.3,0.8,0.5v-2.7
		C186.2,48.1,185.9,48,185.7,47.9 M185.7,44.5V47c0.3,0.1,0.5,0.2,0.8,0.4v-2.5C186.2,44.7,185.9,44.6,185.7,44.5 M185.7,41.3v2.4
		c0.3,0.1,0.5,0.2,0.8,0.3v-2.5C186.2,41.5,185.9,41.4,185.7,41.3"/>
	<path class="st4" d="M185.7,54.4v1.2c0.3,0.4,0.6,0.8,0.8,1.2v-1.5C186.2,55,186,54.6,185.7,54.4"/>
	<path class="st4" d="M185.7,50.5v0.9c0.3,0.2,0.5,0.4,0.8,0.6v-1C186.2,50.8,185.9,50.6,185.7,50.5"/>
	<path class="st4" d="M185.7,47v0.8c0.3,0.1,0.5,0.3,0.8,0.4v-0.9C186.2,47.3,185.9,47.1,185.7,47"/>
	<path class="st4" d="M185.7,43.7v0.8c0.3,0.1,0.5,0.2,0.8,0.3V44C186.2,43.9,185.9,43.8,185.7,43.7"/>
	<path class="st4" d="M185.7,40.5v0.8c0.3,0.1,0.5,0.2,0.8,0.3v-0.8l0,0C186.2,40.7,185.9,40.6,185.7,40.5"/>
	<path class="st5" d="M184.9,54.7L184.9,54.7L184.9,54.7c0.3,0.3,0.5,0.6,0.8,0.9v0C185.5,55.2,185.2,54.9,184.9,54.7 M184.9,50.9
		v2.8c0.3,0.2,0.5,0.4,0.8,0.7v-3C185.4,51.2,185.2,51.1,184.9,50.9 M184.9,47.5V50c0.3,0.1,0.5,0.3,0.8,0.4v-2.6
		C185.4,47.7,185.2,47.6,184.9,47.5 M184.9,44.3v2.4c0.3,0.1,0.5,0.2,0.8,0.3v-2.5C185.4,44.4,185.2,44.4,184.9,44.3 M184.9,41.1
		v2.4c0.3,0.1,0.5,0.2,0.8,0.3v-2.4C185.4,41.2,185.2,41.1,184.9,41.1"/>
	<path class="st6" d="M184.9,53.7v1c0.3,0.3,0.5,0.5,0.8,0.8v-1.2C185.4,54.1,185.2,53.9,184.9,53.7"/>
	<path class="st6" d="M184.9,50v0.9c0.3,0.1,0.5,0.3,0.8,0.5v-0.9C185.4,50.3,185.2,50.2,184.9,50"/>
	<path class="st6" d="M184.9,46.7v0.8c0.3,0.1,0.5,0.2,0.8,0.3V47C185.4,46.9,185.2,46.8,184.9,46.7"/>
	<path class="st6" d="M184.9,43.5v0.8c0.3,0.1,0.5,0.2,0.8,0.3v-0.8C185.4,43.6,185.2,43.5,184.9,43.5"/>
	<path class="st6" d="M184.9,40.3v0.8c0.3,0.1,0.5,0.1,0.8,0.2v-0.8l0,0C185.4,40.4,185.2,40.4,184.9,40.3"/>
	<path class="st7" d="M184.2,54.1L184.2,54.1L184.2,54.1c0.3,0.2,0.5,0.4,0.8,0.6v0C184.7,54.5,184.4,54.3,184.2,54.1 M184.2,50.5
		v2.6c0.3,0.2,0.5,0.3,0.8,0.5v-2.8C184.7,50.8,184.4,50.6,184.2,50.5 M184.2,47.2v2.4c0.3,0.1,0.5,0.2,0.8,0.3v-2.5
		C184.7,47.4,184.4,47.3,184.2,47.2 M184.2,44v2.4c0.3,0.1,0.5,0.2,0.8,0.3v-2.4C184.7,44.2,184.4,44.1,184.2,44 M184.2,40.9v2.4
		c0.3,0.1,0.5,0.1,0.8,0.2v-2.4C184.7,41,184.4,40.9,184.2,40.9"/>
	<path class="st8" d="M184.2,53.1v0.9c0.3,0.2,0.5,0.4,0.8,0.6v-1C184.7,53.5,184.4,53.3,184.2,53.1"/>
	<path class="st8" d="M184.2,49.7v0.8c0.3,0.1,0.5,0.2,0.8,0.4V50C184.7,49.9,184.4,49.8,184.2,49.7"/>
	<path class="st8" d="M184.2,46.4v0.8c0.3,0.1,0.5,0.2,0.8,0.3v-0.8C184.7,46.6,184.4,46.5,184.2,46.4"/>
	<path class="st8" d="M184.2,43.3V44c0.3,0.1,0.5,0.1,0.8,0.2v-0.8C184.7,43.4,184.4,43.3,184.2,43.3"/>
	<path class="st8" d="M184.2,40.1v0.8c0.3,0.1,0.5,0.1,0.8,0.2v-0.8l0,0C184.7,40.2,184.4,40.2,184.2,40.1"/>
	<path class="st9" d="M183.4,53.6L183.4,53.6c0.3,0.1,0.5,0.3,0.8,0.5v0C183.9,53.9,183.7,53.7,183.4,53.6 M183.4,50.2v2.5
		c0.3,0.1,0.5,0.3,0.8,0.4v-2.6C183.9,50.4,183.6,50.3,183.4,50.2 M183.4,47v2.4c0.3,0.1,0.5,0.2,0.8,0.3v-2.4
		C183.9,47.2,183.6,47.1,183.4,47 M183.4,43.9v2.4c0.3,0.1,0.5,0.1,0.8,0.2V44C183.9,44,183.6,43.9,183.4,43.9 M183.4,40.7v2.3
		c0.3,0.1,0.5,0.1,0.8,0.2v-2.4C183.9,40.8,183.6,40.8,183.4,40.7"/>
	<path class="st10" d="M183.4,52.7v0.9c0.3,0.1,0.5,0.3,0.8,0.5v-0.9C183.9,53,183.6,52.8,183.4,52.7"/>
	<path class="st10" d="M183.4,49.4v0.8c0.3,0.1,0.5,0.2,0.8,0.3v-0.8C183.9,49.6,183.6,49.5,183.4,49.4"/>
	<path class="st10" d="M183.4,46.2V47c0.3,0.1,0.5,0.1,0.8,0.2v-0.8C183.9,46.4,183.6,46.3,183.4,46.2"/>
	<path class="st10" d="M183.4,43.1v0.8c0.3,0.1,0.5,0.1,0.8,0.2v-0.8C183.9,43.2,183.6,43.1,183.4,43.1"/>
	<path class="st10" d="M183.4,40v0.8c0.3,0,0.5,0.1,0.8,0.2v-0.8l0,0C183.9,40.1,183.6,40,183.4,40"/>
	<path class="st1" d="M187.2,79C187.2,79,187.2,79,187.2,79C187.2,79,187.2,79,187.2,79L187.2,79 M187.2,75.7
		c-0.3,0.1-0.5,0.2-0.8,0.3v2.5c0.3-0.1,0.5-0.2,0.8-0.3V75.7 M187.2,72.2c-0.3,0.2-0.5,0.3-0.8,0.4v2.5c0.3-0.1,0.5-0.2,0.8-0.4
		V72.2 M187.2,68.4c-0.2,0.2-0.5,0.4-0.8,0.6v2.7c0.3-0.1,0.5-0.3,0.8-0.5V68.4 M187.2,63.4c-0.2,0.5-0.5,0.9-0.8,1.3v3.3
		c0.3-0.2,0.5-0.4,0.8-0.7V63.4 M187.2,60.1c0,1.1-0.3,2.2-0.8,3.2v0C186.9,62.3,187.2,61.2,187.2,60.1 M187.2,60
		C187.2,60,187.2,60,187.2,60C187.2,60,187.2,60,187.2,60 M187.2,60C187.2,60,187.2,60,187.2,60C187.2,60,187.2,60,187.2,60"/>
	<path class="st2" d="M187.2,60L187.2,60L187.2,60L187.2,60C187.2,60,187.2,60,187.2,60C187.2,60,187.2,60,187.2,60
		C187.2,60,187.2,60,187.2,60C187.2,60,187.2,60,187.2,60C187.2,60.1,187.2,60.1,187.2,60c0,1.2-0.3,2.3-0.8,3.3v1.5
		c0.3-0.4,0.6-0.8,0.8-1.3V60L187.2,60"/>
	<path class="st2" d="M187.2,79L187.2,79L187.2,79L187.2,79 M187.2,75.7L187.2,75.7v2.5l0,0V75.7 M187.2,72.2L187.2,72.2v2.6l0,0
		V72.2 M187.2,68.4L187.2,68.4v2.9l0,0V68.4 M187.2,60L187.2,60L187.2,60v3.4v3.9l0,0V60"/>
	<path class="st2" d="M187.2,67.4L187.2,67.4c-0.2,0.2-0.5,0.5-0.8,0.7v1c0.3-0.2,0.5-0.4,0.8-0.6l0,0V67.4"/>
	<path class="st2" d="M187.2,71.3L187.2,71.3c-0.3,0.2-0.5,0.3-0.8,0.5v0.9c0.3-0.1,0.5-0.3,0.8-0.4l0,0V71.3"/>
	<path class="st2" d="M187.2,74.8L187.2,74.8c-0.3,0.1-0.5,0.2-0.8,0.4V76c0.3-0.1,0.5-0.2,0.8-0.3l0,0V74.8"/>
	<path class="st2" d="M187.2,78.2L187.2,78.2c-0.3,0.1-0.5,0.2-0.8,0.3v0.8l0,0c0.2-0.1,0.5-0.1,0.7-0.2c0,0,0,0,0.1,0l0,0V78.2"/>
	<path class="st3" d="M186.5,76c-0.3,0.1-0.5,0.2-0.8,0.3v2.4c0.3-0.1,0.5-0.2,0.8-0.3V76 M186.5,72.6c-0.3,0.1-0.5,0.3-0.8,0.4v2.5
		c0.3-0.1,0.5-0.2,0.8-0.3V72.6 M186.5,69c-0.2,0.2-0.5,0.4-0.8,0.5v2.6c0.3-0.1,0.5-0.3,0.8-0.4V69 M186.5,64.7
		c-0.2,0.3-0.5,0.6-0.8,0.9v3c0.3-0.2,0.5-0.4,0.8-0.6V64.7 M186.5,63.2c-0.2,0.4-0.5,0.8-0.8,1.2v0C186,64.1,186.2,63.7,186.5,63.2
		L186.5,63.2L186.5,63.2"/>
	<path class="st4" d="M186.5,63.3c-0.2,0.4-0.5,0.8-0.8,1.2v1.2c0.3-0.3,0.5-0.6,0.8-0.9V63.3"/>
	<path class="st4" d="M186.5,68c-0.2,0.2-0.5,0.4-0.8,0.6v0.9c0.3-0.2,0.5-0.3,0.8-0.5V68"/>
	<path class="st4" d="M186.5,71.7c-0.3,0.1-0.5,0.3-0.8,0.4V73c0.3-0.1,0.5-0.2,0.8-0.4V71.7"/>
	<path class="st4" d="M186.5,75.2c-0.3,0.1-0.5,0.2-0.8,0.3v0.8c0.3-0.1,0.5-0.2,0.8-0.3V75.2"/>
	<path class="st4" d="M186.5,78.5c-0.3,0.1-0.5,0.2-0.8,0.3v0.8l0,0c0.3-0.1,0.5-0.2,0.8-0.3V78.5"/>
	<path class="st5" d="M185.7,76.3c-0.3,0.1-0.5,0.2-0.8,0.3v2.4c0.3-0.1,0.5-0.1,0.8-0.2V76.3 M185.7,73c-0.3,0.1-0.5,0.2-0.8,0.3
		v2.4c0.3-0.1,0.5-0.2,0.8-0.3V73 M185.7,69.5c-0.3,0.2-0.5,0.3-0.8,0.4v2.5c0.3-0.1,0.5-0.2,0.8-0.3V69.5 M185.7,65.6
		c-0.2,0.2-0.5,0.5-0.8,0.7v2.8c0.3-0.1,0.5-0.3,0.8-0.5V65.6 M185.7,64.5c-0.2,0.3-0.5,0.6-0.8,0.8v0
		C185.2,65.1,185.5,64.8,185.7,64.5L185.7,64.5L185.7,64.5"/>
	<path class="st6" d="M185.7,64.5c-0.2,0.3-0.5,0.6-0.8,0.8v1c0.3-0.2,0.5-0.4,0.8-0.7V64.5"/>
	<path class="st6" d="M185.7,68.6c-0.2,0.2-0.5,0.3-0.8,0.5V70c0.3-0.1,0.5-0.3,0.8-0.4V68.6"/>
	<path class="st6" d="M185.7,72.1c-0.3,0.1-0.5,0.2-0.8,0.3v0.8c0.3-0.1,0.5-0.2,0.8-0.3V72.1"/>
	<path class="st6" d="M185.7,75.5c-0.3,0.1-0.5,0.2-0.8,0.3v0.8c0.3-0.1,0.5-0.2,0.8-0.3V75.5"/>
	<path class="st6" d="M185.7,78.7c-0.3,0.1-0.5,0.2-0.8,0.2v0.8l0,0c0.3-0.1,0.5-0.1,0.8-0.2V78.7"/>
	<path class="st7" d="M184.9,76.5c-0.3,0.1-0.5,0.1-0.8,0.2v2.4c0.3-0.1,0.5-0.1,0.8-0.2V76.5 M184.9,73.3c-0.3,0.1-0.5,0.2-0.8,0.3
		V76c0.3-0.1,0.5-0.1,0.8-0.2V73.3 M184.9,70c-0.3,0.1-0.5,0.2-0.8,0.3v2.5c0.3-0.1,0.5-0.2,0.8-0.3V70 M184.9,66.3
		c-0.2,0.2-0.5,0.4-0.8,0.5v2.6c0.3-0.1,0.5-0.2,0.8-0.4V66.3 M184.9,65.3c-0.2,0.2-0.5,0.4-0.8,0.6v0
		C184.4,65.7,184.7,65.5,184.9,65.3L184.9,65.3L184.9,65.3"/>
	<path class="st8" d="M184.9,65.3c-0.2,0.2-0.5,0.4-0.8,0.6v0.9c0.3-0.2,0.5-0.3,0.8-0.5V65.3"/>
	<path class="st8" d="M184.9,69.1c-0.3,0.1-0.5,0.3-0.8,0.4v0.8c0.3-0.1,0.5-0.2,0.8-0.3V69.1"/>
	<path class="st8" d="M184.9,72.5c-0.3,0.1-0.5,0.2-0.8,0.3v0.8c0.3-0.1,0.5-0.2,0.8-0.3V72.5"/>
	<path class="st8" d="M184.9,75.7c-0.3,0.1-0.5,0.2-0.8,0.2v0.8c0.3-0.1,0.5-0.1,0.8-0.2V75.7"/>
	<path class="st8" d="M184.9,78.9c-0.3,0.1-0.5,0.1-0.8,0.2v0.8l0,0c0.3-0.1,0.5-0.1,0.8-0.2V78.9"/>
	<path class="st9" d="M184.2,76.7c-0.3,0.1-0.5,0.1-0.8,0.2v2.3c0.3,0,0.5-0.1,0.8-0.2V76.7 M184.2,73.6c-0.3,0.1-0.5,0.2-0.8,0.2
		v2.4c0.3-0.1,0.5-0.1,0.8-0.2V73.6 M184.2,70.3c-0.3,0.1-0.5,0.2-0.8,0.3V73c0.3-0.1,0.5-0.1,0.8-0.2V70.3 M184.2,66.9
		c-0.2,0.2-0.5,0.3-0.8,0.4v2.5c0.3-0.1,0.5-0.2,0.8-0.3V66.9 M184.2,65.9c-0.2,0.2-0.5,0.3-0.8,0.5v0
		C183.7,66.3,183.9,66.1,184.2,65.9L184.2,65.9L184.2,65.9"/>
	<path class="st10" d="M184.2,65.9c-0.2,0.2-0.5,0.3-0.8,0.5v0.9c0.3-0.1,0.5-0.3,0.8-0.4V65.9"/>
	<path class="st10" d="M184.2,69.5c-0.3,0.1-0.5,0.2-0.8,0.3v0.8c0.3-0.1,0.5-0.2,0.8-0.3V69.5"/>
	<path class="st10" d="M184.2,72.8c-0.3,0.1-0.5,0.2-0.8,0.2v0.8c0.3-0.1,0.5-0.1,0.8-0.2V72.8"/>
	<path class="st10" d="M184.2,76c-0.3,0.1-0.5,0.1-0.8,0.2v0.8c0.3-0.1,0.5-0.1,0.8-0.2V76"/>
	<path class="st10" d="M184.2,79.1c-0.3,0.1-0.5,0.1-0.8,0.2V80c0.3,0,0.5-0.1,0.8-0.2V79.1"/>
	<path class="st1" d="M221.8,42.8v1.6l2.3,4.1v-1.6l-1-1.7L221.8,42.8 M218.7,37.2v1.6L221,43v-1.6l-0.6-1.1L218.7,37.2 M215.6,31.7
		v1.6l2.3,4.1v-1.6l-1.4-2.5L215.6,31.7 M212.5,26.2v1.6l2.3,4.1v-1.6L212.5,26.2"/>
	<path class="st2" d="M223.1,45.2l1,1.7v1.6l0.8,1.4v-1.6L223.1,45.2 M221,41.4V43l0.8,1.4v-1.6L221,41.4 M217.9,35.9v1.6l0.8,1.4
		v-1.6l1.7,3.1L217.9,35.9 M211.8,24.8v1.6l0.8,1.4v-1.6l2.3,4.1v1.6l0.8,1.4v-1.6l0.9,1.7L211.8,24.8"/>
	<path class="st3" d="M221.8,44.3v1.6l2.3,4.1v-1.6L221.8,44.3 M218.7,38.8v1.6l2.3,4.1V43L218.7,38.8 M215.6,33.3v1.6l2.3,4.1v-1.6
		L215.6,33.3 M212.5,27.8v1.6l2.3,4.1v-1.6L212.5,27.8"/>
	<path class="st4" d="M224.1,48.5v1.6l0.8,1.4v-1.6L224.1,48.5 M221,43v1.6l0.8,1.4v-1.6L221,43 M217.9,37.4V39l0.8,1.4v-1.6
		L217.9,37.4 M214.8,31.9v1.6l0.8,1.4v-1.6L214.8,31.9 M211.8,26.4V28l0.8,1.4v-1.6L211.8,26.4"/>
	<path class="st5" d="M221.8,45.9v1.6l2.3,4.1v-1.6L221.8,45.9 M218.7,40.4V42l2.3,4.1v-1.6L218.7,40.4 M215.6,34.9v1.6l2.3,4.1V39
		L215.6,34.9 M212.5,29.4v1.6l2.3,4.1v-1.6L212.5,29.4"/>
	<path class="st6" d="M224.1,50.1v1.6l0.8,1.4v-1.6L224.1,50.1 M221,44.6v1.6l0.8,1.4v-1.6L221,44.6 M217.9,39v1.6l0.8,1.4v-1.6
		L217.9,39 M214.8,33.5v1.6l0.8,1.4v-1.6L214.8,33.5 M211.8,28v1.6l0.8,1.4v-1.6L211.8,28"/>
	<path class="st7" d="M221.8,47.5v1.6l2.3,4.1v-1.6L221.8,47.5 M218.7,42v1.6l2.3,4.1v-1.6L218.7,42 M215.6,36.5v1.6l2.3,4.1v-1.6
		L215.6,36.5 M212.5,31v1.6l2.3,4.1v-1.6L212.5,31"/>
	<path class="st8" d="M224.1,51.7v1.6l0.8,1.4V53L224.1,51.7 M221,46.1v1.6l0.8,1.4v-1.6L221,46.1 M217.9,40.6v1.6l0.8,1.4V42
		L217.9,40.6 M214.8,35.1v1.6l0.8,1.4v-1.6L214.8,35.1 M211.8,29.6v1.6l0.8,1.4V31L211.8,29.6"/>
	<path class="st9" d="M221.8,49.1v1.6l2.3,4.1v-1.6L221.8,49.1 M218.7,43.6v1.6l2.3,4.1v-1.6L218.7,43.6 M215.6,38.1v1.6l2.3,4.1
		v-1.6L215.6,38.1 M212.5,32.5v1.6l2.3,4.1v-1.6L212.5,32.5"/>
	<path class="st10" d="M224.1,53.3v1.6l0.8,1.4v-1.6L224.1,53.3 M221,47.7v1.6l0.8,1.4v-1.6L221,47.7 M217.9,42.2v1.6l0.8,1.4v-1.6
		L217.9,42.2 M214.8,36.7v1.6l0.8,1.4v-1.6L214.8,36.7 M211.8,31.2v1.6l0.8,1.4v-1.6L211.8,31.2"/>
	<path class="st1" d="M252.4,72.7v1.6l2.3,4.1v-1.6L252.4,72.7 M249.4,67.2v1.6l2.3,4.1v-1.6L249.4,67.2 M246.3,61.7v1.6l2.3,4.1
		v-1.6L246.3,61.7 M243.2,56.2v1.6l2.3,4.1v-1.6L243.2,56.2"/>
	<path class="st2" d="M254.7,76.9v1.6l0.8,1.4v-1.6L254.7,76.9 M251.7,71.4v1.6l0.8,1.4v-1.6L251.7,71.4 M248.6,65.8v1.6l0.8,1.4
		v-1.6L248.6,65.8 M245.5,60.3v1.6l0.8,1.4v-1.6L245.5,60.3 M242.5,54.8v1.6l0.8,1.4v-1.6L242.5,54.8"/>
	<path class="st3" d="M252.4,71.2v1.6l2.3,4.1v-1.6L252.4,71.2 M249.4,65.6v1.6l2.3,4.1v-1.6L249.4,65.6 M246.3,60.1v1.6l2.3,4.1
		v-1.6L246.3,60.1 M243.2,54.6v1.6l2.3,4.1v-1.6L243.2,54.6"/>
	<path class="st4" d="M254.7,75.3v1.6l0.8,1.4v-1.6L254.7,75.3 M251.7,69.8v1.6l0.8,1.4v-1.6L251.7,69.8 M248.6,64.3v1.6l0.8,1.4
		v-1.6L248.6,64.3 M245.5,58.7v1.6l0.8,1.4v-1.6L245.5,58.7 M242.5,53.2v1.6l0.8,1.4v-1.6L242.5,53.2"/>
	<path class="st5" d="M252.4,69.6v1.6l2.3,4.1v-1.6L252.4,69.6 M249.4,64v1.6l2.3,4.1v-1.6L249.4,64 M246.3,58.5v1.6l2.3,4.1v-1.6
		L246.3,58.5 M243.2,53v1.6l2.3,4.1v-1.6L243.2,53"/>
	<path class="st6" d="M254.7,73.7v1.6l0.8,1.4v-1.6L254.7,73.7 M251.7,68.2v1.6l0.8,1.4v-1.6L251.7,68.2 M248.6,62.7v1.6l0.8,1.4V64
		L248.6,62.7 M245.5,57.1v1.6l0.8,1.4v-1.6L245.5,57.1 M242.5,51.6v1.6l0.8,1.4V53L242.5,51.6"/>
	<path class="st7" d="M252.4,68v1.6l2.3,4.1v-1.6L252.4,68 M249.4,62.5V64l2.3,4.1v-1.6L249.4,62.5 M246.3,56.9v1.6l2.3,4.1v-1.6
		L246.3,56.9 M243.2,51.4V53l2.3,4.1v-1.6L243.2,51.4"/>
	<path class="st8" d="M254.7,72.1v1.6l0.8,1.4v-1.6L254.7,72.1 M251.7,66.6v1.6l0.8,1.4V68L251.7,66.6 M248.6,61.1v1.6l0.8,1.4v-1.6
		L248.6,61.1 M245.5,55.5v1.6l0.8,1.4v-1.6L245.5,55.5 M242.5,50v1.6l0.8,1.4v-1.6L242.5,50"/>
	<path class="st9" d="M252.4,66.4V68l2.3,4.1v-1.6L252.4,66.4 M249.4,60.9v1.6l2.3,4.1V65L249.4,60.9 M246.3,55.3v1.6l2.3,4.1v-1.6
		L246.3,55.3 M243.2,49.8v1.6l2.3,4.1V54L243.2,49.8"/>
	<path class="st10" d="M254.7,70.5v1.6l0.8,1.4v-1.6L254.7,70.5 M251.7,65v1.6l0.8,1.4v-1.6L251.7,65 M248.6,59.5v1.6l0.8,1.4v-1.6
		L248.6,59.5 M245.5,54v1.6l0.8,1.4v-1.6L245.5,54 M242.5,48.4V50l0.8,1.4v-1.6L242.5,48.4"/>
	<polyline class="st1" points="284.1,64.2 284.1,64.2 283.8,64.5 284.1,64.2 	"/>
	<path class="st2" d="M284.1,64.2l-0.2,0c-0.2,0.3-0.5,0.6-0.8,0.8l0.7-0.5L284.1,64.2"/>
	<path class="st1" d="M276.7,66.1l-0.7,0.5c0.1,0,0.1,0.1,0.2,0.1c0.1,0,0.2,0.1,0.3,0.1c0.1,0,0.2,0.1,0.3,0.1
		c0.1,0,0.3,0.1,0.4,0.1c0.1,0,0.2,0,0.3,0.1c0.1,0,0.3,0,0.5,0.1c0.1,0,0.2,0,0.2,0c0.2,0,0.5,0,0.7,0c0,0,0,0,0,0l1.1-0.9
		c-0.4,0.1-0.7,0.1-1.1,0.1C278.1,66.5,277.4,66.4,276.7,66.1 M274,64.3l-0.6,0.5c0.2,0.2,0.5,0.5,0.7,0.7l0.1,0.1
		c0.1,0.1,0.2,0.2,0.3,0.3l0.2,0.1c0.1,0.1,0.2,0.1,0.3,0.2c0.1,0,0.1,0.1,0.2,0.1l0.7-0.5C275.2,65.4,274.6,64.9,274,64.3
		 M272.6,61.5l-0.7,0.5c0,0.1,0.1,0.3,0.1,0.4l0,0c0.1,0.2,0.1,0.4,0.2,0.6l0,0c0.2,0.4,0.4,0.8,0.6,1.1l0.6-0.5
		C273.1,63.1,272.8,62.3,272.6,61.5 M272.4,60.7l-0.4,0.3L272.4,60.7L272.4,60.7"/>
	<path class="st2" d="M272.4,60.7l-0.4,0.3l-0.3,0.2c0,0.2,0.1,0.4,0.1,0.6l0,0c0,0.1,0,0.1,0,0.2l0.7-0.5
		C272.5,61.3,272.5,61,272.4,60.7"/>
	<path class="st2" d="M273.6,63.7l-0.6,0.5c0.1,0.2,0.3,0.4,0.5,0.6l0.6-0.5C273.9,64.1,273.7,63.9,273.6,63.7"/>
	<path class="st2" d="M275.9,65.8l-0.7,0.5c0,0,0,0,0.1,0c0.1,0.1,0.2,0.1,0.3,0.2c0.1,0,0.2,0.1,0.3,0.1c0,0,0.1,0,0.1,0l0.7-0.5
		C276.4,66,276.2,65.9,275.9,65.8"/>
	<polyline class="st2" points="272.4,60.7 272.1,61 272.4,60.7 272.4,60.7 	"/>
	<path class="st2" d="M282.9,65.1c-0.8,0.7-1.8,1.1-2.9,1.3l-1.1,0.9c0.2,0,0.5,0,0.7,0c0.2,0,0.5-0.1,0.7-0.1L282.9,65.1"/>
	<path class="st3" d="M282.3,64.6c-1,0.7-2.1,1.1-3.4,1.1c-0.5,0-1-0.1-1.5-0.2l-0.7,0.6c0.7,0.2,1.4,0.4,2.2,0.4
		c0.4,0,0.7,0,1.1-0.1L282.3,64.6 M282.9,64.2L282.9,64.2c-0.1,0.1-0.2,0.2-0.3,0.3L282.9,64.2 M274.6,63.8l-0.6,0.5
		c0.5,0.6,1.2,1.1,1.9,1.5l0.7-0.5C275.8,64.9,275.2,64.4,274.6,63.8 M273.3,61l-0.7,0.5c0.2,0.8,0.5,1.5,1,2.2l0.6-0.5
		C273.7,62.6,273.4,61.8,273.3,61 M273.2,60.1l-0.7,0.6l0,0L273.2,60.1L273.2,60.1"/>
	<path class="st4" d="M273.2,60.1l-0.7,0.6c0,0.3,0.1,0.6,0.1,0.9l0.7-0.5C273.2,60.7,273.2,60.4,273.2,60.1"/>
	<path class="st4" d="M274.2,63.2l-0.6,0.5c0.1,0.2,0.3,0.4,0.5,0.6l0.6-0.5C274.5,63.7,274.3,63.5,274.2,63.2"/>
	<path class="st4" d="M276.6,65.3l-0.7,0.5c0.3,0.1,0.5,0.3,0.8,0.4l0.7-0.6C277.1,65.5,276.8,65.4,276.6,65.3"/>
	<polyline class="st4" points="273.2,60.1 272.4,60.7 272.4,60.7 273.2,60.1 273.2,60.1 	"/>
	<path class="st4" d="M283.9,64.2l-1,0l-0.3,0.3c-0.1,0.1-0.1,0.1-0.2,0.2l-2.3,1.8c1.1-0.2,2.1-0.6,2.9-1.3l0.2-0.1
		C283.4,64.8,283.7,64.5,283.9,64.2"/>
	<path class="st5" d="M282.8,64.2l-1.3,0c-0.8,0.5-1.7,0.8-2.7,0.8c-0.2,0-0.5,0-0.7,0l-0.8,0.6c0.5,0.1,1,0.2,1.5,0.2
		c1.3,0,2.5-0.4,3.4-1.1l0.2-0.2C282.6,64.4,282.7,64.3,282.8,64.2 M275.2,63.4l-0.6,0.5c0.5,0.6,1.2,1.1,1.9,1.4l0.7-0.5
		C276.5,64.4,275.8,64,275.2,63.4 M273.9,60.5l-0.7,0.5c0.1,0.8,0.5,1.6,0.9,2.2l0.6-0.5C274.3,62.1,274,61.3,273.9,60.5 M274,59.5
		l-0.8,0.6v0L274,59.5L274,59.5"/>
	<path class="st6" d="M274,59.5l-0.8,0.6c0,0.3,0,0.6,0.1,0.9l0.7-0.5c0-0.2,0-0.3,0-0.5l0,0l0,0C273.9,59.8,273.9,59.7,274,59.5"/>
	<path class="st6" d="M274.8,62.8l-0.6,0.5c0.1,0.2,0.3,0.4,0.5,0.6l0.6-0.5C275.1,63.2,274.9,63,274.8,62.8"/>
	<path class="st6" d="M277.3,64.7l-0.7,0.5c0.3,0.1,0.6,0.2,0.9,0.3l0.8-0.6C277.9,64.9,277.6,64.8,277.3,64.7"/>
	<polyline class="st6" points="274,59.5 273.2,60.1 273.2,60.1 274,59.5 274,59.5 	"/>
	<path class="st6" d="M282.5,64.5l-0.2,0.2C282.4,64.6,282.5,64.5,282.5,64.5"/>
	<path class="st7" d="M281.6,64.2l-2.4,0l-0.9,0.7c0.2,0,0.5,0,0.7,0C279.9,65,280.8,64.7,281.6,64.2 M275.9,62.9l-0.6,0.5
		c0.6,0.6,1.2,1.1,2,1.3l0.7-0.6C277.2,63.9,276.4,63.5,275.9,62.9 M274.7,59.9l-0.7,0.6c0.1,0.8,0.4,1.6,0.8,2.3l0.6-0.5
		c-0.4-0.7-0.7-1.5-0.7-2.3l0,0l0,0C274.7,60,274.7,59.9,274.7,59.9 M274.9,58.8l-0.9,0.7l0,0l0,0c0,0,0,0,0,0L274.9,58.8
		L274.9,58.8"/>
	<path class="st8" d="M274.9,58.8l-0.9,0.7c0,0.2,0,0.3,0,0.5c0,0.2,0,0.3,0,0.5l0.7-0.6C274.7,59.5,274.8,59.1,274.9,58.8"/>
	<path class="st8" d="M275.4,62.3l-0.6,0.5c0.1,0.2,0.3,0.4,0.5,0.6l0.6-0.5C275.7,62.7,275.5,62.5,275.4,62.3"/>
	<path class="st8" d="M278,64.1l-0.7,0.6c0.3,0.1,0.6,0.2,1,0.2l0.9-0.7h-0.2C278.6,64.2,278.3,64.2,278,64.1"/>
	<polyline class="st8" points="274.9,58.8 274,59.5 274,59.5 274.9,58.8 274.9,58.8 	"/>
	<polyline class="st4" points="274,59.5 274,59.5 274,59.5 274,59.5 	"/>
	<path class="st9" d="M276.5,62.4l-0.6,0.5c0.6,0.6,1.3,1,2.2,1.2l0.7-0.6l0-0.1C277.8,63.4,277,63,276.5,62.4 M275.6,59.2l-0.9,0.7
		c0,0,0,0.1,0,0.1c0,0.8,0.3,1.6,0.7,2.3l0.6-0.5c-0.3-0.5-0.5-1.2-0.5-1.8C275.5,59.7,275.5,59.5,275.6,59.2 M276.9,57.2l-2,1.6
		l0,0l0,0L276.9,57.2L276.9,57.2"/>
	<path class="st10" d="M276.9,57.2l-2,1.6c-0.1,0.4-0.2,0.7-0.2,1.1l0.9-0.7C275.7,58.4,276.2,57.7,276.9,57.2L276.9,57.2"/>
	<path class="st10" d="M276,61.8l-0.6,0.5c0.1,0.2,0.3,0.4,0.5,0.6l0.6-0.5C276.3,62.2,276.1,62,276,61.8"/>
	<path class="st10" d="M278.7,63.6l-0.7,0.6c0.3,0.1,0.6,0.1,0.9,0.1L278.7,63.6"/>
	<polyline class="st10" points="276.9,57.2 274.9,58.8 274.9,58.8 276.9,57.2 	"/>
	<polyline class="st11" points="274.9,58.8 274.9,58.8 274.9,58.8 274.9,58.8 	"/>
	<path class="st1" d="M323.5,78.6l-0.4,1.3L323.5,78.6L323.5,78.6 M321.9,73.7l-0.4,1.3l1.1,3.7l0.4-1.3L321.9,73.7 M320.4,68.7
		L320,70l1.1,3.7l0.4-1.3L320.4,68.7 M318.9,63.7l-0.4,1.3l1.1,3.7l0.4-1.3L318.9,63.7 M317.3,58.7l-0.4,1.3l1.1,3.7l0.4-1.3
		L317.3,58.7 M316.8,57.6l-0.3,1L316.8,57.6"/>
	<path class="st2" d="M323.1,77.3l-0.4,1.3l0.2,0.7l0.2,0.6l0,0l0.4-1.3L323.1,77.3 M321.5,72.4l-0.4,1.3l0.4,1.3l0.4-1.3
		L321.5,72.4 M320,67.4l-0.4,1.3L320,70l0.4-1.3L320,67.4 M318.4,62.4l-0.4,1.3l0.4,1.3l0.4-1.3L318.4,62.4 M316.9,57.4l-0.1,0.3
		l-0.3,1l0.4,1.3l0.4-1.3L316.9,57.4"/>
	<path class="st3" d="M323.9,77.3l-0.4,1.2L323.9,77.3L323.9,77.3 M322.3,72.3l-0.4,1.3l1.1,3.7l0.4-1.3L322.3,72.3 M320.8,67.4
		l-0.4,1.3l1.1,3.7l0.4-1.3L320.8,67.4 M319.3,62.4l-0.4,1.3l1.1,3.7l0.4-1.3L319.3,62.4 M317.7,57.4l-0.4,1.3l1.1,3.7l0.4-1.3
		L317.7,57.4 M317.2,56.5l-0.3,0.9L317.2,56.5"/>
	<path class="st4" d="M323.5,76l-0.4,1.3l0.4,1.3l0-0.1l0.4-1.2L323.5,76 M321.9,71l-0.4,1.3l0.4,1.3l0.4-1.3L321.9,71 M320.4,66.1
		l-0.4,1.3l0.4,1.3l0.4-1.3L320.4,66.1 M318.9,61.1l-0.4,1.3l0.4,1.3l0.4-1.3L318.9,61.1 M317.3,56.1l-0.1,0.4l-0.3,0.9l0.4,1.3
		l0.4-1.3L317.3,56.1"/>
	<path class="st5" d="M324.3,76l-0.4,1.3l0,0L324.3,76L324.3,76 M322.7,71l-0.4,1.3l1.1,3.7l0.4-1.3L322.7,71 M321.2,66.1l-0.4,1.3
		l1.1,3.7l0.4-1.3L321.2,66.1 M319.7,61.1l-0.4,1.3l1.1,3.7l0.4-1.3L319.7,61.1 M318.1,56.1l-0.4,1.3l1.1,3.7l0.4-1.3L318.1,56.1
		 M317.6,55.2l-0.3,0.9L317.6,55.2"/>
	<path class="st6" d="M323.9,74.7l-0.4,1.3l0.4,1.3l0.4-1.3L323.9,74.7 M322.3,69.7l-0.4,1.3l0.4,1.3l0.4-1.3L322.3,69.7
		 M320.8,64.7l-0.4,1.3l0.4,1.3l0.4-1.3L320.8,64.7 M319.3,59.8l-0.4,1.3l0.4,1.3l0.4-1.3L319.3,59.8 M317.7,54.8l-0.1,0.4l-0.3,0.9
		l0.4,1.3l0.4-1.3L317.7,54.8"/>
	<path class="st7" d="M324.7,74.7l-0.4,1.3v0L324.7,74.7 M323.1,69.7l-0.4,1.3l1.1,3.7l0.4-1.3L323.1,69.7 M321.6,64.7l-0.4,1.3
		l1.1,3.7l0.4-1.3L321.6,64.7 M320.1,59.8l-0.4,1.3l1.1,3.7l0.4-1.3L320.1,59.8 M318.5,54.8l-0.4,1.3l1.1,3.7l0.4-1.3L318.5,54.8
		 M318.1,53.5l-0.2,0.7L318.1,53.5L318.1,53.5"/>
	<path class="st8" d="M324.3,73.4l-0.4,1.3l0.4,1.3l0.4-1.3L324.3,73.4 M322.7,68.4l-0.4,1.3l0.4,1.3l0.4-1.3L322.7,68.4
		 M321.2,63.4l-0.4,1.3l0.4,1.3l0.4-1.3L321.2,63.4 M319.7,58.4l-0.4,1.3l0.4,1.3l0.4-1.3L319.7,58.4 M318.1,53.5l-0.2,0.7l-0.2,0.7
		l0.4,1.3l0.4-1.3L318.1,53.5"/>
	<path class="st9" d="M325.1,73.4l-0.4,1.3l0,0L325.1,73.4L325.1,73.4 M323.5,68.4l-0.4,1.3l1.1,3.7l0.4-1.3L323.5,68.4 M322,63.4
		l-0.4,1.3l1.1,3.7l0.4-1.3L322,63.4 M320.5,58.4l-0.4,1.3l1.1,3.7l0.4-1.3L320.5,58.4 M318.9,53.4l-0.4,1.3l1.1,3.7l0.4-1.3
		L318.9,53.4 M318.4,52.4l-0.3,1L318.4,52.4"/>
	<path class="st10" d="M324.7,72.1l-0.4,1.3l0.4,1.3l0.4-1.3L324.7,72.1 M323.1,67.1l-0.4,1.3l0.4,1.3l0.4-1.3L323.1,67.1
		 M321.6,62.1l-0.4,1.3l0.4,1.3l0.4-1.3L321.6,62.1 M320.1,57.1l-0.4,1.3l0.4,1.3l0.4-1.3L320.1,57.1 M318.5,52.1l-0.1,0.3l-0.3,1
		l0.4,1.3l0.4-1.3L318.5,52.1"/>
	<path class="st1" d="M348,78.6l-0.4,1.3L348,78.6L348,78.6 M346.5,73.7l-0.4,1.3l1.1,3.7l0.4-1.3L346.5,73.7 M344.9,68.7l-0.4,1.3
		l1.1,3.7l0.4-1.3L344.9,68.7 M343.4,63.7L343,65l1.1,3.7l0.4-1.3L343.4,63.7 M341.9,58.7l-0.4,1.3l1.1,3.7l0.4-1.3L341.9,58.7
		 M341.4,57.6l-0.3,1L341.4,57.6"/>
	<path class="st2" d="M347.6,77.3l-0.4,1.3l0.2,0.7l0.2,0.6l0.4-1.3L347.6,77.3 M346.1,72.4l-0.4,1.3l0.4,1.3l0.4-1.3L346.1,72.4
		 M344.5,67.4l-0.4,1.3l0.4,1.3l0.4-1.3L344.5,67.4 M343,62.4l-0.4,1.3L343,65l0.4-1.3L343,62.4 M341.5,57.4l-0.1,0.3l-0.3,1
		l0.4,1.3l0.4-1.3L341.5,57.4"/>
	<path class="st3" d="M348.4,77.3l-0.4,1.3L348.4,77.3L348.4,77.3 M346.9,72.3l-0.4,1.3l1.1,3.7L348,76L346.9,72.3 M345.3,67.4
		l-0.4,1.3l1.1,3.7l0.4-1.3L345.3,67.4 M343.8,62.4l-0.4,1.3l1.1,3.7l0.4-1.3L343.8,62.4 M342.3,57.4l-0.4,1.3l1.1,3.7l0.4-1.3
		L342.3,57.4 M341.7,56.5l-0.3,0.9L341.7,56.5"/>
	<path class="st4" d="M348,76l-0.4,1.3l0.4,1.3l0,0l0.4-1.3L348,76 M346.5,71l-0.4,1.3l0.4,1.3l0.4-1.3L346.5,71 M344.9,66.1
		l-0.4,1.3l0.4,1.3l0.4-1.3L344.9,66.1 M343.4,61.1l-0.4,1.3l0.4,1.3l0.4-1.3L343.4,61.1 M341.9,56.1l-0.1,0.4l-0.3,0.9l0.4,1.3
		l0.4-1.3L341.9,56.1"/>
	<path class="st5" d="M348.8,76l-0.4,1.3l0,0L348.8,76L348.8,76 M347.3,71l-0.4,1.3L348,76l0.4-1.3L347.3,71 M345.7,66.1l-0.4,1.3
		l1.1,3.7l0.4-1.3L345.7,66.1 M344.2,61.1l-0.4,1.3l1.1,3.7l0.4-1.3L344.2,61.1 M342.7,56.1l-0.4,1.3l1.1,3.7l0.4-1.3L342.7,56.1
		 M342.1,55.2l-0.3,0.9L342.1,55.2"/>
	<path class="st6" d="M348.4,74.7L348,76l0.4,1.3l0.4-1.3L348.4,74.7 M346.9,69.7l-0.4,1.3l0.4,1.3l0.4-1.3L346.9,69.7 M345.3,64.7
		l-0.4,1.3l0.4,1.3l0.4-1.3L345.3,64.7 M343.8,59.8l-0.4,1.3l0.4,1.3l0.4-1.3L343.8,59.8 M342.3,54.8l-0.1,0.4l-0.3,0.9l0.4,1.3
		l0.4-1.3L342.3,54.8"/>
	<path class="st7" d="M349.2,74.7l-0.4,1.3v0L349.2,74.7 M347.7,69.7l-0.4,1.3l1.1,3.7l0.4-1.3L347.7,69.7 M346.1,64.7l-0.4,1.3
		l1.1,3.7l0.4-1.3L346.1,64.7 M344.6,59.8l-0.4,1.3l1.1,3.7l0.4-1.3L344.6,59.8 M343.1,54.8l-0.4,1.3l1.1,3.7l0.4-1.3L343.1,54.8
		 M342.7,53.5l-0.2,0.8L342.7,53.5L342.7,53.5"/>
	<path class="st8" d="M348.8,73.4l-0.4,1.3l0.4,1.3l0.4-1.3L348.8,73.4 M347.3,68.4l-0.4,1.3l0.4,1.3l0.4-1.3L347.3,68.4
		 M345.7,63.4l-0.4,1.3l0.4,1.3l0.4-1.3L345.7,63.4 M344.2,58.4l-0.4,1.3l0.4,1.3l0.4-1.3L344.2,58.4 M342.7,53.5l-0.2,0.8l-0.2,0.5
		l0.4,1.3l0.4-1.3L342.7,53.5"/>
	<path class="st9" d="M349.6,73.4l-0.4,1.3v0L349.6,73.4L349.6,73.4 M348.1,68.4l-0.4,1.3l1.1,3.7l0.4-1.3L348.1,68.4 M346.6,63.4
		l-0.4,1.3l1.1,3.7l0.4-1.3L346.6,63.4 M345,58.4l-0.4,1.3l1.1,3.7l0.4-1.3L345,58.4 M343.5,53.4l-0.4,1.3l1.1,3.7l0.4-1.3
		L343.5,53.4 M343,52.4l-0.3,1L343,52.4"/>
	<path class="st10" d="M349.2,72.1l-0.4,1.3l0.4,1.3l0.4-1.3L349.2,72.1 M347.7,67.1l-0.4,1.3l0.4,1.3l0.4-1.3L347.7,67.1
		 M346.2,62.1l-0.4,1.3l0.4,1.3l0.4-1.3L346.2,62.1 M344.6,57.1l-0.4,1.3l0.4,1.3l0.4-1.3L344.6,57.1 M343.1,52.1l-0.1,0.3l-0.3,1
		l0.4,1.3l0.4-1.3L343.1,52.1"/>
</g>
</svg>
