<?xml version="1.0" encoding="utf-8"?>
<!-- Generator: Adobe Illustrator 24.1.2, SVG Export Plug-In . SVG Version: 6.00 Build 0)  -->
<svg version="1.1" id="Layer_1" xmlns="http://www.w3.org/2000/svg" xmlns:xlink="http://www.w3.org/1999/xlink" x="0px" y="0px"
	 width="360px" height="264px" viewBox="0 0 360 264" style="enable-background:new 0 0 360 264;" xml:space="preserve">
<style type="text/css">
	.st0{fill:#3A3A3A;}
</style>
<path class="st0" d="M208.2,69.9V7.6h-14.1L192,5.4V2.1l2.1-2.1h35.7l2.2,2.1v3.4l-2.2,2.1h-14v62.3l-2.2,2.1h-3.3L208.2,69.9z
	 M256,69.9V2.1l2.1-2.1h3.4l2.1,2.1v26.4l3.7,3.7h17.5l3.7-3.7V2.1l2.1-2.1h3.4l2.1,2.1v67.8l-2.1,2.1h-3.4l-2.1-2.1V43.4l-3.7-3.7
	h-17.5l-3.7,3.7v26.5l-2.1,2.1h-3.4L256,69.9z M320,69.9V2.1l2.1-2.1h35.8l2.1,2.1v3.4l-2.1,2.1h-26.7l-3.7,3.7v17.3l3.7,3.7h19
	l2.2,2.1v3.4l-2.2,2.1h-19l-3.7,3.7v17.3l3.7,3.7h26.7l2.1,2.1v3.4l-2.1,2.1h-35.8L320,69.9z M0,165.9V98.1L2.1,96h35.8l2.1,2.1v3.4
	l-2.1,2.1H11.2l-3.7,3.7v17.3l3.7,3.7H32l2.2,2.1v3.4l-2.2,2.1H11.2l-3.7,3.7v26.5L5.5,168H2.1L0,165.9z M256,159.9v-55.7l8.1-8.1
	h23.7l8.1,8.1v55.7l-8.1,8.1h-23.7L256,159.9z M284.8,160.4l3.7-3.7v-49.5l-3.7-3.7h-17.5l-3.7,3.7v49.5l3.7,3.7H284.8z M192,165.9
	V98.1l2.2-2.1h3.3l2.2,2.1l-0.1,58.7l3.7,3.7h26.7l2.1,2.1v3.4l-2.1,2.1h-35.8L192,165.9z M128,165.9V98.1l2.2-2.1h3.3l2.2,2.1
	l-0.1,58.7l3.7,3.7h26.7l2.1,2.1v3.4l-2.1,2.1h-35.8L128,165.9z M64,159.9v-55.7l8.1-8.1h23.7l8.1,8.1v55.7l-8.1,8.1H72.1L64,159.9z
	 M92.8,160.4l3.7-3.7v-49.5l-3.7-3.7H75.2l-3.7,3.7v49.5l3.7,3.7H92.8z M320,165.9V98.1l2.1-2.1h3.4l2.1,2.1v47.5l9.3-12.5l3-0.8
	l3.1,0.8l9.3,12.4V98.1l2.1-2.1h3.4l2.1,2.1v67.8l-2.1,2.1h-3.4l-2.1-2.1v-5.2L340,142.9l-12.4,17.8v5.1l-2.1,2.1h-3.4L320,165.9z
	 M0,229.7v-3.4l2.1-2.1h35.7l2.2,2.1v3.4l-2.2,2.1H2.1L0,229.7z M64,255.9v-61.7l2.1-2.2h3.4l2.1,2.2v58.6l3.7,3.7h17.5l3.7-3.7
	v-58.6l2.1-2.2h3.3l2.2,2.2v61.7l-8.1,8.1H72.1L64,255.9z M128,261.9v-67.7l2.1-2.2h29.8l8.1,8.1v23.5l-8.1,8.1h-24.3v30.1l-2.1,2.1
	h-3.4L128,261.9z M156.8,224.2l3.7-3.7v-17.3l-3.7-3.7h-17.5l-3.7,3.7v17.3l3.7,3.7H156.8z"/>
</svg>
