<svg version="1.1" id="Layer_1" xmlns="http://www.w3.org/2000/svg" xmlns:xlink="http://www.w3.org/1999/xlink" x="0px" y="0px"
	 width="63px" height="37px" viewBox="0 0 63 37" enable-background="new 0 0 63 37" xml:space="preserve">
<rect x="25" y="6" fill="#c4c4c4" width="1" height="25"/>
<rect x="28" y="6" fill="#c4c4c4" width="1" height="25"/>
<rect x="31" y="6" fill="#c4c4c4" width="1" height="25"/>
<rect x="31.5" y="24" fill="#c4c4c4" width="2" height="1"/>
<rect x="31.5" y="27" fill="#c4c4c4" width="2" height="1"/>
<rect x="31.5" y="30" fill="#c4c4c4" width="2" height="1"/>
<rect x="31.5" y="21" fill="#c4c4c4" width="2" height="1"/>
<rect x="31.5" y="18" fill="#c4c4c4" width="2" height="1"/>
<rect x="31.5" y="15" fill="#c4c4c4" width="2" height="1"/>
<rect x="31.5" y="12" fill="#c4c4c4" width="2" height="1"/>
<rect x="31.5" y="9" fill="#c4c4c4" width="2" height="1"/>
<rect x="31.5" y="6" fill="#c4c4c4" width="2" height="1"/>
<path fill="#c4c4c4" d="M34,28h-0.5v-1H34c2.206,0,4-1.794,4-4s-1.794-4-4-4h-0.5v-1H34c2.757,0,5,2.243,5,5S36.757,28,34,28z"/>
<path fill="#c4c4c4" d="M34,25h-0.5v-1H34c0.551,0,1-0.448,1-1s-0.449-1-1-1h-0.5v-1H34c1.103,0,2,0.897,2,2S35.103,25,34,25z"/>
<path fill="#c4c4c4" d="M35,14c0,0.552-0.449,1-1,1c0.555,0,1.096,0.057,1.619,0.165C35.856,14.836,36,14.436,36,14
	c0-1.103-0.897-2-2-2h-0.5v1H34C34.551,13,35,13.448,35,14z"/>
<path fill="#c4c4c4" d="M38,14c0,0.644-0.163,1.271-0.456,1.839c0.3,0.148,0.591,0.311,0.868,0.494C38.791,15.615,39,14.816,39,14
	c0-2.757-2.243-5-5-5h-0.5v1H34C36.206,10,38,11.794,38,14z"/>
<path fill="#c4c4c4" d="M41,14c0,1.309-0.374,2.563-1.056,3.665c0.238,0.266,0.464,0.541,0.666,0.837C41.519,17.174,42,15.618,42,14
	c0-4.411-3.589-8-8-8h-0.5v1H34C37.86,7,41,10.141,41,14z"/>
<path fill="#c4c4c4" d="M34,31h-0.5v-1H34c3.86,0,7-3.141,7-7s-3.14-7-7-7h-0.5v-1H34c4.411,0,8,3.589,8,8S38.411,31,34,31z"/>
<g>
	<polygon fill="#c4c4c4" points="62,28.382 60,24.382 60,6 59,6 59,22.382 57,18.382 57,6 56,6 56,16.381 50.81,6 49.691,6 
		62.191,31 63,31 63,6 62,6 	"/>
	<polygon fill="#c4c4c4" points="45,8.618 47,12.618 47,31 48,31 48,14.618 50,18.618 50,31 51,31 51,20.619 56.19,31 57.309,31 
		44.809,6 44,6 44,31 45,31 	"/>
	<polygon fill="#c4c4c4" points="60.309,31 47.809,6 46.691,6 59.191,31 	"/>
</g>
<polygon fill="#c4c4c4" points="0,37 23.893,0 25,0 1.107,37 "/>
</svg>
